<svg style="position: absolute; width: 0; height: 0; overflow: hidden;" version="1.1" xmlns="http://www.w3.org/2000/svg">
  <symbol viewBox="0 0 24 24" id="atomic-bomb">
    <title>atomic-bomb</title>
    <path fill="none" d="M0 0h24v24H0z" />
    <path d="M20.754 21.014L20.582 21c-.058 0-.154.006-.284.016-.179.013-.451.034-.781.034-2.721 0-4.18-1.334-4.458-4.049H19v-2h-4v-2h3.363C21.007 13 23 11.123 23 8.636 23 6.08 20.92 4 18.363 4c-.854 0-1.62.168-2.271.492C15.311 3.002 13.75 2 12 2S8.689 3.002 7.908 4.492C7.256 4.167 6.491 4 5.637 4 3.08 4 1 6.08 1 8.636 1 11.123 2.993 13 5.637 13H9v2H5v2h3.942c-.278 2.715-1.738 4.049-4.458 4.049-.331 0-.603-.021-.781-.034-.131-.009-.227-.015-.285-.015l-.172.015c-.774.135-1.308.827-1.24 1.611S2.717 24 3.504 24h16.992c.787 0 1.431-.591 1.498-1.375.068-.784-.466-1.476-1.24-1.611zM10 11H5.637C4.327 11 3 10.188 3 8.636 3 7.182 4.183 6 5.637 6c.902 0 1.579.262 2.01.777.254.304.662.429 1.042.32.38-.109.661-.432.715-.823C9.586 4.977 10.702 4 12 4s2.414.978 2.596 2.274c.055.391.335.714.715.823.379.108.789-.016 1.042-.32.432-.516 1.108-.777 2.01-.777C19.817 6 21 7.182 21 8.636 21 10.188 19.673 11 18.363 11H14c-.552 0-1 .448-1 1v3h-2v-3c0-.552-.448-1-1-1zM8.365 22c1.497-1.005 2.395-2.708 2.593-5h2.083c.184 2.201.996 3.838 2.422 4.875.059.043.119.085.179.125H8.365z" />
  </symbol>
  <symbol viewBox="0 0 24 24" id="bin">
    <title>bin</title>
    <path fill="none" d="M0 0h24v24H0z" />
    <g>
      <path d="M5 20c0 1.103.897 2 2 2h10c1.103 0 2-.897 2-2V8H5v12zm2-10h10l.001 10H7V10zM15 5V3H9v2H3v2h18V5" />
      <path d="M9 12h2v6H9zM13 12h2v6h-2z" /> </g>
  </symbol>
  <symbol viewBox="0 0 24 24" id="binoculars">
    <title>binoculars</title>
    <path fill="none" d="M0 0h24v24H0z" />
    <path d="M21.956 16.706L18.331 4.925C17.976 3.774 16.929 3 15.726 3 14.223 3 13 4.223 13 5.726V7h-2V5.726C11 4.223 9.777 3 8.274 3c-1.204 0-2.25.774-2.605 1.925L2.044 16.706C2.015 16.801 2 16.9 2 17v.5C2 19.982 4.019 22 6.5 22s4.5-2.018 4.5-4.5V13h2v4.5c0 2.482 2.019 4.5 4.5 4.5s4.5-2.018 4.5-4.5V17c0-.1-.015-.199-.044-.294zM6.5 20C5.122 20 4 18.878 4 17.5S5.122 15 6.5 15 9 16.122 9 17.5 7.878 20 6.5 20zM9 13.762C8.284 13.282 7.425 13 6.5 13c-.451 0-.877.086-1.288.21L7.58 5.512c.095-.306.374-.512.694-.512.4 0 .726.325.726.726v8.036zM11 11V9h2v2h-2zm4-4V5.726c0-.401.326-.726.726-.726.32 0 .599.206.694.513l2.368 7.698c-.411-.125-.837-.211-1.288-.211-.925 0-1.784.282-2.5.762V7zm2.5 13c-1.378 0-2.5-1.122-2.5-2.5s1.122-2.5 2.5-2.5 2.5 1.122 2.5 2.5-1.122 2.5-2.5 2.5z" />
  </symbol>
  <symbol viewBox="0 0 24 24" id="delete">
    <title>delete</title>
    <path fill="none" d="M0 0h24v24H0z" />
    <path d="M19.077 4.929C17.188 3.04 14.676 2 12.005 2 9.334 2 6.823 3.04 4.934 4.929c-1.889 1.889-2.93 4.4-2.93 7.07 0 2.671 1.041 5.183 2.93 7.073C6.823 20.96 9.334 22 12.005 22s5.182-1.04 7.071-2.927c3.899-3.901 3.899-10.245.001-14.144zm-.758 11.973L13.419 12l4.901-4.9c2.233 2.874 2.233 6.926-.001 9.802zM16.907 5.686l-4.902 4.901-4.901-4.901C8.501 4.597 10.206 4 12.005 4c1.8 0 3.504.597 4.902 1.686zM4.004 12c0-1.799.597-3.504 1.686-4.9l4.901 4.9-4.901 4.902C4.601 15.504 4.004 13.8 4.004 12zm3.1 6.315l4.9-4.901 4.9 4.901C15.508 19.404 13.804 20 12.005 20s-3.504-.596-4.901-1.685z" />
  </symbol>
  <symbol viewBox="0 0 24 24" id="flash-off">
    <title>flash-off</title>
    <path fill="none" d="M0-.001h24v24H0z" />
    <g>
      <path d="M16.229 12h.706l-.313.392 1.423 1.423 1.752-2.19c.24-.301.287-.712.121-1.058S19.399 10 19.015 10h-4.786l2 2zM4.707 3.307L3.293 4.721l3.925 3.924-2.983 3.729c-.24.302-.287.712-.121 1.058s.517.568.901.568h5v7c0 .425.268.803.669.943.108.038.22.057.331.057.298 0 .587-.133.781-.375l3.733-4.667 3.764 3.764 1.414-1.414-16-16.001zM7.096 12l1.545-1.931L10.571 12H7.096zm4.919 6.149v-4.707l2.091 2.092-2.091 2.615zM11.155 6.925l.86-1.075v1.936l2 2V3c0-.425-.268-.803-.669-.943-.401-.142-.847-.013-1.112.318L9.732 5.502l1.423 1.423z"
      /> </g>
  </symbol>
  <symbol viewBox="0 0 24 24" id="flash">
    <title>flash</title>
    <path fill="none" d="M0-.001h24v24H0z" />
    <path d="M11 22c-.111 0-.223-.018-.331-.057-.401-.141-.669-.519-.669-.943v-7H5c-.384 0-.735-.221-.901-.567s-.12-.756.121-1.058l8-10c.265-.331.711-.459 1.112-.318.4.14.668.518.668.943v7h5c.384 0 .735.221.901.567s.12.757-.121 1.058l-8 10c-.193.241-.482.375-.78.375zM7.081 12H11c.552 0 1 .448 1 1v5.15L16.919 12H13c-.552 0-1-.448-1-1V5.85L7.081 12z" />
  </symbol>
</svg>