<svg style="position: absolute; width: 0; height: 0; overflow: hidden;" version="1.1" xmlns="http://www.w3.org/2000/svg">
<defs>
<symbol id="icon-warning" viewBox="0 0 40 40">
<title>warning</title>
<path d="M39.022 35.96l-17.814-33.264c-0.248-0.43-0.708-0.696-1.208-0.696-0.502 0-0.962 0.266-1.208 0.696l-17.812 33.264c-0.242 0.422-0.238 0.942 0.010 1.36 0.25 0.422 0.704 0.68 1.196 0.68h35.628c0.49 0 0.948-0.258 1.196-0.68 0.248-0.418 0.252-0.938 0.012-1.36zM22 34h-4v-4h4v4zM22 27h-4v-13h4v13z"></path>
</symbol>
<symbol id="icon-chevron-left" viewBox="0 0 40 40">
<title>chevron-left</title>
<path d="M24.904 9.032c0.892 0.872 0.962 2.086 0 3.152l-7.494 7.816 7.494 7.816c0.962 1.066 0.892 2.282 0 3.148-0.89 0.872-2.394 0.816-3.23 0-0.836-0.812-9.004-9.39-9.004-9.39-0.446-0.434-0.67-1.004-0.67-1.574s0.224-1.14 0.67-1.578c0 0 8.168-8.574 9.004-9.39 0.836-0.818 2.34-0.872 3.23 0z"></path>
</symbol>
<symbol id="icon-chevron-right" viewBox="0 0 40 40">
<title>chevron-right</title>
<path d="M18.326 9.032c0.836 0.816 9.004 9.39 9.004 9.39 0.446 0.438 0.67 1.008 0.67 1.578s-0.224 1.14-0.67 1.574c0 0-8.168 8.578-9.004 9.39-0.836 0.816-2.34 0.872-3.23 0-0.892-0.868-0.962-2.082 0-3.148l7.494-7.816-7.494-7.816c-0.962-1.066-0.892-2.282 0-3.152 0.89-0.872 2.394-0.818 3.23 0z"></path>
</symbol>
<symbol id="icon-dots-three-vertical" viewBox="0 0 40 40">
<title>dots-three-vertical</title>
<path d="M20.002 15.6c-2.43 0-4.402 1.97-4.402 4.4s1.972 4.4 4.402 4.4c2.43 0 4.398-1.97 4.398-4.4s-1.968-4.4-4.398-4.4zM20.002 10.4c2.43 0 4.398-1.972 4.398-4.4s-1.968-4.4-4.398-4.4c-2.43 0-4.402 1.97-4.402 4.4s1.972 4.4 4.402 4.4zM20.002 29.6c-2.43 0-4.402 1.97-4.402 4.4s1.972 4.4 4.402 4.4c2.43 0 4.398-1.97 4.398-4.4s-1.968-4.4-4.398-4.4z"></path>
</symbol>
<symbol id="icon-trash" viewBox="0 0 40 40">
<title>trash</title>
<path d="M6.778 14.226l2.202 21.816c0.122 0.922 4.574 3.954 11.020 3.958 6.45-0.004 10.902-3.036 11.022-3.958l2.204-21.816c-3.368 1.884-8.402 2.774-13.226 2.774-4.82 0-9.856-0.89-13.222-2.774zM26.336 3.020l-1.718-1.902c-0.664-0.946-1.384-1.118-2.786-1.118h-3.662c-1.4 0-2.122 0.172-2.784 1.118l-1.718 1.902c-5.14 0.898-8.868 3.28-8.868 5.038v0.34c0 3.094 6.806 5.602 15.2 5.602 8.396 0 15.202-2.508 15.202-5.602v-0.34c0-1.758-3.726-4.14-8.866-5.038zM24.14 8.68l-2.14-2.68h-4l-2.136 2.68h-3.4c0 0 3.724-4.442 4.222-5.044 0.38-0.46 0.768-0.636 1.272-0.636h4.086c0.506 0 0.894 0.176 1.274 0.636 0.496 0.602 4.222 5.044 4.222 5.044h-3.4z"></path>
</symbol>
<symbol id="icon-back-in-time" viewBox="0 0 40 40">
<title>back-in-time</title>
<path d="M22 3.598c-8.89 0-16.122 7.124-16.338 15.992v0.41h-4.744l7.188 7.788 6.988-7.788h-5.344v-0.41c0.214-6.606 5.616-11.89 12.25-11.89 6.772 0 12.262 5.508 12.262 12.3s-5.49 12.3-12.262 12.3c-2.714 0-5.222-0.89-7.254-2.386l-2.812 3.008c2.776 2.176 6.27 3.476 10.066 3.476 9.030 0 16.348-7.34 16.348-16.398s-7.318-16.402-16.348-16.402zM20 10v10c0 0.26 0.054 0.52 0.154 0.764 0.102 0.244 0.248 0.466 0.432 0.65l6.4 6.4c0.566-0.366 1.1-0.778 1.574-1.256l-4.56-4.558v-12h-4z"></path>
</symbol>
<symbol id="icon-bell" viewBox="0 0 40 40">
<title>bell</title>
<path d="M29.3 17.024c-4.56-9.814-6.932-13.542-14.382-13.386-2.654 0.054-2.018-1.924-4.042-1.174-2.020 0.75-0.286 1.848-2.354 3.546-5.804 4.766-5.27 9.174-2.578 19.68 1.134 4.426-2.734 4.642-1.204 8.93 1.118 3.128 9.358 4.438 18.050 1.214 8.694-3.226 14.172-9.628 13.054-12.756-1.53-4.29-4.622-1.922-6.544-6.054zM21.848 33.19c-7.764 2.88-14.144 1.188-14.414 0.434-0.464-1.3 2.506-5.632 11.382-8.926s13.83-2.072 14.348-0.622c0.306 0.858-3.55 6.232-11.316 9.114zM19.352 26.202c-4.058 1.506-6.878 3.228-8.706 4.778 1.286 1.168 3.694 1.452 6.092 0.562 3.054-1.13 4.932-3.732 4.19-5.808-0.010-0.026-0.022-0.046-0.032-0.072-0.502 0.164-1.016 0.342-1.544 0.54z"></path>
</symbol>
<symbol id="icon-calendar" viewBox="0 0 40 40">
<title>calendar</title>
<path d="M34 6h-2v4h-6v-4h-12v4h-6v-4h-2c-2.202 0-4 1.8-4 4v24c0 2.2 1.798 4 4 4h28c2.2 0 4-1.8 4-4v-24c0-2.2-1.8-4-4-4zM34 34h-28v-16h28v16zM13 2h-4v7h4v-7zM31 2h-4v7h4v-7z"></path>
</symbol>
<symbol id="icon-chat" viewBox="0 0 40 40">
<title>chat</title>
<path d="M11.6 24.4v-12.4h-7.6c-2.2 0-4 1.8-4 4v12c0 2.2 1.8 4 4 4h2v6l6-6h10c2.2 0 4-1.8 4-4v-3.64c-0.128 0.028-0.264 0.042-0.4 0.042l-14-0.002zM36 2h-18c-2.2 0-4 1.8-4 4v16h14l6 6v-6h2c2.2 0 4-1.798 4-4v-12c0-2.2-1.8-4-4-4z"></path>
</symbol>
<symbol id="icon-check" viewBox="0 0 40 40">
<title>check</title>
<path d="M16.588 33.996c-0.87 0-1.694-0.406-2.222-1.106l-7.146-9.442c-0.93-1.226-0.688-2.972 0.54-3.902 1.23-0.934 2.976-0.688 3.906 0.54l4.702 6.208 11.822-18.984c0.814-1.304 2.534-1.704 3.842-0.89 1.306 0.812 1.708 2.532 0.892 3.84l-13.968 22.42c-0.484 0.782-1.322 1.27-2.24 1.312-0.044 0.004-0.084 0.004-0.128 0.004z"></path>
</symbol>
<symbol id="icon-edit" viewBox="0 0 40 40">
<title>edit</title>
<path d="M35.122 4.878c-2.884-2.886-5.050-2.454-5.050-2.454l-25.652 25.65-2.020 9.524 9.526-2.020 25.652-25.646c-0.002 0 0.432-2.166-2.456-5.054zM11.36 34.434l-3.248 0.7c-0.312-0.586-0.69-1.172-1.38-1.864-0.692-0.692-1.278-1.066-1.864-1.382l0.7-3.246 0.94-0.938c0 0 1.766 0.036 3.762 2.032 1.994 1.992 2.032 3.762 2.032 3.762l-0.942 0.936z"></path>
</symbol>
<symbol id="icon-emoji-sad" viewBox="0 0 40 40">
<title>emoji-sad</title>
<path d="M20.002 0.8c-10.606 0-19.202 8.596-19.202 19.2 0 10.606 8.596 19.202 19.202 19.202 10.602 0 19.2-8.596 19.2-19.202-0.002-10.604-8.6-19.2-19.2-19.2zM20 35.198c-8.394 0-15.2-6.804-15.2-15.2 0-8.394 6.804-15.2 15.2-15.2 8.394 0 15.2 6.804 15.2 15.2s-6.806 15.2-15.2 15.2zM25.002 19.5c1.656 0 3-1.566 3-3.5s-1.344-3.5-3-3.5c-1.656 0-3 1.566-3 3.5s1.342 3.5 3 3.5zM15.002 19.5c1.656 0 3-1.566 3-3.5s-1.344-3.5-3-3.5c-1.656 0-3 1.566-3 3.5s1.342 3.5 3 3.5zM20.004 22.5c-6.848 0-9.244 4.63-9.344 4.828-0.372 0.742-0.070 1.642 0.67 2.014 0.216 0.106 0.444 0.158 0.67 0.158 0.55 0 1.080-0.302 1.344-0.828 0.016-0.034 1.644-3.172 6.66-3.172 4.926 0 6.596 3.054 6.656 3.17 0.368 0.74 1.27 1.046 2.012 0.672 0.742-0.368 1.042-1.272 0.672-2.012-0.098-0.198-2.492-4.83-9.34-4.83z"></path>
</symbol>
<symbol id="icon-flash" viewBox="0 0 40 40">
<title>flash</title>
<path d="M13.606 37.996c-0.388-0.254 6.306-14.32 6.076-14.938-0.232-0.618-7.33-2.872-7.676-3.958-0.348-1.086 14.014-17.414 14.392-17.098 0.376 0.316-6.258 14.476-6.078 14.938 0.182 0.46 7.456 2.808 7.676 3.958 0.222 1.15-14.004 17.352-14.39 17.098z"></path>
</symbol>
<symbol id="icon-funnel" viewBox="0 0 40 40">
<title>funnel</title>
<path d="M20 2c-9.816 0-16 3.024-16 6.002v4c0 1.836 12 12 12 12v12c-0.002 1.368 2 2 4 2s4.002-0.632 4-2v-12c0 0 12-10.164 12-12v-4c0-2.978-6.184-6.002-16-6.002zM20 12.246c-7.182-0.002-12.276-2.666-12.276-3.662-0.004-0.99 5.096-3.662 12.276-3.658 7.18-0.004 12.28 2.668 12.276 3.656 0 0.998-5.094 3.662-12.276 3.664z"></path>
</symbol>
<symbol id="icon-globe" viewBox="0 0 40 40">
<title>globe</title>
<path d="M20 0.8c-10.59 0-19.202 8.614-19.202 19.2s8.612 19.2 19.202 19.2c10.586 0 19.2-8.614 19.2-19.2s-8.614-19.2-19.2-19.2zM36.376 20c0 3.746-1.272 7.2-3.392 9.96-0.6-0.468-1.238-1.734-0.638-3.046 0.606-1.32 0.764-4.376 0.624-5.566-0.132-1.188-0.75-4.050-2.428-4.078-1.676-0.024-2.826-0.578-3.822-2.566-2.066-4.136 3.878-4.93 1.812-7.218-0.578-0.644-3.566 2.644-4.004-1.738-0.028-0.314 0.27-0.784 0.672-1.272 6.488 2.18 11.176 8.314 11.176 15.524zM17.75 3.786c-0.392 0.764-1.426 1.074-2.054 1.648-1.368 1.238-1.956 1.066-2.692 2.254-0.742 1.188-3.134 2.898-3.134 3.758s1.208 1.872 1.812 1.676c0.604-0.2 2.198-0.188 3.134 0.14 0.938 0.332 7.828 0.664 5.632 6.488-0.696 1.852-3.746 1.54-4.558 4.606-0.122 0.45-0.544 2.372-0.57 3-0.050 0.972 0.688 4.636-0.25 4.636-0.942 0-3.476-3.278-3.476-3.872s-0.656-2.676-0.656-4.46c0-1.782-3.036-1.754-3.036-4.124 0-2.136 1.646-3.2 1.276-4.226-0.362-1.020-3.254-1.054-4.46-1.18 2.106-5.462 7.060-9.516 13.032-10.344zM14.848 35.54c0.984-0.52 1.084-1.192 1.976-1.226 1.020-0.046 1.85-0.398 3-0.652 1.020-0.222 2.846-1.258 4.452-1.39 1.356-0.11 4.030 0.070 4.75 1.378-2.59 1.722-5.696 2.726-9.028 2.726-1.798 0-3.53-0.298-5.15-0.836z"></path>
</symbol>
<symbol id="icon-help-with-circle" viewBox="0 0 40 40">
<title>help-with-circle</title>
<path d="M20 0.8c-10.604 0-19.2 8.596-19.2 19.2s8.596 19.2 19.2 19.2c10.602 0 19.2-8.596 19.2-19.202 0-10.602-8.598-19.198-19.2-19.198zM19.698 31.198h-0.102c-1.564-0.046-2.668-1.2-2.622-2.742 0.044-1.516 1.174-2.618 2.686-2.618l0.092 0.004c1.608 0.046 2.7 1.188 2.654 2.774-0.046 1.52-1.156 2.582-2.708 2.582zM26.28 18.136c-0.368 0.52-1.176 1.172-2.196 1.966l-1.124 0.774c-0.616 0.48-0.988 0.934-1.126 1.376-0.112 0.348-0.164 0.442-0.174 1.152v0.18h-4.29l0.012-0.364c0.054-1.488 0.090-2.368 0.708-3.094 0.97-1.136 3.11-2.516 3.2-2.574 0.308-0.23 0.566-0.492 0.758-0.774 0.45-0.622 0.648-1.11 0.648-1.586 0-0.668-0.196-1.286-0.586-1.832-0.376-0.532-1.090-0.796-2.122-0.796-1.024 0-1.726 0.324-2.144 0.992-0.432 0.682-0.65 1.4-0.65 2.134v0.184h-4.422l0.008-0.192c0.114-2.706 1.082-4.656 2.87-5.794 1.126-0.722 2.528-1.088 4.162-1.088 2.136 0 3.944 0.52 5.364 1.544 1.442 1.038 2.172 2.594 2.172 4.622-0.002 1.134-0.36 2.2-1.068 3.17z"></path>
</symbol>
<symbol id="icon-info-with-circle" viewBox="0 0 40 40">
<title>info-with-circle</title>
<path d="M20 0.8c-10.606 0-19.202 8.596-19.202 19.2 0 10.606 8.596 19.202 19.202 19.202 10.602 0 19.2-8.596 19.2-19.202 0-10.604-8.598-19.2-19.2-19.2zM21.792 7.732c1.872 0 2.422 1.086 2.422 2.328 0 1.55-1.24 2.984-3.358 2.984-1.772 0-2.616-0.89-2.564-2.364 0-1.242 1.038-2.948 3.5-2.948zM16.996 31.5c-1.28 0-2.214-0.778-1.32-4.188l1.466-6.050c0.254-0.968 0.296-1.356 0-1.356-0.382 0-2.044 0.668-3.024 1.328l-0.638-1.046c3.11-2.598 6.686-4.122 8.216-4.122 1.28 0 1.492 1.512 0.854 3.84l-1.68 6.36c-0.298 1.124-0.17 1.512 0.128 1.512 0.384 0 1.64-0.464 2.876-1.438l0.724 0.972c-3.026 3.024-6.324 4.188-7.602 4.188z"></path>
</symbol>
<symbol id="icon-link" viewBox="0 0 40 40">
<title>link</title>
<path d="M15.718 29.382l-1.62 1.61c-1.402 1.39-3.686 1.39-5.090 0-0.672-0.668-1.042-1.558-1.042-2.504s0.372-1.832 1.042-2.504l5.96-5.91c1.234-1.226 3.558-3.030 5.252-1.35 0.778 0.772 2.032 0.768 2.806-0.010 0.77-0.778 0.766-2.034-0.012-2.804-2.876-2.856-7.132-2.328-10.838 1.35l-5.96 5.912c-1.43 1.418-2.216 3.308-2.216 5.316 0 2.012 0.788 3.898 2.216 5.316 1.472 1.46 3.404 2.192 5.338 2.192s3.868-0.73 5.338-2.192l1.622-1.61c0.778-0.77 0.782-2.024 0.010-2.8-0.774-0.776-2.028-0.78-2.806-0.012zM33.782 6.414c-3.094-3.068-7.418-3.234-10.278-0.394l-2.018 2.004c-0.778 0.772-0.784 2.026-0.012 2.802 0.772 0.778 2.026 0.782 2.804 0.010l2.020-2.002c1.48-1.472 3.422-0.862 4.692 0.394 0.672 0.67 1.044 1.558 1.044 2.504s-0.372 1.834-1.044 2.502l-6.36 6.308c-2.908 2.882-4.272 1.532-4.854 0.954-0.778-0.772-2.032-0.766-2.802 0.010-0.772 0.778-0.768 2.034 0.010 2.802 1.336 1.324 2.86 1.98 4.456 1.98 1.954 0 4.020-0.984 5.986-2.934l6.36-6.306c1.424-1.42 2.214-3.308 2.214-5.316 0-2.010-0.79-3.898-2.218-5.318z"></path>
</symbol>
<symbol id="icon-list" viewBox="0 0 40 40">
<title>list</title>
<path d="M28.8 18h-11.6c-1.104 0-1.2 0.894-1.2 2s0.096 2 1.2 2h11.6c1.104 0 1.2-0.894 1.2-2s-0.096-2-1.2-2zM32.8 28h-15.6c-1.104 0-1.2 0.894-1.2 2s0.096 2 1.2 2h15.6c1.104 0 1.2-0.894 1.2-2s-0.096-2-1.2-2zM17.2 12h15.6c1.104 0 1.2-0.894 1.2-2s-0.096-2-1.2-2h-15.6c-1.104 0-1.2 0.894-1.2 2s0.096 2 1.2 2zM10.8 18h-3.6c-1.104 0-1.2 0.894-1.2 2s0.096 2 1.2 2h3.6c1.104 0 1.2-0.894 1.2-2s-0.096-2-1.2-2zM10.8 28h-3.6c-1.104 0-1.2 0.894-1.2 2s0.096 2 1.2 2h3.6c1.104 0 1.2-0.894 1.2-2s-0.096-2-1.2-2zM10.8 8h-3.6c-1.104 0-1.2 0.894-1.2 2s0.096 2 1.2 2h3.6c1.104 0 1.2-0.894 1.2-2s-0.096-2-1.2-2z"></path>
</symbol>
<symbol id="icon-lock" viewBox="0 0 40 40">
<title>lock</title>
<path d="M31.6 16h-3.6v-4.8c0-5.794-2.67-9.2-8-9.2-5.332 0-8 3.406-8 9.2v4.8h-4c-1.106 0-2 1.292-2 2.398v15.602c0 1.098 0.856 2.278 1.902 2.614l2.394 0.774c1.048 0.334 2.804 0.612 3.904 0.612h11.6c1.098 0 2.856-0.278 3.902-0.614l2.392-0.774c1.048-0.334 1.906-1.514 1.906-2.612v-15.602c0-1.106-1.296-2.398-2.4-2.398zM24 16h-8v-5.602c0-2.89 1.594-4.398 4-4.398s4 1.508 4 4.398v5.602z"></path>
</symbol>
<symbol id="icon-magnifying-glass" viewBox="0 0 40 40">
<title>magnifying-glass</title>
<path d="M35.090 30.934l-7.558-7.558c1.14-1.87 1.796-4.070 1.796-6.42 0-6.834-5.922-12.754-12.756-12.754-6.834-0.002-12.372 5.538-12.372 12.372 0 6.832 5.922 12.754 12.754 12.754 2.274 0 4.4-0.618 6.23-1.688l7.598 7.602c0.744 0.742 1.95 0.742 2.692 0l1.886-1.886c0.742-0.742 0.472-1.68-0.27-2.422zM8.008 16.574c0-4.732 3.834-8.566 8.564-8.566 4.732 0 8.948 4.214 8.948 8.948 0 4.73-3.836 8.566-8.566 8.566-4.732-0.002-8.946-4.218-8.946-8.948z"></path>
</symbol>
<symbol id="icon-new-message" viewBox="0 0 40 40">
<title>new-message</title>
<path d="M36.348 3.652c-2.204-2.204-4.164-1.554-4.164-1.554l-17.278 17.264-2.906 8.638 8.634-2.908 17.268-17.276c0 0 0.648-1.96-1.554-4.164zM21.21 23.21l-0.942 0.94-2.946 1c-0.208-0.48-0.468-0.954-0.996-1.48-0.528-0.528-1-0.788-1.48-0.996l1-2.946 0.942-0.94c0 0 1.552-0.178 3.074 1.346 1.524 1.522 1.348 3.076 1.348 3.076zM32 34h-26v-26h10l4-4h-14c-2.2 0-4 1.8-4 4v26c0 2.2 1.8 4 4 4h26c2.2 0 4-1.8 4-4v-14l-4 4v10z"></path>
</symbol>
<symbol id="icon-new" viewBox="0 0 40 40">
<title>new</title>
<path d="M37.38 24.688l-3.454-3.076c-1-0.89-1-2.348 0-3.238l3.454-3.078c1-0.89 0.734-1.718-0.592-1.848l-4.58-0.434c-1.324-0.124-2.040-1.266-1.582-2.532l2.43-6.766c0.456-1.27-0.102-1.73-1.238-1.028l-5.402 3.34c-1.136 0.708-2.606 0.32-3.262-0.852l-1.956-3.492c-0.658-1.176-1.744-1.18-2.414-0.016l-1.818 3.16c-0.674 1.17-2.216 1.666-3.426 1.112l-3.2-1.468c-1.216-0.56-2.146 0.084-2.074 1.432l0.172 3.23c0.074 1.348-0.922 2.734-2.208 3.082l-3.090 0.828c-1.284 0.348-1.52 1.36-0.52 2.25l3.454 3.078c1 0.89 1 2.348 0 3.238l-3.454 3.078c-1 0.89-0.736 1.754 0.586 1.914l4.19 0.508c1.322 0.16 2.058 1.34 1.636 2.622l-2.148 6.516c-0.422 1.282 0.18 1.778 1.336 1.11l4.926-2.852c1.156-0.668 2.712-0.3 3.458 0.816l2.044 3.078c0.744 1.118 1.862 1.058 2.48-0.136l1.798-3.466c0.62-1.196 2.104-1.684 3.296-1.086l3.468 1.734c1.196 0.594 2.114-0.020 2.042-1.364l-0.174-3.234c-0.070-1.348 0.922-2.73 2.212-3.078l3.086-0.832c1.288-0.348 1.524-1.36 0.524-2.25zM22 28h-4v-4h4v4zM22 22h-4v-10h4v10z"></path>
</symbol>
<symbol id="icon-paper-plane" viewBox="0 0 40 40">
<title>paper-plane</title>
<path d="M37.28 5.268c-0.688 0.242-34.642 12.208-35.312 12.444-0.568 0.2-0.694 0.69-0.020 0.958 0.802 0.322 7.592 3.042 7.592 3.042v0l4.5 1.802c0 0 21.676-15.916 21.968-16.132 0.296-0.216 0.636 0.19 0.422 0.422-0.214 0.234-15.742 17.026-15.742 17.026v0.004l-0.904 1.006 1.198 0.644c0 0 9.3 5.008 9.964 5.364 0.582 0.312 1.336 0.054 1.504-0.668 0.198-0.852 5.69-24.522 5.812-25.050 0.158-0.686-0.296-1.104-0.982-0.862zM14 34.324c0 0.492 0.278 0.63 0.662 0.282 0.502-0.458 5.7-5.122 5.7-5.122l-6.362-3.288v8.128z"></path>
</symbol>
<symbol id="icon-plus" viewBox="0 0 40 40">
<title>plus</title>
<path d="M32 20c0 1.106-0.096 2-1.202 2h-8.798v8.798c0 1.104-0.894 1.202-2 1.202s-2-0.098-2-1.202v-8.798h-8.798c-1.104 0-1.202-0.894-1.202-2s0.098-2 1.202-2h8.798v-8.798c0-1.106 0.894-1.202 2-1.202s2 0.096 2 1.202v8.798h8.798c1.106 0 1.202 0.894 1.202 2z"></path>
</symbol>
<symbol id="icon-reply" viewBox="0 0 40 40">
<title>reply</title>
<path d="M38 33.37c0 0-4.45-19.464-22-19.464v-7.968l-14 13.146 14 13.38v-8.714c9.526-0.002 17.032 0.842 22 9.62z"></path>
</symbol>
<symbol id="icon-rocket" viewBox="0 0 40 40">
<title>rocket</title>
<path d="M23.866 26.138c0 0 14.118-10.188 12.552-21.848-0.034-0.254-0.118-0.426-0.224-0.536-0.108-0.11-0.274-0.196-0.526-0.23-11.394-1.602-21.348 12.844-21.348 12.844-8.636-1.034-8.008 0.688-11.948 10.152-0.754 1.804 0.468 2.426 1.808 1.918 1.34-0.504 4.296-1.622 4.296-1.622l5.18 5.296c0 0-1.092 3.028-1.586 4.398-0.496 1.372 0.11 2.622 1.876 1.852 9.248-4.032 10.932-3.388 9.92-12.224zM25.884 14.306c-1.196-1.226-1.196-3.208 0-4.434 1.196-1.222 3.134-1.222 4.332 0 1.196 1.222 1.196 3.206 0 4.434-1.198 1.222-3.138 1.222-4.332 0z"></path>
</symbol>
<symbol id="icon-star-outlined" viewBox="0 0 40 40">
<title>star-outlined</title>
<path d="M37.6 16.044h-12.826l-4.774-13.444-4.778 13.444h-12.824l10.464 7.894-3.742 13.858 10.88-8.308 10.876 8.308-3.738-13.858 10.462-7.894zM20 25.566l-6.028 5 2.486-7.124-5.702-4.6 7.044 0.202 2.2-8.080 2.198 8.080 7.042-0.202-5.702 4.6 2.486 7.124-6.024-5z"></path>
</symbol>
<symbol id="icon-star" viewBox="0 0 40 40">
<title>star</title>
<path d="M20 2.6l4.776 13.444h12.824l-10.464 7.896 3.742 13.856-10.878-8.308-10.876 8.308 3.74-13.856-10.466-7.896h12.824l4.778-13.444z"></path>
</symbol>
<symbol id="icon-thumbs-up" viewBox="0 0 40 40">
<title>thumbs-up</title>
<path d="M27.296 14.724c-0.266-0.71 7.078-7.268 2.796-12.582-1.002-1.242-4.402 5.95-9.23 9.206-2.664 1.796-8.862 5.62-8.862 7.734v13.684c0 2.542 9.828 5.234 17.296 5.234 2.738 0 6.704-17.152 6.704-19.876 0-2.736-8.442-2.688-8.704-3.4zM10 14.914c-1.316 0-6 0.8-6 6.246v9.696c0 5.442 4.684 6.042 6 6.042 1.314 0-2-1.144-2-4.52v-12.746c0-3.536 3.314-4.718 2-4.718z"></path>
</symbol>
<symbol id="icon-user" viewBox="0 0 40 40">
<title>user</title>
<path d="M15.45 4.292c-2.032 1.512-2.578 3.906-2.478 5.18 0.128 1.558 0.444 3.586 0.444 3.586s-0.626 0.34-0.626 1.708c0.218 3.434 1.366 1.952 1.602 3.458 0.568 3.628 1.866 2.982 1.866 4.962 0 3.298-1.36 4.84-5.606 6.668-4.26 1.836-8.652 4.146-8.652 8.146v2h36v-2c0-4-4.394-6.31-8.656-8.144-4.246-1.828-5.602-3.368-5.602-6.668 0-1.98 1.294-1.334 1.864-4.962 0.238-1.506 1.384-0.024 1.606-3.458 0-1.368-0.628-1.708-0.628-1.708s0.316-2.028 0.442-3.586c0.13-1.634-0.796-5.122-4.6-6.192-0.666-0.68-1.116-1.762 0.932-2.848-4.48-0.21-5.522 2.134-7.908 3.858z"></path>
</symbol>
</defs>
</svg>
