<svg style="position: absolute; width: 0; height: 0; overflow: hidden;" version="1.1" xmlns="http://www.w3.org/2000/svg">
	<defs>
		<symbol id="icon-back-in-time" viewBox="0 0 32 32">
			<title>back-in-time</title>
			<path d="M14.667 10.667v8h5.333v-2.667h-2.667v-5.333z"></path>
			<path d="M16 2.667c-3.62 0-6.961 1.452-9.416 3.917l-2.584-2.584v8h8l-3.532-3.532c1.964-1.973 4.636-3.135 7.532-3.135 5.881 0 10.667 4.785 10.667 10.667s-4.785 10.667-10.667 10.667v2.667c7.352 0 13.333-5.98 13.333-13.333s-5.981-13.333-13.333-13.333z"></path>
		</symbol>
		<symbol id="icon-bell" viewBox="0 0 32 32">
			<title>bell</title>
			<path d="M11.407 25.333c0.924 1.587 2.625 2.667 4.593 2.667s3.669-1.080 4.593-2.667h-9.187z"></path>
			<path d="M28 24h-24v-3.628l0.912-0.303c1.847-0.617 3.088-2.339 3.088-4.285v-3.784c0-4.412 3.588-8 8-8s8 3.588 8 8v3.784c0 1.947 1.241 3.668 3.088 4.285l0.912 0.303v3.628zM8.047 21.333h15.908c-1.628-1.336-2.621-3.352-2.621-5.549v-3.784c0-2.941-2.392-5.333-5.333-5.333s-5.333 2.392-5.333 5.333v3.784c0 2.197-0.993 4.213-2.62 5.549z"></path>
		</symbol>
		<symbol id="icon-calendar" viewBox="0 0 32 32">
			<title>calendar</title>
			<path d="M26.667 6.667h-1.333v-4h-2.667v6.667h-1.333v-2.667h-9.333v-4h-2.667v6.667h-1.333v-2.667h-2.667c-1.471 0-2.667 1.197-2.667 2.667v17.333c0 1.471 1.196 2.667 2.667 2.667h21.333c1.471 0 2.667-1.196 2.667-2.667v-17.333c0-1.469-1.196-2.667-2.667-2.667zM26.663 26.667h-21.329v-14.667h21.333l-0.004 14.667z"></path>
		</symbol>
		<symbol id="icon-chat" viewBox="0 0 32 32">
			<title>chat</title>
			<path d="M27.997 32l-7.112-5.333h-4.221c-1.103 0-2-0.897-2-2v-9.333c0-1.103 0.897-2 2-2h13.333c1.103 0 2 0.897 2 2v9.333c0 1.103-0.897 2-2 2h-2v5.333zM17.331 24h4.445l3.555 2.667v-2.667h4v-8h-12v8z"></path>
			<path d="M3.997 26.667v-5.333h-2c-1.103 0-2-0.897-2-2v-14.667c0-1.103 0.897-2 2-2h17.333c1.103 0 2 0.897 2 2v5.997h-2.667v-5.331h-16v13.333h4v2.667l3.555-2.667h1.779v2.667h-0.888l-7.112 5.333z"></path>
		</symbol>
		<symbol id="icon-check" viewBox="0 0 32 32">
			<title>check</title>
			<path d="M24.056 29.333h-18.667c-1.471 0-2.667-1.196-2.667-2.667v-16c0-1.469 1.196-2.667 2.667-2.667h13.333v2.667h-13.333v16h18.667v-6.667h2.667v6.667c0 1.471-1.196 2.667-2.667 2.667z"></path>
			<path d="M14.779 23.748l-6.568-6.569 2.356-2.357 4.099 4.099 12.157-13.375 2.465 2.243z"></path>
		</symbol>
		<symbol id="icon-chevron-left" viewBox="0 0 32 32">
			<title>chevron-left</title>
			<path d="M24 27.22l-11.219-11.22 11.219-11.219 1.885 1.885-9.333 9.333 9.333 9.333z"></path>
			<path d="M17.333 27.22l-11.219-11.22 11.219-11.219 1.885 1.885-9.333 9.333 9.333 9.333z"></path>
		</symbol>
		<symbol id="icon-chevron-right" viewBox="0 0 32 32">
			<title>chevron-right</title>
			<path d="M8 27.22l-1.885-1.887 9.333-9.333-9.333-9.333 1.885-1.885 11.219 11.219z"></path>
			<path d="M14.667 27.22l-1.885-1.887 9.333-9.333-9.333-9.333 1.885-1.885 11.219 11.219z"></path>
		</symbol>
		<symbol id="icon-clock" viewBox="0 0 32 32">
			<title>clock</title>
			<path d="M16 29.333c-6.616 0-12-5.383-12-12s5.384-12 12-12c6.616 0 12 5.383 12 12s-5.384 12-12 12zM16 8c-5.147 0-9.333 4.187-9.333 9.333s4.187 9.333 9.333 9.333c5.147 0 9.333-4.187 9.333-9.333s-4.187-9.333-9.333-9.333z"></path>
			<path d="M28.188 10.797c0.707-0.721 1.145-1.708 1.145-2.797 0-2.209-1.791-4-4-4-1.089 0-2.077 0.439-2.799 1.147l5.653 5.651z"></path>
			<path d="M3.812 10.797c-0.707-0.721-1.145-1.708-1.145-2.797 0-2.209 1.791-4 4-4 1.089 0 2.077 0.439 2.799 1.147l-5.653 5.651z"></path>
			<path d="M19.057 22.276l-4-4c-0.251-0.251-0.391-0.589-0.391-0.943v-6.667h2.667v6.115l3.609 3.609-1.885 1.885z"></path>
		</symbol>
		<symbol id="icon-dots-three-vertical" viewBox="0 0 32 32">
			<title>dots-three-vertical</title>
			<path d="M17.886 4.782c1.041 1.041 1.041 2.73 0 3.771s-2.73 1.041-3.771 0c-1.041-1.041-1.041-2.73 0-3.771s2.73-1.041 3.771 0z"></path>
			<path d="M17.886 14.116c1.041 1.041 1.041 2.73 0 3.771s-2.73 1.041-3.771 0c-1.041-1.041-1.041-2.73 0-3.771s2.73-1.041 3.771 0z"></path>
			<path d="M17.886 23.449c1.041 1.041 1.041 2.73 0 3.771s-2.73 1.041-3.771 0c-1.041-1.041-1.041-2.73 0-3.771s2.73-1.041 3.771 0z"></path>
		</symbol>
		<symbol id="icon-edit" viewBox="0 0 32 32">
			<title>edit</title>
			<path d="M27.761 4.239c-1.013-1.015-2.363-1.572-3.796-1.572-1.432 0-2.781 0.557-3.795 1.572l-15.212 15.211c0 0-0.001 0.004-0.004 0.005-0.108 0.109-0.292 0.397-0.348 0.615l-1.9 7.605c-0.115 0.453 0.020 0.936 0.351 1.265l0.003 0.003c0.331 0.331 0.811 0.465 1.265 0.352l7.605-1.903c0.217-0.056 0.507-0.24 0.615-0.348 0.001-0.001 0.005-0.004 0.005-0.004l15.212-15.209c1.013-1.015 1.572-2.361 1.571-3.796 0-1.433-0.557-2.781-1.571-3.796h-0.001zM19.215 8.971l3.817 3.817-11.424 11.424-3.817-3.817 11.424-11.424zM5.833 26.168l0.793-3.165 2.373 2.375-3.167 0.791zM25.879 6.125c1.019 1.020 1.019 2.799 0 3.819l-0.959 0.96-3.821-3.82 0.961-0.959c1.020-1.019 2.799-1.020 3.819 0z"></path>
		</symbol>
		<symbol id="icon-emoji-sad" viewBox="0 0 32 32">
			<title>emoji-sad</title>
			<path d="M22.833 13.333c0 0-1.5 1.672-1.5 2.5s0.672 1.5 1.5 1.5c0.828 0 1.5-0.672 1.5-1.5s-1.5-2.5-1.5-2.5z"></path>
			<path d="M16 2.667c-7.352 0-13.333 5.981-13.333 13.333 0 7.353 5.981 13.333 13.333 13.333s13.333-5.98 13.333-13.333c0-7.352-5.981-13.333-13.333-13.333zM16 26.667c-5.881 0-10.667-4.785-10.667-10.667s4.785-10.667 10.667-10.667c5.881 0 10.667 4.785 10.667 10.667s-4.785 10.667-10.667 10.667z"></path>
			<path d="M9.333 10.667h5.333v2.667h-5.333z"></path>
			<path d="M17.333 10.667h5.333v2.667h-5.333z"></path>
			<path d="M8.555 20.361l1.861 1.911c1.501-1.464 3.485-2.272 5.584-2.272 2.139 0 4.147 0.832 5.656 2.343l1.887-1.885c-2.013-2.015-4.692-3.124-7.543-3.124-2.797 0-5.443 1.076-7.445 3.028z"></path>
		</symbol>
		<symbol id="icon-flash" viewBox="0 0 32 32">
			<title>flash</title>
			<path d="M14.667 29.333c-0.148 0-0.297-0.024-0.441-0.076-0.535-0.188-0.892-0.692-0.892-1.257v-9.333h-6.667c-0.512 0-0.98-0.295-1.201-0.756s-0.16-1.008 0.161-1.411l10.667-13.333c0.353-0.441 0.948-0.612 1.483-0.424 0.533 0.187 0.891 0.691 0.891 1.257v9.333h6.667c0.512 0 0.98 0.295 1.201 0.756s0.16 1.009-0.161 1.411l-10.667 13.333c-0.257 0.321-0.643 0.5-1.040 0.5zM9.441 16h5.225c0.736 0 1.333 0.597 1.333 1.333v6.867l6.559-8.2h-5.225c-0.736 0-1.333-0.597-1.333-1.333v-6.867l-6.559 8.2z"></path>
		</symbol>
		<symbol id="icon-funnel" viewBox="0 0 32 32">
			<title>funnel</title>
			<path d="M18.667 0h-16c-1.472 0-2.667 1.197-2.667 2.667v4c0 0.341 0.131 0.683 0.391 0.943l6.276 6.277v11.447c0 0.539 0.325 1.025 0.823 1.232 0.165 0.069 0.339 0.101 0.511 0.101 0.347 0 0.688-0.136 0.943-0.391l5.333-5.333c0.251-0.249 0.391-0.588 0.391-0.943v-6.115l6.276-6.276c0.26-0.26 0.391-0.6 0.391-0.943v-4c0-1.469-1.195-2.667-2.667-2.667zM12.391 12.391c-0.251 0.251-0.391 0.589-0.391 0.943v6.115l-2.667 2.667v-8.781c0-0.353-0.14-0.693-0.391-0.943l-6.276-6.276v-3.448h16v3.448l-6.276 6.276z"></path>
			<path d="M30.667 32h-13.333c-0.737 0-1.333-0.597-1.333-1.333v-16c0-0.736 0.596-1.333 1.333-1.333h13.333c0.737 0 1.333 0.597 1.333 1.333v16c0 0.737-0.596 1.333-1.333 1.333zM18.667 29.333h10.667v-13.333h-10.667v13.333z"></path>
			<path d="M20 21.333h8v2.667h-8z"></path>
			<path d="M22.667 17.333h5.333v2.667h-5.333z"></path>
			<path d="M20 25.333h8v2.667h-8z"></path>
		</symbol>
		<symbol id="icon-globe" viewBox="0 0 32 32">
			<title>globe</title>
			<path d="M24.103 21.427c5.196-5.199 5.196-13.657 0-18.857l-1.885 1.885c4.157 4.159 4.157 10.927 0 15.085-2.015 2.017-4.693 3.127-7.543 3.127s-5.528-1.109-7.541-3.125l-1.887 1.885c2.201 2.201 5.036 3.539 8.095 3.84v1.4h-6.667v2.667h16v-2.667h-6.667v-1.399c3.057-0.303 5.893-1.639 8.095-3.841z"></path>
			<path d="M14.675 20c4.412 0 8-3.588 8-8s-3.588-8-8-8c-4.412 0-8 3.588-8 8s3.588 8 8 8zM14.675 6.667c2.941 0 5.333 2.392 5.333 5.333s-2.392 5.333-5.333 5.333c-2.941 0-5.333-2.392-5.333-5.333s2.392-5.333 5.333-5.333z"></path>
		</symbol>
		<symbol id="icon-heart-outlined" viewBox="0 0 32 32">
			<title>heart-outlined</title>
			<path d="M16 26.668c-0.245 0-0.489-0.068-0.705-0.203-0.463-0.288-11.295-7.143-11.295-14.464 0-3.676 2.991-6.667 6.667-6.667 2.125 0 4.093 1.116 5.333 2.773 1.24-1.657 3.208-2.773 5.333-2.773 3.676 0 6.667 2.991 6.667 6.667 0 7.321-10.832 14.176-11.295 14.464-0.216 0.135-0.46 0.203-0.705 0.203zM10.667 8.001c-2.205 0-4 1.795-4 4 0 4.484 6.191 9.609 9.333 11.741 3.143-2.132 9.333-7.256 9.333-11.741 0-2.205-1.795-4-4-4-2.252 0-4 2.149-4 4 0 0.736-0.596 1.333-1.333 1.333s-1.333-0.597-1.333-1.333c0-1.851-1.748-4-4-4z"></path>
		</symbol>
		<symbol id="icon-heart" viewBox="0 0 32 32">
			<title>heart</title>
			<path d="M21.333 5.335c-2.125 0-4.093 1.116-5.333 2.773-1.24-1.657-3.208-2.773-5.333-2.773-3.676 0-6.667 2.991-6.667 6.667 0 7.321 10.832 14.176 11.295 14.464 0.216 0.135 0.461 0.203 0.705 0.203s0.489-0.068 0.705-0.203c0.463-0.288 11.295-7.143 11.295-14.464 0-3.676-2.991-6.667-6.667-6.667z"></path>
		</symbol>
		<symbol id="icon-help-with-circle" viewBox="0 0 32 32">
			<title>help-with-circle</title>
			<path d="M16 29.333c-7.352 0-13.333-5.98-13.333-13.333 0-7.351 5.981-13.333 13.333-13.333s13.333 5.981 13.333 13.333c0 7.353-5.981 13.333-13.333 13.333zM16 5.333c-5.881 0-10.667 4.785-10.667 10.667s4.785 10.667 10.667 10.667c5.881 0 10.667-4.785 10.667-10.667s-4.785-10.667-10.667-10.667z"></path>
			<path d="M17.333 20h-2.667v-4h1.333c1.472 0 2.667-1.196 2.667-2.667 0-1.472-1.195-2.667-2.667-2.667s-2.667 1.195-2.667 2.667h-2.667c0-2.94 2.393-5.333 5.333-5.333s5.333 2.393 5.333 5.333c0 2.48-1.703 4.571-4 5.167v1.5z"></path>
			<path d="M17.179 21.488c0.651 0.651 0.651 1.706 0 2.357s-1.706 0.651-2.357 0c-0.651-0.651-0.651-1.706 0-2.357s1.706-0.651 2.357 0z"></path>
		</symbol>
		<symbol id="icon-link" viewBox="0 0 32 32">
			<title>link</title>
			<path d="M4.685 21.636l1.885-1.885-0.943-0.943c-0.52-0.52-0.52-1.365 0-1.887l11.315-11.313c0.251-0.252 0.585-0.391 0.943-0.391s0.691 0.139 0.944 0.391l0.943 0.943 1.884-1.884-0.941-0.943c-1.512-1.512-4.148-1.512-5.657 0l-11.313 11.312c-1.56 1.56-1.56 4.097 0 5.657l0.941 0.943z"></path>
			<path d="M28.256 11.268l-0.944-0.943-1.885 1.885 0.944 0.943c0.252 0.252 0.389 0.585 0.389 0.943 0 0.355-0.139 0.689-0.389 0.941l-11.313 11.315c-0.504 0.503-1.383 0.503-1.887 0l-0.943-0.943-1.885 1.884 0.943 0.943c0.756 0.756 1.76 1.172 2.829 1.172 1.068 0 2.072-0.416 2.828-1.172l11.313-11.313c0.755-0.755 1.171-1.759 1.171-2.827s-0.416-2.073-1.171-2.828z"></path>
			<path d="M26.37 3.724l1.886 1.886-9.428 9.428-1.886-1.886z"></path>
			<path d="M13.17 16.921l1.885 1.884-9.428 9.43-1.885-1.884z"></path>
		</symbol>
		<symbol id="icon-list" viewBox="0 0 32 32">
			<title>list</title>
			<path d="M9.333 2.667h-5.333c-0.736 0-1.333 0.597-1.333 1.333v5.333c0 0.736 0.597 1.333 1.333 1.333h5.333c0.737 0 1.333-0.597 1.333-1.333v-5.333c0-0.736-0.596-1.333-1.333-1.333zM8 8h-2.667v-2.667h2.667v2.667z"></path>
			<path d="M9.333 12h-5.333c-0.736 0-1.333 0.597-1.333 1.333v5.333c0 0.736 0.597 1.333 1.333 1.333h5.333c0.737 0 1.333-0.597 1.333-1.333v-5.333c0-0.736-0.596-1.333-1.333-1.333zM8 17.333h-2.667v-2.667h2.667v2.667z"></path>
			<path d="M9.333 21.333h-5.333c-0.736 0-1.333 0.597-1.333 1.333v5.333c0 0.736 0.597 1.333 1.333 1.333h5.333c0.737 0 1.333-0.597 1.333-1.333v-5.333c0-0.736-0.596-1.333-1.333-1.333zM8 26.667h-2.667v-2.667h2.667v2.667z"></path>
			<path d="M13.333 5.333h16v2.667h-16z"></path>
			<path d="M13.333 14.667h16v2.667h-16z"></path>
			<path d="M13.333 24h16v2.667h-16z"></path>
		</symbol>
		<symbol id="icon-lock" viewBox="0 0 32 32">
			<title>lock</title>
			<path d="M17.414 20.586c0.781 0.781 0.781 2.047 0 2.828s-2.047 0.781-2.828 0c-0.781-0.781-0.781-2.047 0-2.828s2.047-0.781 2.828 0z"></path>
			<path d="M22.667 14.667v-5.333c0-3.676-2.991-6.667-6.667-6.667s-6.667 2.991-6.667 6.667v5.333c-1.472 0-2.667 1.195-2.667 2.667v9.333c0 1.471 1.195 2.667 2.667 2.667h13.333c1.472 0 2.667-1.196 2.667-2.667v-9.333c0-1.472-1.195-2.667-2.667-2.667zM12 9.333c0-2.205 1.795-4 4-4s4 1.795 4 4v5.333h-8v-5.333zM9.333 26.667v-9.333h13.333l0.003 9.333h-13.336z"></path>
		</symbol>
		<symbol id="icon-magnifying-glass" viewBox="0 0 32 32">
			<title>magnifying-glass</title>
			<path d="M29.275 22.275l-4.833-15.708c-0.473-1.535-1.869-2.567-3.473-2.567-2.004 0-3.635 1.631-3.635 3.635v1.699h-2.667v-1.699c0-2.004-1.631-3.635-3.635-3.635-1.605 0-3 1.032-3.473 2.567l-4.833 15.708c-0.039 0.127-0.059 0.259-0.059 0.392v0.667c0 3.309 2.692 6 6 6s6-2.691 6-6v-6h2.667v6c0 3.309 2.692 6 6 6s6-2.691 6-6v-0.667c0-0.133-0.020-0.265-0.059-0.392zM8.667 26.667c-1.837 0-3.333-1.496-3.333-3.333s1.496-3.333 3.333-3.333c1.837 0 3.333 1.496 3.333 3.333s-1.496 3.333-3.333 3.333zM12 18.349c-0.955-0.64-2.1-1.016-3.333-1.016-0.601 0-1.169 0.115-1.717 0.28l3.157-10.264c0.127-0.408 0.499-0.683 0.925-0.683 0.533 0 0.968 0.433 0.968 0.968v10.715zM14.667 14.667v-2.667h2.667v2.667h-2.667zM20 9.333v-1.699c0-0.535 0.435-0.968 0.968-0.968 0.427 0 0.799 0.275 0.925 0.684l3.157 10.264c-0.548-0.167-1.116-0.281-1.717-0.281-1.233 0-2.379 0.376-3.333 1.016v-9.016zM23.333 26.667c-1.837 0-3.333-1.496-3.333-3.333s1.496-3.333 3.333-3.333c1.837 0 3.333 1.496 3.333 3.333s-1.496 3.333-3.333 3.333z"></path>
		</symbol>
		<symbol id="icon-new-message" viewBox="0 0 32 32">
			<title>new-message</title>
			<path d="M24 29.333h-18.667c-1.471 0-2.667-1.196-2.667-2.667v-18.667c0-1.469 1.196-2.667 2.667-2.667h9.333v2.667h-9.333v18.667h18.667v-12h2.667v12c0 1.471-1.196 2.667-2.667 2.667z"></path>
			<path d="M13.077 13.82l3.771 3.769-4.713 0.943z"></path>
			<path d="M27.219 7.219c1.041-1.041 1.041-2.729 0-3.771s-2.729-1.041-3.771 0l-8.485 8.485 3.772 3.772 8.484-8.487z"></path>
		</symbol>
		<symbol id="icon-new" viewBox="0 0 32 32">
			<title>new</title>
			<path d="M14.221 19.557h2.667v-1.777h-2.667c-0.489 0-0.888-0.4-0.888-0.889h2.667v-1.777h-2.667c0-0.491 0.399-0.889 0.888-0.889h2.667v-1.777h-2.667c-1.471 0-2.667 1.195-2.667 2.667v1.777c0 1.471 1.196 2.667 2.667 2.667z"></path>
			<path d="M7.111 16.271l1.927 2.891c0.168 0.251 0.448 0.395 0.74 0.395 0.084 0 0.172-0.012 0.256-0.037 0.376-0.113 0.633-0.459 0.633-0.852v-6.22h-1.779v3.288l-1.927-2.891c-0.217-0.328-0.623-0.475-0.997-0.36-0.376 0.113-0.632 0.457-0.632 0.849v6.224h1.779v-3.287z"></path>
			<path d="M19.536 19.557h1.816l-0.019-0.071 0.875-3.471 0.871 3.541h1.828l-0.019-0.071 1.779-7.040h-1.829l-0.851 3.468-0.876-3.468h-1.829l-0.851 3.468-0.876-3.468h-1.777l1.745 7.111z"></path>
			<path d="M29.333 8h-26.667c-1.472 0-2.667 1.197-2.667 2.667v10.667c0 1.471 1.195 2.667 2.667 2.667h26.667c1.472 0 2.667-1.196 2.667-2.667v-10.667c0-1.469-1.195-2.667-2.667-2.667zM29.329 21.333h-26.663v-10.667h26.667l-0.004 10.667z"></path>
		</symbol>
		<symbol id="icon-paper-plane" viewBox="0 0 32 32">
			<title>paper-plane</title>
			<path d="M29.864 14.776c-6.895-2.992-11.913-5.229-15.589-6.869-7.169-3.196-9.097-4.056-10.44-4.056-1.152 0-1.719 0.699-1.905 0.927-0.705 0.869-0.791 2.097-0.216 3.053l4.901 8.169-4.9 8.167c-0.576 0.957-0.489 2.184 0.216 3.053 0.187 0.231 0.753 0.929 1.907 0.929v0c1.341 0 3.261-0.857 10.399-4.040 3.68-1.641 8.709-3.885 15.629-6.887 0.487-0.213 0.801-0.693 0.801-1.224s-0.315-1.012-0.803-1.223zM4.111 6.552c1.067 0.219 3.905 1.485 9.077 3.792 2.547 1.136 5.749 2.563 9.756 4.321h-14.020l-4.813-8.113zM13.149 21.673c-5.256 2.345-8.092 3.609-9.103 3.787l4.877-8.129h14.021c-4.028 1.771-7.244 3.204-9.796 4.343z"></path>
		</symbol>
		<symbol id="icon-plus" viewBox="0 0 32 32">
			<title>plus</title>
			<path d="M28 14.668h-10.667v-10.667h-2.667v10.667h-10.667v2.667h10.667v10.667h2.667v-10.667h10.667z"></path>
		</symbol>
		<symbol id="icon-reply" viewBox="0 0 32 32">
			<title>reply</title>
			<path d="M10.276 19.056l-3.057-3.057h18.115v6.667h2.667v-6.667c0-1.472-1.195-2.667-2.667-2.667h-18.115l3.057-3.057-1.885-1.885-6.276 6.276 6.276 6.276 1.885-1.885z"></path>
		</symbol>
		<symbol id="icon-rocket" viewBox="0 0 32 32">
			<title>rocket</title>
			<path d="M29.333 2.667c-0.432-0.431-1.087-0.632-2.060-0.632-1.949 0-5.772 0.92-8.311 3.46l-5.267 5.265h-8.875c-0.353 0-0.693 0.141-0.944 0.391l-0.943 0.944c-0.52 0.521-0.52 1.365 0 1.887l15.085 15.084c0.26 0.26 0.601 0.391 0.943 0.391s0.683-0.131 0.943-0.391l0.944-0.943c0.251-0.251 0.389-0.589 0.389-0.944v-8.876l5.267-5.267c1.917-1.916 2.763-4.391 3.095-5.692 0.269-1.057 0.783-3.628-0.267-4.677zM11.031 13.427l-2.439 2.439-2.44-2.439h4.879zM10.477 17.752l9.428-9.428 3.771 3.769-9.427 9.429-3.772-3.771zM18.573 25.847l-2.439-2.437 2.439-2.44v4.877zM25.468 10.115l-3.584-3.584c1.867-1.311 4.177-1.829 5.389-1.829 0.013 0 0.025 0 0.037 0 0.016 1.075-0.484 3.477-1.843 5.413z"></path>
			<path d="M10.476 25.295c-0.6 0.599-2.889 1.117-5.139 1.367 0.255-2.257 0.783-4.555 1.368-5.139 0.344-0.345 0.764-0.564 1.204-0.681l-2.013-2.013c-0.381 0.224-0.749 0.481-1.076 0.808-1.831 1.832-2.215 7.331-2.273 8.415l-0.080 1.483 1.484-0.080c1.084-0.059 6.583-0.445 8.412-2.275 0.328-0.328 0.584-0.695 0.808-1.077l-2.013-2.015c-0.116 0.444-0.335 0.861-0.681 1.208z"></path>
		</symbol>
		<symbol id="icon-star-outlined" viewBox="0 0 32 32">
			<title>star-outlined</title>
			<path d="M24 29.335c-0.257 0-0.516-0.075-0.74-0.224l-7.26-4.84-7.26 4.84c-0.464 0.309-1.073 0.299-1.527-0.032-0.451-0.329-0.648-0.905-0.495-1.443l2.451-8.58-6.112-6.112c-0.381-0.38-0.495-0.955-0.289-1.453 0.205-0.497 0.693-0.823 1.232-0.823h7.176l3.632-7.263c0.452-0.903 1.933-0.903 2.385 0l3.632 7.263h7.175c0.539 0 1.027 0.325 1.232 0.823 0.205 0.499 0.092 1.073-0.289 1.453l-6.112 6.112 2.451 8.58c0.153 0.537-0.044 1.113-0.495 1.443-0.235 0.171-0.511 0.256-0.787 0.256zM16 21.335c0.257 0 0.516 0.076 0.74 0.224l4.981 3.321-1.669-5.845c-0.135-0.467-0.004-0.968 0.339-1.309l4.391-4.391h-4.781c-0.505 0-0.967-0.285-1.193-0.737l-2.807-5.615-2.807 5.615c-0.227 0.452-0.688 0.737-1.193 0.737h-4.781l4.391 4.391c0.343 0.343 0.472 0.844 0.339 1.309l-1.669 5.845 4.981-3.321c0.224-0.148 0.483-0.224 0.74-0.224z"></path>
		</symbol>
		<symbol id="icon-star" viewBox="0 0 32 32">
			<title>star</title>
			<path d="M29.232 11.491c-0.205-0.497-0.693-0.823-1.232-0.823h-7.176l-3.632-7.263c-0.452-0.903-1.933-0.903-2.385 0l-3.631 7.263h-7.176c-0.539 0-1.027 0.325-1.232 0.823s-0.092 1.073 0.289 1.453l6.112 6.112-2.451 8.58c-0.153 0.537 0.044 1.113 0.495 1.443 0.453 0.331 1.063 0.343 1.525 0.032l7.261-4.84 7.26 4.84c0.224 0.149 0.481 0.224 0.74 0.224 0.276 0 0.552-0.085 0.787-0.256 0.451-0.329 0.648-0.905 0.495-1.443l-2.451-8.58 6.112-6.112c0.381-0.38 0.495-0.956 0.289-1.453z"></path>
		</symbol>
		<symbol id="icon-thumbs-up" viewBox="0 0 32 32">
			<title>thumbs-up</title>
			<path d="M30.357 9.812c-0.253-0.303-0.628-0.479-1.024-0.479h-8v-5.333c0-0.736-0.596-1.333-1.333-1.333h-4c-0.533 0-1.016 0.317-1.225 0.807l-3.653 8.527h-0.455c0-0.736-0.596-1.333-1.333-1.333h-5.333c-0.737 0-1.333 0.597-1.333 1.333v13.333c0 0.736 0.596 1.333 1.333 1.333h5.333c0.737 0 1.333-0.597 1.333-1.333v-0.696l4.839 1.935c0.156 0.063 0.325 0.095 0.495 0.095h10.667c0.644 0 1.196-0.461 1.312-1.095l2.667-14.667c0.071-0.389-0.036-0.789-0.288-1.093zM8 24h-2.667v-10.667h2.667v10.667zM25.555 24h-9.299l-5.589-2.236v-7.097h1.333c0.533 0 1.016-0.317 1.225-0.808l3.653-8.525h1.788v5.333c0 0.736 0.596 1.333 1.333 1.333h7.736l-2.181 12z"></path>
		</symbol>
		<symbol id="icon-trash" viewBox="0 0 32 32">
			<title>trash</title>
			<path d="M6.667 26.667c0 1.471 1.196 2.667 2.667 2.667h13.333c1.471 0 2.667-1.196 2.667-2.667v-16h-18.667v16zM9.333 13.333h13.333l0.001 13.333h-13.335v-13.333z"></path>
			<path d="M20 6.667v-2.667h-8v2.667h-8v2.667h24v-2.667z"></path>
			<path d="M12 16h2.667v8h-2.667z"></path>
			<path d="M17.333 16h2.667v8h-2.667z"></path>
		</symbol>
		<symbol id="icon-user" viewBox="0 0 32 32">
			<title>user</title>
			<path d="M16.003 16.008c-2.941 0-5.333-2.392-5.333-5.333 0-2.94 2.392-5.333 5.333-5.333s5.333 2.393 5.333 5.333c0 2.941-2.392 5.333-5.333 5.333zM16.003 8.008c-1.471 0-2.667 1.195-2.667 2.667 0 1.471 1.196 2.667 2.667 2.667s2.667-1.196 2.667-2.667c0-1.472-1.196-2.667-2.667-2.667z"></path>
			<path d="M26.669 26.675h-21.333v-1.333c0-4.711 4.387-8 10.667-8s10.667 3.289 10.667 8v1.333zM8.215 24.008h15.577c-0.797-2.411-3.777-4-7.788-4s-6.992 1.589-7.789 4z"></path>
		</symbol>
		<symbol id="icon-warning" viewBox="0 0 32 32">
			<title>warning</title>
			<path d="M28 29.333h-24c-0.463 0-0.891-0.24-1.135-0.632-0.244-0.395-0.264-0.884-0.059-1.299l12-24c0.452-0.903 1.933-0.903 2.385 0l12 24c0.205 0.415 0.185 0.903-0.059 1.299-0.243 0.393-0.671 0.632-1.133 0.632zM6.157 26.667h19.685l-9.843-19.684-9.843 19.684z"></path>
			<path d="M14.667 13.333h2.667v8h-2.667z"></path>
			<path d="M17.179 22.822c0.651 0.651 0.651 1.706 0 2.357s-1.706 0.651-2.357 0c-0.651-0.651-0.651-1.706 0-2.357s1.706-0.651 2.357 0z"></path>
		</symbol>
	</defs>
</svg>
