<svg style="position: absolute; width: 0; height: 0; overflow: hidden;" version="1.1" xmlns="http://www.w3.org/2000/svg" xmlns:xlink="http://www.w3.org/1999/xlink">
<defs>
<symbol id="icon-back-in-time" viewBox="0 0 32 32">
<title>back-in-time</title>
<path d="M17.6 2.878c-7.112 0-12.898 5.699-13.070 12.794v0.328h-3.795l5.75 6.23 5.59-6.23h-4.275v-0.328c0.171-5.285 4.493-9.512 9.8-9.512 5.418 0 9.81 4.406 9.81 9.84s-4.392 9.84-9.81 9.84c-2.171 0-4.178-0.712-5.803-1.909l-2.25 2.406c2.221 1.741 5.016 2.781 8.053 2.781 7.224 0 13.078-5.872 13.078-13.118s-5.854-13.122-13.078-13.122zM16 8v8c0 0.208 0.043 0.416 0.123 0.611 0.082 0.195 0.198 0.373 0.346 0.52l5.12 5.12c0.453-0.293 0.88-0.622 1.259-1.005l-3.648-3.646v-9.6h-3.2z"></path>
</symbol>
<symbol id="icon-bell" viewBox="0 0 32 32">
<title>bell</title>
<path d="M23.44 13.619c-3.648-7.851-5.546-10.834-11.506-10.709-2.123 0.043-1.614-1.539-3.234-0.939-1.616 0.6-0.229 1.478-1.883 2.837-4.643 3.813-4.216 7.339-2.062 15.744 0.907 3.541-2.187 3.714-0.963 7.144 0.894 2.502 7.486 3.55 14.44 0.971 6.955-2.581 11.338-7.702 10.443-10.205-1.224-3.432-3.698-1.538-5.235-4.843zM17.478 26.552c-6.211 2.304-11.315 0.95-11.531 0.347-0.371-1.040 2.005-4.506 9.106-7.141s11.064-1.658 11.478-0.498c0.245 0.686-2.84 4.986-9.053 7.291zM15.482 20.962c-3.246 1.205-5.502 2.582-6.965 3.822 1.029 0.934 2.955 1.162 4.874 0.45 2.443-0.904 3.946-2.986 3.352-4.646-0.008-0.021-0.018-0.037-0.026-0.058-0.402 0.131-0.813 0.274-1.235 0.432z"></path>
</symbol>
<symbol id="icon-calendar" viewBox="0 0 32 32">
<title>calendar</title>
<path d="M27.2 4.8h-1.6v3.2h-4.8v-3.2h-9.6v3.2h-4.8v-3.2h-1.6c-1.762 0-3.2 1.44-3.2 3.2v19.2c0 1.76 1.438 3.2 3.2 3.2h22.4c1.76 0 3.2-1.44 3.2-3.2v-19.2c0-1.76-1.44-3.2-3.2-3.2zM27.2 27.2h-22.4v-12.8h22.4v12.8zM10.4 1.6h-3.2v5.6h3.2v-5.6zM24.8 1.6h-3.2v5.6h3.2v-5.6z"></path>
</symbol>
<symbol id="icon-chat" viewBox="0 0 32 32">
<title>chat</title>
<path d="M9.28 19.52v-9.92h-6.080c-1.76 0-3.2 1.44-3.2 3.2v9.6c0 1.76 1.44 3.2 3.2 3.2h1.6v4.8l4.8-4.8h8c1.76 0 3.2-1.44 3.2-3.2v-2.912c-0.102 0.022-0.211 0.034-0.32 0.034l-11.2-0.002zM28.8 1.6h-14.4c-1.76 0-3.2 1.44-3.2 3.2v12.8h11.2l4.8 4.8v-4.8h1.6c1.76 0 3.2-1.438 3.2-3.2v-9.6c0-1.76-1.44-3.2-3.2-3.2z"></path>
</symbol>
<symbol id="icon-check" viewBox="0 0 32 32">
<title>check</title>
<path d="M13.27 27.197c-0.696 0-1.355-0.325-1.778-0.885l-5.717-7.554c-0.744-0.981-0.55-2.378 0.432-3.122 0.984-0.747 2.381-0.55 3.125 0.432l3.762 4.966 9.458-15.187c0.651-1.043 2.027-1.363 3.074-0.712 1.045 0.65 1.366 2.026 0.714 3.072l-11.174 17.936c-0.387 0.626-1.058 1.016-1.792 1.050-0.035 0.003-0.067 0.003-0.102 0.003z"></path>
</symbol>
<symbol id="icon-chevron-left" viewBox="0 0 32 32">
<title>chevron-left</title>
<path d="M19.923 7.226c0.714 0.698 0.77 1.669 0 2.522l-5.995 6.253 5.995 6.253c0.77 0.853 0.714 1.826 0 2.518-0.712 0.698-1.915 0.653-2.584 0-0.669-0.65-7.203-7.512-7.203-7.512-0.357-0.347-0.536-0.803-0.536-1.259s0.179-0.912 0.536-1.262c0 0 6.534-6.859 7.203-7.512 0.669-0.654 1.872-0.698 2.584 0z"></path>
</symbol>
<symbol id="icon-chevron-right" viewBox="0 0 32 32">
<title>chevron-right</title>
<path d="M14.661 7.226c0.669 0.653 7.203 7.512 7.203 7.512 0.357 0.35 0.536 0.806 0.536 1.262s-0.179 0.912-0.536 1.259c0 0-6.534 6.862-7.203 7.512-0.669 0.653-1.872 0.698-2.584 0-0.714-0.694-0.77-1.666 0-2.518l5.995-6.253-5.995-6.253c-0.77-0.853-0.714-1.826 0-2.522 0.712-0.698 1.915-0.654 2.584 0z"></path>
</symbol>
<symbol id="icon-clock" viewBox="0 0 32 32">
<title>clock</title>
<path d="M16 0.64c-8.485 0-15.362 6.877-15.362 15.36 0 8.485 6.877 15.362 15.362 15.362 8.482 0 15.36-6.877 15.36-15.362 0-8.483-6.878-15.36-15.36-15.36zM15.998 28.16c-6.715 0-12.16-5.443-12.16-12.16 0-6.715 5.443-12.16 12.16-12.16 6.715 0 12.162 5.443 12.162 12.16 0 6.715-5.446 12.16-12.162 12.16zM17.6 14.928v-8.528h-3.2v9.992l-5.674 3.277 1.6 2.771 6.584-3.803c0.381-0.219 0.69-0.757 0.69-1.197v-0.269l6.784-6.666c-0.317-0.434-0.658-0.846-1.035-1.226l-5.749 5.648z"></path>
</symbol>
<symbol id="icon-dots-three-vertical" viewBox="0 0 32 32">
<title>dots-three-vertical</title>
<path d="M16.002 12.48c-1.944 0-3.522 1.576-3.522 3.52s1.578 3.52 3.522 3.52 3.518-1.576 3.518-3.52-1.574-3.52-3.518-3.52zM16.002 8.32c1.944 0 3.518-1.578 3.518-3.52s-1.574-3.52-3.518-3.52c-1.944 0-3.522 1.576-3.522 3.52s1.578 3.52 3.522 3.52zM16.002 23.68c-1.944 0-3.522 1.576-3.522 3.52s1.578 3.52 3.522 3.52 3.518-1.576 3.518-3.52-1.574-3.52-3.518-3.52z"></path>
</symbol>
<symbol id="icon-edit" viewBox="0 0 32 32">
<title>edit</title>
<path d="M28.098 3.902c-2.307-2.309-4.040-1.963-4.040-1.963l-20.522 20.52-1.616 7.619 7.621-1.616 20.522-20.517c-0.002 0 0.346-1.733-1.965-4.043zM9.088 27.547l-2.598 0.56c-0.25-0.469-0.552-0.938-1.104-1.491-0.554-0.554-1.022-0.853-1.491-1.106l0.56-2.597 0.752-0.75s1.413 0.029 3.010 1.626c1.595 1.594 1.626 3.010 1.626 3.010l-0.754 0.749z"></path>
</symbol>
<symbol id="icon-emoji-sad" viewBox="0 0 32 32">
<title>emoji-sad</title>
<path d="M16.002 0.64c-8.485 0-15.362 6.877-15.362 15.36 0 8.485 6.877 15.362 15.362 15.362 8.482 0 15.36-6.877 15.36-15.362-0.002-8.483-6.88-15.36-15.36-15.36zM16 28.158c-6.715 0-12.16-5.443-12.16-12.16 0-6.715 5.443-12.16 12.16-12.16 6.715 0 12.16 5.443 12.16 12.16s-5.445 12.16-12.16 12.16zM20.002 15.6c1.325 0 2.4-1.253 2.4-2.8s-1.075-2.8-2.4-2.8-2.4 1.253-2.4 2.8 1.074 2.8 2.4 2.8zM12.002 15.6c1.325 0 2.4-1.253 2.4-2.8s-1.075-2.8-2.4-2.8-2.4 1.253-2.4 2.8 1.074 2.8 2.4 2.8zM16.003 18c-5.478 0-7.395 3.704-7.475 3.862-0.298 0.594-0.056 1.314 0.536 1.611 0.173 0.085 0.355 0.126 0.536 0.126 0.44 0 0.864-0.242 1.075-0.662 0.013-0.027 1.315-2.538 5.328-2.538 3.941 0 5.277 2.443 5.325 2.536 0.294 0.592 1.016 0.837 1.61 0.538 0.594-0.294 0.834-1.018 0.538-1.61-0.078-0.158-1.994-3.864-7.472-3.864z"></path>
</symbol>
<symbol id="icon-flash" viewBox="0 0 32 32">
<title>flash</title>
<path d="M10.885 30.397c-0.31-0.203 5.045-11.456 4.861-11.95-0.186-0.494-5.864-2.298-6.141-3.166-0.278-0.869 11.211-13.931 11.514-13.678 0.301 0.253-5.006 11.581-4.862 11.95 0.146 0.368 5.965 2.246 6.141 3.166 0.178 0.92-11.203 13.882-11.512 13.678z"></path>
</symbol>
<symbol id="icon-funnel" viewBox="0 0 32 32">
<title>funnel</title>
<path d="M16 1.6c-7.853 0-12.8 2.419-12.8 4.802v3.2c0 1.469 9.6 9.6 9.6 9.6v9.6c-0.002 1.094 1.6 1.6 3.2 1.6s3.202-0.506 3.2-1.6v-9.6s9.6-8.131 9.6-9.6v-3.2c0-2.382-4.947-4.802-12.8-4.802zM16 9.797c-5.746-0.002-9.821-2.133-9.821-2.93-0.003-0.792 4.077-2.93 9.821-2.926 5.744-0.003 9.824 2.134 9.821 2.925 0 0.798-4.075 2.93-9.821 2.931z"></path>
</symbol>
<symbol id="icon-globe" viewBox="0 0 32 32">
<title>globe</title>
<path d="M16 0.64c-8.472 0-15.362 6.891-15.362 15.36s6.89 15.36 15.362 15.36c8.469 0 15.36-6.891 15.36-15.36s-6.891-15.36-15.36-15.36zM29.101 16c0 2.997-1.018 5.76-2.714 7.968-0.48-0.374-0.99-1.387-0.51-2.437 0.485-1.056 0.611-3.501 0.499-4.453-0.106-0.95-0.6-3.24-1.942-3.262-1.341-0.019-2.261-0.462-3.058-2.053-1.653-3.309 3.102-3.944 1.45-5.774-0.462-0.515-2.853 2.115-3.203-1.39-0.022-0.251 0.216-0.627 0.538-1.018 5.19 1.744 8.941 6.651 8.941 12.419zM14.2 3.029c-0.314 0.611-1.141 0.859-1.643 1.318-1.094 0.99-1.565 0.853-2.154 1.803-0.594 0.95-2.507 2.318-2.507 3.006s0.966 1.498 1.45 1.341c0.483-0.16 1.758-0.15 2.507 0.112 0.75 0.266 6.262 0.531 4.506 5.19-0.557 1.482-2.997 1.232-3.646 3.685-0.098 0.36-0.435 1.898-0.456 2.4-0.040 0.778 0.55 3.709-0.2 3.709-0.754 0-2.781-2.622-2.781-3.098s-0.525-2.141-0.525-3.568c0-1.426-2.429-1.403-2.429-3.299 0-1.709 1.317-2.56 1.021-3.381-0.29-0.816-2.603-0.843-3.568-0.944 1.685-4.37 5.648-7.613 10.426-8.275zM11.878 28.432c0.787-0.416 0.867-0.954 1.581-0.981 0.816-0.037 1.48-0.318 2.4-0.522 0.816-0.178 2.277-1.006 3.562-1.112 1.085-0.088 3.224 0.056 3.8 1.102-2.072 1.378-4.557 2.181-7.222 2.181-1.438 0-2.824-0.238-4.12-0.669z"></path>
</symbol>
<symbol id="icon-heart-outlined" viewBox="0 0 32 32">
<title>heart-outlined</title>
<path d="M27.504 6.65c-2.675-2.456-7.013-2.456-9.688 0l-1.816 1.666-1.818-1.666c-2.675-2.456-7.011-2.456-9.686 0-3.010 2.762-3.010 7.23 0 9.992l11.504 10.558 11.504-10.558c3.008-2.762 3.008-7.232 0-9.992zM25.798 15l-9.798 9.144-9.8-9.144c-0.987-0.907-1.37-2.091-1.37-3.35s0.221-2.293 1.21-3.198c0.872-0.802 2.045-1.243 3.301-1.243 1.254 0 2.427 0.762 3.299 1.565l3.36 2.92 3.358-2.922c0.874-0.803 2.045-1.565 3.301-1.565s2.429 0.442 3.301 1.243c0.989 0.906 1.208 1.939 1.208 3.198s-0.381 2.445-1.37 3.352z"></path>
</symbol>
<symbol id="icon-heart" viewBox="0 0 32 32">
<title>heart</title>
<path d="M27.504 6.648c-2.675-2.454-7.013-2.454-9.688 0l-1.816 1.667-1.818-1.667c-2.675-2.454-7.011-2.454-9.686 0-3.010 2.763-3.010 7.232 0 9.994l11.504 10.558 11.504-10.558c3.008-2.762 3.008-7.232 0-9.994z"></path>
</symbol>
<symbol id="icon-help-with-circle" viewBox="0 0 32 32">
<title>help-with-circle</title>
<path d="M16 0.64c-8.483 0-15.36 6.877-15.36 15.36s6.877 15.36 15.36 15.36c8.482 0 15.36-6.877 15.36-15.362 0-8.482-6.878-15.358-15.36-15.358zM15.758 24.958h-0.082c-1.251-0.037-2.134-0.96-2.098-2.194 0.035-1.213 0.939-2.094 2.149-2.094l0.074 0.003c1.286 0.037 2.16 0.95 2.123 2.219-0.037 1.216-0.925 2.066-2.166 2.066zM21.024 14.509c-0.294 0.416-0.941 0.938-1.757 1.573l-0.899 0.619c-0.493 0.384-0.79 0.747-0.901 1.101-0.090 0.278-0.131 0.354-0.139 0.922v0.144h-3.432l0.010-0.291c0.043-1.19 0.072-1.894 0.566-2.475 0.776-0.909 2.488-2.013 2.56-2.059 0.246-0.184 0.453-0.394 0.606-0.619 0.36-0.498 0.518-0.888 0.518-1.269 0-0.534-0.157-1.029-0.469-1.466-0.301-0.426-0.872-0.637-1.698-0.637-0.819 0-1.381 0.259-1.715 0.794-0.346 0.546-0.52 1.12-0.52 1.707v0.147h-3.538l0.006-0.154c0.091-2.165 0.866-3.725 2.296-4.635 0.901-0.578 2.022-0.87 3.33-0.87 1.709 0 3.155 0.416 4.291 1.235 1.154 0.83 1.738 2.075 1.738 3.698-0.002 0.907-0.288 1.76-0.854 2.536z"></path>
</symbol>
<symbol id="icon-link" viewBox="0 0 32 32">
<title>link</title>
<path d="M12.574 23.506l-1.296 1.288c-1.122 1.112-2.949 1.112-4.072 0-0.538-0.534-0.834-1.246-0.834-2.003s0.298-1.466 0.834-2.003l4.768-4.728c0.987-0.981 2.846-2.424 4.202-1.080 0.622 0.618 1.626 0.614 2.245-0.008 0.616-0.622 0.613-1.627-0.010-2.243-2.301-2.285-5.706-1.862-8.67 1.080l-4.768 4.73c-1.144 1.134-1.773 2.646-1.773 4.253 0 1.61 0.63 3.118 1.773 4.253 1.178 1.168 2.723 1.754 4.27 1.754s3.094-0.584 4.27-1.754l1.298-1.288c0.622-0.616 0.626-1.619 0.008-2.24-0.619-0.621-1.622-0.624-2.245-0.010zM27.026 5.131c-2.475-2.454-5.934-2.587-8.222-0.315l-1.614 1.603c-0.622 0.618-0.627 1.621-0.010 2.242 0.618 0.622 1.621 0.626 2.243 0.008l1.616-1.602c1.184-1.178 2.738-0.69 3.754 0.315 0.538 0.536 0.835 1.246 0.835 2.003s-0.298 1.467-0.835 2.002l-5.088 5.046c-2.326 2.306-3.418 1.226-3.883 0.763-0.622-0.618-1.626-0.613-2.242 0.008-0.618 0.622-0.614 1.627 0.008 2.242 1.069 1.059 2.288 1.584 3.565 1.584 1.563 0 3.216-0.787 4.789-2.347l5.088-5.045c1.139-1.136 1.771-2.646 1.771-4.253 0-1.608-0.632-3.118-1.774-4.254z"></path>
</symbol>
<symbol id="icon-list" viewBox="0 0 32 32">
<title>list</title>
<path d="M23.040 14.4h-9.28c-0.883 0-0.96 0.715-0.96 1.6s0.077 1.6 0.96 1.6h9.28c0.883 0 0.96-0.715 0.96-1.6s-0.077-1.6-0.96-1.6zM26.24 22.4h-12.48c-0.883 0-0.96 0.715-0.96 1.6s0.077 1.6 0.96 1.6h12.48c0.883 0 0.96-0.715 0.96-1.6s-0.077-1.6-0.96-1.6zM13.76 9.6h12.48c0.883 0 0.96-0.715 0.96-1.6s-0.077-1.6-0.96-1.6h-12.48c-0.883 0-0.96 0.715-0.96 1.6s0.077 1.6 0.96 1.6zM8.64 14.4h-2.88c-0.883 0-0.96 0.715-0.96 1.6s0.077 1.6 0.96 1.6h2.88c0.883 0 0.96-0.715 0.96-1.6s-0.077-1.6-0.96-1.6zM8.64 22.4h-2.88c-0.883 0-0.96 0.715-0.96 1.6s0.077 1.6 0.96 1.6h2.88c0.883 0 0.96-0.715 0.96-1.6s-0.077-1.6-0.96-1.6zM8.64 6.4h-2.88c-0.883 0-0.96 0.715-0.96 1.6s0.077 1.6 0.96 1.6h2.88c0.883 0 0.96-0.715 0.96-1.6s-0.077-1.6-0.96-1.6z"></path>
</symbol>
<symbol id="icon-lock" viewBox="0 0 32 32">
<title>lock</title>
<path d="M25.28 12.8h-2.88v-3.84c0-4.635-2.136-7.36-6.4-7.36-4.266 0-6.4 2.725-6.4 7.36v3.84h-3.2c-0.885 0-1.6 1.034-1.6 1.918v12.482c0 0.878 0.685 1.822 1.522 2.091l1.915 0.619c0.838 0.267 2.243 0.49 3.123 0.49h9.28c0.878 0 2.285-0.222 3.122-0.491l1.914-0.619c0.838-0.267 1.525-1.211 1.525-2.090v-12.482c0-0.885-1.037-1.918-1.92-1.918zM19.2 12.8h-6.4v-4.482c0-2.312 1.275-3.518 3.2-3.518s3.2 1.206 3.2 3.518v4.482z"></path>
</symbol>
<symbol id="icon-magnifying-glass" viewBox="0 0 32 32">
<title>magnifying-glass</title>
<path d="M28.072 24.747l-6.046-6.046c0.912-1.496 1.437-3.256 1.437-5.136 0-5.467-4.738-10.203-10.205-10.203-5.467-0.002-9.898 4.43-9.898 9.898 0 5.466 4.738 10.203 10.203 10.203 1.819 0 3.52-0.494 4.984-1.35l6.078 6.082c0.595 0.594 1.56 0.594 2.154 0l1.509-1.509c0.594-0.594 0.378-1.344-0.216-1.938zM6.406 13.259c0-3.786 3.067-6.853 6.851-6.853 3.786 0 7.158 3.371 7.158 7.158 0 3.784-3.069 6.853-6.853 6.853-3.786-0.002-7.157-3.374-7.157-7.158z"></path>
</symbol>
<symbol id="icon-new-message" viewBox="0 0 32 32">
<title>new-message</title>
<path d="M29.078 2.922c-1.763-1.763-3.331-1.243-3.331-1.243l-13.822 13.811-2.325 6.91 6.907-2.326 13.814-13.821s0.518-1.568-1.243-3.331zM16.968 18.568l-0.754 0.752-2.357 0.8c-0.166-0.384-0.374-0.763-0.797-1.184-0.422-0.422-0.8-0.63-1.184-0.797l0.8-2.357 0.754-0.752s1.242-0.142 2.459 1.077c1.219 1.218 1.078 2.461 1.078 2.461zM25.6 27.2h-20.8v-20.8h8l3.2-3.2h-11.2c-1.76 0-3.2 1.44-3.2 3.2v20.8c0 1.76 1.44 3.2 3.2 3.2h20.8c1.76 0 3.2-1.44 3.2-3.2v-11.2l-3.2 3.2v8z"></path>
</symbol>
<symbol id="icon-new" viewBox="0 0 32 32">
<title>new</title>
<path d="M29.904 19.75l-2.763-2.461c-0.8-0.712-0.8-1.878 0-2.59l2.763-2.462c0.8-0.712 0.587-1.374-0.474-1.478l-3.664-0.347c-1.059-0.099-1.632-1.013-1.266-2.026l1.944-5.413c0.365-1.016-0.082-1.384-0.99-0.822l-4.322 2.672c-0.909 0.566-2.085 0.256-2.61-0.682l-1.565-2.794c-0.526-0.941-1.395-0.944-1.931-0.013l-1.454 2.528c-0.539 0.936-1.773 1.333-2.741 0.89l-2.56-1.174c-0.973-0.448-1.717 0.067-1.659 1.146l0.138 2.584c0.059 1.078-0.738 2.187-1.766 2.466l-2.472 0.662c-1.027 0.278-1.216 1.088-0.416 1.8l2.763 2.462c0.8 0.712 0.8 1.878 0 2.59l-2.763 2.462c-0.8 0.712-0.589 1.403 0.469 1.531l3.352 0.406c1.058 0.128 1.646 1.072 1.309 2.098l-1.718 5.213c-0.338 1.026 0.144 1.422 1.069 0.888l3.941-2.282c0.925-0.534 2.17-0.24 2.766 0.653l1.635 2.462c0.595 0.894 1.49 0.846 1.984-0.109l1.438-2.773c0.496-0.957 1.683-1.347 2.637-0.869l2.774 1.387c0.957 0.475 1.691-0.016 1.634-1.091l-0.139-2.587c-0.056-1.078 0.738-2.184 1.77-2.462l2.469-0.666c1.030-0.278 1.219-1.088 0.419-1.8zM17.6 22.4h-3.2v-3.2h3.2v3.2zM17.6 17.6h-3.2v-8h3.2v8z"></path>
</symbol>
<symbol id="icon-paper-plane" viewBox="0 0 32 32">
<title>paper-plane</title>
<path d="M29.824 4.214c-0.55 0.194-27.714 9.766-28.25 9.955-0.454 0.16-0.555 0.552-0.016 0.766 0.642 0.258 6.074 2.434 6.074 2.434l3.6 1.442s17.341-12.733 17.574-12.906c0.237-0.173 0.509 0.152 0.338 0.338-0.171 0.187-12.594 13.621-12.594 13.621v0.003l-0.723 0.805 0.958 0.515s7.44 4.006 7.971 4.291c0.466 0.25 1.069 0.043 1.203-0.534 0.158-0.682 4.552-19.618 4.65-20.040 0.126-0.549-0.237-0.883-0.786-0.69zM11.2 27.459c0 0.394 0.222 0.504 0.53 0.226 0.402-0.366 4.56-4.098 4.56-4.098l-5.090-2.63v6.502z"></path>
</symbol>
<symbol id="icon-plus" viewBox="0 0 32 32">
<title>plus</title>
<path d="M25.6 16c0 0.885-0.077 1.6-0.962 1.6h-7.038v7.038c0 0.883-0.715 0.962-1.6 0.962s-1.6-0.078-1.6-0.962v-7.038h-7.038c-0.883 0-0.962-0.715-0.962-1.6s0.078-1.6 0.962-1.6h7.038v-7.038c0-0.885 0.715-0.962 1.6-0.962s1.6 0.077 1.6 0.962v7.038h7.038c0.885 0 0.962 0.715 0.962 1.6z"></path>
</symbol>
<symbol id="icon-reply" viewBox="0 0 32 32">
<title>reply</title>
<path d="M30.4 26.696s-3.56-15.571-17.6-15.571v-6.374l-11.2 10.517 11.2 10.704v-6.971c7.621-0.002 13.626 0.674 17.6 7.696z"></path>
</symbol>
<symbol id="icon-rocket" viewBox="0 0 32 32">
<title>rocket</title>
<path d="M19.093 20.91s11.294-8.15 10.042-17.478c-0.027-0.203-0.094-0.341-0.179-0.429-0.086-0.088-0.219-0.157-0.421-0.184-9.115-1.282-17.078 10.275-17.078 10.275-6.909-0.827-6.406 0.55-9.558 8.122-0.603 1.443 0.374 1.941 1.446 1.534 1.072-0.403 3.437-1.298 3.437-1.298l4.144 4.237s-0.874 2.422-1.269 3.518c-0.397 1.098 0.088 2.098 1.501 1.482 7.398-3.226 8.746-2.71 7.936-9.779zM20.707 11.445c-0.957-0.981-0.957-2.566 0-3.547 0.957-0.978 2.507-0.978 3.466 0 0.957 0.978 0.957 2.565 0 3.547-0.958 0.978-2.51 0.978-3.466 0z"></path>
</symbol>
<symbol id="icon-star-outlined" viewBox="0 0 32 32">
<title>star-outlined</title>
<path d="M30.080 12.835h-10.261l-3.819-10.755-3.822 10.755h-10.259l8.371 6.315-2.994 11.086 8.704-6.646 8.701 6.646-2.99-11.086 8.37-6.315zM16 20.453l-4.822 4 1.989-5.699-4.562-3.68 5.635 0.162 1.76-6.464 1.758 6.464 5.634-0.162-4.562 3.68 1.989 5.699-4.819-4z"></path>
</symbol>
<symbol id="icon-star" viewBox="0 0 32 32">
<title>star</title>
<path d="M16 2.080l3.821 10.755h10.259l-8.371 6.317 2.994 11.085-8.702-6.646-8.701 6.646 2.992-11.085-8.373-6.317h10.259l3.822-10.755z"></path>
</symbol>
<symbol id="icon-thumbs-up" viewBox="0 0 32 32">
<title>thumbs-up</title>
<path d="M21.837 11.779c-0.213-0.568 5.662-5.814 2.237-10.066-0.802-0.994-3.522 4.76-7.384 7.365-2.131 1.437-7.090 4.496-7.090 6.187v10.947c0 2.034 7.862 4.187 13.837 4.187 2.19 0 5.363-13.722 5.363-15.901 0-2.189-6.754-2.15-6.963-2.72zM8 11.931c-1.053 0-4.8 0.64-4.8 4.997v7.757c0 4.354 3.747 4.834 4.8 4.834 1.051 0-1.6-0.915-1.6-3.616v-10.197c0-2.829 2.651-3.774 1.6-3.774z"></path>
</symbol>
<symbol id="icon-trash" viewBox="0 0 32 32">
<title>trash</title>
<path d="M5.422 11.381l1.762 17.453c0.098 0.738 3.659 3.163 8.816 3.166 5.16-0.003 8.722-2.429 8.818-3.166l1.763-17.453c-2.694 1.507-6.722 2.219-10.581 2.219-3.856 0-7.885-0.712-10.578-2.219zM21.069 2.416l-1.374-1.522c-0.531-0.757-1.107-0.894-2.229-0.894h-2.93c-1.12 0-1.698 0.138-2.227 0.894l-1.374 1.522c-4.112 0.718-7.094 2.624-7.094 4.030v0.272c0 2.475 5.445 4.482 12.16 4.482 6.717 0 12.162-2.006 12.162-4.482v-0.272c0-1.406-2.981-3.312-7.093-4.030zM19.312 6.944l-1.712-2.144h-3.2l-1.709 2.144h-2.72s2.979-3.554 3.378-4.035c0.304-0.368 0.614-0.509 1.018-0.509h3.269c0.405 0 0.715 0.141 1.019 0.509 0.397 0.482 3.378 4.035 3.378 4.035h-2.72z"></path>
</symbol>
<symbol id="icon-user" viewBox="0 0 32 32">
<title>user</title>
<path d="M12.36 3.434c-1.626 1.21-2.062 3.125-1.982 4.144 0.102 1.246 0.355 2.869 0.355 2.869s-0.501 0.272-0.501 1.366c0.174 2.747 1.093 1.562 1.282 2.766 0.454 2.902 1.493 2.386 1.493 3.97 0 2.638-1.088 3.872-4.485 5.334-3.408 1.469-6.922 3.317-6.922 6.517v1.6h28.8v-1.6c0-3.2-3.515-5.048-6.925-6.515-3.397-1.462-4.482-2.694-4.482-5.334 0-1.584 1.035-1.067 1.491-3.97 0.19-1.205 1.107-0.019 1.285-2.766 0-1.094-0.502-1.366-0.502-1.366s0.253-1.622 0.354-2.869c0.104-1.307-0.637-4.098-3.68-4.954-0.533-0.544-0.893-1.41 0.746-2.278-3.584-0.168-4.418 1.707-6.326 3.086z"></path>
</symbol>
<symbol id="icon-warning" viewBox="0 0 32 32">
<title>warning</title>
<path d="M31.218 28.768l-14.251-26.611c-0.198-0.344-0.566-0.557-0.966-0.557-0.402 0-0.77 0.213-0.966 0.557l-14.25 26.611c-0.194 0.338-0.19 0.754 0.008 1.088 0.2 0.338 0.563 0.544 0.957 0.544h28.502c0.392 0 0.758-0.206 0.957-0.544 0.198-0.334 0.202-0.75 0.010-1.088zM17.6 27.2h-3.2v-3.2h3.2v3.2zM17.6 21.6h-3.2v-10.4h3.2v10.4z"></path>
</symbol>
</defs>
</svg>
