<?xml version="1.0" standalone="no"?>
<!DOCTYPE svg PUBLIC "-//W3C//DTD SVG 1.1//EN" "http://www.w3.org/Graphics/SVG/1.1/DTD/svg11.dtd" >
<svg xmlns="http://www.w3.org/2000/svg" xmlns:xlink="http://www.w3.org/1999/xlink" version="1.1">
<metadata></metadata>
<defs>
<font id="exo_2thin" horiz-adv-x="1146" >
<font-face units-per-em="2048" ascent="1638" descent="-410" />
<missing-glyph horiz-adv-x="471" />
<glyph horiz-adv-x="0" />
<glyph unicode="&#xd;" horiz-adv-x="681" />
<glyph unicode=" "  horiz-adv-x="471" />
<glyph unicode="&#x09;" horiz-adv-x="471" />
<glyph unicode="&#xa0;" horiz-adv-x="471" />
<glyph unicode="!" horiz-adv-x="518" d="M225 25v127q0 24 25 24h20q25 0 25 -24v-127q0 -25 -25 -25h-20q-25 0 -25 25zM233 725v698h52v-698l-4 -309h-43z" />
<glyph unicode="&#x22;" horiz-adv-x="669" d="M180 987v426h49v-426h-49zM440 987v426h49v-426h-49z" />
<glyph unicode="#" horiz-adv-x="1366" d="M123 467l8 45h236l79 451h-237l8 45h238l69 405h51l-69 -405h463l69 405h52l-70 -405h223l-8 -45h-223l-80 -451h225l-8 -45h-223l-82 -467h-51l81 467h-462l-82 -467h-51l81 467h-237zM418 512h463l80 451h-463z" />
<glyph unicode="$" horiz-adv-x="1144" d="M141 1073q0 125 24 200q24 74 84 110t128 45q71 9 190 8h31l10 211h43l-10 -213q178 -7 309 -23l-6 -39q-266 16 -307 17l-33 -656l125 -16q155 -18 220 -103t65 -268q0 -96 -20 -167q-19 -67 -51 -108q-31 -40 -90 -61q-55 -20 -117 -26q-68 -7 -152 -7h-21l-14 -253 h-43l14 253q-189 4 -354 23l6 39q172 -14 350 -14l35 665l-141 21q-148 17 -211 102q-64 87 -64 260zM193 1073q0 -155 51 -226t172 -87l145 -21l33 650h-27q-39 0 -120 -3q-36 -1 -92 -11q-51 -9 -75 -28q-22 -18 -48 -55q-23 -33 -31 -88q-8 -56 -8 -131zM565 25h21 q113 2 176 12q64 11 112 44q50 35 69 97q20 65 20 168q0 166 -53 236t-181 86l-129 18z" />
<glyph unicode="%" horiz-adv-x="1808" d="M125 1020q0 218 70 318t237 100q168 0 238 -100q69 -99 69 -318q0 -220 -69 -319t-238 -99q-168 0 -237 99q-70 100 -70 319zM172 1020q0 -202 58 -290q59 -89 202 -89t202 89q58 88 58 290t-58 290q-59 89 -202 89t-202 -89q-58 -88 -58 -290zM385 0l983 1413h49 l-983 -1413h-49zM1069 403q0 219 70 319q69 99 237 99q169 0 238 -99t69 -319q0 -219 -69 -318t-238 -99q-168 0 -237 99q-70 100 -70 318zM1116 403q0 -200 59 -289t201 -89q143 0 202 89q58 88 58 289q0 202 -58 290q-59 89 -202 89q-142 0 -201 -89t-59 -290z" />
<glyph unicode="&#x26;" horiz-adv-x="1603" d="M164 356q0 172 63 267q63 94 217 106v8q-129 11 -184 92q-55 82 -55 238q0 98 21 164q20 63 59 105q37 40 106 61q64 20 145 26q88 7 195 7q176 0 326 -17l-8 -37q-60 6 -320 6q-280 0 -375 -58q-96 -58 -96 -259q0 -185 78 -248t282 -63h469l13 319h37v-319h288l-6 -43 h-282v-514q0 -164 163 -164h181l6 -33q-83 -12 -174 -12q-226 0 -226 207v2q-100 -118 -219 -165q-122 -48 -297 -48q-223 0 -315 81t-92 291zM217 356q0 -184 77 -255q76 -70 273 -70q185 0 304 55q120 56 216 180v445h-469q-224 0 -312 -76q-89 -77 -89 -279z" />
<glyph unicode="'" horiz-adv-x="409" d="M180 987v426h49v-426h-49z" />
<glyph unicode="(" horiz-adv-x="727" d="M141 639q0 389 118 625q119 238 368 354l8 -37q-225 -117 -333 -345q-107 -226 -107 -595q0 -363 107 -590q108 -229 333 -352l-8 -37q-250 118 -368 355q-118 236 -118 622z" />
<glyph unicode=")" horiz-adv-x="727" d="M92 -301q225 123 333 352q107 227 107 590q0 369 -107 595q-108 228 -333 345l8 37q249 -116 368 -354q118 -236 118 -625q0 -386 -118 -622q-118 -237 -368 -355z" />
<glyph unicode="*" horiz-adv-x="927" d="M147 1167l17 45l250 -90l-2 -18l-9 -17zM254 838l192 262l-6 313h49l-10 -313l193 -264l-37 -27l-172 256l-170 -254zM514 1104v18l252 86l16 -45l-260 -76z" />
<glyph unicode="+" horiz-adv-x="1132" d="M139 586v45h404v383h47v-383h403v-45h-405v-383h-43v383h-406z" />
<glyph unicode="," horiz-adv-x="425" d="M182 20v132q-2 24 23 24h18q25 0 25 -24v-132q-5 -145 -37 -260l-25 11q9 130 9 229q-19 0 -13 20z" />
<glyph unicode="-" horiz-adv-x="989" d="M176 492v45h637v-45h-637z" />
<glyph unicode="." horiz-adv-x="421" d="M176 25v127q0 24 25 24h20q25 0 25 -24v-127q0 -25 -25 -25h-20q-25 0 -25 25z" />
<glyph unicode="/" horiz-adv-x="1011" d="M78 -121l805 1534h51l-805 -1534h-51z" />
<glyph unicode="0" horiz-adv-x="1196" d="M158 707q0 383 99 557t341 174t341 -174t99 -557t-99 -557q-100 -175 -341 -175t-341 175q-99 174 -99 557zM211 707q0 -361 87 -523q86 -161 300 -161t300 161q87 162 87 523q0 360 -87 522t-300 162t-300 -162t-87 -522z" />
<glyph unicode="1" horiz-adv-x="774" d="M76 1264l387 149h51v-1413h-51v1266q0 49 6 94l-383 -129z" />
<glyph unicode="2" horiz-adv-x="1140" d="M127 0v29q0 14 10 28l492 568q146 170 209 296q63 127 59 250q-6 138 -89 179q-84 41 -257 41q-186 0 -399 -45l-13 36q232 56 402 56q217 0 314 -57t97 -226q0 -139 -65 -260q-65 -122 -219 -301l-475 -549h245h578v-45h-889z" />
<glyph unicode="3" horiz-adv-x="1130" d="M125 10l12 37q234 -24 404 -24q198 0 286 85t88 285q0 74 -14 124q-16 59 -50 105q-36 50 -109 77q-76 29 -177 30h-264v37l264 6q314 6 314 338q-5 164 -84 222q-80 59 -287 59q-156 0 -348 -25l-15 37q201 35 361 35q238 0 330 -71t92 -255q0 -311 -223 -356v-8 q256 -39 262 -355q4 -212 -93 -316q-96 -102 -329 -102q-164 0 -420 35z" />
<glyph unicode="4" horiz-adv-x="1218" d="M121 453q-30 51 0 108l457 852h53l-463 -866q-21 -37 -1 -69t60 -32h660v461l14 240h37v-701h168v-36l-168 -7v-403h-51v401h-672q-63 0 -94 52z" />
<glyph unicode="5" horiz-adv-x="1077" d="M133 33l12 37q203 -50 357 -50q117 0 199 28q78 27 119 84q39 54 54 122q15 66 15 162q0 86 -15 146q-16 63 -52 102q-38 40 -81 63q-45 23 -127 35q-85 12 -162 15q-79 3 -212 3h-29q-13 0 -21 8t-6 21l29 604h684l-6 -45h-633l-25 -543h113q172 -2 268 -16 q102 -16 179 -56q79 -42 112 -123t33 -214q0 -79 -7 -132q-7 -56 -33 -118q-25 -61 -72 -100q-48 -40 -127 -65q-83 -26 -193 -26q-164 0 -373 58z" />
<glyph unicode="6" horiz-adv-x="1155" d="M166 618q0 220 19 360q19 141 55 236q35 93 101 141q64 47 144 65q78 18 199 18q141 0 244 -25l-17 -37q-78 15 -227 15q-104 0 -178 -16q-69 -15 -128 -56t-89 -120q-30 -80 -48 -200q-17 -118 -22 -301q92 115 184 160q91 45 232 45q219 0 301 -104t82 -377 q0 -120 -14 -189q-15 -75 -58 -137q-44 -64 -128 -92q-87 -29 -218 -29q-112 0 -188 24t-125 67q-50 44 -76 124q-27 83 -36 181q-9 99 -9 247zM219 612q0 -143 7 -224q8 -88 30 -164q23 -77 65 -118q43 -41 110 -63q71 -23 171 -23q223 0 294 97t71 311q0 239 -70 335 q-69 95 -266 95q-122 0 -215 -44q-91 -43 -197 -163v-39z" />
<glyph unicode="7" horiz-adv-x="1034" d="M98 1413h772q51 0 65 -18t-3 -66l-463 -1329h-51l448 1290q1 2 14 40q3 9 7.5 21.5t5.5 16.5h-791z" />
<glyph unicode="8" horiz-adv-x="1251" d="M174 352q0 186 52 274t180 103v8q-107 12 -155 91q-48 80 -48 233q0 199 90 284q89 85 334 85q243 2 332 -84q90 -87 90 -285q0 -152 -49 -233q-48 -79 -154 -91v-8q127 -15 179 -103t52 -274q0 -206 -92 -286q-93 -81 -358 -82q-266 -2 -358 79q-95 83 -95 289zM225 352 q0 -178 83 -249q82 -70 319 -70t318 69t81 250q0 121 -15 190q-15 67 -65 107q-48 38 -119 50q-69 12 -198 12q-125 0 -203 -13q-72 -12 -121 -52t-64 -106q-16 -70 -16 -188zM254 1061q0 -195 72 -250q71 -55 303 -55q234 0 301 55t67 250q0 184 -73 253q-72 68 -297 68 q-221 0 -297 -69t-76 -252z" />
<glyph unicode="9" horiz-adv-x="1157" d="M137 971q0 235 90 351t326 116q81 0 149 -13q66 -12 111 -33q46 -21 77 -67q28 -42 49 -92q20 -48 29 -132q9 -86 12 -166q3 -81 3 -210q0 -198 -19 -328q-19 -133 -57 -217t-103 -129t-144 -60q-82 -16 -195 -16q-145 0 -256 25l16 37q109 -14 240 -14q114 0 178 14 q70 15 129 55t91 119q31 76 49 200q18 122 18 304q-92 -114 -185 -160q-91 -45 -229 -45q-205 0 -292 114t-87 347zM188 967q0 -207 74 -310q74 -102 258 -102q120 0 213 44q91 43 197 163q0 80 -2 164q-1 40 -7 133q-4 67 -17 110q-12 41 -30 84t-46 65q-30 23 -67 41 t-90 26t-118 8q-208 0 -287 -106q-78 -105 -78 -320z" />
<glyph unicode=":" horiz-adv-x="421" d="M176 25v127q0 24 25 24h20q25 0 25 -24v-127q0 -25 -25 -25h-20q-25 0 -25 25zM176 729v127q0 25 25 25h20q25 0 25 -25v-127q0 -24 -25 -24h-20q-25 0 -25 24z" />
<glyph unicode=";" horiz-adv-x="425" d="M176 729v127q0 25 25 25h20q25 0 25 -25v-127q0 -24 -25 -24h-20q-25 0 -25 24zM182 20v132q-2 24 23 24h18q25 0 25 -24v-132q-5 -145 -37 -260l-25 11q9 130 9 229q-19 0 -13 20z" />
<glyph unicode="&#x3c;" horiz-adv-x="1107" d="M133 582v45l805 374v-45l-756 -352l756 -340v-45z" />
<glyph unicode="=" horiz-adv-x="1206" d="M176 354v45h854v-45h-854zM176 788v46h854v-46h-854z" />
<glyph unicode="&#x3e;" horiz-adv-x="1107" d="M170 219v45l756 340l-756 352v45l805 -374v-45z" />
<glyph unicode="?" horiz-adv-x="1038" d="M102 1421q11 1 60 10q41 8 58 9q6 1 24.5 3.5t29.5 3.5q52 6 67 7q31 2 76 3q31 1 101 1q402 0 402 -317q0 -88 -40 -159t-98 -129l-114 -114q-57 -57 -98 -140q-40 -81 -40 -183h-49q0 111 40 198q41 89 97 147q57 59 114 111q52 48 96 121q40 67 40 148q0 140 -85 206 t-265 66q-188 0 -405 -29zM469 25v127q0 24 25 24h20q25 0 25 -24v-127q0 -25 -25 -25h-20q-25 0 -25 25z" />
<glyph unicode="@" horiz-adv-x="1419" d="M193 541q0 140 5 238q5 92 25 166q21 78 49 113q27 34 90 62q61 27 135 33q79 7 193 8h287q268 0 268 -239v-658h-35l-10 166q-73 -63 -209 -120q-133 -56 -264 -56q-122 0 -187 56q-67 58 -67 159v111q0 95 62 148q61 52 172 52h493v142q0 196 -225 194h-283 q-120 0 -173 -4q-59 -4 -119 -26q-59 -21 -83 -53q-26 -34 -46 -102t-25 -158q-4 -77 -4 -230q0 -89 2 -187q2 -77 13 -141q12 -66 24 -106q11 -37 43 -72q29 -32 61 -48t90 -26q60 -11 116 -12q76 -2 150 -2h494v-39q-246 -6 -492 -6q-133 -1 -214 3q-79 4 -148 32 q-67 27 -100 64q-33 38 -56 118q-22 79 -27 172q-5 102 -5 248zM522 471q0 -167 203 -172q114 -2 249 49q134 50 226 125v272l-493 -8q-185 -6 -185 -157v-109z" />
<glyph unicode="A" horiz-adv-x="1234" d="M39 0l508 1395q6 18 26 18h89q20 0 26 -18l508 -1395h-55l-187 516h-673l-187 -516h-55zM297 561h641l-250 692l-41 115h-59l-41 -115z" />
<glyph unicode="B" horiz-adv-x="1253" d="M211 0v1413q150 17 397 17q256 0 356 -77q99 -77 99 -292q0 -153 -57 -233q-57 -79 -183 -91v-8q152 -15 216 -107q65 -94 65 -270q0 -215 -95 -292q-94 -76 -339 -76q-298 0 -459 16zM262 35q128 -4 408 -4q217 0 299 64t82 257q0 208 -88 281t-314 78h-387v-676z M262 754h387q203 2 282 64q79 63 79 243q0 193 -87 257q-86 64 -315 64q-237 0 -346 -4v-624z" />
<glyph unicode="C" horiz-adv-x="1148" d="M156 707q0 405 115 568t407 163q202 0 356 -35l-12 -37q-159 25 -344 25q-262 0 -366 -152q-103 -151 -103 -532q0 -382 103 -533t366 -151q226 0 373 26l12 -37q-160 -37 -385 -37q-292 0 -407 163t-115 569z" />
<glyph unicode="D" horiz-adv-x="1349" d="M211 0v1413q256 19 469 19q285 0 399 -163q115 -165 115 -562q0 -398 -115 -563q-113 -162 -399 -162q-222 0 -469 18zM262 35q369 -6 418 -6q256 0 358 150q103 151 103 528q0 376 -103 527q-102 150 -358 150q-151 0 -418 -8v-1341z" />
<glyph unicode="E" horiz-adv-x="1128" d="M199 209v995q0 91 59 150t150 59q388 0 602 -8l-4 -37h-588q-74 0 -121 -47t-47 -121v-422h672v-43h-672v-522q0 -74 47 -121t121 -47h588l4 -37q-214 -8 -602 -8q-91 0 -150 59t-59 150z" />
<glyph unicode="F" horiz-adv-x="1085" d="M205 0v1204q0 91 59 150t150 59q377 0 587 -8l-4 -37h-573q-74 0 -121 -47t-47 -121v-430h657v-43h-657v-727h-51z" />
<glyph unicode="G" horiz-adv-x="1273" d="M156 707q0 407 117 568q118 163 411 163q226 0 401 -35l-12 -37q-180 25 -389 25q-266 0 -371 -152q-104 -150 -104 -532q0 -363 96 -524q96 -160 322 -160q73 0 133 16q64 17 120 53q58 37 89 62q39 32 88 75v590h51v-819h-35l-12 182q-192 -207 -438 -207 q-251 0 -359 172q-108 173 -108 560z" />
<glyph unicode="H" horiz-adv-x="1345" d="M211 0v1413h51v-633h821v633h52v-1413h-52v735h-821v-735h-51z" />
<glyph unicode="I" horiz-adv-x="473" d="M211 0v1413h51v-1413h-51z" />
<glyph unicode="J" horiz-adv-x="663" d="M78 0l6 33h119q205 0 205 205v1175h51v-1177q0 -248 -248 -248h-2q-57 0 -131 12z" />
<glyph unicode="K" horiz-adv-x="1150" d="M211 0v1413h49v-483q0 -61 -4 -170h233l498 653h62l-474 -625q-24 -32 -45 -49v-4q40 -40 45 -47l508 -688h-61l-533 715h-233q4 -56 4 -176v-539h-49z" />
<glyph unicode="L" horiz-adv-x="1038" d="M205 209v1204h51v-1200q0 -74 47 -121t121 -47h557v-37q-202 -8 -567 -8q-91 0 -150 59t-59 150z" />
<glyph unicode="M" horiz-adv-x="1748" d="M180 0l62 1382q0 31 30 31h86q21 0 27 -18l391 -1035q12 -33 36 -96t36 -96h53l74 197l389 1030q6 18 27 18h86q30 0 30 -31l62 -1382h-51l-62 1368h-49l-463 -1227q-6 -18 -26 -18h-87q-20 0 -26 18l-463 1227h-49l-62 -1368h-51z" />
<glyph unicode="N" horiz-adv-x="1409" d="M211 0v1382q0 31 31 31h80q26 0 36 -22l641 -1180l91 -166h57v184v1184h51v-1382q0 -31 -31 -31h-86q-25 0 -37 23l-655 1206q-4 7 -16.5 29.5t-21.5 38.5q-28 52 -38 71h-51v-141v-1227h-51z" />
<glyph unicode="O" horiz-adv-x="1355" d="M156 707q0 405 115 568t407 163q291 0 406 -163q116 -164 116 -568q0 -405 -116 -569q-115 -163 -406 -163q-292 0 -407 163t-115 569zM209 707q0 -382 103 -533t366 -151q262 0 365 151q104 152 104 533q0 380 -104 532t-365 152q-262 0 -366 -152q-103 -151 -103 -532z " />
<glyph unicode="P" horiz-adv-x="1189" d="M211 0v1413q168 17 453 17q226 0 317 -89q90 -89 90 -327q0 -242 -89 -329q-88 -87 -318 -87q-253 0 -402 8v-606h-51zM262 645h402q201 5 277 79q77 75 77 290q0 216 -78 292q-77 76 -276 76q-278 0 -402 -4v-733z" />
<glyph unicode="Q" horiz-adv-x="1355" d="M156 707q0 405 115 568t407 163q291 0 406 -163q116 -164 116 -568q0 -405 -116 -569q-115 -163 -406 -163q-292 0 -407 163t-115 569zM209 707q0 -382 103 -533t366 -151q262 0 365 151q104 152 104 533q0 380 -104 532t-365 152q-262 0 -366 -152q-103 -151 -103 -532z M586 -133l24 29q185 -130 459 -175l-14 -51q-278 39 -469 197z" />
<glyph unicode="R" horiz-adv-x="1243" d="M211 0v1413q168 17 453 17q229 0 318 -83t89 -315q0 -188 -60 -272t-200 -105v-8q99 -30 156 -194l155 -453h-57l-152 446q-66 189 -231 189q-271 0 -420 8v-643h-51zM262 682h402q197 4 276 77q78 72 78 273q0 206 -78 278t-276 72q-278 0 -402 -4v-696z" />
<glyph unicode="S" horiz-adv-x="1134" d="M135 1073q0 125 24 200q24 74 84 110t128 45q64 8 167 8h23q204 -5 383 -25l-6 -39q-253 17 -377 17q-39 0 -120 -3q-36 -1 -92 -11q-53 -9 -76 -28q-20 -16 -47 -55q-23 -33 -31 -88q-9 -63 -9 -131q0 -154 52 -226q51 -71 172 -87l313 -43q155 -18 220 -103t65 -268 q0 -96 -20 -167q-19 -67 -51 -108q-31 -40 -90 -61q-55 -20 -117 -26q-68 -7 -152 -7q-222 0 -418 23l6 39q179 -14 367 -14h47q113 2 176 12q64 11 112 44q50 35 69 97q19 61 19 168q0 168 -52 236q-53 70 -181 86l-313 43q-148 17 -211 102q-64 87 -64 260z" />
<glyph unicode="T" horiz-adv-x="1155" d="M55 1368v45h1045v-45h-498v-1368h-51v1368h-496z" />
<glyph unicode="U" horiz-adv-x="1366" d="M201 522v891h51v-891q0 -275 97 -387t335 -112q236 0 333 112t97 387v891h51v-891q0 -298 -109 -422q-110 -125 -372 -125q-264 0 -374 125q-109 124 -109 422z" />
<glyph unicode="V" horiz-adv-x="1212" d="M53 1413h56l417 -1216q33 -92 52 -152h57q37 114 51 154l418 1214h55l-483 -1395q-8 -18 -27 -18h-86q-19 0 -26 18z" />
<glyph unicode="W" horiz-adv-x="1904" d="M68 1413h53l328 -1227l36 -141h58l35 139l307 1207q6 22 28 22h78q23 0 29 -22l307 -1205q6 -22 18 -69q5 -18 10.5 -42.5t6.5 -29.5h57l37 139l328 1229h53l-375 -1393q-6 -20 -28 -20h-86q-23 0 -29 23l-301 1187l-41 158h-49l-41 -158l-301 -1187q-6 -23 -29 -23h-86 q-23 0 -29 20z" />
<glyph unicode="X" horiz-adv-x="1214" d="M78 0l448 737l-422 676h62l407 -651h68l408 651h61l-422 -676l449 -737h-62l-436 717h-64l-436 -717h-61z" />
<glyph unicode="Y" horiz-adv-x="1107" d="M45 1413h57l369 -682q37 -70 78 -139h10q2 4 14 24.5t22 38.5q36 66 40 74l369 684h57l-481 -887v-526h-52v526z" />
<glyph unicode="Z" horiz-adv-x="1142" d="M106 0v47l863 1319h-856v47h915v-47l-862 -1319h872v-47h-932z" />
<glyph unicode="[" horiz-adv-x="638" d="M217 -274v1783q0 26 19 45t45 19h256v-45h-246q-25 0 -25 -25v-1771q0 -25 25 -25h246v-45h-256q-28 0 -45 17q-19 19 -19 47z" />
<glyph unicode="\" horiz-adv-x="1011" d="M78 1413h51l805 -1534h-51z" />
<glyph unicode="]" horiz-adv-x="638" d="M102 -293h246q25 0 25 25v1771q0 25 -25 25h-246v45h256q26 0 45 -19t19 -45v-1783q0 -28 -19 -47q-17 -17 -45 -17h-256v45z" />
<glyph unicode="^" horiz-adv-x="802" d="M61 774l322 404h37l321 -404l-24 -24l-307 372h-17l-305 -372z" />
<glyph unicode="_" horiz-adv-x="1206" d="M162 0h882v-45h-882v45z" />
<glyph unicode="`" horiz-adv-x="567" d="M102 1415l37 35l305 -297l-28 -27z" />
<glyph unicode="a" horiz-adv-x="1101" d="M135 236v126q0 112 62 172q61 60 174 60h495v139q0 228 -225 228q-203 0 -461 -33l-6 37q301 43 469 43q272 0 272 -275v-733h-36l-11 190q-72 -73 -209 -138q-135 -64 -268 -64q-124 0 -189 64q-67 65 -67 184zM186 236q0 -195 205 -199h7q112 0 243 58q135 59 225 145 v313l-495 -8q-185 -5 -185 -183v-126z" />
<glyph unicode="b" horiz-adv-x="1142" d="M188 39v1395h50v-445q0 -136 -7 -190q236 209 412 209q193 0 275 -118q81 -116 81 -398q0 -280 -91 -398q-92 -119 -306 -119q-173 0 -414 64zM238 74q186 -51 364 -51q187 0 266 106q80 107 80 363t-69 362q-69 107 -236 107q-90 0 -183 -49q-92 -48 -222 -156v-682z " />
<glyph unicode="c" horiz-adv-x="978" d="M141 492q0 282 102 399t347 117q162 0 276 -35l-12 -37q-100 25 -256 25q-225 0 -315 -101q-90 -100 -90 -368t90 -369q90 -100 315 -100q162 0 283 24l8 -37q-155 -35 -297 -35q-246 0 -348 117q-103 118 -103 400z" />
<glyph unicode="d" horiz-adv-x="1148" d="M145 492q0 280 82 398t275 118q171 0 409 -103q-6 53 -6 191v338h49v-1434h-36l-9 172q-221 -197 -407 -197q-193 0 -275 118t-82 399zM197 492q0 -256 69 -363q69 -106 236 -106q94 0 185 45t218 151v643q-246 99 -403 99q-167 0 -236 -107q-69 -106 -69 -362z" />
<glyph unicode="e" horiz-adv-x="1079" d="M141 496q0 279 97 396q96 116 325 116q381 0 387 -279q0 -12 1 -24q0 -117 -46 -176q-49 -64 -166 -64h-546q6 -243 98 -343q91 -99 295 -99q177 0 334 26l8 -37q-117 -37 -348 -37q-234 0 -336 120q-103 121 -103 401zM193 510h546q88 0 126 53q35 48 35 138q0 12 -1 24 q-1 120 -85 178t-249 58q-202 0 -286 -102q-85 -103 -86 -349z" />
<glyph unicode="f" horiz-adv-x="724" d="M72 938v35l178 10v207q0 141 59 206q60 66 197 66q144 0 242 -8v-37h-226q-124 0 -173 -51q-50 -52 -50 -176v-207h365v-45h-365v-938h-49v938h-178z" />
<glyph unicode="g" horiz-adv-x="1116" d="M117 -152q0 113 26 174t107 105l49 27q-69 29 -95 86q-15 33 -15 67q0 24 8 50q18 61 71 106q-110 68 -110 239q0 154 93 230q92 76 300 76q116 0 199 -25h307l-6 -37l-211 -6q100 -73 100 -238q0 -156 -91 -228q-93 -73 -298 -73q-162 0 -252 43q-47 -51 -60 -105 q-4 -15 -4 -29q0 -38 27 -70q38 -46 123 -62l395 -69q126 -23 169 -81q44 -59 44 -180q0 -157 -98 -219q-99 -63 -334 -63q-246 0 -345 63t-99 219zM166 -152q0 -130 89 -183q88 -52 306 -52q208 0 296 53q87 53 87 182q0 103 -36 151q-37 49 -142 67l-408 71l-6 2l-69 -43 q-73 -41 -95 -93q-22 -51 -22 -155zM207 702q0 -132 80 -194t264 -62q183 0 262 62q78 62 78 194q0 134 -78 197q-79 64 -262 64t-264 -64q-80 -63 -80 -197z" />
<glyph unicode="h" horiz-adv-x="1165" d="M193 0v1434h53v-441q0 -124 -10 -190q274 205 479 205q264 0 264 -269v-739h-49v733q0 228 -225 228q-101 0 -208 -48q-103 -47 -255 -153v-760h-49z" />
<glyph unicode="i" horiz-adv-x="450" d="M190 1239v127q0 25 25 25h21q24 0 24 -25v-127q0 -25 -24 -25h-21q-25 0 -25 25zM201 0v983h49v-983h-49z" />
<glyph unicode="j" horiz-adv-x="450" d="M88 -410q113 151 113 316v1077h49v-1077q0 -184 -135 -336zM190 1239v127q0 25 25 25h21q24 0 24 -25v-127q0 -25 -24 -25h-21q-25 0 -25 25z" />
<glyph unicode="k" horiz-adv-x="968" d="M193 0v1434h53v-680q0 -83 -8 -168h170l395 397h65l-370 -379q-29 -29 -47 -41v-4q36 -36 47 -51l403 -508h-63l-430 541h-170q4 -56 4 -179v-362h-49z" />
<glyph unicode="l" horiz-adv-x="552" d="M195 195v1239h49v-1237q0 -80 43 -122t121 -42h118l6 -33q-40 -12 -131 -12q-93 0 -150 54q-56 53 -56 153z" />
<glyph unicode="m" horiz-adv-x="1802" d="M195 0v983h36l7 -180q233 205 438 205q220 0 250 -203q232 203 436 203q122 0 188 -69t66 -200v-739h-49v733q0 228 -215 228q-94 0 -190 -48q-92 -46 -232 -153v-21v-739h-49v733q0 228 -215 228q-94 0 -190 -48q-92 -46 -232 -153v-760h-49z" />
<glyph unicode="n" horiz-adv-x="1167" d="M195 0v983h36l7 -180q257 205 479 205q264 0 264 -269v-739h-49v733q0 228 -225 228q-101 0 -208 -48q-103 -47 -255 -153v-760h-49z" />
<glyph unicode="o" d="M143 492q0 283 97 400q96 116 333 116q238 0 334 -116q97 -117 97 -400q0 -284 -97 -401q-96 -116 -334 -116q-237 0 -333 116q-97 117 -97 401zM195 492q0 -265 84 -367t294 -102q211 0 295 102t84 367q0 264 -84 366q-85 103 -295 103q-209 0 -294 -103 q-84 -102 -84 -366z" />
<glyph unicode="p" horiz-adv-x="1148" d="M195 -430v1413h36l9 -178q220 203 407 203q193 0 275 -118t82 -398q0 -281 -82 -399t-275 -118q-179 0 -409 109q6 -51 6 -188v-326h-49zM244 121q244 -98 403 -98q167 0 236 106q69 107 69 363t-69 362q-69 107 -236 107q-94 0 -186 -47q-97 -49 -217 -152v-641z" />
<glyph unicode="q" horiz-adv-x="1144" d="M143 492q0 280 93 399q91 117 313 117q164 0 405 -64v-1374h-49v410q0 143 6 190q-130 -102 -225 -147q-102 -48 -207 -48q-177 0 -256 124q-80 125 -80 393zM195 489q0 -252 68 -358q69 -108 224 -108q102 0 193 44q88 43 225 146v696q-196 52 -348 52q-201 0 -282 -104 q-80 -102 -80 -368z" />
<glyph unicode="r" horiz-adv-x="784" d="M195 0v983h36l7 -180q259 205 460 205h39l-10 -47h-35q-97 0 -199 -48q-99 -47 -249 -153v-760h-49z" />
<glyph unicode="s" horiz-adv-x="1021" d="M127 748q0 171 80 218q73 42 250 43q15 0 32 -1q208 -5 381 -25l-6 -37q-204 16 -375 17q-39 0 -68.5 0.5t-49.5 -0.5q-37 -1 -85 -13q-45 -11 -64 -34q-20 -24 -33 -64q-13 -39 -13 -104q0 -104 41 -151q40 -45 123 -56l332 -41q223 -28 223 -250q0 -92 -24 -148 t-78 -82t-117 -34q-74 -9 -168 -9q-189 0 -356 23l6 37q150 -14 312 -14h40q197 5 266 45q70 41 70 182q0 180 -174 203l-332 41q-109 12 -160 71q-53 61 -53 183z" />
<glyph unicode="t" horiz-adv-x="710" d="M70 938v35l178 10v309h49v-309h365v-45h-365v-741q0 -164 164 -164h180l6 -33q-83 -12 -174 -12q-225 0 -225 207v743h-178z" />
<glyph unicode="u" d="M186 244v739h50v-733q0 -227 225 -227q98 0 198 47q98 46 244 153v760h49v-983h-37l-6 180q-245 -205 -458 -205q-265 0 -265 269z" />
<glyph unicode="v" horiz-adv-x="1038" d="M61 983h54l313 -752q15 -30 39 -93t39 -93h26l80 188l312 750h53l-404 -967q-10 -16 -26 -16h-55q-17 0 -27 16z" />
<glyph unicode="w" horiz-adv-x="1662" d="M70 983h53l282 -807q3 -8 10.5 -30.5t12.5 -35.5q6 -17 23 -65h28l43 133l258 787q8 18 27 18h49q20 0 27 -18l258 -787l43 -133h28q3 9 23 67q4 13 8.5 25.5t8.5 24.5t5 16l283 805h53l-342 -965q-6 -18 -26 -18h-54q-19 0 -26 18l-256 773q-1 4 -9.5 29t-14.5 44 q-4 13 -23 74h-21l-49 -147l-254 -773q-7 -18 -26 -18h-54q-20 0 -26 18z" />
<glyph unicode="x" horiz-adv-x="1034" d="M74 0l372 512l-346 471h62l327 -446h56l327 446h62l-346 -471l373 -512h-62l-358 492h-47l-359 -492h-61z" />
<glyph unicode="y" horiz-adv-x="1036" d="M61 983h54l346 -831l45 -107h26l46 111l346 827h53l-453 -1079q-61 -142 -128 -219q-71 -81 -189 -115l-12 29q116 45 176 121q64 81 110 202l31 78h-20q-17 0 -27 16z" />
<glyph unicode="z" horiz-adv-x="1021" d="M109 0v45l735 893h-729v45h792v-45l-735 -893h741v-45h-804z" />
<glyph unicode="{" horiz-adv-x="610" d="M115 641v61q47 15 57 18q13 4 35 16q24 13 27 29l9 41q5 28 5 68v441q0 138 59 197q61 61 201 61v-37q-118 0 -165 -53q-46 -52 -46 -168v-420q0 -121 -30 -161q-29 -39 -126 -62q99 -34 132 -73q32 -38 32 -142v-537q0 -114 46 -167q47 -54 165 -54v-37q-141 0 -201 60 q-59 59 -59 198v557q0 43 -6 69t-30 44q-22 16 -39 25q-18 9 -66 26z" />
<glyph unicode="|" horiz-adv-x="479" d="M217 -346v1945h45v-1945h-45z" />
<glyph unicode="}" horiz-adv-x="610" d="M94 -301q118 0 165 54q46 53 46 167v537q0 104 32 142q33 39 132 73q-97 23 -126 62q-30 40 -30 161v420q0 116 -46 168q-47 53 -165 53v37q140 0 201 -61q59 -59 59 -197v-440q0 -97 22 -122q21 -24 112 -51v-61q-51 -18 -67 -26q-17 -9 -39 -25q-24 -18 -30 -44t-6 -69 v-557q0 -139 -59 -198q-60 -60 -201 -60v37z" />
<glyph unicode="~" horiz-adv-x="1091" d="M178 494q-2 92 39 140t115 42q92 -5 215 -70q121 -64 215 -69q64 -5 91 26q28 31 28 103h34q2 -90 -38 -135q-39 -45 -115 -39q-112 6 -234 70q-123 65 -196 69q-62 6 -90 -28q-29 -35 -29 -109h-35z" />
<glyph unicode="&#xa1;" horiz-adv-x="477" d="M205 831v127q0 25 24 25h21q24 0 24 -25v-127q0 -24 -24 -24h-21q-24 0 -24 24zM213 258l4 309h43l4 -309v-678h-51v678z" />
<glyph unicode="&#xa2;" horiz-adv-x="1032" d="M141 717q0 279 101 397t340 119l12 180h43l-12 -180q139 -4 241 -35l-12 -37q-76 20 -233 25l-64 -938h41q162 0 283 24l8 -36q-155 -35 -297 -35h-39l-14 -201h-43l14 205q-199 17 -284 134q-85 118 -85 378zM193 717q0 -241 72 -345q72 -103 249 -120l64 934 q-214 -5 -299 -106q-86 -103 -86 -363z" />
<glyph unicode="&#xa3;" d="M133 723v41h168l-14 315q-6 117 18 192q23 73 80 108q52 32 115 45q60 12 155 12q137 0 320 -21l-6 -37q-164 13 -361 13q-158 0 -218 -71t-54 -235l14 -321h514l-4 -41h-508l10 -225q6 -170 -22 -279q-29 -111 -127 -174h123h690v-45h-879v45q103 67 139 175 q35 106 27 278l-10 225h-170z" />
<glyph unicode="&#xa4;" horiz-adv-x="1232" d="M170 305l154 154q-101 115 -101 262q0 150 101 262l-152 152l29 30l151 -151q110 98 262 98q150 0 263 -100l153 153l29 -30l-154 -152q99 -111 99 -262q0 -148 -101 -260l158 -156l-31 -29l-156 156q-106 -100 -260 -100q-152 0 -262 98l-151 -154zM266 721 q0 -145 103 -248q101 -101 245 -100q144 -1 245 100q102 102 102 248t-102 248t-245 102t-245 -102q-103 -103 -103 -248z" />
<glyph unicode="&#xa5;" horiz-adv-x="1232" d="M106 1413h58l362 -620l84 -142h11q21 36 39.5 67.5t29.5 51t12 21.5l363 622h57l-458 -786h383v-41h-406v-185h406v-41h-406v-360h-51v360h-395v41h395v185h-395v41h372z" />
<glyph unicode="&#xa6;" horiz-adv-x="483" d="M219 -346v819h45v-819h-45zM219 780v819h45v-819h-45z" />
<glyph unicode="&#xa7;" horiz-adv-x="1112" d="M152 1214q0 138 87 182q87 43 275 42q257 -5 442 -25l-6 -37q-249 16 -436 17q-78 0 -103 -1q-35 -1 -83 -11q-45 -9 -69 -27q-22 -17 -40 -54q-16 -33 -16 -86q0 -156 162 -247l393 -224q125 -72 161 -175q35 -101 17 -277h-45q35 299 -133 395l-393 225 q-120 68 -166 137q-47 70 -47 166zM156 -270l6 37q286 -16 436 -17q78 0 101 1q34 1 82 9q47 7 71 28q22 19 40 55q17 34 17 91q0 161 -161 250l-392 222q-123 68 -161 172q-37 101 -19 274h45q-18 -152 11 -243q30 -93 122 -146l396 -223q113 -65 162 -136q49 -70 49 -170 q0 -65 -21 -110t-48 -69q-25 -22 -81 -35q-50 -11 -96 -13q-58 -2 -117 -2q-189 1 -442 25z" />
<glyph unicode="&#xa8;" horiz-adv-x="817" d="M197 1241v115q0 22 20 22h21q20 0 20 -22v-115q0 -22 -20 -22h-21q-20 0 -20 22zM559 1241v115q0 22 21 22h20q21 0 21 -22v-115q0 -22 -21 -22h-20q-21 0 -21 22z" />
<glyph unicode="&#xa9;" horiz-adv-x="1757" d="M147 707q0 314 212 523q211 208 520 208q308 0 519 -208q212 -209 212 -523q0 -315 -212 -524q-211 -208 -519 -208q-309 0 -520 208q-212 209 -212 524zM190 707q0 -295 201 -492q202 -197 488 -197q285 0 487 197q201 197 201 492t-201 491q-202 197 -487 197 q-286 0 -488 -197q-201 -196 -201 -491zM489 713q0 260 90 368q89 107 310 107q161 0 272 -25l-10 -30q-107 12 -262 12q-196 0 -276 -95q-78 -93 -78 -337t78 -338q79 -96 276 -96q182 0 287 16l8 -33q-123 -24 -295 -24q-222 0 -310 106q-90 108 -90 369z" />
<glyph unicode="&#xaa;" horiz-adv-x="909" d="M162 713v84q0 73 45 114q46 41 127 41h348v88q0 148 -158 148t-327 -21l-7 33q223 29 338 29q199 0 199 -189v-487h-35l-8 129q-51 -49 -148 -94q-93 -43 -190 -43q-89 0 -136 43q-48 44 -48 125zM209 715q0 -125 143 -129q81 -2 174 37q96 39 156 94v203l-344 -7 q-129 -5 -129 -116v-82z" />
<glyph unicode="&#xab;" horiz-adv-x="925" d="M104 506v16l334 408l25 -21l-303 -395l305 -399l-25 -21zM428 506v16l334 408l24 -21l-303 -395l305 -399l-24 -21z" />
<glyph unicode="&#xac;" horiz-adv-x="1214" d="M176 584v45h854v-365h-47v320h-807z" />
<glyph unicode="&#xad;" horiz-adv-x="989" d="M176 492v45h637v-45h-637z" />
<glyph unicode="&#xae;" horiz-adv-x="1189" d="M139 981q0 189 133 322t324 133q189 0 322 -133t133 -322q0 -191 -133 -324t-322 -133q-191 0 -324 133t-133 324zM176 981q0 -175 123 -300q123 -124 297 -124q172 0 295 124q123 125 123 300q0 173 -123 298q-123 124 -295 124q-174 0 -297 -124q-123 -125 -123 -298z M389 688v580q74 6 229 6q116 0 163 -35q46 -34 46 -129q0 -74 -30 -109q-30 -34 -101 -45v-4q53 -11 80 -80l76 -184h-41l-74 180q-30 76 -110 76q-76 0 -121 1t-80 1v-258h-37zM426 973h192q96 2 135 31q38 29 38 104q0 79 -38 106t-135 27q-140 0 -192 -2v-266z" />
<glyph unicode="&#xaf;" horiz-adv-x="819" d="M143 1280v47h533v-47h-533z" />
<glyph unicode="&#xb0;" horiz-adv-x="784" d="M139 1186q0 102 75 177t179 75q102 0 177 -75t75 -177q0 -104 -75 -179t-177 -75q-104 0 -179 75t-75 179zM180 1186q0 -87 63 -150t150 -63q86 0 149 63q62 62 62 150t-61 149q-62 62 -150 62q-86 0 -150 -62q-63 -61 -63 -149z" />
<glyph unicode="&#xb1;" horiz-adv-x="1226" d="M186 193v45h854v-45h-854zM186 688v45h404v301h47v-301h403v-45h-405v-301h-43v301h-406z" />
<glyph unicode="&#xb2;" horiz-adv-x="903" d="M150 737v25q0 9 8 22l323 330q97 103 139 175q41 70 39 145q-1 56 -33 84q-30 27 -74 35q-45 8 -118 8q-132 0 -268 -27l-8 33q145 32 272 32q148 0 211 -33q66 -34 66 -139q0 -83 -43 -154t-146 -177l-313 -320h164h381v-39h-600z" />
<glyph unicode="&#xb3;" horiz-adv-x="868" d="M150 743l8 33q130 -14 270 -14q132 0 188 49q58 50 58 164q0 88 -49 140t-181 54h-176v31l176 4q64 1 113 21q45 18 65 50q19 30 25 60q6 29 6 64q-1 93 -54 128q-52 34 -191 34q-125 0 -236 -15l-8 33q117 20 244 20q164 0 225 -41q63 -42 63 -153q0 -188 -153 -215v-4 q171 -24 176 -213q4 -129 -63 -190q-66 -60 -224 -60q-111 0 -282 20z" />
<glyph unicode="&#xb4;" horiz-adv-x="567" d="M123 1153l305 297l37 -35l-313 -289z" />
<glyph unicode="&#xb6;" horiz-adv-x="1222" d="M111 922q0 283 140 399q141 117 472 117q162 0 276 -35v-1403h-51v1372q-154 19 -311 19v-1821h-51v842q-254 23 -365 141q-110 117 -110 369z" />
<glyph unicode="&#xb7;" horiz-adv-x="421" d="M176 463v127q0 24 25 24h20q25 0 25 -24v-127q0 -25 -25 -25h-20q-25 0 -25 25z" />
<glyph unicode="&#xb8;" horiz-adv-x="448" d="M86 -449l8 31q104 -4 168 50q64 55 64 135q0 57 -27 79q-28 24 -94 25l6 29q80 5 121 -29q40 -33 39 -104q-1 -106 -80 -169q-78 -63 -205 -47z" />
<glyph unicode="&#xb9;" horiz-adv-x="585" d="M98 1495l258 90h43v-848h-43v744q0 42 4 61l-254 -76z" />
<glyph unicode="&#xba;" horiz-adv-x="919" d="M154 883q0 191 68 268q69 78 237 78q169 0 238 -78t69 -268q0 -191 -69 -269q-68 -77 -238 -77q-169 0 -237 77t-68 269zM201 883q0 -173 57 -239t201 -66q143 0 200 66q58 67 58 239q0 173 -58 240t-200 67q-143 0 -201 -67q-57 -66 -57 -240z" />
<glyph unicode="&#xbb;" horiz-adv-x="925" d="M137 115l305 399l-303 395l25 21l334 -408v-16l-336 -412zM461 115l305 399l-303 395l24 21l334 -408v-16l-336 -412z" />
<glyph unicode="&#xbc;" horiz-adv-x="1720" d="M111 1323l258 90h43v-848h-43v744q0 42 4 61l-254 -76zM258 0l983 1413h49l-983 -1413h-49zM946 334l303 514h47l-305 -516q-12 -23 1 -41q14 -19 40 -19h447v273l10 143h33v-416h92v-30l-92 -4v-238h-43v236h-467q-44 0 -65 31q-22 33 -1 67z" />
<glyph unicode="&#xbd;" horiz-adv-x="1783" d="M111 1323l258 90h43v-848h-43v744q0 42 4 61l-254 -76zM258 0l983 1413h49l-983 -1413h-49zM1063 0v25q0 9 8 22l324 330q94 100 138 175q42 71 40 144q-1 55 -34 84q-31 28 -74 36q-39 7 -117 7q-138 0 -269 -26l-8 32q150 33 272 33q146 0 211 -34q66 -34 66 -138 q0 -83 -43 -154q-46 -76 -145 -178l-314 -319h164h381v-39h-600z" />
<glyph unicode="&#xbe;" horiz-adv-x="1904" d="M139 567l8 33q130 -14 271 -14q132 0 188 49q58 50 58 164q0 87 -50 140t-180 54h-176v31l176 4q64 1 113 21q44 18 64 50q20 33 26 60q6 29 6 64q-1 93 -54 128q-50 33 -192 33q-131 0 -235 -14l-8 33q117 20 243 20q163 0 226 -42t63 -152q0 -188 -154 -215v-4 q172 -24 177 -213q4 -129 -63 -190q-66 -60 -224 -60q-112 0 -283 20zM471 0l983 1413h49l-983 -1413h-49zM1128 334l304 514h47l-305 -516q-12 -23 1 -41q14 -19 39 -19h426v273l11 143h32v-416h113v-30l-113 -6v-236h-43v236h-446q-44 0 -65 31q-22 33 -1 67z" />
<glyph unicode="&#xbf;" horiz-adv-x="1032" d="M115 -137q0 88 40 159q41 73 97 129q19 19 57.5 56.5t57.5 56.5q56 56 97 140q40 81 40 184h49q0 -112 -40 -199q-41 -90 -96 -146q-66 -68 -114 -112q-55 -50 -97 -121q-40 -67 -40 -147q0 -140 85 -206q87 -67 265 -67q189 0 406 29l10 -37q-21 -2 -60 -9 q-41 -8 -58 -9q-6 -1 -24.5 -3.5t-29.5 -3.5q-66 -8 -67 -8q-31 -2 -76 -3q-31 -1 -101 -1q-401 0 -401 318zM496 852v127q0 25 24 25h21q24 0 24 -25v-127q0 -25 -24 -25h-21q-24 0 -24 25z" />
<glyph unicode="&#xc0;" horiz-adv-x="1234" d="M39 0l508 1395q6 18 26 18h89q20 0 26 -18l508 -1395h-55l-187 516h-673l-187 -516h-55zM297 561h641l-250 692l-41 115h-59l-41 -115zM356 1796l37 35l305 -297l-28 -27z" />
<glyph unicode="&#xc1;" horiz-adv-x="1234" d="M39 0l508 1395q6 18 26 18h89q20 0 26 -18l508 -1395h-55l-187 516h-673l-187 -516h-55zM297 561h641l-250 692l-41 115h-59l-41 -115zM520 1534l305 297l37 -35l-313 -289z" />
<glyph unicode="&#xc2;" horiz-adv-x="1234" d="M39 0l508 1395q6 18 26 18h89q20 0 26 -18l508 -1395h-55l-187 516h-673l-187 -516h-55zM297 561h641l-250 692l-41 115h-59l-41 -115zM319 1563l279 239h37l278 -239l-22 -25l-266 209h-17l-264 -209z" />
<glyph unicode="&#xc3;" horiz-adv-x="1234" d="M39 0l508 1395q6 18 26 18h89q20 0 26 -18l508 -1395h-55l-187 516h-673l-187 -516h-55zM297 561h641l-250 692l-41 115h-59l-41 -115zM322 1591q-2 94 38 141q41 48 115 42q60 -4 143 -69t144 -71q63 -4 91 27t28 102h34q2 -89 -38 -134q-40 -46 -115 -40q-74 6 -157 71 q-82 64 -130 69q-62 6 -90 -28q-29 -35 -29 -110h-34z" />
<glyph unicode="&#xc4;" horiz-adv-x="1234" d="M39 0l508 1395q6 18 26 18h89q20 0 26 -18l508 -1395h-55l-187 516h-673l-187 -516h-55zM297 561h641l-250 692l-41 115h-59l-41 -115zM406 1616v115q0 22 20 22h20q21 0 21 -22v-115q0 -23 -21 -23h-20q-20 0 -20 23zM768 1616v115q0 22 20 22h21q20 0 20 -22v-115 q0 -23 -20 -23h-21q-20 0 -20 23z" />
<glyph unicode="&#xc5;" horiz-adv-x="1234" d="M39 0l508 1395q6 18 26 18h89q20 0 26 -18l508 -1395h-55l-187 516h-673l-187 -516h-55zM297 561h641l-250 692l-41 115h-59l-41 -115zM422 1667q0 80 57 137q58 58 139 58q82 0 140 -58q57 -57 57 -137q0 -81 -57 -138q-56 -56 -140 -56q-83 0 -139 56q-57 57 -57 138z M465 1667q0 -68 44 -112t109 -44q66 0 110 44t44 112q0 65 -44 111q-43 45 -110 45q-66 0 -109 -45q-44 -46 -44 -111z" />
<glyph unicode="&#xc6;" horiz-adv-x="1855" d="M23 0l817 1239q69 104 147 139q79 35 191 35q346 0 557 -8v-37h-551q-78 0 -123 -45t-45 -123v-422h631v-43h-631v-522q0 -74 47 -121t121 -47h551v-37q-202 -8 -561 -8q-91 0 -150 59t-59 150v348h-514l-367 -557h-61zM479 602h486v600q0 48 25 95q25 48 59 63h-13 q-80 -32 -155 -148z" />
<glyph unicode="&#xc7;" horiz-adv-x="1148" d="M156 707q0 405 115 568t407 163q202 0 356 -35l-12 -37q-159 25 -344 25q-262 0 -366 -152q-103 -151 -103 -532q0 -382 103 -533t366 -151q226 0 373 26l12 -37q-160 -37 -385 -37q-292 0 -407 163t-115 569zM494 -473l8 31q104 -4 168 50q63 54 63 134q0 58 -26 80 q-27 22 -95 24l6 29q80 5 121 -29q40 -33 39 -104q-1 -106 -80 -169q-77 -62 -204 -46z" />
<glyph unicode="&#xc8;" horiz-adv-x="1128" d="M199 209v995q0 91 59 150t150 59q388 0 602 -8l-4 -37h-588q-74 0 -121 -47t-47 -121v-422h672v-43h-672v-522q0 -74 47 -121t121 -47h588l4 -37q-214 -8 -602 -8q-91 0 -150 59t-59 150zM373 1847l37 35l305 -297l-29 -26z" />
<glyph unicode="&#xc9;" horiz-adv-x="1128" d="M199 209v995q0 91 59 150t150 59q388 0 602 -8l-4 -37h-588q-74 0 -121 -47t-47 -121v-422h672v-43h-672v-522q0 -74 47 -121t121 -47h588l4 -37q-214 -8 -602 -8q-91 0 -150 59t-59 150zM537 1585l305 297l37 -35l-314 -288z" />
<glyph unicode="&#xca;" horiz-adv-x="1128" d="M199 209v995q0 91 59 150t150 59q388 0 602 -8l-4 -37h-588q-74 0 -121 -47t-47 -121v-422h672v-43h-672v-522q0 -74 47 -121t121 -47h588l4 -37q-214 -8 -602 -8q-91 0 -150 59t-59 150zM336 1614l278 239h37l279 -239l-23 -25l-266 209h-16l-265 -209z" />
<glyph unicode="&#xcb;" horiz-adv-x="1128" d="M199 209v995q0 91 59 150t150 59q388 0 602 -8l-4 -37h-588q-74 0 -121 -47t-47 -121v-422h672v-43h-672v-522q0 -74 47 -121t121 -47h588l4 -37q-214 -8 -602 -8q-91 0 -150 59t-59 150zM422 1667v115q0 22 20 22h21q20 0 20 -22v-115q0 -22 -20 -22h-21q-20 0 -20 22z M784 1667v115q0 22 21 22h20q21 0 21 -22v-115q0 -22 -21 -22h-20q-21 0 -21 22z" />
<glyph unicode="&#xcc;" horiz-adv-x="473" d="M-27 1796l37 35l305 -297l-28 -27zM211 0v1413h51v-1413h-51z" />
<glyph unicode="&#xcd;" horiz-adv-x="473" d="M137 1534l305 297l37 -35l-313 -289zM211 0v1413h51v-1413h-51z" />
<glyph unicode="&#xce;" horiz-adv-x="473" d="M-63 1563l278 239h37l278 -239l-22 -25l-266 209h-17l-264 -209zM211 0v1413h51v-1413h-51z" />
<glyph unicode="&#xcf;" horiz-adv-x="473" d="M23 1616v115q0 22 20 22h20q21 0 21 -22v-115q0 -23 -21 -23h-20q-20 0 -20 23zM211 0v1413h51v-1413h-51zM385 1616v115q0 22 21 22h20q20 0 20 -22v-115q0 -23 -20 -23h-20q-21 0 -21 23z" />
<glyph unicode="&#xd0;" horiz-adv-x="1355" d="M53 739v41h164v633q257 19 469 19q285 0 399 -163q115 -165 115 -562q0 -398 -115 -563q-113 -162 -399 -162q-222 0 -469 18v739h-164zM268 35q369 -6 418 -6q256 0 358 150q103 151 103 528q0 376 -103 527q-102 150 -358 150q-151 0 -418 -8v-596h375v-41h-375v-704z " />
<glyph unicode="&#xd1;" horiz-adv-x="1409" d="M211 0v1382q0 31 31 31h80q26 0 36 -22l641 -1180l91 -166h57v184v1184h51v-1382q0 -31 -31 -31h-86q-25 0 -37 23l-655 1206q-4 7 -16.5 29.5t-21.5 38.5q-28 52 -38 71h-51v-141v-1227h-51zM436 1591q-2 93 39 141t115 42q51 -5 97 -37l92 -66q46 -32 98 -37 q63 -4 91 27q27 30 27 102h35q1 -88 -39 -134t-114 -40t-157 71q-82 64 -130 69q-62 6 -90 -28q-29 -35 -29 -110h-35z" />
<glyph unicode="&#xd2;" horiz-adv-x="1355" d="M156 707q0 405 115 568t407 163q291 0 406 -163q116 -164 116 -568q0 -405 -116 -569q-115 -163 -406 -163q-292 0 -407 163t-115 569zM209 707q0 -382 103 -533t366 -151q262 0 365 151q104 152 104 533q0 380 -104 532t-365 152q-262 0 -366 -152q-103 -151 -103 -532z M418 1796l37 35l305 -297l-29 -27z" />
<glyph unicode="&#xd3;" horiz-adv-x="1355" d="M156 707q0 405 115 568t407 163q291 0 406 -163q116 -164 116 -568q0 -405 -116 -569q-115 -163 -406 -163q-292 0 -407 163t-115 569zM209 707q0 -382 103 -533t366 -151q262 0 365 151q104 152 104 533q0 380 -104 532t-365 152q-262 0 -366 -152q-103 -151 -103 -532z M582 1534l305 297l37 -35l-314 -289z" />
<glyph unicode="&#xd4;" horiz-adv-x="1355" d="M156 707q0 405 115 568t407 163q291 0 406 -163q116 -164 116 -568q0 -405 -116 -569q-115 -163 -406 -163q-292 0 -407 163t-115 569zM209 707q0 -382 103 -533t366 -151q262 0 365 151q104 152 104 533q0 380 -104 532t-365 152q-262 0 -366 -152q-103 -151 -103 -532z M381 1563l278 239h37l279 -239l-23 -25l-266 209h-16l-264 -209z" />
<glyph unicode="&#xd5;" horiz-adv-x="1355" d="M156 707q0 405 115 568t407 163q291 0 406 -163q116 -164 116 -568q0 -405 -116 -569q-115 -163 -406 -163q-292 0 -407 163t-115 569zM209 707q0 -382 103 -533t366 -151q262 0 365 151q104 152 104 533q0 380 -104 532t-365 152q-262 0 -366 -152q-103 -151 -103 -532z M383 1591q-2 93 39 141t115 42q60 -4 143 -69t143 -71q63 -4 91 27t28 102h35q1 -88 -39 -134t-115 -40q-73 6 -156 71q-82 64 -130 69q-63 6 -91 -28t-28 -110h-35z" />
<glyph unicode="&#xd6;" horiz-adv-x="1355" d="M156 707q0 405 115 568t407 163q291 0 406 -163q116 -164 116 -568q0 -405 -116 -569q-115 -163 -406 -163q-292 0 -407 163t-115 569zM209 707q0 -382 103 -533t366 -151q262 0 365 151q104 152 104 533q0 380 -104 532t-365 152q-262 0 -366 -152q-103 -151 -103 -532z M467 1616v115q0 22 20 22h21q20 0 20 -22v-115q0 -23 -20 -23h-21q-20 0 -20 23zM829 1616v115q0 22 21 22h20q21 0 21 -22v-115q0 -23 -21 -23h-20q-21 0 -21 23z" />
<glyph unicode="&#xd7;" horiz-adv-x="999" d="M133 285l29 -35l717 645l-29 33z" />
<glyph unicode="&#xd8;" horiz-adv-x="1355" d="M156 707q0 405 115 568t407 163q167 0 274 -52l62 132l43 -21l-64 -135q111 -72 159 -229t48 -426q0 -405 -116 -569q-115 -163 -406 -163q-194 0 -303 68l-70 -147l-43 20l72 156q-178 147 -178 635zM209 707q0 -446 149 -586l572 1218q-98 52 -252 52q-262 0 -366 -152 q-103 -151 -103 -532zM397 90q100 -67 281 -67q262 0 365 151q104 152 104 533q0 243 -41 392q-40 147 -135 216z" />
<glyph unicode="&#xd9;" horiz-adv-x="1366" d="M201 522v891h51v-891q0 -275 97 -387t335 -112q236 0 333 112t97 387v891h51v-891q0 -298 -109 -422q-110 -125 -372 -125q-264 0 -374 125q-109 124 -109 422zM424 1796l37 35l305 -297l-29 -27z" />
<glyph unicode="&#xda;" horiz-adv-x="1366" d="M201 522v891h51v-891q0 -275 97 -387t335 -112q236 0 333 112t97 387v891h51v-891q0 -298 -109 -422q-110 -125 -372 -125q-264 0 -374 125q-109 124 -109 422zM588 1534l305 297l37 -35l-314 -289z" />
<glyph unicode="&#xdb;" horiz-adv-x="1366" d="M201 522v891h51v-891q0 -275 97 -387t335 -112q236 0 333 112t97 387v891h51v-891q0 -298 -109 -422q-110 -125 -372 -125q-264 0 -374 125q-109 124 -109 422zM387 1563l279 239h36l279 -239l-23 -25l-266 209h-16l-264 -209z" />
<glyph unicode="&#xdc;" horiz-adv-x="1366" d="M201 522v891h51v-891q0 -275 97 -387t335 -112q236 0 333 112t97 387v891h51v-891q0 -298 -109 -422q-110 -125 -372 -125q-264 0 -374 125q-109 124 -109 422zM473 1616v115q0 22 21 22h20q21 0 21 -22v-115q0 -23 -21 -23h-20q-21 0 -21 23zM836 1616v115q0 22 20 22 h21q20 0 20 -22v-115q0 -23 -20 -23h-21q-20 0 -20 23z" />
<glyph unicode="&#xdd;" horiz-adv-x="1107" d="M45 1413h57l369 -682q37 -70 78 -139h10q2 4 14 24.5t22 38.5q36 66 40 74l369 684h57l-481 -887v-526h-52v526zM457 1534l305 297l37 -35l-314 -289z" />
<glyph unicode="&#xde;" horiz-adv-x="1193" d="M211 0v1413h51v-289q156 13 402 13q228 0 317 -88q90 -89 90 -328q0 -242 -89 -329q-88 -87 -318 -87q-253 0 -402 8v-313h-51zM262 352h402q201 5 277 79q77 75 77 290t-78 292q-79 77 -276 77q-247 0 -402 -5v-733z" />
<glyph unicode="&#xdf;" horiz-adv-x="1333" d="M74 938v35l178 10v104q0 125 30 203q30 79 94 113t128 45q60 10 170 10q209 0 317 -50q107 -50 107 -177q0 -123 -47 -176q-46 -52 -162 -92q-39 -13 -70 -23q-18 -6 -62 -19q-9 -3 -47 -19q-34 -15 -41 -24q-3 -4 -11.5 -15t-12.5 -16q-13 -17 -18 -43q-4 -21 -4 -56 q0 -76 33 -110q33 -35 102 -56l272 -82q99 -30 150 -85q49 -53 49 -165q0 -90 -23 -148t-70 -83q-48 -25 -100 -33q-61 -9 -133 -9q-179 0 -338 23l4 37q160 -16 334 -14q151 5 213 45q62 41 62 182q0 98 -39 139q-41 42 -115 64l-270 82q-92 28 -136 73q-45 47 -45 140 q0 29 6 67q4 28 24 52q20 25 31 37q12 13 50 31q23 11 54 23q27 11 72 25q19 6 44.5 14.5t32.5 10.5q98 34 131 77q35 46 35 146q0 101 -96 142q-93 40 -283 40q-216 0 -294 -65q-79 -66 -79 -261v-1087h-49v938h-178z" />
<glyph unicode="&#xe0;" horiz-adv-x="1101" d="M135 236v126q0 112 62 172q61 60 174 60h495v139q0 228 -225 228q-203 0 -461 -33l-6 37q301 43 469 43q272 0 272 -275v-733h-36l-11 190q-72 -73 -209 -138q-135 -64 -268 -64q-124 0 -189 64q-67 65 -67 184zM186 236q0 -195 205 -199q115 -2 250 58q135 59 225 145 v313l-495 -8q-185 -5 -185 -183v-126zM285 1423l37 35l305 -297l-29 -26z" />
<glyph unicode="&#xe1;" horiz-adv-x="1101" d="M135 236v126q0 112 62 172q61 60 174 60h495v139q0 228 -225 228q-203 0 -461 -33l-6 37q301 43 469 43q272 0 272 -275v-733h-36l-11 190q-72 -73 -209 -138q-135 -64 -268 -64q-124 0 -189 64q-67 65 -67 184zM186 236q0 -195 205 -199q115 -2 250 58q135 59 225 145 v313l-495 -8q-185 -5 -185 -183v-126zM449 1161l305 297l37 -35l-314 -288z" />
<glyph unicode="&#xe2;" horiz-adv-x="1101" d="M135 236v126q0 112 62 172q61 60 174 60h495v139q0 228 -225 228q-203 0 -461 -33l-6 37q301 43 469 43q272 0 272 -275v-733h-36l-11 190q-72 -73 -209 -138q-135 -64 -268 -64q-124 0 -189 64q-67 65 -67 184zM186 236q0 -195 205 -199q115 -2 250 58q135 59 225 145 v313l-495 -8q-185 -5 -185 -183v-126zM248 1190l278 240h37l279 -240l-23 -25l-266 209h-16l-265 -209z" />
<glyph unicode="&#xe3;" horiz-adv-x="1101" d="M135 236v126q0 112 62 172q61 60 174 60h495v139q0 228 -225 228q-203 0 -461 -33l-6 37q301 43 469 43q272 0 272 -275v-733h-36l-11 190q-72 -73 -209 -138q-135 -64 -268 -64q-124 0 -189 64q-67 65 -67 184zM186 236q0 -195 205 -199q115 -2 250 58q135 59 225 145 v313l-495 -8q-185 -5 -185 -183v-126zM250 1219q-2 92 39 140t114 42q61 -5 144 -70q82 -64 143 -69q64 -5 91 26q28 31 28 103h35q2 -89 -39 -135q-39 -45 -115 -39q-74 6 -156 70t-131 69q-62 6 -90 -28t-28 -109h-35z" />
<glyph unicode="&#xe4;" horiz-adv-x="1101" d="M135 236v126q0 112 62 172q61 60 174 60h495v139q0 228 -225 228q-203 0 -461 -33l-6 37q301 43 469 43q272 0 272 -275v-733h-36l-11 190q-72 -73 -209 -138q-135 -64 -268 -64q-124 0 -189 64q-67 65 -67 184zM186 236q0 -195 205 -199q115 -2 250 58q135 59 225 145 v313l-495 -8q-185 -5 -185 -183v-126zM334 1243v115q0 22 20 22h21q20 0 20 -22v-115q0 -22 -20 -22h-21q-20 0 -20 22zM696 1243v115q0 22 21 22h20q21 0 21 -22v-115q0 -22 -21 -22h-20q-21 0 -21 22z" />
<glyph unicode="&#xe5;" horiz-adv-x="1101" d="M135 236v126q0 112 62 172q61 60 174 60h495v139q0 228 -225 228q-203 0 -461 -33l-6 37q301 43 469 43q272 0 272 -275v-733h-36l-11 190q-72 -73 -209 -138q-135 -64 -268 -64q-124 0 -189 64q-67 65 -67 184zM186 236q0 -195 205 -199q115 -2 250 58q135 59 225 145 v313l-495 -8q-185 -5 -185 -183v-126zM350 1294q0 80 58 138q57 57 139 57t139 -57t57 -138t-57 -138q-56 -56 -139 -56t-139 56q-58 58 -58 138zM393 1294q0 -67 44 -111t110 -44q65 0 109 44t44 111q0 65 -44 111q-43 45 -109 45q-67 0 -110 -45q-44 -46 -44 -111z" />
<glyph unicode="&#xe6;" horiz-adv-x="1802" d="M135 236v126q0 112 62 172q61 60 174 60h495v139q0 228 -225 228q-203 0 -461 -33l-6 37q301 43 469 43q238 0 268 -207q79 207 377 207q381 0 387 -279q1 -145 -64 -205q-65 -59 -229 -59h-464q6 -243 98 -343q92 -99 295 -99q177 0 334 26l8 -37q-117 -37 -348 -37 q-161 0 -259 56t-141 176q-83 -83 -226 -150q-147 -69 -288 -69q-124 0 -189 64q-67 65 -67 184zM186 236q0 -195 205 -199q118 -2 260 59q141 60 242 152q-22 85 -27 211v94l-495 -8q-185 -5 -185 -183v-126zM918 510h464q136 0 190 48t52 167q-6 236 -334 236 q-202 0 -286 -102q-85 -103 -86 -349z" />
<glyph unicode="&#xe7;" horiz-adv-x="978" d="M141 492q0 282 102 399t347 117q162 0 276 -35l-12 -37q-100 25 -256 25q-225 0 -315 -101q-90 -100 -90 -368t90 -369q90 -100 315 -100q162 0 283 24l8 -37q-155 -35 -297 -35q-246 0 -348 117q-103 118 -103 400zM401 -473l9 31q104 -4 168 50q63 54 63 134 q0 58 -27 80q-27 23 -94 24l6 29q80 5 121 -29q40 -33 39 -104q-1 -106 -80 -169q-77 -63 -205 -46z" />
<glyph unicode="&#xe8;" horiz-adv-x="1079" d="M141 496q0 279 97 396q96 116 325 116q381 0 387 -279q5 -135 -45 -200q-49 -64 -166 -64h-546q6 -243 98 -343q91 -99 295 -99q177 0 334 26l8 -37q-117 -37 -348 -37q-234 0 -336 120q-103 121 -103 401zM193 510h546q88 0 126 53q39 54 34 162q-1 120 -85 178t-249 58 q-202 0 -286 -102q-85 -103 -86 -349zM305 1423l37 35l305 -297l-29 -26z" />
<glyph unicode="&#xe9;" horiz-adv-x="1079" d="M141 496q0 279 97 396q96 116 325 116q381 0 387 -279q5 -135 -45 -200q-49 -64 -166 -64h-546q6 -243 98 -343q91 -99 295 -99q177 0 334 26l8 -37q-117 -37 -348 -37q-234 0 -336 120q-103 121 -103 401zM193 510h546q88 0 126 53q39 54 34 162q-1 120 -85 178t-249 58 q-202 0 -286 -102q-85 -103 -86 -349zM469 1161l305 297l37 -35l-313 -288z" />
<glyph unicode="&#xea;" horiz-adv-x="1079" d="M141 496q0 279 97 396q96 116 325 116q381 0 387 -279q5 -135 -45 -200q-49 -64 -166 -64h-546q6 -243 98 -343q91 -99 295 -99q177 0 334 26l8 -37q-117 -37 -348 -37q-234 0 -336 120q-103 121 -103 401zM193 510h546q88 0 126 53q39 54 34 162q-1 120 -85 178t-249 58 q-202 0 -286 -102q-85 -103 -86 -349zM268 1190l279 240h37l278 -240l-22 -25l-267 209h-16l-264 -209z" />
<glyph unicode="&#xeb;" horiz-adv-x="1079" d="M141 496q0 279 97 396q96 116 325 116q381 0 387 -279q5 -135 -45 -200q-49 -64 -166 -64h-546q6 -243 98 -343q91 -99 295 -99q177 0 334 26l8 -37q-117 -37 -348 -37q-234 0 -336 120q-103 121 -103 401zM193 510h546q88 0 126 53q39 54 34 162q-1 120 -85 178t-249 58 q-202 0 -286 -102q-85 -103 -86 -349zM354 1243v115q0 22 21 22h20q21 0 21 -22v-115q0 -22 -21 -22h-20q-21 0 -21 22zM717 1243v115q0 22 20 22h21q20 0 20 -22v-115q0 -22 -20 -22h-21q-20 0 -20 22z" />
<glyph unicode="&#xec;" horiz-adv-x="450" d="M-39 1423l37 35l305 -297l-29 -26zM201 0v983h49v-983h-49z" />
<glyph unicode="&#xed;" horiz-adv-x="450" d="M125 1161l305 297l37 -35l-313 -288zM201 0v983h49v-983h-49z" />
<glyph unicode="&#xee;" horiz-adv-x="450" d="M-76 1190l279 240h37l278 -240l-22 -25l-267 209h-16l-264 -209zM201 0v983h49v-983h-49z" />
<glyph unicode="&#xef;" horiz-adv-x="450" d="M10 1243v115q0 22 21 22h20q21 0 21 -22v-115q0 -22 -21 -22h-20q-21 0 -21 22zM201 0v983h49v-983h-49zM373 1243v115q0 22 20 22h21q20 0 20 -22v-115q0 -22 -20 -22h-21q-20 0 -20 22z" />
<glyph unicode="&#xf0;" horiz-adv-x="1122" d="M143 453q0 460 408 460q171 0 342 -110q-46 304 -223 452l-191 -131l-22 35l178 123q-153 111 -397 111l12 37q254 5 424 -119l174 119l22 -35l-161 -113q247 -211 247 -711q0 -107 -6 -180q-6 -76 -28 -159q-22 -84 -65 -136q-42 -51 -119 -86q-78 -35 -185 -35 q-211 0 -310 114q-100 115 -100 364zM195 451q0 -229 87 -330t271 -101q113 0 185 39q74 40 109 121q36 83 48 173q12 92 12 233q0 63 -8 172q-174 110 -358 110q-189 0 -268 -110q-78 -109 -78 -307z" />
<glyph unicode="&#xf1;" horiz-adv-x="1167" d="M195 0v983h36l7 -180q257 205 479 205q264 0 264 -269v-739h-49v733q0 228 -225 228q-101 0 -208 -48q-103 -47 -255 -153v-760h-49zM303 1219q-2 92 39 140t115 42q60 -4 143 -70q82 -64 143 -69q64 -5 92 26q27 30 27 103h35q1 -89 -39 -135q-39 -45 -115 -39 q-74 6 -156 70t-130 69q-62 6 -90 -28q-29 -35 -29 -109h-35z" />
<glyph unicode="&#xf2;" d="M143 492q0 283 97 400q96 116 333 116q238 0 334 -116q97 -117 97 -400q0 -284 -97 -401q-96 -116 -334 -116q-237 0 -333 116q-97 117 -97 401zM195 492q0 -265 84 -367t294 -102q211 0 295 102t84 367q0 264 -84 366q-85 103 -295 103q-209 0 -294 -103 q-84 -102 -84 -366zM309 1423l37 35l305 -297l-28 -26z" />
<glyph unicode="&#xf3;" d="M143 492q0 283 97 400q96 116 333 116q238 0 334 -116q97 -117 97 -400q0 -284 -97 -401q-96 -116 -334 -116q-237 0 -333 116q-97 117 -97 401zM195 492q0 -265 84 -367t294 -102q211 0 295 102t84 367q0 264 -84 366q-85 103 -295 103q-209 0 -294 -103 q-84 -102 -84 -366zM473 1161l305 297l37 -35l-313 -288z" />
<glyph unicode="&#xf4;" d="M143 492q0 283 97 400q96 116 333 116q238 0 334 -116q97 -117 97 -400q0 -284 -97 -401q-96 -116 -334 -116q-237 0 -333 116q-97 117 -97 401zM195 492q0 -265 84 -367t294 -102q211 0 295 102t84 367q0 264 -84 366q-85 103 -295 103q-209 0 -294 -103 q-84 -102 -84 -366zM272 1190l279 240h37l278 -240l-22 -25l-266 209h-17l-264 -209z" />
<glyph unicode="&#xf5;" d="M143 492q0 283 97 400q96 116 333 116q238 0 334 -116q97 -117 97 -400q0 -284 -97 -401q-96 -116 -334 -116q-237 0 -333 116q-97 117 -97 401zM195 492q0 -265 84 -367t294 -102q211 0 295 102t84 367q0 264 -84 366q-85 103 -295 103q-209 0 -294 -103 q-84 -102 -84 -366zM274 1219q-2 92 39 140t115 42q61 -4 143 -70q80 -64 144 -69t91 26q28 31 28 103h34q2 -89 -39 -135q-39 -45 -114 -39t-157 70t-130 69q-62 6 -90 -28q-29 -35 -29 -109h-35z" />
<glyph unicode="&#xf6;" d="M143 492q0 283 97 400q96 116 333 116q238 0 334 -116q97 -117 97 -400q0 -284 -97 -401q-96 -116 -334 -116q-237 0 -333 116q-97 117 -97 401zM195 492q0 -265 84 -367t294 -102q211 0 295 102t84 367q0 264 -84 366q-85 103 -295 103q-209 0 -294 -103 q-84 -102 -84 -366zM358 1243v115q0 22 21 22h20q21 0 21 -22v-115q0 -22 -21 -22h-20q-21 0 -21 22zM721 1243v115q0 22 20 22h21q20 0 20 -22v-115q0 -22 -20 -22h-21q-20 0 -20 22z" />
<glyph unicode="&#xf7;" horiz-adv-x="1206" d="M176 584v45h854v-45h-854zM565 209v127q0 24 25 24h20q25 0 25 -24v-127q0 -25 -25 -25h-20q-25 0 -25 25zM565 877v127q0 24 25 24h20q25 0 25 -24v-127q0 -25 -25 -25h-20q-25 0 -25 25z" />
<glyph unicode="&#xf8;" d="M143 492q0 283 97 400q96 116 333 116q119 0 197 -27l57 123l39 -19l-55 -118q102 -49 147 -162q46 -115 46 -313q0 -284 -97 -401q-96 -116 -334 -116q-123 0 -211 31l-61 -131l-39 19l62 131q-98 50 -139 161q-42 112 -42 306zM195 492q0 -175 34 -276 q34 -100 115 -146l406 868q-69 23 -177 23q-209 0 -294 -103q-84 -102 -84 -366zM383 51q71 -28 190 -28q211 0 295 102t84 367q0 180 -39 282q-39 103 -125 148z" />
<glyph unicode="&#xf9;" d="M186 244v739h50v-733q0 -227 225 -227q98 0 198 47q98 46 244 153v760h49v-983h-37l-6 180q-245 -205 -458 -205q-265 0 -265 269zM311 1423l37 35l305 -297l-28 -26z" />
<glyph unicode="&#xfa;" d="M186 244v739h50v-733q0 -227 225 -227q98 0 198 47q98 46 244 153v760h49v-983h-37l-6 180q-245 -205 -458 -205q-265 0 -265 269zM475 1161l305 297l37 -35l-313 -288z" />
<glyph unicode="&#xfb;" d="M186 244v739h50v-733q0 -227 225 -227q98 0 198 47q98 46 244 153v760h49v-983h-37l-6 180q-245 -205 -458 -205q-265 0 -265 269zM274 1190l279 240h37l278 -240l-22 -25l-266 209h-17l-264 -209z" />
<glyph unicode="&#xfc;" d="M186 244v739h50v-733q0 -227 225 -227q98 0 198 47q98 46 244 153v760h49v-983h-37l-6 180q-245 -205 -458 -205q-265 0 -265 269zM360 1243v115q0 22 21 22h20q21 0 21 -22v-115q0 -22 -21 -22h-20q-21 0 -21 22zM723 1243v115q0 22 20 22h21q20 0 20 -22v-115 q0 -22 -20 -22h-21q-20 0 -20 22z" />
<glyph unicode="&#xfd;" horiz-adv-x="1036" d="M61 983h54l346 -831l45 -107h26l46 111l346 827h53l-453 -1079q-61 -142 -128 -219q-71 -81 -189 -115l-12 29q116 45 176 121q64 81 110 202l31 78h-20q-17 0 -27 16zM426 1161l305 297l37 -35l-313 -288z" />
<glyph unicode="&#xfe;" horiz-adv-x="1150" d="M195 -430v1864h49v-418q0 -138 -6 -191q219 183 409 183q193 0 275 -118t82 -398q0 -281 -82 -399t-275 -118q-179 0 -409 109q6 -51 6 -188v-326h-49zM244 121q244 -98 403 -98q167 0 236 106q69 107 69 363t-69 362q-69 107 -236 107q-93 0 -186 -41q-89 -40 -217 -138 v-661z" />
<glyph unicode="&#xff;" horiz-adv-x="1036" d="M61 983h54l346 -831l45 -107h26l46 111l346 827h53l-453 -1079q-61 -142 -128 -219q-71 -81 -189 -115l-12 29q116 45 176 121q64 81 110 202l31 78h-20q-17 0 -27 16zM311 1243v115q0 22 21 22h20q21 0 21 -22v-115q0 -22 -21 -22h-20q-21 0 -21 22zM674 1243v115 q0 22 20 22h21q20 0 20 -22v-115q0 -22 -20 -22h-21q-20 0 -20 22z" />
<glyph unicode="&#x152;" horiz-adv-x="1820" d="M156 707q0 405 115 568t407 163q104 0 172 -15q73 -16 158 -53q55 43 133 43q359 0 561 -8v-37h-551q-74 0 -121 -47t-47 -121v-422h631v-43h-631v-522q0 -74 47 -121t121 -47h551v-37q-202 -8 -561 -8q-74 0 -133 43q-153 -68 -330 -68q-292 0 -407 163t-115 569z M209 707q0 -382 103 -533t366 -151q158 0 295 57q-41 53 -41 129v995q0 76 41 129q-139 58 -295 58q-262 0 -366 -150q-103 -149 -103 -534z" />
<glyph unicode="&#x153;" horiz-adv-x="1888" d="M143 492q0 283 97 400q96 116 333 116q176 0 273 -62q95 -61 133 -203q38 142 131 203q95 62 264 62q381 0 387 -279q1 -145 -64 -205q-65 -59 -229 -59h-464q6 -243 98 -343q92 -99 295 -99q177 0 334 26l8 -37q-117 -37 -348 -37q-174 0 -274 65q-99 64 -138 206 q-34 -145 -131 -208q-96 -63 -275 -63q-237 0 -333 116q-97 117 -97 401zM195 492q0 -265 84 -367t294 -102q211 0 295 102t84 367q0 264 -84 366q-85 103 -295 103q-209 0 -294 -103q-84 -102 -84 -366zM1004 510h464q136 0 190 48t52 167q-6 236 -334 236 q-202 0 -286 -102q-85 -103 -86 -349z" />
<glyph unicode="&#x178;" horiz-adv-x="1107" d="M45 1413h57l369 -682q37 -70 78 -139h10q2 4 14 24.5t22 38.5q36 66 40 74l369 684h57l-481 -887v-526h-52v526zM342 1616v115q0 22 20 22h21q20 0 20 -22v-115q0 -23 -20 -23h-21q-20 0 -20 23zM705 1616v115q0 22 20 22h20q21 0 21 -22v-115q0 -23 -21 -23h-20 q-20 0 -20 23z" />
<glyph unicode="&#x2c6;" horiz-adv-x="802" d="M104 1202l279 240h37l278 -240l-22 -24l-266 208h-17l-264 -208z" />
<glyph unicode="&#x2dc;" horiz-adv-x="819" d="M113 1225q-2 92 39 140q40 48 114 42q58 -6 144 -70q84 -63 143 -69q64 -5 91 26q28 31 28 103h35q1 -88 -39 -134t-115 -40t-157 70t-130 69q-62 6 -90 -28q-29 -35 -29 -109h-34z" />
<glyph unicode="&#x2000;" horiz-adv-x="941" />
<glyph unicode="&#x2001;" horiz-adv-x="1882" />
<glyph unicode="&#x2002;" horiz-adv-x="941" />
<glyph unicode="&#x2003;" horiz-adv-x="1882" />
<glyph unicode="&#x2004;" horiz-adv-x="627" />
<glyph unicode="&#x2005;" horiz-adv-x="470" />
<glyph unicode="&#x2006;" horiz-adv-x="313" />
<glyph unicode="&#x2007;" horiz-adv-x="313" />
<glyph unicode="&#x2008;" horiz-adv-x="235" />
<glyph unicode="&#x2009;" horiz-adv-x="376" />
<glyph unicode="&#x200a;" horiz-adv-x="104" />
<glyph unicode="&#x2010;" horiz-adv-x="989" d="M176 492v45h637v-45h-637z" />
<glyph unicode="&#x2011;" horiz-adv-x="989" d="M176 492v45h637v-45h-637z" />
<glyph unicode="&#x2012;" horiz-adv-x="989" d="M176 492v45h637v-45h-637z" />
<glyph unicode="&#x2013;" horiz-adv-x="1275" d="M176 492v45h924v-45h-924z" />
<glyph unicode="&#x2014;" horiz-adv-x="1910" d="M176 492v45h1559v-45h-1559z" />
<glyph unicode="&#x2018;" horiz-adv-x="403" d="M170 1106v131q4 150 35 260l22 -10q-6 -83 -6 -230q16 0 10 -20v-131q2 -25 -20 -25h-18q-23 0 -23 25z" />
<glyph unicode="&#x2019;" horiz-adv-x="399" d="M172 1321v131q-5 25 21 25h18q22 0 22 -25v-131q-5 -154 -34 -260l-23 10q6 83 6 229q-16 0 -10 21z" />
<glyph unicode="&#x201a;" horiz-adv-x="425" d="M182 20v132q-2 24 23 24h18q25 0 25 -24v-132q-5 -145 -37 -260l-25 11q9 130 9 229q-19 0 -13 20z" />
<glyph unicode="&#x201c;" horiz-adv-x="636" d="M170 1106v131q4 150 35 260l22 -10q-6 -83 -6 -230q16 0 10 -20v-131q2 -25 -20 -25h-18q-23 0 -23 25zM403 1106v131q4 150 35 260l23 -10q-6 -83 -6 -230q16 0 10 -20v-131q2 -25 -21 -25h-18q-23 0 -23 25z" />
<glyph unicode="&#x201d;" horiz-adv-x="632" d="M172 1321v131q-5 25 21 25h18q22 0 22 -25v-131q-5 -154 -34 -260l-23 10q6 83 6 229q-16 0 -10 21zM406 1321v131q-5 25 20 25h18q23 0 23 -25v-131q-4 -150 -35 -260l-22 10q6 82 6 229q-16 0 -10 21z" />
<glyph unicode="&#x201e;" horiz-adv-x="657" d="M182 20v132q-2 24 21 24h18q23 0 23 -24v-132q-4 -150 -35 -260l-23 11q7 96 7 229q-17 0 -11 20zM416 20v132q-2 24 20 24h19q22 0 22 -24v-132q-4 -150 -35 -260l-22 11q6 83 6 229q-16 0 -10 20z" />
<glyph unicode="&#x2022;" horiz-adv-x="718" d="M217 539v20q0 74 29 103q28 28 104 28h21q74 0 102 -28q29 -29 29 -103v-20q0 -76 -29 -105q-28 -28 -102 -28h-21q-76 0 -104 28q-29 29 -29 105z" />
<glyph unicode="&#x2026;" horiz-adv-x="1576" d="M176 25v127q0 24 25 24h20q25 0 25 -24v-127q0 -25 -25 -25h-20q-25 0 -25 25zM754 25v127q0 24 24 24h21q24 0 24 -24v-127q0 -25 -24 -25h-21q-24 0 -24 25zM1331 25v127q0 24 25 24h20q25 0 25 -24v-127q0 -25 -25 -25h-20q-25 0 -25 25z" />
<glyph unicode="&#x202f;" horiz-adv-x="376" />
<glyph unicode="&#x2039;" horiz-adv-x="460" d="M43 506v16l334 408l24 -21l-303 -395l305 -399l-24 -21z" />
<glyph unicode="&#x203a;" horiz-adv-x="462" d="M57 115l305 399l-303 395l25 21l336 -408v-16l-338 -412z" />
<glyph unicode="&#x205f;" horiz-adv-x="470" />
<glyph unicode="&#x20ac;" horiz-adv-x="1327" d="M139 565v43h197q-2 40 -2 99q0 63 4 143h-199v43h203q27 276 148 410q122 135 366 135q185 0 328 -35l-13 -37q-152 25 -315 25q-218 0 -327 -123q-110 -124 -134 -375h592l-16 -43h-580q-4 -80 -4 -143q0 -59 2 -99h490l-17 -43h-471q21 -275 130 -408 q110 -134 335 -134q202 0 332 26l12 -37q-142 -37 -344 -37q-254 0 -376 147q-121 146 -142 443h-199z" />
<glyph unicode="&#x2122;" horiz-adv-x="1939" d="M160 1386v39h633v-39h-295v-739h-45v739h-293zM915 647l35 754q4 24 25 24h63q17 0 21 -16l223 -547q18 -42 22 -54q3 -8 19 -52h31l43 108l219 545q6 16 22 16h64q24 0 24 -24l35 -754h-45l-35 739h-28l-264 -651q-4 -16 -23 -16h-55q-19 0 -23 16l-264 651h-29 l-34 -739h-46z" />
<glyph unicode="&#x25fc;" horiz-adv-x="983" d="M0 0v983h983v-983h-983z" />
<glyph unicode="&#xfb01;" horiz-adv-x="1124" d="M72 936v37l178 10v207q0 141 59 206q60 66 197 66q119 0 201 -8v-37h-185q-124 0 -173 -51q-50 -52 -50 -176v-207h623v-983h-50v936h-573v-936h-49v936h-178zM862 1239v127q0 25 25 25h20q25 0 25 -25v-127q0 -25 -25 -25h-20q-25 0 -25 25z" />
<glyph unicode="&#xfb02;" horiz-adv-x="1261" d="M74 936v37l178 10v207q0 141 59 206q60 66 197 66q304 0 444 -12v-1253q0 -80 43 -122q44 -42 121 -42h119l6 -33q-41 -12 -131 -12q-94 0 -151 54q-56 53 -56 153v1222h-379q-124 2 -173 -49q-50 -52 -50 -178v-207h346v-47h-346v-936h-49v936h-178z" />
</font>
</defs>
</svg>
