<?xml version="1.0" standalone="no"?>
<!DOCTYPE svg PUBLIC "-//W3C//DTD SVG 1.1//EN" "http://www.w3.org/Graphics/SVG/1.1/DTD/svg11.dtd" >
<svg xmlns="http://www.w3.org/2000/svg" xmlns:xlink="http://www.w3.org/1999/xlink" version="1.1">
<metadata></metadata>
<defs>
<font id="exo_2thin_italic" horiz-adv-x="1140" >
<font-face units-per-em="2048" ascent="1638" descent="-410" />
<missing-glyph horiz-adv-x="471" />
<glyph horiz-adv-x="0" />
<glyph unicode="&#xd;" horiz-adv-x="681" />
<glyph unicode=" "  horiz-adv-x="471" />
<glyph unicode="&#x09;" horiz-adv-x="471" />
<glyph unicode="&#xa0;" horiz-adv-x="471" />
<glyph unicode="!" horiz-adv-x="516" d="M143 27l19 125q2 24 26 24h23q21 0 20 -26l-18 -127q-2 -23 -27 -23h-20q-28 0 -23 27zM211 416l39 309l98 698h51l-98 -698l-47 -309h-43z" />
<glyph unicode="&#x22;" horiz-adv-x="657" d="M231 987l56 426h49l-64 -426h-41zM492 987l55 426h49l-64 -426h-40z" />
<glyph unicode="#" horiz-adv-x="1355" d="M100 467l15 45h239l142 451h-240l14 45h240l127 405h47l-127 -405h467l127 405h47l-127 -405h225l-14 -45h-225l-142 -451h226l-15 -45h-225l-147 -467h-47l147 467h-467l-147 -467h-47l147 467h-240zM401 512h467l142 451h-467z" />
<glyph unicode="$" horiz-adv-x="1150" d="M86 0l8 39q168 -14 350 -14l129 669l-137 58q-147 63 -195 143t-32 223q12 89 43 151q28 57 69 94q36 33 101 50q63 16 119 21q45 4 143 2h33l41 211h43l-41 -213q176 -6 305 -23l-8 -39q-192 16 -305 17l-127 -662l120 -51q158 -69 209 -147q50 -77 29 -228 q-12 -85 -43 -148q-31 -61 -70 -96q-38 -34 -105 -52q-63 -17 -128 -22q-82 -6 -160 -6l-49 -253h-43l49 253q-185 4 -348 23zM262 1110q-12 -118 23 -185q36 -68 153 -120l146 -62l125 646h-62q-57 0 -111 -4q-46 -3 -95 -17q-55 -15 -85 -42q-29 -26 -57 -82 q-26 -52 -37 -134zM487 25h17q213 5 304 56q94 53 122 228q18 130 -20 194q-37 63 -167 120l-129 53z" />
<glyph unicode="%" horiz-adv-x="1798" d="M180 1024q30 216 111 316q80 98 250 98q169 0 226 -101q56 -99 26 -321q-30 -215 -114 -316q-82 -98 -247 -98q-169 0 -226 100q-56 99 -26 322zM225 1016q-28 -198 17 -287q45 -88 186 -88q149 0 221 90t99 293q27 204 -17 290q-43 85 -186 85q-153 0 -222 -88 q-70 -89 -98 -295zM295 0l1182 1413h49l-1182 -1413h-49zM1038 408q30 216 111 316q79 97 250 97q169 0 226 -100q56 -99 26 -322q-29 -214 -114 -315q-82 -98 -247 -98q-169 0 -226 100q-56 99 -26 322zM1083 399q-28 -197 17 -286q45 -88 186 -88q149 0 221 90t99 293 t-17 289q-43 85 -186 85q-153 0 -222 -88q-70 -89 -98 -295z" />
<glyph unicode="&#x26;" horiz-adv-x="1619" d="M115 360q33 189 133 277q99 88 282 92v8q-155 10 -207 94q-53 85 -26 240q38 212 146 285q110 74 352 74q173 0 317 -48l-8 -36q-141 36 -313 36q-219 0 -313 -61q-96 -62 -130 -252q-33 -184 48 -250q80 -65 309 -65h473q21 128 16 313h49q0 -192 -16 -313h305l-12 -43 h-299q-39 -231 -142 -402q-107 -181 -248 -253q-143 -73 -337 -79q-237 -8 -326 76q-90 84 -53 307zM158 243q0 -47 9 -82t30 -60q20 -24 45 -40q23 -14 59 -22q38 -8 69 -11q34 -3 79 -3q214 0 352 71t237 238q95 156 133 377h-469q-132 -1 -215 -14t-150 -48 q-72 -38 -110 -108q-38 -69 -59 -189q-10 -59 -10 -109z" />
<glyph unicode="'" horiz-adv-x="397" d="M231 987l56 426h49l-64 -426h-41z" />
<glyph unicode="(" horiz-adv-x="720" d="M145 651q52 378 205 615q151 234 416 352l8 -37q-243 -117 -384 -346q-140 -228 -191 -598q-51 -362 23 -588t284 -350l-10 -37q-459 229 -351 989z" />
<glyph unicode=")" horiz-adv-x="720" d="M-41 -301q244 123 384 353q141 231 192 593q102 711 -308 936l9 37q230 -112 319 -354q88 -241 33 -637q-52 -376 -204 -613q-149 -233 -419 -352z" />
<glyph unicode="*" horiz-adv-x="919" d="M217 1165l19 45l243 -88l-4 -18l-10 -17zM279 842l229 258l41 313h45l-51 -315l157 -267l-41 -22l-137 256l-209 -254zM578 1104l2 18l264 86l10 -45l-270 -76z" />
<glyph unicode="+" horiz-adv-x="1128" d="M133 586l8 45h404l53 383h47l-55 -383h405l-8 -45h-403l-56 -383h-43l54 383h-406z" />
<glyph unicode="," horiz-adv-x="419" d="M57 -227q31 104 52 229q-17 0 -13 21l21 131q1 22 26 22h25q17 0 16 -22l-20 -136q-15 -111 -76 -256z" />
<glyph unicode="-" horiz-adv-x="985" d="M160 492l6 45h637l-6 -45h-637z" />
<glyph unicode="." horiz-adv-x="419" d="M96 27l19 125q4 24 26 24h23q24 0 20 -26l-18 -127q-2 -23 -27 -23h-20q-27 0 -23 27z" />
<glyph unicode="/" horiz-adv-x="1017" d="M-20 -121l1015 1534h56l-1016 -1534h-55z" />
<glyph unicode="0" horiz-adv-x="1191" d="M172 711q52 381 176 554q123 173 363 173q243 0 319 -175t21 -561q-52 -381 -175 -555q-121 -172 -362 -172q-242 0 -319 176q-76 174 -23 560zM223 702q-49 -356 15 -519q63 -160 274 -160q215 0 326 163q109 161 161 525q51 359 -12 519q-63 161 -274 161 q-217 0 -327 -162q-111 -164 -163 -527z" />
<glyph unicode="1" horiz-adv-x="763" d="M162 1264l407 149h52l-199 -1413h-51l178 1268q5 40 20 94l-401 -131z" />
<glyph unicode="2" horiz-adv-x="1122" d="M37 0l4 31q5 15 14 26l572 568q171 171 251 297t95 254q8 72 -10 116t-66 66q-43 20 -98 26q-59 7 -137 7q-190 0 -408 -45l-12 36q238 56 407 56q215 0 308 -58q91 -57 67 -229q-18 -139 -100 -259q-85 -125 -258 -298l-553 -549h239h580l-6 -45h-889z" />
<glyph unicode="3" horiz-adv-x="1114" d="M43 10l14 37q167 -36 373 -24q402 27 457 374q51 330 -303 332h-267l7 37l262 6q320 6 360 342q21 162 -48 219q-70 58 -277 58q-156 0 -353 -25l-12 37q205 35 365 35q235 0 319 -72t57 -258q-43 -307 -270 -352l-4 -8q134 -21 184 -120q50 -100 29 -239 q-24 -169 -147 -286q-122 -116 -349 -128q-199 -10 -397 35z" />
<glyph unicode="4" horiz-adv-x="1208" d="M96 454q-24 52 15 109l571 850h59l-583 -868q-25 -39 -12 -68q14 -31 53 -31h661l66 461l47 240h37l-99 -701h168l-6 -36l-168 -7l-57 -403h-51l57 401h-670q-64 0 -88 53z" />
<glyph unicode="5" horiz-adv-x="1075" d="M57 33l13 37q168 -56 327 -50q125 5 215 43q95 40 143 102q51 65 74 124q25 63 35 131q33 238 -94 299q-126 61 -502 61h-26q-15 0 -23 10t-4 21l113 602h684l-8 -45h-637l-101 -543h111q121 0 211 -8q76 -7 158 -33q76 -24 113 -70q38 -47 53 -120q16 -77 1 -182 q-11 -76 -34 -136q-24 -63 -77 -134q-52 -69 -155 -115q-104 -46 -244 -52q-170 -6 -346 58z" />
<glyph unicode="6" horiz-adv-x="1150" d="M146 294q-3 155 32 398q34 236 86 389q51 149 131 228q79 77 170 103q92 26 232 26q135 0 241 -25l-16 -37q-104 17 -223 17q-129 0 -211 -24q-83 -24 -156 -97q-75 -75 -121 -214q-48 -144 -80 -368l-4 -31q95 128 197 182q103 55 246 62q214 12 288 -96 q75 -109 37 -369q-61 -463 -463 -463q-199 0 -291 80t-95 239zM200 278q8 -131 85 -194q79 -64 245 -64q354 0 414 431q33 221 -28 321q-59 98 -248 86q-129 -8 -229 -59q-97 -50 -220 -193q-27 -195 -19 -328z" />
<glyph unicode="7" horiz-adv-x="1021" d="M199 1368v45h770q51 0 62 -20q12 -21 -11 -66l-643 -1327h-58l627 1292q17 38 43 76h-790z" />
<glyph unicode="8" horiz-adv-x="1253" d="M141 356q24 182 89 271q63 87 192 102l6 8q-204 23 -160 328q29 197 129 281q101 84 342 84q123 0 208 -22q80 -21 121 -68q39 -45 50 -116q11 -72 -4 -167q-23 -154 -80 -231t-166 -89l-6 -8q126 -15 166 -105q41 -92 14 -276q-28 -204 -130 -283q-102 -80 -367 -81 q-264 -1 -349 81t-55 291zM190 348q-24 -179 48 -248t305 -69q241 0 333 71q93 72 117 254q10 79 12 136q1 53 -13 96q-14 40 -36 63q-22 22 -68 37q-44 14 -100 19q-47 4 -139 4q-128 0 -206 -13q-73 -12 -129 -52q-58 -41 -81 -108q-26 -74 -43 -190zM319 1057 q-27 -193 36 -247t292 -54q234 0 311 56q78 57 105 253q27 182 -37 250q-63 67 -285 67q-224 0 -310 -70q-88 -71 -112 -255z" />
<glyph unicode="9" horiz-adv-x="1155" d="M117 0l16 37q127 -17 236 -17q147 0 233 24q87 25 158 101q70 76 113 212q41 132 81 366l4 31q-98 -127 -199 -181q-103 -55 -243 -63q-213 -11 -290 99q-76 109 -36 366q38 232 145 347q108 116 335 116q184 0 272 -79t96 -239q8 -166 -30 -399q-51 -318 -128 -480 q-76 -160 -186 -213q-109 -53 -305 -53q-145 0 -272 25zM242 963q-35 -234 31 -325q65 -91 245 -83q130 6 231 61q99 54 218 191q45 312 -15 448q-61 138 -282 138q-203 0 -298 -106q-96 -106 -130 -324z" />
<glyph unicode=":" horiz-adv-x="419" d="M160 27l18 125q2 24 27 24h22q25 0 21 -26l-19 -127q-2 -23 -26 -23h-21q-26 0 -22 27zM260 731l19 125q5 25 26 25h23q24 0 20 -27l-18 -127q-1 -22 -27 -22h-20q-27 0 -23 26z" />
<glyph unicode=";" horiz-adv-x="423" d="M57 -227q31 104 52 229q-17 0 -13 21l21 131q1 22 26 22h25q17 0 16 -22l-20 -136q-15 -111 -76 -256zM197 731l18 125q2 25 27 25h22q26 0 21 -27l-19 -127q-1 -22 -26 -22h-21q-26 0 -22 26z" />
<glyph unicode="&#x3c;" horiz-adv-x="1101" d="M127 582l6 45l858 374l-6 -49l-805 -348l707 -338l-6 -47z" />
<glyph unicode="=" horiz-adv-x="1212" d="M143 354l7 45h854l-7 -45h-854zM203 788l6 46h854l-6 -46h-854z" />
<glyph unicode="&#x3e;" horiz-adv-x="1095" d="M109 219l6 49l803 340l-705 348l6 45l752 -374l-6 -45z" />
<glyph unicode="?" horiz-adv-x="1017" d="M201 1421q11 1 61 10q40 7 59 9q6 1 24.5 3.5t29.5 3.5q53 6 66 7q31 2 76 3q31 1 101 1q200 0 292 -80q91 -79 69 -241q-12 -85 -63 -159q-50 -73 -114 -128q-23 -20 -66.5 -57.5t-63.5 -55.5q-65 -56 -117 -140q-51 -83 -66 -183l-49 4q15 104 68 194q51 87 118 147 q43 39 129 113q65 56 114 124q51 71 61 149q18 139 -57 204q-74 64 -252 64q-189 0 -412 -29zM375 27l18 125q5 24 29 24h18q24 0 23 -27l-19 -124q-2 -25 -26 -25h-21q-27 0 -22 27z" />
<glyph unicode="@" horiz-adv-x="1513" d="M123 236q0 58 6 108q7 60 16 111q46 270 147 360q98 88 363 88q147 0 336 -24l-102 -711q-11 -78 12 -113t86 -35q55 0 94 17q38 17 66 49t49 109q18 65 38 169q17 86 40 254q13 90 23 188q7 75 6 141q-1 60 -10 107q-8 41 -33 71q-25 29 -55 46q-25 14 -86 25 q-59 11 -112 12q-72 2 -149 2h-598l4 37q349 8 592 8q134 0 213 -6q77 -6 143 -34q65 -28 91 -64t38 -117q13 -84 7 -173q-6 -93 -27 -249q-20 -131 -33 -214q-11 -71 -33 -159q-21 -87 -41 -125q-21 -41 -53 -77q-32 -37 -75 -49q-46 -13 -101 -13q-172 0 -145 197l10 68 q-235 -265 -488 -265q-66 0 -114 20t-73 57q-25 38 -39 81q-13 42 -13 103zM173 232q-3 -94 44 -153t150 -59q245 0 491 285l78 539q-172 14 -270 14q-250 0 -338 -79t-133 -333q-19 -127 -22 -214z" />
<glyph unicode="A" horiz-adv-x="1226" d="M-45 0l704 1397q7 16 27 16h88q23 0 27 -20l311 -1393h-53l-113 516h-674l-260 -516h-57zM295 561h641l-154 694q-20 95 -24 111h-60q-8 -14 -28 -57q-18 -40 -29 -58z" />
<glyph unicode="B" horiz-adv-x="1249" d="M127 0l199 1413q151 17 397 17q259 0 347 -79q66 -59 66 -193q0 -46 -8 -101q-23 -152 -90 -230q-68 -78 -194 -90v-8q147 -15 199 -108q35 -63 35 -162q0 -51 -9 -111q-30 -212 -133 -289q-100 -75 -348 -75q-302 0 -461 16zM182 35q128 -4 404 -4q219 0 312 66t120 259 q8 56 8 103q0 123 -56 175q-77 73 -302 77h-389zM285 754h385q203 2 292 65t113 246q7 50 7 91q0 116 -56 163q-76 63 -303 63h-350z" />
<glyph unicode="C" d="M170 711q57 401 195 565q137 162 426 162q205 0 354 -35l-15 -37q-156 25 -337 25q-270 0 -394 -151q-122 -149 -178 -538q-20 -150 -20 -264q0 -176 48 -266q80 -149 343 -149q226 0 379 26l10 -37q-167 -37 -387 -37q-292 0 -386 165q-59 104 -59 301q0 118 21 270z " />
<glyph unicode="D" horiz-adv-x="1347" d="M127 0l199 1413q261 19 469 19q284 0 376 -164q58 -103 58 -299q0 -117 -21 -267q-56 -404 -190 -562t-420 -158q-224 0 -471 18zM182 35q375 -6 414 -6q259 0 383 149q126 151 178 533q20 145 20 257q0 175 -49 267q-79 149 -333 149q-160 0 -422 -8z" />
<glyph unicode="E" horiz-adv-x="1122" d="M143 211l140 995q12 94 73 150q62 57 160 57q390 0 604 -8l-8 -37h-586q-83 0 -133 -46q-51 -46 -61 -124l-58 -420h672l-6 -43h-672l-73 -524q-2 -16 -2 -31q0 -53 30 -89q39 -46 113 -46h590l2 -37q-216 -8 -602 -8q-92 0 -145 60q-41 48 -41 113q0 18 3 38z" />
<glyph unicode="F" horiz-adv-x="1085" d="M121 0l170 1206q15 98 77 152q62 55 156 55q380 0 590 -8l-8 -37h-571q-78 0 -131 -44q-52 -43 -64 -126l-59 -428h657l-6 -43h-658l-102 -727h-51z" />
<glyph unicode="G" horiz-adv-x="1269" d="M168 711q56 404 196 565q141 162 431 162q229 0 399 -35l-14 -37q-177 25 -383 25q-275 0 -400 -151q-126 -151 -178 -538q-19 -147 -19 -259q0 -173 44 -266q72 -154 295 -154q127 0 233 65q114 70 240 184l75 547h52l-119 -819h-35l23 219q-232 -244 -471 -244 q-249 0 -335 171q-53 106 -53 300q0 117 19 265z" />
<glyph unicode="H" horiz-adv-x="1345" d="M127 0l199 1413h51l-88 -633h821l88 633h51l-198 -1413h-52l103 735h-821l-103 -735h-51z" />
<glyph unicode="I" horiz-adv-x="473" d="M127 0l199 1413h51l-199 -1413h-51z" />
<glyph unicode="J" horiz-adv-x="659" d="M-6 0l10 33h117q205 0 235 207l164 1173h51l-165 -1180q-34 -245 -277 -245h-4q-57 0 -131 12z" />
<glyph unicode="K" horiz-adv-x="1144" d="M127 0l199 1413h49l-68 -485q-12 -86 -28 -168h229l592 653h63l-547 -608q-27 -30 -67 -66v-4q21 -24 39 -57l411 -678h-57l-438 715h-232q-7 -99 -20 -178l-76 -537h-49z" />
<glyph unicode="L" horiz-adv-x="1026" d="M152 211l167 1202h52l-168 -1202q-2 -16 -2 -31q0 -53 30 -89q39 -46 113 -46h559l-2 -37q-203 -8 -567 -8q-92 0 -145 60q-40 47 -40 112q0 19 3 39z" />
<glyph unicode="M" horiz-adv-x="1751" d="M96 0l256 1384q6 29 33 29h84q23 0 27 -20l245 -1035q3 -12 11 -46t12 -50q4 -17 22 -96h56l100 201l535 1030q7 16 26 16h86q33 0 29 -33l-133 -1380h-51l131 1368h-49l-635 -1229q-7 -16 -27 -16h-86q-23 0 -27 20l-290 1225h-50l-254 -1368h-51z" />
<glyph unicode="N" horiz-adv-x="1409" d="M127 0l195 1384q6 29 32 29h78q26 0 37 -24l477 -1180q12 -29 33 -84q20 -52 33 -82h57l25 174l168 1196h51l-195 -1384q-2 -29 -33 -29h-84q-23 0 -34 25l-488 1206q-3 7 -12.5 30t-16.5 39q-23 53 -28 68h-51q-4 -24 -12 -80q-2 -15 -5.5 -42.5t-5.5 -37.5l-170 -1208 h-51z" />
<glyph unicode="O" horiz-adv-x="1351" d="M170 711q57 401 195 565q137 162 426 162q291 0 386 -165q58 -102 58 -293q0 -121 -23 -278q-55 -403 -192 -565q-136 -162 -426 -162q-292 0 -386 165q-59 104 -59 301q0 118 21 270zM221 702q-20 -146 -19 -257q0 -180 50 -272q83 -150 340 -150q267 0 391 151 q126 153 178 537q21 153 21 269q0 172 -47 261q-79 150 -344 150q-267 0 -392 -152q-126 -153 -178 -537z" />
<glyph unicode="P" horiz-adv-x="1187" d="M127 0l199 1413q172 17 450 17q227 0 308 -90q56 -62 55 -200q0 -58 -9 -128q-34 -240 -135 -327t-327 -87q-260 0 -404 8l-86 -606h-51zM268 645h400q201 4 290 81t119 292q9 68 9 121q0 116 -44 168q-65 75 -264 75q-285 0 -405 -4z" />
<glyph unicode="Q" horiz-adv-x="1351" d="M170 711q57 401 195 565q137 162 426 162q291 0 386 -165q58 -102 58 -293q0 -121 -23 -278q-55 -403 -192 -565q-136 -162 -426 -162q-292 0 -386 165q-59 104 -59 301q0 118 21 270zM221 702q-20 -146 -20 -257q0 -180 51 -272q83 -150 340 -150q267 0 391 151 q126 153 178 537q21 153 21 269q0 172 -47 261q-79 150 -344 150q-267 0 -392 -152q-126 -153 -178 -537zM483 -133l25 29q168 -130 434 -175l-16 -51q-274 37 -443 197z" />
<glyph unicode="R" horiz-adv-x="1241" d="M127 0l199 1413q172 17 450 17q229 0 308 -85q57 -62 57 -200q0 -53 -8 -117q-27 -185 -100 -269q-73 -83 -216 -104v-8q98 -33 131 -196l92 -451h-55l-90 449q-17 96 -69 141q-49 43 -134 45q-20 0 -81 1.5t-98 2.5q-100 2 -155 3q-37 1 -90 1l-90 -643h-51zM274 682 h400q200 4 289 78q87 73 116 276q9 62 9 112q0 113 -46 163q-65 71 -264 71q-285 0 -405 -4z" />
<glyph unicode="S" horiz-adv-x="1132" d="M76 0l8 39q175 -14 363 -14h47q213 5 304 56q94 53 122 228q6 42 6 77q0 74 -26 117q-37 63 -167 120l-307 129q-148 63 -196 143q-35 58 -35 152q0 33 4 71q12 89 43 151q29 58 68 94q35 33 102 50q63 17 118 21q30 3 84 3q27 0 60 -1q189 -1 381 -25l-8 -39 q-250 17 -410 17q-58 0 -112 -4q-45 -3 -94 -17q-55 -15 -85 -42q-29 -26 -57 -82q-26 -52 -37 -134q-3 -31 -3 -59q0 -78 25 -126q35 -67 154 -120l307 -129q158 -69 209 -147q35 -54 35 -145q0 -38 -6 -83q-12 -87 -44 -148q-33 -62 -71 -96t-105 -52q-63 -17 -128 -22 q-82 -6 -160 -6q-196 0 -389 23z" />
<glyph unicode="T" horiz-adv-x="1142" d="M158 1368l6 45h1044l-6 -45h-497l-193 -1368h-51l192 1368h-495z" />
<glyph unicode="U" horiz-adv-x="1366" d="M190 524l125 889h52l-125 -893q-13 -89 -13 -161q0 -150 55 -225q81 -111 316 -111q238 0 351 113q114 114 153 388l125 889h51l-125 -893q-40 -295 -166 -421q-124 -124 -387 -124q-266 0 -359 126q-65 89 -65 260q0 74 12 163z" />
<glyph unicode="V" horiz-adv-x="1202" d="M160 1413h53l250 -1218q24 -119 29 -152h55q16 35 74 158l589 1212h56l-680 -1397q-6 -16 -27 -16h-86q-20 0 -24 20z" />
<glyph unicode="W" horiz-adv-x="1896" d="M176 1413h51l156 -1229q1 -8 3.5 -32t3.5 -37q5 -50 9 -72h60q12 38 25 73q19 51 28 70l475 1207q7 20 29 20h80q24 0 28 -24l138 -1205q3 -13 8 -69q4 -44 6 -72h59l56 143l499 1227h54l-570 -1395q-11 -18 -31 -18h-86q-21 0 -26 25l-133 1187q-4 36 -9 75t-7.5 56.5 t-2.5 22.5h-51q-25 -61 -63 -158l-465 -1188q-7 -20 -31 -20h-88q-22 0 -27 23z" />
<glyph unicode="X" horiz-adv-x="1208" d="M-8 0l553 739l-328 674h55l316 -651h76l499 651h60l-516 -676l344 -737h-56l-333 717h-72l-537 -717h-61z" />
<glyph unicode="Y" horiz-adv-x="1095" d="M150 1413h53l274 -684l58 -141h12l96 143l465 682h57l-604 -887l-76 -526h-51l76 526z" />
<glyph unicode="Z" horiz-adv-x="1132" d="M16 0l9 47l1042 1319h-852l6 47h916l-7 -47l-1044 -1319h870l-8 -47h-932z" />
<glyph unicode="[" horiz-adv-x="630" d="M92 -272l250 1783q11 62 70 62h258l-6 -45h-244q-26 0 -31 -27l-248 -1771q-5 -23 19 -23h248l-7 -45h-254q-29 0 -44 20t-11 46z" />
<glyph unicode="\" horiz-adv-x="987" d="M180 1413h49l592 -1534h-49z" />
<glyph unicode="]" horiz-adv-x="630" d="M-35 -338l6 45h244q27 0 31 27l250 1771q5 23 -21 23h-248l6 45h254q25 0 44 -19t14 -47l-252 -1783q-1 -26 -22 -45q-18 -17 -48 -17h-258z" />
<glyph unicode="^" horiz-adv-x="802" d="M100 774l379 404h37l266 -406l-28 -22l-252 372h-17l-358 -372z" />
<glyph unicode="_" horiz-adv-x="1228" d="M96 -45l6 45h883l-6 -45h-883z" />
<glyph unicode="`" horiz-adv-x="567" d="M231 1415l39 37l265 -301l-29 -25z" />
<glyph unicode="a" horiz-adv-x="1155" d="M143 102q-25 64 -25 162.5t25 231.5q49 308 148 410t362 102q137 0 367 -25l-139 -983h-37l30 250q-122 -134 -259 -204q-139 -71 -242 -71q-181 0 -230 127zM185 133q37 -110 188 -110q102 0 242 76t262 210l88 639q-223 15 -306 15q-99 0 -171 -13q-65 -12 -117 -41 t-83 -87q-34 -63 -55 -135q-21 -73 -40 -200q-25 -134 -25 -227q0 -77 17 -127z" />
<glyph unicode="b" horiz-adv-x="1148" d="M106 39l197 1395h49l-61 -412q-20 -134 -47 -277q299 263 489 263q174 0 233 -116q34 -67 34 -194q0 -90 -17 -211q-43 -313 -138 -412q-95 -100 -329 -100q-172 0 -407 64h-3zM160 74q178 -51 348 -51q223 0 304 94q81 95 120 379q17 122 17 209q0 101 -23 155 q-44 101 -201 101q-92 0 -202 -61q-99 -55 -275 -198z" />
<glyph unicode="c" horiz-adv-x="972" d="M125 496q39 283 156 397q118 115 360 115q166 0 274 -35l-14 -37q-94 25 -250 25q-227 0 -332 -102q-104 -101 -143 -370q-12 -89 -12 -159q0 -141 49 -208q73 -99 299 -99q164 0 289 24l6 -37q-158 -35 -299 -35q-248 0 -335 118q-60 81 -60 243q0 72 12 160z" />
<glyph unicode="d" horiz-adv-x="1150" d="M139 110q-22 67 -22.5 163.5t22.5 222.5q45 308 147 410t367 102q131 0 320 -21q5 88 20 189l37 258h49l-63 -451l-139 -983h-37l28 248q-254 -273 -518 -273q-165 0 -211 135zM182 139q34 -116 172 -116q120 0 256 73q137 74 262 211l89 641q-223 15 -304 15 q-249 0 -338 -91q-87 -89 -131 -385q-22 -125 -22 -216q0 -78 16 -132z" />
<glyph unicode="e" horiz-adv-x="1077" d="M127 500q24 158 63 258t105 154t143 75q78 21 197 21q196 0 284 -65q59 -44 58 -139q0 -44 -12 -99q-28 -118 -100 -167q-71 -49 -226 -65l-473 -51q-7 -62 -7 -114q0 -142 54 -204q74 -84 287 -84q155 0 360 29l6 -37q-135 -37 -387 -37q-242 0 -318 118q-49 77 -49 223 q0 81 15 184zM172 465l469 53q138 17 193 54q53 36 81 137q11 60 14 96v11q0 33 -16 57q-18 27 -40 46q-18 16 -60 27q-37 10 -76 13q-50 4 -88 4q-114 0 -189 -16q-70 -15 -131 -65q-60 -49 -95 -143q-34 -89 -58 -245z" />
<glyph unicode="f" horiz-adv-x="718" d="M-262 -422l2 37h162q113 0 167 51t70 178l154 1094h-178l6 35l180 10l29 209q18 138 86 205q66 65 205 65q143 0 241 -8l-2 -37h-223q-123 0 -182 -52t-76 -177l-29 -205h365l-8 -45h-363l-156 -1098q-18 -143 -80 -206q-63 -64 -190 -64q-108 0 -180 8z" />
<glyph unicode="g" horiz-adv-x="1165" d="M45 -446l6 36q94 -5 175 -5q108 0 192 9q180 18 282 114q101 95 131 284q29 188 52 268q-124 -137 -265 -211q-142 -74 -245 -74q-181 0 -230 127q-25 64 -25 162.5t25 231.5q49 308 148 410t362 102q137 0 367 -25h16l-155 -995q-63 -401 -447 -439q-83 -8 -168 -8 q-108 0 -221 13zM185 133q37 -110 188 -110q105 0 244 77q141 78 264 213l98 635q-315 15 -320 15q-99 0 -171 -13q-65 -12 -117 -41t-83 -87q-34 -63 -55 -135q-21 -73 -40 -200q-25 -134 -25 -227q0 -77 17 -127z" />
<glyph unicode="h" horiz-adv-x="1161" d="M106 0l203 1434h49l-61 -443q-16 -117 -43 -248q313 265 512 265q236 0 236 -208q0 -29 -5 -63l-104 -737h-49l104 735q5 32 5 60q0 74 -34 112q-48 54 -161 54q-100 0 -219 -64q-115 -62 -285 -203l-98 -694h-50z" />
<glyph unicode="i" horiz-adv-x="446" d="M115 0l139 983h49l-139 -983h-49zM279 1241l18 127q2 23 27 23h20q28 0 23 -27l-19 -127q-2 -23 -24 -23h-21q-29 0 -24 27z" />
<glyph unicode="j" horiz-adv-x="448" d="M-55 -410q134 151 157 318l152 1075h49l-151 -1079q-24 -179 -183 -334zM279 1241l18 127q2 23 27 23h20q28 0 23 -27l-19 -127q-2 -23 -24 -23h-21q-29 0 -24 27z" />
<glyph unicode="k" horiz-adv-x="997" d="M106 0l203 1434h49l-110 -799q-17 -107 -35 -184q512 147 680 532h51q-117 -283 -389 -438l26 -51q12 -24 25 -54l221 -440h-55l-260 520q-118 -62 -299 -114l-57 -406h-50z" />
<glyph unicode="l" horiz-adv-x="542" d="M137 197l174 1237h49l-174 -1239q-3 -21 -3 -39q0 -123 143 -123h120l3 -33q-39 -12 -132 -12q-96 0 -145 55q-38 43 -38 111q0 20 3 43z" />
<glyph unicode="m" horiz-adv-x="1794" d="M106 0l140 983h37l-31 -240q150 136 253 198q111 67 210 67q235 0 236 -212q0 -20 -3 -42q277 254 451 254q236 0 236 -208q0 -29 -5 -63l-104 -737h-49l104 735q5 32 5 59q0 75 -35 113q-48 54 -160 54q-91 0 -192 -61q-95 -58 -257 -198l-100 -702h-49l104 735 q5 32 5 59q0 75 -35 113q-48 54 -160 54q-90 0 -194 -61q-99 -58 -259 -200l-98 -700h-50z" />
<glyph unicode="n" horiz-adv-x="1161" d="M106 0l140 983h37l-31 -240q315 265 514 265q236 0 236 -208q0 -29 -5 -63l-104 -737h-49l104 735q5 32 5 60q0 74 -34 112q-48 54 -161 54q-100 0 -220 -64q-112 -60 -284 -199l-98 -698h-50z" />
<glyph unicode="o" d="M125 496q41 284 151 397q112 115 347 115q239 0 321 -117q55 -77 55 -231q0 -77 -14 -173q-41 -284 -151 -397q-112 -115 -347 -115q-239 0 -321 117q-55 77 -55 231q0 77 14 173zM176 487q-13 -91 -13 -163q0 -134 45 -200q68 -101 279 -101q213 0 311 104t136 369 q13 91 13 163q0 134 -45 200q-69 102 -279 102q-212 0 -311 -105q-98 -104 -136 -369z" />
<glyph unicode="p" horiz-adv-x="1153" d="M43 -451l63 451l140 983h37l-29 -248q123 135 259 203q140 70 241 70q180 0 226 -120q24 -62 24 -167q0 -98 -21 -234q-46 -307 -146 -410q-99 -102 -364 -102q-134 0 -323 21q-4 -76 -21 -189l-37 -258h-49zM162 35q224 -15 305 -15q247 0 336 91q87 89 131 385 q22 130 22 222q0 81 -17 132q-36 111 -185 111q-103 0 -243 -76t-261 -209z" />
<glyph unicode="q" horiz-adv-x="1153" d="M137 496q40 308 138 410q97 102 331 102q170 0 408 -64l-197 -1395h-49l63 435q15 114 46 274q-145 -155 -259 -220q-111 -63 -237 -63q-168 0 -225 114q-35 69 -35 201q0 89 16 206zM188 487q-15 -117 -15 -202q0 -103 22 -160q39 -102 192 -102q119 0 220 61 q97 58 267 221l87 604q-182 52 -349 52q-223 0 -306 -94q-84 -94 -118 -380z" />
<glyph unicode="r" horiz-adv-x="784" d="M106 0l140 983h37l-31 -244q298 269 502 269h41l-17 -47h-33q-99 0 -213 -64q-107 -60 -280 -205l-96 -692h-50z" />
<glyph unicode="s" horiz-adv-x="1019" d="M68 0l8 37q165 -17 330 -17h18q199 5 276 40q79 36 95 153q3 24 3 44q0 57 -25 84q-36 39 -122 71l-325 123q-14 6 -43 16q-22 8 -39 17q-21 11 -34 21q-10 7 -29 25q-17 15 -20 32q-3 13 -14 39q-10 22 -5 48q5 27 5 60q22 141 110 180q80 35 248 35h36q211 -5 381 -25 l-9 -37q-202 16 -370 17h-42q-153 0 -215 -26q-68 -30 -89 -153q-5 -29 -5 -53q0 -48 20 -76q29 -40 116 -73l327 -123q113 -41 159 -93q35 -39 34 -108q0 -25 -4 -53q-7 -62 -34 -106q-26 -42 -57 -66q-32 -25 -89 -38q-60 -14 -110 -17q-52 -3 -138 -3q-179 0 -348 25z " />
<glyph unicode="t" horiz-adv-x="698" d="M109 938l6 35l180 10l43 309h49l-43 -309h365l-9 -45h-362l-105 -743q-3 -21 -3 -39q0 -123 143 -123h182l2 -33q-84 -12 -174 -12q-202 0 -202 164q0 21 3 45l105 741h-180z" />
<glyph unicode="u" horiz-adv-x="1138" d="M133 246l105 737h49l-105 -735q-4 -29 -4 -54q0 -171 195 -171q104 0 218 69q111 67 269 219l94 672h50l-140 -983h-37l31 258q-283 -283 -493 -283q-132 0 -193 70q-44 51 -44 137q0 30 5 64z" />
<glyph unicode="v" horiz-adv-x="1030" d="M121 983h51l197 -940h39q29 0 45 10q14 9 43 41q84 101 206 305q170 286 242 584h51q-83 -327 -252 -606q-143 -234 -229 -332q-40 -45 -102 -45h-60q-20 0 -24 18z" />
<glyph unicode="w" horiz-adv-x="1665" d="M119 983h51l176 -940h25q39 0 73 45q92 120 181 315q84 185 192 566q5 19 23 14h51q19 0 24 -18l142 -922h24q43 0 78 51q132 190 191 307q132 255 206 582h52q-82 -349 -219 -606q-122 -229 -209 -330q-41 -47 -101 -47h-39q-20 0 -24 18l-142 924h-20 q-80 -318 -184 -551q-42 -95 -105 -203q-60 -102 -100 -147q-38 -41 -94 -41h-41q-20 0 -25 18z" />
<glyph unicode="x" horiz-adv-x="1026" d="M-14 0l446 514l-278 469h55l264 -446h59l392 446h61l-414 -471l301 -512h-55l-289 492h-55l-422 -492h-65z" />
<glyph unicode="y" horiz-adv-x="1046" d="M80 -399q104 34 198 131q92 95 205 268h-73q-37 0 -61 20q-27 22 -34 56l-200 907h53l190 -887q14 -51 58 -51h8h88l55 84q239 379 379 854h51q-122 -461 -381 -864q-173 -267 -283 -392q-109 -124 -245 -157z" />
<glyph unicode="z" horiz-adv-x="993" d="M20 0l7 45l837 893h-704l6 45h772l-6 -45l-838 -893h717l-6 -45h-785z" />
<glyph unicode="{" horiz-adv-x="610" d="M117 643l10 62q95 28 117 47q31 30 43 125l63 440q18 138 86 199q66 59 211 57l-4 -37q-119 0 -174 -54t-72 -169l-57 -420q-18 -120 -53 -160q-34 -38 -135 -61q93 -34 120 -75q28 -42 13 -142l-74 -537q-17 -114 22 -166q39 -53 158 -53l-4 -37q-140 0 -193 62t-32 198 l78 557q8 59 -7 88q-16 32 -34 41q-27 14 -82 35z" />
<glyph unicode="|" horiz-adv-x="477" d="M84 -346l272 1945h45l-272 -1945h-45z" />
<glyph unicode="}" horiz-adv-x="606" d="M-39 -338l4 37q117 0 171 55q55 56 71 168l76 537q15 104 50 141q36 38 142 72q-93 23 -117 63q-24 41 -6 162l60 420q16 114 -23 167q-39 52 -160 52l4 37q141 0 194 -62t32 -198l-62 -441q-12 -93 5 -117q18 -25 92 -48q3 -1 6.5 -2.5t5.5 -3t4 -1.5l-10 -61 q-52 -18 -70 -26q-20 -9 -44 -25q-28 -19 -37 -44q-9 -26 -15 -69l-78 -557q-21 -137 -87 -197q-65 -59 -208 -59z" />
<glyph unicode="~" horiz-adv-x="1091" d="M162 496q11 93 57 139q47 47 119 41q89 -6 207 -71q115 -63 203 -68q62 -4 97 26q33 29 44 105l35 -4q-7 -88 -57 -134q-47 -44 -117 -38q-114 6 -227 70q-114 64 -183 69q-121 12 -143 -139z" />
<glyph unicode="&#xa1;" horiz-adv-x="471" d="M66 -420l96 678l47 309h43l-39 -309l-96 -678h-51zM233 834l19 127q1 22 27 22h22q23 0 21 -27l-19 -120q-5 -29 -29 -29h-18q-28 0 -23 27z" />
<glyph unicode="&#xa2;" horiz-adv-x="1028" d="M160 721q40 280 155 396q114 116 357 116l37 180h43l-37 -180q149 -7 233 -35l-12 -37q-75 20 -231 25l-197 -938h37q153 0 289 24l6 -36q-158 -35 -299 -35h-43l-43 -201h-43l43 205q-197 18 -265 137t-30 379zM211 717q-35 -243 24 -347q58 -103 232 -118l195 934 q-214 -5 -314 -106t-137 -363z" />
<glyph unicode="&#xa3;" d="M63 0l5 45q112 66 164 176q52 111 69 279l21 223h-170l6 41h168l28 319q10 94 36 160q26 67 60 104t88 58q56 22 105 26q57 5 127 5q138 0 317 -21l-6 -37q-205 13 -356 13q-159 0 -232 -71q-74 -72 -90 -237l-28 -319h514l-8 -41h-510l-21 -217q-17 -172 -62 -284 q-47 -116 -151 -177h119h692l-6 -45h-879z" />
<glyph unicode="&#xa4;" horiz-adv-x="1228" d="M141 319l164 144q-79 105 -63 262q21 178 131 279l-142 161l29 27l141 -164q111 84 269 84q156 0 252 -90l163 143l25 -30l-162 -142q88 -111 72 -276q-15 -160 -123 -268l141 -164l-30 -25l-140 164q-112 -92 -272 -92q-170 0 -266 102l-162 -143zM283 717 q-17 -149 65 -244q83 -96 232 -102q164 -6 273 93t126 261q15 149 -67 249q-81 99 -240 99q-166 0 -270 -99q-102 -98 -119 -257z" />
<glyph unicode="&#xa5;" horiz-adv-x="1230" d="M160 360l6 41h395l25 185h-396l7 41h372l-350 786h53l277 -622l63 -142h15q42 62 100 139l449 625h59l-567 -786h381l-7 -41h-405l-25 -185h406l-6 -41h-406l-51 -360h-51l51 360h-395z" />
<glyph unicode="&#xa6;" horiz-adv-x="477" d="M84 -346l115 819h45l-115 -819h-45zM242 780l114 819h45l-114 -819h-45z" />
<glyph unicode="&#xa7;" horiz-adv-x="1112" d="M37 -270l6 37q286 -16 432 -17q78 0 102 1q39 2 85 10q47 8 75 29q26 19 50 56q24 38 30 93q21 155 -125 245l-360 222q-124 77 -145 184t26 264l45 -4q-44 -140 -30 -235q13 -94 106 -152l364 -223q107 -66 146 -138q39 -71 22 -172q-10 -62 -35 -107q-24 -43 -55 -68 q-30 -24 -83 -36q-55 -13 -97 -14q-45 -2 -119 0q-213 5 -440 25zM240 1219q21 135 110 178q88 43 279 41q231 0 440 -25l-6 -37q-249 16 -432 17q-169 2 -247 -31t-95 -152q-21 -152 127 -243l360 -224q68 -40 101 -85q35 -48 44 -104q9 -60 2 -117t-30 -148l-45 4 q41 142 28 238q-14 99 -104 155l-360 225q-112 67 -150 140q-37 71 -22 168z" />
<glyph unicode="&#xa8;" horiz-adv-x="817" d="M303 1253l16 111q5 25 25 25h18q24 0 19 -25l-16 -109q-1 -26 -27 -26h-14q-22 0 -21 24zM666 1253l16 111q2 25 25 25h18q20 0 18 -25l-16 -109q-1 -26 -27 -26h-14q-22 0 -20 24z" />
<glyph unicode="&#xa9;" horiz-adv-x="1753" d="M162 711q44 325 266 525q225 202 563 202q311 0 494 -204q182 -203 137 -532q-45 -325 -265 -525q-222 -202 -562 -202q-311 0 -494 204t-139 532zM203 702q-41 -308 131 -497q173 -191 461 -191q322 0 534 194q211 193 252 503t-128 498q-170 190 -464 190 q-322 0 -534 -194q-211 -193 -252 -503zM504 717q38 261 140 365q104 106 323 106q161 0 270 -25l-10 -28q-102 12 -258 12q-199 0 -292 -95t-128 -343q-35 -238 30 -334t259 -96q183 0 292 16l7 -33q-124 -24 -295 -24q-222 0 -299 108t-39 371z" />
<glyph unicode="&#xaa;" horiz-adv-x="909" d="M183 703q-1 61 10 182q29 203 112 273q85 71 258 71q82 0 248 -19l-94 -659h-33l18 151v3q-79 -82 -161 -124q-86 -44 -152 -44q-65 0 -104 12q-41 13 -70 49q-31 38 -32 105zM236 881q-27 -184 7 -243q35 -60 146 -60q63 0 152 45q87 44 166 125l59 434q-174 8 -197 8 q-160 0 -232 -60q-73 -61 -101 -249z" />
<glyph unicode="&#xab;" horiz-adv-x="923" d="M90 506l2 16l391 408l25 -25l-361 -395l248 -395l-26 -21zM414 506l2 16l391 408l24 -25l-360 -395l248 -395l-27 -21z" />
<glyph unicode="&#xac;" horiz-adv-x="1210" d="M174 584l6 45h854l-51 -355h-47l45 310h-807z" />
<glyph unicode="&#xad;" horiz-adv-x="987" d="M160 492l6 45h637l-6 -45h-637z" />
<glyph unicode="&#xae;" horiz-adv-x="1187" d="M193 995q24 207 162 324t337 117q214 0 325 -128q112 -129 85 -331q-24 -194 -160 -324q-135 -129 -338 -129q-202 0 -319 130q-116 129 -92 341zM227 987q-22 -194 84 -312t293 -118q189 0 314 122t149 306q24 193 -79 305q-104 113 -296 113q-196 0 -319 -114 q-124 -115 -146 -302zM395 690l82 580q114 6 195 6q134 0 183 -30q50 -30 38 -134q-7 -77 -43 -111q-34 -32 -109 -43v-4q47 -12 68 -82l49 -182h-39l-47 182q-18 74 -96 74q-177 0 -207 2l-37 -258h-37zM473 975h191q99 1 142 29q42 27 52 114q10 82 -27 105 q-37 22 -147 22l-174 -2z" />
<glyph unicode="&#xaf;" horiz-adv-x="819" d="M254 1280l6 47h533l-7 -47h-532z" />
<glyph unicode="&#xb0;" horiz-adv-x="780" d="M219 1190q12 110 91 179q80 69 186 69q110 0 175 -73q64 -72 52 -183q-12 -113 -92 -182q-78 -68 -187 -68q-115 0 -175 76q-60 77 -50 182zM260 1182q-8 -92 43 -152q50 -59 141 -59t159 59q69 60 79 160q10 92 -42 150q-53 59 -144 59q-93 0 -160 -62q-66 -61 -76 -155 z" />
<glyph unicode="&#xb1;" horiz-adv-x="1222" d="M125 193l8 43h854l-8 -43h-854zM195 688l8 45h403l41 301h47l-43 -301h406l-8 -45h-404l-43 -301h-43l41 301h-405z" />
<glyph unicode="&#xb2;" horiz-adv-x="892" d="M162 737l4 31q0 13 10 23l369 325q112 99 163 173q52 75 60 147q8 74 -41 96q-48 22 -162 22q-128 0 -272 -24l-8 37q147 32 276 32q146 0 207 -35q64 -37 49 -141q-12 -82 -64 -152q-50 -67 -167 -175l-355 -314h158h377l-4 -45h-600z" />
<glyph unicode="&#xb3;" horiz-adv-x="851" d="M162 743l10 37q121 -20 250 -12q263 17 293 211q12 81 -29 134q-40 52 -170 54h-178l4 35l176 4q206 5 230 195q11 92 -33 124q-43 31 -180 31q-99 0 -236 -14l-8 37q123 20 246 20q157 0 216 -45t42 -153q-24 -188 -174 -211l-5 -6q90 -12 125 -71q36 -60 21 -142 q-17 -103 -96 -172q-81 -70 -236 -76q-137 -8 -268 20z" />
<glyph unicode="&#xb4;" horiz-adv-x="567" d="M213 1155l346 299l35 -39l-352 -289z" />
<glyph unicode="&#xb6;" horiz-adv-x="1222" d="M156 963q40 284 185 379q146 96 476 96q155 0 297 -35l-199 -1403h-51l195 1372q-154 19 -309 19l-256 -1821h-52l119 842q-483 53 -405 551z" />
<glyph unicode="&#xb7;" horiz-adv-x="419" d="M156 465l18 125q2 24 27 24h22q25 0 21 -26l-19 -127q-2 -23 -26 -23h-21q-26 0 -22 27z" />
<glyph unicode="&#xb8;" horiz-adv-x="448" d="M-45 -449l10 31q104 -4 176 51t84 138q8 56 -15 76q-26 23 -91 24l6 29q82 4 119 -30q36 -33 24 -108q-16 -103 -102 -165q-87 -62 -211 -46z" />
<glyph unicode="&#xb9;" horiz-adv-x="577" d="M215 1497l268 88h49l-120 -848h-47l104 740q6 34 14 61l-264 -76z" />
<glyph unicode="&#xba;" horiz-adv-x="913" d="M190 887q27 189 106 265q80 77 245 77q172 0 230 -79q59 -80 32 -271q-27 -189 -107 -266q-79 -76 -245 -76q-172 0 -229 78q-59 80 -32 272zM238 879q-24 -171 22 -236t189 -65q146 0 213 67q68 68 92 242q24 172 -22 237q-46 66 -189 66q-145 0 -213 -68t-92 -243z" />
<glyph unicode="&#xbb;" horiz-adv-x="919" d="M66 119l360 395l-248 395l27 21l278 -412l-2 -16l-391 -408zM389 119l361 395l-248 395l26 21l279 -412l-2 -16l-391 -408z" />
<glyph unicode="&#xbc;" horiz-adv-x="1703" d="M162 0l1181 1413h50l-1182 -1413h-49zM201 1323l270 90h43l-119 -848h-43l105 746q3 14 4 19t2.5 13.5t1.5 10.5q1 4 2.5 10.5t1.5 7.5l-264 -78zM890 268q-18 32 7 68l375 512h47l-377 -518q-16 -22 -6 -40t37 -18h448l39 273l29 143h33l-58 -416h92l-4 -30l-94 -4 l-33 -238h-43l33 236h-465q-43 0 -60 32z" />
<glyph unicode="&#xbd;" horiz-adv-x="1761" d="M160 0l1181 1413h50l-1182 -1413h-49zM199 1323l270 90h43l-119 -848h-43l105 746q3 14 4 19t2.5 13.5t1.5 10.5q1 4 2.5 10.5t1.5 7.5l-264 -78zM965 0l4 27q1 11 12 22l369 328q108 98 162 175t61 148q8 79 -41 101q-48 22 -162 22q-138 0 -274 -26l-9 32 q153 33 275 33q147 0 210 -36q62 -36 46 -140q-10 -78 -64 -150t-170 -178l-360 -319l82 2q82 0 82 -2h383l-6 -39h-600z" />
<glyph unicode="&#xbe;" horiz-adv-x="1892" d="M129 567l8 33q130 -14 266 -14q133 0 200 50q66 49 81 167q12 85 -29 137q-41 51 -172 53h-178l6 31l174 4q214 5 238 199q12 92 -35 125q-45 32 -184 32q-134 0 -240 -14l-6 33q119 20 244 20q163 0 222 -44q58 -43 42 -154q-27 -184 -180 -211l-4 -4q168 -24 147 -217 q-16 -126 -89 -187q-71 -59 -228 -59q-116 0 -283 20zM379 0l1182 1413h49l-1182 -1413h-49zM1076 268q-18 32 7 68l375 512h47l-377 -518q-16 -22 -6 -40q11 -18 37 -18h428l39 273l29 143h33l-58 -416h113l-4 -30l-115 -6l-33 -236h-43l33 236h-444q-44 0 -61 32z" />
<glyph unicode="&#xbf;" horiz-adv-x="1019" d="M8 -133q12 85 63 159q50 73 114 128q86 74 130 112q63 54 118 141q52 81 67 183l47 -4q-15 -108 -67 -195q-52 -88 -116 -146q-46 -42 -130 -114q-65 -56 -114 -124q-51 -71 -61 -148q-21 -136 55 -203q75 -66 253 -66q190 0 411 29l10 -37q-15 -3 -61 -10q-45 -7 -59 -9 q-6 -1 -56 -7q-53 -6 -66 -7q-31 -2 -76 -3q-31 -1 -101 -1q-200 0 -292 80t-69 242zM528 854l19 127q2 23 24 23h21q24 0 22 -25l-16 -127q-2 -25 -27 -25h-20q-25 0 -23 27z" />
<glyph unicode="&#xc0;" horiz-adv-x="1226" d="M-45 0l704 1397q7 16 27 16h88q23 0 27 -20l311 -1393h-53l-113 516h-674l-260 -516h-57zM295 561h641l-154 694q-20 95 -24 111h-60q-8 -14 -28 -57q-18 -40 -29 -58zM524 1796l39 37l264 -301l-28 -25z" />
<glyph unicode="&#xc1;" horiz-adv-x="1226" d="M-45 0l704 1397q7 16 27 16h88q23 0 27 -20l311 -1393h-53l-113 516h-674l-260 -516h-57zM295 561h641l-154 694q-20 95 -24 111h-60q-8 -14 -28 -57q-18 -40 -29 -58zM649 1536l346 299l35 -39l-352 -289z" />
<glyph unicode="&#xc2;" horiz-adv-x="1226" d="M-45 0l704 1397q7 16 27 16h88q23 0 27 -20l311 -1393h-53l-113 516h-674l-260 -516h-57zM295 561h641l-154 694q-20 95 -24 111h-60q-8 -14 -28 -57q-18 -40 -29 -58zM455 1563l311 239h37l248 -239l-25 -25l-235 209h-19l-297 -211z" />
<glyph unicode="&#xc3;" horiz-adv-x="1226" d="M-45 0l704 1397q7 16 27 16h88q23 0 27 -20l311 -1393h-53l-113 516h-674l-260 -516h-57zM295 561h641l-154 694q-20 95 -24 111h-60q-8 -14 -28 -57q-18 -40 -29 -58zM461 1593q11 94 57 140q47 47 119 41q61 -6 135 -71q73 -64 131 -69q62 -4 97 28q33 31 44 103l35 -4 q-7 -87 -55 -133q-47 -45 -119 -39t-148 71q-75 65 -118 69q-120 12 -143 -140z" />
<glyph unicode="&#xc4;" horiz-adv-x="1226" d="M-45 0l704 1397q7 16 27 16h88q23 0 27 -20l311 -1393h-53l-113 516h-674l-260 -516h-57zM295 561h641l-154 694q-20 95 -24 111h-60q-8 -14 -28 -57q-18 -40 -29 -58zM549 1618l16 111q5 24 25 24h18q24 0 19 -24l-17 -109q-2 -27 -26 -27h-15q-22 0 -20 25zM911 1618 l17 111q2 24 24 24h19q19 0 18 -24l-16 -109q-1 -27 -27 -27h-14q-23 0 -21 25z" />
<glyph unicode="&#xc5;" horiz-adv-x="1226" d="M-45 0l704 1397q7 16 27 16h88q23 0 27 -20l311 -1393h-53l-113 516h-674l-260 -516h-57zM295 561h641l-154 694q-20 95 -24 111h-60q-8 -14 -28 -57q-18 -40 -29 -58zM571 1671q10 76 71 134q60 57 144 57q87 0 138 -59t41 -140q-10 -77 -70 -134q-59 -56 -145 -56 q-87 0 -138 57t-41 141zM614 1663q-8 -64 30 -108t106 -44q66 0 115 47q50 48 57 113q8 65 -29 108q-38 44 -107 44q-70 0 -116 -46q-49 -49 -56 -114z" />
<glyph unicode="&#xc6;" horiz-adv-x="1851" d="M-61 0l991 1241q83 102 166 138q78 34 192 34q348 0 559 -8l-4 -37h-549q-77 0 -129 -46q-53 -47 -65 -124l-58 -420h631l-6 -43h-631l-73 -524q-11 -74 28 -120t113 -46h553l-2 -37q-203 -8 -561 -8q-93 0 -145 60q-53 61 -38 151l50 346h-517l-444 -557h-61zM481 602 h486l84 602q6 48 36 94q30 47 68 62h-8q-85 -33 -180 -150z" />
<glyph unicode="&#xc7;" d="M170 711q57 401 195 565q137 162 426 162q205 0 354 -35l-15 -37q-156 25 -337 25q-270 0 -394 -151q-122 -149 -178 -538q-52 -381 28 -530t343 -149q226 0 379 26l10 -37q-167 -37 -387 -37q-292 0 -386 165q-95 166 -38 571zM344 -473l10 31q104 -4 176 51 q72 56 84 137q8 57 -15 77q-25 22 -91 23l6 29q82 4 119 -30q36 -33 24 -107q-16 -104 -102 -166t-211 -45z" />
<glyph unicode="&#xc8;" horiz-adv-x="1122" d="M143 211l140 995q12 94 73 150q62 57 160 57q390 0 604 -8l-8 -37h-586q-83 0 -133 -46q-51 -46 -61 -124l-58 -420h672l-6 -43h-672l-73 -524q-11 -74 28 -120t113 -46h590l2 -37q-216 -8 -602 -8q-92 0 -145 60q-53 61 -38 151zM528 1847l39 37l264 -301l-28 -24z" />
<glyph unicode="&#xc9;" horiz-adv-x="1122" d="M143 211l140 995q12 94 73 150q62 57 160 57q390 0 604 -8l-8 -37h-586q-83 0 -133 -46q-51 -46 -61 -124l-58 -420h672l-6 -43h-672l-73 -524q-11 -74 28 -120t113 -46h590l2 -37q-216 -8 -602 -8q-92 0 -145 60q-53 61 -38 151zM653 1587l346 299l35 -39l-352 -288z " />
<glyph unicode="&#xca;" horiz-adv-x="1122" d="M143 211l140 995q12 94 73 150q62 57 160 57q390 0 604 -8l-8 -37h-586q-83 0 -133 -46q-51 -46 -61 -124l-58 -420h672l-6 -43h-672l-73 -524q-11 -74 28 -120t113 -46h590l2 -37q-216 -8 -602 -8q-92 0 -145 60q-53 61 -38 151zM459 1614l311 239h37l248 -239l-25 -25 l-235 209h-19l-297 -211z" />
<glyph unicode="&#xcb;" horiz-adv-x="1122" d="M143 211l140 995q12 94 73 150q62 57 160 57q390 0 604 -8l-8 -37h-586q-83 0 -133 -46q-51 -46 -61 -124l-58 -420h672l-6 -43h-672l-73 -524q-11 -74 28 -120t113 -46h590l2 -37q-216 -8 -602 -8q-92 0 -145 60q-53 61 -38 151zM553 1669l16 111q5 24 25 24h18 q24 0 19 -24l-17 -109q-1 -26 -26 -26h-15q-21 0 -20 24zM915 1669l17 111q2 24 24 24h19q19 0 18 -24l-16 -109q-1 -26 -27 -26h-14q-22 0 -21 24z" />
<glyph unicode="&#xcc;" horiz-adv-x="473" d="M127 0l199 1413h51l-199 -1413h-51zM141 1796l39 37l264 -301l-28 -25z" />
<glyph unicode="&#xcd;" horiz-adv-x="473" d="M127 0l199 1413h51l-199 -1413h-51zM266 1536l346 299l35 -39l-352 -289z" />
<glyph unicode="&#xce;" horiz-adv-x="473" d="M72 1563l311 239h37l248 -239l-25 -25l-235 209h-19l-297 -211zM127 0l199 1413h51l-199 -1413h-51z" />
<glyph unicode="&#xcf;" horiz-adv-x="473" d="M127 0l199 1413h51l-199 -1413h-51zM166 1618l16 111q2 24 25 24h18q21 0 19 -24l-17 -109q-1 -27 -26 -27h-15q-22 0 -20 25zM528 1618l17 111q5 24 24 24h19q22 0 18 -24l-16 -109q-2 -27 -27 -27h-14q-23 0 -21 25z" />
<glyph unicode="&#xd0;" horiz-adv-x="1347" d="M61 739l7 41h170l88 633q261 19 469 19q284 0 376 -164q92 -165 37 -566q-56 -404 -190 -562t-420 -158q-224 0 -471 18l104 739h-170zM182 35q375 -6 414 -6q259 0 383 149q126 151 178 533q51 373 -29 524q-79 149 -333 149q-160 0 -422 -8l-84 -596h368l-6 -41h-368z " />
<glyph unicode="&#xd1;" horiz-adv-x="1409" d="M127 0l195 1384q6 29 32 29h78q26 0 37 -24l477 -1180q12 -29 33 -84q20 -52 33 -82h57l25 174l168 1196h51l-195 -1384q-2 -29 -33 -29h-84q-23 0 -34 25l-488 1206q-3 7 -12.5 30t-16.5 39q-23 53 -28 68h-51q-4 -24 -12 -80q-2 -15 -5.5 -42.5t-5.5 -37.5l-170 -1208 h-51zM565 1593q11 93 58 140t118 41q62 -6 136 -71q73 -64 131 -69q62 -4 97 28q33 31 44 103l35 -4q-7 -86 -56 -133q-46 -45 -118 -39q-73 6 -149 71q-75 65 -118 69q-120 12 -143 -140z" />
<glyph unicode="&#xd2;" horiz-adv-x="1351" d="M170 711q57 401 195 565q137 162 426 162q291 0 386 -165q95 -166 35 -571q-55 -403 -192 -565q-136 -162 -426 -162q-292 0 -386 165q-95 166 -38 571zM221 702q-51 -380 31 -529q83 -150 340 -150q267 0 391 151q126 153 178 537q53 382 -26 530q-79 150 -344 150 q-267 0 -392 -152q-126 -153 -178 -537zM594 1796l39 37l264 -301l-29 -25z" />
<glyph unicode="&#xd3;" horiz-adv-x="1351" d="M170 711q57 401 195 565q137 162 426 162q291 0 386 -165q95 -166 35 -571q-55 -403 -192 -565q-136 -162 -426 -162q-292 0 -386 165q-95 166 -38 571zM221 702q-51 -380 31 -529q83 -150 340 -150q267 0 391 151q126 153 178 537q53 382 -26 530q-79 150 -344 150 q-267 0 -392 -152q-126 -153 -178 -537zM719 1536l346 299l35 -39l-352 -289z" />
<glyph unicode="&#xd4;" horiz-adv-x="1351" d="M170 711q57 401 195 565q137 162 426 162q291 0 386 -165q95 -166 35 -571q-55 -403 -192 -565q-136 -162 -426 -162q-292 0 -386 165q-95 166 -38 571zM221 702q-51 -380 31 -529q83 -150 340 -150q267 0 391 151q126 153 178 537q53 382 -26 530q-79 150 -344 150 q-267 0 -392 -152q-126 -153 -178 -537zM524 1563l312 239h36l248 -239l-24 -25l-236 209h-18l-297 -211z" />
<glyph unicode="&#xd5;" horiz-adv-x="1351" d="M170 711q57 401 195 565q137 162 426 162q291 0 386 -165q95 -166 35 -571q-55 -403 -192 -565q-136 -162 -426 -162q-292 0 -386 165q-95 166 -38 571zM221 702q-51 -380 31 -529q83 -150 340 -150q267 0 391 151q126 153 178 537q53 382 -26 530q-79 150 -344 150 q-267 0 -392 -152q-126 -153 -178 -537zM530 1593q11 93 58 140t119 41q61 -6 135 -71q73 -64 131 -69q62 -4 97 28q33 31 44 103l35 -4q-7 -87 -55 -133q-47 -45 -119 -39q-73 6 -149 71q-75 65 -117 69q-121 12 -144 -140z" />
<glyph unicode="&#xd6;" horiz-adv-x="1351" d="M170 711q57 401 195 565q137 162 426 162q291 0 386 -165q95 -166 35 -571q-55 -403 -192 -565q-136 -162 -426 -162q-292 0 -386 165q-95 166 -38 571zM221 702q-51 -380 31 -529q83 -150 340 -150q267 0 391 151q126 153 178 537q53 382 -26 530q-79 150 -344 150 q-267 0 -392 -152q-126 -153 -178 -537zM618 1618l17 111q5 24 24 24h19q22 0 18 -24l-16 -109q-2 -27 -27 -27h-14q-23 0 -21 25zM981 1618l16 111q1 24 25 24h18q20 0 19 -24l-17 -109q-2 -27 -26 -27h-15q-22 0 -20 25z" />
<glyph unicode="&#xd7;" horiz-adv-x="1077" d="M117 287l383 305l-291 301l33 33l295 -303l387 307l30 -35l-385 -307l297 -303l-32 -35l-302 309l-387 -309z" />
<glyph unicode="&#xd8;" horiz-adv-x="1351" d="M157 298q-24 161 13 413q57 401 195 565q137 162 426 162q181 0 282 -60l84 140l41 -21l-88 -145q93 -78 117 -234q24 -158 -15 -416q-55 -403 -192 -565q-136 -162 -426 -162q-186 0 -287 62l-86 -141l-39 20l90 147q-91 76 -115 235zM221 702q-63 -456 78 -593 l748 1226q-89 56 -256 56q-267 0 -392 -152q-126 -153 -178 -537zM334 82q90 -59 258 -59q267 0 391 151q126 153 178 537q35 241 18 381q-18 145 -96 217z" />
<glyph unicode="&#xd9;" horiz-adv-x="1366" d="M190 524l125 889h52l-125 -893q-39 -275 42 -386t316 -111q238 0 351 113q114 114 153 388l125 889h51l-125 -893q-40 -295 -166 -421q-124 -124 -387 -124q-266 0 -359 126q-93 127 -53 423zM592 1796l39 37l264 -301l-29 -25z" />
<glyph unicode="&#xda;" horiz-adv-x="1366" d="M190 524l125 889h52l-125 -893q-39 -275 42 -386t316 -111q238 0 351 113q114 114 153 388l125 889h51l-125 -893q-40 -295 -166 -421q-124 -124 -387 -124q-266 0 -359 126q-93 127 -53 423zM717 1536l346 299l35 -39l-353 -289z" />
<glyph unicode="&#xdb;" horiz-adv-x="1366" d="M190 524l125 889h52l-125 -893q-39 -275 42 -386t316 -111q238 0 351 113q114 114 153 388l125 889h51l-125 -893q-40 -295 -166 -421q-124 -124 -387 -124q-266 0 -359 126q-93 127 -53 423zM522 1563l312 239h36l248 -239l-24 -25l-236 209h-18l-297 -211z" />
<glyph unicode="&#xdc;" horiz-adv-x="1366" d="M190 524l125 889h52l-125 -893q-39 -275 42 -386t316 -111q238 0 351 113q114 114 153 388l125 889h51l-125 -893q-40 -295 -166 -421q-124 -124 -387 -124q-266 0 -359 126q-93 127 -53 423zM616 1618l17 111q1 24 24 24h19q20 0 18 -24l-16 -109q-2 -27 -27 -27h-14 q-23 0 -21 25zM979 1618l16 111q4 24 25 24h18q24 0 19 -24l-17 -109q-2 -27 -26 -27h-15q-22 0 -20 25z" />
<glyph unicode="&#xdd;" horiz-adv-x="1095" d="M150 1413h53l274 -684l58 -141h12l96 143l465 682h57l-604 -887l-76 -526h-51l76 526zM575 1536l347 299l34 -39l-352 -289z" />
<glyph unicode="&#xde;" horiz-adv-x="1191" d="M129 0l158 1118v2l41 293h51l-41 -289q156 13 399 13q229 0 309 -90q79 -89 44 -330q-33 -240 -134 -326t-327 -86q-260 0 -404 8l-45 -313h-51zM229 352h398q205 4 293 79t118 294q29 215 -37 290t-262 75q-252 0 -407 -5z" />
<glyph unicode="&#xdf;" horiz-adv-x="1323" d="M-262 -422l2 37h162q113 0 166 51q53 52 71 178l156 1094h-180l6 35l180 10l14 107q16 119 58 200q41 78 107 113t129 45q60 10 161 10q230 0 324 -49q93 -49 86 -182q-6 -112 -69 -169q-61 -55 -173 -93q-7 -2 -33 -10.5t-46 -14.5q-41 -12 -75 -25q-16 -6 -54 -24 t-50 -35q-13 -18 -27 -46q-14 -29 -16 -67q-5 -57 19 -94q23 -36 92 -67l262 -123q99 -45 139 -101q37 -52 25 -153q-18 -141 -110 -185q-90 -43 -271 -43q-160 0 -316 23l6 37q174 -18 330 -14q157 5 225 40q71 37 86 150q6 49 0 83q-6 33 -31 57q-27 26 -40 32l-54 27 l-258 123q-90 45 -125 92q-34 45 -26 125q2 28 9 51q7 20 23 43q19 26 24 35q8 13 36 29q11 6 38 23q9 6 49 20q25 9 49 18l10.5 3.5t21 6.5t26.5 8q52 17 58 19q43 13 59 21q29 14 62 37q37 25 58 69q23 47 24 100q4 93 -66 136q-69 42 -276 42q-224 0 -314 -66 q-89 -65 -116 -262l-177 -1245q-23 -147 -86 -209q-62 -61 -196 -61q-96 0 -168 8z" />
<glyph unicode="&#xe0;" horiz-adv-x="1155" d="M143 102q-50 128 0 394q49 308 148 410t362 102q137 0 367 -25l-139 -983h-37l30 250q-122 -134 -259 -204q-139 -71 -242 -71q-181 0 -230 127zM185 133q37 -110 188 -110q102 0 242 76t262 210l88 639q-223 15 -306 15q-99 0 -171 -13q-65 -12 -117 -41t-83 -87 q-34 -63 -55 -135q-21 -73 -40 -200q-45 -244 -8 -354zM446 1423l39 37l265 -301l-29 -24z" />
<glyph unicode="&#xe1;" horiz-adv-x="1155" d="M143 102q-50 128 0 394q49 308 148 410t362 102q137 0 367 -25l-139 -983h-37l30 250q-122 -134 -259 -204q-139 -71 -242 -71q-181 0 -230 127zM185 133q37 -110 188 -110q102 0 242 76t262 210l88 639q-223 15 -306 15q-99 0 -171 -13q-65 -12 -117 -41t-83 -87 q-34 -63 -55 -135q-21 -73 -40 -200q-45 -244 -8 -354zM571 1163l347 299l34 -39l-352 -288z" />
<glyph unicode="&#xe2;" horiz-adv-x="1155" d="M143 102q-50 128 0 394q49 308 148 410t362 102q137 0 367 -25l-139 -983h-37l30 250q-122 -134 -259 -204q-139 -71 -242 -71q-181 0 -230 127zM185 133q37 -110 188 -110q102 0 242 76t262 210l88 639q-223 15 -306 15q-99 0 -171 -13q-65 -12 -117 -41t-83 -87 q-34 -63 -55 -135q-21 -73 -40 -200q-45 -244 -8 -354zM377 1190l311 240h37l248 -240l-25 -25l-235 209h-19l-297 -211z" />
<glyph unicode="&#xe3;" horiz-adv-x="1155" d="M143 102q-50 128 0 394q49 308 148 410t362 102q137 0 367 -25l-139 -983h-37l30 250q-122 -134 -259 -204q-139 -71 -242 -71q-181 0 -230 127zM185 133q37 -110 188 -110q102 0 242 76t262 210l88 639q-223 15 -306 15q-99 0 -171 -13q-65 -12 -117 -41t-83 -87 q-34 -63 -55 -135q-21 -73 -40 -200q-45 -244 -8 -354zM383 1221q11 93 57 139q47 47 119 41q61 -6 135 -71q72 -63 131 -68q63 -5 98 27q33 30 44 104l34 -4q-7 -88 -55 -134q-46 -44 -119 -38q-74 6 -148 70q-75 65 -118 69q-121 12 -143 -139z" />
<glyph unicode="&#xe4;" horiz-adv-x="1155" d="M143 102q-50 128 0 394q49 308 148 410t362 102q137 0 367 -25l-139 -983h-37l30 250q-122 -134 -259 -204q-139 -71 -242 -71q-181 0 -230 127zM185 133q37 -110 188 -110q102 0 242 76t262 210l88 639q-223 15 -306 15q-99 0 -171 -13q-65 -12 -117 -41t-83 -87 q-34 -63 -55 -135q-21 -73 -40 -200q-45 -244 -8 -354zM471 1245l16 111q4 24 25 24h18q24 0 19 -24l-17 -109q-1 -26 -26 -26h-14q-22 0 -21 24zM834 1245l16 111q2 24 24 24h19q19 0 18 -24l-16 -109q-1 -26 -27 -26h-14q-22 0 -20 24z" />
<glyph unicode="&#xe5;" horiz-adv-x="1155" d="M143 102q-50 128 0 394q49 308 148 410t362 102q137 0 367 -25l-139 -983h-37l30 250q-122 -134 -259 -204q-139 -71 -242 -71q-181 0 -230 127zM185 133q37 -110 188 -110q102 0 242 76t262 210l88 639q-223 15 -306 15q-99 0 -171 -13q-65 -12 -117 -41t-83 -87 q-34 -63 -55 -135q-21 -73 -40 -200q-45 -244 -8 -354zM494 1298q11 79 70 135t145 56t137 -58q51 -59 41 -141q-10 -77 -70 -134q-59 -56 -145 -56t-137 57t-41 141zM537 1290q-8 -64 29 -107q38 -44 106 -44t115 46q50 48 57 113q8 65 -29 108q-38 44 -106 44 q-71 0 -117 -46q-48 -48 -55 -114z" />
<glyph unicode="&#xe6;" horiz-adv-x="1785" d="M117 218q-2 123 20 278q46 307 148 410q101 102 354 102q181 0 434 -45q91 45 266 45q196 0 284 -65q86 -64 46 -238q-29 -119 -99 -167q-71 -49 -227 -65l-473 -51q-27 -232 48 -318q74 -84 286 -84q156 0 361 29l6 -37q-135 -37 -387 -37q-175 0 -263 61 q-87 60 -102 200q-113 -129 -233 -194q-125 -67 -238 -67q-115 0 -173 64q-56 62 -58 179zM178 138q34 -115 172 -115q106 0 228 67t237 197q-2 87 16 213q49 322 185 428q-300 35 -373 35q-242 0 -328 -94q-86 -93 -129 -382q-43 -232 -8 -349zM877 465l469 53 q136 16 192 54q55 37 82 137q10 51 13 96q3 41 -15 68t-40 46q-18 16 -60 27q-37 10 -76 13q-50 4 -88 4q-115 0 -190 -16q-70 -15 -131 -65q-58 -48 -94 -143q-34 -89 -58 -245z" />
<glyph unicode="&#xe7;" horiz-adv-x="972" d="M125 496q39 283 156 397q118 115 360 115q166 0 274 -35l-14 -37q-94 25 -250 25q-227 0 -332 -102q-104 -101 -143 -370q-37 -267 37 -367q73 -99 299 -99q164 0 289 24l6 -37q-158 -35 -299 -35q-248 0 -335 118t-48 403zM252 -473l10 31q104 -4 176 51q72 56 84 137 q8 57 -15 77q-25 22 -91 23l6 29q82 4 119 -30q36 -33 24 -107q-16 -104 -102 -166t-211 -45z" />
<glyph unicode="&#xe8;" horiz-adv-x="1077" d="M127 500q24 158 63 258t105 154t143 75q78 21 197 21q196 0 284 -65q86 -64 46 -238q-28 -118 -100 -167q-71 -49 -226 -65l-473 -51q-27 -233 47 -318q74 -84 287 -84q155 0 360 29l6 -37q-135 -37 -387 -37q-242 0 -318 118q-77 120 -34 407zM172 465l469 53 q138 17 193 54q53 36 81 137q11 60 14 96q3 40 -16 68q-18 27 -40 46q-18 16 -60 27q-37 10 -76 13q-50 4 -88 4q-114 0 -189 -16q-70 -15 -131 -65q-60 -49 -95 -143q-34 -89 -58 -245zM424 1423l39 37l264 -301l-29 -24z" />
<glyph unicode="&#xe9;" horiz-adv-x="1077" d="M127 500q24 158 63 258t105 154t143 75q78 21 197 21q196 0 284 -65q86 -64 46 -238q-28 -118 -100 -167q-71 -49 -226 -65l-473 -51q-27 -233 47 -318q74 -84 287 -84q155 0 360 29l6 -37q-135 -37 -387 -37q-242 0 -318 118q-77 120 -34 407zM172 465l469 53 q138 17 193 54q53 36 81 137q11 60 14 96q3 40 -16 68q-18 27 -40 46q-18 16 -60 27q-37 10 -76 13q-50 4 -88 4q-114 0 -189 -16q-70 -15 -131 -65q-60 -49 -95 -143q-34 -89 -58 -245zM549 1163l346 299l35 -39l-352 -288z" />
<glyph unicode="&#xea;" horiz-adv-x="1077" d="M127 500q24 158 63 258t105 154t143 75q78 21 197 21q196 0 284 -65q86 -64 46 -238q-28 -118 -100 -167q-71 -49 -226 -65l-473 -51q-27 -233 47 -318q74 -84 287 -84q155 0 360 29l6 -37q-135 -37 -387 -37q-242 0 -318 118q-77 120 -34 407zM172 465l469 53 q138 17 193 54q53 36 81 137q11 60 14 96q3 40 -16 68q-18 27 -40 46q-18 16 -60 27q-37 10 -76 13q-50 4 -88 4q-114 0 -189 -16q-70 -15 -131 -65q-60 -49 -95 -143q-34 -89 -58 -245zM354 1190l312 240h36l248 -240l-24 -25l-236 209h-18l-297 -211z" />
<glyph unicode="&#xeb;" horiz-adv-x="1077" d="M127 500q24 158 63 258t105 154t143 75q78 21 197 21q196 0 284 -65q86 -64 46 -238q-28 -118 -100 -167q-71 -49 -226 -65l-473 -51q-27 -233 47 -318q74 -84 287 -84q155 0 360 29l6 -37q-135 -37 -387 -37q-242 0 -318 118q-77 120 -34 407zM172 465l469 53 q138 17 193 54q53 36 81 137q11 60 14 96q3 40 -16 68q-18 27 -40 46q-18 16 -60 27q-37 10 -76 13q-50 4 -88 4q-114 0 -189 -16q-70 -15 -131 -65q-60 -49 -95 -143q-34 -89 -58 -245zM449 1245l16 111q1 24 24 24h19q20 0 18 -24l-16 -109q-1 -26 -27 -26h-14 q-21 0 -20 24zM811 1245l16 111q4 24 25 24h18q24 0 19 -24l-17 -109q-1 -26 -26 -26h-15q-21 0 -20 24z" />
<glyph unicode="&#xec;" horiz-adv-x="446" d="M76 1423l39 37l264 -301l-29 -24zM115 0l139 983h49l-139 -983h-49z" />
<glyph unicode="&#xed;" horiz-adv-x="446" d="M115 0l139 983h49l-139 -983h-49zM201 1163l346 299l35 -39l-353 -288z" />
<glyph unicode="&#xee;" horiz-adv-x="446" d="M6 1190l311 240h37l248 -240l-24 -25l-236 209h-18l-297 -211zM115 0l139 983h49l-139 -983h-49z" />
<glyph unicode="&#xef;" horiz-adv-x="446" d="M100 1245l17 111q1 24 24 24h19q20 0 18 -24l-16 -109q-1 -26 -27 -26h-14q-23 0 -21 24zM115 0l139 983h49l-139 -983h-49zM463 1245l16 111q5 24 25 24h18q24 0 19 -24l-17 -109q-1 -26 -26 -26h-15q-21 0 -20 24z" />
<glyph unicode="&#xf0;" horiz-adv-x="1116" d="M121 457q63 456 459 456q227 0 338 -157q10 339 -158 501l-211 -133l-17 35l197 125q-141 109 -381 109l12 37q253 4 410 -121l191 121l18 -35l-180 -113q218 -212 149 -715q-12 -91 -25 -150q-13 -60 -36 -137q-22 -74 -57 -124q-39 -57 -82 -94q-50 -44 -120 -65 q-74 -22 -161 -22q-212 0 -298 115q-86 114 -48 367zM170 446q-30 -229 41 -327q72 -99 254 -99q113 0 193 39t126 121q49 86 73 175q24 88 46 235q10 63 12 115q-106 163 -344 163q-344 0 -401 -422z" />
<glyph unicode="&#xf1;" horiz-adv-x="1161" d="M106 0l140 983h37l-31 -240q315 265 514 265q269 0 231 -271l-104 -737h-49l104 735q17 120 -29 172q-48 54 -161 54q-100 0 -220 -64q-112 -60 -284 -199l-98 -698h-50zM352 1221q10 91 58 139q47 47 118 41q62 -6 136 -71q72 -63 131 -68q63 -4 97 27q33 30 44 104 l35 -4q-7 -87 -56 -134q-46 -44 -118 -38q-75 6 -149 70q-75 65 -118 69q-121 12 -143 -139z" />
<glyph unicode="&#xf2;" d="M125 496q41 284 151 397q112 115 347 115q239 0 321 -117q82 -116 41 -404q-41 -284 -151 -397q-112 -115 -347 -115q-239 0 -321 117q-82 116 -41 404zM176 487q-37 -261 32 -363q68 -101 279 -101q213 0 311 104t136 369q37 261 -32 363t-279 102q-212 0 -311 -105 q-98 -104 -136 -369zM422 1423l39 37l264 -301l-29 -24z" />
<glyph unicode="&#xf3;" d="M125 496q41 284 151 397q112 115 347 115q239 0 321 -117q82 -116 41 -404q-41 -284 -151 -397q-112 -115 -347 -115q-239 0 -321 117q-82 116 -41 404zM176 487q-37 -261 32 -363q68 -101 279 -101q213 0 311 104t136 369q37 261 -32 363t-279 102q-212 0 -311 -105 q-98 -104 -136 -369zM547 1163l346 299l35 -39l-353 -288z" />
<glyph unicode="&#xf4;" d="M125 496q41 284 151 397q112 115 347 115q239 0 321 -117q82 -116 41 -404q-41 -284 -151 -397q-112 -115 -347 -115q-239 0 -321 117q-82 116 -41 404zM176 487q-37 -261 32 -363q68 -101 279 -101q213 0 311 104t136 369q37 261 -32 363t-279 102q-212 0 -311 -105 q-98 -104 -136 -369zM352 1190l312 240h36l248 -240l-24 -25l-236 209h-18l-297 -211z" />
<glyph unicode="&#xf5;" d="M125 496q41 284 151 397q112 115 347 115q239 0 321 -117q82 -116 41 -404q-41 -284 -151 -397q-112 -115 -347 -115q-239 0 -321 117q-82 116 -41 404zM176 487q-37 -261 32 -363q68 -101 279 -101q213 0 311 104t136 369q37 261 -32 363t-279 102q-212 0 -311 -105 q-98 -104 -136 -369zM358 1221q10 91 58 139q47 47 119 41q61 -6 135 -71q72 -63 131 -68q63 -4 97 27q33 30 44 104l35 -4q-7 -88 -55 -134q-46 -44 -119 -38q-75 6 -149 70q-75 65 -117 69q-122 12 -144 -139z" />
<glyph unicode="&#xf6;" d="M125 496q41 284 151 397q112 115 347 115q239 0 321 -117q82 -116 41 -404q-41 -284 -151 -397q-112 -115 -347 -115q-239 0 -321 117q-82 116 -41 404zM176 487q-37 -261 32 -363q68 -101 279 -101q213 0 311 104t136 369q37 261 -32 363t-279 102q-212 0 -311 -105 q-98 -104 -136 -369zM446 1245l17 111q4 24 24 24h19q22 0 18 -24l-16 -109q-1 -26 -27 -26h-14q-23 0 -21 24zM809 1245l16 111q1 24 25 24h18q20 0 19 -24l-17 -109q-1 -26 -26 -26h-15q-21 0 -20 24z" />
<glyph unicode="&#xf7;" horiz-adv-x="1206" d="M174 584l6 45h854l-6 -45h-854zM512 209l18 125q2 24 27 24h23q21 0 20 -26l-18 -127q-2 -23 -27 -23h-20q-25 0 -23 27zM604 879l19 125q5 24 26 24h21q24 -1 22 -27l-18 -127q-1 -22 -27 -22h-20q-25 0 -23 27z" />
<glyph unicode="&#xf8;" d="M125 496q41 284 151 397q112 115 347 115q131 0 211 -33l77 129l37 -19l-78 -129q88 -49 115 -163q27 -115 0 -306q-41 -284 -151 -397q-112 -115 -347 -115q-118 0 -196 27l-78 -127l-37 19l76 124q-96 51 -126 165q-30 113 -1 313zM175 206q24 -101 104 -145l528 873 q-68 27 -184 27q-212 0 -311 -105q-98 -104 -136 -369q-24 -182 -1 -281zM315 45q65 -22 172 -22q213 0 311 104t136 369q24 175 4 273q-21 101 -94 146z" />
<glyph unicode="&#xf9;" horiz-adv-x="1138" d="M133 246l105 737h49l-105 -735q-33 -225 191 -225q104 0 218 69q111 67 269 219l94 672h50l-140 -983h-37l31 258q-283 -283 -493 -283q-132 0 -193 70q-60 69 -39 201zM414 1423l39 37l264 -301l-29 -24z" />
<glyph unicode="&#xfa;" horiz-adv-x="1138" d="M133 246l105 737h49l-105 -735q-33 -225 191 -225q104 0 218 69q111 67 269 219l94 672h50l-140 -983h-37l31 258q-283 -283 -493 -283q-132 0 -193 70q-60 69 -39 201zM539 1163l346 299l35 -39l-353 -288z" />
<glyph unicode="&#xfb;" horiz-adv-x="1138" d="M133 246l105 737h49l-105 -735q-33 -225 191 -225q104 0 218 69q111 67 269 219l94 672h50l-140 -983h-37l31 258q-283 -283 -493 -283q-132 0 -193 70q-60 69 -39 201zM344 1190l311 240h37l248 -240l-25 -25l-235 209h-18l-297 -211z" />
<glyph unicode="&#xfc;" horiz-adv-x="1138" d="M133 246l105 737h49l-105 -735q-33 -225 191 -225q104 0 218 69q111 67 269 219l94 672h50l-140 -983h-37l31 258q-283 -283 -493 -283q-132 0 -193 70q-60 69 -39 201zM438 1245l17 111q5 24 24 24h19q22 0 18 -24l-16 -109q-1 -26 -27 -26h-14q-23 0 -21 24zM801 1245 l16 111q1 24 25 24h18q20 0 19 -24l-17 -109q-1 -26 -26 -26h-15q-21 0 -20 24z" />
<glyph unicode="&#xfd;" horiz-adv-x="1046" d="M80 -399q104 34 198 131q92 95 205 268h-73q-37 0 -61 20q-27 22 -34 56l-200 907h53l190 -887q15 -56 66 -51h88l55 84q239 379 379 854h51q-122 -461 -381 -864q-173 -267 -283 -392q-109 -124 -245 -157zM475 1163l346 299l35 -39l-352 -288z" />
<glyph unicode="&#xfe;" horiz-adv-x="1155" d="M49 -430l262 1864h49l-75 -531q-16 -122 -27 -166q121 133 257 201q140 70 241 70q180 0 226 -120q47 -120 3 -401q-46 -307 -146 -410q-99 -102 -364 -102q-143 0 -321 23q-1 -45 -21 -186l-35 -242h-49zM164 37q270 -17 305 -17q247 0 336 91q87 89 131 385 q41 244 5 354q-36 111 -185 111q-104 0 -244 -77q-138 -75 -260 -210z" />
<glyph unicode="&#xff;" horiz-adv-x="1046" d="M80 -399q103 34 197 131q96 99 206 268h-73q-37 0 -61 20q-27 22 -34 56l-200 907h53l190 -887q15 -56 66 -51h88l55 84q239 379 379 854h51q-122 -461 -381 -864q-173 -267 -283 -392q-109 -124 -245 -157zM375 1245l16 111q1 24 25 24h18q20 0 19 -24l-17 -109 q-1 -26 -26 -26h-15q-21 0 -20 24zM737 1245l17 111q4 24 24 24h19q23 0 18 -24l-16 -109q-1 -26 -27 -26h-14q-22 0 -21 24z" />
<glyph unicode="&#x152;" horiz-adv-x="1816" d="M172 711q57 407 196 567t445 160q163 0 301 -68q62 43 137 43q362 0 564 -8l-5 -37h-548q-74 0 -129 -48t-66 -122l-57 -420h630l-6 -43h-630l-74 -524q-11 -74 28 -120t113 -46h553l-2 -37q-203 -8 -561 -8q-79 0 -129 45q-161 -70 -320 -70q-307 0 -402 161t-38 575z M223 702q-55 -379 29 -530q83 -149 364 -149q140 0 287 57q-36 55 -24 131l139 995q7 73 59 131q-116 54 -266 54q-281 0 -407 -149q-125 -148 -181 -540z" />
<glyph unicode="&#x153;" horiz-adv-x="1884" d="M123 496q41 284 151 397q112 115 347 115q175 0 264 -62q88 -61 106 -201q60 152 164 207q106 56 285 56q195 0 283 -65q86 -64 46 -238q-29 -119 -99 -167q-71 -49 -226 -65l-471 -53l-4 -14q-23 -218 51 -301q73 -82 289 -82q177 0 356 26l6 -37q-135 -37 -387 -37 q-174 0 -261 60t-103 194q-55 -133 -158 -194q-102 -60 -277 -60q-238 0 -321 117q-82 116 -41 404zM174 487q-37 -261 32 -363q68 -101 279 -101q202 0 302 95q100 96 139 335l6 47q0 6 1 11t3 11q30 247 -40 342q-71 97 -275 97q-212 0 -311 -105q-98 -104 -136 -369z M979 467l467 53q136 17 192 55q58 40 82 134q39 153 -33 202q-73 50 -239 50q-214 0 -313 -81t-144 -329l-8 -64q0 -9 -4 -20z" />
<glyph unicode="&#x178;" horiz-adv-x="1095" d="M150 1413h53l274 -684l58 -141h12l96 143l465 682h57l-604 -887l-76 -526h-51l76 526zM475 1618l17 111q4 24 24 24h19q23 0 18 -24l-16 -109q-1 -27 -27 -27h-14q-23 0 -21 25zM838 1618l16 111q2 24 25 24h18q19 0 18 -24l-16 -109q-1 -27 -27 -27h-14q-22 0 -20 25z " />
<glyph unicode="&#x2c6;" horiz-adv-x="802" d="M205 1202l311 240h37l248 -240l-25 -24l-235 208h-19l-297 -210z" />
<glyph unicode="&#x2dc;" horiz-adv-x="819" d="M215 1227q11 93 57 139q47 47 119 41q61 -6 135 -71q72 -63 131 -68q63 -5 98 27q33 30 44 104l35 -4q-7 -86 -56 -133q-47 -45 -119 -39q-74 6 -148 70q-75 65 -118 69q-121 12 -143 -139z" />
<glyph unicode="&#x2000;" horiz-adv-x="943" />
<glyph unicode="&#x2001;" horiz-adv-x="1886" />
<glyph unicode="&#x2002;" horiz-adv-x="943" />
<glyph unicode="&#x2003;" horiz-adv-x="1886" />
<glyph unicode="&#x2004;" horiz-adv-x="628" />
<glyph unicode="&#x2005;" horiz-adv-x="471" />
<glyph unicode="&#x2006;" horiz-adv-x="314" />
<glyph unicode="&#x2007;" horiz-adv-x="314" />
<glyph unicode="&#x2008;" horiz-adv-x="235" />
<glyph unicode="&#x2009;" horiz-adv-x="377" />
<glyph unicode="&#x200a;" horiz-adv-x="104" />
<glyph unicode="&#x2010;" horiz-adv-x="985" d="M160 492l6 45h637l-6 -45h-637z" />
<glyph unicode="&#x2011;" horiz-adv-x="985" d="M160 492l6 45h637l-6 -45h-637z" />
<glyph unicode="&#x2012;" horiz-adv-x="985" d="M160 492l6 45h637l-6 -45h-637z" />
<glyph unicode="&#x2013;" horiz-adv-x="1271" d="M160 492l6 45h924l-7 -45h-923z" />
<glyph unicode="&#x2014;" horiz-adv-x="1906" d="M160 492l6 45h1558l-6 -45h-1558z" />
<glyph unicode="&#x2018;" horiz-adv-x="397" d="M233 1104l21 135q15 110 72 256l28 -10q-29 -110 -47 -230q14 0 10 -20l-18 -131q-2 -23 -27 -23h-22q-19 0 -17 23z" />
<glyph unicode="&#x2019;" horiz-adv-x="395" d="M233 1073q32 118 48 230q-15 0 -11 20l19 131q2 23 26 23h23q18 0 16 -23l-20 -135q-15 -110 -72 -256z" />
<glyph unicode="&#x201a;" horiz-adv-x="419" d="M57 -227q31 104 52 229q-17 0 -13 21l21 131q1 22 26 22h25q17 0 16 -22l-20 -136q-15 -111 -76 -256z" />
<glyph unicode="&#x201c;" horiz-adv-x="630" d="M233 1104l21 135q15 110 72 256l28 -10q-29 -110 -47 -230q14 0 10 -20l-18 -131q-2 -23 -27 -23h-22q-19 0 -17 23zM467 1104l20 135q15 110 72 256l29 -10q-29 -110 -47 -230q14 0 10 -20l-19 -131q-2 -23 -26 -23h-23q-18 0 -16 23z" />
<glyph unicode="&#x201d;" horiz-adv-x="628" d="M233 1073q32 118 48 230q-15 0 -11 20l19 131q2 23 26 23h23q18 0 16 -23l-20 -135q-15 -110 -72 -256zM467 1073q29 110 47 230q-14 0 -10 20l18 131q2 23 27 23h22q19 0 17 -23l-21 -135q-16 -114 -71 -256z" />
<glyph unicode="&#x201e;" horiz-adv-x="649" d="M57 -227q30 111 47 229q-14 0 -10 21l19 131q1 22 26 22h23q17 0 16 -22l-20 -136q-15 -110 -72 -256zM291 -227q30 111 47 229q-14 0 -10 21l18 131q1 22 27 22h22q18 0 17 -22l-21 -136q-15 -110 -72 -256z" />
<glyph unicode="&#x2022;" horiz-adv-x="720" d="M209 541l4 28q11 74 41 98q29 23 108 23h21q71 0 97 -31q26 -30 18 -102l-4 -31q-7 -72 -40 -97q-30 -23 -108 -23h-20q-74 0 -101 30t-16 105z" />
<glyph unicode="&#x2026;" horiz-adv-x="1574" d="M162 27l18 125q4 24 27 24h22q25 0 21 -26l-19 -127q-2 -23 -26 -23h-21q-26 0 -22 27zM739 27l19 125q4 24 26 24h23q24 0 20 -26l-18 -127q-2 -23 -27 -23h-20q-28 0 -23 27zM1317 27l18 125q5 24 27 24h22q25 0 21 -26l-18 -127q-2 -23 -27 -23h-21q-27 0 -22 27z" />
<glyph unicode="&#x202f;" horiz-adv-x="377" />
<glyph unicode="&#x2039;" horiz-adv-x="600" d="M90 506l2 16l391 408l25 -25l-361 -395l248 -395l-26 -21z" />
<glyph unicode="&#x203a;" horiz-adv-x="600" d="M66 119l364 399l-248 391l27 21l278 -410l-2 -16l-395 -410z" />
<glyph unicode="&#x205f;" horiz-adv-x="471" />
<glyph unicode="&#x20ac;" horiz-adv-x="1316" d="M129 565l6 43h197q4 29 12 103q11 80 25 139h-199l6 43h201q66 288 211 416q146 129 416 129q154 0 286 -35l-14 -37q-141 25 -266 25q-236 0 -374 -108q-139 -108 -206 -390h594l-23 -43h-581q-18 -99 -25 -148q-10 -86 -10 -94h530l-22 -43h-512q-22 -301 78 -422 q99 -120 344 -120q172 0 301 26l10 -37q-139 -37 -313 -37q-279 0 -388 142q-108 140 -85 448h-199z" />
<glyph unicode="&#x2122;" horiz-adv-x="1923" d="M256 1386l6 39h633l-6 -39h-295l-102 -739h-46l103 739h-293zM909 647l142 756q6 22 24 22h60q20 0 20 -18l148 -547q5 -19 12 -53q6 -32 14 -53h35q0 1 59 112l295 545q7 14 23 14h61q27 0 23 -26l-70 -752h-45l68 739h-27l-354 -653q-7 -14 -23 -14h-57q-19 0 -23 18 l-176 649h-26l-138 -739h-45z" />
<glyph unicode="&#x25fc;" horiz-adv-x="983" d="M0 0v983h983v-983h-983z" />
<glyph unicode="&#xfb01;" horiz-adv-x="1116" d="M-262 -422l2 37h162q113 0 167 51t70 178l154 1092h-178l6 37l180 10l29 209q18 138 86 205q66 65 205 65q143 0 241 -8l-2 -37h-223q-123 0 -182 -52t-76 -177l-29 -205h623l-139 -983h-50l133 936h-573l-156 -1096q-18 -143 -80 -206q-63 -64 -190 -64q-108 0 -180 8z M948 1241l19 127q2 23 26 23h21q26 0 22 -27l-18 -127q-2 -23 -25 -23h-20q-29 0 -25 27z" />
<glyph unicode="&#xfb02;" horiz-adv-x="1247" d="M-262 -422l2 37h162q113 0 167 51t70 178l154 1092h-178l6 37l180 10l29 209q18 138 86 205q66 65 205 65q381 -8 444 -12l-174 -1255q-24 -162 139 -162h121l2 -33q-39 -12 -131 -12q-96 0 -145 55q-50 56 -35 154l172 1220h-377q-123 0 -182 -52t-76 -177l-29 -205h346 l-8 -47h-344l-156 -1096q-18 -143 -80 -206q-63 -64 -190 -64q-108 0 -180 8z" />
</font>
</defs>
</svg>
