<?xml version="1.0" standalone="no"?>
<!DOCTYPE svg PUBLIC "-//W3C//DTD SVG 1.1//EN" "http://www.w3.org/Graphics/SVG/1.1/DTD/svg11.dtd" >
<svg xmlns="http://www.w3.org/2000/svg" xmlns:xlink="http://www.w3.org/1999/xlink" version="1.1">
<metadata></metadata>
<defs>
<font id="exo_2italic" horiz-adv-x="1173" >
<font-face units-per-em="2048" ascent="1638" descent="-410" />
<missing-glyph horiz-adv-x="456" />
<glyph horiz-adv-x="0" />
<glyph unicode="&#xd;" horiz-adv-x="681" />
<glyph unicode=" "  horiz-adv-x="456" />
<glyph unicode="&#x09;" horiz-adv-x="456" />
<glyph unicode="&#xa0;" horiz-adv-x="456" />
<glyph unicode="!" horiz-adv-x="555" d="M115 68l16 114q7 60 70 60h47q69 0 57 -68l-14 -113q-7 -61 -68 -61h-47q-69 0 -61 68zM186 432l33 365l88 626h172l-88 -626l-67 -365h-138z" />
<glyph unicode="&#x22;" horiz-adv-x="716" d="M203 973l51 440h141l-73 -440h-119zM498 973l51 440h141l-72 -440h-120z" />
<glyph unicode="#" horiz-adv-x="1396" d="M63 436l37 113h238l117 369h-238l39 112h233l121 383h138l-119 -383h375l120 383h138l-119 -383h227l-39 -112h-225l-117 -369h225l-34 -113h-226l-137 -436h-137l137 436h-377l-137 -436h-137l137 436h-240zM475 549h377l117 369h-377z" />
<glyph unicode="$" horiz-adv-x="1155" d="M59 14l23 133q299 -10 352 -10l109 506l-131 47q-145 52 -198 148q-52 94 -30 245q12 95 42 159q31 66 70 104t103 59q63 21 127 27q63 6 158 6h41l43 198h86l-43 -202q144 -6 291 -37l-21 -131q-93 5 -303 10l-106 -496l110 -41q156 -57 206 -146q50 -90 28 -251 q-30 -221 -147 -294t-380 -73h-4l-51 -235h-86l51 237q-163 5 -340 37zM365 1065q-15 -104 14 -145t127 -78l86 -33l100 467h-14q-81 0 -103 -1q-37 -2 -77 -11q-44 -10 -66 -32q-19 -19 -40 -63q-19 -40 -27 -104zM520 137q167 5 232 46q66 42 84 177q15 103 -15 147 q-28 42 -127 79l-71 26z" />
<glyph unicode="%" horiz-adv-x="1830" d="M152 1026q33 229 115 321q83 93 259 93q185 0 248 -99t33 -327q-33 -225 -116 -320q-82 -94 -261 -94q-185 0 -248 99t-30 327zM283 1014q-23 -173 7 -238t134 -65q126 0 175 68q51 72 75 247q24 174 -5 238q-30 65 -139 65q-123 0 -172 -67q-48 -65 -75 -248zM303 0 l1114 1413h135l-1114 -1413h-135zM1055 406q30 224 113 319q82 94 262 94q185 0 248 -99t30 -329q-30 -221 -115 -317q-84 -94 -262 -94q-184 0 -247 99q-62 98 -29 327zM1186 391q-22 -171 6 -237t135 -66q123 0 174 69q52 71 76 249q24 173 -5 237q-30 66 -138 66 q-122 0 -172 -69q-49 -68 -76 -249z" />
<glyph unicode="&#x26;" horiz-adv-x="1546" d="M90 365q22 172 109 265q85 92 243 99l2 10q-256 18 -200 334q38 218 158 289q122 72 376 72q184 0 346 -43l-30 -136q-138 31 -312 31q-188 0 -263 -48t-99 -200q-22 -138 32 -188q53 -49 216 -49h434q6 83 6 264h160q2 -141 -6 -264h227l-23 -137h-219 q-34 -227 -127 -375q-190 -307 -633 -312q-233 -1 -329 88q-95 89 -68 300zM281 381q-23 -144 26 -196t193 -52q324 0 475 223q83 116 112 308h-438q-178 -1 -261 -60q-80 -56 -107 -223z" />
<glyph unicode="'" horiz-adv-x="421" d="M203 973l51 440h141l-73 -440h-119z" />
<glyph unicode="(" horiz-adv-x="729" d="M115 649q56 394 216 629q161 236 453 342l21 -86q-218 -100 -345 -319q-125 -217 -175 -580q-49 -347 11 -567q60 -218 247 -324l-23 -80q-262 106 -361 349q-99 244 -44 636z" />
<glyph unicode=")" horiz-adv-x="729" d="M-61 -254q421 205 520 901q49 350 -13 572q-61 218 -247 317l22 80q262 -105 364 -346q101 -240 44 -641q-57 -391 -218 -626t-454 -343z" />
<glyph unicode="*" horiz-adv-x="917" d="M180 1133l41 98l240 -94l-6 -45l-27 -29zM246 825l243 260l29 330h109l-66 -330l172 -264l-88 -61l-125 252l-192 -250zM604 1092v45l258 94l23 -107l-264 -61z" />
<glyph unicode="+" horiz-adv-x="1120" d="M104 547l19 131h381l51 360h135l-51 -360h381l-19 -131h-380l-52 -363h-133l49 363h-381z" />
<glyph unicode="," horiz-adv-x="464" d="M49 -242q52 159 68 246q-28 -2 -43 13t-11 42l17 121q7 36 23 49t57 13h53q34 0 48 -16q13 -14 7 -52l-18 -131q-18 -143 -115 -315z" />
<glyph unicode="-" horiz-adv-x="915" d="M125 451l18 133h623l-16 -133h-625z" />
<glyph unicode="." horiz-adv-x="460" d="M63 68l17 114q8 60 70 60h57q67 0 59 -68l-14 -113q-10 -61 -70 -61h-57q-73 0 -62 68z" />
<glyph unicode="/" horiz-adv-x="1073" d="M-43 -135l1022 1548h149l-1022 -1548h-149z" />
<glyph unicode="0" horiz-adv-x="1230" d="M145 713q55 391 186 559q130 168 392 168q271 0 359 -175q89 -177 34 -565q-56 -388 -186 -558q-130 -169 -391 -169q-269 0 -359 174q-90 175 -35 566zM319 700q-45 -312 3 -442q46 -127 215 -127q180 0 270 131q90 130 135 451q45 314 -2 442q-46 127 -219 127 q-181 0 -269 -132q-90 -134 -133 -450z" />
<glyph unicode="1" horiz-adv-x="808" d="M135 1268l379 145h180l-198 -1413h-179l158 1124q5 56 25 123l-361 -112z" />
<glyph unicode="2" horiz-adv-x="1140" d="M27 0l16 117q6 51 31 76l477 462q158 152 239 265q78 109 89 213q10 91 -44 118t-190 27q-209 0 -416 -33l-2 139q242 54 432 54q215 0 319 -66t83 -246q-16 -128 -87 -241q-71 -114 -233 -271l-462 -448q98 8 219 8h481l-25 -174h-927z" />
<glyph unicode="3" horiz-adv-x="1126" d="M29 10l22 140q282 -21 377 -15q326 23 369 285q45 250 -238 252l-266 4l18 137h258q151 1 214 74q63 72 75 190q15 121 -36 163q-49 40 -228 40q-155 0 -350 -16l-6 139q221 37 395 37q233 0 324 -81t75 -253q-15 -136 -77 -239q-62 -104 -177 -119l-2 -9 q122 -21 171 -111q50 -93 28 -241q-61 -396 -535 -414q-182 -6 -411 37z" />
<glyph unicode="4" horiz-adv-x="1249" d="M81 423q-42 76 11 159l512 831h182l-512 -840q-49 -79 33 -79h488l59 415l66 234h137l-90 -649h182l-19 -129l-184 -19l-49 -346h-170l47 346h-549q-102 0 -144 77z" />
<glyph unicode="5" horiz-adv-x="1091" d="M33 27l33 145q189 -47 335 -37q341 18 379 309q21 154 -62 208t-325 65l-133 10q-36 4 -57 30q-20 25 -13 62l115 594h750l-31 -153h-594l-74 -386l146 -12q254 -18 366 -114q113 -97 86 -318q-11 -86 -36 -149q-29 -73 -82 -141q-56 -71 -157 -114q-106 -45 -239 -51 q-189 -10 -407 52z" />
<glyph unicode="6" horiz-adv-x="1165" d="M123 285q-15 159 24 411q34 237 86 388q51 149 133 226q81 76 173 102q93 26 237 26q132 0 299 -33l-24 -129q-96 8 -265 8q-148 0 -227 -40q-81 -41 -133 -151q-53 -112 -92 -335q157 160 375 164q193 4 279 -104q85 -108 48 -363q-34 -243 -149 -362 q-114 -118 -367 -118q-194 0 -289 75q-93 74 -108 235zM307 594q-39 -271 4 -368t219 -97q166 0 238 83q72 82 96 257q27 174 -12 242q-38 67 -186 65q-88 -1 -172 -42q-88 -42 -187 -140z" />
<glyph unicode="7" horiz-adv-x="1044" d="M172 1260l12 153h801q64 0 85 -35t-7 -92l-621 -1286h-180l559 1159q38 71 60 101h-709z" />
<glyph unicode="8" horiz-adv-x="1241" d="M104 358q24 174 89 270q63 93 194 105l4 8q-199 24 -155 326q28 201 132 285q103 84 357 82q264 0 349 -88q86 -89 59 -291q-44 -298 -246 -320l-4 -8q233 -24 180 -381q-27 -200 -135 -283q-107 -81 -385 -83q-265 -2 -366 89t-73 289zM279 383q-21 -146 34 -198 t246 -52q182 0 251 56q71 58 89 208q24 164 -27 214q-53 51 -245 51q-189 -1 -257 -54q-67 -52 -91 -225zM395 1038q-21 -142 30 -188q50 -45 230 -45q172 0 232 48q59 47 80 198q21 138 -28 188q-48 49 -226 49q-175 0 -236 -52t-82 -198z" />
<glyph unicode="9" horiz-adv-x="1165" d="M96 8l27 131q106 -10 280 -10q224 6 313 112q88 104 148 423q-86 -94 -168 -132q-83 -38 -194 -40q-215 -2 -291 119q-76 120 -47 347q30 258 154 368q126 112 364 112q274 0 352 -158t15 -563q-38 -235 -85 -377q-48 -143 -127 -225q-80 -83 -175 -111q-98 -29 -248 -29 q-174 0 -318 33zM332 944q-22 -168 22 -239q45 -72 183 -70q96 1 174 42q81 42 180 144q39 269 -3 366t-218 97q-170 0 -242 -78t-96 -262z" />
<glyph unicode=":" horiz-adv-x="481" d="M72 68l16 114q8 60 70 60h57q67 0 59 -68l-14 -113q-10 -61 -70 -61h-57q-72 0 -61 68zM164 729l18 113q6 59 68 59h59q70 0 58 -67l-15 -113q-8 -62 -67 -62h-60q-69 0 -61 70z" />
<glyph unicode=";" horiz-adv-x="489" d="M63 -242q45 141 66 246q-27 -1 -41 13q-15 15 -10 42l16 121q7 35 24 49q16 13 56 13h51q34 0 48 -16q14 -15 8 -52l-17 -131q-22 -149 -114 -315zM166 729l18 113q6 59 68 59h59q70 0 60 -67l-17 -113q-6 -62 -67 -62h-60q-69 0 -61 70z" />
<glyph unicode="&#x3c;" horiz-adv-x="1077" d="M96 541l19 139l882 352l-20 -145l-721 -281l641 -282l-18 -136z" />
<glyph unicode="=" horiz-adv-x="1200" d="M113 317l18 132h897l-18 -132h-897zM172 752l18 129h897l-18 -129h-897z" />
<glyph unicode="&#x3e;" horiz-adv-x="1077" d="M84 190l18 148l721 280l-641 283l21 135l782 -356l-20 -139z" />
<glyph unicode="?" horiz-adv-x="1021" d="M180 1415q3 0 65 11q15 3 29.5 5.5t23 4.5t12.5 2t11.5 1.5t21.5 3.5t25 3q38 5 74 7q28 1 81 3q66 2 108 2q203 0 302 -81t77 -242q-10 -83 -59 -156t-109 -126q-22 -19 -63 -56t-61 -54q-64 -56 -114 -136t-67 -177h-148q12 106 58 193q45 86 106 147q66 66 117 113 q57 53 101 113q45 62 52 122q15 108 -37 151q-51 42 -192 42q-182 0 -412 -21zM324 68l16 112q8 62 70 62h45q69 0 61 -68l-16 -113q-6 -61 -68 -61h-47q-69 0 -61 68z" />
<glyph unicode="@" horiz-adv-x="1581" d="M117 469q24 146 63 236t102 138q62 47 135 64q74 17 187 17q169 0 440 -47l-98 -644q-6 -55 10 -78q16 -24 62 -24q117 0 165 107q49 108 89 419q9 60 21 166q7 63 4 125q-3 53 -8 92q-4 32 -33 61q-27 27 -51 39q-23 11 -81 19q-57 8 -106 9q-33 1 -141 1h-650l15 129 q259 13 639 17q143 1 233 -6q88 -7 165 -35q76 -27 111 -70t55 -123q19 -76 14 -182q-5 -109 -25 -256q-33 -265 -81 -405t-129 -197t-220 -57q-224 0 -230 211q-184 -220 -403 -220q-174 0 -236 120t-18 374zM279 195q24 -72 129 -72q96 0 184 55q91 57 201 176l65 422 q-141 6 -194 6q-210 0 -276 -57q-65 -56 -103 -270q-30 -188 -6 -260z" />
<glyph unicode="A" horiz-adv-x="1267" d="M-61 0l647 1366q15 47 69 47h189q24 0 42 -15q17 -15 19 -38l264 -1360h-180l-76 440h-583l-201 -440h-190zM401 598h484l-99 557q-1 6 -3.5 26t-3.5 33q-5 42 -9 62h-61l-54 -121z" />
<glyph unicode="B" horiz-adv-x="1265" d="M92 0l199 1413q168 17 452 17q260 0 359 -81q74 -61 75 -200q0 -43 -8 -94q-23 -156 -88 -231q-67 -77 -194 -89l-2 -8q237 -20 238 -276q0 -48 -9 -105q-33 -216 -138 -289q-104 -73 -351 -73q-354 0 -533 16zM289 139q110 -2 309 -2q176 0 248 51q71 50 92 201 q7 46 7 84q0 91 -40 131q-55 56 -231 60h-312zM383 801h299q157 1 225 53q67 50 88 193q5 35 5 64q0 88 -41 121q-55 44 -224 44h-286z" />
<glyph unicode="C" horiz-adv-x="1159" d="M139 713q57 403 200 564t445 161q229 0 385 -43l-28 -135q-183 18 -359 18q-212 0 -311 -120q-98 -118 -143 -458q-19 -139 -19 -240q0 -133 33 -201q60 -123 260 -124q215 0 404 23l10 -138q-168 -45 -416 -45q-303 0 -410 173q-70 114 -70 321q0 109 19 244z" />
<glyph unicode="D" horiz-adv-x="1355" d="M92 0l199 1413q264 19 463 19q327 0 438 -162q72 -106 72 -320q0 -111 -19 -250q-33 -231 -82 -370q-50 -142 -135 -218q-86 -77 -191 -104q-101 -26 -276 -26q-201 0 -469 18zM293 143q164 -4 266 -4q123 0 205 22q77 21 138 86t95 174q36 113 62 292q19 130 21 236v12 q0 86 -14 149q-15 65 -58 101t-104 51q-56 14 -154 14q-116 0 -299 -4z" />
<glyph unicode="E" horiz-adv-x="1142" d="M119 281l125 893q17 116 92 178q77 63 205 63q421 0 610 -12l-25 -141h-563q-69 0 -102 -33q-32 -32 -43 -107l-43 -307h608l-18 -139h-609l-53 -391q-3 -21 -3 -38q0 -42 19 -64q27 -31 97 -31h553l-4 -142q-180 -12 -572 -12q-154 0 -223 75q-55 59 -55 155q0 25 4 53z " />
<glyph unicode="F" horiz-adv-x="1099" d="M88 0l162 1165q18 121 95 186q76 64 204 64q422 0 590 -14l-25 -139h-526q-80 0 -116 -30q-35 -29 -46 -110l-47 -329h592l-21 -140h-590l-92 -653h-180z" />
<glyph unicode="G" horiz-adv-x="1277" d="M139 713q28 213 82 362q52 143 140 223q89 82 192 111q109 31 256 31q233 0 405 -45l-26 -133q-167 16 -357 16q-127 0 -208 -23t-142 -88q-62 -67 -96 -176q-35 -111 -57 -291q-14 -134 -14 -234q0 -135 26 -207q46 -126 207 -126q102 0 188 50q87 50 199 161l65 475 h175l-117 -819h-129l4 195q-193 -222 -445 -222q-223 0 -307 178q-56 118 -56 326q0 106 15 236z" />
<glyph unicode="H" horiz-adv-x="1363" d="M92 0l199 1413h182l-82 -582h651l82 582h179l-199 -1413h-178l94 676h-651l-95 -676h-182z" />
<glyph unicode="I" horiz-adv-x="534" d="M92 0l199 1413h182l-199 -1413h-182z" />
<glyph unicode="J" horiz-adv-x="694" d="M-18 8l34 127h97q165 0 188 158l156 1120h182l-160 -1120q-21 -155 -99 -233t-208 -78q-109 0 -190 26z" />
<glyph unicode="K" horiz-adv-x="1214" d="M92 0l199 1413h180l-63 -444q-12 -81 -33 -160h166l506 604h219l-492 -586q-56 -63 -96 -90v-8q33 -39 67 -102l349 -627h-205l-363 664h-174q0 -95 -10 -154l-70 -510h-180z" />
<glyph unicode="L" horiz-adv-x="1042" d="M131 291l154 1122h182l-158 -1128q-3 -18 -3 -34q0 -99 116 -99h512l-4 -142q-178 -12 -547 -12q-135 0 -204 76q-53 58 -53 155q0 29 5 62z" />
<glyph unicode="M" horiz-adv-x="1794" d="M66 0l243 1341q12 72 80 72h199q57 0 67 -65l152 -861q6 -30 27 -192h38q16 41 80 190l383 869q24 58 84 59h201q70 0 70 -69v-11l-129 -1333h-181l131 1264h-41l-460 -1045q-24 -59 -84 -59h-162q-64 0 -76 65l-178 1039h-41l-225 -1264h-178z" />
<glyph unicode="N" horiz-adv-x="1439" d="M92 0l189 1346q12 67 75 67h160q52 0 74 -61l344 -975q47 -138 65 -205h39q6 112 21 207l141 1034h178l-190 -1345q-8 -68 -72 -68h-164q-51 0 -73 61l-355 1002q-40 109 -55 182h-35q-2 -88 -16 -186l-146 -1059h-180z" />
<glyph unicode="O" horiz-adv-x="1363" d="M139 713q55 400 200 564q144 163 454 163q296 0 407 -169q72 -111 73 -323q0 -110 -20 -248q-56 -410 -198 -567q-145 -160 -447 -160q-298 0 -411 167q-76 113 -76 332q0 108 18 241zM328 700q-19 -138 -19 -239q0 -135 34 -204q60 -122 269 -122q211 0 310 125 q98 123 145 453q21 144 21 248q0 132 -34 198q-60 119 -272 119q-214 0 -312 -123q-97 -122 -142 -455z" />
<glyph unicode="P" horiz-adv-x="1204" d="M92 0l199 1413q185 19 479 19q248 0 341 -102q67 -74 67 -225q0 -56 -9 -122q-38 -263 -143 -349q-106 -87 -356 -87q-178 0 -318 20l-80 -567h-180zM371 702h293q167 0 234 61q66 60 93 234q8 54 8 97q0 87 -33 125q-50 57 -202 57q-203 0 -313 -2z" />
<glyph unicode="Q" horiz-adv-x="1363" d="M139 713q55 400 200 564q144 163 454 163q296 0 407 -169q72 -111 72 -323q0 -110 -19 -248q-56 -410 -198 -567q-145 -160 -447 -160q-298 0 -411 167q-76 113 -76 332q0 108 18 241zM328 700q-19 -138 -19 -239q0 -134 34 -204q60 -122 269 -122q211 0 310 125 q98 123 145 453q21 144 21 248q0 132 -34 198q-60 119 -272 119q-214 0 -312 -123q-97 -122 -142 -455zM426 -197l70 107q225 -112 526 -158l-72 -180q-293 68 -524 231z" />
<glyph unicode="R" horiz-adv-x="1265" d="M92 0l199 1413q185 19 479 19q232 0 337 -94q80 -72 79 -226q0 -45 -6 -96q-24 -164 -99 -252q-75 -87 -217 -105l-2 -10q117 -33 150 -207l90 -442h-184l-84 446q-15 77 -53 111q-37 33 -107 33l-322 2l-84 -592h-176zM375 745h301q156 1 228 61q70 58 93 216q6 45 6 81 q0 84 -34 120q-50 53 -203 53q-207 0 -317 -2z" />
<glyph unicode="S" horiz-adv-x="1146" d="M53 14l23 133q287 -10 383 -10h26q184 0 255 41t89 182q5 36 5 65q0 56 -19 83q-29 41 -127 78l-280 104q-144 52 -198 147q-38 67 -38 164q0 38 6 82q12 95 42 159q31 66 70 104t103 59q63 21 127 27q63 6 158 6q259 -5 418 -41l-19 -131q-220 10 -403 10q-81 0 -104 -1 q-38 -2 -78 -11q-44 -10 -66 -32q-19 -19 -40 -63q-21 -43 -28 -104q-5 -33 -5 -60q0 -54 20 -84q28 -42 127 -79l276 -103q156 -57 206 -146q35 -62 35 -159q0 -43 -7 -92q-30 -221 -147 -294t-380 -73q-218 0 -430 39z" />
<glyph unicode="T" d="M133 1253l23 160h1089l-20 -160h-457l-176 -1253h-180l176 1253h-455z" />
<glyph unicode="U" horiz-adv-x="1359" d="M160 547l119 866h182l-123 -874q-12 -81 -12 -144q0 -115 39 -172q60 -88 241 -88q189 0 279 92q90 91 123 320l118 866h183l-123 -874q-45 -308 -176 -437q-130 -129 -400 -129q-276 0 -385 135q-78 95 -78 278q0 73 13 161z" />
<glyph unicode="V" horiz-adv-x="1239" d="M141 1413h183l178 -1122q15 -88 20 -156h53q30 82 64 162l491 1116h191l-625 -1366q-18 -47 -69 -47h-181q-54 0 -61 55z" />
<glyph unicode="W" horiz-adv-x="1931" d="M170 1413h184l66 -1104q0 -9 6 -176h49l60 182l362 1041q17 57 74 57h194q24 0 42 -18q19 -19 20 -45l84 -1043q8 -122 8 -174h51l55 178l371 1102h189l-482 -1364q-16 -49 -73 -49h-201q-28 0 -45 16q-20 18 -21 43l-73 1063q0 1 -1 9t-2.5 24t-2.5 33q-1 16 -2.5 35.5 t-3 32.5t-1.5 22h-43l-55 -164l-367 -1063q-16 -51 -73 -51h-199q-27 0 -46 16q-21 17 -22 41z" />
<glyph unicode="X" horiz-adv-x="1247" d="M-37 0l504 731l-274 682h184l237 -610h58l420 610h198l-471 -682l297 -731h-184l-260 664h-56l-444 -664h-209z" />
<glyph unicode="Y" horiz-adv-x="1157" d="M131 1413h184l213 -600q31 -93 41 -160h17q27 76 84 166l381 594h196l-598 -919l-69 -494h-183l72 502z" />
<glyph unicode="Z" horiz-adv-x="1150" d="M12 0l21 154l905 1106h-739l22 153h940l-22 -153l-908 -1106h766l-22 -154h-963z" />
<glyph unicode="[" horiz-adv-x="665" d="M68 -225l237 1691q6 50 39 78q34 29 82 29h295l-16 -115h-201q-16 0 -27 -11q-13 -13 -14 -26l-227 -1616q-4 -28 20 -28h213l-16 -115h-287q-52 0 -79 29q-27 28 -19 84z" />
<glyph unicode="\" horiz-adv-x="1040" d="M162 1413h137l592 -1548h-137z" />
<glyph unicode="]" horiz-adv-x="665" d="M-51 -338l14 115h201q36 0 43 37l227 1616q4 28 -22 28h-211l16 115h285q49 0 79 -33q29 -32 21 -80l-237 -1691q-6 -48 -40 -77q-35 -30 -81 -30h-295z" />
<glyph unicode="^" horiz-adv-x="872" d="M102 799l373 432h127l252 -434l-76 -43l-239 356h-17l-350 -356z" />
<glyph unicode="_" horiz-adv-x="1189" d="M47 -133l19 133h897l-21 -133h-895z" />
<glyph unicode="`" horiz-adv-x="643" d="M162 1358l94 123l348 -301l-63 -78z" />
<glyph unicode="a" d="M104 510q22 165 63 269q41 105 105 156q65 52 140 70q69 17 190 17q220 0 469 -47l-137 -975h-137l12 201q-193 -226 -444 -226q-181 0 -242 120q-37 71 -37 203q0 92 18 212zM271 199q24 -72 128 -72q179 0 408 223l74 520q-171 7 -226 7q-206 0 -273 -67 q-65 -65 -103 -314q-18 -131 -18 -210q0 -58 10 -87z" />
<glyph unicode="b" d="M76 47l194 1387h172l-55 -414q-22 -152 -53 -244q100 105 220 175q121 71 224 71q177 0 241 -115q37 -67 37 -206q0 -92 -16 -214q-23 -168 -62 -270q-40 -104 -105 -157q-62 -50 -133 -69q-69 -18 -177 -18q-244 0 -487 74zM260 129q124 -10 240 -10q201 0 265 67 t97 314q16 126 16 204q0 65 -11 96q-25 70 -130 70q-151 0 -405 -225z" />
<glyph unicode="c" horiz-adv-x="991" d="M94 506q40 284 161 400t376 116q197 0 319 -49l-28 -109q-106 10 -263 10q-190 0 -271 -77q-84 -79 -112 -305q-10 -76 -9 -135q0 -114 35 -162q54 -72 233 -72q176 0 299 20l12 -118q-159 -50 -342 -50q-262 0 -357 122q-65 84 -65 249q0 73 12 160z" />
<glyph unicode="d" horiz-adv-x="1171" d="M102 510q23 159 64 267q40 106 103 157q65 53 135 71q67 17 180 17q132 0 323 -25q4 96 17 191l34 246h175l-201 -1434h-137l14 217q-221 -242 -465 -242q-157 0 -220 123q-38 74 -38 209q0 89 16 203zM270 204q23 -77 123 -77q97 0 193 54t223 175l70 518q-218 5 -230 5 q-109 0 -166 -12q-58 -12 -101 -55q-44 -44 -65 -115q-19 -64 -38 -201q-18 -128 -18 -206q0 -56 9 -86z" />
<glyph unicode="e" horiz-adv-x="1099" d="M98 522q40 291 159 396q117 104 386 104q227 0 312 -79q65 -61 66 -169q0 -34 -7 -72q-24 -140 -112 -202q-86 -61 -267 -76l-369 -33v-18q0 -141 60 -195q62 -55 206 -55q176 0 367 24l12 -116q-142 -56 -407 -56q-255 0 -350 131q-67 93 -67 263q0 70 11 153zM279 520 l354 35q101 7 148 42q46 34 61 120q4 26 4 47q0 65 -37 85q-51 28 -188 28q-169 0 -238 -69q-70 -70 -104 -288z" />
<glyph unicode="f" horiz-adv-x="772" d="M-246 -397l27 131h156q98 0 142 35q43 34 58 135l133 956h-178l17 127l182 8l24 185q40 288 324 288q182 0 283 -14l-27 -129h-201q-100 0 -146 -36t-61 -136l-22 -156h319l-20 -137h-318l-139 -983q-39 -289 -315 -289q-107 0 -238 15z" />
<glyph unicode="g" horiz-adv-x="1177" d="M31 -399l18 116q91 -4 189 -4q66 0 135 2q339 10 389 269q40 193 82 258q-92 -121 -217 -193q-128 -74 -267 -74q-167 0 -233 120q-39 71 -39 205q0 90 18 210q23 163 65 269q41 104 103 156q61 51 134 70q65 17 178 17q234 0 487 -47h4l-139 -957q-52 -438 -567 -450 q-29 -1 -57 -1q-160 0 -283 34zM273 200q24 -73 128 -73q177 0 408 225l78 518q-177 7 -236 7q-200 0 -267 -67q-66 -66 -101 -314q-19 -133 -19 -212q0 -55 9 -84z" />
<glyph unicode="h" horiz-adv-x="1183" d="M72 0l202 1434h175l-56 -402q-16 -130 -47 -246q271 236 473 236q128 0 191 -71q49 -55 49 -149q0 -27 -4 -57l-107 -745h-174l100 702q4 32 4 58q0 52 -16 77q-24 37 -96 37q-89 0 -184 -53q-94 -53 -246 -174l-90 -647h-174z" />
<glyph unicode="i" horiz-adv-x="503" d="M82 0l139 997h172l-139 -997h-172zM250 1255l16 115q6 51 56 51h81q27 0 40 -16q14 -18 10 -41l-15 -117q-7 -49 -57 -49h-80q-52 0 -52 47q0 5 1 10z" />
<glyph unicode="j" horiz-adv-x="503" d="M-84 -338q138 146 162 318l143 1017h172l-143 -1026q-15 -119 -79 -220q-64 -100 -161 -169zM250 1255l16 115q6 51 56 51h81q27 0 40 -16q14 -18 10 -41l-15 -117q-7 -49 -57 -49h-80q-52 0 -52 47q0 5 1 10z" />
<glyph unicode="k" horiz-adv-x="1067" d="M74 0l200 1434h175l-93 -693q-18 -121 -61 -237q205 91 350 217q150 130 195 276h178q-89 -271 -338 -444q30 -51 59 -115l197 -438h-186l-203 471q-97 -53 -248 -115l-53 -356h-172z" />
<glyph unicode="l" horiz-adv-x="600" d="M109 240l167 1194h175l-164 -1164q-3 -21 -3 -38q0 -40 18 -61q25 -30 97 -30h101l6 -135q-60 -24 -180 -24q-117 0 -175 68q-45 54 -45 140q0 24 3 50z" />
<glyph unicode="m" horiz-adv-x="1785" d="M72 0l141 997h133l-12 -217q242 242 436 242q116 0 178 -60q58 -57 58 -154v-13q228 227 417 227q132 0 192 -74q46 -57 46 -146q0 -27 -4 -57l-105 -745h-172l99 702q3 27 3 50q0 56 -21 84q-29 38 -103 38t-151 -48q-73 -46 -220 -179l-90 -647h-168l98 702q4 30 4 54 q0 52 -18 79q-26 39 -106 39q-75 0 -152 -48q-73 -46 -219 -175l-90 -651h-174z" />
<glyph unicode="n" horiz-adv-x="1183" d="M72 0l141 997h139l-14 -219q276 244 481 244q128 0 191 -71q49 -55 49 -149q0 -27 -4 -57l-107 -745h-174l100 702q4 32 4 58q0 52 -16 77q-24 37 -96 37q-90 0 -185 -53q-92 -51 -245 -172l-90 -649h-174z" />
<glyph unicode="o" horiz-adv-x="1155" d="M94 504q40 281 161 400q119 118 374 118t349 -123q66 -86 67 -252q0 -72 -13 -158q-39 -283 -160 -399q-122 -117 -370 -117q-252 0 -349 123q-70 89 -70 259q0 68 11 149zM276 489q-12 -82 -11 -143q0 -99 29 -147q48 -78 208 -78q168 0 244 82q78 84 108 301 q12 84 12 147q0 99 -29 146q-47 77 -208 77q-169 0 -245 -79q-78 -81 -108 -306z" />
<glyph unicode="p" horiz-adv-x="1177" d="M12 -416l203 1413h137l-14 -221q95 101 221 174q125 72 227 72q180 0 240 -116q35 -66 35 -196q0 -94 -19 -223q-23 -169 -62 -269q-42 -106 -104 -157q-63 -52 -137 -70q-72 -18 -184 -18q-141 0 -315 27q-4 -94 -17 -190l-35 -226h-176zM266 123q150 -6 226 -6 q207 0 273 66q67 67 101 317q17 130 17 208q0 61 -10 91q-24 71 -125 71q-75 0 -186 -60t-224 -167z" />
<glyph unicode="q" horiz-adv-x="1167" d="M102 510q22 163 63 268q41 106 102 157q62 52 130 70q64 17 172 17q249 0 496 -70l-195 -1368h-174l58 391q23 147 61 250q-217 -250 -463 -250q-159 0 -225 119q-41 73 -41 214q0 88 16 202zM272 202q24 -75 129 -75q99 0 186 51q86 50 222 176l70 514q-134 11 -242 11 q-194 0 -260 -68q-65 -66 -98 -315q-17 -125 -17 -203q0 -59 10 -91z" />
<glyph unicode="r" horiz-adv-x="815" d="M72 0l141 997h133l-14 -231q259 256 459 256h51l-43 -164h-51q-84 0 -173 -49q-84 -46 -239 -164l-90 -645h-174z" />
<glyph unicode="s" horiz-adv-x="1036" d="M43 6l20 127q117 -10 320 -10q191 1 258 24q68 23 80 93q6 38 -8 61q-15 24 -33 36q-10 7 -66 32q-16 6 -22 10l-279 123q-109 50 -156 114q-36 49 -36 127q0 20 2 43q18 141 117 190q94 46 272 46h29q232 -5 420 -31l-23 -125q-357 11 -393 11q-143 0 -194 -17 q-50 -17 -58 -86q-2 -14 -1 -26q0 -39 19 -58q26 -26 103 -61l278 -123q122 -52 168 -113q35 -46 35 -119q0 -24 -4 -51q-7 -64 -35 -110t-62 -72q-34 -25 -97 -41q-51 -13 -120 -18q-67 -5 -153 -5q-52 0 -124 4q-20 1 -47 3t-34 2q-26 1 -85 9q-20 3 -50 6.5t-41 4.5z" />
<glyph unicode="t" horiz-adv-x="772" d="M86 860l16 127l187 8l41 297h172l-41 -295h317l-20 -137h-318l-82 -590q-3 -20 -3 -37q0 -42 18 -63q24 -29 96 -29h156l6 -133q-91 -26 -223 -26q-131 0 -187 71q-43 55 -43 142q0 28 4 59l86 606h-182z" />
<glyph unicode="u" horiz-adv-x="1161" d="M102 252l105 745h174l-100 -702q-5 -32 -5 -57q0 -48 18 -74q27 -39 105 -39q88 0 174 53q85 52 226 178l88 641h174l-139 -997h-136l15 217q-252 -244 -461 -244q-135 0 -197 74q-46 55 -46 142q0 30 5 63z" />
<glyph unicode="v" horiz-adv-x="1087" d="M92 997h182l152 -860h33q36 0 62 13q22 11 50 47q72 98 154 292q104 228 154 508h180q-59 -285 -191 -579q-91 -202 -174 -314q-40 -54 -83 -79q-44 -25 -113 -25h-154q-46 0 -57 47z" />
<glyph unicode="w" horiz-adv-x="1740" d="M92 997h180l142 -860h26q56 0 97 72q61 107 112 280q58 177 107 465q6 43 49 43h190q40 0 45 -41l101 -819h24q44 0 84 64q91 143 146 288q83 211 133 508h182q-78 -342 -182 -579q-96 -219 -176 -320q-38 -48 -80 -74q-39 -24 -96 -24h-115q-47 0 -55 47l-95 836h-26 q-23 -209 -94 -437q-62 -199 -138 -317q-73 -129 -219 -129h-102q-45 0 -56 47z" />
<glyph unicode="x" horiz-adv-x="1077" d="M-39 0l408 516l-240 481h174l197 -411h57l320 411h188l-377 -483l260 -514h-176l-221 451h-47l-348 -451h-195z" />
<glyph unicode="y" horiz-adv-x="1103" d="M72 -297q125 29 224 96q98 67 193 201h-90q-44 0 -75 26t-41 66l-193 905h182l158 -821q10 -39 47 -39h98l20 39q5 10 12 23.5t9 17.5q193 378 275 780h180q-108 -481 -303 -831q-158 -293 -308 -422q-149 -128 -356 -166z" />
<glyph unicode="z" horiz-adv-x="1032" d="M12 0l19 141l733 713h-623l19 143h825l-18 -143l-734 -713h639l-20 -141h-840z" />
<glyph unicode="{" horiz-adv-x="651" d="M92 610l17 127q47 14 65 21q16 7 37 23q24 19 31 43q8 28 14 75l57 406q18 149 108 216t275 52l-6 -111q-104 0 -153 -42q-50 -43 -62 -136l-51 -366q-17 -129 -58 -178t-157 -70q104 -34 136 -86t17 -158l-67 -483q-15 -96 18 -133t138 -37l-7 -111q-180 -15 -259 57 q-79 71 -56 218l74 524q10 72 -10 95q-19 22 -89 50q-2 0 -4.5 1t-4.5 2t-3 1z" />
<glyph unicode="|" horiz-adv-x="501" d="M53 -346l273 1945h129l-273 -1945h-129z" />
<glyph unicode="}" horiz-adv-x="653" d="M-49 -338l6 111q104 0 153 41q48 40 60 135l70 485q17 111 59 156q44 47 164 84q-104 21 -134 72q-32 53 -14 180l54 366q12 94 -20 132t-138 38l8 111q180 15 258 -60q76 -73 58 -215l-58 -407q-12 -92 4 -113q17 -21 99 -45l-17 -127q-44 -16 -64 -24q-16 -6 -41 -24 q-27 -19 -35 -41q-9 -24 -15 -64l-72 -523q-21 -150 -108 -216q-88 -67 -277 -52z" />
<glyph unicode="~" horiz-adv-x="1069" d="M135 471q1 120 54 183t128 59q80 -5 215 -60q133 -55 191 -61q56 -6 82 20t37 93l88 -7q-1 -117 -52 -180q-50 -62 -128 -57q-98 5 -227 60q-132 56 -181 61q-55 6 -82 -23q-28 -29 -35 -96z" />
<glyph unicode="&#xa1;" horiz-adv-x="522" d="M35 -401l86 614l69 365h138l-35 -365l-86 -614h-172zM209 836l14 112q8 62 70 62h47q69 0 57 -68l-14 -113q-10 -61 -70 -61h-45q-71 0 -59 68z" />
<glyph unicode="&#xa2;" horiz-adv-x="1034" d="M125 719q40 284 161 400t376 116h22l41 178h86l-43 -182q127 -10 211 -45l-27 -109q-113 10 -219 10l-166 -751q159 0 297 22l13 -120q-158 -50 -345 -50h-4l-43 -188h-86l45 193q-208 18 -282 141q-74 124 -37 385zM307 707q-27 -198 11 -277q37 -78 163 -90l166 747 q-162 -6 -238 -86q-75 -79 -102 -294z" />
<glyph unicode="&#xa3;" horiz-adv-x="1163" d="M39 0l20 156q198 92 222 385l12 151h-162l14 107h156l23 272q21 224 121 295q102 72 311 72q162 0 368 -21l-20 -143q-227 8 -354 8q-128 0 -185 -48q-56 -48 -67 -173l-21 -262h436l-20 -107h-424l-12 -155q-12 -143 -59 -234q-48 -92 -144 -158q52 9 133 9h612 l-20 -154h-940z" />
<glyph unicode="&#xa4;" horiz-adv-x="1220" d="M106 342l160 141q-59 103 -41 244q18 153 109 256l-139 158l81 76l140 -162q108 69 252 69q148 0 243 -77l160 143l72 -86l-160 -139q63 -105 45 -250q-18 -150 -106 -250l141 -158l-80 -74l-141 160q-109 -74 -258 -74q-146 0 -246 80l-158 -141zM330 715 q-15 -133 54 -213q70 -81 198 -82q140 -2 232 82q93 84 108 227q15 131 -56 214q-69 81 -202 81q-140 0 -229 -84t-105 -225z" />
<glyph unicode="&#xa5;" horiz-adv-x="1259" d="M139 326l13 104h358l12 88l-14 37h-336l12 107h283l-285 751h183l215 -584q31 -94 41 -159h18q28 79 86 166l377 577h196l-497 -751h284l-14 -107h-340l-31 -45l-10 -80h365l-17 -104h-362l-47 -326h-180l47 326h-357z" />
<glyph unicode="&#xa6;" horiz-adv-x="501" d="M53 -346l115 819h129l-115 -819h-129zM211 780l117 819h127l-115 -819h-129z" />
<glyph unicode="&#xa7;" horiz-adv-x="1114" d="M16 -307l23 137q199 -13 383 -14q71 0 112 3q39 3 83 15t66 40t28 73q10 67 -17 108q-28 42 -84 76l-307 186q-135 78 -159 193q-24 114 42 281h127q-33 -128 -16 -207t104 -131l328 -203q95 -61 139 -132t27 -190q-24 -161 -125 -211q-99 -49 -307 -49q-258 5 -447 25z M209 1184q21 154 121 205t307 51q271 -5 450 -25l-22 -135q-122 9 -381 10q-157 2 -217 -20q-64 -23 -76 -105q-10 -65 17 -106q28 -42 86 -78l311 -190q130 -79 153 -197t-40 -283h-127q32 127 14 213q-18 85 -105 138l-325 202q-99 62 -141 132t-25 188z" />
<glyph unicode="&#xa8;" horiz-adv-x="841" d="M279 1257l16 115q7 49 57 49h54q52 0 45 -49l-17 -112q-6 -50 -55 -50h-57q-49 0 -43 47zM625 1257l16 115q10 49 57 49h54q55 0 45 -49l-17 -112q-6 -50 -55 -50h-57q-49 0 -43 47z" />
<glyph unicode="&#xa9;" horiz-adv-x="1708" d="M135 713q39 316 261 522q221 205 554 205q325 0 511 -206q187 -206 143 -534q-40 -318 -265 -523q-223 -204 -555 -204q-330 0 -510 209q-180 208 -139 531zM229 700q-34 -286 121 -461q156 -176 432 -176q291 0 492 183t235 467q35 279 -118 457q-154 180 -435 180 q-293 0 -491 -183q-199 -184 -236 -467zM481 719q34 251 139 348q104 96 332 96q133 0 258 -28l-20 -99q-122 8 -225 8q-180 0 -249 -65q-72 -67 -100 -274q-27 -185 18 -256q44 -70 187 -70q191 0 293 12l8 -100q-135 -31 -280 -31q-238 0 -317 100q-79 99 -44 359z" />
<glyph unicode="&#xaa;" horiz-adv-x="913" d="M162 899q15 112 45 184q29 70 79 106q46 33 96 44q46 10 124 10q172 0 338 -35l-90 -653h-109l4 119q-123 -133 -289 -133q-125 0 -175 80t-23 278zM296 703q20 -44 91 -44q109 0 268 136l47 335l-151 3q-138 0 -185 -41q-46 -40 -69 -201q-21 -144 -1 -188z" />
<glyph unicode="&#xab;" horiz-adv-x="976" d="M76 504l2 39l383 397l71 -66l-313 -362l223 -373l-88 -59zM446 504l5 39l380 397l72 -66l-313 -362l223 -373l-86 -59z" />
<glyph unicode="&#xac;" horiz-adv-x="1202" d="M139 543l19 133h897l-58 -404h-133l39 271h-764z" />
<glyph unicode="&#xad;" horiz-adv-x="915" d="M123 451l18 133h625l-18 -133h-625z" />
<glyph unicode="&#xae;" horiz-adv-x="1134" d="M166 993q22 204 158 325q135 120 338 120q200 0 318 -123q118 -122 95 -340q-22 -207 -154 -328q-131 -121 -335 -121q-212 0 -327 129q-116 129 -93 338zM227 985q-21 -190 79 -297q99 -106 280 -106q183 0 297 111t131 296q18 187 -79 289t-276 102q-186 0 -300 -108 t-132 -287zM377 721l76 528q73 6 219 6q104 0 154 -30t38 -129q-6 -58 -34 -88q-26 -28 -91 -43v-4q36 -17 52 -78l43 -162h-86l-39 164q-15 53 -72 53l-148 2l-30 -219h-82zM498 999h135q75 1 109 21q32 19 40 82q7 55 -16 73q-23 17 -96 17l-146 -2z" />
<glyph unicode="&#xaf;" horiz-adv-x="819" d="M229 1247l17 129h571l-16 -129h-572z" />
<glyph unicode="&#xb0;" horiz-adv-x="743" d="M188 1188q7 112 88 182t195 70q120 0 188 -77q69 -78 58 -192q-11 -115 -90 -184t-195 -69q-123 0 -188 78q-66 80 -56 192zM297 1182q-6 -72 33 -116t108 -44q70 0 116 43t52 113q6 69 -32 113t-109 44q-67 0 -114 -42t-54 -111z" />
<glyph unicode="&#xb1;" horiz-adv-x="1198" d="M86 143l18 129h897l-18 -129h-897zM160 670l18 131h381l39 272h135l-39 -272h381l-18 -131h-381l-39 -275h-133l39 275h-383z" />
<glyph unicode="&#xb2;" horiz-adv-x="839" d="M143 737l11 88q8 45 22 56l285 256q193 170 203 270q4 46 -27 60t-111 14q-128 0 -264 -19v107q144 30 279 30t202 -41q71 -43 56 -151q-11 -78 -51 -141q-41 -64 -142 -156l-278 -250q59 8 135 8h291l-19 -131h-592z" />
<glyph unicode="&#xb3;" horiz-adv-x="806" d="M141 743l17 107q208 -10 237 -8q195 15 217 151q12 67 -19 101t-122 36h-168l14 105h162q93 0 127 37q36 39 43 104q8 65 -21 85q-31 22 -136 22q-121 0 -224 -10l-2 106q155 23 256 23q145 0 206 -52q60 -51 50 -151q-7 -77 -46 -145q-38 -66 -109 -72l-2 -4 q154 -24 127 -209q-38 -238 -345 -248q-109 -2 -262 22z" />
<glyph unicode="&#xb4;" horiz-adv-x="643" d="M207 1182l393 301l84 -135l-424 -246z" />
<glyph unicode="&#xb6;" horiz-adv-x="1208" d="M123 938q39 280 192 390q154 110 490 110q186 0 321 -35l-196 -1403h-135l186 1315q-102 8 -201 8l-245 -1753h-134l119 842q-244 24 -338 151q-94 126 -59 375z" />
<glyph unicode="&#xb7;" horiz-adv-x="477" d="M127 475l16 113q7 61 70 61h57q68 0 60 -69l-15 -111q-7 -61 -69 -61h-58q-68 0 -61 67z" />
<glyph unicode="&#xb8;" horiz-adv-x="479" d="M-63 -469l32 92q84 -2 143 40q60 42 72 110q6 35 -14 45q-21 11 -94 12l20 82q127 12 178 -18q52 -30 35 -123q-21 -126 -124 -193q-104 -68 -248 -47z" />
<glyph unicode="&#xb9;" horiz-adv-x="585" d="M193 1499l241 86h135l-118 -848h-136l93 643q6 51 16 82l-229 -63z" />
<glyph unicode="&#xba;" horiz-adv-x="903" d="M158 899q27 192 108 267q83 77 262 77q187 0 254 -82t39 -276q-27 -192 -109 -268t-261 -76q-182 0 -251 83t-42 275zM293 885q-18 -139 14 -186q33 -48 146 -48q111 0 162 54q50 53 71 194q21 137 -13 186q-35 50 -145 50q-119 0 -166 -53t-69 -197z" />
<glyph unicode="&#xbb;" horiz-adv-x="978" d="M49 139l313 363l-223 375l86 57l281 -422l-4 -41l-381 -395zM420 139l313 363l-223 375l88 57l279 -422l-3 -41l-382 -395z" />
<glyph unicode="&#xbc;" horiz-adv-x="1757" d="M174 1325l250 88h137l-119 -848h-137l90 649q5 30 17 80l-236 -63zM186 0l1117 1413h127l-1115 -1413h-129zM916 237q-23 36 12 99l332 512h135l-320 -500q-12 -17 -6 -29t29 -12h307l33 240l43 139h106l-53 -379h106l-14 -96l-106 -10l-29 -201h-127l27 199h-396 q-55 0 -79 38z" />
<glyph unicode="&#xbd;" horiz-adv-x="1798" d="M174 0l1114 1413h127l-1114 -1413h-127zM174 1325l250 88h135l-119 -848h-137l92 649q5 30 17 80l-236 -63zM983 0l12 80q4 38 25 59l299 254q192 162 213 271q7 52 -26 67q-32 14 -120 14q-146 0 -278 -16l-4 102q150 31 287 31q167 0 237 -41q69 -41 51 -159 q-18 -132 -204 -291l-306 -252q69 6 144 2h327l-18 -121h-639z" />
<glyph unicode="&#xbe;" horiz-adv-x="1949" d="M113 567l10 103q127 -11 258 -11q116 0 168 37q53 38 65 125q8 65 -21 98t-134 33h-178l12 103h172q168 1 186 147q11 66 -22 87q-35 22 -140 22q-155 0 -249 -8l-4 100q130 20 268 20q173 0 236 -45q62 -45 46 -157q-12 -91 -51 -143t-125 -64l-12 -6q93 -15 128 -68 t24 -152q-16 -129 -92 -186q-75 -57 -240 -57q-136 0 -305 22zM397 0l1116 1413h127l-1114 -1413h-129zM1107 237q-24 37 11 99l332 512h135l-319 -500q-12 -17 -6 -29t28 -12h301l35 240l43 139h107l-54 -379h111l-14 -96l-113 -10l-27 -201h-129l27 199h-389q-55 0 -79 38 z" />
<glyph unicode="&#xbf;" horiz-adv-x="1011" d="M-23 -111q10 83 59 156q49 74 110 126q44 38 125 111q65 59 114 135q52 81 68 171h145q-12 -106 -58 -192q-45 -85 -105 -146q-67 -69 -114 -112q-61 -56 -102 -111q-44 -59 -55 -123q-16 -98 38 -145q53 -46 191 -46q216 0 412 19l2 -125q-3 0 -65 -11 q-15 -3 -29.5 -5.5t-23 -4.5t-12.5 -2t-11.5 -1.5t-20.5 -3t-25 -3.5q-37 -5 -75 -7q-28 -1 -81 -3q-66 -2 -108 -2q-206 0 -301 88q-96 88 -78 237zM475 848l17 115q6 59 67 59h45q70 0 62 -68l-17 -112q-8 -62 -69 -62h-43q-70 0 -62 68z" />
<glyph unicode="&#xc0;" horiz-adv-x="1267" d="M-61 0l647 1366q15 47 69 47h189q24 0 42 -15q17 -15 19 -38l264 -1360h-180l-76 440h-583l-201 -440h-190zM401 598h484l-99 557q-1 6 -3.5 26t-3.5 33q-5 42 -9 62h-61l-54 -121zM434 1747l94 123l346 -301l-61 -78z" />
<glyph unicode="&#xc1;" horiz-adv-x="1267" d="M-61 0l647 1366q15 47 69 47h189q24 0 42 -15q17 -15 19 -38l264 -1360h-180l-76 440h-583l-201 -440h-190zM401 598h484l-99 557q-1 6 -3.5 26t-3.5 33q-5 42 -9 62h-61l-54 -121zM641 1573l393 299l84 -133l-422 -248z" />
<glyph unicode="&#xc2;" horiz-adv-x="1267" d="M-61 0l647 1366q15 47 69 47h189q24 0 42 -15q17 -15 19 -38l264 -1360h-180l-76 440h-583l-201 -440h-190zM401 598h484l-99 557q-1 6 -3.5 26t-3.5 33q-5 42 -9 62h-61l-54 -121zM444 1575l304 260h124l252 -270l-63 -70l-246 207h-16l-305 -203z" />
<glyph unicode="&#xc3;" horiz-adv-x="1267" d="M-61 0l647 1366q15 47 69 47h189q24 0 42 -15q17 -15 19 -38l264 -1360h-180l-76 440h-583l-201 -440h-190zM401 598h484l-99 557q-1 6 -3.5 26t-3.5 33q-5 42 -9 62h-61l-54 -121zM453 1571q6 118 57 178q50 59 127 53q69 -6 154 -57t135 -57q61 -6 88 20q30 28 37 88 l82 -8q-4 -111 -55 -172q-49 -59 -128 -53q-80 6 -168 58t-125 58q-58 6 -85 -22q-26 -28 -37 -92z" />
<glyph unicode="&#xc4;" horiz-adv-x="1267" d="M-61 0l647 1366q15 47 69 47h189q24 0 42 -15q17 -15 19 -38l264 -1360h-180l-76 440h-583l-201 -440h-190zM401 598h484l-99 557q-1 6 -3.5 26t-3.5 33q-5 42 -9 62h-61l-54 -121zM532 1618l19 113q6 51 57 51h54q51 0 45 -51l-19 -111q-6 -49 -53 -49h-57q-52 0 -46 47 zM879 1618l18 113q6 51 57 51h54q51 0 45 -51l-19 -111q-6 -49 -53 -49h-57q-51 0 -45 47z" />
<glyph unicode="&#xc5;" horiz-adv-x="1267" d="M-61 0l647 1366q15 47 69 47h189q24 0 42 -15q17 -15 19 -38l264 -1360h-180l-76 440h-583l-201 -440h-190zM401 598h484l-99 557q-1 6 -3.5 26t-3.5 33q-5 42 -9 62h-61l-54 -121zM575 1686q10 87 72 147q60 59 158 59q99 0 158 -62q60 -63 49 -159q-10 -87 -73 -147 t-159 -60q-100 0 -157 63q-58 64 -48 159zM672 1677q-6 -57 25 -91t85 -34q55 0 91 37t40 92q6 54 -23 88q-30 35 -85 35t-91 -36t-42 -91z" />
<glyph unicode="&#xc6;" horiz-adv-x="1867" d="M-86 0l868 1194q91 130 195 176q102 45 291 45q390 0 608 -12l-25 -141h-522q-137 0 -158 -142l-41 -305h580l-18 -141h-582l-53 -389q-11 -71 16 -102t96 -31h529l-8 -142q-184 -12 -553 -12q-133 0 -202 76t-48 207l24 178h-475l-330 -459h-192zM549 614h383l76 533 q5 47 27 84q24 40 55 59h-11q-70 -38 -137 -133z" />
<glyph unicode="&#xc7;" horiz-adv-x="1159" d="M139 713q57 403 200 564t445 161q229 0 385 -43l-28 -135q-183 18 -359 18q-212 0 -311 -120q-98 -118 -143 -458q-45 -321 14 -441q60 -123 260 -124q215 0 404 23l10 -138q-168 -45 -416 -45q-303 0 -410 173t-51 565zM307 -494l33 93q82 -1 143 40q62 42 74 109 q5 35 -16 45t-95 12l21 82q127 12 179 -18q53 -30 36 -123q-22 -127 -126 -193q-106 -68 -249 -47z" />
<glyph unicode="&#xc8;" horiz-adv-x="1142" d="M119 281l125 893q17 116 92 178q77 63 205 63q421 0 610 -12l-25 -141h-563q-69 0 -102 -33q-32 -32 -43 -107l-43 -307h608l-18 -139h-609l-53 -391q-11 -71 16 -102t97 -31h553l-4 -142q-180 -12 -572 -12q-154 0 -223 75t-51 208zM426 1790l96 123l346 -301l-63 -78z " />
<glyph unicode="&#xc9;" horiz-adv-x="1142" d="M119 281l125 893q17 116 92 178q77 63 205 63q421 0 610 -12l-25 -141h-563q-69 0 -102 -33q-32 -32 -43 -107l-43 -307h608l-18 -139h-609l-53 -391q-11 -71 16 -102t97 -31h553l-4 -142q-180 -12 -572 -12q-154 0 -223 75t-51 208zM635 1614l393 301l84 -135l-422 -246 z" />
<glyph unicode="&#xca;" horiz-adv-x="1142" d="M119 281l125 893q17 116 92 178q77 63 205 63q421 0 610 -12l-25 -141h-563q-69 0 -102 -33q-32 -32 -43 -107l-43 -307h608l-18 -139h-609l-53 -391q-11 -71 16 -102t97 -31h553l-4 -142q-180 -12 -572 -12q-154 0 -223 75t-51 208zM438 1616l303 262h123l254 -272 l-63 -70l-246 209h-16l-306 -205z" />
<glyph unicode="&#xcb;" horiz-adv-x="1142" d="M119 281l125 893q17 116 92 178q77 63 205 63q421 0 610 -12l-25 -141h-563q-69 0 -102 -33q-32 -32 -43 -107l-43 -307h608l-18 -139h-609l-53 -391q-11 -71 16 -102t97 -31h553l-4 -142q-180 -12 -572 -12q-154 0 -223 75t-51 208zM526 1661l19 113q6 49 57 49h51 q31 0 41 -12t6 -37l-18 -111q-6 -49 -53 -49h-58q-51 0 -45 47zM872 1661l19 113q6 49 57 49h51q31 0 41 -12q11 -13 7 -37l-19 -111q-6 -49 -53 -49h-57q-52 0 -46 47z" />
<glyph unicode="&#xcc;" horiz-adv-x="534" d="M59 1747l97 123l346 -301l-64 -78zM92 0l199 1413h182l-199 -1413h-182z" />
<glyph unicode="&#xcd;" horiz-adv-x="534" d="M92 0l199 1413h182l-199 -1413h-182zM268 1573l391 299l84 -133l-421 -248z" />
<glyph unicode="&#xce;" horiz-adv-x="534" d="M70 1575l305 260h123l254 -270l-66 -70l-244 207h-16l-305 -203zM92 0l199 1413h182l-199 -1413h-182z" />
<glyph unicode="&#xcf;" horiz-adv-x="534" d="M92 0l199 1413h182l-199 -1413h-182zM158 1618l18 113q8 51 57 51h54q28 0 39 -13q10 -12 6 -38l-19 -111q-1 -49 -53 -49h-57q-47 0 -45 47zM504 1618l18 113q8 51 58 51h53q28 0 39 -13q10 -12 6 -38l-19 -111q-1 -49 -53 -49h-57q-47 0 -45 47z" />
<glyph unicode="&#xd0;" horiz-adv-x="1355" d="M55 700l15 101h135l86 612q264 19 463 19q327 0 438 -162q110 -161 53 -570q-33 -231 -82 -370q-50 -142 -135 -218q-86 -77 -191 -104q-101 -26 -276 -26q-201 0 -469 18l98 700h-135zM293 143q164 -4 266 -4q123 0 205 22q77 21 138 86t95 174q36 113 62 292 q19 130 21 236q1 93 -14 161q-15 65 -58 101t-104 51q-56 14 -154 14q-116 0 -299 -4l-66 -471h315l-12 -101h-317z" />
<glyph unicode="&#xd1;" horiz-adv-x="1439" d="M92 0l189 1346q12 67 75 67h160q52 0 74 -61l344 -975q47 -138 65 -205h39q6 112 21 207l141 1034h178l-190 -1345q-8 -68 -72 -68h-164q-51 0 -73 61l-355 1002q-40 109 -55 182h-35q-2 -88 -16 -186l-146 -1059h-180zM547 1571q6 118 57 178q50 59 127 53 q67 -6 153 -57t136 -57q61 -6 88 20q30 28 37 88l80 -8q-1 -110 -53 -172q-49 -59 -128 -53t-167 58t-125 58q-58 6 -86 -22q-30 -30 -37 -92z" />
<glyph unicode="&#xd2;" horiz-adv-x="1363" d="M139 713q55 400 200 564q144 163 454 163q296 0 407 -169q110 -168 53 -571q-56 -410 -198 -567q-145 -160 -447 -160q-298 0 -411 167q-114 168 -58 573zM328 700q-45 -321 15 -443t269 -122q211 0 310 125q98 123 145 453q47 328 -13 446q-60 119 -272 119 q-214 0 -312 -123q-97 -122 -142 -455zM475 1747l96 123l347 -301l-64 -78z" />
<glyph unicode="&#xd3;" horiz-adv-x="1363" d="M139 713q55 400 200 564q144 163 454 163q296 0 407 -169q110 -168 53 -571q-56 -410 -198 -567q-145 -160 -447 -160q-298 0 -411 167q-114 168 -58 573zM328 700q-45 -321 15 -443t269 -122q211 0 310 125q98 123 145 453q47 328 -13 446q-60 119 -272 119 q-214 0 -312 -123q-97 -122 -142 -455zM684 1573l393 299l84 -133l-422 -248z" />
<glyph unicode="&#xd4;" horiz-adv-x="1363" d="M139 713q55 400 200 564q144 163 454 163q296 0 407 -169q110 -168 53 -571q-56 -410 -198 -567q-145 -160 -447 -160q-298 0 -411 167q-114 168 -58 573zM328 700q-45 -321 15 -443t269 -122q211 0 310 125q98 123 145 453q47 328 -13 446q-60 119 -272 119 q-214 0 -312 -123q-97 -122 -142 -455zM487 1575l304 260h122l254 -270l-63 -70l-246 207h-16l-305 -203z" />
<glyph unicode="&#xd5;" horiz-adv-x="1363" d="M139 713q55 400 200 564q144 163 454 163q296 0 407 -169q110 -168 53 -571q-56 -410 -198 -567q-145 -160 -447 -160q-298 0 -411 167q-114 168 -58 573zM328 700q-45 -321 15 -443t269 -122q211 0 310 125q98 123 145 453q47 328 -13 446q-60 119 -272 119 q-214 0 -312 -123q-97 -122 -142 -455zM496 1571q6 118 57 178q50 59 127 53q68 -6 153 -57q86 -51 136 -57q61 -6 88 20q30 28 37 88l80 -8q-1 -110 -53 -172q-49 -59 -128 -53q-80 6 -168 58t-125 58q-58 6 -86 -22t-36 -92z" />
<glyph unicode="&#xd6;" horiz-adv-x="1363" d="M139 713q55 400 200 564q144 163 454 163q296 0 407 -169q110 -168 53 -571q-56 -410 -198 -567q-145 -160 -447 -160q-298 0 -411 167q-114 168 -58 573zM328 700q-45 -321 15 -443t269 -122q211 0 310 125q98 123 145 453q47 328 -13 446q-60 119 -272 119 q-214 0 -312 -123q-97 -122 -142 -455zM575 1618l19 113q6 51 57 51h51q54 0 48 -51l-19 -111q-6 -49 -53 -49h-57q-52 0 -46 47zM922 1618l18 113q6 51 57 51h52q53 0 47 -51l-19 -111q-6 -49 -53 -49h-59q-49 0 -43 47z" />
<glyph unicode="&#xd7;" horiz-adv-x="1075" d="M86 322l348 274l-264 272l96 97l275 -283l370 295l80 -113l-354 -282l260 -273l-94 -96l-275 285l-362 -289z" />
<glyph unicode="&#xd8;" horiz-adv-x="1363" d="M139 713q55 400 200 564q144 163 454 163q162 0 264 -47l90 149l86 -49l-92 -152q181 -156 112 -641q-56 -410 -198 -567q-145 -160 -447 -160q-167 0 -270 47l-86 -143l-84 51l88 146q-183 158 -117 639zM328 700q-50 -347 26 -462l613 1007q-60 33 -185 33 q-214 0 -312 -123q-97 -122 -142 -455zM428 170q68 -35 184 -35q211 0 310 125q98 123 145 453q51 349 -25 467z" />
<glyph unicode="&#xd9;" horiz-adv-x="1359" d="M160 547l119 866h182l-123 -874q-33 -228 27 -316t241 -88q189 0 279 92q90 91 123 320l118 866h183l-123 -874q-45 -308 -176 -437q-130 -129 -400 -129q-276 0 -385 135q-109 134 -65 439zM473 1747l96 123l346 -301l-63 -78z" />
<glyph unicode="&#xda;" horiz-adv-x="1359" d="M160 547l119 866h182l-123 -874q-33 -228 27 -316t241 -88q189 0 279 92q90 91 123 320l118 866h183l-123 -874q-45 -308 -176 -437q-130 -129 -400 -129q-276 0 -385 135q-109 134 -65 439zM682 1573l393 299l84 -133l-422 -248z" />
<glyph unicode="&#xdb;" horiz-adv-x="1359" d="M160 547l119 866h182l-123 -874q-33 -228 27 -316t241 -88q189 0 279 92q90 91 123 320l118 866h183l-123 -874q-45 -308 -176 -437q-130 -129 -400 -129q-276 0 -385 135q-109 134 -65 439zM485 1575l303 260h123l254 -270l-63 -70l-246 207h-16l-305 -203z" />
<glyph unicode="&#xdc;" horiz-adv-x="1359" d="M160 547l119 866h182l-123 -874q-33 -228 27 -316t241 -88q189 0 279 92q90 91 123 320l118 866h183l-123 -874q-45 -308 -176 -437q-130 -129 -400 -129q-276 0 -385 135q-109 134 -65 439zM573 1618l19 113q6 51 57 51h51q54 0 48 -51l-19 -111q-6 -49 -53 -49h-58 q-51 0 -45 47zM920 1618l18 113q6 51 57 51h52q53 0 47 -51l-19 -111q-6 -49 -53 -49h-59q-49 0 -43 47z" />
<glyph unicode="&#xdd;" horiz-adv-x="1157" d="M131 1413h184l213 -600q31 -93 41 -160h17q27 76 84 166l381 594h196l-598 -919l-69 -494h-183l72 502zM573 1573l392 299l84 -133l-422 -248z" />
<glyph unicode="&#xde;" horiz-adv-x="1206" d="M92 0l199 1413h180l-35 -256q71 4 297 4q245 0 339 -98q95 -100 58 -354q-38 -259 -143 -349q-107 -92 -340 -92q-168 0 -334 19l-41 -287h-180zM332 424h293q163 1 233 62t94 237q23 171 -23 227q-47 58 -202 58q-203 0 -313 -2z" />
<glyph unicode="&#xdf;" horiz-adv-x="1376" d="M-246 -397l27 131h156q98 0 142 35q43 34 58 135l135 956h-182l19 125l182 10l16 119q17 119 55 191t108 110q68 37 144 49q83 13 193 13q262 0 363 -61q100 -61 79 -214q-11 -84 -57 -144q-47 -60 -156 -124l-53 -27l-32 -16l-22 -11q-20 -11 -42 -25q-28 -18 -40 -31 q-14 -16 -24 -32q-11 -19 -16 -40q-6 -42 17 -68q24 -27 87 -66l201 -120q89 -55 124 -113q33 -55 21 -160q-21 -148 -113 -197q-96 -51 -284 -51q-164 0 -325 23l20 133q169 -10 274 -8q127 0 186 25q55 23 66 100q4 39 -9 67t-31 43t-60 41l-207 125q-156 92 -135 232 q4 36 22 70q16 30 37 55q15 17 64 50q47 31 67 42q7 4 18.5 10t31.5 16t36 19q86 51 122 88q38 40 44 98q6 67 -44 97q-49 30 -216 30q-181 0 -251 -49t-91 -194l-172 -1213q-23 -149 -101 -218q-80 -71 -226 -71q-97 0 -226 15z" />
<glyph unicode="&#xe0;" d="M104 510q22 165 63 269q41 105 105 156q65 52 140 70q69 17 190 17q220 0 469 -47l-137 -975h-137l12 201q-193 -226 -444 -226q-181 0 -242 120q-62 121 -19 415zM271 199q24 -72 128 -72q179 0 408 223l74 520q-171 7 -226 7q-206 0 -273 -67q-65 -65 -103 -314 q-31 -229 -8 -297zM328 1378l94 123l346 -301l-61 -78z" />
<glyph unicode="&#xe1;" d="M104 510q22 165 63 269q41 105 105 156q65 52 140 70q69 17 190 17q220 0 469 -47l-137 -975h-137l12 201q-193 -226 -444 -226q-181 0 -242 120q-62 121 -19 415zM271 199q24 -72 128 -72q179 0 408 223l74 520q-171 7 -226 7q-206 0 -273 -67q-65 -65 -103 -314 q-31 -229 -8 -297zM535 1204l393 299l84 -133l-422 -248z" />
<glyph unicode="&#xe2;" d="M104 510q22 165 63 269q41 105 105 156q65 52 140 70q69 17 190 17q220 0 469 -47l-137 -975h-137l12 201q-193 -226 -444 -226q-181 0 -242 120q-62 121 -19 415zM271 199q24 -72 128 -72q179 0 408 223l74 520q-171 7 -226 7q-206 0 -273 -67q-65 -65 -103 -314 q-31 -229 -8 -297zM338 1206l303 260h125l254 -270l-66 -70l-243 207h-19l-303 -203z" />
<glyph unicode="&#xe3;" d="M104 510q22 165 63 269q41 105 105 156q65 52 140 70q69 17 190 17q220 0 469 -47l-137 -975h-137l12 201q-193 -226 -444 -226q-181 0 -242 120q-62 121 -19 415zM271 199q24 -72 128 -72q179 0 408 223l74 520q-171 7 -226 7q-206 0 -273 -67q-65 -65 -103 -314 q-31 -229 -8 -297zM346 1202q6 118 57 178t127 54q68 -6 155 -58q86 -51 134 -57q61 -6 88 20q30 28 37 88l82 -8q-4 -112 -54 -172q-49 -59 -128 -53t-167 59q-89 54 -124 58q-57 6 -86 -23q-28 -28 -39 -92z" />
<glyph unicode="&#xe4;" d="M104 510q22 165 63 269q41 105 105 156q65 52 140 70q69 17 190 17q220 0 469 -47l-137 -975h-137l12 201q-193 -226 -444 -226q-181 0 -242 120q-62 121 -19 415zM271 199q24 -72 128 -72q179 0 408 223l74 520q-171 7 -226 7q-206 0 -273 -67q-65 -65 -103 -314 q-31 -229 -8 -297zM426 1249l18 115q6 49 58 49h53q51 0 45 -49l-18 -113q-6 -49 -54 -49h-57q-51 0 -45 47zM772 1249l19 115q6 49 57 49h53q51 0 45 -49l-18 -113q-6 -49 -54 -49h-57q-51 0 -45 47z" />
<glyph unicode="&#xe5;" d="M104 510q22 165 63 269q41 105 105 156q65 52 140 70q69 17 190 17q220 0 469 -47l-137 -975h-137l12 201q-193 -226 -444 -226q-181 0 -242 120q-62 121 -19 415zM271 199q24 -72 128 -72q179 0 408 223l74 520q-171 7 -226 7q-206 0 -273 -67q-65 -65 -103 -314 q-31 -229 -8 -297zM469 1317q10 88 73 148q64 61 156 61q97 0 158 -64q60 -63 49 -159q-11 -90 -72 -148q-62 -59 -159 -59q-102 0 -158 62q-57 63 -47 159zM567 1309q-7 -55 25 -89q33 -34 84 -34q52 0 90 36q36 35 41 91q6 53 -24 88t-83 35q-57 0 -93 -36 q-35 -36 -40 -91z" />
<glyph unicode="&#xe6;" horiz-adv-x="1787" d="M102 510q22 165 63 269t106 156q64 51 140 70q68 17 187 17q211 0 442 -45q105 45 293 45q229 0 312 -79t59 -241q-24 -140 -112 -202q-86 -61 -267 -76l-369 -33q-6 -157 59 -213q64 -55 208 -55q179 0 358 24l12 -116q-136 -56 -401 -56q-324 0 -393 224 q-186 -224 -441 -224q-177 0 -237 122q-60 121 -19 413zM273 200q21 -73 120 -73q172 0 383 205q-2 94 12 190q30 235 113 344q-189 11 -250 11q-202 0 -268 -68q-65 -67 -100 -313q-30 -226 -10 -296zM969 520l354 35q99 7 146 42q46 34 61 120q16 105 -32 132 q-50 28 -187 28q-171 0 -240 -69t-102 -288z" />
<glyph unicode="&#xe7;" horiz-adv-x="991" d="M94 506q40 284 161 400t376 116q197 0 319 -49l-28 -109q-106 10 -263 10q-190 0 -271 -77q-84 -79 -112 -305q-28 -224 26 -297q54 -72 233 -72q176 0 299 20l12 -118q-159 -50 -342 -50q-262 0 -357 122q-94 121 -53 409zM213 -494l33 93q83 -2 142 40q61 43 73 109 q6 34 -15 45t-94 12l21 82q127 12 178 -18q52 -30 35 -123q-21 -125 -124 -192q-105 -69 -249 -48z" />
<glyph unicode="&#xe8;" horiz-adv-x="1099" d="M98 522q40 291 159 396q117 104 386 104q227 0 312 -79q86 -80 59 -241q-24 -140 -112 -202q-86 -61 -267 -76l-369 -33q-4 -156 60 -213q62 -55 206 -55q176 0 367 24l12 -116q-142 -56 -407 -56q-255 0 -350 131t-56 416zM279 520l354 35q101 7 148 42q46 34 61 120 q16 105 -33 132q-51 28 -188 28q-169 0 -238 -69q-70 -70 -104 -288zM313 1378l97 123l346 -301l-64 -78z" />
<glyph unicode="&#xe9;" horiz-adv-x="1099" d="M98 522q40 291 159 396q117 104 386 104q227 0 312 -79q86 -80 59 -241q-24 -140 -112 -202q-86 -61 -267 -76l-369 -33q-4 -156 60 -213q62 -55 206 -55q176 0 367 24l12 -116q-142 -56 -407 -56q-255 0 -350 131t-56 416zM279 520l354 35q101 7 148 42q46 34 61 120 q16 105 -33 132q-51 28 -188 28q-169 0 -238 -69q-70 -70 -104 -288zM522 1204l391 299l86 -133l-424 -248z" />
<glyph unicode="&#xea;" horiz-adv-x="1099" d="M98 522q40 291 159 396q117 104 386 104q227 0 312 -79q86 -80 59 -241q-24 -140 -112 -202q-86 -61 -267 -76l-369 -33q-4 -156 60 -213q62 -55 206 -55q176 0 367 24l12 -116q-142 -56 -407 -56q-255 0 -350 131t-56 416zM279 520l354 35q101 7 148 42q46 34 61 120 q16 105 -33 132q-51 28 -188 28q-169 0 -238 -69q-70 -70 -104 -288zM324 1206l305 260h123l254 -270l-66 -70l-244 207h-16l-305 -203z" />
<glyph unicode="&#xeb;" horiz-adv-x="1099" d="M98 522q40 291 159 396q117 104 386 104q227 0 312 -79q86 -80 59 -241q-24 -140 -112 -202q-86 -61 -267 -76l-369 -33q-4 -156 60 -213q62 -55 206 -55q176 0 367 24l12 -116q-142 -56 -407 -56q-255 0 -350 131t-56 416zM279 520l354 35q101 7 148 42q46 34 61 120 q16 105 -33 132q-51 28 -188 28q-169 0 -238 -69q-70 -70 -104 -288zM412 1249l18 115q7 49 57 49h54q52 0 45 -49l-19 -113q-1 -49 -53 -49h-57q-47 0 -45 47zM758 1249l18 115q10 49 58 49h53q55 0 45 -49l-19 -113q-4 -49 -53 -49h-57q-47 0 -45 47z" />
<glyph unicode="&#xec;" horiz-adv-x="503" d="M-6 1378l96 123l346 -301l-63 -78zM80 0l141 997h174l-141 -997h-174z" />
<glyph unicode="&#xed;" horiz-adv-x="503" d="M80 0l141 997h174l-141 -997h-174zM203 1204l391 299l84 -133l-422 -248z" />
<glyph unicode="&#xee;" horiz-adv-x="503" d="M4 1206l305 260h123l254 -270l-65 -70l-244 207h-17l-305 -203zM80 0l141 997h174l-141 -997h-174z" />
<glyph unicode="&#xef;" horiz-adv-x="503" d="M80 0l141 997h174l-141 -997h-174zM92 1249l19 115q7 49 57 49h53q51 0 45 -49l-18 -113q-1 -49 -53 -49h-58q-47 0 -45 47zM438 1249l19 115q10 49 57 49h53q51 0 45 -49l-18 -113q-4 -49 -53 -49h-58q-47 0 -45 47z" />
<glyph unicode="&#xf0;" horiz-adv-x="1136" d="M90 455q29 226 139 344q111 119 322 119q185 0 293 -111q0 256 -115 379l-182 -125l-47 69l157 111q-109 66 -313 62l27 127q252 10 415 -97l172 121l52 -74l-154 -104q216 -216 150 -705q-39 -299 -157 -448q-119 -150 -378 -150q-230 0 -321 118q-93 120 -60 364z M270 442q-27 -174 24 -248q50 -73 185 -73q166 0 242 110q75 108 108 365q2 17 4.5 38t4.5 34.5t2 21.5q-104 82 -252 82q-150 0 -222 -82q-74 -85 -96 -248z" />
<glyph unicode="&#xf1;" horiz-adv-x="1183" d="M72 0l141 997h139l-14 -219q276 244 481 244q128 0 191 -71t45 -206l-107 -745h-174l100 702q12 97 -12 135q-24 37 -96 37q-90 0 -185 -53q-92 -51 -245 -172l-90 -649h-174zM356 1202q6 117 58 178q51 60 127 54q64 -6 152 -58q86 -51 136 -57q61 -6 87 20q28 28 38 88 l80 -8q-1 -111 -52 -172q-49 -59 -128 -53t-168 59q-91 54 -125 58q-57 6 -86 -23q-30 -30 -37 -92z" />
<glyph unicode="&#xf2;" horiz-adv-x="1155" d="M94 504q40 281 161 400q119 118 374 118t349 -123q95 -123 54 -410q-39 -283 -160 -399q-122 -117 -370 -117q-252 0 -349 123q-98 124 -59 408zM276 489q-30 -212 18 -290t208 -78q168 0 244 82q78 84 108 301q30 216 -17 293t-208 77q-169 0 -245 -79 q-78 -81 -108 -306zM315 1378l97 123l346 -301l-64 -78z" />
<glyph unicode="&#xf3;" horiz-adv-x="1155" d="M94 504q40 281 161 400q119 118 374 118t349 -123q95 -123 54 -410q-39 -283 -160 -399q-122 -117 -370 -117q-252 0 -349 123q-98 124 -59 408zM276 489q-30 -212 18 -290t208 -78q168 0 244 82q78 84 108 301q30 216 -17 293t-208 77q-169 0 -245 -79 q-78 -81 -108 -306zM524 1204l394 299l83 -133l-423 -248z" />
<glyph unicode="&#xf4;" horiz-adv-x="1155" d="M94 504q40 281 161 400q119 118 374 118t349 -123q95 -123 54 -410q-39 -283 -160 -399q-122 -117 -370 -117q-252 0 -349 123q-98 124 -59 408zM276 489q-30 -212 18 -290t208 -78q168 0 244 82q78 84 108 301q30 216 -17 293t-208 77q-169 0 -245 -79 q-78 -81 -108 -306zM328 1206l303 260h123l254 -270l-66 -70l-244 207h-16l-305 -203z" />
<glyph unicode="&#xf5;" horiz-adv-x="1155" d="M94 504q40 281 161 400q119 118 374 118t349 -123q95 -123 54 -410q-39 -283 -160 -399q-122 -117 -370 -117q-252 0 -349 123q-98 124 -59 408zM276 489q-30 -212 18 -290t208 -78q168 0 244 82q78 84 108 301q30 216 -17 293t-208 77q-169 0 -245 -79 q-78 -81 -108 -306zM336 1202q5 119 56 178q52 60 128 54q66 -6 153 -58q86 -51 136 -57q58 -6 86 20q29 27 39 88l80 -8q-1 -111 -52 -172q-49 -59 -128 -53t-168 59q-91 54 -125 58q-57 6 -86 -23q-30 -30 -37 -92z" />
<glyph unicode="&#xf6;" horiz-adv-x="1155" d="M94 504q40 281 161 400q119 118 374 118t349 -123q95 -123 54 -410q-39 -283 -160 -399q-122 -117 -370 -117q-252 0 -349 123q-98 124 -59 408zM276 489q-30 -212 18 -290t208 -78q168 0 244 82q78 84 108 301q30 216 -17 293t-208 77q-169 0 -245 -79 q-78 -81 -108 -306zM416 1249l16 115q10 49 57 49h54q55 0 45 -49l-17 -113q-6 -49 -53 -49h-59q-49 0 -43 47zM762 1249l16 115q7 49 58 49h53q52 0 45 -49l-16 -113q-6 -49 -56 -49h-57q-49 0 -43 47z" />
<glyph unicode="&#xf7;" horiz-adv-x="1161" d="M123 539l20 131h897l-20 -131h-897zM436 201l15 96q6 63 65 63h47q69 0 62 -69l-17 -101q-6 -59 -67 -59h-47q-66 0 -58 70zM535 913l14 99q7 63 69 63h46q71 -1 59 -69l-12 -101q-7 -59 -70 -59h-45q-71 0 -61 67z" />
<glyph unicode="&#xf8;" horiz-adv-x="1155" d="M94 504q40 281 161 400q119 118 374 118q121 0 198 -25l93 156l77 -45l-88 -145q175 -111 123 -474q-39 -283 -160 -399q-122 -117 -370 -117q-106 0 -180 21l-91 -148l-75 45l82 136q-195 105 -144 477zM276 489q-34 -253 46 -323l421 696q-37 12 -114 12 q-169 0 -245 -79q-78 -81 -108 -306zM403 129q42 -8 99 -8q168 0 244 82q78 84 108 301q33 241 -33 313z" />
<glyph unicode="&#xf9;" horiz-adv-x="1161" d="M102 252l105 745h174l-100 -702q-15 -91 13 -131q27 -39 105 -39q88 0 174 53q85 52 226 178l88 641h174l-139 -997h-136l15 217q-252 -244 -461 -244q-135 0 -197 74t-41 205zM324 1386l96 123l346 -301l-64 -78z" />
<glyph unicode="&#xfa;" horiz-adv-x="1161" d="M102 252l105 745h174l-100 -702q-15 -91 13 -131q27 -39 105 -39q88 0 174 53q85 52 226 178l88 641h174l-139 -997h-136l15 217q-252 -244 -461 -244q-135 0 -197 74t-41 205zM532 1210l394 301l84 -135l-424 -246z" />
<glyph unicode="&#xfb;" horiz-adv-x="1161" d="M102 252l105 745h174l-100 -702q-15 -91 13 -131q27 -39 105 -39q88 0 174 53q85 52 226 178l88 641h174l-139 -997h-136l15 217q-252 -244 -461 -244q-135 0 -197 74t-41 205zM336 1214l303 261h123l254 -271l-64 -69l-245 206h-17l-305 -202z" />
<glyph unicode="&#xfc;" horiz-adv-x="1161" d="M102 252l105 745h174l-100 -702q-15 -91 13 -131q27 -39 105 -39q88 0 174 53q85 52 226 178l88 641h174l-139 -997h-136l15 217q-252 -244 -461 -244q-135 0 -197 74t-41 205zM424 1257l16 113q8 51 58 51h53q53 0 45 -51l-16 -110q-6 -50 -54 -50h-59q-49 0 -43 47z M770 1257l16 113q8 51 58 51h53q53 0 45 -51l-16 -110q-6 -50 -54 -50h-59q-49 0 -43 47z" />
<glyph unicode="&#xfd;" horiz-adv-x="1103" d="M72 -297q125 29 224 96q98 67 193 201h-90q-44 0 -75 26t-41 66l-193 905h182l158 -821q10 -39 47 -39h98l20 39q5 10 12 23.5t9 17.5q193 378 275 780h180q-108 -481 -303 -831q-158 -293 -308 -422q-149 -128 -356 -166zM467 1204l393 299l84 -133l-422 -248z" />
<glyph unicode="&#xfe;" d="M16 -412l258 1846h175l-54 -383q-18 -132 -41 -224l2 -12q189 207 430 207q171 0 234 -119q63 -118 22 -416q-23 -169 -62 -269q-42 -106 -104 -157q-63 -52 -137 -70q-72 -18 -184 -18q-123 0 -309 25q-16 -126 -21 -148l-37 -262h-172zM266 125q175 -4 226 -4 q205 0 270 65t100 314q30 228 8 299t-122 71q-179 0 -412 -227z" />
<glyph unicode="&#xff;" horiz-adv-x="1103" d="M72 -297q125 29 224 96q98 67 193 201h-90q-44 0 -75 26t-41 66l-193 905h182l158 -821q10 -39 47 -39h98l20 39q5 10 12 23.5t9 17.5q193 378 275 780h180q-108 -481 -303 -831q-158 -293 -308 -422q-149 -128 -356 -166zM358 1249l19 115q6 49 57 49h53q51 0 45 -49 l-18 -113q-6 -49 -53 -49h-58q-51 0 -45 47zM705 1249l18 115q6 49 57 49h54q51 0 45 -49l-19 -113q-6 -49 -53 -49h-57q-51 0 -45 47z" />
<glyph unicode="&#x152;" horiz-adv-x="1882" d="M141 713q57 411 200 569t454 158q180 0 329 -64q66 39 168 39q413 0 596 -12l-22 -141h-551q-131 0 -148 -140l-43 -307h598l-18 -141h-598l-53 -389q-11 -73 16 -103t96 -30h545l-6 -142q-176 -12 -561 -12q-121 0 -191 47q-159 -72 -342 -72q-319 0 -424 162t-45 578z M328 700q-47 -323 14 -443q62 -122 272 -122q137 0 256 35q-10 50 0 111l123 893q4 27 21 77q-102 27 -221 27q-217 0 -319 -124q-101 -123 -146 -454z" />
<glyph unicode="&#x153;" horiz-adv-x="1853" d="M94 504q39 282 160 400t375 118q266 0 356 -133q62 73 162 103q99 30 254 30q228 0 311 -79q84 -79 60 -241q-24 -140 -112 -202q-86 -61 -269 -76l-367 -35q-6 -156 57 -211q62 -55 209 -55q176 0 359 24l12 -116q-136 -56 -401 -56q-264 0 -359 146 q-122 -148 -399 -148q-254 0 -350 123q-97 124 -58 408zM276 489q-30 -212 17 -290t209 -78q167 0 244 83q78 84 106 300q33 215 -15 293q-47 77 -208 77q-169 0 -245 -79q-78 -81 -108 -306zM1036 520l355 35q99 7 146 42q45 33 60 120q17 107 -31 132q-47 25 -190 25 q-169 0 -237 -68q-70 -70 -103 -286z" />
<glyph unicode="&#x178;" horiz-adv-x="1157" d="M131 1413h184l213 -600q31 -93 41 -160h17q27 76 84 166l381 594h196l-598 -919l-69 -494h-183l72 502zM463 1618l18 113q6 51 58 51h53q51 0 45 -51l-19 -111q-6 -49 -53 -49h-57q-51 0 -45 47zM809 1618l18 113q6 51 58 51h53q51 0 45 -51l-18 -111q-6 -49 -54 -49h-57 q-51 0 -45 47z" />
<glyph unicode="&#x2c6;" horiz-adv-x="860" d="M197 1200l305 260h123l254 -272l-66 -68l-244 207h-16l-305 -205z" />
<glyph unicode="&#x2dc;" horiz-adv-x="858" d="M205 1202q5 120 56 177q53 59 128 53q65 -6 152 -57q85 -50 135 -56q61 -8 88 18q30 28 37 88l82 -6q-1 -111 -54 -173q-51 -60 -129 -54q-75 6 -165 59q-91 54 -125 58q-57 6 -86 -23q-30 -30 -37 -92z" />
<glyph unicode="&#x2000;" horiz-adv-x="957" />
<glyph unicode="&#x2001;" horiz-adv-x="1915" />
<glyph unicode="&#x2002;" horiz-adv-x="957" />
<glyph unicode="&#x2003;" horiz-adv-x="1915" />
<glyph unicode="&#x2004;" horiz-adv-x="638" />
<glyph unicode="&#x2005;" horiz-adv-x="478" />
<glyph unicode="&#x2006;" horiz-adv-x="319" />
<glyph unicode="&#x2007;" horiz-adv-x="319" />
<glyph unicode="&#x2008;" horiz-adv-x="239" />
<glyph unicode="&#x2009;" horiz-adv-x="383" />
<glyph unicode="&#x200a;" horiz-adv-x="106" />
<glyph unicode="&#x2010;" horiz-adv-x="915" d="M125 451l18 133h623l-16 -133h-625z" />
<glyph unicode="&#x2011;" horiz-adv-x="915" d="M125 451l18 133h623l-16 -133h-625z" />
<glyph unicode="&#x2012;" horiz-adv-x="915" d="M125 451l18 133h623l-16 -133h-625z" />
<glyph unicode="&#x2013;" horiz-adv-x="1210" d="M125 451l18 133h918l-19 -133h-917z" />
<glyph unicode="&#x2014;" horiz-adv-x="1832" d="M125 451l18 133h1540l-18 -133h-1540z" />
<glyph unicode="&#x2018;" horiz-adv-x="444" d="M197 1067l16 125q21 135 115 293l84 -29q-57 -184 -66 -229q28 1 43 -13q14 -14 10 -38l-18 -113q-6 -33 -22 -46q-14 -11 -56 -11h-51q-67 0 -55 61z" />
<glyph unicode="&#x2019;" horiz-adv-x="440" d="M209 1014q54 173 65 229q-28 -1 -43 13q-15 15 -10 40l19 113q6 34 21 46q14 11 56 11h52q67 0 55 -63l-16 -123q-21 -135 -115 -293z" />
<glyph unicode="&#x201a;" horiz-adv-x="466" d="M49 -227q57 184 66 229q-30 -2 -42 12q-13 15 -12 41l19 113q7 33 23 45q15 12 57 12h53q67 0 55 -63l-18 -123q-17 -129 -115 -295z" />
<glyph unicode="&#x201c;" horiz-adv-x="755" d="M197 1067l16 125q21 135 115 293l84 -29q-57 -184 -66 -229q28 1 43 -13q14 -14 10 -38l-18 -113q-6 -33 -22 -46q-14 -11 -56 -11h-51q-67 0 -55 61zM510 1067l16 125q16 130 113 293l86 -29q-51 -152 -66 -229q27 1 41 -13t13 -38l-19 -113q-7 -33 -23 -46 q-14 -11 -55 -11h-53q-65 0 -53 61z" />
<glyph unicode="&#x201d;" horiz-adv-x="753" d="M209 1014q54 173 65 229q-28 -1 -43 13q-15 15 -10 40l19 113q6 34 21 46q14 11 56 11h52q67 0 55 -63l-16 -123q-21 -135 -115 -293zM520 1014q51 151 66 229q-27 -1 -41 13q-15 15 -10 40l16 113q7 33 23 46q14 11 55 11h53q67 0 55 -63l-18 -123q-16 -130 -113 -293z " />
<glyph unicode="&#x201e;" horiz-adv-x="778" d="M49 -229q57 184 66 229q-29 -2 -43 13q-16 16 -11 40l19 113q6 34 21 46q14 11 57 11h51q67 0 55 -63l-16 -123q-21 -138 -115 -293zM360 -229q51 152 66 229q-27 -1 -41 13q-15 15 -10 40l16 113q7 32 24 46q14 11 56 11h51q68 0 56 -63l-19 -123q-16 -135 -113 -293z " />
<glyph unicode="&#x2022;" horiz-adv-x="739" d="M176 543l4 26q12 95 53 130q40 34 142 34h24q95 0 129 -40q35 -41 23 -134l-4 -27q-15 -102 -54 -135q-41 -35 -137 -35h-24q-101 0 -135 40q-36 42 -21 141z" />
<glyph unicode="&#x2026;" horiz-adv-x="1722" d="M63 68l17 114q8 60 70 60h57q67 0 59 -68l-16 -113q-6 -61 -68 -61h-57q-73 0 -62 68zM694 68l17 114q7 60 69 60h58q67 0 59 -68l-14 -113q-10 -61 -70 -61h-57q-73 0 -62 68zM1325 68l18 114q6 60 68 60h59q71 0 60 -68l-17 -113q-6 -61 -67 -61h-60q-72 0 -61 68z" />
<glyph unicode="&#x202f;" horiz-adv-x="383" />
<glyph unicode="&#x2039;" horiz-adv-x="606" d="M76 504l2 39l383 397l71 -66l-313 -362l223 -373l-88 -59z" />
<glyph unicode="&#x203a;" horiz-adv-x="608" d="M49 145l313 365l-221 373l86 57l279 -422l-2 -39l-383 -399z" />
<glyph unicode="&#x205f;" horiz-adv-x="478" />
<glyph unicode="&#x20ac;" horiz-adv-x="1298" d="M94 535l17 108h170l8 70q6 51 14 90h-170l17 108h176q68 271 215 399q148 128 413 128q183 0 328 -43l-29 -138q-158 25 -311 19q-174 -6 -274 -91q-101 -86 -152 -274h522l-30 -108h-516q-3 -11 -19 -107l-6 -53h463l-31 -108h-442q-8 -210 63 -301q72 -92 242 -97 q179 -6 352 25l8 -142q-153 -45 -354 -45q-268 0 -388 138q-119 137 -108 422h-178z" />
<glyph unicode="&#x2122;" horiz-adv-x="1959" d="M231 1321l13 104h665l-14 -104h-270l-95 -674h-124l92 674h-267zM901 647l133 733q8 45 49 45h129q44 0 48 -43l94 -452q5 -17 9 -53q1 -10 3.5 -29.5t3.5 -26.5h25q22 63 43 109l219 459q16 36 53 36h133q23 0 36 -15q14 -15 9 -38l-69 -725h-117l63 682h-22l-264 -553 q-16 -37 -54 -37h-96q-45 0 -49 45l-115 545h-24l-123 -682h-117z" />
<glyph unicode="&#x25fc;" horiz-adv-x="993" d="M0 0v993h993v-993h-993z" />
<glyph unicode="&#xfb01;" horiz-adv-x="1234" d="M-246 -397l27 131h156q98 0 142 35q43 34 58 135l133 956h-178l17 127l182 8l22 164q23 157 99 233t227 76q152 0 246 -14l-13 -129h-178q-97 0 -146 -44q-48 -44 -63 -148l-20 -136h663l-141 -997h-174l121 860h-488l-139 -983q-39 -289 -315 -289q-107 0 -238 15z M981 1255l16 115q6 51 56 51h82q27 0 40 -16q14 -17 9 -41l-15 -117q-7 -49 -57 -49h-82q-55 0 -49 57z" />
<glyph unicode="&#xfb02;" horiz-adv-x="1359" d="M-246 -397l27 131h156q98 0 142 35q43 34 58 135l133 956h-178l17 127l182 8l22 164q23 156 99 234q75 77 227 75q452 -6 571 -24l-161 -1194q-18 -131 110 -131h101l8 -113q-60 -24 -178 -24q-117 0 -177 63t-45 174l156 1108h-330q-97 0 -146 -44q-48 -43 -63 -150 l-20 -136h299l-19 -137h-299l-139 -983q-39 -289 -315 -289q-107 0 -238 15z" />
</font>
</defs>
</svg>
