<?xml version="1.0" standalone="no"?>
<!DOCTYPE svg PUBLIC "-//W3C//DTD SVG 1.1//EN" "http://www.w3.org/Graphics/SVG/1.1/DTD/svg11.dtd" >
<svg xmlns="http://www.w3.org/2000/svg" xmlns:xlink="http://www.w3.org/1999/xlink" version="1.1">
<metadata></metadata>
<defs>
<font id="exo_2semi_bold_italic" horiz-adv-x="1189" >
<font-face units-per-em="2048" ascent="1638" descent="-410" />
<missing-glyph horiz-adv-x="450" />
<glyph horiz-adv-x="0" />
<glyph unicode="&#xd;" horiz-adv-x="681" />
<glyph unicode=" "  horiz-adv-x="450" />
<glyph unicode="&#x09;" horiz-adv-x="450" />
<glyph unicode="&#xa0;" horiz-adv-x="450" />
<glyph unicode="!" horiz-adv-x="583" d="M100 94l17 105q7 82 94 82h59q98 0 80 -93l-12 -104q-8 -84 -94 -84h-58q-98 0 -86 94zM172 442l31 398l82 583h245l-84 -583l-77 -398h-197z" />
<glyph unicode="&#x22;" horiz-adv-x="747" d="M186 967l47 446h193l-80 -446h-160zM502 967l47 446h192l-77 -446h-162z" />
<glyph unicode="#" horiz-adv-x="1427" d="M45 418l51 151h236l102 322h-237l53 153h231l117 369h193l-117 -369h321l117 369h193l-117 -369h229l-53 -153h-225l-101 -322h226l-52 -151h-221l-131 -418h-192l131 418h-322l-131 -418h-192l131 418h-240zM524 569h322l102 322h-323z" />
<glyph unicode="$" horiz-adv-x="1161" d="M43 23l31 186l360 -8l92 411l-127 47q-147 56 -200 155q-54 101 -33 253q33 226 151 298q120 73 371 73h47l43 192h105l-45 -196q155 -10 290 -45l-26 -181q-282 6 -316 6l-92 -403l111 -39q157 -57 206 -151q50 -95 29 -259q-30 -231 -146 -309t-394 -78h-15l-51 -225 h-102l51 227q-190 12 -340 46zM422 1047q-12 -90 11 -119q26 -33 112 -62l55 -20l84 371q-55 0 -91 -2q-28 -2 -65 -9q-36 -7 -53 -26q-14 -15 -31 -51q-14 -30 -22 -82zM537 201q133 5 183 39q49 34 64 141q10 88 -12 121q-22 32 -104 59l-45 17z" />
<glyph unicode="%" horiz-adv-x="1849" d="M135 1030q34 229 118 320q83 90 265 90q194 0 262 -99t35 -331q-33 -230 -117 -320t-268 -90q-193 0 -260 98q-68 99 -35 332zM309 0l1073 1413h183l-1076 -1413h-180zM318 802q21 -54 108 -54q107 0 144 56q40 60 63 226q23 155 -1 208q-24 54 -110 54q-103 0 -140 -56 q-40 -60 -63 -226q-22 -153 -1 -208zM1061 406q34 227 118 320q82 91 265 91q195 0 262 -98q68 -99 35 -332q-33 -229 -117 -319q-85 -91 -270 -91q-190 0 -258 99q-68 100 -35 330zM1244 177q21 -54 108 -54q107 0 144 56q39 60 63 227q22 153 0 208q-23 56 -111 56 q-101 0 -141 -58t-62 -225q-22 -155 -1 -210z" />
<glyph unicode="&#x26;" horiz-adv-x="1521" d="M76 369q39 339 327 360l3 10q-118 7 -166 98q-47 89 -23 238q37 217 166 289t387 72q188 0 356 -43l-43 -185q-127 25 -303 25q-166 0 -228 -40t-83 -171q-18 -117 23 -158t167 -41h410q4 65 4 238h221q2 -119 -4 -238h195l-27 -186h-186q-33 -210 -113 -342 q-192 -318 -665 -318q-241 0 -342 93q-99 91 -76 299zM348 397q-16 -113 22 -159q38 -45 165 -45q288 0 417 190q69 94 99 254h-416q-141 0 -203 -52q-63 -52 -84 -188z" />
<glyph unicode="'" horiz-adv-x="434" d="M186 967l47 446h193l-80 -446h-160z" />
<glyph unicode="(" horiz-adv-x="737" d="M96 649q57 400 226 636q168 234 473 335l28 -115q-201 -89 -320 -303q-117 -211 -167 -571q-46 -337 6 -552t225 -306l-32 -107q-282 101 -388 343q-106 243 -51 640z" />
<glyph unicode=")" horiz-adv-x="737" d="M-74 -225q389 185 488 876q47 346 -5 557q-53 213 -227 299l33 109q280 -102 388 -344q107 -240 50 -643q-57 -398 -225 -632q-169 -235 -473 -337z" />
<glyph unicode="*" horiz-adv-x="919" d="M160 1112l55 133l236 -98l-9 -62l-34 -38zM227 815l250 262l25 338h145l-72 -336l179 -264l-117 -84l-117 250l-184 -248zM618 1085l5 62l254 96l26 -139l-258 -57z" />
<glyph unicode="+" horiz-adv-x="1112" d="M86 522l27 185h364l49 350h189l-51 -350h366l-26 -185h-365l-49 -350h-187l50 350h-367z" />
<glyph unicode="," horiz-adv-x="487" d="M45 82l16 115q10 47 32 66q21 18 77 18h63q49 0 69 -22q19 -20 11 -71l-16 -131q-24 -172 -137 -348l-115 39q62 201 74 256q-42 -2 -60 19t-14 59z" />
<glyph unicode="-" horiz-adv-x="874" d="M106 432l25 176h614l-24 -176h-615z" />
<glyph unicode="." horiz-adv-x="481" d="M45 94l16 105q7 82 95 82h73q94 0 82 -93l-14 -104q-7 -84 -94 -84h-74q-96 0 -84 94z" />
<glyph unicode="/" horiz-adv-x="1110" d="M-53 -141l1024 1554h205l-1024 -1554h-205z" />
<glyph unicode="0" horiz-adv-x="1257" d="M129 717q52 395 189 559t413 164q286 0 385 -175t43 -569q-56 -397 -191 -559q-137 -164 -413 -164q-282 0 -383 173q-100 172 -43 571zM372 298q38 -110 185 -110q161 0 237 114t117 411q43 293 3 402q-41 110 -189 110q-157 0 -233 -114q-76 -113 -115 -411 q-43 -290 -5 -402z" />
<glyph unicode="1" horiz-adv-x="843" d="M121 1270l373 143h256l-199 -1413h-256l147 1047q10 77 29 141l-342 -101z" />
<glyph unicode="2" horiz-adv-x="1155" d="M16 0l23 158q10 75 43 108l426 406q159 144 236 246q76 100 83 186q8 70 -34 90q-41 20 -154 20q-205 0 -424 -24v199q241 49 451 49q221 0 331 -70q109 -70 88 -258q-15 -126 -77 -229t-217 -252l-424 -400q89 13 211 13h434l-33 -242h-963z" />
<glyph unicode="3" horiz-adv-x="1136" d="M18 10l27 197q24 -1 138 -9q110 -7 121 -5q10 2 120 2q286 18 324 239q18 101 -27 154q-46 54 -174 55l-268 6l24 185h260q131 0 183 57q53 57 65 166q10 97 -31 131q-40 33 -194 33q-192 0 -361 -13v195q234 37 414 37q237 0 335 -83t81 -255q-6 -81 -32 -156 q-25 -73 -83 -134t-137 -67l-2 -8q247 -40 200 -348q-57 -404 -559 -416q-170 -6 -424 37z" />
<glyph unicode="4" horiz-adv-x="1273" d="M68 403q-47 86 8 177l487 833h254l-475 -825q-41 -70 27 -70h399l55 393l76 230h197l-86 -623h180l-25 -172l-180 -27h-4l-45 -319h-240l45 319h-512q-115 0 -161 84z" />
<glyph unicode="5" horiz-adv-x="1103" d="M18 23l41 206q192 -41 342 -30q163 8 240 73q77 66 94 189q15 113 -48 159q-62 45 -241 62l-180 16q-46 4 -73 39q-27 34 -19 82l117 594h790l-41 -211h-573l-59 -303l157 -18q230 -24 336 -131q105 -106 82 -308q-11 -87 -40 -159q-31 -76 -87 -144t-160 -112 q-105 -45 -239 -52q-204 -10 -439 48z" />
<glyph unicode="6" horiz-adv-x="1179" d="M129 700q34 235 86 386q51 148 134 225q81 75 177 101t244 26q151 0 332 -37l-27 -176q-89 4 -289 4q-190 0 -265 -82q-74 -82 -124 -346q150 129 334 129q196 0 285 -106q89 -105 51 -359q-37 -256 -156 -373t-387 -117q-287 0 -370 161q-82 160 -25 564zM358 266 q34 -82 181 -82q78 0 129 18q52 18 83 58q32 42 47 90q15 50 27 129q21 147 -8 200q-28 52 -153 52q-142 0 -304 -141q-37 -240 -2 -324z" />
<glyph unicode="7" horiz-adv-x="1062" d="M156 1200l18 213h823q74 0 101 -43q26 -42 -4 -110l-611 -1260h-256l527 1083q28 66 69 117h-667z" />
<glyph unicode="8" horiz-adv-x="1245" d="M82 362q24 168 89 265q64 96 200 108l2 8q-197 23 -156 328q27 200 134 283q107 84 372 82q276 0 367 -90t63 -295q-44 -292 -250 -316l-2 -8q235 -24 184 -385q-27 -198 -140 -281q-115 -85 -396 -86q-272 0 -382 95q-109 94 -85 292zM332 397q-18 -126 27 -168 q46 -43 210 -43q148 0 209 50q60 49 76 182q21 131 -24 176q-43 43 -209 43q-154 -1 -212 -46q-56 -43 -77 -194zM442 1024q-16 -117 26 -156t194 -39q141 0 191 44t67 169q18 119 -22 159t-191 40q-147 0 -197 -44t-68 -173z" />
<glyph unicode="9" horiz-adv-x="1179" d="M82 12l31 178q147 -6 309 -4q190 4 268 95q79 91 125 337q-137 -137 -321 -137q-398 0 -347 469q30 267 159 378q128 110 382 110q284 0 370 -154q84 -151 21 -571q-45 -304 -124 -461q-80 -161 -198 -218q-121 -59 -325 -59q-190 0 -350 37zM383 940q-17 -141 18 -201 q34 -59 150 -59q79 0 147 31t152 112q39 245 5 325q-35 81 -185 81q-146 0 -207 -64q-59 -62 -80 -225z" />
<glyph unicode=":" horiz-adv-x="512" d="M33 94l16 105q7 82 94 82h74q94 0 82 -93l-14 -104q-7 -84 -95 -84h-73q-96 0 -84 94zM121 727l16 104q12 82 94 82h74q97 0 82 -92l-12 -104q-12 -84 -96 -84h-72q-98 0 -86 94z" />
<glyph unicode=";" horiz-adv-x="520" d="M63 82l17 115q10 47 32 66q21 18 76 18h64q49 0 69 -22q19 -20 11 -71l-17 -131q-24 -172 -137 -348l-115 39q62 201 74 256q-41 -2 -59 19q-19 22 -15 59zM150 727l14 104q12 82 96 82h72q96 0 84 -92l-15 -104q-12 -84 -94 -84h-74q-98 0 -83 94z" />
<glyph unicode="&#x3c;" horiz-adv-x="1062" d="M78 516l26 195l897 342l-28 -203l-670 -242l600 -248l-26 -190z" />
<glyph unicode="=" horiz-adv-x="1191" d="M92 297l27 182h921l-24 -182h-924zM154 729l24 182h922l-25 -182h-921z" />
<glyph unicode="&#x3e;" horiz-adv-x="1064" d="M68 174l26 203l672 248l-600 245l24 187l801 -346l-28 -195z" />
<glyph unicode="?" horiz-adv-x="1034" d="M170 1237v174q7 1 47 9q10 2 46 8q3 0 8 1.5t15 3.5t17 3q25 5 45 7q32 3 44 5q18 3 52 5q21 1 56 3q44 2 67 2h76q212 0 313 -82q102 -83 80 -246q-11 -84 -56 -151q-48 -72 -107 -123q-60 -52 -120 -108q-61 -57 -113 -135q-53 -81 -71 -175h-204q12 100 54 189 q41 87 96 148q45 50 108 113q58 58 94 106q42 55 49 106q15 91 -26 121q-40 30 -156 30q-190 0 -414 -14zM301 94l14 103q12 84 97 84h57q96 0 84 -93l-14 -104q-7 -84 -95 -84h-59q-99 0 -84 94z" />
<glyph unicode="@" horiz-adv-x="1615" d="M100 473q23 142 66 242q40 94 106 140q65 46 135 61q74 16 175 16q175 0 489 -58l-96 -608q-4 -44 8 -64t49 -20q107 0 151 101q44 103 83 389q4 26 9.5 68t7.5 58q7 49 7 100v79q0 32 -13 59q-14 30 -24 44q-11 15 -41 29q-30 13 -53 18q-31 6 -75 10q-47 4 -90 4h-111 h-676l18 176q279 15 664 20q152 2 248 -6q89 -7 178 -36q81 -27 122 -72q39 -44 62 -124t21 -185q-1 -99 -25 -259q-50 -399 -148 -535q-99 -136 -337 -136q-235 0 -269 190q-154 -199 -370 -199q-174 0 -245 115t-26 383zM329 225q20 -47 103 -47q84 0 155 47 q69 45 165 160l59 354l-158 4q-175 0 -231 -48q-56 -49 -86 -236q-27 -186 -7 -234z" />
<glyph unicode="A" horiz-adv-x="1298" d="M-72 0l615 1350q21 63 94 63h252q32 0 56 -21t26 -53l239 -1339h-256l-59 397h-528l-170 -397h-269zM459 614h403l-71 480l-13 129h-61q-14 -37 -51 -127z" />
<glyph unicode="B" horiz-adv-x="1282" d="M72 0l198 1413q179 17 488 17q266 0 369 -82q80 -64 80 -207q0 -42 -7 -90q-23 -152 -88 -228t-197 -88l-2 -10q242 -19 242 -279q0 -48 -8 -104q-30 -214 -140 -286q-109 -72 -360 -72q-384 0 -575 16zM350 193l256 -3q151 0 212 44t79 176q5 39 5 70q0 78 -32 111 q-45 47 -190 48h-266zM440 825h250q131 0 189 44q56 43 73 167q5 33 5 59q0 67 -31 92q-43 36 -181 36h-249z" />
<glyph unicode="C" horiz-adv-x="1175" d="M123 717q55 403 201 562t460 159q232 0 408 -47l-37 -193q-167 14 -377 14q-124 0 -192 -40q-71 -41 -118 -151q-49 -112 -77 -325q-19 -132 -19 -225q0 -107 25 -164q46 -104 217 -106h38q210 0 378 20l12 -194q-176 -52 -434 -52q-313 0 -427 176q-76 118 -76 333 q0 105 18 233z" />
<glyph unicode="D" horiz-adv-x="1370" d="M72 0l198 1413q268 19 478 19q342 0 464 -161q82 -109 83 -335q0 -107 -19 -240q-27 -189 -67 -315q-41 -127 -93 -207q-53 -80 -138 -122q-83 -41 -178 -56q-87 -14 -237 -14q-205 0 -491 18zM356 201q139 -4 205 -4q156 0 233 35q79 36 130 147t84 338q18 134 21 218 q1 17 1 33q0 64 -10 110q-12 57 -50 88q-36 29 -90 41q-52 12 -141 12l-239 -2z" />
<glyph unicode="E" horiz-adv-x="1157" d="M104 315l117 840q17 125 101 194q83 68 227 68q439 0 622 -18l-32 -195h-545q-63 0 -89 -26q-29 -29 -36 -97l-35 -247h576l-25 -191h-575l-45 -317q-2 -18 -2 -33q0 -41 16 -59q22 -25 86 -25h532l-6 -197q-169 -16 -577 -16q-174 0 -252 84q-62 67 -62 175q0 28 4 60z " />
<glyph unicode="F" horiz-adv-x="1114" d="M68 0l159 1143q40 274 328 274q436 0 606 -20l-35 -193h-505q-76 0 -106 -24t-38 -99l-39 -274h557l-26 -191h-557l-86 -616h-258z" />
<glyph unicode="G" horiz-adv-x="1292" d="M123 717q29 225 85 367q58 147 148 222q91 76 200 105q110 29 265 29q244 0 416 -49l-35 -189q-196 12 -360 12q-157 0 -238 -37q-82 -37 -133 -149q-52 -112 -80 -332q-14 -130 -14 -223q0 -111 20 -168q37 -108 168 -108q92 0 163 41q68 39 169 137l61 444h246 l-114 -819h-185l-6 180q-175 -207 -432 -207q-213 0 -300 179q-58 120 -58 332q0 105 14 233z" />
<glyph unicode="H" horiz-adv-x="1382" d="M72 0l198 1413h258l-77 -555h555l77 555h256l-198 -1413h-256l90 645h-553l-92 -645h-258z" />
<glyph unicode="I" horiz-adv-x="571" d="M72 0l198 1413h258l-198 -1413h-258z" />
<glyph unicode="J" horiz-adv-x="720" d="M-27 14l47 176h89q144 0 165 134l152 1089h258l-156 -1106q-23 -163 -106 -246q-84 -84 -219 -84q-143 0 -230 37z" />
<glyph unicode="K" horiz-adv-x="1255" d="M72 0l198 1413h258l-61 -424q-17 -103 -33 -155h131l457 579h305l-459 -579q-54 -67 -112 -101l-2 -10q44 -44 82 -123l315 -600h-287l-323 637h-138q1 -22 1 -43q0 -52 -7 -100l-67 -494h-258z" />
<glyph unicode="L" horiz-adv-x="1058" d="M115 319l149 1094h258l-151 -1085q-2 -16 -2 -30q0 -36 15 -56q21 -29 85 -29h492l-7 -201q-170 -16 -557 -16q-151 0 -228 83q-59 64 -59 172q0 32 5 68z" />
<glyph unicode="M" horiz-adv-x="1826" d="M47 0l238 1317q15 96 106 96h258q81 0 92 -90l105 -766q11 -79 16 -195h33q29 89 70 189l305 780q33 81 114 82h265q47 0 72 -28q21 -23 21 -62q0 -7 -1 -14l-127 -1309h-250l127 1206h-37l-375 -944q-33 -82 -114 -82h-197q-85 0 -100 90l-123 936h-39l-209 -1206h-250z " />
<glyph unicode="N" horiz-adv-x="1458" d="M72 0l186 1323q12 90 100 90h185q68 0 96 -82l287 -842q52 -158 69 -223h29q1 110 18 221l125 926h250l-188 -1323q-12 -90 -99 -90h-186q-68 0 -96 82l-297 866q-39 108 -57 207h-25q-2 -94 -16 -207l-129 -948h-252z" />
<glyph unicode="O" horiz-adv-x="1376" d="M123 717q55 403 203 563t467 160q310 0 428 -169q81 -116 81 -340q0 -106 -18 -235q-55 -410 -203 -567q-147 -156 -460 -156q-314 0 -434 166q-82 113 -82 341q0 106 18 237zM391 696q-19 -133 -19 -227q0 -113 27 -170q49 -106 228 -106q181 0 263 110q82 111 126 414 q21 140 21 237q0 108 -26 163q-50 104 -229 104q-186 0 -266 -108q-80 -109 -125 -417z" />
<glyph unicode="P" horiz-adv-x="1222" d="M72 0l198 1413q193 19 500 19q266 0 367 -106q74 -77 74 -236q0 -56 -9 -121q-39 -273 -147 -360t-373 -87q-143 0 -279 19l-75 -541h-256zM430 731h240q144 0 200 51q55 51 78 205q7 47 7 84q0 72 -27 103q-41 47 -166 47h-262z" />
<glyph unicode="Q" horiz-adv-x="1376" d="M123 717q55 403 203 563t467 160q310 0 428 -169q81 -116 81 -340q0 -105 -18 -235q-55 -410 -203 -567q-147 -156 -460 -156q-314 0 -434 166q-82 113 -82 341q0 106 18 237zM391 696q-19 -133 -19 -227q0 -113 27 -170q49 -106 228 -106q181 0 263 110q82 111 126 414 q21 140 21 237q0 108 -26 163q-50 104 -229 104q-186 0 -266 -108q-80 -109 -125 -417zM401 -225l91 145q243 -102 573 -153l-100 -246q-311 84 -564 254z" />
<glyph unicode="R" horiz-adv-x="1288" d="M72 0l198 1413q193 19 502 19q243 0 360 -97q91 -76 92 -237q0 -42 -7 -90q-21 -153 -95 -241q-74 -87 -223 -105l-2 -13q132 -33 162 -211l84 -438h-262l-76 442q-12 69 -43 97q-29 26 -94 26l-265 2l-79 -567h-252zM432 776h250q136 1 197 52q58 47 79 184q5 35 5 63 q0 71 -29 102q-41 44 -168 44h-270z" />
<glyph unicode="S" horiz-adv-x="1163" d="M41 23l29 186q382 -8 419 -8q169 0 224 32q56 32 71 148q4 31 4 55q0 46 -15 65q-25 32 -105 60l-271 98q-147 56 -200 155q-39 73 -39 172q0 39 6 81q33 226 151 298q120 73 371 73q264 0 442 -49l-26 -181q-290 9 -414 9q-57 0 -93 -2q-28 -2 -67 -9q-38 -7 -55 -26 q-14 -15 -31 -51q-14 -30 -22 -82q-4 -31 -4 -55q0 -45 15 -64q26 -33 112 -62l262 -94q159 -58 208 -151q34 -65 34 -163q0 -45 -7 -96q-30 -231 -146 -309t-394 -78q-227 0 -459 48z" />
<glyph unicode="T" horiz-adv-x="1196" d="M121 1194l31 219h1122l-31 -219h-434l-168 -1194h-256l168 1194h-432z" />
<glyph unicode="U" horiz-adv-x="1368" d="M139 559l119 854h258l-121 -864q-10 -76 -10 -134q0 -98 29 -147q46 -75 202 -75q162 0 238 80q77 82 107 286l118 854h258l-123 -864q-45 -316 -180 -446q-134 -130 -413 -130q-286 0 -406 138q-87 101 -87 295q0 70 11 153z" />
<glyph unicode="V" horiz-adv-x="1267" d="M131 1413h260l137 -1063q14 -122 17 -160h51q23 87 59 166l432 1057h273l-594 -1347q-28 -66 -94 -66h-240q-31 0 -56 22q-23 21 -28 54z" />
<glyph unicode="W" horiz-adv-x="1955" d="M166 1413h260l20 -1034q0 -44 0.5 -92.5t-0.5 -100.5h46q17 65 59 203l303 948q27 76 102 76h244q38 0 60 -24t24 -62l55 -950q7 -124 7 -179v-12h45q15 66 53 199l305 1028h266l-436 -1345q-23 -68 -98 -68h-262q-35 0 -61 24q-27 25 -28 56l-43 981q0 7 -2 51 q-1 33 -3 60q-1 18 -1 53h-41q-17 -69 -49 -170l-313 -985q-23 -70 -98 -70h-261q-33 0 -61 23t-29 55z" />
<glyph unicode="X" horiz-adv-x="1275" d="M-53 0l479 727l-248 686h258l201 -590h41l381 590h276l-446 -686l272 -727h-260l-223 639h-39l-401 -639h-291z" />
<glyph unicode="Y" horiz-adv-x="1200" d="M121 1413h260l178 -553q27 -78 33 -172h20q18 77 78 178l334 547h279l-598 -938l-66 -475h-258l70 487z" />
<glyph unicode="Z" horiz-adv-x="1167" d="M6 0l29 209l831 995h-680l31 209h965l-31 -209l-832 -995h707l-29 -209h-991z" />
<glyph unicode="[" horiz-adv-x="686" d="M53 -197l230 1637q11 62 50 97q41 36 101 36h318l-23 -158h-174q-41 0 -47 -41l-215 -1521q-1 -33 24 -33h189l-23 -158h-305q-62 0 -99 35q-36 35 -26 106z" />
<glyph unicode="\" horiz-adv-x="1077" d="M154 1413h188l592 -1554h-189z" />
<glyph unicode="]" horiz-adv-x="686" d="M-59 -338l20 158h174q18 0 32 11q16 12 17 30l215 1521q1 33 -26 33h-189l25 158h303q60 0 98 -41q37 -39 29 -100l-231 -1637q-7 -56 -50 -96q-40 -37 -100 -37h-317z" />
<glyph unicode="^" horiz-adv-x="913" d="M104 813l367 449h180l246 -449l-102 -57l-236 348h-16l-344 -348z" />
<glyph unicode="_" horiz-adv-x="1165" d="M20 -176l27 176h903l-26 -176h-904z" />
<glyph unicode="`" horiz-adv-x="690" d="M141 1325l123 172l391 -303l-84 -109z" />
<glyph unicode="a" d="M84 518q24 166 69 276q44 106 115 156q74 52 145 67q72 15 189 15q264 0 506 -59l-137 -973h-197l6 174q-170 -198 -420 -199h-3q-182 0 -247 121q-41 77 -41 222q0 88 15 200zM325 240q18 -56 101 -56q86 0 166 48q78 47 182 151l64 448l-183 3q-88 0 -143 -10 q-50 -9 -87 -45t-55 -97q-17 -58 -34 -176q-18 -131 -18 -201q0 -44 7 -65z" />
<glyph unicode="b" horiz-adv-x="1191" d="M57 51l195 1383h246l-52 -392q-22 -149 -53 -225q91 89 204 152q110 61 212 61q180 0 246 -118q40 -71 40 -214q0 -90 -16 -209q-23 -159 -63 -264q-39 -102 -108 -158q-67 -55 -141 -74q-77 -20 -183 -20q-114 0 -272 23q-157 23 -255 55zM322 172q149 -4 186 -4 q96 0 142 10q48 10 87 48q39 37 57 101q15 54 33 179q16 124 16 193q0 46 -7 67q-18 53 -99 53q-60 0 -155 -50q-94 -49 -195 -138z" />
<glyph unicode="c" horiz-adv-x="1011" d="M78 512q40 285 164 403q123 117 385 117q219 0 352 -59l-35 -152q-185 4 -280 4q-165 0 -233 -64q-69 -64 -93 -263q-9 -73 -9 -128q0 -95 27 -131q44 -59 197 -59q173 0 309 21l17 -166q-156 -60 -371 -60q-270 0 -371 125q-71 88 -71 258q0 70 12 154z" />
<glyph unicode="d" d="M84 518q24 163 67 272q42 105 105 156t129 69q62 17 162 17q162 0 325 -26q4 96 15 192l35 236h249l-200 -1434h-197l6 193q-209 -218 -436 -218q-160 0 -230 124q-45 79 -45 227q0 85 15 192zM327 248q18 -60 96 -60h3q84 0 161 44q71 40 187 147l64 459l-189 2 q-118 0 -176 -22q-56 -21 -86 -89t-51 -223q-16 -118 -17 -187q1 -46 8 -71z" />
<glyph unicode="e" horiz-adv-x="1122" d="M82 528q39 289 162 397q122 107 405 107q251 0 337 -85q69 -69 70 -186q0 -30 -5 -63q-21 -147 -115 -213q-93 -65 -289 -77l-317 -27q2 -119 57 -161t168 -42q161 0 377 25l16 -162q-158 -66 -426 -66q-267 0 -372 137q-78 101 -78 280q0 63 10 136zM344 549l287 24 q85 6 126 38q39 31 50 110q1 11 1 21q0 60 -32 75q-40 19 -158 19q-134 -1 -190 -59q-56 -57 -84 -228z" />
<glyph unicode="f" horiz-adv-x="802" d="M-233 -383l40 176h144q90 0 128 29q37 28 52 115l125 886h-178l22 170l183 11l22 170q44 299 342 299q178 0 309 -19l-41 -176h-188q-89 0 -127 -29q-36 -27 -51 -116l-19 -129h293l-24 -181h-293l-133 -925q-44 -299 -340 -299q-119 0 -266 18z" />
<glyph unicode="g" horiz-adv-x="1191" d="M23 -377l22 158q131 -4 303 -4q332 0 383 209q1 10 12 51q8 30 17 60q8 26 19 53q12 30 30 59q-79 -104 -195 -166q-120 -65 -258 -66h-3q-167 0 -238 120q-46 76 -46 221q0 88 17 200q23 146 54 234q34 96 75 150q40 54 101 84t115 38q58 8 136 8q300 0 543 -59 l-129 -922q-52 -475 -616 -475q-212 0 -342 47zM330 241q17 -57 93 -57h5q86 1 167 49q75 44 181 150l66 448l-189 3q-174 0 -228 -56t-87 -272q-16 -120 -16 -190q0 -50 8 -75z" />
<glyph unicode="h" horiz-adv-x="1202" d="M53 0l201 1434h248l-49 -375q-20 -137 -52 -246q246 219 449 219q132 0 198 -74q51 -56 51 -147q0 -29 -5 -61l-107 -750h-248l95 684q4 33 4 57q0 36 -9 53q-15 27 -67 27q-79 0 -161 -46q-88 -50 -214 -148l-86 -627h-248z" />
<glyph unicode="i" horiz-adv-x="536" d="M61 0l142 1004h246l-140 -1004h-248zM233 1262l17 110q6 68 76 68h112q37 0 55 -21q18 -20 13 -55l-14 -113q-12 -67 -78 -67h-113q-69 0 -69 60q0 8 1 18z" />
<glyph unicode="j" horiz-adv-x="538" d="M-102 -295q138 138 165 318l140 981h248l-142 -994q-16 -128 -90 -242q-73 -114 -186 -180zM233 1262l17 110q6 68 76 68h112q37 0 55 -21q18 -20 13 -55l-14 -113q-12 -67 -78 -67h-113q-70 0 -70 59q0 9 2 19z" />
<glyph unicode="k" horiz-adv-x="1112" d="M53 0l201 1434h250l-86 -641q-16 -119 -70 -252q407 214 469 463h254q-78 -273 -323 -451q34 -45 69 -123l189 -430h-265l-180 440q-64 -35 -209 -100l-51 -340h-248z" />
<glyph unicode="l" horiz-adv-x="636" d="M90 258l166 1176h248l-160 -1127q-2 -18 -2 -32q0 -38 15 -55q20 -23 87 -23h91l10 -187q-66 -33 -211 -33q-129 0 -195 74q-52 58 -52 155q0 25 3 52z" />
<glyph unicode="m" horiz-adv-x="1787" d="M53 0l142 1004h190l-4 -199q220 227 420 227q113 0 174 -55q60 -55 65 -154q110 111 205 160q94 49 195 49q132 0 195 -76q47 -57 47 -144q0 -29 -5 -62l-104 -750h-246l94 684q4 28 4 50q0 39 -13 58q-20 29 -77 29q-64 0 -128 -40q-65 -41 -187 -154l-88 -627h-238 l94 684q4 27 4 49q0 37 -12 57q-18 31 -78 31q-66 0 -130 -39q-61 -37 -185 -147l-88 -635h-246z" />
<glyph unicode="n" horiz-adv-x="1202" d="M53 0l142 1004h196l-6 -207q253 235 467 235q128 0 194 -74q52 -57 52 -153q0 -26 -4 -55l-107 -750h-248l95 680q4 32 4 56q0 39 -10 58q-13 27 -61 27h-7q-78 0 -160 -45t-213 -147l-86 -629h-248z" />
<glyph unicode="o" horiz-adv-x="1173" d="M78 510q40 283 166 403q125 119 393 119q267 0 370 -126q73 -90 74 -264q0 -68 -12 -150q-39 -283 -165 -401q-125 -118 -388 -118q-264 0 -371 125q-77 91 -77 269q0 66 10 143zM338 492q-13 -83 -12 -143q0 -75 20 -111q38 -66 172 -66q142 0 205 71t90 267 q12 82 12 141q0 79 -21 117q-36 66 -169 66q-141 0 -205 -70t-92 -272z" />
<glyph unicode="p" horiz-adv-x="1196" d="M-4 -399l199 1403h196l-6 -201q93 93 210 160q114 65 218 65q119 0 183 -46t91 -166q12 -54 12 -126q0 -88 -18 -203q-23 -167 -64 -272q-42 -106 -109 -158q-65 -50 -135 -67q-71 -17 -171 -17q-136 0 -309 27q0 -102 -14 -190l-33 -209h-250zM328 166l182 -2 q181 0 234 56q55 58 85 278q16 127 16 197q0 47 -7 69q-18 55 -99 55q-59 0 -154 -51q-96 -52 -194 -141z" />
<glyph unicode="q" horiz-adv-x="1183" d="M84 514q22 160 63 266q40 104 106 159t136 74t178 19q306 0 535 -76l-193 -1355h-247l51 354q22 139 57 229q-201 -209 -424 -209q-163 0 -234 122q-44 77 -44 220q0 86 16 197zM327 248q18 -60 99 -60q84 0 160 43q72 41 188 146l64 457q-145 4 -191 4q-88 0 -138 -11 q-49 -11 -85 -47t-54 -98q-17 -59 -34 -178q-16 -118 -16 -186q0 -46 7 -70z" />
<glyph unicode="r" horiz-adv-x="839" d="M53 0l142 1004h190l-6 -213q241 241 440 241h58l-58 -233h-65q-49 0 -109 -24q-54 -22 -108 -51q-49 -27 -150 -93l-86 -631h-248z" />
<glyph unicode="s" horiz-adv-x="1052" d="M29 10l26 174q115 -8 312 -8q186 0 246 15t71 65q-2 13 1 19q3 8 -3 16q-5 6 -7 12q-1 4 -10 10t-14 11t-16 9q-16 6 -21 9q-1 0 -24 11q-16 7 -27 12l-256 114q-117 53 -164 125q-36 56 -36 135q0 21 2 43q17 140 119 196q98 54 302 54h15q242 -5 444 -37l-26 -170 q-195 6 -402 6q-127 0 -166 -10q-41 -11 -47 -55q-1 -8 -1 -15q0 -30 20 -48q26 -23 96 -52l256 -114q127 -55 174 -120q37 -50 37 -127q0 -24 -4 -50q-11 -72 -37 -117q-28 -48 -65 -76q-39 -29 -100 -44q-66 -16 -126 -20q-84 -6 -158 -6q-57 0 -137 4q-58 3 -89 6 q-5 1 -89 11q-14 2 -35 4.5t-35.5 4.5t-25.5 3z" />
<glyph unicode="t" horiz-adv-x="813" d="M74 823l22 170l187 11l41 288h245l-41 -288h291l-22 -181h-295l-74 -516q-2 -20 -2 -36q0 -38 13 -52q19 -22 87 -22h142l10 -185q-107 -35 -254 -35q-138 0 -202 78q-49 60 -49 154q0 31 5 65l78 549h-182z" />
<glyph unicode="u" horiz-adv-x="1181" d="M84 256l104 748h248l-96 -682q-5 -30 -4 -53q0 -36 11 -54q20 -31 79 -31q76 0 147 43q72 43 195 150l86 627h246l-139 -1004h-193l8 199q-238 -226 -446 -226q-140 0 -203 76q-48 59 -48 146q0 29 5 61z" />
<glyph unicode="v" horiz-adv-x="1126" d="M80 1004h262l117 -820h28q41 0 67 15q27 16 54 57q56 84 125 283q68 192 113 465h260q-45 -248 -158 -549q-81 -212 -157 -316q-48 -74 -104 -107q-55 -32 -148 -32h-203q-66 0 -76 63z" />
<glyph unicode="w" horiz-adv-x="1785" d="M82 1006h258l106 -822h27q61 0 102 90q43 87 82 256q32 136 70 414q1 26 22 43q20 17 46 17h258q23 0 41 -16q15 -14 20 -40l74 -764h22q47 0 86 80q61 111 117 277q57 183 96 463h256q-62 -309 -153 -547q-80 -211 -156 -322q-46 -71 -99 -103t-136 -32h-146 q-30 0 -51 18q-20 17 -25 48l-65 782h-27q-17 -201 -59 -375q-49 -190 -105 -295q-50 -103 -118 -140q-70 -38 -166 -38h-137q-31 0 -52 18q-19 16 -24 48z" />
<glyph unicode="x" horiz-adv-x="1114" d="M-55 0l391 518l-223 486h243l170 -394h43l289 394h262l-362 -488l243 -516h-245l-193 430h-33l-315 -430h-270z" />
<glyph unicode="y" horiz-adv-x="1146" d="M76 -250q131 29 229 83q94 52 184 167h-104q-46 0 -82 28t-43 72l-182 904h262l129 -787q6 -33 39 -33h94l27 56q166 357 235 764h260q-100 -494 -284 -844q-158 -299 -326 -425q-167 -125 -399 -153z" />
<glyph unicode="z" horiz-adv-x="1054" d="M6 0l25 190l671 623h-573l25 191h860l-27 -191h2l-672 -623h592l-26 -190h-877z" />
<glyph unicode="{" horiz-adv-x="675" d="M76 590l20 168q82 23 105 45q25 24 37 108l53 387q23 156 125 227t311 48l-8 -154q-97 0 -140 -34q-45 -36 -57 -117l-47 -334q-17 -135 -62 -189t-169 -75q107 -34 145 -93t21 -167l-64 -451q-10 -82 19 -113q29 -30 124 -30l-8 -154q-208 -23 -300 55q-93 78 -70 230 l69 504q6 50 -4 74q-11 26 -28 35q-23 11 -72 30z" />
<glyph unicode="|" horiz-adv-x="518" d="M37 -346l272 1945h178l-274 -1945h-176z" />
<glyph unicode="}" horiz-adv-x="679" d="M-55 -338l12 154q97 0 139 32q44 33 54 117l63 453q18 112 68 167t176 89q-112 21 -147 80q-36 60 -15 188l47 334q12 83 -16 113t-125 30l8 154q211 22 302 -57q92 -80 71 -228l-56 -387q-10 -81 2 -102t76 -39l19 -6l-23 -168q-59 -19 -79 -30q-21 -12 -42 -39 q-20 -25 -26 -77l-70 -503q-21 -157 -121 -227t-317 -48z" />
<glyph unicode="~" horiz-adv-x="1056" d="M119 457q0 139 53 209t131 65q75 -5 222 -55q146 -50 184 -55q53 -6 75 18t33 86l117 -8q2 -138 -49 -206q-51 -69 -135 -65q-80 1 -230 54q-143 50 -176 55q-54 8 -76 -17t-30 -89z" />
<glyph unicode="&#xa1;" horiz-adv-x="552" d="M16 -389l80 575l82 398h197l-33 -398l-80 -575h-246zM193 836l14 106q12 84 96 84h59q98 0 80 -94l-12 -105q-12 -82 -96 -82h-58q-95 0 -83 91z" />
<glyph unicode="&#xa2;" horiz-adv-x="1044" d="M106 721q40 285 163 402q122 116 384 116l47 -2l43 176h105l-45 -182q134 -18 203 -51l-35 -152q-135 4 -217 4l-150 -643q150 0 285 19l16 -166q-147 -55 -356 -60l-43 -182h-105l45 186q-216 18 -296 146q-81 130 -44 389zM367 705q-21 -171 7 -237q27 -65 126 -77 l149 641q-136 -6 -198 -74t-84 -253z" />
<glyph unicode="&#xa3;" horiz-adv-x="1177" d="M27 0l28 217q191 83 213 350l8 109h-157l18 139h150l20 250q18 225 121 299t320 74q180 0 403 -21l-29 -200q-144 6 -356 6q-112 0 -158 -37q-48 -38 -55 -139l-16 -232h393l-27 -139h-375l-8 -119q-12 -133 -56 -211q-43 -76 -142 -145q49 14 143 14h567l-28 -215h-977z " />
<glyph unicode="&#xa4;" horiz-adv-x="1210" d="M88 358l158 142q-51 99 -33 231q18 135 96 240l-135 151l113 105l137 -158q100 61 238 61q140 0 235 -67l158 139l100 -115l-160 -141q51 -102 33 -235q-18 -136 -94 -234l139 -153l-110 -103l-142 156q-107 -64 -243 -64q-137 0 -234 68l-156 -137zM356 715 q-15 -123 47 -194q61 -70 179 -70q125 0 206 74q82 74 97 204q12 124 -50 194q-63 70 -180 70q-123 0 -203 -74q-81 -75 -96 -204z" />
<glyph unicode="&#xa5;" horiz-adv-x="1292" d="M133 307l19 137h337l7 43l-21 56h-307l16 139h242l-260 731h260l178 -553q27 -90 33 -172h20q17 81 76 178l336 547h279l-467 -731h239l-20 -139h-307l-43 -68l-5 -31h342l-20 -137h-340l-43 -307h-258l43 307h-336z" />
<glyph unicode="&#xa6;" horiz-adv-x="520" d="M37 -346l115 819h180l-115 -819h-180zM195 780l116 819h178l-114 -819h-180z" />
<glyph unicode="&#xa7;" horiz-adv-x="1114" d="M2 -328l33 189q157 -9 352 -13q128 0 190 19q58 18 70 86q8 53 -13 87q-20 33 -73 64l-274 164q-144 80 -168 198q-24 120 51 292l176 -4q-28 -122 -10 -189q18 -66 104 -119l305 -190q48 -29 73 -51q27 -24 55 -63t37 -92q9 -56 -1 -124q-24 -169 -130 -224 q-105 -54 -322 -54q-291 5 -455 24zM188 1163q22 163 130 220t323 57q271 -5 455 -25l-31 -188q-110 9 -356 10q-142 2 -192 -15q-54 -18 -64 -83q-8 -54 14 -87q21 -33 76 -67l276 -166q140 -84 162 -205t-51 -290l-176 2q27 123 7 195q-20 71 -104 124l-303 191 q-97 62 -140 132q-44 71 -26 195z" />
<glyph unicode="&#xa8;" horiz-adv-x="856" d="M260 1260l19 118q8 62 71 62h78q35 0 47 -15t8 -47l-18 -118q-6 -58 -64 -58h-86q-61 0 -55 58zM606 1260l19 118q8 62 71 62h78q67 0 55 -62l-18 -118q-6 -58 -63 -58h-86q-62 0 -56 58z" />
<glyph unicode="&#xa9;" horiz-adv-x="1681" d="M119 717q39 316 259 519q220 204 550 204q333 0 519 -207q185 -206 146 -537q-39 -317 -261 -520q-223 -203 -554 -203q-335 0 -518 210q-182 208 -141 534zM246 696q-33 -272 114 -438t416 -166q274 0 466 174q191 173 224 451q30 268 -112 435q-144 169 -418 169 q-276 0 -467 -174q-190 -173 -223 -451zM469 719q33 245 135 336q103 92 334 92q126 0 256 -29l-23 -139q-134 6 -223 6q-153 0 -211 -50t-82 -230q-21 -159 13 -215q33 -54 147 -54q156 -2 289 8l10 -137q-130 -33 -276 -33q-244 0 -324 97q-80 96 -45 348z" />
<glyph unicode="&#xaa;" horiz-adv-x="915" d="M145 909q15 119 46 189q31 71 83 103q51 32 99 41q47 9 123 9q209 0 368 -41l-92 -651h-147v103q-113 -117 -279 -117q-125 -2 -175 84t-26 280zM330 736q12 -34 63 -34q99 0 234 123l39 281l-125 2q-117 0 -152 -33q-34 -32 -55 -174q-16 -129 -4 -165z" />
<glyph unicode="&#xab;" horiz-adv-x="1015" d="M66 498l4 53l372 395l107 -88l-279 -344l201 -360l-123 -82zM467 498l4 53l373 395l106 -88l-278 -344l200 -360l-124 -82z" />
<glyph unicode="&#xac;" horiz-adv-x="1193" d="M119 522l24 185h924l-61 -433h-189l35 248h-733z" />
<glyph unicode="&#xad;" horiz-adv-x="874" d="M104 432l25 176h616l-24 -176h-617z" />
<glyph unicode="&#xae;" horiz-adv-x="1101" d="M150 993q23 206 155 325q133 120 340 120q194 0 316 -122q121 -121 98 -341q-22 -211 -155 -330t-337 -119q-211 0 -326 130t-91 337zM225 981q-18 -182 77 -283q94 -100 265 -100q182 0 290 104q109 105 126 291q15 177 -79 277q-92 98 -261 98q-184 0 -291 -106 q-109 -108 -127 -281zM365 737l71 500q72 6 223 6q98 0 149 -31q50 -30 38 -125q-6 -48 -31 -76q-24 -27 -82 -42l-2 -4q37 -15 49 -76l37 -152h-115l-30 154q-7 26 -21 36q-12 9 -37 9h-112l-29 -199h-108zM512 1012h104q62 2 87 16q26 15 32 64q6 43 -11 56t-71 13h-121z " />
<glyph unicode="&#xaf;" horiz-adv-x="819" d="M213 1231l25 172h596l-25 -172h-596z" />
<glyph unicode="&#xb0;" horiz-adv-x="724" d="M170 1184q11 113 89 183q80 71 198 71q124 0 196 -79q72 -80 62 -196q-12 -116 -92 -187t-199 -71q-127 0 -196 81q-69 80 -58 198zM313 1178q-6 -62 27 -99t92 -37t96 34t41 93t-26 97q-30 37 -92 37q-59 0 -96 -34q-38 -35 -42 -91z" />
<glyph unicode="&#xb1;" horiz-adv-x="1183" d="M63 113l27 184h920l-27 -184h-920zM141 657l25 185h366l37 258h187l-37 -258h366l-24 -185h-369l-37 -256h-184l35 256h-365z" />
<glyph unicode="&#xb2;" horiz-adv-x="829" d="M129 737l16 117q7 59 31 78l244 215q181 158 192 237q6 33 -17 44q-24 12 -83 12q-130 0 -264 -15v146q143 28 284 28q139 0 214 -45q76 -45 61 -161q-7 -71 -45 -131q-37 -59 -129 -142l-250 -217q43 10 125 10h258l-27 -176h-610z" />
<glyph unicode="&#xb3;" horiz-adv-x="796" d="M129 743l16 146q39 0 91 -3q18 -1 43.5 -2.5t32.5 -1.5q13 -1 75 1q158 11 180 121q10 52 -15 79q-26 27 -95 27h-170l16 137h164q72 0 102 28q29 27 33 87q6 49 -16 64q-24 16 -109 16q-5 0 -225 -6v143q161 23 266 23q148 0 212 -53q62 -51 54 -152q-7 -78 -46 -146 q-37 -64 -109 -69v-4q153 -27 125 -213q-37 -240 -355 -244q-111 -2 -270 22z" />
<glyph unicode="&#xb4;" horiz-adv-x="690" d="M203 1196l422 303l106 -186l-461 -228z" />
<glyph unicode="&#xb6;" horiz-adv-x="1206" d="M106 932q39 277 197 392q157 114 496 114q196 0 338 -35l-197 -1403h-176l180 1278q-84 6 -147 6l-242 -1714h-174l119 842q-240 24 -334 148t-60 372z" />
<glyph unicode="&#xb7;" horiz-adv-x="503" d="M109 481l16 105q7 84 94 84h74q97 0 82 -95l-15 -102q-8 -86 -94 -86h-71q-98 0 -86 94z" />
<glyph unicode="&#xb8;" horiz-adv-x="495" d="M-74 -479l41 119q76 -2 130 34q57 38 69 97q4 24 -15 31q-21 8 -98 8l29 108q147 16 210 -12q62 -28 44 -129q-23 -140 -137 -209q-115 -70 -273 -47z" />
<glyph unicode="&#xb9;" horiz-adv-x="598" d="M178 1501l232 84h190l-121 -848h-188l86 592q8 58 18 92l-213 -57z" />
<glyph unicode="&#xba;" horiz-adv-x="897" d="M139 905q27 194 112 271q84 77 271 77q196 0 269 -84t45 -282q-27 -189 -113 -266q-85 -76 -270 -76q-191 0 -266 83q-75 82 -48 277zM328 887q-17 -117 9 -158t120 -41q91 0 132 45q40 44 58 172q17 121 -9 162t-116 41q-100 0 -138 -45q-38 -46 -56 -176z" />
<glyph unicode="&#xbb;" horiz-adv-x="1019" d="M41 154l278 344l-200 360l125 82l280 -424l-4 -55l-373 -395zM442 154l279 344l-201 360l123 82l283 -424l-4 -55l-373 -395z" />
<glyph unicode="&#xbc;" horiz-adv-x="1802" d="M162 1327l239 86h191l-119 -848h-192l84 594q7 59 20 94l-221 -55zM205 0l1077 1413h172l-1075 -1413h-174zM939 224q-26 43 11 110l312 514h184l-289 -488q-18 -34 21 -34h233l31 221l51 137h147l-51 -358h109l-19 -127l-108 -15l-27 -184h-176l25 182h-367 q-62 0 -87 42z" />
<glyph unicode="&#xbd;" horiz-adv-x="1828" d="M162 1327l239 86h191l-119 -848h-192l84 594q7 59 20 94l-221 -55zM188 0l1078 1413h172l-1076 -1413h-174zM1001 0l15 111q6 50 33 77l260 215q181 145 204 234q11 41 -16 53t-94 12q-137 0 -283 -10v142q143 28 293 28q175 0 252 -45q75 -44 57 -172 q-16 -123 -186 -264l-276 -219q55 10 131 6h297l-25 -168h-662z" />
<glyph unicode="&#xbe;" horiz-adv-x="1984" d="M102 567l13 142q175 -9 256 -9q103 0 146 30q44 30 54 101q8 51 -15 76q-24 27 -107 27h-185l19 135h174q139 0 151 117q7 51 -16 67q-25 17 -109 17q-125 0 -260 -4l-2 137q138 22 285 22q181 0 245 -46t48 -160q-12 -91 -51 -142t-127 -63l-13 -6q95 -15 130 -68 t24 -154q-15 -129 -92 -185t-252 -56q-144 0 -316 22zM406 0l1075 1413h174l-1077 -1413h-172zM1121 224q-26 42 12 110l311 514h184l-289 -488q-18 -34 19 -34h235l29 221l53 137h148l-51 -358h108l-20 -127l-109 -15l-25 -184h-178l25 182h-365q-62 0 -87 42z" />
<glyph unicode="&#xbf;" horiz-adv-x="1019" d="M-35 -96q10 82 57 151q49 73 106 124q86 77 122 109q59 52 112 131q52 78 70 169h203q-12 -103 -54 -190q-39 -81 -96 -146q-50 -57 -106 -110q-51 -48 -95 -103q-42 -53 -53 -107q-16 -74 28 -112q43 -37 157 -37q255 0 413 14v-174q-7 -1 -47 -9q-10 -2 -46 -8 q-30 -5 -40 -7q-35 -7 -45 -8q-32 -3 -44 -5q-18 -3 -52 -5q-24 -2 -55 -3q-44 -2 -68 -2h-76q-211 0 -311 90q-101 91 -80 238zM451 844l14 106q12 84 94 84h57q98 0 86 -94l-16 -104q-8 -84 -94 -84h-57q-96 0 -84 92z" />
<glyph unicode="&#xc0;" horiz-adv-x="1298" d="M-72 0l615 1350q21 63 94 63h252q32 0 56 -21t26 -53l239 -1339h-256l-59 397h-528l-170 -397h-269zM399 1724l123 170l391 -303l-84 -108zM459 614h403l-71 480l-13 129h-61q-14 -37 -51 -127z" />
<glyph unicode="&#xc1;" horiz-adv-x="1298" d="M-72 0l615 1350q21 63 94 63h252q32 0 56 -21t26 -53l239 -1339h-256l-59 397h-528l-170 -397h-269zM459 614h403l-71 480l-13 129h-61q-14 -37 -51 -127zM637 1593l424 303l106 -186l-462 -227z" />
<glyph unicode="&#xc2;" horiz-adv-x="1298" d="M-72 0l615 1350q21 63 94 63h252q32 0 56 -21t26 -53l239 -1339h-256l-59 397h-528l-170 -397h-269zM432 1585l303 268h172l258 -282l-84 -92l-254 204h-16l-311 -200zM459 614h403l-71 480l-13 129h-61q-14 -37 -51 -127z" />
<glyph unicode="&#xc3;" horiz-adv-x="1298" d="M-72 0l615 1350q21 63 94 63h252q32 0 56 -21t26 -53l239 -1339h-256l-59 397h-528l-170 -397h-269zM449 1561q1 132 55 199t133 63q70 -6 163 -51q96 -46 138 -52q56 -8 81 16q27 25 34 81l108 -11q0 -130 -52 -195q-54 -67 -134 -63q-74 6 -175 54q-100 47 -130 53 q-56 8 -80 -19q-26 -29 -33 -86zM459 614h403l-71 480l-13 129h-61q-14 -37 -51 -127z" />
<glyph unicode="&#xc4;" horiz-adv-x="1298" d="M-72 0l615 1350q21 63 94 63h252q32 0 56 -21t26 -53l239 -1339h-256l-59 397h-528l-170 -397h-269zM459 614h403l-71 480l-13 129h-61q-14 -37 -51 -127zM520 1620l21 119q7 61 69 61h78q38 0 49 -14q12 -15 8 -47l-20 -117q-6 -59 -63 -59h-87q-61 0 -55 57zM866 1620 l21 119q7 61 69 61h78q38 0 49 -14q13 -16 9 -47l-21 -117q-6 -59 -63 -59h-86q-62 0 -56 57z" />
<glyph unicode="&#xc5;" horiz-adv-x="1298" d="M-72 0l615 1350q21 63 94 63h252q32 0 56 -21t26 -53l239 -1339h-256l-59 397h-528l-170 -397h-269zM459 614h403l-71 480l-13 129h-61q-14 -37 -51 -127zM578 1696q12 91 75 154t164 63q104 0 169 -67q64 -66 52 -169q-11 -93 -74 -153q-65 -62 -165 -62q-105 0 -169 67 q-63 66 -52 167zM702 1690q-6 -54 24 -84q31 -31 75 -31q47 0 79 32q30 30 35 83q4 49 -22 78q-27 30 -76 30q-46 0 -79 -31q-31 -30 -36 -77z" />
<glyph unicode="&#xc6;" horiz-adv-x="1884" d="M-98 0l798 1167q96 146 213 197t349 51q425 0 639 -14l-33 -197h-508q-120 0 -137 -125l-35 -245h551l-25 -191h-553l-43 -317q-11 -66 12 -92q22 -25 87 -25h512l-11 -197q-179 -16 -567 -16q-144 0 -221 83t-56 228l15 101h-443l-274 -408h-270zM592 623h328l67 489 q10 90 70 139h-13q-57 -44 -112 -125z" />
<glyph unicode="&#xc7;" horiz-adv-x="1175" d="M123 717q55 403 201 562t460 159q232 0 408 -47l-37 -193q-167 14 -377 14q-124 0 -192 -40q-71 -41 -118 -151q-49 -112 -77 -325q-40 -284 6 -389q46 -104 217 -106q233 -2 416 20l12 -194q-176 -52 -434 -52q-313 0 -427 176q-113 175 -58 566zM289 -510l41 121 q76 -1 132 34t68 95q5 24 -15 32q-18 7 -97 7l26 108q149 16 212 -12q62 -28 44 -129q-24 -140 -138 -209q-115 -69 -273 -47z" />
<glyph unicode="&#xc8;" horiz-adv-x="1157" d="M104 315l117 840q17 125 101 194q83 68 227 68q439 0 622 -18l-32 -195h-545q-63 0 -89 -26q-29 -29 -36 -97l-35 -247h576l-25 -191h-575l-45 -317q-8 -67 14 -92t86 -25h532l-6 -197q-169 -16 -577 -16q-174 0 -252 84q-79 85 -58 235zM385 1757l123 170l391 -301 l-84 -108z" />
<glyph unicode="&#xc9;" horiz-adv-x="1157" d="M104 315l117 840q17 125 101 194q83 68 227 68q439 0 622 -18l-32 -195h-545q-63 0 -89 -26q-29 -29 -36 -97l-35 -247h576l-25 -191h-575l-45 -317q-8 -67 14 -92t86 -25h532l-6 -197q-169 -16 -577 -16q-174 0 -252 84q-79 85 -58 235zM625 1628l422 303l106 -186 l-461 -227z" />
<glyph unicode="&#xca;" horiz-adv-x="1157" d="M104 315l117 840q17 125 101 194q83 68 227 68q439 0 622 -18l-32 -195h-545q-63 0 -89 -26q-29 -29 -36 -97l-35 -247h576l-25 -191h-575l-45 -317q-8 -67 14 -92t86 -25h532l-6 -197q-169 -16 -577 -16q-174 0 -252 84q-79 85 -58 235zM420 1618l301 270h174l258 -282 l-86 -95l-254 205h-16l-312 -198z" />
<glyph unicode="&#xcb;" horiz-adv-x="1157" d="M104 315l117 840q17 125 101 194q83 68 227 68q439 0 622 -18l-32 -195h-545q-63 0 -89 -26q-29 -29 -36 -97l-35 -247h576l-25 -191h-575l-45 -317q-8 -67 14 -92t86 -25h532l-6 -197q-169 -16 -577 -16q-174 0 -252 84q-79 85 -58 235zM508 1653l18 121q7 59 72 59h78 q37 0 48 -14q12 -14 7 -45l-18 -119q-6 -60 -66 -60h-86q-61 0 -53 58zM854 1653l18 121q7 59 70 59h80q62 0 55 -59l-18 -119q-6 -60 -66 -60h-86q-61 0 -53 58z" />
<glyph unicode="&#xcc;" horiz-adv-x="571" d="M31 1724l123 170l391 -303l-84 -108zM72 0l198 1413h258l-198 -1413h-258z" />
<glyph unicode="&#xcd;" horiz-adv-x="571" d="M72 0l198 1413h258l-198 -1413h-258zM268 1593l424 303l107 -186l-461 -227z" />
<glyph unicode="&#xce;" horiz-adv-x="571" d="M63 1585l304 268h174l256 -282l-84 -92l-254 204h-17l-311 -200zM72 0l198 1413h258l-198 -1413h-258z" />
<glyph unicode="&#xcf;" horiz-adv-x="571" d="M72 0l198 1413h258l-198 -1413h-258zM152 1620l20 119q7 61 70 61h77q39 0 50 -14q12 -15 8 -47l-21 -117q-6 -59 -63 -59h-86q-61 0 -55 57zM498 1620l20 119q7 61 70 61h78q38 0 49 -14q12 -15 8 -47l-18 -117q-7 -59 -66 -59h-86q-61 0 -55 57z" />
<glyph unicode="&#xd0;" horiz-adv-x="1370" d="M49 680l17 133h120l84 600q268 19 478 19q342 0 464 -161q121 -160 64 -575q-27 -189 -67 -315q-41 -127 -93 -207q-53 -80 -138 -122q-83 -41 -178 -56q-87 -14 -237 -14q-205 0 -491 18l96 680h-119zM356 201q139 -4 205 -4q156 0 233 35q79 36 130 147t84 338 q18 134 21 218q3 85 -9 143q-12 57 -50 88q-36 29 -90 41q-52 12 -141 12l-239 -2l-58 -404h281l-18 -133h-281z" />
<glyph unicode="&#xd1;" horiz-adv-x="1458" d="M72 0l186 1323q12 90 100 90h185q68 0 96 -82l287 -842q52 -158 69 -223h29q1 110 18 221l125 926h250l-188 -1323q-12 -90 -98 -90h-187q-68 0 -96 82l-297 866q-39 108 -57 207h-25q-2 -94 -16 -207l-129 -948h-252zM532 1561q1 130 56 199q54 67 133 63q70 -6 163 -51 q96 -46 138 -52q58 -8 83 16q27 25 34 81l108 -11q-1 -128 -53 -195t-133 -63q-76 6 -176 54q-98 47 -129 53q-56 8 -81 -19q-27 -28 -34 -86z" />
<glyph unicode="&#xd2;" horiz-adv-x="1376" d="M123 717q55 403 203 563t467 160q310 0 428 -169q119 -170 63 -575q-55 -410 -203 -567q-147 -156 -460 -156q-314 0 -434 166t-64 578zM391 696q-41 -292 8 -397q49 -106 228 -106q181 0 263 110q82 111 126 414q45 296 -5 400t-229 104q-186 0 -266 -108 q-80 -109 -125 -417zM432 1724l123 170l391 -303l-84 -108z" />
<glyph unicode="&#xd3;" horiz-adv-x="1376" d="M123 717q55 403 203 563t467 160q310 0 428 -169q119 -170 63 -575q-55 -410 -203 -567q-147 -156 -460 -156q-314 0 -434 166t-64 578zM391 696q-41 -292 8 -397q49 -106 228 -106q181 0 263 110q82 111 126 414q45 296 -5 400t-229 104q-186 0 -266 -108 q-80 -109 -125 -417zM670 1593l424 303l106 -186l-461 -227z" />
<glyph unicode="&#xd4;" horiz-adv-x="1376" d="M123 717q55 403 203 563t467 160q310 0 428 -169q119 -170 63 -575q-55 -410 -203 -567q-147 -156 -460 -156q-314 0 -434 166t-64 578zM391 696q-41 -292 8 -397q49 -106 228 -106q181 0 263 110q82 111 126 414q45 296 -5 400t-229 104q-186 0 -266 -108 q-80 -109 -125 -417zM467 1585l301 268h174l256 -282l-84 -92l-254 204h-16l-312 -200z" />
<glyph unicode="&#xd5;" horiz-adv-x="1376" d="M123 717q55 403 203 563t467 160q310 0 428 -169q119 -170 63 -575q-55 -410 -203 -567q-147 -156 -460 -156q-314 0 -434 166t-64 578zM391 696q-41 -292 8 -397q49 -106 228 -106q181 0 263 110q82 111 126 414q45 296 -5 400t-229 104q-186 0 -266 -108 q-80 -109 -125 -417zM481 1561q1 130 56 199q54 67 133 63q70 -6 163 -51q96 -46 138 -52q56 -8 81 16q26 24 33 81l109 -11q0 -126 -51 -194q-52 -68 -133 -64q-76 6 -177 54q-99 47 -131 53q-55 7 -79 -19q-26 -29 -33 -86z" />
<glyph unicode="&#xd6;" horiz-adv-x="1376" d="M123 717q55 403 203 563t467 160q310 0 428 -169q119 -170 63 -575q-55 -410 -203 -567q-147 -156 -460 -156q-314 0 -434 166t-64 578zM391 696q-41 -292 8 -397q49 -106 228 -106q181 0 263 110q82 111 126 414q45 296 -5 400t-229 104q-186 0 -266 -108 q-80 -109 -125 -417zM553 1620l20 119q7 61 70 61h78q38 0 49 -14q12 -15 8 -47l-18 -117q-7 -59 -66 -59h-86q-61 0 -55 57zM901 1620l19 119q7 61 69 61h78q38 0 49 -14q12 -15 8 -47l-18 -117q-7 -59 -66 -59h-86q-60 0 -53 57z" />
<glyph unicode="&#xd7;" horiz-adv-x="1073" d="M68 342l325 256l-248 256l136 135l264 -272l360 287l105 -156l-334 -266l246 -254l-134 -138l-264 273l-350 -279z" />
<glyph unicode="&#xd8;" horiz-adv-x="1376" d="M123 717q55 403 203 563t467 160q157 0 262 -39l92 149l104 -59l-92 -152q193 -159 125 -643q-55 -410 -203 -567q-147 -156 -460 -156q-159 0 -267 39l-88 -143l-102 61l86 142q-193 158 -127 645zM391 696q-41 -281 4 -387l537 887q-59 25 -150 25q-186 0 -266 -108 q-80 -109 -125 -417zM479 219q51 -26 148 -26q181 0 263 110q82 111 126 414q44 281 0 387z" />
<glyph unicode="&#xd9;" horiz-adv-x="1368" d="M139 559l119 854h258l-121 -864q-28 -203 19 -281q46 -75 202 -75q162 0 238 80q77 82 107 286l118 854h258l-123 -864q-45 -316 -180 -446q-134 -130 -413 -130q-286 0 -406 138q-119 137 -76 448zM430 1724l123 170l389 -303l-84 -108z" />
<glyph unicode="&#xda;" horiz-adv-x="1368" d="M139 559l119 854h258l-121 -864q-28 -203 19 -281q46 -75 202 -75q162 0 238 80q77 82 107 286l118 854h258l-123 -864q-45 -316 -180 -446q-134 -130 -413 -130q-286 0 -406 138q-119 137 -76 448zM668 1593l422 303l106 -186l-461 -227z" />
<glyph unicode="&#xdb;" horiz-adv-x="1368" d="M139 559l119 854h258l-121 -864q-28 -203 19 -281q46 -75 202 -75q162 0 238 80q77 82 107 286l118 854h258l-123 -864q-45 -316 -180 -446q-134 -130 -413 -130q-286 0 -406 138q-119 137 -76 448zM463 1585l303 268h172l258 -282l-84 -92l-256 204h-16l-310 -200z" />
<glyph unicode="&#xdc;" horiz-adv-x="1368" d="M139 559l119 854h258l-121 -864q-28 -203 19 -281q46 -75 202 -75q162 0 238 80q77 82 107 286l118 854h258l-123 -864q-45 -316 -180 -446q-134 -130 -413 -130q-286 0 -406 138q-119 137 -76 448zM551 1620l18 119q7 61 72 61h78q67 0 55 -61l-18 -117q-6 -59 -64 -59 h-86q-61 0 -55 57zM897 1620l18 119q12 61 72 61h78q67 0 55 -61l-18 -117q-6 -59 -64 -59h-86q-61 0 -55 57z" />
<glyph unicode="&#xdd;" horiz-adv-x="1200" d="M121 1413h260l178 -553q27 -78 33 -172h20q18 77 78 178l334 547h279l-598 -938l-66 -475h-258l70 487zM575 1593l422 303l107 -186l-461 -227z" />
<glyph unicode="&#xde;" horiz-adv-x="1224" d="M72 0l198 1413h258l-34 -242q132 3 239 3q259 0 365 -104q105 -103 67 -368q-38 -263 -147 -356q-110 -94 -354 -94q-141 0 -297 18l-37 -270h-258zM393 463h240q138 1 196 53q57 51 80 205q21 148 -16 194q-39 48 -168 48l-260 -2z" />
<glyph unicode="&#xdf;" horiz-adv-x="1411" d="M-231 -383l38 176h146q89 0 127 29q36 27 51 115l125 886h-180l24 170l183 11l18 126q29 215 149 287t373 72q284 0 387 -68t76 -231q-12 -76 -51 -136q-41 -62 -139 -130q-23 -16 -50 -33q-35 -22 -53 -35q-3 -2 -39 -31q-20 -16 -33 -34q-11 -15 -16 -35q-2 -10 -2 -16 q0 -4 2 -14q1 -6 5 -12q2 -3 10 -13q4 -5 11 -12q8 -8 15 -13l9 -6t8 -6q16 -12 19 -14q20 -13 22 -15l167 -117q87 -64 118 -123q32 -60 20 -159q-21 -150 -116 -204q-96 -55 -294 -55q-150 0 -334 23l29 180q81 -4 250 -4q112 0 161 19q47 18 54 75q4 40 -16 67 q-22 28 -80 71l-170 114q-148 103 -127 240q6 41 23 73q18 34 56 68q39 35 66 54l90 65q82 54 111 89q31 37 37 81q8 54 -33 78t-178 24q-155 0 -217 -41q-61 -41 -78 -159l-168 -1196q-22 -149 -109 -225q-84 -74 -243 -74q-109 0 -254 18z" />
<glyph unicode="&#xe0;" d="M84 518q24 166 69 276q44 106 115 156q74 52 145 67q72 15 189 15q264 0 506 -59l-137 -973h-197l6 174q-170 -198 -420 -199q-184 -1 -250 121q-66 124 -26 422zM287 1354l123 172l391 -303l-84 -109zM325 240q18 -56 101 -56q86 0 166 48q78 47 182 151l64 448l-183 3 q-88 0 -143 -10q-50 -9 -87 -45t-55 -97q-17 -58 -34 -176q-29 -212 -11 -266z" />
<glyph unicode="&#xe1;" d="M84 518q24 166 69 276q44 106 115 156q74 52 145 67q72 15 189 15q264 0 506 -59l-137 -973h-197l6 174q-170 -198 -420 -199q-184 -1 -250 121q-66 124 -26 422zM325 240q18 -56 101 -56q86 0 166 48q78 47 182 151l64 448l-183 3q-88 0 -143 -10q-50 -9 -87 -45 t-55 -97q-17 -58 -34 -176q-29 -212 -11 -266zM524 1225l422 303l109 -187l-463 -227z" />
<glyph unicode="&#xe2;" d="M84 518q24 166 69 276q44 106 115 156q74 52 145 67q72 15 189 15q264 0 506 -59l-137 -973h-197l6 174q-170 -198 -420 -199q-184 -1 -250 121q-66 124 -26 422zM319 1214l304 271h172l258 -283l-84 -94l-254 205h-17l-311 -199zM325 240q18 -56 101 -56q86 0 166 48 q78 47 182 151l64 448l-183 3q-88 0 -143 -10q-50 -9 -87 -45t-55 -97q-17 -58 -34 -176q-29 -212 -11 -266z" />
<glyph unicode="&#xe3;" d="M84 518q24 166 69 276q44 106 115 156q74 52 145 67q72 15 189 15q264 0 506 -59l-137 -973h-197l6 174q-170 -198 -420 -199q-184 -1 -250 121q-66 124 -26 422zM325 240q18 -56 101 -56q86 0 166 48q78 47 182 151l64 448l-183 3q-88 0 -143 -10q-50 -9 -87 -45 t-55 -97q-17 -58 -34 -176q-29 -212 -11 -266zM336 1192q1 130 55 199q52 67 131 61q74 -5 166 -50q93 -46 135 -52q58 -8 83 16q26 25 34 82l109 -10q0 -127 -53 -195q-52 -67 -134 -63q-76 6 -175 53q-100 47 -130 53q-56 6 -81 -19q-27 -27 -34 -85z" />
<glyph unicode="&#xe4;" d="M84 518q24 166 69 276q44 106 115 156q74 52 145 67q72 15 189 15q264 0 506 -59l-137 -973h-197l6 174q-170 -198 -420 -199q-184 -1 -250 121q-66 124 -26 422zM325 240q18 -56 101 -56q86 0 166 48q78 47 182 151l64 448l-183 3q-88 0 -143 -10q-50 -9 -87 -45 t-55 -97q-17 -58 -34 -176q-29 -212 -11 -266zM408 1251l18 119q8 62 72 62h77q69 0 58 -62l-21 -119q-6 -57 -63 -57h-86q-61 0 -55 57zM754 1251l20 119q8 62 70 62h78q65 0 57 -62l-21 -119q-6 -57 -63 -57h-86q-61 0 -55 57z" />
<glyph unicode="&#xe5;" d="M84 518q24 166 69 276q44 106 115 156q74 52 145 67q72 15 189 15q264 0 506 -59l-137 -973h-197l6 174q-170 -198 -420 -199q-184 -1 -250 121q-66 124 -26 422zM325 240q18 -56 101 -56q86 0 166 48q78 47 182 151l64 448l-183 3q-88 0 -143 -10q-50 -9 -87 -45 t-55 -97q-17 -58 -34 -176q-29 -212 -11 -266zM465 1327q12 91 76 155q62 62 164 62q103 0 168 -66q65 -67 53 -169q-12 -93 -76 -156q-62 -61 -164 -61q-106 0 -169 66t-52 169zM590 1319q-6 -54 23 -83q30 -30 75 -30q47 0 79 32q31 31 36 83q4 46 -24 78q-28 31 -74 31 q-49 0 -80 -31t-35 -80z" />
<glyph unicode="&#xe6;" horiz-adv-x="1802" d="M86 518q23 172 66 276q44 106 112 155q71 51 140 67q68 16 186 16q213 0 444 -43q107 43 299 43q249 0 335 -85q87 -86 65 -249q-21 -147 -115 -213q-93 -65 -289 -77l-317 -27q2 -119 57 -161t170 -42q162 0 367 25l14 -162q-150 -66 -414 -66q-332 0 -415 213 q-169 -211 -431 -213q-185 -1 -251 121q-66 124 -23 422zM330 240q17 -56 96 -56q147 0 330 183q0 92 10 161q24 191 86 304q-118 2 -197 2q-87 0 -140 -10q-49 -9 -86 -45t-55 -97q-17 -58 -34 -176q-27 -210 -10 -266zM1026 549l287 24q86 6 127 38q42 32 49 110 q6 78 -31 96q-40 19 -158 19q-134 -1 -190 -59q-56 -57 -84 -228z" />
<glyph unicode="&#xe7;" horiz-adv-x="1011" d="M78 512q40 285 164 403q123 117 385 117q219 0 352 -59l-35 -152q-185 4 -280 4q-165 0 -233 -64q-69 -64 -93 -263q-24 -202 18 -259q44 -59 197 -59q173 0 309 21l17 -166q-156 -60 -371 -60q-270 0 -371 125q-100 124 -59 412zM195 -504l41 119q76 -1 131 34 q55 36 67 97q5 24 -15 32q-18 7 -97 7l28 109q148 16 211 -13q61 -28 43 -129q-23 -140 -137 -209q-115 -69 -272 -47z" />
<glyph unicode="&#xe8;" horiz-adv-x="1122" d="M82 528q39 289 162 397q122 107 405 107q251 0 337 -85q87 -86 65 -249q-21 -147 -115 -213q-93 -65 -289 -77l-317 -27q2 -119 57 -161t168 -42q161 0 377 25l16 -162q-158 -66 -426 -66q-267 0 -372 137t-68 416zM274 1354l123 172l391 -303l-83 -109zM344 549l287 24 q85 6 126 38q39 31 50 110q6 78 -31 96q-40 19 -158 19q-134 -1 -190 -59q-56 -57 -84 -228z" />
<glyph unicode="&#xe9;" horiz-adv-x="1122" d="M82 528q39 289 162 397q122 107 405 107q251 0 337 -85q87 -86 65 -249q-21 -147 -115 -213q-93 -65 -289 -77l-317 -27q2 -119 57 -161t168 -42q161 0 377 25l16 -162q-158 -66 -426 -66q-267 0 -372 137t-68 416zM344 549l287 24q85 6 126 38q39 31 50 110q6 78 -31 96 q-40 19 -158 19q-134 -1 -190 -59q-56 -57 -84 -228zM512 1225l424 303l106 -187l-460 -227z" />
<glyph unicode="&#xea;" horiz-adv-x="1122" d="M82 528q39 289 162 397q122 107 405 107q251 0 337 -85q87 -86 65 -249q-21 -147 -115 -213q-93 -65 -289 -77l-317 -27q2 -119 57 -161t168 -42q161 0 377 25l16 -162q-158 -66 -426 -66q-267 0 -372 137t-68 416zM307 1214l303 271h174l256 -283l-84 -94l-254 205h-16 l-311 -199zM344 549l287 24q85 6 126 38q39 31 50 110q6 78 -31 96q-40 19 -158 19q-134 -1 -190 -59q-56 -57 -84 -228z" />
<glyph unicode="&#xeb;" horiz-adv-x="1122" d="M82 528q39 289 162 397q122 107 405 107q251 0 337 -85q87 -86 65 -249q-21 -147 -115 -213q-93 -65 -289 -77l-317 -27q2 -119 57 -161t168 -42q161 0 377 25l16 -162q-158 -66 -426 -66q-267 0 -372 137t-68 416zM344 549l287 24q85 6 126 38q39 31 50 110q6 78 -31 96 q-40 19 -157 19q-135 -2 -191 -59t-84 -228zM395 1251l21 119q8 62 69 62h78q69 0 58 -62l-21 -119q-6 -57 -63 -57h-86q-62 0 -56 57zM741 1251l21 119q8 62 69 62h78q66 0 58 -62l-19 -119q-8 -57 -65 -57h-86q-62 0 -56 57z" />
<glyph unicode="&#xec;" horiz-adv-x="540" d="M-37 1354l123 172l389 -303l-84 -109zM61 0l142 1004h248l-142 -1004h-248z" />
<glyph unicode="&#xed;" horiz-adv-x="540" d="M61 0l142 1004h248l-142 -1004h-248zM201 1225l422 303l106 -187l-461 -227z" />
<glyph unicode="&#xee;" horiz-adv-x="540" d="M-4 1214l303 271h172l258 -283l-84 -94l-256 205h-16l-310 -199zM61 0l142 1004h248l-142 -1004h-248z" />
<glyph unicode="&#xef;" horiz-adv-x="540" d="M61 0l142 1004h248l-142 -1004h-248zM84 1251l18 119q8 62 72 62h78q67 0 55 -62l-18 -119q-6 -57 -64 -57h-86q-61 0 -55 57zM430 1251l19 119q12 62 71 62h78q67 0 55 -62l-18 -119q-6 -57 -64 -57h-86q-61 0 -55 57z" />
<glyph unicode="&#xf0;" horiz-adv-x="1157" d="M72 455q62 467 467 467q166 0 268 -91q-2 220 -90 316l-168 -123l-66 90l140 103q-94 44 -279 38l35 175q263 10 422 -82l164 120l65 -92l-137 -100q216 -209 154 -703q-39 -308 -167 -454t-399 -146q-239 0 -340 119q-99 117 -69 363zM332 442q-22 -150 15 -210t149 -60 q136 0 202 95t95 333l8 70q-89 55 -201 55q-127 0 -187 -68q-60 -67 -81 -215z" />
<glyph unicode="&#xf1;" horiz-adv-x="1202" d="M53 0l142 1004h196l-6 -207q253 235 467 235q128 0 194 -74q66 -73 48 -208l-107 -750h-248l95 680q10 82 -6 114q-14 29 -68 27q-78 0 -160 -45t-213 -147l-86 -629h-248zM354 1192q1 131 56 200q53 66 133 60q74 -5 165 -50q92 -46 136 -52q56 -8 81 16t33 82l109 -10 q0 -128 -51 -195t-133 -63q-78 6 -177 53t-131 53q-55 6 -79 -19q-26 -27 -33 -85z" />
<glyph unicode="&#xf2;" horiz-adv-x="1173" d="M78 510q40 283 166 403q125 119 393 119q267 0 370 -126q102 -125 62 -414q-39 -283 -165 -401q-125 -118 -388 -118q-264 0 -371 125q-106 124 -67 412zM279 1354l122 172l392 -303l-84 -109zM338 492q-29 -190 8 -254q38 -66 172 -66q142 0 205 71t90 267 q27 192 -9 258t-169 66q-141 0 -205 -70t-92 -272z" />
<glyph unicode="&#xf3;" horiz-adv-x="1173" d="M78 510q40 283 166 403q125 119 393 119q267 0 370 -126q102 -125 62 -414q-39 -283 -165 -401q-125 -118 -388 -118q-264 0 -371 125q-106 124 -67 412zM338 492q-29 -190 8 -254q38 -66 172 -66q142 0 205 71t90 267q27 192 -9 258t-169 66q-141 0 -205 -70t-92 -272z M516 1225l424 303l107 -187l-461 -227z" />
<glyph unicode="&#xf4;" horiz-adv-x="1173" d="M78 510q40 283 166 403q125 119 393 119q267 0 370 -126q102 -125 62 -414q-39 -283 -165 -401q-125 -118 -388 -118q-264 0 -371 125q-106 124 -67 412zM311 1214l303 271h174l256 -283l-83 -94l-254 205h-17l-311 -199zM338 492q-29 -190 8 -254q38 -66 172 -66 q142 0 205 71t90 267q27 192 -9 258t-169 66q-141 0 -205 -70t-92 -272z" />
<glyph unicode="&#xf5;" horiz-adv-x="1173" d="M78 510q40 283 166 403q125 119 393 119q267 0 370 -126q102 -125 62 -414q-39 -283 -165 -401q-125 -118 -388 -118q-264 0 -371 125q-106 124 -67 412zM328 1192q1 133 55 200q53 66 133 60q74 -5 165 -50q92 -46 136 -52q56 -8 81 16q26 25 34 82l108 -10 q0 -131 -52 -196q-53 -66 -134 -62q-76 6 -175 53q-100 47 -130 53q-56 6 -80 -19q-26 -27 -33 -85zM338 492q-29 -190 8 -254q38 -66 172 -66q142 0 205 71t90 267q27 192 -9 258t-169 66q-141 0 -205 -70t-92 -272z" />
<glyph unicode="&#xf6;" horiz-adv-x="1173" d="M78 510q40 283 166 403q125 119 393 119q267 0 370 -126q102 -125 62 -414q-39 -283 -165 -401q-125 -118 -388 -118q-264 0 -371 125q-106 124 -67 412zM338 492q-29 -190 8 -254q38 -66 172 -66q142 0 205 71t90 267q27 192 -9 258t-169 66q-141 0 -205 -70t-92 -272z M399 1251l21 119q8 62 69 62h78q69 0 58 -62l-21 -119q-6 -57 -63 -57h-86q-62 0 -56 57zM745 1251l21 119q8 62 70 62h77q66 0 58 -62l-19 -119q-8 -57 -65 -57h-86q-62 0 -56 57z" />
<glyph unicode="&#xf7;" horiz-adv-x="1136" d="M94 512l29 182h921l-28 -182h-922zM387 193l10 79q12 88 99 88h59q101 0 86 -96l-12 -82q-6 -43 -29 -65q-22 -21 -70 -21h-61q-51 0 -71 23q-19 22 -11 74zM492 936l12 82q7 88 98 88h60q50 0 71 -23q20 -21 12 -73l-10 -82q-6 -46 -28 -66q-21 -20 -70 -20h-59 q-98 0 -86 94z" />
<glyph unicode="&#xf8;" horiz-adv-x="1173" d="M78 510q40 283 166 403q125 119 393 119q110 0 194 -22l103 168l92 -54l-94 -155q190 -112 137 -477q-39 -283 -165 -401q-125 -118 -388 -118q-91 0 -176 17l-96 -158l-92 53l84 142q-209 107 -158 483zM338 492q-30 -209 18 -269l363 602q-36 9 -84 9q-141 0 -205 -70 t-92 -272zM453 176q33 -4 65 -4q142 0 205 71t90 267q27 184 -6 252z" />
<glyph unicode="&#xf9;" horiz-adv-x="1181" d="M84 256l104 748h248l-96 -682q-12 -78 7 -107q20 -31 79 -31q76 0 147 43q72 43 195 150l86 627h246l-139 -1004h-193l8 199q-238 -226 -446 -226q-140 0 -203 76q-64 78 -43 207zM291 1366l123 170l389 -301l-84 -109z" />
<glyph unicode="&#xfa;" horiz-adv-x="1181" d="M84 256l104 748h248l-96 -682q-12 -78 7 -107q20 -31 79 -31q76 0 147 43q72 43 195 150l86 627h246l-139 -1004h-193l8 199q-238 -226 -446 -226q-140 0 -203 76q-64 78 -43 207zM528 1237l422 303l107 -186l-461 -228z" />
<glyph unicode="&#xfb;" horiz-adv-x="1181" d="M84 256l104 748h248l-96 -682q-12 -78 7 -107q20 -31 79 -31q76 0 147 43q72 43 195 150l86 627h246l-139 -1004h-193l8 199q-238 -226 -446 -226q-140 0 -203 76q-64 78 -43 207zM324 1227l303 270h172l258 -283l-84 -94l-256 205h-17l-309 -199z" />
<glyph unicode="&#xfc;" horiz-adv-x="1181" d="M84 256l104 748h248l-96 -682q-12 -78 7 -107q20 -31 79 -31q76 0 147 43q72 43 195 150l86 627h246l-139 -1004h-193l8 199q-238 -226 -446 -226q-140 0 -203 76q-64 78 -43 207zM412 1262l18 120q8 60 72 60h78q67 0 55 -60l-19 -118q-6 -58 -63 -58h-86q-61 0 -55 56z M758 1262l18 120q12 60 72 60h78q67 0 55 -60l-18 -118q-6 -58 -64 -58h-86q-61 0 -55 56z" />
<glyph unicode="&#xfd;" horiz-adv-x="1146" d="M76 -250q131 29 229 83q94 52 184 167h-104q-46 0 -82 28t-43 72l-182 904h262l129 -787q6 -33 39 -33h94l27 56q166 357 235 764h260q-100 -494 -284 -844q-158 -299 -326 -425q-167 -125 -399 -153zM471 1225l422 303l106 -187l-460 -227z" />
<glyph unicode="&#xfe;" d="M-2 -399l256 1833h248l-43 -314q-18 -146 -45 -241l4 -15q169 164 389 164q175 0 244 -119q69 -118 28 -422q-23 -164 -63 -269q-41 -105 -107 -158q-64 -51 -134 -69q-69 -18 -169 -18q-148 0 -307 25q-6 -62 -18 -139l-35 -258h-248zM326 170l184 -2q92 0 141 9t86 46 t55 98q15 48 31 177q27 208 11 264q-16 57 -97 57q-91 0 -171 -48q-77 -47 -179 -153z" />
<glyph unicode="&#xff;" horiz-adv-x="1146" d="M76 -250q131 29 229 83q94 52 184 167h-104q-46 0 -82 28t-43 72l-182 904h262l129 -787q6 -33 39 -33h94l27 56q166 357 235 764h260q-100 -494 -284 -844q-158 -299 -326 -425q-167 -125 -399 -153zM354 1251l19 119q8 62 71 62h78q35 0 47 -15q13 -16 9 -47l-19 -119 q-6 -57 -65 -57h-86q-62 0 -54 57zM700 1251l19 119q8 62 69 62h80q67 0 56 -62l-19 -119q-6 -57 -65 -57h-86q-62 0 -54 57z" />
<glyph unicode="&#x152;" horiz-adv-x="1918" d="M123 717q57 413 203 568t462 155q195 0 345 -60q73 37 176 37q439 0 624 -18l-32 -195h-545q-60 0 -88 -27q-29 -28 -37 -96l-33 -247h574l-25 -191h-576l-43 -319q-8 -65 13 -90t84 -25h534l-6 -197q-170 -16 -582 -16q-133 0 -206 49q-157 -72 -351 -72 q-329 0 -440 162t-51 582zM391 696q-40 -291 6 -397t219 -106q138 0 246 30q-2 36 4 84l117 848q0 2 2 10t3 14q1 5 5 21q-91 21 -205 21q-184 0 -270 -112q-87 -112 -127 -413z" />
<glyph unicode="&#x153;" horiz-adv-x="1845" d="M78 510q40 283 166 403q125 119 389 119q240 0 346 -106q122 106 399 106q248 0 336 -85t66 -249q-22 -147 -117 -213q-93 -65 -287 -77l-315 -27q1 -121 56 -162t169 -41q160 0 365 25l16 -162q-150 -66 -416 -66q-241 0 -352 119q-128 -121 -385 -121q-265 0 -370 125 t-66 412zM336 492q-27 -189 10 -254q38 -66 170 -66q141 0 204 72q62 71 89 266q27 191 -9 257q-37 67 -167 67q-140 0 -204 -70q-63 -69 -93 -272zM1075 549l285 24q85 6 126 38q40 31 48 110q8 78 -29 96q-40 19 -157 19q-135 -2 -191 -59q-55 -57 -82 -228z" />
<glyph unicode="&#x178;" horiz-adv-x="1200" d="M121 1413h260l178 -553q27 -78 33 -172h20q18 77 78 178l334 547h279l-598 -938l-66 -475h-258l70 487zM459 1620l18 119q7 61 72 61h78q37 0 48 -14t7 -47l-18 -117q-6 -59 -66 -59h-86q-60 0 -53 57zM805 1620l18 119q7 61 70 61h80q36 0 47 -14q12 -15 8 -47l-18 -117 q-6 -59 -66 -59h-86q-60 0 -53 57z" />
<glyph unicode="&#x2c6;" horiz-adv-x="892" d="M188 1204l301 269h175l258 -283l-84 -92l-256 205h-17l-311 -201z" />
<glyph unicode="&#x2dc;" horiz-adv-x="882" d="M199 1186q1 132 55 199t133 63q70 -6 163 -51t138 -51q57 -8 81 15q27 25 34 81l108 -10q0 -128 -51 -195t-133 -63q-78 6 -177 53q-100 47 -130 53q-57 8 -80 -18q-26 -29 -33 -86z" />
<glyph unicode="&#x2000;" horiz-adv-x="965" />
<glyph unicode="&#x2001;" horiz-adv-x="1931" />
<glyph unicode="&#x2002;" horiz-adv-x="965" />
<glyph unicode="&#x2003;" horiz-adv-x="1931" />
<glyph unicode="&#x2004;" horiz-adv-x="643" />
<glyph unicode="&#x2005;" horiz-adv-x="482" />
<glyph unicode="&#x2006;" horiz-adv-x="321" />
<glyph unicode="&#x2007;" horiz-adv-x="321" />
<glyph unicode="&#x2008;" horiz-adv-x="241" />
<glyph unicode="&#x2009;" horiz-adv-x="386" />
<glyph unicode="&#x200a;" horiz-adv-x="107" />
<glyph unicode="&#x2010;" horiz-adv-x="874" d="M106 432l25 176h614l-24 -176h-615z" />
<glyph unicode="&#x2011;" horiz-adv-x="874" d="M106 432l25 176h614l-24 -176h-615z" />
<glyph unicode="&#x2012;" horiz-adv-x="874" d="M106 432l25 176h614l-24 -176h-615z" />
<glyph unicode="&#x2013;" horiz-adv-x="1175" d="M106 432l25 176h913l-24 -176h-914z" />
<glyph unicode="&#x2014;" horiz-adv-x="1789" d="M106 432l25 176h1528l-25 -176h-1528z" />
<glyph unicode="&#x2018;" horiz-adv-x="460" d="M170 1040l16 119q24 154 136 318l114 -37q-57 -152 -74 -232q41 2 58 -17q18 -20 14 -54l-16 -103q-7 -44 -31 -61q-23 -17 -76 -17h-63q-50 0 -68 20q-18 19 -10 64z" />
<glyph unicode="&#x2019;" horiz-adv-x="456" d="M193 973q52 143 73 233q-40 -1 -58 17t-13 53l14 104q11 46 32 61t74 15h66q93 0 76 -84l-17 -119q-21 -150 -133 -317z" />
<glyph unicode="&#x201a;" horiz-adv-x="481" d="M41 -233q52 140 74 231q-42 -2 -59 17q-18 19 -13 55l14 102q10 44 32 61t75 17h65q93 0 76 -86l-16 -119q-21 -152 -133 -315z" />
<glyph unicode="&#x201c;" horiz-adv-x="811" d="M170 1040l16 119q24 154 136 318l114 -37q-57 -152 -74 -232q41 2 58 -17q18 -20 14 -54l-16 -103q-7 -44 -31 -61q-23 -17 -76 -17h-63q-50 0 -68 20q-18 19 -10 64zM522 1040l17 119q21 156 133 318l114 -37q-50 -140 -73 -232q41 2 58 -17q18 -19 13 -54l-14 -103 q-11 -47 -32 -62q-22 -16 -74 -16h-66q-92 0 -76 84z" />
<glyph unicode="&#x201d;" horiz-adv-x="806" d="M193 973q52 143 73 233q-40 -1 -58 17t-13 53l14 104q11 46 32 61t74 15h66q93 0 76 -84l-17 -119q-21 -150 -133 -317zM543 973q56 148 73 233q-39 -1 -57 17q-19 19 -14 53l16 104q11 46 32 61t75 15h63q50 0 68 -19t10 -65l-16 -119q-22 -148 -136 -317z" />
<glyph unicode="&#x201e;" horiz-adv-x="833" d="M41 -236q53 149 74 232q-42 -2 -59 17q-18 19 -13 55l14 102q10 44 32 61t75 17h65q93 0 76 -84l-16 -121q-21 -152 -133 -315zM391 -236q57 152 74 232q-40 -2 -57 17q-19 21 -15 55l17 102q7 44 30 61t76 17h64q49 0 67 -20q18 -19 10 -64l-16 -121q-24 -153 -135 -315 z" />
<glyph unicode="&#x2022;" horiz-adv-x="751" d="M156 543l4 28q17 111 61 150q45 39 160 39h29q108 0 147 -46q40 -48 25 -153l-4 -26q-17 -117 -62 -158q-46 -41 -154 -41h-30q-113 0 -152 47t-24 160z" />
<glyph unicode="&#x2026;" horiz-adv-x="1792" d="M20 94l15 105q12 82 96 82h72q96 0 84 -93l-15 -104q-12 -84 -94 -84h-74q-99 0 -84 94zM676 94l14 105q12 82 96 82h72q96 0 84 -93l-14 -104q-12 -84 -94 -84h-74q-99 0 -84 94zM1331 94l15 105q12 82 96 82h71q96 0 84 -93l-14 -104q-12 -84 -94 -84h-74q-99 0 -84 94 z" />
<glyph unicode="&#x202f;" horiz-adv-x="386" />
<glyph unicode="&#x2039;" horiz-adv-x="614" d="M66 498l4 53l372 395l107 -88l-279 -344l201 -360l-123 -82z" />
<glyph unicode="&#x203a;" horiz-adv-x="616" d="M41 162l278 344l-200 358l123 82l282 -424l-4 -55l-373 -395z" />
<glyph unicode="&#x205f;" horiz-adv-x="482" />
<glyph unicode="&#x20ac;" horiz-adv-x="1294" d="M76 516l22 141h152l8 60q1 16 10 63h-153l20 142h162q69 267 219 391q151 125 420 125q190 0 348 -47l-37 -193q-142 24 -332 14q-142 -8 -222 -76q-81 -69 -124 -214h484l-37 -142h-479l-15 -82q-4 -19 -4 -21q-2 -18 -2 -20h434l-37 -141h-407q-2 -160 54 -235 q57 -76 188 -82q200 -11 378 22l9 -194q-161 -52 -375 -52q-269 0 -396 135q-126 134 -122 406h-166z" />
<glyph unicode="&#x2122;" horiz-adv-x="1982" d="M215 1284l18 141h682l-16 -141h-256l-90 -637h-174l90 637h-254zM895 647l129 719q6 33 19 46t44 13h168q60 0 64 -59l65 -391q0 -4 2.5 -23t3.5 -34t3 -36t2 -22h20q17 69 35 113l174 403q21 49 70 49h174q31 0 47 -19q17 -20 12 -50l-69 -709h-160l61 645h-22 l-211 -489q-21 -51 -72 -51h-115q-61 0 -65 59l-80 481h-25l-114 -645h-160z" />
<glyph unicode="&#x25fc;" horiz-adv-x="1003" d="M0 0v1004h1004v-1004h-1004z" />
<glyph unicode="&#xfb01;" horiz-adv-x="1304" d="M-233 -383l40 176h146q88 0 126 29q37 28 52 115l125 886h-178l22 170l183 11l20 145q22 161 103 243q80 81 241 81q141 0 260 -19l-24 -176h-156q-84 0 -126 -39q-41 -38 -56 -131l-15 -104h691l-142 -1004h-250l115 823h-438l-133 -925q-44 -299 -340 -299 q-119 0 -266 18zM1001 1264l17 110q6 68 74 68h114q36 0 54 -21t14 -55l-14 -113q-6 -35 -24 -50t-52 -15h-115q-80 0 -68 76z" />
<glyph unicode="&#xfb02;" horiz-adv-x="1421" d="M-231 -383l38 176h146q89 0 127 29q36 27 51 115l125 886h-178l22 170l181 11l20 145q24 160 106 244q80 82 240 80q460 0 649 -33l-157 -1157q-6 -60 15 -85q21 -26 81 -26h90l12 -162q-67 -33 -209 -33q-129 0 -195 69t-50 187l147 1047h-303q-85 2 -126 -38t-56 -134 l-15 -104h273l-25 -181h-274l-129 -925q-44 -299 -342 -299q-117 0 -264 18z" />
</font>
</defs>
</svg>
