<?xml version="1.0" standalone="no"?>
<!DOCTYPE svg PUBLIC "-//W3C//DTD SVG 1.1//EN" "http://www.w3.org/Graphics/SVG/1.1/DTD/svg11.dtd" >
<svg xmlns="http://www.w3.org/2000/svg" xmlns:xlink="http://www.w3.org/1999/xlink" version="1.1">
<metadata></metadata>
<defs>
<font id="exo_2medium_italic" horiz-adv-x="1175" >
<font-face units-per-em="2048" ascent="1638" descent="-410" />
<missing-glyph horiz-adv-x="454" />
<glyph horiz-adv-x="0" />
<glyph unicode="&#xd;" horiz-adv-x="681" />
<glyph unicode=" "  horiz-adv-x="454" />
<glyph unicode="&#x09;" horiz-adv-x="454" />
<glyph unicode="&#xa0;" horiz-adv-x="454" />
<glyph unicode="!" horiz-adv-x="563" d="M109 76l18 110q6 68 76 68h51q77 0 65 -76l-14 -108q-6 -70 -76 -70h-51q-76 0 -69 76zM180 436l33 375l86 612h197l-88 -612l-70 -375h-158z" />
<glyph unicode="&#x22;" horiz-adv-x="729" d="M197 971l51 442h160l-76 -442h-135zM498 971l51 442h160l-74 -442h-137z" />
<glyph unicode="#" horiz-adv-x="1404" d="M57 430l41 125h238l110 354h-237l43 125h233l119 379h156l-119 -379h358l119 379h156l-119 -379h229l-43 -125h-225l-110 -354h225l-43 -125h-223l-136 -430h-155l135 430h-358l-136 -430h-155l135 430h-238zM492 555h358l111 354h-359z" />
<glyph unicode="$" horiz-adv-x="1157" d="M53 16l27 152q74 -3 225 -7q111 -3 127 -3l105 475l-129 45q-145 52 -198 148q-53 95 -32 251q17 119 55 191t109 109q69 36 145 48q83 13 197 13h43l43 196h94l-43 -200q157 -10 289 -41l-23 -148q-210 8 -305 8l-102 -462l108 -39q157 -56 206 -147q50 -93 28 -255 q-30 -227 -145 -301t-385 -74h-5l-53 -231h-94l53 233q-181 7 -340 39zM383 1057q-12 -100 13 -137t122 -72l76 -27l94 434h-4q-80 0 -101 -1q-35 -2 -75 -10q-44 -9 -62 -30q-19 -22 -36 -59q-20 -44 -27 -98zM526 158q157 5 215 44q60 40 76 169q12 102 -14 138 q-27 38 -119 71l-59 22z" />
<glyph unicode="%" horiz-adv-x="1837" d="M145 1028q33 228 116 320t261 92q190 0 255 -99t32 -329q-33 -229 -117 -320q-84 -92 -264 -92q-188 0 -250 98q-63 99 -33 330zM295 1012q-23 -166 3 -228q25 -61 124 -61q121 0 167 64q46 63 70 241q24 165 -2 226q-27 63 -129 63q-115 0 -162 -65t-71 -240zM303 0 l1102 1413h154l-1102 -1413h-154zM1059 406q30 227 113 319t262 92q191 0 255 -98t31 -328q-33 -229 -116 -319q-84 -92 -265 -92q-187 0 -249 98q-64 100 -31 328zM1206 391q-22 -166 4 -228q27 -63 125 -63q118 0 165 65t71 241q24 165 -2 226q-27 62 -129 62 q-117 0 -163 -64q-47 -65 -71 -239z" />
<glyph unicode="&#x26;" horiz-adv-x="1529" d="M86 367q41 344 340 362l2 10q-246 18 -195 336q37 217 162 289t379 72q174 0 352 -45l-34 -152q-121 27 -310 27q-181 0 -254 -44q-71 -43 -94 -190q-21 -130 28 -177q47 -46 197 -46h428q5 88 5 256h180q2 -131 -4 -256h213l-23 -156h-207q-30 -218 -123 -368 q-192 -307 -641 -308q-237 -1 -331 90t-70 300zM303 387q-21 -131 24 -182q43 -49 183 -49q309 0 453 204q80 111 108 293h-432q-166 0 -238 -56q-74 -57 -98 -210z" />
<glyph unicode="'" horiz-adv-x="428" d="M197 971l51 442h160l-76 -442h-135z" />
<glyph unicode="(" horiz-adv-x="731" d="M109 647q55 397 219 633q163 235 458 340l23 -96q-212 -96 -336 -313q-123 -215 -172 -578q-50 -344 9 -562q59 -219 241 -319l-27 -88q-526 207 -415 983z" />
<glyph unicode=")" horiz-adv-x="731" d="M-66 -244q409 196 510 893q50 351 -10 568q-60 218 -241 311l26 88q269 -105 372 -346t46 -639q-57 -396 -220 -631t-460 -340z" />
<glyph unicode="*" horiz-adv-x="917" d="M172 1126l47 109l240 -94l-8 -51l-29 -33zM240 821l245 262l29 332h119l-68 -332l174 -264l-98 -69l-121 254l-190 -252zM610 1090v51l256 94l23 -119l-260 -59z" />
<glyph unicode="+" horiz-adv-x="1120" d="M98 539l23 147h375l51 358h151l-51 -358h377l-20 -147h-377l-49 -357h-152l51 357h-379z" />
<glyph unicode="," horiz-adv-x="473" d="M49 -246q52 161 68 250q-32 -2 -47 15q-17 19 -13 49l17 118q8 41 26 55q17 13 64 13h57q76 0 64 -76l-19 -131q-16 -144 -121 -326z" />
<glyph unicode="-" horiz-adv-x="901" d="M119 442l20 152h621l-21 -152h-620z" />
<glyph unicode="." horiz-adv-x="468" d="M57 76l17 110q8 68 76 68h65q75 0 68 -76l-15 -108q-8 -70 -78 -70h-65q-80 0 -68 76z" />
<glyph unicode="/" horiz-adv-x="1083" d="M-47 -137l1022 1550h168l-1022 -1550h-168z" />
<glyph unicode="0" horiz-adv-x="1239" d="M139 715q55 391 188 558q132 167 398 167q275 0 367 -176t36 -566q-52 -388 -187 -557q-133 -168 -398 -168q-273 0 -366 174q-94 175 -38 568zM337 273q43 -121 206 -121q173 0 258 126q86 127 131 437q43 304 -2 426q-45 121 -209 121q-171 0 -257 -126t-126 -438 q-45 -302 -1 -425z" />
<glyph unicode="1" horiz-adv-x="817" d="M129 1270l375 143h207l-199 -1413h-205l152 1096q13 89 26 129l-352 -109z" />
<glyph unicode="2" horiz-adv-x="1142" d="M25 0l18 133q11 61 35 86l459 443q154 147 236 258q79 108 87 204q11 85 -41 109q-51 24 -178 24q-190 0 -418 -30v159q240 52 439 52q214 0 320 -68t85 -250q-16 -128 -84 -238q-69 -112 -227 -264l-445 -428q108 9 215 9h461l-26 -199h-936z" />
<glyph unicode="3" horiz-adv-x="1128" d="M25 10l26 160q30 -2 134 -9q98 -7 123 -7q5 0 19.5 0.5t43.5 1t57 0.5q309 22 352 268q18 111 -31 173q-50 63 -196 65l-264 6l20 153h256q144 1 205 69q60 66 72 181q12 114 -35 152q-46 37 -219 37q-138 0 -350 -17l-2 160q225 37 399 37q233 0 327 -83q93 -82 76 -253 q-8 -82 -33 -156q-26 -75 -82 -134q-59 -62 -135 -69l-4 -8q245 -40 199 -352q-62 -394 -543 -412q-180 -6 -415 37z" />
<glyph unicode="4" horiz-adv-x="1257" d="M78 417q-45 81 10 169l502 827h205l-498 -833q-47 -78 31 -78h454l58 409l69 230h158l-90 -639h184l-20 -146l-187 -20l-47 -336h-194l47 336h-527q-110 0 -155 81z" />
<glyph unicode="5" horiz-adv-x="1095" d="M29 27l34 166q184 -45 340 -35q326 18 361 293q18 137 -56 189q-76 53 -290 65l-154 14q-37 1 -62 31q-24 28 -16 69l115 594h762l-35 -176h-586l-69 -352l151 -15q244 -21 353 -120q110 -100 86 -316q-10 -79 -38 -152q-28 -72 -83 -141q-56 -70 -156 -113 q-106 -46 -237 -53q-200 -10 -420 52z" />
<glyph unicode="6" horiz-adv-x="1169" d="M120 284q-18 160 21 414q27 191 68 325q40 131 90 214t124 126q77 44 154 59q85 16 195 16q134 0 309 -33l-24 -148q-110 7 -273 7q-205 0 -290 -94t-140 -396q158 152 363 152q190 1 277 -105q87 -107 50 -362q-38 -248 -151 -366q-114 -118 -375 -118q-194 0 -288 74 q-92 73 -110 235zM326 590q-37 -257 2 -348q39 -90 202 -90q164 0 229 75q67 78 91 244q24 165 -10 227q-35 64 -176 62q-159 0 -338 -170z" />
<glyph unicode="7" horiz-adv-x="1048" d="M166 1239l16 174h807q65 0 88 -38q22 -37 -6 -97l-616 -1278h-205l549 1135q28 61 61 104h-694z" />
<glyph unicode="8" horiz-adv-x="1239" d="M96 360q24 173 89 268t196 107l2 8q-193 23 -154 326q29 199 132 283t362 84q266 -2 353 -90q87 -89 59 -293q-41 -295 -246 -318l-2 -8q231 -24 180 -383q-27 -200 -136 -282q-111 -84 -390 -85q-260 -2 -366 92t-79 291zM295 389q-18 -139 33 -187t235 -48 q170 0 236 54q65 54 82 198q22 151 -26 198q-49 47 -232 47q-178 -1 -242 -50q-63 -48 -86 -212zM410 1034q-18 -135 28 -177t219 -42q158 0 216 47q56 46 73 187q21 131 -24 176t-215 45q-166 0 -223 -48q-56 -47 -74 -188z" />
<glyph unicode="9" horiz-adv-x="1167" d="M92 8l29 150q135 -11 289 -6q210 6 296 105q84 98 140 390q-82 -88 -162 -124t-184 -36q-112 0 -188 35q-73 34 -109 99q-35 64 -47 149q-12 89 2 184q30 262 157 373t369 111q274 0 355 -156t18 -567q-35 -231 -84 -375q-50 -144 -128 -224q-80 -81 -176 -111 q-97 -30 -249 -30q-169 0 -328 33zM348 942q-18 -157 23 -225t170 -66q89 0 162 38q76 40 174 136q41 254 0 346q-41 93 -207 93q-161 0 -231 -73q-68 -71 -91 -249z" />
<glyph unicode=":" horiz-adv-x="493" d="M55 76l17 110q8 68 75 68h66q75 0 68 -76l-17 -108q-6 -70 -76 -70h-65q-80 0 -68 76zM145 727l17 111q7 67 78 67h65q78 0 66 -76l-15 -108q-8 -70 -75 -70h-66q-77 0 -70 76z" />
<glyph unicode=";" horiz-adv-x="501" d="M63 -246q54 169 70 250q-32 -2 -47 15q-17 18 -12 49l16 118q8 41 26 55q17 13 62 13h60q75 0 63 -76l-18 -131q-16 -144 -121 -326zM162 727l16 111q6 67 76 67h65q75 0 68 -76l-16 -108q-6 -70 -76 -70h-66q-79 0 -67 76z" />
<glyph unicode="&#x3c;" horiz-adv-x="1073" d="M90 532l23 156l884 350l-20 -164l-707 -268l629 -272l-22 -152z" />
<glyph unicode="=" horiz-adv-x="1198" d="M106 311l21 148h905l-20 -148h-906zM166 743l20 148h906l-21 -148h-905z" />
<glyph unicode="&#x3e;" horiz-adv-x="1075" d="M78 184l22 166l705 271l-627 270l21 151l788 -354l-22 -156z" />
<glyph unicode="?" horiz-adv-x="1024" d="M176 1272v143q8 1 66 11q14 2 29 5t23.5 5t12.5 2t12 1.5t22.5 3.5t25.5 3q39 5 75 7q28 1 81 3q66 2 110 2q205 0 305 -82t78 -243q-10 -83 -58 -155q-47 -72 -107 -124q-43 -38 -123 -110q-65 -59 -113 -136q-50 -80 -68 -176h-168q12 103 57 191q43 85 103 148 q75 79 113 114q54 50 100 110q44 57 51 117q15 103 -34 141q-47 37 -181 37q-203 0 -412 -18zM313 76l19 110q6 68 76 68h51q77 0 65 -76l-14 -108q-8 -70 -76 -70h-51q-77 0 -70 76z" />
<glyph unicode="@" horiz-adv-x="1593" d="M111 471q25 151 64 240q41 93 105 139q65 47 134 62q74 16 180 16q162 0 461 -54l-97 -628q-12 -94 64 -94q113 0 161 107q48 108 87 407q4 26 9.5 70t7.5 62q6 45 8 105q1 51 0 84q-2 35 -14 63q-13 28 -24 46q-9 14 -42 30q-31 15 -54 21q-20 5 -75 10q-47 4 -92 4 h-113h-660l17 148q269 13 649 18q145 1 237 -6q90 -7 168 -35q76 -27 114 -72q37 -45 58 -123q21 -79 18 -184q-3 -101 -26 -258q-33 -272 -85 -411q-53 -141 -136 -198q-83 -56 -229 -56q-221 0 -242 200q-168 -209 -391 -209q-174 0 -240 116q-66 115 -22 380zM296 204 q24 -61 120 -61q90 0 174 52q82 51 188 167l66 402q-160 4 -183 4q-105 0 -162 -9q-58 -9 -99 -46q-42 -38 -60 -92q-20 -61 -37 -164q-30 -195 -7 -253z" />
<glyph unicode="A" horiz-adv-x="1275" d="M-66 0l635 1362q21 51 80 51h209q28 0 46 -17q21 -19 22 -42l256 -1354h-205l-72 426h-565l-188 -426h-218zM420 606h457l-89 531q-9 51 -16 123h-61l-54 -123z" />
<glyph unicode="B" horiz-adv-x="1269" d="M86 0l199 1413q172 17 463 17q260 0 360 -82q77 -63 77 -204q0 -42 -7 -91q-23 -154 -88 -230q-66 -76 -195 -88l-2 -10q237 -19 237 -276q0 -48 -8 -105q-33 -214 -139 -287t-352 -73q-365 0 -545 16zM309 160l291 -2q168 0 236 48q67 48 88 189q6 43 6 78q0 88 -38 126 q-53 53 -218 54h-295zM401 811h283q148 0 212 49t85 184q5 34 5 61q0 78 -38 109q-52 41 -211 41h-274z" />
<glyph unicode="C" horiz-adv-x="1163" d="M135 715q56 402 199 562q144 161 450 161q221 0 392 -43l-33 -156q-157 16 -363 16q-136 0 -216 -45t-132 -166q-55 -127 -84 -346q-20 -139 -21 -238q0 -122 31 -185q56 -115 246 -117h36q211 0 372 22l10 -157q-175 -48 -422 -48q-306 0 -414 176q-71 115 -71 321 q0 109 20 243z" />
<glyph unicode="D" horiz-adv-x="1357" d="M86 0l199 1413q264 19 460 19q337 0 451 -162q76 -108 76 -326q0 -109 -19 -246q-23 -162 -52 -270q-30 -111 -74 -192t-95 -130q-50 -48 -127 -77q-79 -29 -155 -38q-80 -9 -195 -9q-196 0 -469 18zM313 164q156 -4 240 -4q164 0 254 41q88 40 143 157q56 117 90 357 q22 143 23 230v22q0 80 -13 133q-15 62 -57 95q-41 31 -99 45q-56 13 -153 13q-56 0 -122 -1t-152 -1z" />
<glyph unicode="E" horiz-adv-x="1146" d="M115 293l121 874q17 119 96 185q78 65 215 65q429 0 608 -16l-27 -160h-557q-65 0 -97 -30q-33 -31 -40 -103l-39 -287h596l-20 -157h-598l-49 -365q-2 -18 -2 -34q0 -44 17 -64q24 -29 91 -29h547l-4 -160q-170 -16 -567 -16q-165 0 -237 79q-58 63 -58 165q0 25 4 53z " />
<glyph unicode="F" horiz-adv-x="1103" d="M82 0l160 1157q41 260 313 260q411 0 590 -18l-31 -158h-518q-77 0 -111 -28q-32 -27 -43 -105l-45 -311h580l-23 -158h-577l-90 -639h-205z" />
<glyph unicode="G" horiz-adv-x="1277" d="M133 715q28 219 83 365q54 145 143 223q86 76 196 107q107 30 258 30q232 0 406 -45l-31 -154q-167 16 -350 16q-131 0 -204 -20q-78 -22 -137 -83q-62 -65 -94 -170q-32 -106 -55 -286q-15 -134 -15 -232q0 -124 24 -192q43 -120 192 -120q98 0 178 47q79 46 191 155 l65 463h197l-115 -819h-147v190q-184 -217 -441 -217q-214 0 -300 179q-57 119 -57 334q0 103 13 229z" />
<glyph unicode="H" horiz-adv-x="1368" d="M86 0l199 1413h207l-82 -571h618l80 571h205l-199 -1413h-205l95 664h-619l-92 -664h-207z" />
<glyph unicode="I" horiz-adv-x="546" d="M86 0l199 1413h207l-199 -1413h-207z" />
<glyph unicode="J" horiz-adv-x="700" d="M-20 10l38 146h95q155 0 178 147l153 1110h207l-155 -1108q-23 -160 -104 -243q-78 -80 -204 -80h-6q-125 0 -202 28z" />
<glyph unicode="K" horiz-adv-x="1226" d="M86 0l199 1413h204l-63 -436q-7 -73 -31 -158h152l489 594h248l-479 -582q-44 -54 -100 -94l-3 -8q38 -49 72 -113l338 -616h-231l-353 653h-159q0 -70 -9 -149l-69 -504h-205z" />
<glyph unicode="L" horiz-adv-x="1046" d="M127 305l152 1108h206l-155 -1114q-2 -15 -2 -28q0 -99 108 -99h504l-4 -160q-170 -16 -543 -16q-143 0 -215 79q-56 61 -56 165q0 31 5 65z" />
<glyph unicode="M" horiz-adv-x="1802" d="M59 0l242 1333q12 80 90 80h219q65 0 76 -74l133 -827q9 -53 23 -193h37q22 54 44 109q16 40 31 80l355 838q27 66 94 67h223q42 0 62 -23q17 -19 17 -50q0 -7 -1 -15l-129 -1325h-203l129 1243h-39l-428 -1010q-27 -65 -94 -65h-178q-71 0 -82 74l-158 1001h-41 l-217 -1243h-205z" />
<glyph unicode="N" horiz-adv-x="1445" d="M86 0l186 1337q12 76 86 76h174q55 0 82 -67l318 -936q64 -205 65 -213h35q6 117 21 213l135 1003h203l-189 -1337q-12 -76 -82 -76h-178q-57 0 -80 68l-330 962q-38 108 -55 193h-31q-2 -91 -16 -193l-139 -1030h-205z" />
<glyph unicode="O" horiz-adv-x="1366" d="M135 715q52 400 199 563q146 162 459 162q301 0 413 -169q75 -113 75 -329q0 -109 -19 -244q-55 -406 -200 -566q-144 -159 -450 -159q-300 0 -416 167q-79 114 -79 338q0 106 18 237zM348 698q-19 -136 -19 -234q0 -128 32 -193q57 -115 255 -115q202 0 294 119 q94 121 139 440q20 140 20 240q0 127 -32 190q-57 112 -255 112q-206 0 -296 -117q-92 -119 -138 -442z" />
<glyph unicode="P" horiz-adv-x="1208" d="M86 0l199 1413q185 19 485 19q252 0 347 -105q70 -78 70 -231q0 -55 -9 -119q-20 -136 -56 -224q-34 -85 -97 -133q-64 -48 -144 -66q-78 -17 -211 -17q-134 0 -301 20l-78 -557h-205zM391 713h271q162 0 225 57q64 58 88 223q7 49 7 89q0 84 -32 120q-47 53 -188 53 q-189 0 -295 -2z" />
<glyph unicode="Q" horiz-adv-x="1366" d="M135 715q52 400 199 563q146 162 459 162q301 0 413 -169q75 -113 75 -329q0 -109 -19 -244q-55 -406 -200 -566q-144 -159 -450 -159q-300 0 -416 167q-79 114 -79 338q0 106 18 237zM348 698q-19 -136 -19 -234q0 -128 32 -193q57 -115 255 -115q202 0 294 119 q94 121 139 440q20 140 20 240q0 127 -32 190q-57 112 -255 112q-206 0 -296 -117q-92 -119 -138 -442zM416 -209l78 123q237 -109 544 -158l-82 -202q-297 72 -540 237z" />
<glyph unicode="R" horiz-adv-x="1271" d="M86 0l199 1413q185 19 485 19q232 0 341 -94q84 -72 83 -229q0 -44 -6 -95q-23 -163 -96 -248q-74 -86 -220 -104l-2 -13q124 -35 154 -207l90 -442h-209l-84 444q-15 78 -49 107q-36 31 -102 31l-301 2l-82 -584h-201zM393 758h283q149 1 217 57q67 55 88 203q6 42 6 76 q0 76 -32 111q-47 50 -191 50q-195 0 -301 -2z" />
<glyph unicode="S" horiz-adv-x="1150" d="M49 16l27 152q304 -10 407 -10q178 1 246 40q66 37 84 173q4 32 4 58q0 56 -18 80q-27 38 -119 71l-277 98q-145 52 -198 149q-37 69 -37 165q0 40 6 85q17 119 55 191q39 73 108 109t145 48q83 13 198 13q245 0 424 -45l-23 -148q-201 10 -401 10q-80 0 -101 -1 q-35 -2 -75 -10q-44 -9 -63 -30t-37 -59q-17 -38 -25 -98q-4 -32 -3 -58q0 -54 16 -79q25 -37 122 -72l270 -96q157 -56 206 -147q35 -65 35 -162q0 -43 -7 -93q-30 -224 -147 -300q-116 -75 -386 -75q-220 0 -436 41z" />
<glyph unicode="T" horiz-adv-x="1179" d="M129 1231l27 182h1097l-24 -182h-449l-174 -1231h-205l174 1231h-446z" />
<glyph unicode="U" horiz-adv-x="1359" d="M154 551l118 862h207l-123 -872q-11 -78 -11 -138q0 -109 35 -163q54 -84 226 -84q179 0 264 88q87 90 117 307l121 862h207l-125 -872q-44 -311 -176 -439q-134 -129 -402 -129q-276 0 -389 136q-81 98 -81 285q0 72 12 157z" />
<glyph unicode="V" horiz-adv-x="1247" d="M137 1413h207l166 -1104q18 -150 18 -155h54q27 85 61 163l471 1096h217l-614 -1360q-23 -53 -78 -53h-199q-27 0 -45 18q-17 17 -22 43z" />
<glyph unicode="W" horiz-adv-x="1937" d="M170 1413h209l49 -1081q1 -28 3 -89q1 -40 1 -91h47q1 5 60 188l340 1010q21 63 84 63h215q29 0 48 -20q19 -21 21 -52l74 -1011q6 -103 6 -162v-16h49q14 47 56 184l346 1077h215l-463 -1358q-22 -55 -84 -55h-223q-28 0 -49 18t-23 48l-64 1038q-1 26 -6 79 q-4 47 -4 79h-43l-51 -166l-348 -1039q-18 -57 -82 -57h-221q-31 0 -52 18q-23 19 -24 45z" />
<glyph unicode="X" horiz-adv-x="1255" d="M-43 0l496 731l-265 682h209l224 -602h53l403 602h226l-461 -682l286 -731h-208l-248 655h-51l-426 -655h-238z" />
<glyph unicode="Y" horiz-adv-x="1169" d="M129 1413h207l203 -584q29 -90 36 -163h19q28 87 82 170l364 577h224l-598 -926l-68 -487h-207l72 498z" />
<glyph unicode="Z" horiz-adv-x="1155" d="M10 0l25 174l878 1065h-718l26 174h944l-26 -174l-879 -1065h746l-25 -174h-971z" />
<glyph unicode="[" horiz-adv-x="671" d="M61 -215l236 1673q8 53 43 84q36 31 88 31h303l-18 -129h-193q-15 0 -26 -11q-13 -13 -17 -26l-223 -1587q-5 -29 22 -29h205l-18 -129h-295q-53 0 -84 31q-30 31 -23 92z" />
<glyph unicode="\" horiz-adv-x="1050" d="M160 1413h151l592 -1550h-151z" />
<glyph unicode="]" horiz-adv-x="671" d="M-55 -338l18 129h191q15 0 27 11q14 12 18 26l223 1587q5 29 -23 29h-204l18 129h293q54 0 85 -36q31 -35 23 -87l-235 -1673q-8 -54 -44 -84q-37 -31 -87 -31h-303z" />
<glyph unicode="^" horiz-adv-x="884" d="M104 803l369 436h145l250 -436l-84 -47l-237 352h-17l-350 -352z" />
<glyph unicode="_" horiz-adv-x="1181" d="M37 -150l22 150h899l-22 -150h-899z" />
<glyph unicode="`" horiz-adv-x="657" d="M147 1346l107 141l362 -301l-69 -90z" />
<glyph unicode="a" d="M96 512q22 162 64 271q41 106 108 157t140 69q68 17 184 17q241 0 489 -53l-139 -973h-156l9 184q-180 -209 -430 -209q-183 0 -246 119q-39 73 -39 212q0 89 16 206zM288 211q21 -64 118 -64q93 0 184 53q93 54 203 160l71 496q-168 4 -211 4q-108 0 -161 -10 q-57 -11 -98 -52t-61 -108q-21 -71 -38 -192q-16 -127 -16 -203q0 -57 9 -84z" />
<glyph unicode="b" horiz-adv-x="1177" d="M70 47l194 1387h197l-56 -414q-18 -132 -53 -229q97 97 216 165t218 68q119 0 183 -44q63 -43 90 -164q12 -52 12 -121q0 -90 -20 -208q-22 -164 -64 -273q-41 -107 -106 -157t-133 -67q-70 -17 -175 -17q-248 0 -503 74zM281 143q147 -6 219 -6q194 0 256 63 q61 63 94 302q16 125 16 200q0 59 -10 86q-23 64 -117 64q-146 0 -391 -217z" />
<glyph unicode="c" horiz-adv-x="995" d="M90 508q39 287 160 402q122 116 379 116q198 0 327 -53l-30 -123q-131 8 -267 8q-178 0 -259 -73q-78 -70 -105 -291q-9 -77 -9 -135q0 -108 32 -151q50 -67 221 -67t301 23l14 -135q-157 -54 -352 -54q-265 0 -359 123q-65 85 -65 250q0 73 12 160z" />
<glyph unicode="d" d="M96 512q24 164 65 271q41 108 104 157q65 51 132 69q64 17 172 17q154 0 326 -27q0 78 14 191l35 244h199l-201 -1434h-156l11 209q-213 -234 -453 -234q-157 0 -223 122q-41 75 -41 215q0 87 16 200zM289 216q21 -69 112 -69q90 0 181 51q87 49 213 167l67 493 q-81 4 -215 4q-106 0 -157 -10q-54 -10 -96 -51q-42 -40 -60 -109q-20 -77 -37 -194q-17 -124 -17 -199q0 -54 9 -83z" />
<glyph unicode="e" horiz-adv-x="1103" d="M92 526q39 290 159 395t394 105q235 0 318 -82q66 -64 66 -177q0 -31 -5 -65q-24 -144 -115 -209q-89 -64 -276 -79l-346 -31v-9q0 -136 59 -183q62 -50 193 -50q129 0 368 25l13 -133q-148 -58 -412 -58q-254 0 -354 135q-72 98 -72 274q0 65 10 142zM299 530l334 31 q94 6 137 40t55 118q3 21 3 39q0 63 -34 80q-43 22 -180 22q-156 0 -220 -64q-65 -65 -95 -266z" />
<glyph unicode="f" horiz-adv-x="782" d="M-242 -391l31 147h154q96 0 137 32q40 31 55 128l131 930h-178l18 143l183 10l24 179q40 290 328 290q205 0 293 -14l-33 -147h-196q-96 0 -139 -32q-41 -31 -56 -128l-23 -148h310l-21 -153h-309l-135 -961q-41 -293 -326 -293q-107 0 -248 17z" />
<glyph unicode="g" horiz-adv-x="1179" d="M27 -389l20 131q90 -3 201 -3q56 0 117 1q339 5 385 244q34 171 86 249q-84 -115 -208 -186q-124 -72 -270 -72q-167 0 -235 119q-42 74 -42 214q0 89 17 204q23 162 66 273q41 107 106 157q67 52 132 68q64 16 171 16q260 0 508 -53h4l-135 -948q-52 -447 -592 -453 q-208 0 -331 39zM292 213q21 -66 116 -66q94 0 186 52q94 53 203 161l71 496q-168 4 -217 4q-195 0 -257 -62t-95 -300q-16 -125 -16 -200q0 -56 9 -85z" />
<glyph unicode="h" horiz-adv-x="1187" d="M66 0l202 1434h197l-51 -394q-22 -142 -49 -245q263 231 462 231q126 0 193 -73q50 -55 50 -146q0 -29 -5 -62l-107 -745h-196l96 696q5 36 5 64q0 43 -12 64q-19 34 -85 34q-84 0 -175 -51q-93 -52 -239 -168l-88 -639h-198z" />
<glyph unicode="i" horiz-adv-x="514" d="M76 0l139 999h197l-140 -999h-196zM244 1257l18 115q5 53 60 53h94q28 0 43 -16t10 -45l-14 -115q-7 -55 -62 -55h-94q-56 0 -56 52q0 5 1 11z" />
<glyph unicode="j" horiz-adv-x="514" d="M-90 -324q138 141 162 318l143 1005h197l-144 -1015q-15 -124 -81 -229q-65 -104 -169 -171zM244 1257l18 115q5 53 60 53h94q28 0 43 -16t10 -45l-14 -115q-7 -55 -62 -55h-94q-56 0 -56 52q0 5 1 11z" />
<glyph unicode="k" horiz-adv-x="1079" d="M68 0l200 1434h199l-90 -672q-17 -117 -66 -246q194 91 337 216t183 267h203q-85 -268 -332 -444q35 -54 62 -119l194 -436h-213l-192 461q-81 -44 -238 -115l-51 -346h-196z" />
<glyph unicode="l" horiz-adv-x="610" d="M102 248l168 1186h197l-162 -1149q-3 -21 -3 -38q0 -39 17 -58q24 -27 95 -27h94l8 -156q-56 -24 -190 -24q-120 0 -180 69q-47 55 -47 146q0 24 3 51z" />
<glyph unicode="m" horiz-adv-x="1785" d="M66 0l141 999h151l-10 -213q237 240 432 240q116 0 176 -59q61 -60 60 -166q120 122 215 172q100 53 199 53q131 0 191 -75q46 -58 46 -149q0 -27 -4 -57l-104 -745h-199l98 696q4 29 4 52q0 50 -18 74q-27 36 -92 36q-74 0 -145 -46q-77 -49 -210 -177l-90 -635h-190 l96 696q4 31 4 55q0 45 -14 69q-23 38 -96 38q-74 0 -146 -45q-75 -47 -209 -172l-90 -641h-196z" />
<glyph unicode="n" horiz-adv-x="1187" d="M66 0l141 999h158l-11 -215q271 242 473 242q126 0 193 -73q50 -55 50 -146q0 -29 -5 -62l-107 -745h-196l96 696q5 36 5 64q0 43 -12 64q-19 34 -85 34q-84 0 -175 -51q-93 -52 -239 -168l-88 -639h-198z" />
<glyph unicode="o" horiz-adv-x="1159" d="M90 506q39 282 161 401t378 119q257 0 356 -124q69 -87 69 -255q0 -70 -12 -155q-39 -284 -161 -401q-122 -118 -375 -118q-256 0 -355 124q-72 90 -72 262q0 67 11 147zM295 492q-12 -83 -12 -144q0 -93 27 -136q44 -73 196 -73q159 0 231 79q73 80 101 288 q12 84 12 145q0 90 -26 134q-44 73 -195 73q-159 0 -231 -76q-73 -78 -103 -290z" />
<glyph unicode="p" horiz-adv-x="1181" d="M8 -410l201 1409h156l-11 -213q97 100 217 168q123 70 222 70q179 0 241 -115q37 -69 37 -208q0 -91 -16 -214q-22 -162 -64 -272q-40 -105 -106 -157q-64 -51 -135 -68t-179 -17q-141 0 -315 27q0 -98 -14 -190l-35 -220h-199zM287 139q128 -2 211 -2q108 0 161 10 q55 10 98 52q42 41 60 108q20 75 37 195q16 127 16 202q0 57 -9 84q-21 64 -113 64q-68 0 -175 -57q-103 -55 -217 -160z" />
<glyph unicode="q" horiz-adv-x="1169" d="M96 512q22 162 64 271q41 106 104 157t131 69q64 17 168 17q264 0 512 -74l-196 -1362h-197l57 383q18 129 62 238q-215 -236 -455 -236q-158 0 -224 120q-41 75 -41 219q0 86 15 198zM289 215q21 -68 117 -68q91 0 176 50q84 49 213 168l67 491q-141 6 -221 6 q-77 0 -128 -8q-44 -7 -88 -28q-40 -19 -61 -62q-23 -48 -37 -105q-15 -63 -30 -161q-17 -125 -17 -200q0 -55 9 -83z" />
<glyph unicode="r" horiz-adv-x="821" d="M66 0l141 999h151l-10 -229q250 256 451 256h53l-49 -186h-55q-78 0 -160 -46q-88 -50 -236 -157l-88 -637h-198z" />
<glyph unicode="s" horiz-adv-x="1040" d="M39 6l22 148q119 -11 314 -11q188 0 254 21t76 82q2 14 2 20q0 13 -1 18q-1 4 -7 14l-8 12q-5 7 -11 12q-3 2 -8 5.5t-6 4.5q-2 2 -19 10q-14 7 -19 9q-15 6 -23 10q-18 9 -25 12l-269 123q-112 52 -159 119q-37 52 -37 124q0 23 4 47q17 139 117 191q95 49 277 49h28 q228 -4 428 -35l-25 -141q-315 9 -397 10q-138 0 -181 -14q-48 -15 -55 -74q-1 -10 -2 -18q0 -37 22 -58q25 -24 99 -57l270 -123q122 -56 168 -118q35 -46 35 -120q0 -24 -4 -51q-7 -65 -35 -113q-27 -47 -62 -73q-34 -26 -99 -41q-54 -13 -122 -18q-67 -5 -155 -5 q-79 0 -155 4q-55 3 -125 12q-43 6 -107 13z" />
<glyph unicode="t" horiz-adv-x="788" d="M82 846l18 143l187 10l43 293h194l-41 -293h308l-21 -153h-309l-80 -561q-3 -23 -3 -41q0 -40 16 -57q24 -25 95 -25h150l8 -154q-87 -26 -233 -26q-134 0 -192 73q-44 56 -44 149q0 29 4 62l82 580h-182z" />
<glyph unicode="u" horiz-adv-x="1165" d="M96 252l105 747h198l-100 -696q-4 -29 -4 -53q0 -47 16 -71q24 -36 95 -36q83 0 163 50q81 51 219 172l86 634h197l-139 -999h-154l13 209q-244 -236 -455 -236q-136 0 -197 75q-47 57 -47 148q0 26 4 56z" />
<glyph unicode="v" horiz-adv-x="1097" d="M86 999h207l145 -843h31q42 0 66 12q25 12 51 49q58 76 143 289q91 220 137 493h205q-55 -289 -178 -573q-84 -198 -166 -309q-44 -63 -88 -89q-47 -28 -125 -28h-170q-54 0 -65 53z" />
<glyph unicode="w" horiz-adv-x="1755" d="M86 999h207l133 -843h29q60 0 100 77q49 93 100 273q49 183 88 444q6 49 56 49h217q43 0 49 -45l92 -798h25q44 0 84 65q80 124 137 285q79 216 119 493h207q-64 -304 -175 -573q-96 -224 -170 -317q-83 -109 -188 -109h-131q-25 0 -41 15q-15 14 -20 38l-86 817h-27 q-17 -186 -76 -413q-55 -182 -125 -312q-79 -145 -244 -145h-112q-53 0 -64 53z" />
<glyph unicode="x" horiz-adv-x="1087" d="M-45 0l401 518l-233 481h199l184 -403h55l305 403h215l-370 -483l252 -516h-199l-209 442h-45l-334 -442h-221z" />
<glyph unicode="y" horiz-adv-x="1116" d="M72 -279q126 29 229 93q97 60 188 186h-92q-46 0 -80 26t-41 70l-192 903h209l151 -809q6 -34 41 -34h101q12 24 22 42q4 8 8.5 15.5t7 12.5l3.5 7q181 377 254 766h206q-112 -492 -288 -825q-157 -299 -317 -430q-155 -126 -373 -164z" />
<glyph unicode="z" horiz-adv-x="1040" d="M12 0l21 162l712 676h-608l23 161h833l-20 -161l-713 -676h625l-23 -162h-850z" />
<glyph unicode="{" horiz-adv-x="659" d="M86 604l18 139q60 16 82 27q20 10 38 40q19 31 26 93l55 400q21 151 114 219t288 51l-7 -125q-102 0 -149 -39t-62 -131l-49 -354q-17 -132 -60 -183q-42 -50 -161 -71q104 -34 140 -88q35 -53 18 -162l-66 -473q-15 -90 18 -126q31 -34 134 -34l-8 -125 q-188 -15 -272 58q-83 72 -60 221l72 518q10 71 -11 94q-22 23 -98 51z" />
<glyph unicode="|" horiz-adv-x="505" d="M49 -346l273 1945h143l-275 -1945h-141z" />
<glyph unicode="}" horiz-adv-x="661" d="M-51 -338l8 125q101 0 148 38t59 130l67 473q16 110 62 160q44 48 168 86q-104 21 -138 76q-35 56 -14 182l51 354q12 92 -18 127t-133 35l6 125q192 18 273 -59q82 -77 61 -220l-55 -401q-12 -88 3 -109t97 -45l-19 -139q-57 -20 -63 -23q-15 -7 -40 -24 q-24 -16 -33 -41q-9 -24 -15 -63l-74 -517q-21 -153 -111 -219q-92 -68 -290 -51z" />
<glyph unicode="~" horiz-adv-x="1064" d="M129 465q1 128 54 193t130 61t218 -57q147 -55 186 -60q56 -6 80 21q23 26 34 90l99 -8q0 -125 -51 -190q-51 -64 -129 -58q-91 5 -229 57t-177 57q-57 6 -80 -20q-26 -29 -33 -94z" />
<glyph unicode="&#xa1;" horiz-adv-x="532" d="M29 -397l84 602l73 375h156l-33 -375l-84 -602h-196zM203 836l14 110q12 70 80 70h51q79 0 64 -78l-15 -109q-7 -69 -75 -69h-52q-74 0 -67 76z" />
<glyph unicode="&#xa2;" horiz-adv-x="1034" d="M119 719q41 287 162 402q122 116 376 116h29l43 176h94l-45 -182q134 -15 207 -47l-29 -123q-106 8 -217 8l-161 -717q184 6 290 23l15 -135q-157 -54 -348 -54l-43 -186h-95l45 190q-210 18 -285 143t-38 386zM326 705q-24 -193 10 -264q35 -73 147 -85l160 713 q-152 -6 -222 -82q-71 -77 -95 -282z" />
<glyph unicode="&#xa3;" horiz-adv-x="1167" d="M35 0l24 176q193 86 217 373l11 137h-160l16 119h154l22 264q11 117 42 192q31 74 92 112q60 38 127 51q70 14 172 14q170 0 381 -21l-25 -164q-178 7 -352 7q-124 0 -177 -43q-56 -45 -63 -160l-18 -252h420l-23 -119h-408l-10 -143q-12 -142 -57 -226t-144 -153 q44 12 138 12h596l-25 -176h-950z" />
<glyph unicode="&#xa4;" horiz-adv-x="1218" d="M100 346l160 143q-54 101 -39 240q22 151 105 250l-138 156l93 86l139 -160q100 65 246 65q148 0 243 -73l158 141l82 -94l-160 -142q57 -105 39 -245q-18 -146 -100 -246l141 -156l-92 -84l-139 160q-113 -70 -256 -70q-144 0 -242 76l-158 -141zM340 713 q-15 -129 51 -206t193 -77q136 -2 223 80q87 81 102 221q15 128 -52 206q-66 77 -193 77q-136 0 -222 -81t-102 -220z" />
<glyph unicode="&#xa5;" horiz-adv-x="1265" d="M135 319l15 117h350l10 70l-16 45h-326l14 117h269l-277 745h209l201 -575q32 -90 39 -164h18q28 87 82 170l362 569h226l-486 -745h269l-17 -117h-327l-37 -55l-8 -60h356l-17 -117h-356l-43 -319h-207l45 319h-348z" />
<glyph unicode="&#xa6;" horiz-adv-x="507" d="M49 -346l115 819h143l-114 -819h-144zM207 780l115 819h143l-115 -819h-143z" />
<glyph unicode="&#xa7;" horiz-adv-x="1116" d="M12 -313l25 155q195 -13 375 -14q68 0 109 3q45 3 81 14q42 12 62 37q20 24 26 67q10 60 -14 100q-24 39 -82 74l-297 178q-136 79 -160 193q-24 115 43 284h144q-31 -131 -14 -200q18 -74 104 -127l319 -199q97 -57 140 -129q44 -73 28 -197q-24 -164 -128 -214 q-105 -50 -312 -50q-268 5 -449 25zM203 1178q22 156 124 208q105 54 312 54q267 -5 451 -25l-25 -155q-136 10 -373 12q-149 2 -208 -19q-60 -21 -72 -96q-10 -61 15 -99q27 -39 81 -73l303 -184q134 -83 156 -200q22 -118 -45 -286h-144q30 131 13 208q-18 78 -105 132 l-317 199q-98 61 -142 132q-42 69 -24 192z" />
<glyph unicode="&#xa8;" horiz-adv-x="845" d="M272 1260l19 112q7 55 63 55h60q32 0 44 -12t7 -43l-19 -110q-6 -54 -59 -54h-65q-56 0 -50 52zM616 1260l17 112q7 55 65 55h60q32 0 43 -12t6 -43l-19 -110q-2 -54 -57 -54h-65q-56 0 -50 52z" />
<glyph unicode="&#xa9;" horiz-adv-x="1699" d="M129 715q40 312 262 519q221 206 551 206q329 0 515 -207t145 -535q-40 -316 -266 -521q-225 -204 -554 -204q-332 0 -513 210q-181 209 -140 532zM236 698q-34 -280 118 -452q153 -172 426 -172q285 0 483 180q197 179 232 461q34 272 -116 448t-429 176 q-286 0 -483 -180q-196 -180 -231 -461zM477 719q33 250 136 344t335 94q129 0 256 -29l-20 -110q-129 6 -221 6q-175 0 -240 -59t-94 -263q-24 -177 15 -240q41 -65 173 -65q184 0 293 13l8 -113q-124 -33 -276 -33q-241 0 -321 100q-79 98 -44 355z" />
<glyph unicode="&#xaa;" horiz-adv-x="915" d="M158 903q15 117 45 188q30 72 79 104q48 32 94 42q44 10 118 10q186 0 356 -39l-90 -651h-121v109q-114 -123 -285 -123q-121 0 -172 82t-24 278zM307 713q15 -37 78 -37q109 0 260 129l45 315l-143 2q-134 0 -177 -38t-61 -191q-16 -144 -2 -180z" />
<glyph unicode="&#xab;" horiz-adv-x="987" d="M72 502l4 45l381 395l80 -72l-304 -356l218 -371l-99 -65zM453 502l4 45l381 395l80 -72l-304 -356l217 -371l-98 -65z" />
<glyph unicode="&#xac;" horiz-adv-x="1200" d="M133 535l21 149h905l-58 -412h-151l37 263h-754z" />
<glyph unicode="&#xad;" horiz-adv-x="901" d="M117 442l20 152h621l-21 -152h-620z" />
<glyph unicode="&#xae;" horiz-adv-x="1126" d="M160 991q22 204 156 326q133 121 339 121q199 0 319 -122q119 -121 95 -341q-21 -209 -153 -329t-334 -120q-214 0 -329 129t-93 336zM227 983q-18 -189 80 -292q99 -103 275 -103q182 0 295 108q112 108 129 295q15 181 -81 284q-94 101 -272 101q-185 0 -296 -108 q-112 -109 -130 -285zM375 725l71 520q73 6 226 6q98 0 148 -30t38 -129q-6 -53 -33 -83q-26 -29 -86 -44l-2 -4q30 -12 51 -76l39 -160h-94l-37 162q-15 51 -67 51h-135l-29 -213h-90zM504 1004h125q72 1 101 19q31 18 38 75q6 53 -15 68q-22 16 -87 16l-138 -2z" />
<glyph unicode="&#xaf;" horiz-adv-x="819" d="M223 1241l21 145h579l-20 -145h-580z" />
<glyph unicode="&#xb0;" horiz-adv-x="737" d="M182 1186q11 113 88 183q79 71 195 71q124 0 193 -78q70 -79 59 -193q-12 -115 -91 -185q-80 -71 -196 -71q-125 0 -191 80q-67 81 -57 193zM305 1182q-6 -69 31 -109q38 -41 102 -41q66 0 107 39q41 40 47 105q4 66 -30 106q-35 41 -101 41t-108 -39t-48 -102z" />
<glyph unicode="&#xb1;" horiz-adv-x="1193" d="M78 133l20 148h908l-21 -148h-907zM154 666l20 147h377l37 268h153l-39 -268h377l-20 -147h-377l-39 -269h-149l36 269h-376z" />
<glyph unicode="&#xb2;" horiz-adv-x="831" d="M139 737l13 99q7 48 24 63l268 242q192 169 199 260q5 41 -25 53q-28 12 -100 12q-135 0 -260 -16v121q143 28 279 28q135 0 202 -41q70 -43 58 -155q-11 -77 -49 -139q-41 -66 -138 -150l-264 -240q52 11 131 11h275l-23 -148h-590z" />
<glyph unicode="&#xb3;" horiz-adv-x="798" d="M137 743l17 119q32 0 85 -3q18 -1 42.5 -2.5t32.5 -1.5q13 -1 75 1q181 12 205 141q12 61 -19 94q-30 31 -112 31h-166l14 119h160q86 0 119 33q34 34 41 98q6 60 -21 78t-127 18q-82 0 -221 -8v119q156 23 256 23q138 0 202 -51t54 -152q-6 -78 -44 -146 q-37 -66 -107 -71v-4q148 -27 120 -211q-39 -239 -346 -246q-105 -2 -260 22z" />
<glyph unicode="&#xb4;" horiz-adv-x="657" d="M207 1188l401 301l92 -154l-436 -239z" />
<glyph unicode="&#xb6;" horiz-adv-x="1206" d="M117 934q39 282 194 392q157 112 492 112q187 0 325 -35l-196 -1403h-150l183 1305q-96 6 -179 6l-243 -1741h-150l119 842q-242 24 -336 148q-94 123 -59 374z" />
<glyph unicode="&#xb7;" horiz-adv-x="489" d="M121 477l18 111q6 67 76 67h66q77 0 65 -75l-14 -111q-8 -68 -76 -68h-66q-76 0 -69 76z" />
<glyph unicode="&#xb8;" horiz-adv-x="483" d="M-66 -473l37 104q76 -1 134 37q59 39 71 105q6 29 -13 38q-21 10 -95 11l22 92q139 12 192 -16t35 -125q-21 -132 -127 -199q-107 -68 -256 -47z" />
<glyph unicode="&#xb9;" horiz-adv-x="585" d="M188 1501l236 84h154l-119 -848h-154l90 625q5 45 17 86l-222 -62z" />
<glyph unicode="&#xba;" horiz-adv-x="901" d="M152 901q27 193 109 269q83 77 265 77q189 0 258 -83t41 -279q-27 -189 -110 -265q-85 -77 -264 -77q-185 0 -255 82q-71 83 -44 276zM303 885q-17 -131 14 -175q30 -44 138 -44q104 0 151 50t68 185q16 132 -14 178q-30 45 -134 45q-114 0 -157 -49q-44 -50 -66 -190z " />
<glyph unicode="&#xbb;" horiz-adv-x="991" d="M45 143l305 357l-219 370l98 66l281 -424l-4 -45l-381 -395zM426 143l303 357l-217 370l98 66l281 -424l-4 -45l-381 -395z" />
<glyph unicode="&#xbc;" horiz-adv-x="1767" d="M168 1327l248 86h153l-118 -848h-156l88 629q8 53 18 86l-231 -61zM193 0l1101 1413h144l-1102 -1413h-143zM922 231q-24 39 10 105l325 512h152l-309 -496q-21 -39 22 -39h279l33 236l47 135h118l-51 -371h109l-17 -106l-108 -12l-29 -195h-143l24 193h-380 q-59 0 -82 38z" />
<glyph unicode="&#xbd;" horiz-adv-x="1806" d="M168 1327l248 86h153l-118 -848h-156l88 629q8 53 18 86l-231 -61zM176 0l1102 1413h143l-1102 -1413h-143zM987 0l14 90q5 44 27 66l287 241q191 158 209 258q8 47 -24 62q-29 14 -109 14q-149 0 -281 -14l-2 117q143 28 289 28q169 0 241 -42t54 -165t-199 -282 l-295 -240q67 8 137 4h318l-19 -137h-647z" />
<glyph unicode="&#xbe;" horiz-adv-x="1961" d="M109 567l12 115q142 -8 256 -8t163 34q50 35 60 115q8 60 -19 90q-28 31 -126 31h-181l17 117h170q93 0 131 38t45 97q8 62 -22 81q-29 19 -128 19q-152 0 -254 -6l-2 113q134 20 275 20q175 0 238 -45t47 -159q-12 -89 -51 -142q-38 -51 -126 -63l-12 -6q93 -15 128 -68 t24 -154q-16 -129 -92 -185q-75 -56 -244 -56q-137 0 -309 22zM401 0l1102 1413h144l-1102 -1413h-144zM1114 231q-24 39 10 105l326 512h152l-310 -496q-21 -39 23 -39h276l31 236l47 135h121l-53 -371h110l-16 -106l-111 -12l-26 -195h-146l27 193h-379q-59 0 -82 38z" />
<glyph unicode="&#xbf;" horiz-adv-x="1009" d="M-27 -106q10 79 58 153q47 72 108 126t123 111q64 60 113 134q50 77 67 170h166q-12 -105 -57 -192t-101 -146q-60 -63 -113 -112t-99 -109q-44 -57 -54 -117q-17 -92 35 -134q51 -42 180 -42q227 0 412 18v-141q-13 -1 -50 -9q-47 -10 -49 -10q-4 0 -19 -3t-26 -4 q-48 -7 -50 -7q-6 0 -22.5 -2t-27.5 -3q-21 -2 -61 -4q-10 -1 -33 -1.5t-35 -0.5q-26 -1 -84 -1q-206 0 -304 89t-77 237zM467 848l14 110q11 68 76 68h49q77 0 70 -76l-17 -110q-8 -70 -77 -70h-50q-77 0 -65 78z" />
<glyph unicode="&#xc0;" horiz-adv-x="1275" d="M-66 0l635 1362q21 51 80 51h209q28 0 46 -17q21 -19 22 -42l256 -1354h-205l-72 426h-565l-188 -426h-218zM416 1737l106 141l363 -301l-70 -90zM420 606h457l-89 531q-9 51 -16 123h-61l-54 -123z" />
<glyph unicode="&#xc1;" horiz-adv-x="1275" d="M-66 0l635 1362q21 51 80 51h209q28 0 46 -17q21 -19 22 -42l256 -1354h-205l-72 426h-565l-188 -426h-218zM420 606h457l-89 531q-9 51 -16 123h-61l-54 -123zM641 1579l401 301l93 -154l-437 -239z" />
<glyph unicode="&#xc2;" horiz-adv-x="1275" d="M-66 0l635 1362q21 51 80 51h209q28 0 46 -17q21 -19 22 -42l256 -1354h-205l-72 426h-565l-188 -426h-218zM420 606h457l-89 531q-9 51 -16 123h-61l-54 -123zM442 1577l303 264h140l256 -276l-74 -78l-246 207h-16l-307 -203z" />
<glyph unicode="&#xc3;" horiz-adv-x="1275" d="M-66 0l635 1362q21 51 80 51h209q28 0 46 -17q21 -19 22 -42l256 -1354h-205l-72 426h-565l-188 -426h-218zM420 606h457l-89 531q-9 51 -16 123h-61l-54 -123zM453 1567q1 121 55 185q52 62 129 56q71 -6 157 -55t136 -55q58 -6 85 19q29 27 36 83l90 -6 q-1 -117 -52 -181q-50 -63 -131 -57q-78 6 -170 58q-89 51 -126 55q-57 6 -84 -21q-28 -27 -35 -89z" />
<glyph unicode="&#xc4;" horiz-adv-x="1275" d="M-66 0l635 1362q21 51 80 51h209q28 0 46 -17q21 -19 22 -42l256 -1354h-205l-72 426h-565l-188 -426h-218zM420 606h457l-89 531q-9 51 -16 123h-61l-54 -123zM528 1618l19 115q10 55 63 55h60q58 0 51 -55l-19 -113q-6 -53 -57 -53h-67q-52 0 -50 51zM872 1618l19 115 q6 55 63 55h60q57 0 51 -55l-18 -113q-6 -53 -60 -53h-65q-56 0 -50 51z" />
<glyph unicode="&#xc5;" horiz-adv-x="1275" d="M-66 0l635 1362q21 51 80 51h209q28 0 46 -17q21 -19 22 -42l256 -1354h-205l-72 426h-565l-188 -426h-218zM420 606h457l-89 531q-9 51 -16 123h-61l-54 -123zM578 1688q11 91 71 150q61 60 158 60q103 0 164 -63t49 -164q-12 -87 -74 -148q-63 -61 -160 -61 q-101 0 -160 64q-58 63 -48 162zM684 1681q-6 -57 25 -89q30 -31 79 -31q51 0 85 34t40 88q5 51 -24 84t-80 33q-52 0 -86 -34q-35 -35 -39 -85z" />
<glyph unicode="&#xc6;" horiz-adv-x="1871" d="M-92 0l846 1186q96 137 201 182q109 47 309 47q415 0 618 -14l-29 -160h-518q-128 0 -149 -135l-39 -283h569l-20 -161h-572l-49 -361q-10 -70 15 -100q24 -29 92 -29h524l-10 -160q-202 -16 -551 -16q-140 0 -212 79q-73 80 -52 218l20 147h-465l-309 -440h-219z M561 616h365l73 519q11 97 78 143h-10q-64 -38 -131 -129z" />
<glyph unicode="&#xc7;" horiz-adv-x="1163" d="M135 715q56 402 199 562q144 161 450 161q221 0 392 -43l-33 -156q-157 16 -363 16q-136 0 -216 -45t-132 -166q-55 -127 -84 -346q-45 -308 10 -423q56 -115 246 -117q233 -2 408 22l10 -157q-175 -48 -422 -48q-306 0 -414 176q-108 175 -51 564zM301 -498l37 105 q78 -2 136 37q59 40 71 104q5 29 -16 38q-21 10 -95 11l25 92q136 12 189 -16q55 -29 38 -125q-21 -132 -128 -199q-108 -68 -257 -47z" />
<glyph unicode="&#xc8;" horiz-adv-x="1146" d="M115 293l121 874q17 119 96 185q78 65 215 65q429 0 608 -16l-27 -160h-557q-65 0 -97 -30q-33 -31 -40 -103l-39 -287h596l-20 -157h-598l-49 -365q-8 -71 15 -98q24 -29 91 -29h547l-4 -160q-170 -16 -567 -16q-165 0 -237 79t-54 218zM408 1778l106 141l363 -301 l-70 -90z" />
<glyph unicode="&#xc9;" horiz-adv-x="1146" d="M115 293l121 874q17 119 96 185q78 65 215 65q429 0 608 -16l-27 -160h-557q-65 0 -97 -30q-33 -31 -40 -103l-39 -287h596l-20 -157h-598l-49 -365q-8 -71 15 -98q24 -29 91 -29h547l-4 -160q-170 -16 -567 -16q-165 0 -237 79t-54 218zM633 1620l401 301l92 -154 l-436 -239z" />
<glyph unicode="&#xca;" horiz-adv-x="1146" d="M115 293l121 874q17 119 96 185q78 65 215 65q429 0 608 -16l-27 -160h-557q-65 0 -97 -30q-33 -31 -40 -103l-39 -287h596l-20 -157h-598l-49 -365q-8 -71 15 -98q24 -29 91 -29h547l-4 -160q-170 -16 -567 -16q-165 0 -237 79t-54 218zM434 1618l301 264h142l253 -276 l-71 -78l-246 207h-16l-308 -203z" />
<glyph unicode="&#xcb;" horiz-adv-x="1146" d="M115 293l121 874q17 119 96 185q78 65 215 65q429 0 608 -16l-27 -160h-557q-65 0 -97 -30q-33 -31 -40 -103l-39 -287h596l-20 -157h-598l-49 -365q-8 -71 15 -98q24 -29 91 -29h547l-4 -160q-170 -16 -567 -16q-165 0 -237 79t-54 218zM520 1659l19 115q8 53 63 53h60 q32 0 44 -12t7 -41l-19 -113q-6 -53 -57 -53h-68q-55 0 -49 51zM864 1659l19 115q6 53 63 53h60q32 0 43 -12t6 -41l-17 -113q-6 -53 -59 -53h-66q-55 0 -49 51z" />
<glyph unicode="&#xcc;" horiz-adv-x="546" d="M43 1737l107 141l362 -301l-70 -90zM86 0l199 1413h207l-199 -1413h-207z" />
<glyph unicode="&#xcd;" horiz-adv-x="546" d="M86 0l199 1413h207l-199 -1413h-207zM268 1579l402 301l94 -154l-436 -239z" />
<glyph unicode="&#xce;" horiz-adv-x="546" d="M70 1577l303 264h139l256 -276l-74 -78l-245 207h-17l-305 -203zM86 0l199 1413h207l-199 -1413h-207z" />
<glyph unicode="&#xcf;" horiz-adv-x="546" d="M86 0l199 1413h207l-199 -1413h-207zM158 1618l18 115q6 55 64 55h59q33 0 43 -13t6 -42l-18 -113q-2 -53 -58 -53h-65q-55 0 -49 51zM500 1618l18 115q10 55 64 55h59q58 0 51 -55l-18 -113q-6 -53 -60 -53h-65q-55 0 -49 51z" />
<glyph unicode="&#xd0;" horiz-adv-x="1357" d="M55 692l15 113h129l86 608q264 19 460 19q337 0 451 -162t57 -572q-23 -162 -52 -270q-30 -111 -74 -192t-95 -130q-50 -48 -127 -77q-79 -29 -155 -38q-80 -9 -195 -9q-196 0 -469 18l98 692h-129zM313 164q156 -4 240 -4q164 0 254 41q88 40 143 157q56 117 90 357 q22 143 23 230q2 94 -13 155q-15 62 -57 95q-41 31 -99 45q-56 13 -153 13q-56 0 -122 -1t-152 -1l-64 -446h306l-15 -113h-307z" />
<glyph unicode="&#xd1;" horiz-adv-x="1445" d="M86 0l186 1337q12 76 86 76h174q55 0 82 -67l318 -936q64 -205 65 -213h35q6 117 21 213l135 1003h203l-189 -1337q-12 -76 -82 -76h-178q-57 0 -80 68l-330 962q-38 108 -55 193h-31q-2 -91 -16 -193l-139 -1030h-205zM545 1567q1 121 55 185q52 62 129 56 q71 -6 157 -55t136 -55q58 -6 85 19q29 27 36 83l90 -6q-1 -117 -52 -181q-50 -63 -130 -57q-78 6 -170 58q-89 50 -127 55q-57 6 -84 -21t-35 -89z" />
<glyph unicode="&#xd2;" horiz-adv-x="1366" d="M135 715q52 400 199 563q146 162 459 162q301 0 413 -169q113 -170 56 -573q-55 -406 -200 -566q-144 -159 -450 -159q-300 0 -416 167q-116 168 -61 575zM348 698q-44 -312 13 -427t255 -115q202 0 294 119q94 121 139 440q45 318 -12 430t-255 112q-206 0 -296 -117 q-92 -119 -138 -442zM453 1737l106 141l363 -301l-70 -90z" />
<glyph unicode="&#xd3;" horiz-adv-x="1366" d="M135 715q52 400 199 563q146 162 459 162q301 0 413 -169q113 -170 56 -573q-55 -406 -200 -566q-144 -159 -450 -159q-300 0 -416 167q-116 168 -61 575zM348 698q-44 -312 13 -427t255 -115q202 0 294 119q94 121 139 440q45 318 -12 430t-255 112q-206 0 -296 -117 q-92 -119 -138 -442zM678 1579l401 301l95 -154l-437 -239z" />
<glyph unicode="&#xd4;" horiz-adv-x="1366" d="M135 715q52 400 199 563q146 162 459 162q301 0 413 -169q113 -170 56 -573q-55 -406 -200 -566q-144 -159 -450 -159q-300 0 -416 167q-116 168 -61 575zM348 698q-44 -312 13 -427t255 -115q202 0 294 119q94 121 139 440q45 318 -12 430t-255 112q-206 0 -296 -117 q-92 -119 -138 -442zM479 1577l303 264h140l256 -276l-74 -78l-246 207h-16l-305 -203z" />
<glyph unicode="&#xd5;" horiz-adv-x="1366" d="M135 715q52 400 199 563q146 162 459 162q301 0 413 -169q113 -170 56 -573q-55 -406 -200 -566q-144 -159 -450 -159q-300 0 -416 167q-116 168 -61 575zM348 698q-44 -312 13 -427t255 -115q202 0 294 119q94 121 139 440q45 318 -12 430t-255 112q-206 0 -296 -117 q-92 -119 -138 -442zM489 1567q4 122 57 185q52 62 128 56q73 -6 159 -55t134 -55q60 -6 87 19q29 27 36 83l90 -6q-1 -116 -54 -181q-51 -63 -131 -57q-78 6 -170 58q-89 50 -125 55q-58 6 -85 -21t-35 -89z" />
<glyph unicode="&#xd6;" horiz-adv-x="1366" d="M135 715q52 400 199 563q146 162 459 162q301 0 413 -169q113 -170 56 -573q-55 -406 -200 -566q-144 -159 -450 -159q-300 0 -416 167q-116 168 -61 575zM348 698q-44 -312 13 -427t255 -115q202 0 294 119q94 121 139 440q45 318 -12 430t-255 112q-206 0 -296 -117 q-92 -119 -138 -442zM567 1618l19 115q6 55 63 55h60q33 0 43 -13t6 -42l-17 -113q-6 -53 -59 -53h-66q-55 0 -49 51zM909 1618l19 115q10 55 63 55h60q58 0 51 -55l-19 -113q-6 -53 -59 -53h-66q-55 0 -49 51z" />
<glyph unicode="&#xd7;" horiz-adv-x="1073" d="M82 328l338 268l-258 268l110 109l269 -281l368 293l88 -127l-348 -278l254 -265l-106 -108l-269 278l-358 -284z" />
<glyph unicode="&#xd8;" horiz-adv-x="1366" d="M135 715q52 400 199 563q146 162 459 162q156 0 260 -43l92 149l94 -55l-92 -152q183 -162 115 -641q-55 -406 -200 -566q-144 -159 -450 -159q-163 0 -268 45l-88 -143l-92 55l88 146q-185 159 -117 639zM348 698q-47 -322 19 -434l585 965q-59 28 -170 28 q-206 0 -296 -117q-92 -119 -138 -442zM446 186q66 -30 170 -30q202 0 294 119q94 121 139 440q45 327 -15 438z" />
<glyph unicode="&#xd9;" horiz-adv-x="1359" d="M154 551l118 862h207l-123 -872q-30 -217 24 -301t226 -84q179 0 264 88q87 90 117 307l121 862h207l-125 -872q-44 -311 -176 -439q-134 -129 -402 -129q-276 0 -389 136q-112 135 -69 442zM451 1737l106 141l363 -301l-70 -90z" />
<glyph unicode="&#xda;" horiz-adv-x="1359" d="M154 551l118 862h207l-123 -872q-30 -217 24 -301t226 -84q179 0 264 88q87 90 117 307l121 862h207l-125 -872q-44 -311 -176 -439q-134 -129 -402 -129q-276 0 -389 136q-112 135 -69 442zM676 1579l401 301l94 -154l-436 -239z" />
<glyph unicode="&#xdb;" horiz-adv-x="1359" d="M154 551l118 862h207l-123 -872q-30 -217 24 -301t226 -84q179 0 264 88q87 90 117 307l121 862h207l-125 -872q-44 -311 -176 -439q-134 -129 -402 -129q-276 0 -389 136q-112 135 -69 442zM477 1577l303 264h140l256 -276l-74 -78l-246 207h-16l-305 -203z" />
<glyph unicode="&#xdc;" horiz-adv-x="1359" d="M154 551l118 862h207l-123 -872q-30 -217 24 -301t226 -84q179 0 264 88q87 90 117 307l121 862h207l-125 -872q-44 -311 -176 -439q-134 -129 -402 -129q-276 0 -389 136q-112 135 -69 442zM565 1618l19 115q6 55 63 55h60q59 0 49 -55l-17 -113q-6 -53 -59 -53h-66 q-55 0 -49 51zM907 1618l19 115q7 55 63 55h60q61 0 51 -55l-19 -113q-6 -53 -59 -53h-66q-55 0 -49 51z" />
<glyph unicode="&#xdd;" horiz-adv-x="1169" d="M129 1413h207l203 -584q29 -90 36 -163h19q28 87 82 170l364 577h224l-598 -926l-68 -487h-207l72 498zM571 1579l402 301l94 -154l-436 -239z" />
<glyph unicode="&#xde;" horiz-adv-x="1210" d="M86 0l199 1413h204l-34 -250q68 4 276 4q247 0 345 -101q100 -103 63 -359q-38 -259 -146 -352t-344 -93q-153 0 -319 19l-39 -281h-205zM352 438h273q153 1 221 60q66 57 90 223q21 163 -22 217q-42 53 -189 53q-189 0 -295 -2z" />
<glyph unicode="&#xdf;" horiz-adv-x="1386" d="M-242 -391l31 147h154q96 0 137 32q40 31 55 128l133 930h-182l20 141l183 12l18 121q12 92 42 158q30 65 70 104q42 40 103 62q63 22 130 30q62 7 161 7q268 0 372 -64q102 -63 79 -219q-12 -77 -57 -141q-42 -60 -152 -127q-10 -6 -58 -33q-42 -23 -58 -34 q-29 -20 -43 -30q-26 -19 -39 -39q-12 -17 -17 -42q-5 -24 9 -47t31 -36q23 -18 62 -42l188 -121q91 -61 123 -116q33 -57 21 -161q-21 -149 -115 -200q-96 -52 -287 -52q-145 0 -327 23l24 152q157 -9 265 -9q123 0 178 22q53 21 61 91q6 51 -15 78q-19 25 -81 65l-197 125 q-152 99 -131 234q6 44 26 81q18 34 61 69q39 32 75 55q21 13 100 59q85 52 119 90q35 40 41 88q7 62 -39 90q-47 29 -205 29q-172 0 -239 -46q-68 -47 -86 -181l-170 -1207q-22 -149 -105 -221q-82 -72 -233 -72q-98 0 -236 17z" />
<glyph unicode="&#xe0;" d="M96 512q22 162 64 271q41 106 108 157t140 69q68 17 184 17q241 0 489 -53l-139 -973h-156l9 184q-180 -209 -430 -209q-183 0 -246 119q-64 119 -23 418zM288 211q21 -64 118 -64q93 0 184 53q93 54 203 160l71 496q-168 4 -211 4q-108 0 -161 -10q-57 -11 -98 -52 t-61 -108q-21 -71 -38 -192q-28 -223 -7 -287zM303 1370l107 139l362 -301l-70 -88z" />
<glyph unicode="&#xe1;" d="M96 512q22 162 64 271q41 106 108 157t140 69q68 17 184 17q241 0 489 -53l-139 -973h-156l9 184q-180 -209 -430 -209q-183 0 -246 119q-64 119 -23 418zM288 211q21 -64 118 -64q93 0 184 53q93 54 203 160l71 496q-168 4 -211 4q-108 0 -161 -10q-57 -11 -98 -52 t-61 -108q-21 -71 -38 -192q-28 -223 -7 -287zM528 1212l402 299l94 -151l-436 -240z" />
<glyph unicode="&#xe2;" d="M96 512q22 162 64 271q41 106 108 157t140 69q68 17 184 17q241 0 489 -53l-139 -973h-156l9 184q-180 -209 -430 -209q-183 0 -246 119q-64 119 -23 418zM288 211q21 -64 118 -64q93 0 184 53q93 54 203 160l71 496q-168 4 -211 4q-108 0 -161 -10q-57 -11 -98 -52 t-61 -108q-21 -71 -38 -192q-28 -223 -7 -287zM330 1210l303 265h141l254 -279l-74 -78l-245 207h-17l-305 -201z" />
<glyph unicode="&#xe3;" d="M96 512q22 162 64 271q41 106 108 157t140 69q68 17 184 17q241 0 489 -53l-139 -973h-156l9 184q-180 -209 -430 -209q-183 0 -246 119q-64 119 -23 418zM288 211q21 -64 118 -64q93 0 184 53q93 54 203 160l71 496q-168 4 -211 4q-108 0 -161 -10q-57 -11 -98 -52 t-61 -108q-21 -71 -38 -192q-28 -223 -7 -287zM340 1200q5 124 56 184q53 62 128 56q70 -6 159 -55q87 -48 136 -54q58 -8 85 18q29 27 36 85l90 -9q-1 -118 -53 -180q-51 -61 -129 -55q-81 6 -172 56q-94 52 -125 57q-57 6 -85 -22q-29 -29 -36 -89z" />
<glyph unicode="&#xe4;" d="M96 512q22 162 64 271q41 106 108 157t140 69q68 17 184 17q241 0 489 -53l-139 -973h-156l9 184q-180 -209 -430 -209q-183 0 -246 119q-64 119 -23 418zM288 211q21 -64 118 -64q93 0 184 53q93 54 203 160l71 496q-168 4 -211 4q-108 0 -161 -10q-57 -11 -98 -52 t-61 -108q-21 -71 -38 -192q-28 -223 -7 -287zM418 1251l18 113q6 55 64 55h59q32 0 44 -12t7 -43l-18 -111q-6 -53 -60 -53h-65q-55 0 -49 51zM760 1251l18 113q7 55 64 55h59q32 0 44 -12t7 -43l-18 -111q-6 -53 -60 -53h-65q-55 0 -49 51z" />
<glyph unicode="&#xe5;" d="M96 512q22 162 64 271q41 106 108 157t140 69q68 17 184 17q241 0 489 -53l-139 -973h-156l9 184q-180 -209 -430 -209q-183 0 -246 119q-64 119 -23 418zM288 211q21 -64 118 -64q93 0 184 53q93 54 203 160l71 496q-168 4 -211 4q-108 0 -161 -10q-57 -11 -98 -52 t-61 -108q-21 -71 -38 -192q-28 -223 -7 -287zM465 1319q10 89 72 151t159 62q100 0 162 -65q61 -64 49 -162q-11 -92 -71 -151q-62 -60 -160 -60q-102 0 -162 64t-49 161zM571 1313q-6 -55 25 -87q30 -32 82 -32q51 0 85 34q33 34 38 89q4 50 -24 83q-27 32 -79 32t-87 -33 q-34 -32 -40 -86z" />
<glyph unicode="&#xe6;" horiz-adv-x="1789" d="M96 512q22 162 64 272q40 104 108 157q67 52 139 69q68 16 183 16q213 0 444 -45q114 45 299 45q235 0 317 -82q83 -83 60 -242q-22 -144 -113 -209q-89 -64 -276 -79l-348 -31q0 -143 60 -192q61 -50 192 -50q130 0 360 25l12 -133q-142 -58 -403 -58q-320 0 -397 215 q-183 -215 -437 -215q-180 0 -243 121q-64 124 -21 416zM291 212q21 -65 110 -65q91 0 179 48q84 46 190 147q-5 96 10 184q27 210 101 328q-49 0 -128 3t-102 3q-195 0 -256 -62t-94 -300q-30 -223 -10 -286zM987 530l332 31q94 6 137 40q42 33 57 118q12 97 -31 119 t-179 22q-159 0 -222 -64q-64 -66 -94 -266z" />
<glyph unicode="&#xe7;" horiz-adv-x="995" d="M90 508q39 287 160 402q122 116 379 116q198 0 327 -53l-30 -123q-131 8 -267 8q-178 0 -259 -73q-78 -70 -105 -291q-27 -219 23 -286t221 -67t301 23l14 -135q-157 -54 -352 -54q-265 0 -359 123q-94 122 -53 410zM205 -498l37 105q78 -2 136 37q59 40 71 104 q6 29 -14 38q-21 10 -95 11l23 92q138 12 191 -16q54 -29 36 -125q-21 -132 -128 -199q-108 -68 -257 -47z" />
<glyph unicode="&#xe8;" horiz-adv-x="1103" d="M92 526q39 290 159 395t394 105q235 0 318 -82q84 -82 61 -242q-24 -144 -115 -209q-89 -64 -276 -79l-346 -31q-2 -143 59 -192q62 -50 193 -50q129 0 368 25l13 -133q-148 -58 -412 -58q-254 0 -354 135q-99 134 -62 416zM293 1370l106 139l363 -301l-70 -88zM299 530 l334 31q94 6 137 40t55 118q12 97 -31 119t-180 22q-156 0 -220 -64q-65 -65 -95 -266z" />
<glyph unicode="&#xe9;" horiz-adv-x="1103" d="M92 526q39 290 159 395t394 105q235 0 318 -82q84 -82 61 -242q-24 -144 -115 -209q-89 -64 -276 -79l-346 -31q-2 -143 59 -192q62 -50 193 -50q129 0 368 25l13 -133q-148 -58 -412 -58q-254 0 -354 135q-99 134 -62 416zM299 530l334 31q94 6 137 40t55 118 q12 97 -31 119t-180 22q-156 0 -220 -64q-65 -65 -95 -266zM516 1212l402 299l94 -151l-437 -240z" />
<glyph unicode="&#xea;" horiz-adv-x="1103" d="M92 526q39 290 159 395t394 105q235 0 318 -82q84 -82 61 -242q-24 -144 -115 -209q-89 -64 -276 -79l-346 -31q-2 -143 59 -192q62 -50 193 -50q129 0 368 25l13 -133q-148 -58 -412 -58q-254 0 -354 135q-99 134 -62 416zM299 530l334 31q94 6 137 40t55 118 q12 97 -31 119t-180 22q-156 0 -220 -64q-65 -65 -95 -266zM319 1210l302 265h141l254 -279l-72 -78l-248 207h-16l-305 -201z" />
<glyph unicode="&#xeb;" horiz-adv-x="1103" d="M92 526q39 290 159 395t394 105q235 0 318 -82q84 -82 61 -242q-24 -144 -115 -209q-89 -64 -276 -79l-346 -31q-2 -143 59 -192q62 -50 193 -50q129 0 368 25l13 -133q-148 -58 -412 -58q-254 0 -354 135q-99 134 -62 416zM299 530l334 31q94 6 137 40t55 118 q12 97 -31 119t-180 22q-156 0 -220 -64q-65 -65 -95 -266zM406 1251l18 113q7 55 63 55h60q32 0 44 -12t7 -43l-18 -111q-6 -53 -60 -53h-65q-55 0 -49 51zM750 1251l16 113q7 55 65 55h60q33 0 43 -12q11 -12 6 -43l-18 -111q-2 -53 -58 -53h-67q-53 0 -47 51z" />
<glyph unicode="&#xec;" horiz-adv-x="516" d="M-23 1370l107 139l362 -301l-69 -88zM74 0l141 999h199l-142 -999h-198z" />
<glyph unicode="&#xed;" horiz-adv-x="516" d="M74 0l141 999h199l-142 -999h-198zM203 1212l401 299l94 -151l-436 -240z" />
<glyph unicode="&#xee;" horiz-adv-x="516" d="M4 1210l303 265h139l256 -279l-73 -78l-246 207h-16l-306 -201zM74 0l141 999h199l-142 -999h-198z" />
<glyph unicode="&#xef;" horiz-adv-x="516" d="M74 0l141 999h199l-142 -999h-198zM92 1251l19 113q6 55 63 55h59q33 0 43 -12q11 -13 7 -43l-19 -111q-2 -53 -57 -53h-66q-55 0 -49 51zM434 1251l19 113q7 55 63 55h59q33 0 45 -12t7 -43l-19 -111q-6 -53 -59 -53h-66q-55 0 -49 51z" />
<glyph unicode="&#xf0;" horiz-adv-x="1140" d="M84 455q60 465 461 465q176 0 284 -103q-2 244 -106 354l-176 -122l-53 75l149 109q-103 58 -301 53l31 144q254 10 415 -93l170 121l56 -80l-148 -104q215 -212 152 -701q-39 -302 -161 -451t-384 -149q-236 0 -329 118t-60 364zM289 440q-23 -164 22 -232 q45 -69 172 -69q157 0 229 105q73 107 103 352q9 80 10 88q-100 68 -233 68q-141 0 -210 -76t-93 -236z" />
<glyph unicode="&#xf1;" horiz-adv-x="1187" d="M66 0l141 999h158l-11 -215q271 242 473 242q126 0 193 -73q66 -72 45 -208l-107 -745h-196l96 696q12 94 -7 128t-85 34q-84 0 -175 -51q-93 -52 -239 -168l-88 -639h-198zM358 1200q1 120 56 184q53 62 129 56q67 -6 156 -55q87 -48 137 -54q58 -8 85 18q28 26 35 85 l91 -9q-1 -116 -53 -180q-49 -61 -130 -55q-79 6 -170 56q-94 52 -127 57q-55 6 -83 -22t-35 -89z" />
<glyph unicode="&#xf2;" horiz-adv-x="1159" d="M90 506q39 282 161 401t378 119q257 0 356 -124q98 -123 57 -410q-39 -284 -161 -401q-122 -118 -375 -118q-256 0 -355 124q-100 125 -61 409zM295 492q-29 -208 15 -280q44 -73 196 -73q159 0 231 79q73 80 101 288q30 206 -14 279t-195 73q-159 0 -231 -76 q-73 -78 -103 -290zM295 1370l106 139l363 -301l-70 -88z" />
<glyph unicode="&#xf3;" horiz-adv-x="1159" d="M90 506q39 282 161 401t378 119q257 0 356 -124q98 -123 57 -410q-39 -284 -161 -401q-122 -118 -375 -118q-256 0 -355 124q-100 125 -61 409zM295 492q-29 -208 15 -280q44 -73 196 -73q159 0 231 79q73 80 101 288q30 206 -14 279t-195 73q-159 0 -231 -76 q-73 -78 -103 -290zM520 1212l402 299l94 -151l-436 -240z" />
<glyph unicode="&#xf4;" horiz-adv-x="1159" d="M90 506q39 282 161 401t378 119q257 0 356 -124q98 -123 57 -410q-39 -284 -161 -401q-122 -118 -375 -118q-256 0 -355 124q-100 125 -61 409zM295 492q-29 -208 15 -280q44 -73 196 -73q159 0 231 79q73 80 101 288q30 206 -14 279t-195 73q-159 0 -231 -76 q-73 -78 -103 -290zM322 1210l303 265h139l256 -279l-74 -78l-246 207h-16l-305 -201z" />
<glyph unicode="&#xf5;" horiz-adv-x="1159" d="M90 506q39 282 161 401t378 119q257 0 356 -124q98 -123 57 -410q-39 -284 -161 -401q-122 -118 -375 -118q-256 0 -355 124q-100 125 -61 409zM295 492q-29 -208 15 -280q44 -73 196 -73q159 0 231 79q73 80 101 288q30 206 -14 279t-195 73q-159 0 -231 -76 q-73 -78 -103 -290zM332 1200q5 124 56 184q53 62 128 56q70 -6 159 -55q87 -48 134 -54q60 -7 87 18q29 27 36 85l90 -9q-1 -118 -53 -180q-51 -61 -131 -55q-79 6 -170 56q-94 52 -125 57q-57 6 -85 -22q-29 -29 -36 -89z" />
<glyph unicode="&#xf6;" horiz-adv-x="1159" d="M90 506q39 282 161 401t378 119q257 0 356 -124q98 -123 57 -410q-39 -284 -161 -401q-122 -118 -375 -118q-256 0 -355 124q-100 125 -61 409zM295 492q-29 -208 15 -280q44 -73 196 -73q159 0 231 79q73 80 101 288q30 206 -14 279t-195 73q-159 0 -231 -76 q-73 -78 -103 -290zM410 1251l18 113q6 55 64 55h59q33 0 43 -12q11 -12 6 -43l-16 -111q-6 -53 -60 -53h-65q-55 0 -49 51zM752 1251l18 113q7 55 64 55h59q32 0 44 -12t7 -43l-18 -111q-6 -53 -60 -53h-65q-55 0 -49 51z" />
<glyph unicode="&#xf7;" horiz-adv-x="1153" d="M113 530l22 148h905l-20 -148h-907zM422 199l12 92q8 69 74 69h51q82 0 70 -77l-15 -95q-7 -67 -77 -67h-52q-75 0 -63 78zM522 920l13 94q7 69 77 69h52q77 0 65 -75l-12 -97q-7 -65 -76 -65h-51q-80 0 -68 74z" />
<glyph unicode="&#xf8;" horiz-adv-x="1159" d="M90 506q39 282 161 401t378 119q109 0 196 -25l97 162l86 -51l-90 -149q175 -111 124 -471q-39 -284 -161 -401q-122 -118 -375 -118q-96 0 -178 19l-92 -152l-84 49l81 138q-196 108 -143 479zM295 492q-33 -237 37 -306l399 662q-31 10 -102 10q-159 0 -231 -76 q-73 -78 -103 -290zM422 145q38 -6 84 -6q159 0 231 79q73 80 101 288q33 220 -21 291z" />
<glyph unicode="&#xf9;" horiz-adv-x="1165" d="M96 252l105 747h198l-100 -696q-12 -88 12 -124t95 -36q83 0 163 50q81 51 219 172l86 634h197l-139 -999h-154l13 209q-244 -236 -455 -236q-136 0 -197 75q-61 74 -43 204zM307 1378l107 142l362 -301l-69 -91z" />
<glyph unicode="&#xfa;" horiz-adv-x="1165" d="M96 252l105 747h198l-100 -696q-12 -88 12 -124t95 -36q83 0 163 50q81 51 219 172l86 634h197l-139 -999h-154l13 209q-244 -236 -455 -236q-136 0 -197 75q-61 74 -43 204zM532 1221l402 301l92 -154l-436 -240z" />
<glyph unicode="&#xfb;" horiz-adv-x="1165" d="M96 252l105 747h198l-100 -696q-12 -88 12 -124t95 -36q83 0 163 50q81 51 219 172l86 634h197l-139 -999h-154l13 209q-244 -236 -455 -236q-136 0 -197 75q-61 74 -43 204zM334 1219l301 264h141l254 -277l-72 -78l-245 207h-17l-307 -202z" />
<glyph unicode="&#xfc;" horiz-adv-x="1165" d="M96 252l105 747h198l-100 -696q-12 -88 12 -124t95 -36q83 0 163 50q81 51 219 172l86 634h197l-139 -999h-154l13 209q-244 -236 -455 -236q-136 0 -197 75q-61 74 -43 204zM420 1260l18 114q8 56 64 56h59q62 0 51 -56l-18 -112q-6 -54 -59 -54h-66q-55 0 -49 52z M764 1260l18 114q6 56 64 56h59q32 0 43 -14q10 -14 6 -42l-16 -112q-6 -54 -59 -54h-66q-55 0 -49 52z" />
<glyph unicode="&#xfd;" horiz-adv-x="1116" d="M72 -279q126 29 229 93q97 60 188 186h-92q-46 0 -80 26t-41 70l-192 903h209l151 -809q6 -34 41 -34h101q12 24 22 42q4 8 8.5 15.5t7 12.5l3.5 7q181 377 254 766h206q-112 -492 -288 -825q-157 -299 -317 -430q-155 -126 -373 -164zM467 1212l401 299l93 -151 l-437 -240z" />
<glyph unicode="&#xfe;" d="M10 -408l258 1842h197l-49 -355q-17 -133 -43 -229l4 -12q183 186 414 186q170 0 237 -118q68 -120 25 -419q-22 -162 -64 -272q-40 -105 -106 -157q-64 -51 -135 -68t-179 -17q-121 0 -307 25q-6 -62 -18 -139l-37 -267h-197zM285 143q171 -4 211 -4q196 0 258 62 q61 61 94 301q30 225 10 286q-21 64 -113 64q-95 0 -187 -53q-91 -52 -206 -164z" />
<glyph unicode="&#xff;" horiz-adv-x="1116" d="M72 -279q126 29 229 93q97 60 188 186h-92q-46 0 -80 26t-41 70l-192 903h209l151 -809q6 -34 41 -34h101q12 24 22 42q4 8 8.5 15.5t7 12.5l3.5 7q181 377 254 766h206q-112 -492 -288 -825q-157 -299 -317 -430q-155 -126 -373 -164zM354 1251l19 113q7 55 63 55h60 q32 0 44 -12t7 -43l-19 -111q-6 -53 -57 -53h-68q-51 0 -49 51zM698 1251l19 113q6 55 63 55h60q32 0 44 -12t7 -43l-19 -111q-6 -53 -59 -53h-65q-56 0 -50 51z" />
<glyph unicode="&#x152;" horiz-adv-x="1894" d="M135 715q57 412 201 568q145 157 455 157q184 0 335 -62q74 39 174 39q426 0 605 -16l-29 -160h-553q-62 0 -96 -31t-41 -102l-39 -285h592l-21 -161h-592l-51 -363q-8 -70 16 -98q24 -29 93 -29h542l-6 -160q-169 -16 -561 -16q-126 0 -203 49q-164 -72 -348 -72 q-322 0 -427 163q-106 165 -46 579zM348 698q-45 -311 11 -426q57 -116 253 -116q143 0 254 32q-6 51 2 105l121 874q6 35 17 66q-105 24 -215 24q-209 0 -303 -119q-95 -121 -140 -440z" />
<glyph unicode="&#x153;" horiz-adv-x="1849" d="M88 506q40 282 163 402q121 118 378 118q258 0 354 -123q117 123 410 123q234 0 317 -82q85 -83 62 -242q-24 -144 -115 -209q-89 -64 -275 -79l-348 -31q0 -142 62 -192t192 -50t357 25l14 -133q-142 -58 -404 -58q-253 0 -356 136q-124 -138 -393 -138q-256 0 -356 124 q-101 125 -62 409zM295 492q-29 -206 15 -279q44 -74 196 -74q158 0 230 79q74 81 102 288q30 206 -14 279t-195 73q-159 0 -231 -76q-73 -78 -103 -290zM1049 530l331 31q95 6 138 40q42 33 57 118q4 39 -2 67q-6 26 -18 41t-46 22q-28 6 -61 8q-18 1 -86 1 q-156 0 -219 -63q-64 -64 -94 -265z" />
<glyph unicode="&#x178;" horiz-adv-x="1169" d="M129 1413h207l203 -584q29 -90 36 -163h19q28 87 82 170l364 577h224l-598 -926l-68 -487h-207l72 498zM461 1618l18 115q7 55 64 55h59q57 0 51 -55l-18 -113q-6 -53 -60 -53h-65q-55 0 -49 51zM803 1618l18 115q10 55 64 55h61q56 0 49 -55l-18 -113q-6 -53 -57 -53 h-68q-50 0 -49 51z" />
<glyph unicode="&#x2c6;" horiz-adv-x="870" d="M197 1198l301 264h141l254 -276l-72 -78l-246 207h-18l-305 -201z" />
<glyph unicode="&#x2dc;" horiz-adv-x="866" d="M203 1196q5 123 56 185q52 63 128 57q68 -6 157 -55q87 -48 136 -54q60 -7 87 18q29 27 36 85l90 -9q-1 -118 -53 -180q-51 -61 -131 -55q-79 6 -170 56t-125 56q-58 6 -85 -21q-29 -29 -36 -91z" />
<glyph unicode="&#x2000;" horiz-adv-x="960" />
<glyph unicode="&#x2001;" horiz-adv-x="1921" />
<glyph unicode="&#x2002;" horiz-adv-x="960" />
<glyph unicode="&#x2003;" horiz-adv-x="1921" />
<glyph unicode="&#x2004;" horiz-adv-x="640" />
<glyph unicode="&#x2005;" horiz-adv-x="480" />
<glyph unicode="&#x2006;" horiz-adv-x="320" />
<glyph unicode="&#x2007;" horiz-adv-x="320" />
<glyph unicode="&#x2008;" horiz-adv-x="240" />
<glyph unicode="&#x2009;" horiz-adv-x="384" />
<glyph unicode="&#x200a;" horiz-adv-x="106" />
<glyph unicode="&#x2010;" horiz-adv-x="901" d="M119 442l20 152h621l-21 -152h-620z" />
<glyph unicode="&#x2011;" horiz-adv-x="901" d="M119 442l20 152h621l-21 -152h-620z" />
<glyph unicode="&#x2012;" horiz-adv-x="901" d="M119 442l20 152h621l-21 -152h-620z" />
<glyph unicode="&#x2013;" horiz-adv-x="1198" d="M119 442l20 152h916l-21 -152h-915z" />
<glyph unicode="&#x2014;" horiz-adv-x="1818" d="M119 442l20 152h1536l-20 -152h-1536z" />
<glyph unicode="&#x2018;" horiz-adv-x="452" d="M188 1061l17 121q18 134 123 301l96 -31q-59 -174 -70 -229q68 5 62 -60l-19 -108q-7 -37 -25 -50q-19 -14 -63 -14h-57q-79 0 -64 70z" />
<glyph unicode="&#x2019;" horiz-adv-x="448" d="M203 1004q57 167 69 229q-31 -2 -47 14t-14 43l18 111q7 36 26 50q17 13 62 13h60q76 0 61 -71l-16 -121q-21 -140 -123 -299z" />
<glyph unicode="&#x201a;" horiz-adv-x="475" d="M47 -227q59 174 70 229q-33 -2 -49 14q-17 17 -13 43l17 111q11 38 27 50q17 13 63 13h59q77 0 62 -71l-17 -121q-21 -140 -123 -299z" />
<glyph unicode="&#x201c;" horiz-adv-x="780" d="M188 1061l17 121q18 134 123 301l96 -31q-59 -174 -70 -229q68 5 62 -60l-19 -108q-7 -37 -25 -50q-19 -14 -63 -14h-57q-79 0 -64 70zM516 1061l16 121q18 134 123 301l97 -31q-59 -174 -70 -229q34 2 49 -13t12 -47l-16 -108q-10 -37 -28 -50q-19 -14 -62 -14h-57 q-76 0 -64 70z" />
<glyph unicode="&#x201d;" horiz-adv-x="776" d="M203 1004q57 167 69 229q-31 -2 -47 14t-14 43l18 111q7 36 26 50q17 13 62 13h60q76 0 61 -71l-16 -121q-21 -140 -123 -299zM530 1004q59 174 70 229q-31 -2 -47 14t-12 43l16 111q7 36 26 50q17 13 62 13h60q76 0 61 -71l-16 -121q-21 -138 -121 -299z" />
<glyph unicode="&#x201e;" horiz-adv-x="802" d="M47 -229q59 174 70 229q-33 -2 -49 14q-17 17 -13 43l17 111q11 38 27 50q17 13 63 13h57q76 0 64 -69l-17 -123q-18 -132 -123 -299zM375 -229q57 167 69 229q-33 -2 -49 14t-12 43l16 111q10 37 28 50q17 13 62 13h58q75 0 63 -69l-16 -123q-18 -132 -123 -299z" />
<glyph unicode="&#x2022;" horiz-adv-x="743" d="M170 543l4 26q15 102 56 137t147 35h26q99 0 135 -41q36 -40 21 -139l-4 -29q-15 -104 -55 -141t-142 -37h-26q-105 0 -141 42t-21 147z" />
<glyph unicode="&#x2026;" horiz-adv-x="1751" d="M45 76l16 110q6 68 76 68h66q74 0 67 -76l-16 -108q-6 -70 -76 -70h-65q-80 0 -68 76zM686 76l16 110q8 68 76 68h66q79 0 67 -76l-14 -108q-8 -70 -78 -70h-63q-82 0 -70 76zM1327 76l16 110q8 68 78 68h66q77 0 65 -76l-14 -108q-8 -70 -76 -70h-65q-77 0 -70 76z" />
<glyph unicode="&#x202f;" horiz-adv-x="384" />
<glyph unicode="&#x2039;" horiz-adv-x="606" d="M72 502l4 45l381 395l80 -72l-304 -356l218 -371l-99 -65z" />
<glyph unicode="&#x203a;" horiz-adv-x="608" d="M45 152l305 356l-217 369l96 65l281 -424l-4 -45l-381 -395z" />
<glyph unicode="&#x205f;" horiz-adv-x="480" />
<glyph unicode="&#x20ac;" horiz-adv-x="1296" d="M88 528l18 121h164l9 66l12 80h-164l16 118h172q68 270 216 397q149 128 413 128q187 0 338 -43l-33 -160q-145 28 -319 18q-164 -6 -256 -86q-93 -80 -142 -254h510l-34 -118h-504q-4 -17 -9 -51q-2 -12 -5 -28t-3 -20l-6 -47h453l-35 -121h-426q-6 -189 59 -276 t222 -92q190 -11 362 22l8 -159q-167 -48 -362 -48q-267 0 -389 137q-121 136 -111 416h-174z" />
<glyph unicode="&#x2122;" horiz-adv-x="1968" d="M225 1309l17 116h669l-16 -116h-264l-92 -662h-142l92 662h-264zM899 647l131 729q7 49 53 49h144q47 0 53 -49l84 -432q3 -10 8 -54q4 -36 6 -56h23q17 61 41 108l203 442q18 41 59 41h147q25 0 38 -16t12 -43l-70 -719h-129l61 670h-22l-246 -533q-21 -41 -59 -41h-105 q-48 0 -53 50l-102 524h-25l-121 -670h-131z" />
<glyph unicode="&#x25fc;" horiz-adv-x="1003" d="M0 0v1004h1004v-1004h-1004z" />
<glyph unicode="&#xfb01;" horiz-adv-x="1257" d="M-242 -391l31 147h154q96 0 137 32q40 31 55 128l131 930h-178l19 143l182 10l20 154q24 158 102 238q76 77 230 77q170 0 248 -14l-15 -147h-169q-95 0 -140 -42q-44 -41 -59 -143l-19 -123h672l-141 -999h-199l119 846h-471l-135 -961q-41 -293 -326 -293 q-107 0 -248 17zM987 1257l17 115q6 53 61 53h94q28 0 43 -16t10 -45l-14 -115q-7 -55 -61 -55h-95q-30 0 -44 17q-15 18 -11 46z" />
<glyph unicode="&#xfb02;" horiz-adv-x="1380" d="M-242 -391l31 147h154q96 0 137 32q40 31 55 128l131 930h-178l18 143l183 10l20 154q24 158 102 239q75 78 230 76q436 0 598 -24l-162 -1184q-15 -125 107 -125h98l8 -129q-55 -24 -188 -24q-121 0 -181 64q-61 65 -46 177l151 1086h-321q-96 2 -140 -41 q-44 -42 -59 -146l-19 -123h289l-20 -153h-289l-135 -961q-41 -293 -326 -293q-107 0 -248 17z" />
</font>
</defs>
</svg>
