<?xml version="1.0" standalone="no"?>
<!DOCTYPE svg PUBLIC "-//W3C//DTD SVG 1.1//EN" "http://www.w3.org/Graphics/SVG/1.1/DTD/svg11.dtd" >
<svg xmlns="http://www.w3.org/2000/svg" xmlns:xlink="http://www.w3.org/1999/xlink" version="1.1">
<metadata></metadata>
<defs>
<font id="exo_2black_italic" horiz-adv-x="1433" >
<font-face units-per-em="2048" ascent="1638" descent="-410" />
<missing-glyph horiz-adv-x="430" />
<glyph horiz-adv-x="0" />
<glyph unicode="&#xd;" horiz-adv-x="681" />
<glyph unicode=" "  horiz-adv-x="430" />
<glyph unicode="&#x09;" horiz-adv-x="430" />
<glyph unicode="&#xa0;" horiz-adv-x="430" />
<glyph unicode="!" horiz-adv-x="671" d="M78 156l10 84q21 139 166 139h82q74 0 113 -40q38 -40 28 -116l-12 -84q-10 -73 -48 -106q-37 -33 -116 -33h-82q-159 0 -141 156zM150 465l22 479l66 479h426l-66 -479l-113 -479h-335z" />
<glyph unicode="&#x22;" horiz-adv-x="806" d="M145 946l41 467h295l-90 -467h-246zM512 946l41 467h295l-90 -467h-246z" />
<glyph unicode="#" horiz-adv-x="1521" d="M12 373l86 250h236l63 204h-233l84 250h227l107 336h321l-106 -336h192l107 336h321l-106 -336h233l-84 -250h-227l-64 -204h226l-86 -250h-219l-117 -373h-322l117 373h-193l-116 -373h-322l117 373h-242zM655 623h193l63 204h-192z" />
<glyph unicode="$" horiz-adv-x="1193" d="M0 43l43 309q361 -10 477 -10q83 0 115 13q34 14 41 46q6 27 -7 44q-13 18 -53 36l-247 127q-163 85 -215 189q-51 103 -35 245q24 212 147 301t379 99l49 178h320l-53 -195q146 -22 245 -57l-41 -283q-268 5 -485 5q-61 0 -90 -13q-27 -12 -33 -45q-11 -47 84 -92 l225 -113q164 -84 216 -181t34 -259q-27 -234 -142 -322q-117 -90 -392 -94l-47 -192h-318l51 213q-140 16 -268 51z" />
<glyph unicode="%" horiz-adv-x="1882" d="M102 1036q33 235 119 321q85 85 285 85q209 0 291 -97t47 -341q-33 -236 -120 -321q-86 -85 -288 -85q-207 0 -288 97t-46 341zM332 0l977 1413h266l-977 -1413h-266zM400 851q4 -30 46 -30q43 0 58 35q14 33 31 180q12 121 7 153q-4 30 -44 30q-39 0 -54 -35 q-14 -31 -32 -180q-16 -123 -12 -153zM1067 410q33 234 119 320q85 85 284 85q209 0 291 -97t47 -341q-33 -237 -119 -321q-86 -85 -288 -85q-207 0 -288 98q-81 97 -46 341zM1365 224q4 -29 46 -29t57 34q14 33 31 181q12 120 7 152q-4 30 -44 30q-38 0 -53 -35t-33 -180 q-16 -119 -11 -153z" />
<glyph unicode="&#x26;" horiz-adv-x="1554" d="M33 377q18 152 98 247q80 96 225 103l2 12q-101 7 -154 111q-52 102 -30 231q17 95 55 159q41 69 88 106q50 39 124 60q78 22 149 29q69 7 174 7q207 0 350 -49l-67 -285q-166 25 -269 25q-89 0 -125 -25q-34 -24 -45 -109q-10 -80 13 -111q23 -30 86 -30h340 q9 118 10 170h352q0 -86 -6 -170h158l-39 -268h-156q-21 -108 -66 -207q-185 -412 -757 -412q-291 0 -413 101q-121 100 -97 305zM508 436q-8 -72 26 -100q35 -29 113 -29q109 0 188 42t132 157q12 24 32 84h-331q-72 0 -111 -33t-49 -121z" />
<glyph unicode="'" horiz-adv-x="440" d="M145 946l41 467h295l-90 -467h-246z" />
<glyph unicode="(" horiz-adv-x="763" d="M59 655q60 416 242 647q183 233 526 318l52 -186q-312 -118 -408 -809q-51 -291 -15 -501q36 -211 179 -278l-53 -174q-326 89 -454 329q-129 242 -69 654z" />
<glyph unicode=")" horiz-adv-x="763" d="M-102 -154q311 129 407 811q51 300 17 507q-34 208 -179 270l52 176q323 -85 451 -328q128 -242 71 -659q-60 -413 -243 -645t-525 -318z" />
<glyph unicode="*" horiz-adv-x="935" d="M115 1059l90 219l221 -107l-6 -100l-64 -59zM184 795l271 262l14 360h233l-86 -358l195 -264l-193 -136l-96 244l-164 -244zM653 1069l23 100l233 107l45 -219l-249 -53z" />
<glyph unicode="+" horiz-adv-x="1064" d="M33 463l47 317h323l46 324h313l-45 -324h323l-47 -317h-323l-45 -324h-314l45 324h-323z" />
<glyph unicode="," horiz-adv-x="526" d="M6 139l14 94q12 82 52 114t118 32h74q82 0 115 -36t22 -120l-18 -131q-16 -107 -68 -230q-52 -125 -116 -200l-174 66q32 71 88 280q-66 -2 -90 30t-17 101z" />
<glyph unicode="-" horiz-adv-x="782" d="M66 401l36 250h596l-36 -250h-596z" />
<glyph unicode="." horiz-adv-x="522" d="M6 156l10 84q21 139 166 139h82q74 0 113 -40q39 -41 29 -116l-13 -84q-10 -73 -48 -106q-37 -33 -116 -33h-82q-159 0 -141 156z" />
<glyph unicode="/" horiz-adv-x="1222" d="M-72 -162l1026 1575h346l-1026 -1575h-346z" />
<glyph unicode="0" horiz-adv-x="1343" d="M86 723q57 411 205 565t473 154q338 0 459 -166t61 -586q-57 -412 -202 -566q-144 -153 -476 -153q-325 0 -451 169t-69 583zM498 441q5 -92 29 -115q27 -25 102 -25q77 0 114 27q38 27 60 107q23 81 45 267q14 108 19 185q5 68 3 118t-19 70q-19 22 -41 29q-26 8 -67 8 q-77 0 -113 -27t-60 -107q-24 -81 -48 -267q-28 -179 -24 -270z" />
<glyph unicode="1" horiz-adv-x="960" d="M88 1268l412 145h428l-199 -1413h-442l131 893q15 109 39 182l-332 -71z" />
<glyph unicode="2" horiz-adv-x="1208" d="M-23 0l33 229q16 117 72 177l338 288q67 62 84 77q15 13 38.5 35t31.5 29q31 27 53 48q35 33 42 41q4 5 27 32q15 17 21 32q5 11 10 30q8 31 -12 42q-19 11 -80 11q-291 0 -467 -4l8 328q240 43 500 43q281 0 400 -77q118 -76 95 -292q-12 -112 -64 -201t-181 -200 l-379 -326q91 31 196 31h373l-49 -373h-1090z" />
<glyph unicode="3" horiz-adv-x="1169" d="M-12 12l28 310q163 -11 375 -11q132 0 188 43t68 117q15 71 -8 98t-98 27h-297l35 266h288q84 0 113 32q28 31 33 112q4 54 -18 76t-101 22h-408v301q234 37 471 37q261 0 374 -76t97 -270q-23 -314 -280 -342l-2 -9q143 -18 196 -101q53 -84 37 -226q-27 -237 -180 -342 t-442 -105q-193 0 -469 41z" />
<glyph unicode="4" horiz-adv-x="1337" d="M16 506l471 907h420l-401 -801q-14 -20 -12 -32q2 -11 24 -11h232l47 349l100 217h338l-80 -566h141l-32 -241l-142 -41h-6l-41 -287h-403l39 287h-547q-105 0 -147 67t-1 152z" />
<glyph unicode="5" horiz-adv-x="1144" d="M-20 12l55 330q218 -20 350 -12q118 6 177 41q58 35 75 123q10 54 -22 74q-33 20 -136 32l-229 35q-66 11 -100 56q-35 47 -23 108l121 614h907l-57 -317h-541l-37 -162l170 -21q107 -15 181 -50q77 -36 117 -82q42 -49 65 -101q24 -55 24 -110q0 -60 -4 -105 q-33 -221 -173 -347q-142 -128 -435 -143q-150 -8 -485 37z" />
<glyph unicode="6" horiz-adv-x="1236" d="M66 356q-6 148 20 355q34 233 89 381q53 144 144 221q89 76 194 100q108 25 267 25q216 0 410 -47l-29 -263h-354q-131 0 -182 -51q-52 -52 -86 -217q118 74 252 74q243 0 329 -106q86 -105 51 -341q-40 -278 -174 -395q-133 -117 -426 -117q-167 0 -270 35t-166 120 q-63 86 -69 226zM468 365q2 -40 16 -54q13 -13 38 -20q22 -6 68 -6q90 0 120 45q29 43 50 180q12 92 -5 112q-18 21 -87 21q-86 0 -176 -51q-16 -98 -20 -140q-5 -56 -4 -87z" />
<glyph unicode="7" horiz-adv-x="1122" d="M111 1063l26 350h897q114 0 155 -60q40 -60 -5 -155l-600 -1198h-437l455 905q37 78 107 158h-598z" />
<glyph unicode="8" horiz-adv-x="1298" d="M33 369q16 149 91 249q75 101 226 111l2 8q-221 38 -182 340q24 197 146 281q121 84 413 84q316 0 430 -96t84 -302q-43 -279 -272 -307l-2 -8q264 -29 213 -393q-18 -135 -73 -213q-54 -76 -175 -115q-122 -39 -332 -39q-342 0 -468 97q-124 95 -101 303zM459 418 q-11 -82 17 -110q27 -27 126 -27q90 0 127 31q36 30 51 139q12 93 -14 119q-28 28 -125 28q-92 0 -131 -33t-51 -147zM559 985q-8 -72 13 -94q21 -23 110 -23q88 0 119 28q30 27 45 122q12 86 -10 111q-23 26 -107 26q-87 0 -122 -32q-33 -30 -48 -138z" />
<glyph unicode="9" horiz-adv-x="1239" d="M37 18l29 269h397q127 0 186 58q60 58 88 208q-114 -78 -276 -78q-101 0 -174 30t-111 78q-36 46 -59 109q-23 62 -21 126q1 57 8 124q20 137 52 228q30 86 96 150q67 65 174 89q113 25 281 25q132 0 228 -22q90 -21 155 -72q64 -50 88 -134q23 -82 28 -210 q4 -126 -24 -298q-57 -423 -207 -575t-490 -152q-237 0 -448 47zM510 961q-12 -122 4 -158q16 -37 82 -37q99 0 176 43q27 218 14 264q-15 45 -86 51h-34q-85 0 -115 -30t-41 -133z" />
<glyph unicode=":" horiz-adv-x="563" d="M-6 158l10 84q21 139 166 139h82q74 0 113 -40q38 -40 28 -116l-12 -84q-10 -73 -48 -106q-37 -33 -116 -33h-82q-159 0 -141 156zM74 723l10 84q21 139 166 139h82q73 0 112 -40q39 -41 29 -115l-12 -84q-11 -74 -48 -107t-116 -33h-82q-159 0 -141 156z" />
<glyph unicode=";" horiz-adv-x="559" d="M25 139l14 94q12 83 51 114q40 32 119 32h74q81 0 114 -36t23 -120l-19 -131q-17 -111 -67 -230q-51 -122 -117 -200l-174 66q32 71 88 280q-66 -2 -90 30q-24 31 -16 101zM104 723l11 84q21 139 166 139h81q74 0 113 -40q39 -41 29 -115l-12 -84q-10 -73 -49 -107 q-38 -33 -115 -33h-82q-160 0 -142 156z" />
<glyph unicode="&#x3c;" horiz-adv-x="1030" d="M33 457l45 329l934 324l-45 -344l-549 -141l504 -158l-43 -332z" />
<glyph unicode="=" horiz-adv-x="1169" d="M43 240l49 315h979l-49 -315h-979zM106 674l46 315h978l-45 -315h-979z" />
<glyph unicode="&#x3e;" horiz-adv-x="1024" d="M25 131l47 342l542 162l-495 162l39 311l839 -322l-45 -329z" />
<glyph unicode="?" horiz-adv-x="1105" d="M154 1118v285q16 5 60 12q57 10 59 10q6 1 53 10q38 8 58 9q7 1 27 2.5t32 2.5q51 4 71 5q34 2 79 3q31 1 97 1q246 0 356 -83t87 -251q-12 -78 -55 -146q-44 -69 -99 -117q-84 -73 -117 -101q-58 -50 -113 -127q-54 -77 -81 -166h-336q7 105 55 210q45 99 97 162 q16 20 104 120q53 60 65 88q18 47 5 59q-14 12 -70 12h-434zM268 156l13 84q18 139 163 139h82q76 0 115 -40q39 -41 29 -116l-13 -84q-10 -73 -48 -106q-37 -33 -113 -33h-84q-160 0 -144 156z" />
<glyph unicode="@" horiz-adv-x="1683" d="M59 473q24 146 68 242q43 94 112 140q68 46 141 61q77 16 181 16q199 0 545 -58l-90 -555q-12 -71 43 -71q82 0 106 55q27 62 66 289q6 29 14 80q4 24 10.5 66t9.5 59q7 47 4 93q-3 40 -8 68q-5 25 -32 46q-24 19 -48 29q-25 11 -78 15q-57 4 -101 6q-29 1 -132 1h-710 l18 266q281 15 696 20q183 1 300 -6q109 -7 214 -36q97 -27 145 -72t77 -125q28 -77 26 -186q-2 -105 -24 -261q-13 -84 -29 -177q-9 -51 -31 -145q-18 -74 -40 -121q-20 -41 -53 -90q-31 -46 -73 -71q-41 -24 -97 -45q-55 -20 -126 -28q-64 -7 -159 -7q-272 0 -349 187 q-123 -183 -307 -183q-177 0 -253 124t-36 374zM433 309q12 -24 63 -24q76 0 153 135l43 252h-90q-44 0 -68 -9q-23 -9 -51 -58q-27 -48 -45 -146q-17 -126 -5 -150z" />
<glyph unicode="A" horiz-adv-x="1388" d="M-100 0l544 1307q40 106 156 106h401q55 0 95 -36q41 -36 47 -87l182 -1290h-444l-25 299h-385l-111 -299h-460zM592 623h239l-24 305q-4 34 -4 83q0 33 2 74h-57q-16 -89 -41 -153z" />
<glyph unicode="B" horiz-adv-x="1345" d="M23 0l198 1413q207 17 580 17q290 0 403 -83q90 -66 90 -219q0 -39 -6 -84q-21 -152 -84 -222q-63 -71 -207 -83l-2 -12q269 -23 269 -296q0 -44 -7 -95q-29 -206 -149 -279q-121 -73 -395 -73q-467 0 -690 16zM498 291h129q97 0 135 32q36 30 51 136q5 32 5 56 q0 40 -13 56q-21 27 -98 27h-166zM578 866h137q76 0 106 28q28 26 43 120q4 24 4 41q0 29 -11 44q-17 23 -71 23h-172z" />
<glyph unicode="C" horiz-adv-x="1234" d="M84 723q29 212 79 352q48 135 134 218q88 85 204 114q122 31 300 31q259 0 465 -58l-52 -321q-265 4 -436 4q-77 0 -116 -24q-40 -24 -66 -102q-26 -77 -49 -247q-19 -130 -18 -205q0 -45 6 -69q18 -66 129 -66q273 0 452 17l17 -326q-211 -66 -490 -66q-358 0 -487 167 q-89 116 -89 350q0 104 17 231z" />
<glyph unicode="D" d="M23 0l198 1413q263 21 576 21q236 0 375 -64q136 -63 193 -228q32 -94 32 -230q0 -100 -17 -222q-30 -216 -78 -350q-47 -131 -135 -216t-204 -114q-119 -30 -306 -30q-335 0 -634 20zM510 303l141 -2q113 0 171 85t91 337q19 141 19 224q0 58 -9 89q-24 76 -141 76h-159 z" />
<glyph unicode="E" horiz-adv-x="1202" d="M66 377l102 731q21 145 115 229q95 84 247 84q511 0 713 -28l-49 -312h-492q-52 0 -75 -18t-29 -64l-18 -129h510l-37 -295h-514l-23 -163q-1 -10 -1 -18q0 -62 77 -62h491l-8 -316q-183 -24 -692 -24q-172 0 -256 106q-66 83 -66 208q0 34 5 71z" />
<glyph unicode="F" horiz-adv-x="1161" d="M18 0l156 1108q21 145 118 229q98 84 243 84q497 0 700 -30l-49 -310h-471q-56 0 -80 -18q-25 -19 -31 -64l-22 -157h493l-37 -295h-497l-76 -547h-447z" />
<glyph unicode="G" horiz-adv-x="1372" d="M86 723q30 216 86 358q56 140 153 221q96 80 222 110q124 30 313 30q273 0 473 -62l-49 -317q-273 4 -455 4q-132 0 -189 -78q-56 -77 -91 -299q-19 -122 -19 -195q0 -51 9 -79q23 -66 125 -66q94 0 184 64l55 399h424l-115 -813h-325l-17 164q-190 -193 -413 -193 q-391 0 -391 502q0 112 20 250z" />
<glyph unicode="H" horiz-adv-x="1443" d="M25 0l198 1413h445l-72 -506h338l72 506h444l-199 -1413h-444l84 592h-338l-84 -592h-444z" />
<glyph unicode="I" horiz-adv-x="659" d="M25 0l198 1413h443l-199 -1413h-442z" />
<glyph unicode="J" horiz-adv-x="808" d="M-49 29l69 274h76q120 0 131 80l150 1030h442l-160 -1161q-21 -137 -119 -208q-100 -73 -257 -73q-80 0 -187 16q-100 15 -145 42z" />
<glyph unicode="K" horiz-adv-x="1368" d="M25 0l198 1413h447l-56 -391q-11 -82 -32 -145h67l344 536h492l-395 -590q-56 -86 -148 -121l-2 -8q28 -12 61 -54q35 -44 52 -89l245 -551h-479l-219 590h-63q4 -31 4 -61q0 -38 -6 -76l-64 -453h-446z" />
<glyph unicode="L" horiz-adv-x="1130" d="M63 322l152 1091h447l-146 -979q-1 -10 -1 -18q0 -32 12 -46q15 -18 63 -18h467l-8 -334q-198 -26 -678 -26q-154 0 -241 93q-71 76 -71 184q0 25 4 53z" />
<glyph unicode="M" horiz-adv-x="1939" d="M0 0l227 1268q15 76 52 110q38 35 110 35h377q70 0 111 -39q42 -40 43 -106l24 -561q2 -36 2 -75q0 -65 -6 -136h21q15 73 51 206l172 582q34 129 176 129h395q76 0 115 -43q32 -36 32 -96q0 -11 -1 -23l-127 -1251h-400l111 1081h-29l-237 -729q-37 -127 -179 -127h-225 q-71 0 -114 38q-42 38 -44 106l-39 712h-32l-187 -1081h-399z" />
<glyph unicode="N" horiz-adv-x="1495" d="M23 0l178 1268q10 76 49 110q40 35 112 35h148q30 0 56 -8q24 -7 42 -32q23 -31 29 -40q12 -19 29 -57l237 -461q54 -114 86 -244h17q-5 53 -5 104q0 70 9 136l86 602h407l-178 -1268q-10 -76 -49 -110q-40 -35 -113 -35h-147q-62 0 -93 31t-65 106l-242 486 q-38 74 -71 233h-15q1 -34 1 -66q0 -108 -13 -196l-88 -594h-407z" />
<glyph unicode="O" d="M84 723q29 212 82 355q51 137 140 219q89 81 204 113q116 32 287 32q140 0 247 -22q105 -22 183 -73q80 -53 118 -139q37 -84 52 -214q5 -40 4 -86q0 -96 -19 -218q-28 -214 -82 -358q-52 -139 -143 -219q-92 -82 -207 -111q-121 -31 -291 -31q-250 0 -386 67 q-134 66 -182 230q-26 88 -26 213q0 107 19 242zM536 374q24 -73 134 -73q114 0 159 79q46 81 86 343q21 148 21 232q0 55 -9 83q-24 74 -134 74q-111 0 -157 -79q-47 -80 -87 -343q-22 -147 -23 -232q1 -55 10 -84z" />
<glyph unicode="P" horiz-adv-x="1306" d="M23 0l198 1413q205 21 570 21q329 0 448 -107q91 -82 90 -266q0 -57 -8 -125q-38 -270 -157 -365q-120 -96 -402 -96q-107 0 -227 14l-70 -489h-442zM575 788h148q83 0 114 31q29 29 46 150q4 32 4 57q0 43 -13 63q-21 31 -94 31h-157z" />
<glyph unicode="Q" d="M84 723q29 212 82 355q51 137 140 219q89 81 204 113q116 32 287 32q140 0 247 -22q105 -22 183 -73q80 -53 118 -139q37 -84 52 -214q5 -40 5 -86q0 -96 -20 -218q-28 -214 -82 -358q-52 -139 -143 -219q-92 -82 -207 -111q-121 -31 -291 -31q-250 0 -386 67 q-134 66 -182 230q-26 88 -26 213q0 107 19 242zM371 -266l123 211q221 -86 653 -152l-160 -358q-385 113 -616 299zM536 374q24 -73 134 -73q114 0 159 79q46 81 86 343q21 148 21 232q0 55 -9 83q-24 74 -134 74q-111 0 -157 -79q-47 -80 -87 -343q-22 -147 -22 -232 q0 -55 9 -84z" />
<glyph unicode="R" horiz-adv-x="1370" d="M23 0l198 1413q206 21 572 21q309 0 446 -102q110 -82 110 -256q0 -42 -6 -89q-18 -137 -89 -220q-70 -82 -230 -99l-2 -15q168 -24 186 -227l54 -426h-459l-37 428q-2 58 -18 73t-64 15h-156l-71 -516h-434zM573 829h154q89 0 125 31q34 29 49 131q3 24 3 42 q0 41 -16 60q-24 27 -100 27h-174z" />
<glyph unicode="S" horiz-adv-x="1232" d="M8 43l41 309q377 -10 488 -10q93 0 129 13q38 14 45 46q6 24 -9 41q-16 17 -59 39l-258 127q-168 83 -222 187q-42 81 -42 184q0 31 4 63q27 229 167 314q142 86 439 86q286 0 506 -74l-39 -283q-278 5 -496 5q-68 0 -101 -13q-31 -12 -38 -45q-4 -24 14 -44 q20 -21 76 -48l238 -113q168 -80 222 -178q41 -75 41 -185q0 -37 -5 -77q-27 -242 -154 -329t-436 -87q-272 0 -551 72z" />
<glyph unicode="T" horiz-adv-x="1265" d="M88 1081l47 332h1225l-47 -332h-391l-152 -1081h-444l151 1081h-389z" />
<glyph unicode="U" d="M92 592l119 821h442l-118 -838q-14 -82 -13 -137q0 -53 12 -81q25 -56 136 -56q113 0 153 56q42 59 70 235l117 821h444l-121 -838q-46 -340 -192 -472t-482 -132q-329 0 -470 146q-107 111 -107 328q0 69 10 147z" />
<glyph unicode="V" horiz-adv-x="1361" d="M111 1413h446l49 -903q2 -32 2 -78t-2 -106h53q15 85 48 176l307 911h467l-527 -1302q-44 -111 -155 -111h-387q-56 0 -96 36t-46 91z" />
<glyph unicode="W" horiz-adv-x="2037" d="M152 127v1286h436l-56 -874q-1 -29 -8 -124q-8 -105 -8 -112h35q26 141 57 254l197 733q33 123 158 123h309q59 0 98 -40q39 -41 40 -99v-737q0 -103 -5 -234h37q11 112 43 248l188 862h436l-356 -1302q-29 -111 -156 -111h-372q-58 0 -101 37t-41 90l15 756 q0 14 1.5 42.5t4 78t4.5 94.5h-37q-17 -113 -41 -209l-203 -778q-29 -111 -155 -111h-383q-59 0 -100 37q-38 33 -38 79q0 5 1 11z" />
<glyph unicode="X" horiz-adv-x="1376" d="M-94 0l446 721l-213 692h428l146 -549l309 549h453l-418 -692l239 -721h-436l-153 582l-330 -582h-471z" />
<glyph unicode="Y" horiz-adv-x="1329" d="M94 1413h443l108 -452q15 -69 15 -164q0 -21 -1 -43h31q10 95 62 202l239 457h473l-604 -985l-59 -428h-447l64 453z" />
<glyph unicode="Z" horiz-adv-x="1224" d="M-23 0l41 311l684 791h-548l43 311h1063l-43 -311l-682 -791h589l-43 -311h-1104z" />
<glyph unicode="[" horiz-adv-x="745" d="M25 -123l211 1497q16 95 72 146q59 53 151 53h375l-37 -262h-111q-32 0 -47 -12q-13 -11 -18 -42l-183 -1286q-6 -47 39 -47h125l-37 -262h-350q-219 0 -190 215z" />
<glyph unicode="\" horiz-adv-x="1189" d="M143 1413h320l594 -1575h-320z" />
<glyph unicode="]" horiz-adv-x="745" d="M-80 -338l37 262h111q31 0 45 11q13 11 18 42l182 1287q6 47 -37 47h-124l36 262h351q92 0 146 -62q54 -61 42 -153l-211 -1497q-12 -93 -71 -146t-150 -53h-375z" />
<glyph unicode="^" horiz-adv-x="1017" d="M106 848l353 489h311l231 -489l-170 -86l-227 321h-16l-322 -321z" />
<glyph unicode="_" horiz-adv-x="1091" d="M-35 -250l35 250h924l-35 -250h-924z" />
<glyph unicode="`" horiz-adv-x="802" d="M178 1264l164 266l481 -307l-137 -176z" />
<glyph unicode="a" horiz-adv-x="1255" d="M39 231q-4 43 -4 92q0 98 16 218q17 112 49 205q30 86 79 143q47 54 97 89q48 33 128 50q80 16 147 21q60 4 174 4q98 0 272 -22q164 -21 226 -44l-140 -987h-331l-4 199q-137 -206 -400 -224q-18 -1 -35 -1q-118 0 -185 60q-77 70 -89 197zM477 326q11 -25 55 -21 q86 6 191 158l43 309h-94q-76 0 -119 -42q-43 -41 -64 -177q-18 -123 -18 -182q0 -33 6 -45z" />
<glyph unicode="b" horiz-adv-x="1261" d="M12 61l193 1373h432l-33 -252q-17 -152 -67 -279q159 150 362 150q310 0 310 -366q0 -80 -15 -179q-17 -99 -35 -160q-22 -73 -64 -142q-44 -73 -107 -121q-66 -50 -164 -79q-105 -31 -230 -31q-138 0 -322 23q-181 23 -260 63zM475 268q42 -4 76 -5q11 0 22 1 q82 4 121 61q40 59 64 214q10 68 10 108q0 22 -3 36q-9 36 -58 36q-75 0 -175 -62z" />
<glyph unicode="c" horiz-adv-x="1097" d="M43 530q39 280 167 402q127 121 411 121q282 0 469 -80l-58 -262h-360q-89 0 -127 -41q-36 -39 -53 -152q-8 -53 -8 -90q0 -52 15 -74q25 -39 119 -39q216 0 345 15l30 -273q-171 -82 -450 -82q-280 0 -411 133q-99 100 -99 292q0 60 10 130z" />
<glyph unicode="d" horiz-adv-x="1263" d="M49 541q37 290 148 400q112 112 286 112q193 0 328 -27q0 129 14 213l37 195h430l-202 -1434h-340l-9 164q-196 -189 -383 -189q-320 0 -320 405q0 74 11 161zM475 385q7 -53 57 -53h9q79 5 172 71l53 390h-96q-92 0 -127 -44t-56 -196q-14 -76 -15 -129q1 -21 3 -39z " />
<glyph unicode="e" horiz-adv-x="1208" d="M43 520q16 161 63 268q45 104 131 163q82 56 184 79q104 23 247 23q307 0 422 -95q92 -76 92 -214q0 -34 -6 -72q-18 -133 -118 -186q-97 -51 -319 -68l-256 -19q1 -56 34 -75t112 -19q219 0 420 23l28 -262q-197 -91 -485 -91q-171 0 -287 35q-114 35 -176 107t-81 169 q-11 57 -11 125q0 51 6 109zM510 608l117 13q75 6 103 23q30 18 36 71q4 34 -15 49q-16 12 -64 12h-15q-75 -1 -109 -35q-32 -32 -53 -133z" />
<glyph unicode="f" horiz-adv-x="866" d="M-195 -360l66 256h100q63 0 92 24t39 90l109 756h-166l31 248l174 10l18 133q50 326 389 326q222 0 379 -31l-65 -256h-164q-60 0 -88 -25q-26 -23 -37 -90l-8 -57h239l-34 -258h-244l-123 -832q-49 -325 -389 -325q-96 0 -318 31z" />
<glyph unicode="g" horiz-adv-x="1265" d="M10 -346l21 231h258q315 0 399 131q26 38 46 111t34 100q-140 -219 -414 -231q-14 -1 -27 -1q-188 0 -250 132q-41 87 -41 222q0 86 17 192q17 104 40 181q24 78 51 133q25 50 69 91q39 36 78 58q32 18 95 31q58 12 106 15q46 3 120 3q191 0 365 -21q173 -21 256 -45 l-113 -803q-21 -159 -68 -268q-48 -113 -108 -176t-144 -100q-86 -38 -160 -48q-71 -10 -173 -10q-304 0 -457 72zM473 424q-2 -19 -2 -36q0 -24 4 -42q6 -29 21 -38t43 -3q94 18 194 160l43 307h-98q-96 0 -130 -43q-33 -42 -56 -176q-14 -74 -19 -129z" />
<glyph unicode="h" horiz-adv-x="1267" d="M6 0l201 1434h430l-43 -314q-17 -124 -59 -243q203 176 389 176q155 0 229 -77q58 -60 58 -159q0 -28 -5 -59l-106 -758h-430l90 637q6 32 -2 43q-7 10 -37 10q-93 0 -201 -84l-84 -606h-430z" />
<glyph unicode="i" horiz-adv-x="622" d="M14 0l142 1024h428l-142 -1024h-428zM190 1270l15 104q12 119 141 119h166q124 0 125 -110q0 -12 -2 -25l-14 -105q-15 -118 -142 -118h-168q-122 0 -122 110q0 12 1 25z" />
<glyph unicode="j" horiz-adv-x="626" d="M-150 -195q159 148 183 322l129 897h430l-133 -913q-21 -165 -120 -304q-98 -138 -253 -200zM188 1270l15 104q15 119 147 119h162q123 0 123 -106q0 -14 -2 -29l-15 -105q-15 -118 -145 -118h-162q-124 0 -124 110q0 12 1 25z" />
<glyph unicode="k" horiz-adv-x="1247" d="M6 0l201 1434h430l-78 -557q-21 -127 -88 -250q121 66 209 173q88 108 115 224h442q-69 -311 -350 -496q74 -51 114 -141l187 -387h-440l-175 379q-51 -20 -92 -31q0 -30 -4 -63l-41 -285h-430z" />
<glyph unicode="l" horiz-adv-x="737" d="M43 266l166 1168h428l-154 -1069q-8 -39 9 -53q16 -13 71 -13h82l25 -279q-88 -49 -293 -49q-172 0 -261 80q-75 68 -75 175q0 19 2 40z" />
<glyph unicode="m" horiz-adv-x="1810" d="M6 0l144 1024h333l13 -145q180 174 372 174q213 0 260 -148q168 148 349 148q151 0 223 -78q56 -60 56 -157q0 -28 -5 -60l-106 -758h-426l88 637q1 8 1 14q0 39 -40 39q-60 0 -148 -61l-88 -629h-411l88 637q2 10 2 17q0 36 -41 36q-62 0 -150 -57l-86 -633h-428z" />
<glyph unicode="n" horiz-adv-x="1267" d="M6 0l141 1024h336l11 -180q97 97 217 153t231 56q133 0 210 -77q60 -60 60 -161q0 -27 -4 -57l-106 -758h-432l88 618q6 45 -5 60q-12 16 -51 12q-83 -7 -180 -82l-86 -608h-430z" />
<glyph unicode="o" horiz-adv-x="1259" d="M43 526q41 293 179 410t448 117q313 0 439 -129q94 -96 94 -288q0 -65 -11 -142q-41 -290 -179 -404q-139 -115 -444 -115q-310 0 -440 128q-97 96 -97 286q0 63 11 137zM488 309q18 -43 98 -43q77 0 107 48q31 50 55 212q13 84 13 135q0 37 -7 56q-17 45 -92 45 q-82 0 -114 -50t-56 -218q-12 -79 -12 -127q0 -39 8 -58z" />
<glyph unicode="p" horiz-adv-x="1259" d="M-45 -369l192 1393h342v-180q196 205 412 205q177 0 249 -144q49 -98 49 -258q0 -75 -11 -164q-21 -153 -63 -258t-106 -157q-67 -55 -137 -75q-75 -22 -171 -22q-137 0 -283 27q0 -103 -14 -191l-29 -176h-430zM473 231h94q98 0 128 43q31 44 53 197q14 95 14 154 q0 52 -13 72q-14 22 -47 22q-86 0 -182 -96z" />
<glyph unicode="q" horiz-adv-x="1261" d="M45 520q11 78 28 148q13 54 43 127q26 64 70 108q42 41 104 79q58 35 148 53q88 18 201 18q144 0 328 -23q181 -23 260 -63l-191 -1336h-430l29 215q18 146 51 260q-164 -131 -313 -131q-207 0 -288 130q-54 86 -54 241q0 78 14 174zM475 379q11 -47 70 -47t166 71 l53 357q-36 4 -100 4q-85 -6 -122 -51q-38 -45 -59 -183q-12 -68 -12 -111q0 -24 4 -40z" />
<glyph unicode="r" horiz-adv-x="925" d="M6 0l144 1024h335l15 -139q202 168 407 168h74l-88 -394h-96q-111 0 -273 -26l-86 -633h-432z" />
<glyph unicode="s" horiz-adv-x="1122" d="M-6 23l35 247h344q155 0 202 6q48 6 52 27q1 15 -19 25q-15 8 -92 30l-215 62q-232 66 -232 282q0 32 5 68q21 144 130 213q111 70 365 70q301 0 516 -47l-34 -248h-392q-115 0 -145 -3q-32 -3 -33 -18q-4 -14 18 -27q19 -11 83 -28l223 -59q236 -65 236 -274 q0 -24 -3 -50q-23 -191 -146 -256q-124 -66 -374 -66q-266 0 -524 46z" />
<glyph unicode="t" horiz-adv-x="899" d="M47 766l31 248l184 10l39 268h424l-39 -268h246l-35 -258h-248l-57 -401q-6 -43 5 -54q12 -12 58 -12h121l23 -279q-123 -49 -342 -49q-157 0 -243 80q-68 63 -68 163q0 25 4 52l73 500h-176z" />
<glyph unicode="u" horiz-adv-x="1255" d="M37 266l104 758h432l-92 -637q-1 -6 -1 -12q0 -43 48 -43q82 0 183 76l88 616h426l-142 -1024h-335l-9 174q-209 -203 -417 -203q-161 0 -233 77q-57 60 -57 158q0 28 5 60z" />
<glyph unicode="v" horiz-adv-x="1243" d="M66 1024h464v-766h19q41 0 59 24q22 30 54 107q38 97 73 262q28 140 51 373h469q-29 -220 -100 -438q-68 -209 -158 -373q-75 -133 -158 -172q-87 -41 -241 -41h-303q-47 0 -83 31q-33 29 -38 78z" />
<glyph unicode="w" horiz-adv-x="1894" d="M84 1026h436l-16 -760h12q53 0 86 135q21 91 37 187q2 10 6 37t9 59.5t10 66.5q22 152 24 166q6 40 37 74q30 33 90 33h352q47 0 83 -31q34 -29 40 -78v-649h15q5 0 15 2q5 1 13 7q2 2 5.5 6t4.5 5q5 5 9 16q1 3 3.5 9.5t3.5 9.5q3 8 6 22q1 4 2 9.5t2 9t1 6.5l6 27 q4 17 6 31q13 58 41 233q24 161 39 365h426q-29 -250 -69 -422q-49 -209 -101 -340q-61 -150 -150 -205q-92 -57 -300 -57h-158q-52 0 -86 34q-31 31 -31 72v9v655h-24q-12 -106 -39 -252q-30 -161 -47 -227q-21 -77 -55 -137q-33 -57 -64 -86q-35 -31 -87 -46 q-59 -16 -96 -19q-42 -3 -118 -3h-225q-48 0 -83 33q-33 32 -38 82z" />
<glyph unicode="x" horiz-adv-x="1236" d="M-92 0l371 522l-199 502h397l133 -358l244 358h430l-346 -502l217 -522h-403l-146 381l-256 -381h-442z" />
<glyph unicode="y" horiz-adv-x="1273" d="M61 1024h471l17 -733q0 -33 33 -33h49q128 284 196 766h461q-35 -256 -155 -567q-123 -319 -201 -441q-281 -439 -743 -439q-27 0 -54 1l-26 232q6 2 80 27q70 23 82 28q30 12 69 29q42 18 74 45q35 28 63 61h-162q-48 0 -85 31q-36 30 -42 78z" />
<glyph unicode="z" horiz-adv-x="1101" d="M-20 0l34 276h-2l529 472h-445l37 276h954l-34 -276h2l-527 -472h467l-37 -276h-978z" />
<glyph unicode="{" horiz-adv-x="749" d="M39 541l33 266q13 4 52 17q12 4 33 20q19 14 26 38q9 28 14 62l47 338q23 170 162 251q140 81 405 38l-33 -260q-70 0 -99 -16q-28 -16 -34 -70l-37 -256q-17 -143 -73 -211q-57 -69 -205 -90q235 -67 202 -301l-49 -357q-6 -42 19 -64t92 -22l-12 -264q-283 -44 -411 48 q-127 91 -103 261l63 455q2 22 2 30q0 16 -1 22q-2 10 -7 17q-8 10 -10 12q-6 6 -15 10l-16 8q-7 3 -22 8q-13 4 -23 10z" />
<glyph unicode="|" horiz-adv-x="565" d="M0 -346l274 1945h299l-274 -1945h-299z" />
<glyph unicode="}" horiz-adv-x="747" d="M-66 -336l33 260q52 0 73 3q22 3 38 21q15 17 20 56l54 379q18 118 78 187q59 68 208 106q-127 18 -171 95t-23 214l39 256q6 39 -19 55q-24 15 -96 15l12 264q283 44 411 -48q127 -91 105 -261l-49 -338q-3 -13 -5 -39q-2 -17 3 -29q1 -4 5 -18q2 -6 14 -14q13 -8 16 -9 q1 0 4 -1.5t8 -3t11 -3.5q22 -7 28 -8l-35 -266q-35 -14 -52 -21q-19 -8 -35 -20q-22 -15 -30 -35q-10 -23 -14 -53l-63 -455q-24 -170 -164 -251t-404 -38z" />
<glyph unicode="~" horiz-adv-x="1024" d="M72 432q-8 173 49 255q57 83 147 83q44 0 129 -18q91 -19 183 -45q96 -27 100 -27q51 -11 71 11q19 21 27 77l172 -16q6 -168 -46 -253t-148 -85q-49 0 -134 19q-106 24 -177 43q-26 7 -49.5 13.5t-37.5 10l-18 4.5q-49 10 -69 -11q-19 -21 -27 -77z" />
<glyph unicode="&#xa1;" horiz-adv-x="638" d="M-27 -358l66 479l113 479h335l-22 -479l-66 -479h-426zM156 842l10 84q21 139 166 139h82q73 0 112 -40q39 -41 29 -116l-12 -84q-10 -73 -48 -106q-37 -33 -116 -33h-82q-159 0 -141 156z" />
<glyph unicode="&#xa2;" horiz-adv-x="1101" d="M74 729q37 272 155 393t373 129l43 162h320l-50 -186q109 -21 189 -56l-60 -262h-354q-83 0 -118 -41q-33 -39 -50 -151q-18 -125 6 -164t111 -39q219 0 338 14l29 -272q-141 -70 -367 -80l-47 -176h-318l54 205q-311 100 -254 524z" />
<glyph unicode="&#xa3;" horiz-adv-x="1220" d="M-2 0l37 346q194 88 205 285v12h-154l25 205h141l10 203q18 229 126 309q109 80 353 80q220 0 484 -21l-39 -317h-381q-60 0 -87 -19t-28 -69l-6 -166h301l-39 -205h-268l-2 -29q-1 -80 -34 -142t-64 -88q-40 -33 -95 -69q72 27 168 27h475l-45 -342h-1083z" />
<glyph unicode="&#xa4;" horiz-adv-x="1167" d="M43 410l147 133q-35 95 -20 194q15 103 78 199l-127 139l190 170l129 -143q91 47 193 47q116 0 207 -53l149 137l170 -186l-158 -144q35 -97 21 -198q-16 -110 -74 -195l129 -139l-188 -170l-129 141q-98 -49 -199 -49q-117 0 -211 55l-137 -125zM410 727 q-12 -87 37 -139q50 -53 128 -53q82 0 140 50q57 49 69 134q12 87 -35 139q-48 53 -128 53q-92 0 -145 -49q-54 -50 -66 -135z" />
<glyph unicode="&#xa5;" horiz-adv-x="1443" d="M152 242l26 225h1039l-31 -225h-297l-33 -242h-446l34 242h-292zM152 1413h442l108 -452q17 -87 13 -207h30q10 95 62 202l237 457h474l-404 -659h141l-30 -226h-1035l27 226h156z" />
<glyph unicode="&#xa6;" horiz-adv-x="571" d="M4 -346l115 819h299l-115 -819h-299zM162 780l117 819h299l-117 -819h-299z" />
<glyph unicode="&#xa7;" horiz-adv-x="1105" d="M-31 -377l45 289q7 0 129 -2t146 -2q105 0 144 11q43 12 50 50q7 43 -49 76l-192 113q-169 89 -193 215q-24 127 76 311l297 -16q-15 -108 4 -144q17 -32 111 -94l249 -156q1 -1 22 -14q7 -4 16 -10t11 -7t5.5 -4t9 -8t10.5 -9q21 -17 28 -28q1 -1 9 -14t14 -21 q15 -21 21 -44q6 -21 12 -53t5 -65q-2 -41 -7 -77q-27 -189 -143 -256t-355 -67q-287 0 -475 26zM139 1116q12 99 58 168q45 67 118 100q77 35 150 46q77 12 178 12q249 0 471 -25l-45 -291q-48 4 -319 2q-82 0 -115 -12t-35 -47q-4 -47 72 -90l170 -98q168 -89 192 -215 q24 -128 -76 -312l-296 17q15 103 -5 141q-18 34 -110 96l-250 168q-55 40 -87 75t-57 104q-26 72 -14 161z" />
<glyph unicode="&#xa8;" horiz-adv-x="892" d="M207 1253l22 150q8 72 80 72h158q73 0 61 -68l-22 -156q-7 -65 -72 -65h-166q-73 0 -61 67zM594 1253l22 152q11 70 74 70h164q73 0 61 -68l-22 -154q-4 -37 -21 -52q-16 -15 -51 -15h-166q-73 0 -61 67z" />
<glyph unicode="&#xa9;" horiz-adv-x="1611" d="M78 723q38 335 254 526q219 193 549 193q344 0 531 -205t153 -547q-34 -328 -248 -524q-213 -195 -551 -195q-342 0 -534 200q-192 199 -154 552zM283 690q-21 -247 100 -387q121 -141 373 -141q254 0 416 146q164 148 188 415q23 248 -100 388q-122 140 -373 140 q-259 0 -420 -148t-184 -413zM436 725q27 217 126 300q100 83 323 83q141 0 270 -35l-31 -221h-270q-49 0 -70 -27q-20 -26 -28 -112q-10 -91 2 -118q12 -26 61 -30q111 -6 258 6l19 -223q-126 -41 -279 -41q-235 0 -322 94q-87 95 -59 324z" />
<glyph unicode="&#xaa;" horiz-adv-x="919" d="M106 930q15 92 45 156q31 65 65 99q36 36 97 54q64 19 116 23q48 4 146 4q231 2 336 -43l-92 -650h-237l-4 132q-83 -136 -252 -148q-155 -10 -202 85t-18 288zM414 810q4 -29 37 -28q52 5 108 92l31 201h-55q-41 0 -68 -27q-26 -26 -41 -112q-16 -96 -12 -126z" />
<glyph unicode="&#xab;" horiz-adv-x="1134" d="M37 465l6 92l332 406l231 -144l-180 -305l127 -315l-225 -148zM516 465l6 92l332 406l231 -144l-180 -305l127 -315l-225 -148z" />
<glyph unicode="&#xac;" horiz-adv-x="1165" d="M63 477l48 316h983l-74 -510h-340l29 194h-646z" />
<glyph unicode="&#xad;" horiz-adv-x="786" d="M66 401l36 250h596l-36 -250h-596z" />
<glyph unicode="&#xae;" horiz-adv-x="1011" d="M106 1004q30 197 167 318q137 120 348 120q191 0 305 -133q114 -134 86 -338q-30 -198 -167 -320q-136 -121 -345 -121q-193 0 -307 134q-115 135 -87 340zM219 971q-18 -150 67 -243q86 -93 222 -93q166 0 268 99t123 270q18 148 -65 240q-84 93 -222 93 q-167 0 -268 -98q-103 -100 -125 -268zM330 784l59 426q72 7 186 7q125 0 177 -33q53 -33 41 -105q-10 -81 -103 -92l-2 -4q63 -5 70 -78l12 -121h-182v125q0 21 -21 21h-43l-20 -146h-174zM539 1034h39q35 0 40 29q6 33 -24 33h-47z" />
<glyph unicode="&#xaf;" horiz-adv-x="819" d="M180 1208l35 252h655l-34 -252h-656z" />
<glyph unicode="&#xb0;" horiz-adv-x="679" d="M123 1167q17 119 96 191t211 72q125 0 211 -83t70 -212q-16 -120 -100 -193q-83 -72 -214 -72q-128 0 -211 83q-81 81 -63 214zM319 1155q-6 -49 19 -77q24 -27 72 -27q94 0 104 96q4 45 -20 74q-24 28 -72 28q-93 0 -103 -94z" />
<glyph unicode="&#xb1;" horiz-adv-x="1136" d="M10 39l47 317h959l-45 -317h-961zM96 637l45 315h324l31 222h313l-33 -222h326l-47 -315h-324l-31 -219h-311l31 219h-324z" />
<glyph unicode="&#xb2;" horiz-adv-x="882" d="M96 737l25 170q15 97 49 129l178 129q164 112 189 135q18 16 9 30q-9 13 -34 13q-153 0 -301 5v229q136 22 319 22q94 0 159 -9q62 -9 121 -35q57 -25 78 -78t9 -136q-16 -100 -149 -188l-230 -156q57 17 117 15l231 -6l-37 -269h-733z" />
<glyph unicode="&#xb3;" horiz-adv-x="833" d="M96 745l17 230q98 -2 282 -2q105 0 113 63q2 24 -7 31q-10 8 -38 8h-209l27 193h204q31 0 44 12q14 12 14 43q0 29 -51 29q-162 0 -277 4l-4 225q161 23 321 23q197 0 271 -49q72 -48 57 -166q-22 -182 -192 -199l-2 -6q194 -22 165 -228q-15 -115 -101 -176t-290 -61 q-146 0 -344 26z" />
<glyph unicode="&#xb4;" horiz-adv-x="802" d="M184 1223l506 319l135 -299l-544 -196z" />
<glyph unicode="&#xb6;" horiz-adv-x="1218" d="M82 938q41 276 199 388q159 112 501 112q229 0 398 -35l-33 -240l-164 -1163h-256l166 1184l-66 2l-227 -1616h-256l119 844q-226 27 -320 166t-61 358z" />
<glyph unicode="&#xb7;" horiz-adv-x="536" d="M59 496l11 84q21 139 166 139h81q74 0 113 -40q39 -41 29 -116l-13 -84q-10 -73 -48 -106t-115 -33h-82q-160 0 -142 156z" />
<glyph unicode="&#xb8;" horiz-adv-x="538" d="M-102 -500l43 158q181 0 202 94q0 8 1 11q2 5 -4 10q-4 5 -12 6q-7 1 -23 3q-5 1 -17.5 1.5t-18.5 0.5q-14 1 -53 1l37 147q167 30 270 0q104 -30 83 -149q-29 -165 -170 -237q-143 -73 -338 -46z" />
<glyph unicode="&#xb9;" horiz-adv-x="657" d="M137 1505l236 80h327l-120 -848h-326l70 482q12 79 28 122l-202 -36z" />
<glyph unicode="&#xba;" horiz-adv-x="888" d="M98 926q27 191 122 271q94 79 294 79q217 0 303 -89q85 -89 57 -294q-27 -193 -116 -267q-90 -75 -295 -75q-215 0 -303 87q-89 87 -62 288zM415 797q9 -39 50 -39q40 0 58 34q17 32 32 134q10 92 1 117q-9 24 -46 24q-41 0 -59 -35t-33 -139q-12 -57 -3 -96z" />
<glyph unicode="&#xbb;" horiz-adv-x="1136" d="M25 199l180 305l-127 315l225 148l291 -414l-6 -92l-332 -406zM504 199l180 305l-127 315l225 148l291 -414l-6 -92l-332 -406z" />
<glyph unicode="&#xbc;" horiz-adv-x="1959" d="M143 1333l219 80h328l-121 -848h-325l67 482q11 74 29 122l-184 -36zM262 0l989 1413h273l-989 -1413h-273zM1023 213q-25 55 5 106l272 529h293l-221 -459q-12 -29 14 -29h107l25 177l69 141h240l-45 -318h92l-23 -176l-96 -26h-2l-22 -158h-287l22 158h-348 q-70 0 -95 55z" />
<glyph unicode="&#xbd;" horiz-adv-x="1935" d="M143 1333l217 80h330l-121 -848h-327l67 482q11 74 29 122l-184 -36zM260 0l989 1413h271l-988 -1413h-272zM1065 0l25 170q15 96 51 129l170 129q159 112 182 135q18 17 12 30t-28 13q-180 0 -295 4v230q132 22 311 22q198 0 293 -52q96 -53 69 -206q-18 -99 -143 -188 l-225 -156q57 16 115 14l225 -6l-37 -268h-725z" />
<glyph unicode="&#xbe;" horiz-adv-x="2060" d="M72 573l16 230q98 -2 277 -2q99 0 106 63q5 22 -4 31q-8 8 -35 8l-205 4l27 189h201q28 0 40 12q11 11 11 43q0 29 -43 29q-160 0 -275 4l-4 225q161 23 318 23q194 0 268 -49q71 -48 55 -166q-22 -182 -192 -199l-2 -6q188 -22 164 -228q-15 -115 -100 -176t-283 -61 q-149 0 -340 26zM408 0l985 1413h272l-987 -1413h-270zM1135 217q-27 55 4 107l272 528h293l-223 -459q-12 -28 14 -28h109l24 172l68 145h239l-45 -317h92l-22 -177l-94 -26h-4l-23 -158h-285l23 158h-346q-69 0 -96 55z" />
<glyph unicode="&#xbf;" horiz-adv-x="1095" d="M-53 -63q11 79 54 144q43 63 101 114q38 33 118 99q62 51 114 127q55 80 78 173h336q-10 -120 -57 -225t-95 -161q-50 -57 -104 -113t-70 -81q-20 -36 -2 -53.5t74 -17.5h436l-4 -285q-16 -2 -68 -12q-21 -4 -43 -9t-24 -5q-4 -1 -12 -2.5t-21.5 -3.5t-25.5 -4 q-35 -6 -70 -8q-50 -3 -72 -5q-30 -3 -93 -5q-32 -1 -108 -1q-245 0 -355 83t-87 251zM418 838l10 84q21 139 164 139h84q73 0 112 -40q39 -41 29 -116l-12 -84q-7 -72 -46 -106q-37 -33 -116 -33h-84q-159 0 -141 156z" />
<glyph unicode="&#xc0;" horiz-adv-x="1388" d="M-100 0l544 1307q40 106 156 106h401q55 0 95 -36q41 -36 47 -87l182 -1290h-444l-25 299h-385l-111 -299h-460zM397 1692l164 266l481 -307l-137 -176zM592 623h239l-24 305q-6 56 -2 157h-57q-16 -89 -41 -153z" />
<glyph unicode="&#xc1;" horiz-adv-x="1388" d="M-100 0l544 1307q40 106 156 106h401q55 0 95 -36q41 -36 47 -87l182 -1290h-444l-25 299h-385l-111 -299h-460zM592 623h239l-24 305q-6 56 -2 157h-57q-16 -89 -41 -153zM629 1651l506 319l135 -299l-545 -196z" />
<glyph unicode="&#xc2;" horiz-adv-x="1388" d="M-100 0l544 1307q40 106 156 106h401q55 0 95 -36q41 -36 47 -87l182 -1290h-444l-25 299h-385l-111 -299h-460zM385 1620l307 278h289l268 -286l-112 -139l-301 192h-17l-336 -192zM592 623h239l-24 305q-6 56 -2 157h-57q-16 -89 -41 -153z" />
<glyph unicode="&#xc3;" horiz-adv-x="1388" d="M-100 0l544 1307q40 106 156 106h401q55 0 95 -36q41 -36 47 -87l182 -1290h-444l-25 299h-385l-111 -299h-460zM430 1546q-4 167 50 253q54 85 151 85q61 0 193 -45t134 -45q49 -12 70 10t27 78l174 -16q8 -170 -45 -254q-52 -84 -150 -84q-62 0 -192 44 q-133 45 -144 46q-49 10 -67 -11q-20 -23 -27 -77zM592 623h239l-24 305q-6 56 -2 157h-57q-16 -89 -41 -153z" />
<glyph unicode="&#xc4;" horiz-adv-x="1388" d="M-100 0l544 1307q40 106 156 106h401q55 0 95 -36q41 -36 47 -87l182 -1290h-444l-25 299h-385l-111 -299h-460zM485 1630l23 150q7 71 80 71h157q74 0 62 -67l-23 -156q-7 -65 -71 -65h-166q-74 0 -62 67zM592 623h239l-24 305q-6 56 -2 157h-57q-16 -89 -41 -153z M872 1630l23 152q11 69 74 69h164q73 0 61 -67l-23 -154q-5 -38 -20 -52q-17 -15 -51 -15h-166q-74 0 -62 67z" />
<glyph unicode="&#xc5;" horiz-adv-x="1388" d="M-100 0l544 1307q40 106 156 106h401q55 0 95 -36q41 -36 47 -87l182 -1290h-444l-25 299h-385l-111 -299h-460zM584 1733q12 97 86 164q75 67 186 67q114 0 191 -78q76 -78 61 -186q-12 -98 -86 -165q-75 -67 -188 -67q-118 0 -191 78q-74 79 -59 187zM592 623h239 l-24 305q-6 56 -2 157h-57q-16 -89 -41 -153zM754 1722q-4 -45 18 -72q23 -28 66 -28q42 0 70 28q29 29 30 72q2 39 -23 64q-24 24 -65 24q-39 0 -66 -24q-25 -22 -30 -64z" />
<glyph unicode="&#xc6;" horiz-adv-x="1957" d="M-119 0l645 1102q71 120 151 185q79 64 221 97t378 33q484 0 725 -22l-53 -308h-471q-53 0 -73 -17q-22 -19 -28 -64l-20 -146h487l-33 -274h-495l-27 -178q-10 -82 74 -82h475l-6 -310q-198 -24 -686 -24q-146 0 -223 92t-56 235h-346l-178 -319h-461zM702 643h209 l54 385q11 61 43 127h-23l-26 -51q-18 -38 -29 -55z" />
<glyph unicode="&#xc7;" horiz-adv-x="1234" d="M84 723q29 212 79 352q48 135 134 218q88 85 204 114q122 31 300 31q259 0 465 -58l-52 -321q-265 4 -436 4q-77 0 -116 -24q-40 -24 -66 -102q-26 -77 -49 -247q-30 -208 -12 -274t129 -66q273 0 452 17l17 -326q-211 -66 -490 -66q-358 0 -487 167t-72 581zM254 -565 l43 157q182 0 203 95q0 8 1 11q1 4 -4 9q-4 4 -13 6q-8 2 -22 3q-5 1 -18 1.5t-19 0.5q-14 1 -52 1l37 148q166 30 269 0q104 -30 83 -150q-29 -164 -170 -236q-143 -73 -338 -46z" />
<glyph unicode="&#xc8;" horiz-adv-x="1202" d="M66 377l102 731q21 145 115 229q95 84 247 84q511 0 713 -28l-49 -312h-492q-52 0 -75 -18t-29 -64l-18 -129h510l-37 -295h-514l-23 -163q-12 -80 76 -80h491l-8 -316q-183 -24 -692 -24q-172 0 -256 106t-61 279zM360 1692l164 266l482 -307l-138 -176z" />
<glyph unicode="&#xc9;" horiz-adv-x="1202" d="M66 377l102 731q21 145 115 229q95 84 247 84q511 0 713 -28l-49 -312h-492q-52 0 -75 -18t-29 -64l-18 -129h510l-37 -295h-514l-23 -163q-12 -80 76 -80h491l-8 -316q-183 -24 -692 -24q-172 0 -256 106t-61 279zM592 1651l506 319l135 -299l-545 -196z" />
<glyph unicode="&#xca;" horiz-adv-x="1202" d="M66 377l102 731q21 145 115 229q95 84 247 84q511 0 713 -28l-49 -312h-492q-52 0 -75 -18t-29 -64l-18 -129h510l-37 -295h-514l-23 -163q-12 -80 76 -80h491l-8 -316q-183 -24 -692 -24q-172 0 -256 106t-61 279zM348 1620l307 278h289l268 -286l-112 -139l-301 192 h-17l-336 -192z" />
<glyph unicode="&#xcb;" horiz-adv-x="1202" d="M66 377l102 731q21 145 115 229q95 84 247 84q511 0 713 -28l-49 -312h-492q-52 0 -75 -18t-29 -64l-18 -129h510l-37 -295h-514l-23 -163q-12 -80 76 -80h491l-8 -316q-183 -24 -692 -24q-172 0 -256 106t-61 279zM449 1630l22 150q7 71 80 71h158q73 0 61 -67l-22 -156 q-7 -65 -72 -65h-166q-73 0 -61 67zM836 1630l22 152q10 69 74 69h164q73 0 61 -67l-22 -154q-4 -37 -21 -52q-16 -15 -51 -15h-166q-73 0 -61 67z" />
<glyph unicode="&#xcc;" horiz-adv-x="659" d="M25 0l198 1413h443l-199 -1413h-442zM43 1692l164 266l481 -307l-137 -176z" />
<glyph unicode="&#xcd;" horiz-adv-x="659" d="M25 0l198 1413h443l-199 -1413h-442zM274 1651l506 319l135 -299l-544 -196z" />
<glyph unicode="&#xce;" horiz-adv-x="659" d="M25 0l198 1413h443l-199 -1413h-442zM31 1620l307 278h289l268 -286l-113 -139l-301 192h-16l-336 -192z" />
<glyph unicode="&#xcf;" horiz-adv-x="659" d="M25 0l198 1413h443l-199 -1413h-442zM131 1630l23 150q7 71 79 71h158q74 0 62 -67l-23 -156q-7 -65 -72 -65h-165q-74 0 -62 67zM518 1630l23 152q11 69 73 69h164q74 0 62 -67l-23 -154q-5 -38 -20 -52q-17 -15 -52 -15h-165q-74 0 -62 67z" />
<glyph unicode="&#xd0;" d="M16 641l29 205h96l80 567q263 21 576 21q236 0 375 -64q136 -63 193 -228q56 -162 15 -452q-30 -216 -78 -350q-47 -131 -135 -216t-204 -114q-119 -30 -306 -30q-335 0 -634 20l90 641h-97zM510 303l141 -2q113 0 171 85t91 337q33 239 10 313q-24 76 -141 76h-159 l-37 -266h178l-29 -205h-178z" />
<glyph unicode="&#xd1;" horiz-adv-x="1495" d="M23 0l178 1268q10 76 49 110q40 35 112 35h148q30 0 56 -8q24 -7 42 -32q23 -31 29 -40q12 -19 29 -57l237 -461q54 -114 86 -244h17q-11 125 4 240l86 602h407l-178 -1268q-10 -76 -49 -110q-40 -35 -113 -35h-147q-62 0 -93 31t-65 106l-242 486q-38 74 -71 233h-15 q5 -148 -12 -262l-88 -594h-407zM481 1546q-4 167 50 253q54 85 151 85q62 0 194 -45t134 -45q49 -12 69 10q21 22 27 78l174 -16q8 -170 -45 -254t-150 -84q-62 0 -192 44q-134 45 -143 46q-50 11 -68 -11q-20 -23 -27 -77z" />
<glyph unicode="&#xd2;" d="M84 723q29 212 82 355q51 137 140 219q89 81 204 113q116 32 287 32q140 0 247 -22q105 -22 183 -73q80 -53 118 -139q37 -84 52 -214q14 -123 -15 -304q-28 -214 -82 -358q-52 -139 -143 -219q-92 -82 -207 -111q-121 -31 -291 -31q-250 0 -386 67q-134 66 -182 230 q-48 163 -7 455zM432 1692l164 266l481 -307l-137 -176zM536 374q24 -73 134 -73q114 0 159 79q46 81 86 343q35 245 12 315q-24 74 -134 74q-111 0 -157 -79q-47 -80 -87 -343q-37 -243 -13 -316z" />
<glyph unicode="&#xd3;" d="M84 723q29 212 82 355q51 137 140 219q89 81 204 113q116 32 287 32q140 0 247 -22q105 -22 183 -73q80 -53 118 -139q37 -84 52 -214q14 -123 -15 -304q-28 -214 -82 -358q-52 -139 -143 -219q-92 -82 -207 -111q-121 -31 -291 -31q-250 0 -386 67q-134 66 -182 230 q-48 163 -7 455zM536 374q24 -73 134 -73q114 0 159 79q46 81 86 343q35 245 12 315q-24 74 -134 74q-111 0 -157 -79q-47 -80 -87 -343q-37 -243 -13 -316zM664 1651l505 319l136 -299l-545 -196z" />
<glyph unicode="&#xd4;" d="M84 723q29 212 82 355q51 137 140 219q89 81 204 113q116 32 287 32q140 0 247 -22q105 -22 183 -73q80 -53 118 -139q37 -84 52 -214q14 -123 -15 -304q-28 -214 -82 -358q-52 -139 -143 -219q-92 -82 -207 -111q-121 -31 -291 -31q-250 0 -386 67q-134 66 -182 230 q-48 163 -7 455zM420 1620l307 278h289l268 -286l-113 -139l-301 192h-16l-336 -192zM536 374q24 -73 134 -73q114 0 159 79q46 81 86 343q35 245 12 315q-24 74 -134 74q-111 0 -157 -79q-47 -80 -87 -343q-37 -243 -13 -316z" />
<glyph unicode="&#xd5;" d="M84 723q29 212 82 355q51 137 140 219q89 81 204 113q116 32 287 32q140 0 247 -22q105 -22 183 -73q80 -53 118 -139q37 -84 52 -214q14 -123 -15 -304q-28 -214 -82 -358q-52 -139 -143 -219q-92 -82 -207 -111q-121 -31 -291 -31q-250 0 -386 67q-134 66 -182 230 q-48 163 -7 455zM465 1546q-4 167 50 253q54 85 151 85q61 0 193 -45t134 -45q49 -12 70 10t27 78l174 -16q8 -170 -45 -254t-150 -84q-62 0 -192 44q-133 45 -144 46q-49 10 -67 -11q-20 -23 -27 -77zM536 374q24 -73 134 -73q114 0 159 79q46 81 86 343q35 245 12 315 q-24 74 -134 74q-111 0 -157 -79q-47 -80 -87 -343q-37 -243 -13 -316z" />
<glyph unicode="&#xd6;" d="M84 723q29 212 82 355q51 137 140 219q89 81 204 113q116 32 287 32q140 0 247 -22q105 -22 183 -73q80 -53 118 -139q37 -84 52 -214q14 -123 -15 -304q-28 -214 -82 -358q-52 -139 -143 -219q-92 -82 -207 -111q-121 -31 -291 -31q-250 0 -386 67q-134 66 -182 230 q-48 163 -7 455zM520 1630l23 150q7 71 80 71h157q74 0 62 -67l-23 -156q-7 -65 -71 -65h-166q-74 0 -62 67zM536 374q24 -73 134 -73q114 0 159 79q46 81 86 343q35 245 12 315q-24 74 -134 74q-111 0 -157 -79q-47 -80 -87 -343q-37 -243 -13 -316zM907 1630l23 152 q10 69 74 69h163q74 0 62 -67l-23 -154q-5 -38 -20 -52q-16 -15 -51 -15h-166q-74 0 -62 67z" />
<glyph unicode="&#xd7;" horiz-adv-x="1077" d="M20 389l277 217l-211 211l225 236l248 -242l334 262l158 -254l-275 -217l223 -217l-227 -256l-264 264l-330 -260z" />
<glyph unicode="&#xd8;" d="M63 -70l111 181q-153 162 -90 612q29 212 82 355q51 137 140 219q89 81 204 113q116 32 287 32q111 0 174 -10l137 229l307 -156l-127 -213q151 -166 94 -602q-28 -214 -82 -358q-52 -139 -143 -219q-92 -82 -207 -111q-121 -31 -291 -31q-82 0 -161 9l-127 -207z M536 374q24 -73 134 -73q114 0 159 79q46 81 86 343q35 245 12 315q-24 74 -134 74q-111 0 -157 -79q-47 -80 -87 -343q-37 -243 -13 -316z" />
<glyph unicode="&#xd9;" d="M92 592l119 821h442l-118 -838q-27 -160 -1 -218q25 -56 136 -56q113 0 153 56q42 59 70 235l117 821h444l-121 -838q-46 -340 -192 -472t-482 -132q-329 0 -470 146q-141 145 -97 475zM424 1692l164 266l481 -307l-137 -176z" />
<glyph unicode="&#xda;" d="M92 592l119 821h442l-118 -838q-27 -160 -1 -218q25 -56 136 -56q113 0 153 56q42 59 70 235l117 821h444l-121 -838q-46 -340 -192 -472t-482 -132q-329 0 -470 146q-141 145 -97 475zM655 1651l506 319l135 -299l-544 -196z" />
<glyph unicode="&#xdb;" d="M92 592l119 821h442l-118 -838q-27 -160 -1 -218q25 -56 136 -56q113 0 153 56q42 59 70 235l117 821h444l-121 -838q-46 -340 -192 -472t-482 -132q-329 0 -470 146q-141 145 -97 475zM412 1620l307 278h289l268 -286l-113 -139l-301 192h-16l-336 -192z" />
<glyph unicode="&#xdc;" d="M92 592l119 821h442l-118 -838q-27 -160 -1 -218q25 -56 136 -56q113 0 153 56q42 59 70 235l117 821h444l-121 -838q-46 -340 -192 -472t-482 -132q-329 0 -470 146q-141 145 -97 475zM512 1630l23 150q7 71 79 71h158q74 0 62 -67l-23 -156q-7 -65 -72 -65h-166 q-73 0 -61 67zM899 1630l23 152q10 69 73 69h164q74 0 62 -67l-23 -154q-5 -38 -20 -52q-17 -15 -52 -15h-165q-74 0 -62 67z" />
<glyph unicode="&#xdd;" horiz-adv-x="1329" d="M94 1413h443l108 -452q18 -84 14 -207h31q10 95 62 202l239 457h473l-604 -985l-59 -428h-447l64 453zM596 1651l506 319l135 -299l-545 -196z" />
<glyph unicode="&#xde;" horiz-adv-x="1302" d="M25 0l198 1413h445l-33 -229h117q327 0 447 -108t83 -390q-37 -268 -156 -364q-120 -97 -399 -97q-96 0 -225 15l-33 -240h-444zM545 539h143q80 0 109 30q28 30 45 150q12 89 -6 120t-91 31h-153z" />
<glyph unicode="&#xdf;" horiz-adv-x="1497" d="M-182 -360l63 256h101q61 0 88 24q25 22 36 90l107 756h-170l31 248l174 10l20 143q27 199 155 276t423 77q224 0 343 -40q120 -40 154 -115q35 -77 13 -206q-22 -130 -111 -229q-20 -24 -41 -45q-31 -31 -39 -41q-9 -11 -23 -34q-13 -20 -14 -36q-2 -19 10 -39 q15 -26 25 -36q2 -2 54 -52l94 -88q154 -158 127 -307q-24 -145 -121 -210t-330 -65q-112 0 -354 23l37 262h225q61 0 89 11q30 12 30 49q0 23 -24 53q-29 36 -101 104l-53 41q-72 66 -98 119q-27 56 -17 135q6 56 34 98q34 50 109 134q95 103 101 157q6 46 -14 58 q-19 12 -81 12q-102 0 -140 -27t-48 -106l-162 -1166q-24 -153 -113 -239t-278 -86q-91 0 -311 31z" />
<glyph unicode="&#xe0;" horiz-adv-x="1255" d="M39 231q-12 130 12 310q17 112 49 205q30 86 79 143q47 54 97 89q48 33 128 50q80 16 147 21q60 4 174 4q98 0 272 -22q164 -21 226 -44l-140 -987h-331l-4 199q-137 -206 -400 -224q-143 -10 -220 59q-77 70 -89 197zM309 1307l164 266l481 -307l-137 -176zM477 326 q11 -25 55 -21q86 6 191 158l43 309h-94q-76 0 -119 -42q-43 -41 -64 -177q-28 -194 -12 -227z" />
<glyph unicode="&#xe1;" horiz-adv-x="1255" d="M39 231q-12 130 12 310q17 112 49 205q30 86 79 143q47 54 97 89q48 33 128 50q80 16 147 21q60 4 174 4q98 0 272 -22q164 -21 226 -44l-140 -987h-331l-4 199q-137 -206 -400 -224q-143 -10 -220 59q-77 70 -89 197zM477 326q11 -25 55 -21q86 6 191 158l43 309h-94 q-76 0 -119 -42q-43 -41 -64 -177q-28 -194 -12 -227zM541 1266l506 319l135 -299l-545 -196z" />
<glyph unicode="&#xe2;" horiz-adv-x="1255" d="M39 231q-12 130 12 310q17 112 49 205q30 86 79 143q47 54 97 89q48 33 128 50q80 16 147 21q60 4 174 4q98 0 272 -22q164 -21 226 -44l-140 -987h-331l-4 199q-137 -206 -400 -224q-143 -10 -220 59q-77 70 -89 197zM297 1235l307 278h289l268 -286l-112 -140l-301 193 h-17l-336 -193zM477 326q11 -25 55 -21q86 6 191 158l43 309h-94q-76 0 -119 -42q-43 -41 -64 -177q-28 -194 -12 -227z" />
<glyph unicode="&#xe3;" horiz-adv-x="1255" d="M39 231q-12 130 12 310q17 112 49 205q30 86 79 143q47 54 97 89q48 33 128 50q80 16 147 21q60 4 174 4q98 0 272 -22q164 -21 226 -44l-140 -987h-331l-4 199q-137 -206 -400 -224q-143 -10 -220 59q-77 70 -89 197zM342 1161q-4 167 50 253q54 85 151 85q61 0 193 -45 t134 -45q49 -12 70 10q21 23 27 78l174 -16q8 -170 -45 -254q-52 -84 -150 -84q-62 0 -192 44q-133 45 -144 46q-49 10 -67 -11q-20 -23 -27 -77zM477 326q11 -25 55 -21q86 6 191 158l43 309h-94q-76 0 -119 -42q-43 -41 -64 -177q-28 -194 -12 -227z" />
<glyph unicode="&#xe4;" horiz-adv-x="1255" d="M39 231q-12 130 12 310q17 112 49 205q30 86 79 143q47 54 97 89q48 33 128 50q80 16 147 21q60 4 174 4q98 0 272 -22q164 -21 226 -44l-140 -987h-331l-4 199q-137 -206 -400 -224q-143 -10 -220 59q-77 70 -89 197zM397 1245l23 150q7 71 80 71h157q74 0 62 -67 l-23 -156q-7 -65 -71 -65h-166q-74 0 -62 67zM477 326q11 -25 55 -21q86 6 191 158l43 309h-94q-76 0 -119 -42q-43 -41 -64 -177q-28 -194 -12 -227zM784 1245l23 152q11 69 74 69h163q74 0 62 -67l-23 -154q-5 -38 -20 -52q-17 -15 -51 -15h-166q-74 0 -62 67z" />
<glyph unicode="&#xe5;" horiz-adv-x="1255" d="M39 231q-12 130 12 310q17 112 49 205q30 86 79 143q47 54 97 89q48 33 128 50q80 16 147 21q60 4 174 4q98 0 272 -22q164 -21 226 -44l-140 -987h-331l-4 199q-137 -206 -400 -224q-143 -10 -220 59q-77 70 -89 197zM477 326q11 -25 55 -21q86 6 191 158l43 309h-94 q-76 0 -119 -42q-43 -41 -64 -177q-28 -194 -12 -227zM496 1348q12 97 86 164q75 67 186 67q114 0 190 -78q77 -78 62 -186q-12 -98 -86 -165q-75 -67 -189 -67q-117 0 -190 78q-74 79 -59 187zM666 1337q-4 -45 18 -72q23 -28 66 -28q42 0 70 28q29 29 30 72q2 39 -23 64 q-24 24 -65 24q-39 0 -66 -24q-25 -22 -30 -64z" />
<glyph unicode="&#xe6;" horiz-adv-x="1878" d="M53 541q17 121 43 204q27 85 68 143q37 53 82 89q40 32 108 49q74 18 124 22q63 5 149 5q233 2 438 -31q112 31 278 31q302 0 417 -95q113 -94 85 -286q-18 -134 -116 -186q-97 -51 -314 -68l-262 -21q1 -56 35 -74q33 -18 119 -18q215 0 411 23l27 -262 q-193 -91 -477 -91q-422 0 -516 240q-131 -222 -404 -240q-209 -15 -272 133t-23 433zM479 326q11 -25 56 -21q38 1 92 49q51 45 96 115l4 51q16 149 57 252h-114q-83 0 -120 -40t-58 -179q-29 -196 -13 -227zM1180 608l120 13q74 6 102 23q29 18 34 71q4 33 -15 49 q-16 14 -73 12q-81 -1 -115 -35q-32 -32 -53 -133z" />
<glyph unicode="&#xe7;" horiz-adv-x="1097" d="M43 530q39 280 167 402q127 121 411 121q282 0 469 -80l-58 -262h-360q-89 0 -127 -41q-36 -39 -53 -152q-18 -126 7 -164q25 -39 119 -39q216 0 345 15l30 -273q-171 -82 -450 -82q-280 0 -411 133q-130 131 -89 422zM168 -524l43 157q182 0 203 95q0 8 1 11q1 4 -4 9 q-4 4 -13 6q-8 2 -22 3q-5 1 -18 1.5t-19 0.5q-14 1 -52 1l37 148q166 30 269 0q104 -30 83 -150q-29 -164 -170 -236q-143 -73 -338 -46z" />
<glyph unicode="&#xe8;" horiz-adv-x="1208" d="M43 520q16 161 63 268q45 104 131 163q82 56 184 79q104 23 247 23q307 0 422 -95q114 -95 86 -286q-18 -133 -118 -186q-97 -51 -319 -68l-256 -19q1 -56 34 -75t112 -19q219 0 420 23l28 -262q-197 -91 -485 -91q-171 0 -287 35q-114 35 -176 107t-81 169 q-20 99 -5 234zM287 1307l164 266l481 -307l-137 -176zM510 608l117 13q75 6 103 23q30 18 36 71q4 34 -15 49q-18 14 -79 12q-75 -1 -109 -35q-32 -32 -53 -133z" />
<glyph unicode="&#xe9;" horiz-adv-x="1208" d="M43 520q16 161 63 268q45 104 131 163q82 56 184 79q104 23 247 23q307 0 422 -95q114 -95 86 -286q-18 -133 -118 -186q-97 -51 -319 -68l-256 -19q1 -56 34 -75t112 -19q219 0 420 23l28 -262q-197 -91 -485 -91q-171 0 -287 35q-114 35 -176 107t-81 169 q-20 99 -5 234zM510 608l117 13q75 6 103 23q30 18 36 71q4 34 -15 49q-18 14 -79 12q-75 -1 -109 -35q-32 -32 -53 -133zM518 1266l506 319l135 -299l-545 -196z" />
<glyph unicode="&#xea;" horiz-adv-x="1208" d="M43 520q16 161 63 268q45 104 131 163q82 56 184 79q104 23 247 23q307 0 422 -95q114 -95 86 -286q-18 -133 -118 -186q-97 -51 -319 -68l-256 -19q1 -56 34 -75t112 -19q219 0 420 23l28 -262q-197 -91 -485 -91q-171 0 -287 35q-114 35 -176 107t-81 169 q-20 99 -5 234zM274 1235l308 278h288l269 -286l-113 -140l-301 193h-16l-336 -193zM510 608l117 13q75 6 103 23q30 18 36 71q4 34 -15 49q-18 14 -79 12q-75 -1 -109 -35q-32 -32 -53 -133z" />
<glyph unicode="&#xeb;" horiz-adv-x="1208" d="M43 520q16 161 63 268q45 104 131 163q82 56 184 79q104 23 247 23q307 0 422 -95q114 -95 86 -286q-18 -133 -118 -186q-97 -51 -319 -68l-256 -19q1 -56 34 -75t112 -19q219 0 420 23l28 -262q-197 -91 -485 -91q-171 0 -287 35q-114 35 -176 107t-81 169 q-20 99 -5 234zM375 1245l22 150q7 71 80 71h158q73 0 61 -67l-22 -156q-7 -65 -72 -65h-166q-73 0 -61 67zM510 608l117 13q75 6 103 23q30 18 36 71q4 34 -15 49q-18 14 -79 12q-75 -1 -109 -35q-32 -32 -53 -133zM762 1245l22 152q10 69 74 69h164q73 0 61 -67l-22 -154 q-4 -37 -21 -52q-16 -15 -51 -15h-166q-73 0 -61 67z" />
<glyph unicode="&#xec;" horiz-adv-x="626" d="M-43 1307l164 266l481 -307l-137 -176zM14 0l144 1024h432l-144 -1024h-432z" />
<glyph unicode="&#xed;" horiz-adv-x="626" d="M14 0l144 1024h432l-144 -1024h-432zM188 1266l506 319l135 -299l-544 -196z" />
<glyph unicode="&#xee;" horiz-adv-x="626" d="M-55 1235l307 278h289l268 -286l-113 -140l-301 193h-16l-336 -193zM14 0l144 1024h432l-144 -1024h-432z" />
<glyph unicode="&#xef;" horiz-adv-x="626" d="M14 0l144 1024h432l-144 -1024h-432zM45 1245l23 150q7 71 79 71h158q74 0 62 -67l-23 -156q-7 -65 -72 -65h-166q-73 0 -61 67zM432 1245l23 152q11 69 73 69h164q74 0 62 -67l-23 -154q-5 -38 -20 -52q-17 -15 -52 -15h-165q-74 0 -62 67z" />
<glyph unicode="&#xf0;" horiz-adv-x="1234" d="M37 455q33 251 153 361q123 112 336 112q140 0 228 -51q4 173 -80 238t-316 48l48 267q296 18 477 -62l180 160l211 -232l-162 -139q108 -205 61 -577q-40 -335 -191 -472t-447 -137q-265 0 -398 120t-100 364zM481 305q15 -39 84 -39q74 0 104 68q29 66 58 276l4 31 q-42 16 -86 16q-76 0 -107 -46q-34 -50 -51 -160q-21 -107 -6 -146z" />
<glyph unicode="&#xf1;" horiz-adv-x="1267" d="M6 0l141 1024h336l11 -180q97 97 217 153t231 56q133 0 210 -77t56 -218l-106 -758h-432l88 618q6 45 -5 60q-12 16 -51 12q-83 -7 -180 -82l-86 -608h-430zM326 1161q-4 167 50 253q54 85 150 85q62 0 194 -45t134 -45q49 -12 70 10q20 21 26 78l174 -16 q8 -170 -45 -254t-149 -84q-63 0 -193 44q-134 45 -143 46q-50 11 -68 -11q-19 -22 -26 -77z" />
<glyph unicode="&#xf2;" horiz-adv-x="1259" d="M43 526q41 293 179 410t448 117q313 0 439 -129t83 -430q-41 -290 -179 -404q-139 -115 -444 -115q-310 0 -440 128q-129 128 -86 423zM291 1307l164 266l481 -307l-137 -176zM488 309q18 -43 98 -43q77 0 107 48q31 50 55 212q23 146 6 191t-92 45q-82 0 -114 -50 t-56 -218q-21 -143 -4 -185z" />
<glyph unicode="&#xf3;" horiz-adv-x="1259" d="M43 526q41 293 179 410t448 117q313 0 439 -129t83 -430q-41 -290 -179 -404q-139 -115 -444 -115q-310 0 -440 128q-129 128 -86 423zM488 309q18 -43 98 -43q77 0 107 48q31 50 55 212q23 146 6 191t-92 45q-82 0 -114 -50t-56 -218q-21 -143 -4 -185zM522 1266 l506 319l135 -299l-545 -196z" />
<glyph unicode="&#xf4;" horiz-adv-x="1259" d="M43 526q41 293 179 410t448 117q313 0 439 -129t83 -430q-41 -290 -179 -404q-139 -115 -444 -115q-310 0 -440 128q-129 128 -86 423zM279 1235l307 278h288l269 -286l-113 -140l-301 193h-16l-336 -193zM488 309q18 -43 98 -43q77 0 107 48q31 50 55 212q23 146 6 191 t-92 45q-82 0 -114 -50t-56 -218q-21 -143 -4 -185z" />
<glyph unicode="&#xf5;" horiz-adv-x="1259" d="M43 526q41 293 179 410t448 117q313 0 439 -129t83 -430q-41 -290 -179 -404q-139 -115 -444 -115q-310 0 -440 128q-129 128 -86 423zM324 1161q-4 167 50 253q54 85 150 85q62 0 194 -45t134 -45q49 -12 70 10q20 21 26 78l174 -16q8 -170 -45 -254t-149 -84 q-63 0 -193 44q-134 45 -143 46q-50 11 -68 -11q-19 -22 -26 -77zM488 309q18 -43 98 -43q77 0 107 48q31 50 55 212q23 146 6 191q-16 45 -93 45q-81 0 -113 -50t-56 -218q-21 -143 -4 -185z" />
<glyph unicode="&#xf6;" horiz-adv-x="1259" d="M43 526q41 293 179 410t448 117q313 0 439 -129t83 -430q-41 -290 -179 -404q-139 -115 -444 -115q-310 0 -440 128q-129 128 -86 423zM379 1245l22 150q7 71 80 71h158q73 0 61 -67l-22 -156q-7 -65 -72 -65h-166q-73 0 -61 67zM488 309q18 -43 98 -43q77 0 107 48 q31 50 55 212q23 146 6 191t-92 45q-82 0 -114 -50t-56 -218q-21 -143 -4 -185zM766 1245l22 152q10 69 74 69h164q73 0 61 -67l-22 -154q-4 -37 -21 -52q-16 -15 -51 -15h-166q-73 0 -61 67z" />
<glyph unicode="&#xf7;" horiz-adv-x="1081" d="M29 440l47 316h977l-47 -316h-977zM254 168l4 29q12 95 56 130q42 33 145 33h82q99 0 134 -36q36 -38 21 -134l-4 -28q-12 -97 -51 -132q-38 -34 -137 -34h-94q-102 0 -137 38q-34 37 -19 134zM375 999l4 29q15 97 57 130q43 34 144 34h84q99 0 133 -37q35 -38 20 -131 l-2 -29q-15 -100 -54 -133q-41 -35 -136 -35h-95q-100 0 -135 38t-20 134z" />
<glyph unicode="&#xf8;" horiz-adv-x="1261" d="M43 526q41 293 179 410t448 117q53 0 114 -4l127 202l267 -147l-97 -156q156 -124 111 -454q-41 -290 -179 -404q-139 -115 -444 -115q-46 0 -82 2l-120 -194l-267 145l82 131q-186 124 -139 467zM488 309q18 -43 98 -43q77 0 107 48q31 50 55 212q23 146 6 191t-92 45 q-82 0 -114 -50t-56 -218q-21 -143 -4 -185z" />
<glyph unicode="&#xf9;" horiz-adv-x="1255" d="M37 266l104 758h432l-92 -637q-7 -55 47 -55q82 0 183 76l88 616h426l-142 -1024h-335l-9 174q-209 -203 -417 -203q-161 0 -233 77q-73 77 -52 218zM285 1329l164 266l481 -307l-137 -176z" />
<glyph unicode="&#xfa;" horiz-adv-x="1255" d="M37 266l104 758h432l-92 -637q-7 -55 47 -55q82 0 183 76l88 616h426l-142 -1024h-335l-9 174q-209 -203 -417 -203q-161 0 -233 77q-73 77 -52 218zM516 1288l506 320l135 -299l-545 -197z" />
<glyph unicode="&#xfb;" horiz-adv-x="1255" d="M37 266l104 758h432l-92 -637q-7 -55 47 -55q82 0 183 76l88 616h426l-142 -1024h-335l-9 174q-209 -203 -417 -203q-161 0 -233 77q-73 77 -52 218zM272 1257l308 279h288l269 -287l-113 -139l-301 193h-16l-336 -193z" />
<glyph unicode="&#xfc;" horiz-adv-x="1255" d="M37 266l104 758h432l-92 -637q-7 -55 47 -55q82 0 183 76l88 616h426l-142 -1024h-335l-9 174q-209 -203 -417 -203q-161 0 -233 77q-73 77 -52 218zM373 1268l22 149q7 72 80 72h158q73 0 61 -68l-22 -155q-8 -66 -72 -66h-166q-73 0 -61 68zM760 1268l22 151 q11 70 74 70h164q73 0 61 -68l-22 -153q-5 -38 -21 -53t-51 -15h-166q-73 0 -61 68z" />
<glyph unicode="&#xfd;" horiz-adv-x="1273" d="M61 1024h471l17 -733q0 -33 33 -33h49q128 284 196 766h461q-35 -256 -155 -567q-123 -319 -201 -441q-297 -465 -797 -438l-26 232q6 2 80 27q70 23 82 28q30 12 69 29q42 18 74 45q35 28 63 61h-162q-48 0 -85 31q-36 30 -42 78zM506 1266l506 319l135 -299l-545 -196z " />
<glyph unicode="&#xfe;" horiz-adv-x="1261" d="M-45 -369l252 1803h430l-29 -213q-22 -159 -55 -293l6 -15q142 136 320 136q199 0 272 -139q72 -138 39 -427q-30 -264 -147 -389q-116 -123 -287 -123q-189 0 -324 27q-8 -120 -18 -172l-29 -195h-430zM471 231h98q92 0 127 44q36 46 54 196q21 126 13 187t-65 61 q-102 0 -184 -150z" />
<glyph unicode="&#xff;" horiz-adv-x="1273" d="M61 1024h471l17 -733q0 -33 33 -33h49q128 284 196 766h461q-35 -256 -155 -567q-123 -319 -201 -441q-297 -465 -797 -438l-26 232q6 2 80 27q70 23 82 28q30 12 69 29q42 18 74 45q35 28 63 61h-162q-48 0 -85 31q-36 30 -42 78zM362 1245l23 150q7 71 80 71h158 q73 0 61 -67l-22 -156q-7 -65 -72 -65h-166q-74 0 -62 67zM750 1245l22 152q10 69 74 69h164q73 0 61 -67l-22 -154q-4 -37 -21 -52q-16 -15 -51 -15h-166q-73 0 -61 67z" />
<glyph unicode="&#x152;" horiz-adv-x="1998" d="M84 723q29 211 81 354q49 137 138 219q89 83 205 114q119 32 297 32q205 0 362 -53q67 32 148 32q520 0 723 -28l-51 -312h-478q-35 0 -66 -24t-36 -58l-21 -139h498l-35 -274h-501l-27 -189q-10 -65 57 -65h500l-8 -316q-184 -24 -705 -24q-103 0 -176 45 q-151 -66 -342 -66q-253 0 -383 66q-132 67 -176 228q-45 162 -4 458zM531 376q18 -75 112 -75q154 0 225 31l109 768q-51 12 -170 12q-115 0 -169 -86q-55 -87 -89 -336q-35 -243 -18 -314z" />
<glyph unicode="&#x153;" horiz-adv-x="1861" d="M43 526q41 293 176 410t434 117q192 0 322 -82q146 82 354 82q302 0 417 -95q113 -94 85 -286q-18 -133 -117 -185q-99 -53 -311 -69l-250 -19q1 -57 32 -75q32 -19 107 -19q216 0 412 23l27 -262q-193 -91 -478 -91q-209 0 -346 93q-149 -93 -354 -93q-303 0 -428 128 t-82 423zM483 309q15 -43 88 -43q68 0 95 48q26 47 49 212q23 146 9 191t-81 45q-74 0 -102 -49q-30 -52 -52 -219q-21 -141 -6 -185zM1182 610l104 11q74 6 102 23t33 71q4 34 -14 49q-16 14 -74 12q-71 -1 -101 -35q-29 -32 -50 -131z" />
<glyph unicode="&#x178;" horiz-adv-x="1329" d="M94 1413h443l108 -452q18 -84 14 -207h31q10 95 62 202l239 457h473l-604 -985l-59 -428h-447l64 453zM453 1630l22 150q7 71 80 71h158q73 0 61 -67l-22 -156q-7 -65 -72 -65h-166q-73 0 -61 67zM840 1630l22 152q10 69 74 69h164q73 0 61 -67l-22 -154q-4 -37 -21 -52 q-16 -15 -51 -15h-166q-73 0 -61 67z" />
<glyph unicode="&#x2c6;" horiz-adv-x="976" d="M147 1241l308 279h288l269 -287l-113 -139l-301 192h-16l-336 -192z" />
<glyph unicode="&#x2dc;" horiz-adv-x="942" d="M182 1145q-4 167 50 253q54 85 151 85q62 0 194 -45t134 -45q49 -12 69 10q21 23 27 78l174 -17q8 -170 -45 -254q-52 -84 -150 -84q-62 0 -192 44q-138 46 -143 47q-49 10 -68 -12q-20 -23 -27 -77z" />
<glyph unicode="&#x2000;" horiz-adv-x="985" />
<glyph unicode="&#x2001;" horiz-adv-x="1970" />
<glyph unicode="&#x2002;" horiz-adv-x="985" />
<glyph unicode="&#x2003;" horiz-adv-x="1970" />
<glyph unicode="&#x2004;" horiz-adv-x="656" />
<glyph unicode="&#x2005;" horiz-adv-x="492" />
<glyph unicode="&#x2006;" horiz-adv-x="328" />
<glyph unicode="&#x2007;" horiz-adv-x="328" />
<glyph unicode="&#x2008;" horiz-adv-x="246" />
<glyph unicode="&#x2009;" horiz-adv-x="394" />
<glyph unicode="&#x200a;" horiz-adv-x="109" />
<glyph unicode="&#x2010;" horiz-adv-x="782" d="M66 401l36 250h596l-36 -250h-596z" />
<glyph unicode="&#x2011;" horiz-adv-x="782" d="M66 401l36 250h596l-36 -250h-596z" />
<glyph unicode="&#x2012;" horiz-adv-x="782" d="M66 401l36 250h596l-36 -250h-596z" />
<glyph unicode="&#x2013;" horiz-adv-x="1089" d="M66 401l36 250h904l-37 -250h-903z" />
<glyph unicode="&#x2014;" horiz-adv-x="1683" d="M66 401l36 250h1497l-36 -250h-1497z" />
<glyph unicode="&#x2018;" horiz-adv-x="454" d="M117 950l16 119q15 100 60 211q46 112 100 180l151 -59q-19 -44 -77 -256q57 1 78 -27q21 -29 14 -92l-13 -86q-11 -74 -44 -102q-35 -29 -103 -29h-63q-73 0 -100 33q-26 32 -19 108z" />
<glyph unicode="&#x2019;" horiz-adv-x="452" d="M139 1217l13 86q11 74 44 102q35 29 103 29h63q73 0 100 -33q27 -32 19 -109l-16 -118q-15 -104 -59 -211q-45 -112 -101 -181l-151 60q19 44 77 256q-58 -2 -78 26q-22 29 -14 93z" />
<glyph unicode="&#x201a;" horiz-adv-x="475" d="M2 96l12 86q11 76 44 103q34 28 104 28h63q74 0 100 -32q27 -32 19 -109l-16 -119q-15 -100 -60 -211q-46 -112 -100 -180l-152 59q22 51 78 256q-58 -2 -79 27q-21 28 -13 92z" />
<glyph unicode="&#x201c;" horiz-adv-x="862" d="M117 950l16 119q15 100 60 211q46 112 100 180l151 -59q-19 -44 -77 -256q57 1 78 -27q21 -29 14 -92l-13 -86q-11 -74 -44 -102q-35 -29 -103 -29h-63q-73 0 -100 33q-26 32 -19 108zM524 950l17 119q15 104 59 211q46 112 100 180l152 -59q-22 -51 -78 -256 q58 2 79 -27q21 -28 13 -92l-12 -86q-11 -74 -44 -102q-35 -29 -103 -29h-64q-72 0 -99 33t-20 108z" />
<glyph unicode="&#x201d;" horiz-adv-x="860" d="M139 1217l13 86q11 74 44 102q35 29 103 29h63q73 0 100 -33q27 -32 19 -109l-16 -118q-15 -104 -59 -211q-45 -112 -101 -181l-151 60q19 44 77 256q-58 -2 -78 26q-22 29 -14 93zM547 1217l12 86q11 74 44 102q35 29 104 29h63q72 0 99 -33t20 -109l-17 -118 q-15 -104 -59 -211q-46 -114 -100 -181l-152 60q22 51 78 256q-59 -2 -79 26q-21 28 -13 93z" />
<glyph unicode="&#x201e;" horiz-adv-x="882" d="M2 96l12 86q11 76 44 103q34 28 104 28h63q74 0 100 -32q27 -32 19 -109l-16 -119q-15 -100 -60 -211q-46 -112 -100 -180l-152 59q22 51 78 256q-58 -2 -79 27q-21 28 -13 92zM410 96l12 86q11 76 44 103q34 28 103 28h64q73 0 99 -32q27 -33 20 -109l-17 -119 q-15 -104 -59 -211q-44 -110 -101 -180l-151 59q22 51 78 256q-58 -2 -79 27q-21 28 -13 92z" />
<glyph unicode="&#x2022;" horiz-adv-x="776" d="M104 547l7 35q21 143 77 191q58 50 205 50h49q136 0 185 -59t32 -199l-6 -35q-23 -152 -78 -204q-57 -54 -194 -54h-55q-142 0 -192 62q-51 63 -30 213z" />
<glyph unicode="&#x2026;" horiz-adv-x="1886" d="M-25 156l11 84q21 139 166 139h81q74 0 113 -40q39 -41 29 -116l-13 -84q-10 -73 -48 -106t-115 -33h-82q-160 0 -142 156zM657 156l11 84q21 139 166 139h81q74 0 113 -40q39 -41 29 -116l-13 -84q-10 -73 -48 -106t-115 -33h-82q-160 0 -142 156zM1339 156l11 84 q21 139 166 139h81q74 0 113 -40q39 -41 29 -116l-13 -84q-10 -73 -48 -106t-115 -33h-82q-160 0 -142 156z" />
<glyph unicode="&#x202f;" horiz-adv-x="394" />
<glyph unicode="&#x2039;" horiz-adv-x="655" d="M37 465l6 92l332 406l231 -144l-180 -305l127 -315l-225 -148z" />
<glyph unicode="&#x203a;" horiz-adv-x="653" d="M23 195l180 305l-127 317l225 146l291 -412l-6 -92l-332 -408z" />
<glyph unicode="&#x205f;" horiz-adv-x="492" />
<glyph unicode="&#x20ac;" horiz-adv-x="1314" d="M37 453l31 225h972l-51 -225h-348q18 -109 123 -127q78 -10 193 -3q121 8 217 25l18 -309q-177 -64 -412 -64q-289 0 -436 117q-148 118 -166 361h-141zM80 739l33 226h127q72 248 233 360q163 113 465 113q213 0 379 -58l-51 -301q-45 4 -161 6t-202 -6 q-72 -10 -117 -35q-42 -23 -69 -79h399l-53 -226h-983z" />
<glyph unicode="&#x2122;" horiz-adv-x="2037" d="M176 1206l31 219h729l-31 -219h-217l-80 -559h-293l80 559h-219zM879 647l120 686q10 50 32 72q20 20 69 20h256q46 0 72 -26q29 -29 30 -72l4 -235q0 -63 -10 -136h14q0 3 2 11t4.5 22t5.5 29q9 52 15 74l61 251q21 82 113 82h262q50 0 75 -29q25 -30 21 -79l-71 -670 h-264l55 559h-14l-99 -342q-23 -80 -110 -80h-148q-47 0 -76 26q-28 25 -30 71l-6 325h-19l-98 -559h-266z" />
<glyph unicode="&#x25fc;" horiz-adv-x="1024" d="M0 0v1024h1024v-1024h-1024z" />
<glyph unicode="&#xfb01;" horiz-adv-x="1478" d="M-193 -360l66 256h100q61 0 88 24q26 23 37 90l113 756h-166l33 248l172 10l20 133q22 155 114 241q91 85 275 85q196 0 334 -31l-63 -256h-121q-60 0 -88 -25q-26 -23 -37 -90l-8 -57h766l-144 -1024h-430l107 766h-338l-125 -832q-49 -325 -389 -325q-96 0 -316 31z M1049 1290l16 105q7 64 38 92q29 26 93 26h178q67 0 96 -35q31 -37 23 -100l-14 -104q-10 -65 -39 -92q-28 -27 -90 -27h-181q-65 0 -97 36q-31 35 -23 99z" />
<glyph unicode="&#xfb02;" horiz-adv-x="1552" d="M-184 -360l63 256h101q61 0 88 24q25 22 36 90l105 756h-168l31 248l174 10l18 133q45 326 389 326q581 0 844 -51l-139 -1067q-6 -43 5 -54q12 -12 54 -12h66l20 -279q-83 -49 -280 -49q-162 0 -245 80t-65 215l134 936h-244q-109 0 -125 -121l-8 -57h225l-37 -258h-223 l-117 -832q-45 -325 -387 -325q-95 0 -315 31z" />
</font>
</defs>
</svg>
