<?xml version="1.0" standalone="no"?>
<!DOCTYPE svg PUBLIC "-//W3C//DTD SVG 1.1//EN" "http://www.w3.org/Graphics/SVG/1.1/DTD/svg11.dtd" >
<svg xmlns="http://www.w3.org/2000/svg" xmlns:xlink="http://www.w3.org/1999/xlink" version="1.1">
<metadata></metadata>
<defs>
<font id="overpass_monolight" horiz-adv-x="1261" >
<font-face units-per-em="2048" ascent="1536" descent="-512" />
<missing-glyph horiz-adv-x="500" />
<glyph />
<glyph />
<glyph horiz-adv-x="682" />
<glyph unicode=" " />
<glyph unicode="!" d="M502 100q0 51 37.5 90t91.5 39t91.5 -39t37.5 -90t-37.5 -90t-91.5 -39t-91.5 39t-37.5 90zM561 1014v444h148v-444l-33 -619h-84z" />
<glyph unicode="&#x22;" d="M358 1434h179l-37 -547h-109zM721 1434h180l-37 -547h-108z" />
<glyph unicode="#" d="M45 418l25 129h245l56 364h-236l21 125h233l62 398h139l-60 -398h291l62 398h139l-61 -398h253l-20 -125h-252l-57 -364h239l-20 -129h-238l-63 -418h-139l63 418h-291l-63 -418h-140l64 418h-252zM455 547h290l58 364h-291z" />
<glyph unicode="$" d="M182 266l135 49q42 -96 127.5 -151t200.5 -55q134 0 209.5 66.5t75.5 193.5q0 213 -305 333q-68 27 -117 50t-107 61.5t-94.5 79.5t-61 101t-24.5 130q0 128 91.5 220.5t250.5 109.5v162h146v-164q116 -15 196 -75t105 -146l-133 -45q-26 61 -93 100t-163 39 q-118 0 -184 -53t-66 -146q0 -43 17.5 -80.5t44 -64.5t71 -54.5t83 -45.5t95.5 -41q64 -26 113.5 -51.5t105.5 -67t92.5 -88.5t61 -114.5t24.5 -145.5q0 -171 -101 -274.5t-269 -118.5v-181h-146v183q-140 18 -241.5 97t-139.5 187z" />
<glyph unicode="%" d="M20 1094q0 46 10 92t34 93t58.5 82.5t87.5 58t118 22.5q81 0 142.5 -30.5t96 -82t51.5 -110.5t17 -125q0 -60 -16.5 -118.5t-50.5 -111.5t-96 -86t-144 -33q-81 0 -142.5 31t-96.5 82.5t-52 111t-17 124.5zM68 -25l979 1483h137l-979 -1483h-137zM139 1094 q0 -111 48 -178.5t141 -67.5q91 0 139.5 70.5t48.5 175.5q0 112 -48.5 178.5t-139.5 66.5q-93 0 -141 -69t-48 -176zM627 340q0 58 17 116t51.5 111.5t96.5 87t142 33.5q81 0 142.5 -30.5t96 -82t51.5 -110.5t17 -125q0 -47 -9.5 -94t-33 -93.5t-57.5 -81.5t-87.5 -57 t-119.5 -22q-81 0 -142.5 31t-96 82.5t-51.5 110.5t-17 124zM745 340q0 -111 48 -178.5t141 -67.5q91 0 139.5 70.5t48.5 175.5q0 112 -48.5 179t-139.5 67q-93 0 -141 -69.5t-48 -176.5z" />
<glyph unicode="&#x26;" d="M31 360q0 64 20.5 122.5t50 101t79 85.5t91 71.5t101.5 64.5q-102 125 -140 200.5t-38 151.5q0 137 95 219t236 82q144 0 237 -85t93 -216q0 -62 -21.5 -116t-65 -100.5t-87.5 -81t-109 -75.5l312 -370q61 116 73 239h136q-15 -186 -115 -352l252 -301h-178l-158 186 q-92 -100 -211 -155.5t-254 -55.5q-180 0 -289.5 105.5t-109.5 279.5zM166 373q0 -120 82 -194.5t211 -74.5q93 0 183 51t163 138l-352 418q-68 -41 -111 -72t-88 -73.5t-66.5 -90t-21.5 -102.5zM330 1155q0 -52 31 -102.5t135 -175.5q111 67 168 128t57 142q0 82 -56.5 133 t-140.5 51q-89 0 -141.5 -48t-52.5 -128z" />
<glyph unicode="'" d="M541 1434h178l-37 -547h-109z" />
<glyph unicode="(" d="M426 582q0 156 34.5 295t96 246t131.5 188t154 147h137q-39 -31 -86 -80.5t-106.5 -134t-107 -179.5t-80 -223.5t-32.5 -258.5q0 -96 17 -189.5t43 -167t64 -145.5t72 -122t75.5 -99.5t66 -74t51.5 -50.5h-137q-82 68 -146 143t-123 177.5t-91.5 237t-32.5 290.5z" />
<glyph unicode=")" d="M283 1458h137q84 -66 154 -147t131.5 -188t96 -246t34.5 -295q0 -126 -22.5 -239.5t-59 -199.5t-89.5 -164.5t-106 -134.5t-117 -110h-137q27 26 51.5 50.5t66 74t75.5 99.5t72 122t64 145.5t43 167t17 189.5q0 130 -32.5 258.5t-79.5 223.5t-106.5 179.5t-106.5 134 t-86 80.5z" />
<glyph unicode="*" d="M162 631v139h237l170 -35l-114 131l-123 213l121 70l122 -213l56 -166l55 166l123 213l121 -70l-123 -213l-115 -131l170 35h238v-139h-238l-170 35l115 -131l123 -213l-121 -70l-123 213l-55 166l-58 -166l-122 -213l-121 70l123 213l116 131l-170 -35h-237z" />
<glyph unicode="+" d="M150 631v139h405v414h147v-414h410v-139h-410v-410h-147v410h-405z" />
<glyph unicode="," d="M494 92q0 57 38 94t93 37q60 0 100.5 -44.5t40.5 -127.5q0 -116 -56 -228.5t-130 -172.5l-80 20q53 62 90.5 144t38.5 147q-60 3 -97.5 38.5t-37.5 92.5z" />
<glyph unicode="-" d="M150 541v139h962v-139h-962z" />
<glyph unicode="." d="M502 100q0 51 37.5 90t91.5 39t91.5 -39t37.5 -90t-37.5 -90t-91.5 -39t-91.5 39t-37.5 90z" />
<glyph unicode="/" d="M158 -266l805 1724h139l-805 -1724h-139z" />
<glyph unicode="0" d="M139 717q0 68 6 135.5t22 142t40 140t63 126t88.5 103.5t119.5 68.5t153 25.5q91 0 166.5 -30t128 -84.5t91.5 -124.5t61.5 -155t33 -170.5t10.5 -176.5q0 -99 -12.5 -194t-47 -197t-87.5 -177.5t-142 -124.5t-202 -49q-109 0 -195 43.5t-140.5 114.5t-90.5 169t-51 200 t-15 215zM289 717q0 -97 9 -180t33 -165t61 -139.5t98.5 -93t140.5 -35.5q69 0 124.5 26.5t91 74.5t61 106t38 130.5t18 138t5.5 137.5q0 78 -6.5 148.5t-21 141.5t-40.5 127.5t-62 101t-89 69t-119 24.5q-69 0 -124.5 -26.5t-92 -75t-62 -106.5t-39 -130.5t-19 -137.5 t-5.5 -136zM502 715q0 51 37.5 90t91.5 39t91.5 -39t37.5 -90t-37.5 -90t-91.5 -39t-91.5 39t-37.5 90z" />
<glyph unicode="1" d="M205 0v137h356v1100l-315 -115v142l459 178v-1305h352v-137h-852z" />
<glyph unicode="2" d="M201 0q0 101 23 187.5t50.5 141.5t86.5 117t93 89t108 82q21 16 32 24q47 36 67.5 52t60.5 50t58.5 54.5t45.5 54.5t39.5 62.5t22 65.5t9.5 75q0 120 -70.5 197t-189.5 77q-125 0 -204 -62t-105 -169l-127 57q32 131 150.5 217t287.5 86q190 0 299 -109t109 -294 q0 -53 -11.5 -102.5t-29 -88.5t-48 -79t-58 -69t-70 -64t-73.5 -58t-78 -56q-11 -8 -17 -12q-55 -40 -88.5 -66.5t-80 -69t-73 -78t-46.5 -82t-22 -93.5h707v-137h-858z" />
<glyph unicode="3" d="M180 311l133 56q48 -133 122.5 -195.5t189.5 -62.5q132 0 218.5 72t86.5 208q0 134 -83.5 212.5t-236.5 78.5h-96v131h76q128 0 205 71t77 189q0 115 -71.5 184.5t-171.5 69.5q-57 0 -105 -20t-80.5 -54.5t-54 -70t-37.5 -76.5l-133 51q21 60 55.5 112t83.5 96 t117.5 69.5t147.5 25.5q172 0 285.5 -101.5t113.5 -264.5q0 -97 -49 -183t-133 -131q114 -45 177.5 -145t63.5 -240q0 -117 -62.5 -213.5t-167 -150.5t-226.5 -54q-94 0 -169 25.5t-127 73t-87.5 105t-61.5 132.5z" />
<glyph unicode="4" d="M133 387v74l698 973h91v-924h206v-123h-206v-387h-144v387h-645zM315 510h463v653z" />
<glyph unicode="5" d="M182 158l84 104q69 -76 146 -117t186 -41q142 0 236 102.5t94 246.5t-76.5 241t-204.5 97q-167 0 -287 -138l-120 37l116 744h648v-129h-533l-82 -500q112 121 289 121q174 0 287.5 -129t113.5 -332q0 -91 -33 -178t-92.5 -157t-151.5 -112.5t-202 -42.5 q-141 0 -252.5 55t-165.5 128z" />
<glyph unicode="6" d="M186 530q0 201 93 396t256.5 338t359.5 194v-112q-194 -59 -349 -231t-188 -357q103 131 314 131q114 0 208 -64t144.5 -164t50.5 -210q0 -200 -128.5 -338t-309.5 -138q-144 0 -247.5 74t-153.5 198t-50 283zM324 430q0 -138 89 -232t218 -94q136 0 221.5 93t85.5 233 q0 149 -83.5 242.5t-223.5 93.5q-134 0 -220.5 -95t-86.5 -241z" />
<glyph unicode="7" d="M221 1311v123h817v-95q-435 -522 -440 -1339h-143q2 180 21.5 335t64.5 320.5t128.5 330t204.5 325.5h-653z" />
<glyph unicode="8" d="M162 403q0 132 71.5 240t182.5 150q-89 39 -139 120t-50 174q0 152 116.5 261.5t287.5 109.5t287 -109.5t116 -261.5q0 -96 -48.5 -176t-141.5 -118q115 -43 185.5 -150t70.5 -240q0 -182 -133.5 -305t-335.5 -123t-335.5 123t-133.5 305zM311 424q0 -147 90 -233.5 t230 -86.5t229.5 86t89.5 234q0 131 -89 224t-230 93t-230.5 -93t-89.5 -224zM373 1069q0 -103 70.5 -168t187.5 -65t187.5 65t70.5 168q0 118 -73 189t-185 71t-185 -71t-73 -189z" />
<glyph unicode="9" d="M164 983q0 132 63 241t172 171.5t240 62.5q113 0 201.5 -42.5t144.5 -118t84.5 -175.5t28.5 -219q0 -203 -88.5 -396.5t-251.5 -337t-365 -194.5v113q202 59 353 234t178 366q-108 -139 -340 -139q-115 0 -212.5 60t-152.5 160t-55 214zM301 999q0 -147 89 -241t239 -94 q142 0 234.5 95t92.5 240q0 138 -94.5 234t-232.5 96q-145 0 -236.5 -94.5t-91.5 -235.5z" />
<glyph unicode=":" d="M502 100q0 51 37.5 90t91.5 39t91.5 -39t37.5 -90t-37.5 -90t-91.5 -39t-91.5 39t-37.5 90zM502 860q0 51 37.5 90t91.5 39t91.5 -39t37.5 -90t-37.5 -90t-91.5 -39t-91.5 39t-37.5 90z" />
<glyph unicode=";" d="M494 92q0 57 38 94t93 37q60 0 100.5 -44.5t40.5 -127.5q0 -116 -56 -228.5t-130 -172.5l-80 20q53 62 90.5 144t38.5 147q-60 3 -97.5 38.5t-37.5 92.5zM494 860q0 51 37.5 90t91.5 39t91.5 -39t37.5 -90t-37.5 -90t-91.5 -39t-91.5 39t-37.5 90z" />
<glyph unicode="&#x3c;" d="M150 647v135l962 389v-137l-805 -317l805 -318v-139z" />
<glyph unicode="=" d="M150 418v139h962v-139h-962zM150 844v139h962v-139h-962z" />
<glyph unicode="&#x3e;" d="M150 260v135l804 322l-804 317v137l962 -389v-135z" />
<glyph unicode="?" d="M188 1047q0 178 123 294.5t330 116.5q202 0 317 -107.5t115 -269.5q0 -73 -21 -133t-55 -102t-75.5 -79.5t-82.5 -74.5t-75 -76.5t-55 -96t-21 -124.5v-47h-147v47q0 79 21 145t55 111.5t75.5 85.5t82.5 76.5t75 74t55 88t21 109.5q0 103 -76 171.5t-209 68.5 q-149 0 -233 -77.5t-84 -200.5h-136zM481 100q0 51 37.5 90t91.5 39t91.5 -39t37.5 -90t-37.5 -90t-91.5 -39t-91.5 39t-37.5 90z" />
<glyph unicode="@" d="M70 686q0 166 48 311.5t128.5 245.5t188 157.5t224.5 57.5q236 0 383.5 -169t147.5 -443q0 -223 -76 -370.5t-186 -147.5q-64 0 -103.5 41.5t-50.5 113.5q-74 -174 -205 -174q-100 0 -166.5 99t-66.5 251q0 102 35.5 198t105.5 161t158 65q71 0 118.5 -51t59.5 -145 l23 170h102l-66 -475q-2 -12 -2 -37q0 -49 20 -77t54 -28q66 0 108 117.5t42 296.5q0 121 -36.5 219t-97.5 159t-137 93.5t-159 32.5q-140 0 -252.5 -88t-175 -242t-62.5 -344q0 -170 53.5 -306.5t160 -219t247.5 -82.5q140 0 229 39l-22 -109q-91 -31 -213 -31 q-116 0 -217.5 48t-177.5 137t-120 224.5t-44 301.5zM451 657q0 -107 40 -170t109 -63q83 0 135.5 90t52.5 221q0 103 -42.5 168.5t-102.5 65.5q-88 0 -140 -90.5t-52 -221.5z" />
<glyph unicode="A" d="M100 0l473 1434h111l477 -1434h-145l-119 371h-530l-117 -371h-150zM408 498h446l-184 573q-40 123 -41 129q-6 -26 -39 -129z" />
<glyph unicode="B" d="M217 0v1434h375q97 0 174 -21.5t125.5 -57t80.5 -84.5t45 -101t13 -111q0 -106 -60.5 -185t-164.5 -118q124 -31 200 -122t76 -233q0 -78 -22.5 -145.5t-72.5 -127t-142.5 -94t-218.5 -34.5h-408zM360 129h289q85 0 145.5 21.5t93 60t46.5 82t14 96.5q0 293 -366 293 h-222v-553zM360 807h197q166 0 253 68t87 188q0 242 -293 242h-244v-498z" />
<glyph unicode="C" d="M170 717q0 120 19 227.5t60.5 202t102 163.5t148 108.5t194.5 39.5q77 0 138.5 -18.5t104.5 -54t71 -72.5t53 -86l-127 -74q-44 82 -98.5 129t-141.5 47q-80 0 -144.5 -36.5t-107 -96.5t-71 -140.5t-40.5 -165t-12 -173.5q0 -122 22 -229.5t66 -194.5t118 -138t169 -51 q96 0 157.5 47.5t102.5 135.5l127 -49q-47 -112 -144.5 -187.5t-242.5 -75.5q-110 0 -199 41.5t-148.5 111.5t-100 166t-58.5 201.5t-18 221.5z" />
<glyph unicode="D" d="M215 0v1434h326q120 0 215.5 -41t157 -109t102.5 -162t58.5 -194t17.5 -211q0 -105 -15.5 -201.5t-56 -192.5t-102 -166t-161 -113.5t-225.5 -43.5h-317zM358 129h172q93 0 166 35t118.5 91.5t75 134.5t41 158t11.5 169q0 116 -21.5 218t-66 186.5t-122 134t-179.5 49.5 h-195v-1176z" />
<glyph unicode="E" d="M217 0v1434h799v-138h-656v-487h457v-135h-457v-537h701v-137h-844z" />
<glyph unicode="F" d="M217 0v1434h864v-138h-721v-487h496v-135h-496v-674h-143z" />
<glyph unicode="G" d="M176 717q0 120 18 227.5t57 202t96 163.5t139 108.5t182 39.5q79 0 142 -18.5t107 -54t72.5 -72t54.5 -86.5l-126 -74q-46 83 -102.5 129.5t-147.5 46.5q-73 0 -132 -36.5t-97.5 -96.5t-64.5 -140.5t-37 -165t-11 -173.5q0 -122 20 -229.5t60 -194.5t107 -138t155 -51 q128 0 203 97t75 260v86h-264v127h416v-158q0 -256 -121 -398.5t-309 -142.5q-102 0 -186 41.5t-140 111.5t-94 166t-55 201.5t-17 221.5z" />
<glyph unicode="H" d="M217 0v1434h143v-621h541v621h143v-1434h-143v678h-541v-678h-143z" />
<glyph unicode="I" d="M217 0v135h342v1163h-342v136h827v-136h-342v-1163h342v-135h-827z" />
<glyph unicode="J" d="M209 219l113 62q30 -64 56.5 -98t80.5 -56.5t139 -22.5q56 0 104.5 16.5t91.5 52t68 101.5t25 156v1004h143v-979q0 -113 -27.5 -200t-70.5 -138.5t-102.5 -84.5t-116 -45t-117.5 -12q-155 0 -248 62.5t-139 181.5z" />
<glyph unicode="K" d="M217 0v1434h143v-654l506 654h160l-391 -498l489 -936h-161l-426 813l-177 -225v-588h-143z" />
<glyph unicode="L" d="M217 0v1434h143v-1297h693v-137h-836z" />
<glyph unicode="M" d="M217 0v1434h166l219 -895q22 -91 29 -152q4 52 28 152l220 895h165v-1434h-137v961q0 84 4 135q-13 -78 -26 -135l-238 -961h-33l-237 961q-17 72 -27 135q4 -102 4 -135v-961h-137z" />
<glyph unicode="N" d="M217 0v1434h145l512 -1065q26 -58 29 -66q-2 39 -2 68v1063h143v-1434h-145l-510 1044q-15 30 -31 70q2 -33 2 -67v-1047h-143z" />
<glyph unicode="O" d="M170 717q0 111 14.5 213.5t49 200t86 169t131.5 115t180 43.5t180 -43.5t131.5 -115t86 -169t49 -200t14.5 -213.5t-14.5 -213.5t-49 -200t-86 -169.5t-131.5 -115.5t-180 -43.5t-180 43.5t-131.5 115.5t-86 169.5t-49 200t-14.5 213.5zM319 717q0 -122 17 -228 t52 -194.5t97.5 -139.5t145.5 -51t145.5 54.5t97 146t51.5 195.5t17 217q0 122 -16.5 227.5t-51.5 194t-97.5 139.5t-145.5 51t-145.5 -54.5t-97.5 -145.5t-52 -195t-17 -217z" />
<glyph unicode="P" d="M217 0v1434h412q123 0 214 -36t141 -97.5t73.5 -133.5t23.5 -155q0 -60 -15 -118t-49.5 -113t-85.5 -96.5t-129 -67t-173 -25.5h-269v-592h-143zM360 721h281q65 0 117.5 17.5t86.5 45.5t57 66.5t32.5 78.5t9.5 83q0 52 -14.5 99.5t-46.5 93t-94.5 73t-147.5 27.5h-281 v-584z" />
<glyph unicode="Q" d="M170 717q0 111 14.5 213.5t49 200t86 169t131.5 115t180 43.5t180 -43.5t131.5 -115t86 -169t49 -200t14.5 -213.5q0 -199 -49 -370.5t-152 -268.5l119 -178l-99 -74l-123 182q-74 -33 -157 -33q-100 0 -180 43.5t-131.5 115.5t-86 169.5t-49 200t-14.5 213.5zM319 717 q0 -122 17 -228t52 -194.5t97.5 -139.5t145.5 -51q39 0 82 17l-95 139l103 74l90 -137q66 84 98.5 224.5t32.5 295.5q0 122 -16.5 227.5t-51.5 194t-97.5 139.5t-145.5 51t-145.5 -54.5t-97.5 -145.5t-52 -195t-17 -217z" />
<glyph unicode="R" d="M217 0v1434h412q99 0 177 -22.5t127 -60t80.5 -89.5t44.5 -106.5t13 -115.5q0 -65 -16.5 -124t-52.5 -114.5t-102.5 -95.5t-156.5 -55l320 -651h-158l-307 641h-238v-641h-143zM360 770h273q83 0 144 22.5t94 61.5t48 83.5t15 96.5q0 37 -8 72t-29 72t-54 64.5t-87 45 t-123 17.5h-273v-535z" />
<glyph unicode="S" d="M207 266l135 49q38 -96 116 -153.5t181 -57.5q123 0 192.5 68.5t69.5 196.5q0 63 -23 117t-65 94.5t-89.5 69.5t-107.5 55q-62 27 -107 50t-98 61.5t-86.5 79.5t-56 100t-22.5 128q0 142 102 238t275 96q138 0 233.5 -63t122.5 -164l-133 -45q-23 62 -82.5 102.5 t-145.5 40.5q-105 0 -165 -55t-60 -148q0 -44 17 -82.5t41 -65.5t66.5 -54.5t77.5 -44.5t89 -41q58 -26 104 -52t97 -67.5t85 -88t56.5 -113.5t22.5 -144q0 -187 -113 -292.5t-297 -105.5q-158 0 -275 84t-157 207z" />
<glyph unicode="T" d="M150 1296v138h962v-138h-410v-1296h-143v1296h-409z" />
<glyph unicode="U" d="M180 541v893h144v-893q0 -437 307 -437t307 437v893h143v-893q0 -295 -115.5 -430.5t-334.5 -135.5q-220 0 -335.5 135.5t-115.5 430.5z" />
<glyph unicode="V" d="M102 1434h150l352 -1106q21 -72 27 -105q8 43 26 105l353 1106h149l-477 -1434h-102z" />
<glyph unicode="W" d="M106 1434h142l143 -994q2 -15 5.5 -45t4.5 -41q5 37 13 86l159 994h119l160 -981q2 -13 5 -38t5 -36q1 12 2.5 25.5t3 27.5t2.5 19l146 983h139l-231 -1434h-119l-160 973q-5 28 -12 90q-7 -56 -12 -86l-164 -977h-119z" />
<glyph unicode="X" d="M143 0l414 743l-383 691h156l301 -553l295 553h149l-379 -672l420 -762h-153l-340 625l-328 -625h-152z" />
<glyph unicode="Y" d="M154 1434h157l322 -738l328 738h147l-403 -867v-567h-144v567z" />
<glyph unicode="Z" d="M180 0v100l725 1198h-678v136h858v-105l-725 -1194h717v-135h-897z" />
<glyph unicode="[" d="M506 -266v1724h428v-129h-285v-1466h285v-129h-428z" />
<glyph unicode="\" d="M248 1458h139l805 -1724h-139z" />
<glyph unicode="]" d="M506 -137h285v1466h-285v129h428v-1724h-428v129z" />
<glyph unicode="^" d="M250 741l391 717h156l395 -717h-148l-323 539l-324 -539h-147z" />
<glyph unicode="_" d="M82 -205h1098v-157h-1098v157z" />
<glyph unicode="`" d="M465 1499h219l291 -319h-146z" />
<glyph unicode="a" d="M197 330q0 71 21.5 129t58 97.5t86.5 67t107 40t120 12.5q158 0 295 -74v88q0 76 -19 128.5t-53 79t-72 37.5t-86 11q-77 0 -168 -33.5t-163 -78.5l-41 122q78 47 180.5 81t206.5 34q49 0 94 -9t93 -33.5t82.5 -63.5t56.5 -105t22 -151v-709h-133v102 q-140 -127 -320 -127q-169 0 -268.5 91t-99.5 264zM330 330q0 -105 66 -167.5t184 -62.5q174 0 305 162v203q-55 36 -131.5 61t-149.5 25q-118 0 -196 -56.5t-78 -164.5z" />
<glyph unicode="b" d="M225 0v1407l144 72v-535q53 57 130.5 92t162.5 35q204 0 325 -145.5t121 -401.5q0 -263 -115 -406t-319 -143q-58 0 -104.5 9.5t-85 30t-60 36t-55.5 43.5v-94h-144zM369 268q43 -75 118.5 -119.5t163.5 -44.5q152 0 229.5 111t77.5 309q0 203 -77.5 310.5t-229.5 107.5 q-97 0 -172 -49.5t-110 -110.5v-514z" />
<glyph unicode="c" d="M229 522q0 259 116.5 404t326.5 145q122 0 213 -57t135 -162l-131 -51q-62 141 -223 141q-287 0 -287 -420q0 -418 283 -418q88 0 151.5 42.5t91.5 117.5l129 -49q-38 -111 -140 -175.5t-239 -64.5q-199 0 -312.5 144t-113.5 403z" />
<glyph unicode="d" d="M154 524q0 257 119.5 402t326.5 145q172 0 293 -98v434l143 72v-1479h-143v90q-115 -115 -293 -115q-206 0 -326 148.5t-120 400.5zM303 524q0 -179 86 -299.5t227 -120.5q89 0 161.5 43t115.5 121v523q-39 63 -108 107t-169 44q-152 0 -232.5 -108t-80.5 -310z" />
<glyph unicode="e" d="M182 524q0 258 127 402.5t342 144.5q89 0 165 -30t135.5 -90t93.5 -159t34 -227q0 -55 -4 -100h-741q20 -168 104.5 -262t218.5 -94q135 0 250 81l78 -96q-68 -54 -155.5 -86.5t-178.5 -32.5q-87 0 -162.5 28.5t-131 79.5t-95.5 120t-60 150.5t-20 170.5zM330 594h604 q-1 81 -19.5 144.5t-47 101t-67 61.5t-75 32.5t-74.5 8.5q-152 0 -232.5 -92t-88.5 -256z" />
<glyph unicode="f" d="M285 0v129h217v789h-217v129h217v157q0 70 22 120.5t61.5 79t87.5 41.5t107 13q111 0 219 -49v-129q-92 45 -204 45q-42 0 -71 -8t-44.5 -19t-23.5 -32.5t-9.5 -38t-1.5 -45.5v-135h279v-129h-279v-789h279v-129h-639z" />
<glyph unicode="g" d="M152 524q0 254 124.5 400.5t325.5 146.5q188 0 293 -123v99h143v-1031q0 -433 -491 -452l-66 112q123 7 207.5 31t128 64.5t61 85t17.5 102.5v160q-47 -71 -117.5 -107.5t-183.5 -36.5q-89 0 -167.5 35t-140.5 102t-98 173t-36 239zM301 524q0 -196 91 -308t235 -112 q77 0 151.5 47.5t116.5 127.5v503q-42 74 -119 117t-149 43q-161 0 -243.5 -107.5t-82.5 -310.5z" />
<glyph unicode="h" d="M225 0v1411l144 68v-549q95 141 282 141q200 0 293.5 -117t93.5 -374v-580h-143v639q0 157 -69.5 230t-186.5 73q-129 0 -199.5 -69t-70.5 -230v-643h-144z" />
<glyph unicode="i" d="M303 0v129h289v789h-289v129h432v-918h289v-129h-721zM569 1356q0 41 27.5 69.5t67.5 28.5q41 0 67.5 -28t26.5 -70q0 -40 -26.5 -67t-67.5 -27q-40 0 -67.5 27t-27.5 67z" />
<glyph unicode="j" d="M346 -313q91 9 147 26t88.5 51t44 78.5t11.5 116.5v959h-289v129h432v-1113q0 -184 -88.5 -273t-279.5 -97zM614 1356q0 41 27.5 69.5t67.5 28.5q41 0 67.5 -28t26.5 -70q0 -40 -26.5 -67t-67.5 -27q-40 0 -67.5 27t-27.5 67z" />
<glyph unicode="k" d="M225 0v1409l144 70v-854l391 422h166l-256 -273l395 -774h-158l-338 668l-200 -213v-455h-144z" />
<glyph unicode="l" d="M240 1479h462v-1350h289v-129h-721v129h289v1221h-256z" />
<glyph unicode="m" d="M109 0v1047h139v-127q66 151 201 151q85 0 138 -47.5t75 -116.5q86 164 235 164q132 0 194 -84t62 -262v-725h-147v641q0 161 -27 229t-109 68q-86 0 -125.5 -86t-39.5 -225v-627h-148v668q0 60 -4 101.5t-16 83.5t-39 63.5t-68 21.5q-85 0 -129.5 -88.5t-44.5 -222.5 v-627h-147z" />
<glyph unicode="n" d="M225 0v1047h135v-125q98 149 291 149q200 0 293.5 -117t93.5 -374v-580h-143v639q0 157 -69.5 230t-186.5 73q-129 0 -199.5 -69t-70.5 -230v-643h-144z" />
<glyph unicode="o" d="M147 522q0 255 132.5 402t351.5 147q220 0 351.5 -145t131.5 -402q0 -255 -132 -402t-351 -147q-220 0 -352 145t-132 402zM297 522q0 -198 86 -308t248 -110q158 0 246 111.5t88 308.5q0 198 -86 308t-248 110q-164 0 -249 -107.5t-85 -312.5z" />
<glyph unicode="p" d="M225 -416v1463h144v-95q63 57 128.5 88t164.5 31q212 0 333 -148.5t121 -398.5q0 -257 -123.5 -403t-322.5 -146q-111 0 -180 35t-121 96v-450zM369 266q60 -77 127.5 -119.5t156.5 -42.5q150 0 232 109t82 311q0 192 -85.5 305t-236.5 113q-89 0 -161 -42.5t-115 -119.5 v-514z" />
<glyph unicode="q" d="M150 522q0 252 118.5 400.5t331.5 148.5q64 0 123 -20.5t91.5 -41.5t78.5 -57v95h143v-1391l-143 -66v516q-58 -65 -125.5 -98t-167.5 -33q-208 0 -329 144.5t-121 402.5zM299 522q0 -203 78.5 -310.5t228.5 -107.5q52 0 97.5 15t82 44t58.5 51t49 56v510 q-45 81 -117.5 121.5t-154.5 40.5q-150 0 -236 -119t-86 -301z" />
<glyph unicode="r" d="M104 0v129h218v789h-218v129h359v-185q59 95 179.5 152t238.5 57q150 0 221 -47v-350h-146v244q-37 6 -86 6q-99 0 -188 -32t-150 -101t-61 -162v-500h313v-129h-680z" />
<glyph unicode="s" d="M248 158l100 88q54 -62 129.5 -103t155.5 -41q94 0 155.5 40.5t61.5 111.5q0 31 -10 57.5t-32 48.5t-43 38.5t-58 34t-61.5 28t-67.5 26.5q-61 24 -101 42.5t-87 48t-74 59.5t-45.5 73.5t-18.5 94.5q0 119 98 192.5t252 73.5q214 0 352 -160l-94 -80q-117 113 -262 113 q-97 0 -154 -37t-57 -100q0 -26 8.5 -48t29.5 -41t38.5 -32.5t54 -30t57 -24.5t64.5 -25q45 -17 71 -27.5t67.5 -30.5t66.5 -37t55 -44t46.5 -55.5t28 -67t11.5 -82.5q0 -131 -98 -209t-266 -78q-105 0 -203.5 50.5t-169.5 132.5z" />
<glyph unicode="t" d="M229 918v129h248v360l144 72v-432h350v-129h-350v-631q0 -43 5 -70.5t20 -54t46.5 -39t81.5 -12.5q51 0 93 11t60.5 21t45.5 29l-17 -149q-88 -48 -231 -48q-128 0 -188 66.5t-60 183.5v693h-248z" />
<glyph unicode="u" d="M223 479v568h148v-625q0 -162 67.5 -237.5t182.5 -75.5q268 0 268 309v629h147v-1047h-147v104q-55 -72 -117 -100.5t-151 -28.5q-211 0 -304.5 118.5t-93.5 385.5z" />
<glyph unicode="v" d="M184 1047h148l268 -721q30 -80 37 -103q7 23 37 103l262 721h143l-397 -1047h-100z" />
<glyph unicode="w" d="M61 1047h148l170 -750q10 -52 14 -78q11 58 17 84l161 744h119l164 -746q5 -22 18 -92q3 24 17 92l164 746h147l-258 -1047h-133l-162 713q-8 33 -18 92q-9 -53 -17 -88l-157 -717h-136z" />
<glyph unicode="x" d="M164 0l389 541l-365 506h156l238 -330q36 -52 49 -72q13 20 49 72l238 330h155l-364 -506l389 -541h-156l-262 365q-44 64 -49 71q-5 -7 -49 -71l-263 -365h-155z" />
<glyph unicode="y" d="M178 1047h146l264 -744q11 -34 35 -106l36 106l269 744h153l-534 -1444h-141l155 430z" />
<glyph unicode="z" d="M256 0v88l559 830h-518v129h709v-86l-564 -832h562v-129h-748z" />
<glyph unicode="{" d="M322 539v116h32q70 0 113 62.5t43 165.5v102q0 229 104 351t281 122h45v-121h-45q-118 0 -178 -82t-60 -231v-115q0 -88 -14.5 -147.5t-45 -93.5t-69 -49t-94.5 -19v-8q46 -3 77.5 -11t61 -28t47 -53.5t27.5 -87t10 -129.5v-115q0 -149 60 -231t178 -82h45v-121h-45 q-178 5 -281.5 125t-103.5 348v104q0 101 -43 164.5t-113 63.5h-32z" />
<glyph unicode="|" d="M649 -420v2069h144v-2069h-144z" />
<glyph unicode="}" d="M322 -145h45q118 0 177.5 82t59.5 231v115q0 76 10 129.5t27.5 87t47 53.5t61 28t77.5 11v8q-56 4 -94.5 19t-69 49t-45 93.5t-14.5 147.5v115q0 149 -59.5 231t-177.5 82h-45v121h45q177 0 281 -122t104 -351v-102q0 -103 42.5 -165.5t112.5 -62.5h33v-116h-33 q-70 0 -112.5 -63.5t-42.5 -164.5v-104q0 -228 -103.5 -348t-281.5 -125h-45v121z" />
<glyph unicode="~" d="M244 567q0 115 62 191t192 76q58 0 126.5 -20t119.5 -44.5t110 -44.5t102 -20q67 0 111 36t49 93h82q0 -114 -63 -190.5t-191 -76.5q-57 0 -124 20t-117.5 44.5t-111 44.5t-106.5 20q-68 0 -111.5 -35.5t-47.5 -93.5h-82z" />
<glyph unicode="&#xa0;" />
<glyph unicode="&#xa1;" d="M502 942q0 51 37.5 90t91.5 39t91.5 -39t37.5 -90t-37.5 -90t-91.5 -39t-91.5 39t-37.5 90zM553 29l63 618h23l61 -618v-439h-147v439z" />
<glyph unicode="&#xa2;" d="M240 717q0 225 88.5 362.5t249.5 173.5v205h141v-198q222 -19 295 -220l-140 -53q-24 63 -73.5 99t-120.5 36q-145 0 -218 -105.5t-73 -299.5q0 -196 71.5 -302t209.5 -106q77 0 134 42.5t79 115.5l137 -49q-68 -230 -301 -248v-195h-141v199q-159 33 -248.5 174 t-89.5 369z" />
<glyph unicode="&#xa3;" d="M240 614v117h166q-6 12 -27 49.5t-29 57t-21.5 56t-18.5 78t-5 91.5q0 78 28.5 147.5t83.5 125.5t145 89t204 33q235 0 405 -133l-55 -131q-31 25 -54 41t-67 39t-102 35t-127 12q-77 0 -137.5 -22.5t-96 -60.5t-53.5 -83t-18 -94q0 -53 14.5 -106t32.5 -87.5t36 -73 t23 -63.5h336v-117h-309v-22q0 -263 -217 -459h823v-133h-950v162q53 24 92 75t58.5 114t28.5 121t9 114v28h-198z" />
<glyph unicode="&#xa4;" d="M84 246l139 139q-76 116 -76 297q0 174 74 299l-137 137l102 107l136 -133q133 98 307 98q175 0 305 -96l133 131l109 -113l-134 -133q72 -126 72 -297q0 -179 -80 -303l142 -139l-103 -105l-137 137q-122 -96 -307 -96q-184 0 -303 94l-133 -135zM293 682 q0 -162 93 -265.5t243 -103.5q153 0 246.5 103t93.5 266q0 161 -94 266t-246 105q-149 0 -242.5 -105.5t-93.5 -265.5z" />
<glyph unicode="&#xa5;" d="M121 1434h160l348 -664l364 664h148l-445 -801h318v-123h-312v-135h312v-123h-312v-252h-143v252h-336v123h336v135h-336v123h340z" />
<glyph unicode="&#xa6;" d="M559 -246v666h143v-666h-143zM559 805v670h143v-670h-143z" />
<glyph unicode="&#xa7;" d="M207 -70l108 97q41 -49 121 -91t195 -42q130 0 201 42.5t71 141.5q0 40 -19.5 74.5t-47 58.5t-72 48t-80 37.5t-86.5 33t-76 30.5q-36 16 -51.5 23t-47.5 22t-46.5 24t-39.5 26t-36.5 30t-28 33t-23.5 40t-12.5 45.5t-5.5 53.5q0 81 42.5 139.5t111.5 82.5 q-74 42 -114 114.5t-40 169.5q0 136 113.5 215.5t278.5 79.5q141 0 238.5 -48.5t150.5 -113.5l-111 -88q-102 107 -278 107q-113 0 -175.5 -41t-62.5 -121q0 -22 6 -41.5t21.5 -37.5t29.5 -32t44 -30.5t48.5 -26t60.5 -26.5t63 -25t71 -27q45 -17 72 -28t65 -29.5 t61.5 -35.5t50 -42.5t41 -53.5t24.5 -65.5t10 -81.5q0 -158 -129 -217q129 -95 129 -270q0 -157 -111 -243.5t-305 -86.5q-147 0 -262.5 52.5t-167.5 123.5zM385 657q0 -31 18 -58t44 -45.5t71.5 -38.5t82.5 -32.5t95.5 -32t94.5 -32.5q112 46 112 147q0 30 -9.5 55.5 t-37.5 48.5t-48 37.5t-71.5 36t-75 30t-90.5 31.5q-9 3 -14 5q-80 -12 -126 -52t-46 -100z" />
<glyph unicode="&#xa8;" d="M365 1337q0 41 28 69t68 28q41 0 68.5 -28t27.5 -69q0 -40 -27.5 -68t-68.5 -28q-40 0 -68 28t-28 68zM705 1337q0 41 28 69t68 28q41 0 68.5 -28t27.5 -69q0 -40 -27.5 -68t-68.5 -28q-40 0 -68 28t-28 68z" />
<glyph unicode="&#xa9;" d="M33 717q0 207 78.5 377t215.5 267t304 97t304 -97t215.5 -267t78.5 -377q0 -155 -46 -292.5t-125.5 -236t-190.5 -156t-236 -57.5t-236 57.5t-190.5 156t-125.5 236t-46 292.5zM150 717q0 -177 62 -321.5t172.5 -227t246.5 -82.5t245.5 82.5t170.5 227t61 321.5t-61 321 t-170.5 226t-245.5 82t-246.5 -82t-172.5 -226t-62 -321zM291 727q0 202 102.5 324.5t265.5 122.5q101 0 174 -59.5t109 -166.5l-129 -53q-20 65 -63.5 105t-108.5 40q-105 0 -158 -82t-53 -231q0 -315 217 -315q69 0 118.5 39.5t65.5 126.5l117 -48q-32 -119 -112.5 -183 t-192.5 -64q-155 0 -253.5 117.5t-98.5 326.5z" />
<glyph unicode="&#xaa;" d="M281 852q0 92 52.5 159.5t128 97.5t159.5 30q51 0 113 -13.5t108 -33.5v28q0 119 -47 165t-160 46q-143 0 -238 -74l-37 121q104 80 295 80q51 0 91 -5t86.5 -24t77 -52t51 -93t20.5 -143v-561h-139v61q-44 -33 -114 -57.5t-132 -24.5q-143 0 -229 75.5t-86 217.5z M428 852q0 -79 50 -125.5t134 -46.5q58 0 124 28.5t106 65.5v189q-42 23 -102 38t-105 15q-85 0 -146 -41t-61 -123z" />
<glyph unicode="&#xab;" d="M188 524l312 523h159l-311 -523l311 -524h-159zM596 524l311 523h164l-311 -523l311 -524h-164z" />
<glyph unicode="&#xac;" d="M150 811v137h962v-588h-147v451h-815z" />
<glyph unicode="&#xad;" d="M150 541v139h962v-139h-962z" />
<glyph unicode="&#xae;" d="M33 717q0 207 78.5 377t215.5 267t304 97t304 -97t215.5 -267t78.5 -377q0 -155 -46 -292.5t-125.5 -236t-190.5 -156t-236 -57.5t-236 57.5t-190.5 156t-125.5 236t-46 292.5zM150 717q0 -177 62 -321.5t172.5 -227t246.5 -82.5t245.5 82.5t170.5 227t61 321.5t-61 321 t-170.5 226t-245.5 82t-246.5 -82t-172.5 -226t-62 -321zM352 281v866h363q61 0 109 -24t74.5 -62.5t40 -80t13.5 -83.5q0 -95 -58.5 -171.5t-156.5 -90.5l209 -354h-147l-195 352h-119v-352h-133zM485 748h234q46 0 75 42t29 103q0 49 -27.5 90t-76.5 41h-234v-276z" />
<glyph unicode="&#xaf;" d="M293 1247v125h676v-125h-676z" />
<glyph unicode="&#xb0;" d="M285 1264q0 147 100.5 243.5t247.5 96.5q146 0 245 -96.5t99 -243.5q0 -146 -99.5 -244t-244.5 -98q-147 0 -247.5 98t-100.5 244zM436 1264q0 -86 57.5 -143.5t139.5 -57.5q83 0 136.5 57t53.5 144q0 90 -53 146t-137 56q-83 0 -140 -56.5t-57 -145.5z" />
<glyph unicode="&#xb1;" d="M150 0v137h962v-137h-962zM150 764v137h405v344h147v-344h410v-137h-410v-344h-147v344h-405z" />
<glyph unicode="&#xb2;" d="M360 1219q0 71 21 124.5t55 83.5t75 51t82.5 33t75.5 23.5t55 29t21 42.5q0 33 -25 55t-75 22q-69 0 -119 -37t-63 -106l-101 43q21 93 93 150t186 57q105 0 168 -49t63 -146q0 -49 -36.5 -86t-89.5 -58t-106 -38t-91.5 -37t-40.5 -45h362v-112h-510z" />
<glyph unicode="&#xb3;" d="M350 1343l113 48q60 -95 180 -95q54 0 88.5 27t34.5 66q0 22 -11.5 36t-33.5 19.5t-35.5 6.5t-34.5 1h-69v102h45q59 0 82.5 12.5t23.5 49.5q0 30 -27.5 51t-74.5 21q-102 0 -156 -91l-108 37q32 67 103 111.5t159 44.5q104 0 168.5 -43t64.5 -119q0 -43 -30 -75t-66 -37 q21 -3 41.5 -10.5t42 -22.5t34.5 -42.5t13 -62.5q0 -77 -70 -130.5t-194 -53.5q-198 0 -283 149z" />
<glyph unicode="&#xb4;" d="M424 1180l291 319h219l-365 -319h-145z" />
<glyph unicode="&#xb5;" d="M236 -410v1457h143v-639q0 -76 11 -130t30 -87.5t51 -53t67.5 -26.5t84.5 -7q258 0 258 299v644h143v-1047h-143v104q-127 -129 -287 -129q-76 0 -125 27t-90 98v-440z" />
<glyph unicode="&#xb6;" d="M115 1006q0 67 14.5 126.5t49.5 115.5t87 96.5t133 65t183 24.5h563v-1643l-146 -65v1564h-208v-1634l-146 -66v979q-116 0 -208.5 26.5t-151.5 69.5t-98.5 101.5t-55.5 117.5t-16 122z" />
<glyph unicode="&#xb7;" d="M502 715q0 51 37.5 90t91.5 39t91.5 -39t37.5 -90t-37.5 -90t-91.5 -39t-91.5 39t-37.5 90z" />
<glyph unicode="&#xb8;" d="M424 -422l94 62q11 -14 26 -17.5t48 -3.5q43 0 75.5 30.5t32.5 74.5q0 38 -38.5 68t-86.5 30q-51 0 -73 -10l-25 30l139 178h84l-79 -133q111 0 163 -48.5t52 -117.5q0 -88 -66 -144t-166 -56q-113 0 -180 57z" />
<glyph unicode="&#xb9;" d="M465 1573v88q102 0 135 113h86v-557h-125v356h-96z" />
<glyph unicode="&#xba;" d="M242 1008q0 211 104.5 330.5t282.5 119.5q181 0 285 -119.5t104 -330.5q0 -214 -104 -332.5t-285 -118.5q-179 0 -283 119t-104 332zM385 1008q0 -151 65 -234.5t179 -83.5q122 0 183.5 82t61.5 236q0 155 -61.5 236t-183.5 81q-114 0 -179 -82.5t-65 -234.5z" />
<glyph unicode="&#xbb;" d="M188 0l312 524l-312 523h160l311 -523l-311 -524h-160zM596 0l311 524l-311 523h164l311 -523l-311 -524h-164z" />
<glyph unicode="&#xbc;" d="M92 668v114h1077v-114h-1077zM313 119v82l373 356h117v-326h106v-112h-106v-119h-125v119h-365zM465 1241v88q102 0 135 113h86v-557h-125v356h-96zM492 231h186v183z" />
<glyph unicode="&#xbd;" d="M92 668v114h1077v-114h-1077zM360 0q0 71 21 124.5t55 83.5t75 51t82.5 33t75.5 23.5t55 29t21 42.5q0 33 -25 55.5t-75 22.5q-69 0 -119 -37t-63 -106l-101 43q21 93 93 149.5t186 56.5q105 0 168 -48.5t63 -145.5q0 -49 -36.5 -86t-89.5 -58t-106 -38t-91.5 -37 t-40.5 -45h362v-113h-510zM465 1241v88q102 0 135 113h86v-557h-125v356h-96z" />
<glyph unicode="&#xbe;" d="M92 668v114h1077v-114h-1077zM313 119v82l373 356h117v-326h106v-112h-106v-119h-125v119h-365zM350 1010l113 47q60 -94 180 -94q54 0 88.5 26.5t34.5 65.5q0 22 -11.5 36t-33.5 19.5t-35.5 6.5t-34.5 1h-69v103h45q60 0 83 12t23 49q0 30 -27.5 51t-74.5 21 q-52 0 -92 -25t-64 -65l-108 36q32 67 103 111.5t159 44.5q104 0 168.5 -43t64.5 -119q0 -43 -30 -75t-66 -37q21 -3 41.5 -10.5t42 -22.5t34.5 -42.5t13 -62.5q0 -77 -70 -130.5t-194 -53.5q-111 0 -177 40t-106 110zM492 231h186v183z" />
<glyph unicode="&#xbf;" d="M178 -18q0 67 21 123t55 96t75 76.5t82 73.5t75 77.5t55.5 98.5t21.5 128v45h146v-45q0 -81 -21 -146.5t-55 -109t-75.5 -80t-82.5 -69.5t-75 -69t-55 -86.5t-21 -112.5q0 -117 74.5 -190t207.5 -73q155 0 241.5 86.5t86.5 239.5h147q0 -204 -132 -329.5t-343 -125.5 q-203 0 -315.5 109t-112.5 283zM514 940q0 51 36.5 91t90.5 40q53 0 94 -40.5t41 -90.5q0 -51 -40.5 -88t-94.5 -37q-55 0 -91 36.5t-36 88.5z" />
<glyph unicode="&#xc0;" d="M100 0l473 1434h111l477 -1434h-145l-119 371h-530l-117 -371h-150zM238 1888h219l291 -319h-146zM408 498h446l-184 573q-40 123 -41 129q-6 -26 -39 -129z" />
<glyph unicode="&#xc1;" d="M100 0l473 1434h111l477 -1434h-145l-119 371h-530l-117 -371h-150zM408 498h446l-184 573q-40 123 -41 129q-6 -26 -39 -129zM539 1569l290 319h220l-365 -319h-145z" />
<glyph unicode="&#xc2;" d="M100 0l473 1434h111l477 -1434h-145l-119 371h-530l-117 -371h-150zM258 1569l289 319h164l288 -319h-133l-237 207l-238 -207h-133zM408 498h446l-184 573q-40 123 -41 129q-6 -26 -39 -129z" />
<glyph unicode="&#xc3;" d="M100 0l473 1434h111l477 -1434h-145l-119 371h-530l-117 -371h-150zM279 1630q0 225 190 225q49 0 99.5 -16.5t85.5 -35.5t77 -35.5t76 -16.5q39 0 66 25.5t30 70.5h78q0 -225 -188 -225q-49 0 -99.5 16t-85.5 35t-77 35t-76 16q-40 0 -67 -25t-30 -69h-79zM408 498h446 l-184 573q-40 123 -41 129q-6 -26 -39 -129z" />
<glyph unicode="&#xc4;" d="M100 0l473 1434h111l477 -1434h-145l-119 371h-530l-117 -371h-150zM362 1726q0 41 28.5 69t68.5 28q41 0 68.5 -28t27.5 -69q0 -40 -27.5 -68t-68.5 -28q-40 0 -68.5 28t-28.5 68zM408 498h446l-184 573q-40 123 -41 129q-6 -26 -39 -129zM702 1726q0 41 28.5 69 t68.5 28q41 0 68.5 -28t27.5 -69q0 -40 -27.5 -68t-68.5 -28q-40 0 -68.5 28t-28.5 68z" />
<glyph unicode="&#xc5;" d="M100 0l445 1343q-66 27 -108 87t-42 131q0 94 70 160.5t166 66.5t165.5 -66t69.5 -161q0 -73 -42 -133t-109 -85l446 -1343h-145l-119 371h-530l-117 -371h-150zM408 498h446l-184 573q-40 123 -41 129q-6 -26 -39 -129zM516 1561q0 -54 34 -90.5t81 -36.5q50 0 82 36 t32 91t-32 87.5t-82 32.5q-48 0 -81.5 -33t-33.5 -87z" />
<glyph unicode="&#xc6;" d="M0 0l629 1434h585v-138h-374v-487h299v-135h-299v-537h420v-137h-562v371h-383l-155 -371h-160zM367 498h331v798q-10 -29 -30 -79z" />
<glyph unicode="&#xc7;" d="M170 717q0 120 19 227.5t60.5 202t102 163.5t148 108.5t194.5 39.5q77 0 138.5 -18.5t104.5 -54t71 -72.5t53 -86l-127 -74q-44 82 -98.5 129t-141.5 47q-80 0 -144.5 -36.5t-107 -96.5t-71 -140.5t-40.5 -165t-12 -173.5q0 -122 22 -229.5t66 -194.5t118 -138t169 -51 q96 0 157.5 47.5t102.5 135.5l127 -49q-45 -108 -137 -182.5t-229 -80.5l-53 -88q111 0 163 -48.5t52 -117.5q0 -88 -66 -144t-166 -56q-113 0 -180 57l94 62q11 -14 26 -17.5t48 -3.5q43 0 75.5 30.5t32.5 74.5q0 38 -38.5 68t-86.5 30q-50 0 -73 -10l-25 30l107 138 q-118 16 -208 83.5t-142.5 171t-78.5 225t-26 257.5z" />
<glyph unicode="&#xc8;" d="M217 0v1434h799v-138h-656v-487h457v-135h-457v-537h701v-137h-844zM262 1888h219l291 -319h-145z" />
<glyph unicode="&#xc9;" d="M217 0v1434h799v-138h-656v-487h457v-135h-457v-537h701v-137h-844zM465 1583l291 320h219l-365 -320h-145z" />
<glyph unicode="&#xca;" d="M217 0v1434h799v-138h-656v-487h457v-135h-457v-537h701v-137h-844zM242 1569l288 319h164l289 -319h-133l-238 207l-237 -207h-133z" />
<glyph unicode="&#xcb;" d="M217 0v1434h799v-138h-656v-487h457v-135h-457v-537h701v-137h-844zM346 1726q0 41 28 69t68 28q41 0 69 -28t28 -69q0 -40 -28 -68t-69 -28q-40 0 -68 28t-28 68zM686 1726q0 41 28 69t68 28q41 0 69 -28t28 -69q0 -40 -28 -68t-69 -28q-40 0 -68 28t-28 68z" />
<glyph unicode="&#xcc;" d="M217 0v135h342v1163h-342v136h827v-136h-342v-1163h342v-135h-827zM219 1888h219l291 -319h-145z" />
<glyph unicode="&#xcd;" d="M217 0v135h342v1163h-342v136h827v-136h-342v-1163h342v-135h-827zM535 1583l290 320h219l-364 -320h-145z" />
<glyph unicode="&#xce;" d="M219 0v135h342v1163h-342v136h828v-136h-342v-1163h342v-135h-828zM260 1569l289 319h164l288 -319h-133l-237 207l-238 -207h-133z" />
<glyph unicode="&#xcf;" d="M219 0v135h342v1163h-342v136h828v-136h-342v-1163h342v-135h-828zM365 1726q0 41 28 69t68 28q41 0 68.5 -28t27.5 -69q0 -40 -27.5 -68t-68.5 -28q-40 0 -68 28t-28 68zM705 1726q0 41 28 69t68 28q41 0 68.5 -28t27.5 -69q0 -40 -27.5 -68t-68.5 -28q-40 0 -68 28 t-28 68z" />
<glyph unicode="&#xd0;" d="M82 651v127h133v656h326q120 0 215.5 -41t157 -109t102.5 -162t58.5 -194t17.5 -211q0 -105 -15.5 -201.5t-56 -192.5t-102 -166t-161 -113.5t-225.5 -43.5h-317v651h-133zM358 129h172q93 0 166 35t118.5 91.5t75 134.5t41 158t11.5 169q0 116 -21.5 218t-66 186.5 t-122 134t-179.5 49.5h-195v-527h308v-127h-308v-522z" />
<glyph unicode="&#xd1;" d="M217 0v1434h145l512 -1065q26 -58 29 -66q-2 39 -2 68v1063h143v-1434h-145l-510 1044q-15 30 -31 70q2 -33 2 -67v-1047h-143zM279 1630q0 225 190 225q49 0 99.5 -16.5t85.5 -35.5t77 -35.5t76 -16.5q39 0 66 25.5t30 70.5h78q0 -225 -188 -225q-49 0 -99.5 16 t-85.5 35t-77 35t-76 16q-40 0 -67 -25t-30 -69h-79z" />
<glyph unicode="&#xd2;" d="M170 717q0 111 14.5 213.5t49 200t86 169t131.5 115t180 43.5t180 -43.5t131.5 -115t86 -169t49 -200t14.5 -213.5t-14.5 -213.5t-49 -200t-86 -169.5t-131.5 -115.5t-180 -43.5t-180 43.5t-131.5 115.5t-86 169.5t-49 200t-14.5 213.5zM260 1888h219l291 -319h-145z M319 717q0 -122 17 -228t52 -194.5t97.5 -139.5t145.5 -51t145.5 54.5t97 146t51.5 195.5t17 217q0 122 -16.5 227.5t-51.5 194t-97.5 139.5t-145.5 51t-145.5 -54.5t-97.5 -145.5t-52 -195t-17 -217z" />
<glyph unicode="&#xd3;" d="M170 717q0 111 14.5 213.5t49 200t86 169t131.5 115t180 43.5t180 -43.5t131.5 -115t86 -169t49 -200t14.5 -213.5t-14.5 -213.5t-49 -200t-86 -169.5t-131.5 -115.5t-180 -43.5t-180 43.5t-131.5 115.5t-86 169.5t-49 200t-14.5 213.5zM319 717q0 -122 17 -228 t52 -194.5t97.5 -139.5t145.5 -51t145.5 54.5t97 146t51.5 195.5t17 217q0 122 -16.5 227.5t-51.5 194t-97.5 139.5t-145.5 51t-145.5 -54.5t-97.5 -145.5t-52 -195t-17 -217zM520 1569l291 319h219l-364 -319h-146z" />
<glyph unicode="&#xd4;" d="M170 717q0 111 14.5 213.5t49 200t86 169t131.5 115t180 43.5t180 -43.5t131.5 -115t86 -169t49 -200t14.5 -213.5t-14.5 -213.5t-49 -200t-86 -169.5t-131.5 -115.5t-180 -43.5t-180 43.5t-131.5 115.5t-86 169.5t-49 200t-14.5 213.5zM260 1569l289 319h164l288 -319 h-133l-237 207l-238 -207h-133zM319 717q0 -122 17 -228t52 -194.5t97.5 -139.5t145.5 -51t145.5 54.5t97 146t51.5 195.5t17 217q0 122 -16.5 227.5t-51.5 194t-97.5 139.5t-145.5 51t-145.5 -54.5t-97.5 -145.5t-52 -195t-17 -217z" />
<glyph unicode="&#xd5;" d="M170 717q0 111 14.5 213.5t49 200t86 169t131.5 115t180 43.5t180 -43.5t131.5 -115t86 -169t49 -200t14.5 -213.5t-14.5 -213.5t-49 -200t-86 -169.5t-131.5 -115.5t-180 -43.5t-180 43.5t-131.5 115.5t-86 169.5t-49 200t-14.5 213.5zM281 1630q0 225 190 225 q49 0 99.5 -16.5t85.5 -35.5t77 -35.5t76 -16.5q39 0 66 25.5t30 70.5h78q0 -225 -188 -225q-49 0 -99.5 16t-85.5 35t-77 35t-76 16q-40 0 -67 -25t-30 -69h-79zM319 717q0 -122 17 -228t52 -194.5t97.5 -139.5t145.5 -51t145.5 54.5t97 146t51.5 195.5t17 217 q0 122 -16.5 227.5t-51.5 194t-97.5 139.5t-145.5 51t-145.5 -54.5t-97.5 -145.5t-52 -195t-17 -217z" />
<glyph unicode="&#xd6;" d="M170 717q0 111 14.5 213.5t49 200t86 169t131.5 115t180 43.5t180 -43.5t131.5 -115t86 -169t49 -200t14.5 -213.5t-14.5 -213.5t-49 -200t-86 -169.5t-131.5 -115.5t-180 -43.5t-180 43.5t-131.5 115.5t-86 169.5t-49 200t-14.5 213.5zM319 717q0 -122 17 -228 t52 -194.5t97.5 -139.5t145.5 -51t145.5 54.5t97 146t51.5 195.5t17 217q0 122 -16.5 227.5t-51.5 194t-97.5 139.5t-145.5 51t-145.5 -54.5t-97.5 -145.5t-52 -195t-17 -217zM365 1726q0 41 28 69t68 28q41 0 68.5 -28t27.5 -69q0 -40 -27.5 -68t-68.5 -28q-40 0 -68 28 t-28 68zM705 1726q0 41 28 69t68 28q41 0 68.5 -28t27.5 -69q0 -40 -27.5 -68t-68.5 -28q-40 0 -68 28t-28 68z" />
<glyph unicode="&#xd7;" d="M178 350l357 355l-355 348l101 98l350 -350l350 352l102 -104l-352 -349l350 -354l-96 -96l-350 350l-350 -352z" />
<glyph unicode="&#xd8;" d="M61 -25l189 283q-80 189 -80 459q0 111 14.5 213.5t49 200t86 169t131.5 115t180 43.5q193 0 311 -160l107 160h151l-188 -282q80 -189 80 -459q0 -111 -14.5 -213.5t-49 -200t-86 -169.5t-131.5 -115.5t-180 -43.5q-195 0 -314 162l-108 -162h-148zM319 717 q0 -161 31 -307l508 761q-81 158 -227 158q-83 0 -145.5 -54.5t-97.5 -145.5t-52 -195t-17 -217zM401 264q82 -160 230 -160q83 0 145.5 54.5t97 146t51.5 195.5t17 217q0 175 -33 307z" />
<glyph unicode="&#xd9;" d="M180 541v893h144v-893q0 -437 307 -437t307 437v893h143v-893q0 -295 -115.5 -430.5t-334.5 -135.5q-220 0 -335.5 135.5t-115.5 430.5zM276 1888h220l290 -319h-145z" />
<glyph unicode="&#xda;" d="M180 541v893h144v-893q0 -437 307 -437t307 437v893h143v-893q0 -295 -115.5 -430.5t-334.5 -135.5q-220 0 -335.5 135.5t-115.5 430.5zM485 1583l291 320h219l-364 -320h-146z" />
<glyph unicode="&#xdb;" d="M180 541v893h144v-893q0 -437 307 -437t307 437v893h143v-893q0 -295 -115.5 -430.5t-334.5 -135.5q-220 0 -335.5 135.5t-115.5 430.5zM260 1569l289 319h164l288 -319h-133l-237 207l-238 -207h-133z" />
<glyph unicode="&#xdc;" d="M180 541v893h144v-893q0 -437 307 -437t307 437v893h143v-893q0 -295 -115.5 -430.5t-334.5 -135.5q-220 0 -335.5 135.5t-115.5 430.5zM365 1726q0 41 28 69t68 28q41 0 68.5 -28t27.5 -69q0 -40 -27.5 -68t-68.5 -28q-40 0 -68 28t-28 68zM705 1726q0 41 28 69t68 28 q41 0 68.5 -28t27.5 -69q0 -40 -27.5 -68t-68.5 -28q-40 0 -68 28t-28 68z" />
<glyph unicode="&#xdd;" d="M154 1434h157l322 -738l328 738h147l-403 -867v-567h-144v567zM516 1583l291 320h219l-364 -320h-146z" />
<glyph unicode="&#xde;" d="M217 0v1434h143v-285h269q99 0 178 -24t129.5 -63.5t83.5 -95t47 -114.5t14 -125q0 -59 -14.5 -116.5t-49 -113t-85.5 -97.5t-129 -67.5t-174 -25.5h-269v-307h-143zM360 436h281q65 0 117.5 17.5t86.5 45.5t57 66.5t32.5 78.5t9.5 83q0 50 -14.5 97.5t-46.5 93.5 t-94.5 74t-147.5 28h-281v-584z" />
<glyph unicode="&#xdf;" d="M201 -416v1395q0 101 23.5 183.5t62.5 136.5t92 90.5t109 52.5t116 16q181 0 293.5 -103.5t112.5 -271.5q0 -103 -49 -183.5t-146 -111.5q130 -45 199 -140t69 -220q0 -203 -121 -328t-309 -125q-89 0 -161 33l67 111q43 -15 98 -15q50 0 97.5 19t88.5 55.5t66 99.5 t25 142q0 58 -18 108.5t-55.5 93t-104.5 67t-156 24.5h-8v129h8q123 0 191.5 57t68.5 178q0 119 -65 185.5t-189 66.5q-116 0 -189 -85.5t-73 -258.5v-1327z" />
<glyph unicode="&#xe0;" d="M197 330q0 71 21.5 129t58 97.5t86.5 67t107 40t120 12.5q158 0 295 -74v88q0 76 -19 128.5t-53 79t-72 37.5t-86 11q-77 0 -168 -33.5t-163 -78.5l-41 122q78 47 180.5 81t206.5 34q49 0 94 -9t93 -33.5t82.5 -63.5t56.5 -105t22 -151v-709h-133v102 q-140 -127 -320 -127q-169 0 -268.5 91t-99.5 264zM279 1499h219l290 -319h-145zM330 330q0 -105 66 -167.5t184 -62.5q174 0 305 162v203q-55 36 -131.5 61t-149.5 25q-118 0 -196 -56.5t-78 -164.5z" />
<glyph unicode="&#xe1;" d="M197 330q0 71 21.5 129t58 97.5t86.5 67t107 40t120 12.5q158 0 295 -74v88q0 76 -19 128.5t-53 79t-72 37.5t-86 11q-77 0 -168 -33.5t-163 -78.5l-41 122q78 47 180.5 81t206.5 34q49 0 94 -9t93 -33.5t82.5 -63.5t56.5 -105t22 -151v-709h-133v102 q-140 -127 -320 -127q-169 0 -268.5 91t-99.5 264zM330 330q0 -105 66 -167.5t184 -62.5q174 0 305 162v203q-55 36 -131.5 61t-149.5 25q-118 0 -196 -56.5t-78 -164.5zM526 1180l291 319h219l-364 -319h-146z" />
<glyph unicode="&#xe2;" d="M197 330q0 71 21.5 129t58 97.5t86.5 67t107 40t120 12.5q158 0 295 -74v88q0 76 -19 128.5t-53 79t-72 37.5t-86 11q-77 0 -168 -33.5t-163 -78.5l-41 122q78 47 180.5 81t206.5 34q49 0 94 -9t93 -33.5t82.5 -63.5t56.5 -105t22 -151v-709h-133v102 q-140 -127 -320 -127q-169 0 -268.5 91t-99.5 264zM279 1180l288 319h164l289 -319h-133l-238 206l-237 -206h-133zM330 330q0 -105 66 -167.5t184 -62.5q174 0 305 162v203q-55 36 -131.5 61t-149.5 25q-118 0 -196 -56.5t-78 -164.5z" />
<glyph unicode="&#xe3;" d="M197 330q0 71 21.5 129t58 97.5t86.5 67t107 40t120 12.5q158 0 295 -74v88q0 76 -19 128.5t-53 79t-72 37.5t-86 11q-77 0 -168 -33.5t-163 -78.5l-41 122q78 47 180.5 81t206.5 34q49 0 94 -9t93 -33.5t82.5 -63.5t56.5 -105t22 -151v-709h-133v102 q-140 -127 -320 -127q-169 0 -268.5 91t-99.5 264zM319 1241q0 225 191 225q49 0 99.5 -16t85.5 -36t77 -36t76 -16q39 0 66 25.5t30 70.5h78q0 -225 -188 -225q-49 0 -99.5 16t-85.5 35t-77 35t-76 16q-40 0 -67 -25t-30 -69h-80zM330 330q0 -105 66 -167.5t184 -62.5 q174 0 305 162v203q-55 36 -131.5 61t-149.5 25q-118 0 -196 -56.5t-78 -164.5z" />
<glyph unicode="&#xe4;" d="M197 330q0 71 21.5 129t58 97.5t86.5 67t107 40t120 12.5q158 0 295 -74v88q0 76 -19 128.5t-53 79t-72 37.5t-86 11q-77 0 -168 -33.5t-163 -78.5l-41 122q78 47 180.5 81t206.5 34q49 0 94 -9t93 -33.5t82.5 -63.5t56.5 -105t22 -151v-709h-133v102 q-140 -127 -320 -127q-169 0 -268.5 91t-99.5 264zM330 330q0 -105 66 -167.5t184 -62.5q174 0 305 162v203q-55 36 -131.5 61t-149.5 25q-118 0 -196 -56.5t-78 -164.5zM416 1337q0 41 28 69t68 28q41 0 68.5 -28t27.5 -69q0 -40 -27.5 -68t-68.5 -28q-40 0 -68 28t-28 68z M756 1337q0 41 28 69t68 28q41 0 68.5 -28t27.5 -69q0 -40 -27.5 -68t-68.5 -28q-40 0 -68 28t-28 68z" />
<glyph unicode="&#xe5;" d="M197 330q0 71 21.5 129t58 97.5t86.5 67t107 40t120 12.5q158 0 295 -74v88q0 76 -19 128.5t-53 79t-72 37.5t-86 11q-77 0 -168 -33.5t-163 -78.5l-41 122q78 47 180.5 81t206.5 34q49 0 94 -9t93 -33.5t82.5 -63.5t56.5 -105t22 -151v-709h-133v102 q-140 -127 -320 -127q-169 0 -268.5 91t-99.5 264zM330 330q0 -105 66 -167.5t184 -62.5q174 0 305 162v203q-55 36 -131.5 61t-149.5 25q-118 0 -196 -56.5t-78 -164.5zM436 1411q0 94 70 160.5t166 66.5t165.5 -66t69.5 -161t-70 -164t-165 -69q-96 0 -166 69t-70 164z M557 1411q0 -54 34 -90.5t81 -36.5q50 0 82 36t32 91t-32 88t-82 33q-47 0 -81 -33.5t-34 -87.5z" />
<glyph unicode="&#xe6;" d="M66 330q0 170 80.5 258t203.5 88q101 0 201 -74v88q0 260 -162 260q-54 0 -118.5 -35t-112.5 -81l-31 122q53 46 126.5 80.5t145.5 34.5q83 0 141.5 -42.5t86.5 -119.5q96 162 258 162q141 0 226 -132t85 -374q0 -55 -2 -100h-524q3 -156 70 -263.5t149 -107.5 q94 0 178 96l57 -96q-111 -119 -239 -119q-86 0 -157.5 58.5t-111.5 152.5q-52 -104 -131 -157.5t-153 -53.5q-122 0 -194 91t-72 264zM190 330q0 -107 40.5 -171.5t111.5 -64.5q67 0 128 59.5t101 139.5q-20 78 -20 172q-39 39 -92 65.5t-99 26.5q-74 0 -122 -58t-48 -169z M668 590h399q0 83 -12 147.5t-31 103t-44 63t-48 33.5t-47 9q-92 0 -151.5 -91t-65.5 -265z" />
<glyph unicode="&#xe7;" d="M229 522q0 259 116.5 404t326.5 145q122 0 213 -57t135 -162l-131 -51q-62 141 -223 141q-287 0 -287 -420q0 -418 283 -418q88 0 151.5 42.5t91.5 117.5l129 -49q-35 -102 -123 -165t-211 -73l-53 -90q111 0 163 -48.5t52 -117.5q0 -88 -66 -144t-165 -56 q-113 0 -180 57l94 62q11 -14 25.5 -17.5t47.5 -3.5q43 0 76 30.5t33 74.5q0 38 -38.5 68t-86.5 30q-52 0 -74 -10l-24 30l106 135q-180 17 -280.5 159t-100.5 386z" />
<glyph unicode="&#xe8;" d="M182 524q0 258 127 402.5t342 144.5q89 0 165 -30t135.5 -90t93.5 -159t34 -227q0 -55 -4 -100h-741q20 -168 104.5 -262t218.5 -94q135 0 250 81l78 -96q-68 -54 -155.5 -86.5t-178.5 -32.5q-87 0 -162.5 28.5t-131 79.5t-95.5 120t-60 150.5t-20 170.5zM330 594h604 q-1 81 -19.5 144.5t-47 101t-67 61.5t-75 32.5t-74.5 8.5q-152 0 -232.5 -92t-88.5 -256zM436 1499h219l291 -319h-145z" />
<glyph unicode="&#xe9;" d="M182 524q0 258 127 402.5t342 144.5q89 0 165 -30t135.5 -90t93.5 -159t34 -227q0 -55 -4 -100h-741q20 -168 104.5 -262t218.5 -94q135 0 250 81l78 -96q-68 -54 -155.5 -86.5t-178.5 -32.5q-87 0 -162.5 28.5t-131 79.5t-95.5 120t-60 150.5t-20 170.5zM330 594h604 q-1 81 -19.5 144.5t-47 101t-67 61.5t-75 32.5t-74.5 8.5q-152 0 -232.5 -92t-88.5 -256zM479 1180l291 319h219l-364 -319h-146z" />
<glyph unicode="&#xea;" d="M182 524q0 258 127 402.5t342 144.5q89 0 165 -30t135.5 -90t93.5 -159t34 -227q0 -55 -4 -100h-741q20 -168 104.5 -262t218.5 -94q135 0 250 81l78 -96q-68 -54 -155.5 -86.5t-178.5 -32.5q-87 0 -162.5 28.5t-131 79.5t-95.5 120t-60 150.5t-20 170.5zM281 1180 l288 319h164l289 -319h-133l-238 206l-237 -206h-133zM330 594h604q-1 81 -19.5 144.5t-47 101t-67 61.5t-75 32.5t-74.5 8.5q-152 0 -232.5 -92t-88.5 -256z" />
<glyph unicode="&#xeb;" d="M182 524q0 258 127 402.5t342 144.5q89 0 165 -30t135.5 -90t93.5 -159t34 -227q0 -55 -4 -100h-741q20 -168 104.5 -262t218.5 -94q135 0 250 81l78 -96q-68 -54 -155.5 -86.5t-178.5 -32.5q-87 0 -162.5 28.5t-131 79.5t-95.5 120t-60 150.5t-20 170.5zM330 594h604 q-1 81 -19.5 144.5t-47 101t-67 61.5t-75 32.5t-74.5 8.5q-152 0 -232.5 -92t-88.5 -256zM385 1337q0 41 28 69t68 28q41 0 69 -28t28 -69q0 -40 -28 -68t-69 -28q-40 0 -68 28t-28 68zM725 1337q0 41 28 69t68 28q41 0 69 -28t28 -69q0 -40 -28 -68t-69 -28q-40 0 -68 28 t-28 68z" />
<glyph unicode="&#xec;" d="M240 1499h219l291 -319h-146zM303 0v129h289v823h-289v129h432v-952h289v-129h-721z" />
<glyph unicode="&#xed;" d="M303 0v129h289v823h-289v129h432v-952h289v-129h-721zM475 1180l291 319h219l-364 -319h-146z" />
<glyph unicode="&#xee;" d="M260 1180l289 319h164l288 -319h-133l-237 206l-238 -206h-133zM303 0v129h289v823h-289v129h432v-952h289v-129h-721z" />
<glyph unicode="&#xef;" d="M303 0v129h289v823h-289v129h432v-952h289v-129h-721zM365 1337q0 41 28 69t68 28q41 0 68.5 -28t27.5 -69q0 -40 -27.5 -68t-68.5 -28q-40 0 -68 28t-28 68zM705 1337q0 41 28 69t68 28q41 0 68.5 -28t27.5 -69q0 -40 -27.5 -68t-68.5 -28q-40 0 -68 28t-28 68z" />
<glyph unicode="&#xf0;" d="M182 453q0 214 127.5 347.5t321.5 133.5q210 0 303 -178q-18 140 -81 261.5t-169 203.5l-135 -144l-68 70l119 129q-115 63 -256 74v108q192 -16 336 -96l117 127l71 -72l-104 -110q147 -113 231 -305t84 -451q0 -272 -117 -424t-331 -152q-201 0 -325 135t-124 343z M332 453q0 -148 88 -248.5t211 -100.5q125 0 212 100t87 247q0 150 -85.5 252t-213.5 102q-126 0 -212.5 -100t-86.5 -252z" />
<glyph unicode="&#xf1;" d="M225 0v1047h135v-125q98 149 291 149q200 0 293.5 -117t93.5 -374v-580h-143v639q0 157 -69.5 230t-186.5 73q-129 0 -199.5 -69t-70.5 -230v-643h-144zM291 1241q0 225 190 225q49 0 99.5 -16t85.5 -36t77 -36t76 -16q39 0 66 25.5t30 70.5h78q0 -225 -188 -225 q-49 0 -99.5 16t-85.5 35t-77 35t-76 16q-40 0 -66.5 -25t-29.5 -69h-80z" />
<glyph unicode="&#xf2;" d="M147 522q0 255 132.5 402t351.5 147q220 0 351.5 -145t131.5 -402q0 -255 -132 -402t-351 -147q-220 0 -352 145t-132 402zM291 1499h219l291 -319h-146zM297 522q0 -198 86 -308t248 -110q158 0 246 111.5t88 308.5q0 198 -86 308t-248 110q-164 0 -249 -107.5 t-85 -312.5z" />
<glyph unicode="&#xf3;" d="M147 522q0 255 132.5 402t351.5 147q220 0 351.5 -145t131.5 -402q0 -255 -132 -402t-351 -147q-220 0 -352 145t-132 402zM297 522q0 -198 86 -308t248 -110q158 0 246 111.5t88 308.5q0 198 -86 308t-248 110q-164 0 -249 -107.5t-85 -312.5zM500 1180l291 319h219 l-365 -319h-145z" />
<glyph unicode="&#xf4;" d="M147 522q0 255 132.5 402t351.5 147q220 0 351.5 -145t131.5 -402q0 -255 -132 -402t-351 -147q-220 0 -352 145t-132 402zM260 1180l289 319h164l288 -319h-133l-237 206l-238 -206h-133zM297 522q0 -198 86 -308t248 -110q158 0 246 111.5t88 308.5q0 198 -86 308 t-248 110q-164 0 -249 -107.5t-85 -312.5z" />
<glyph unicode="&#xf5;" d="M147 522q0 255 132.5 402t351.5 147q220 0 351.5 -145t131.5 -402q0 -255 -132 -402t-351 -147q-220 0 -352 145t-132 402zM281 1241q0 225 190 225q49 0 99.5 -16t85.5 -36t77 -36t76 -16q39 0 66 25.5t30 70.5h78q0 -225 -188 -225q-49 0 -99.5 16t-85.5 35t-77 35 t-76 16q-40 0 -67 -25t-30 -69h-79zM297 522q0 -198 86 -308t248 -110q158 0 246 111.5t88 308.5q0 198 -86 308t-248 110q-164 0 -249 -107.5t-85 -312.5z" />
<glyph unicode="&#xf6;" d="M147 522q0 255 132.5 402t351.5 147q220 0 351.5 -145t131.5 -402q0 -255 -132 -402t-351 -147q-220 0 -352 145t-132 402zM297 522q0 -198 86 -308t248 -110q158 0 246 111.5t88 308.5q0 198 -86 308t-248 110q-164 0 -249 -107.5t-85 -312.5zM365 1337q0 41 28 69 t68 28q41 0 68.5 -28t27.5 -69q0 -40 -27.5 -68t-68.5 -28q-40 0 -68 28t-28 68zM705 1337q0 41 28 69t68 28q41 0 68.5 -28t27.5 -69q0 -40 -27.5 -68t-68.5 -28q-40 0 -68 28t-28 68z" />
<glyph unicode="&#xf7;" d="M150 631v139h962v-139h-962zM526 274q0 42 28.5 71.5t70.5 29.5q44 0 74 -29.5t30 -71.5q0 -40 -30 -67t-74 -27q-43 0 -71 27t-28 67zM526 1124q0 40 28.5 70.5t70.5 30.5q43 0 73.5 -31t30.5 -70q0 -41 -30 -69.5t-74 -28.5q-43 0 -71 28t-28 70z" />
<glyph unicode="&#xf8;" d="M147 522q0 255 132.5 402t351.5 147q147 0 262 -70l49 70h135l-98 -141q135 -144 135 -406q0 -255 -132 -402t-351 -147q-153 0 -266 72l-50 -72h-133l99 144q-134 147 -134 403zM297 522q0 -176 68 -282l452 651q-79 51 -186 51q-164 0 -249 -107.5t-85 -312.5zM442 158 q79 -54 189 -54q158 0 246 111.5t88 308.5q0 181 -70 285z" />
<glyph unicode="&#xf9;" d="M223 479v568h148v-625q0 -162 67.5 -237.5t182.5 -75.5q268 0 268 309v629h147v-1047h-147v104q-55 -72 -117 -100.5t-151 -28.5q-211 0 -304.5 118.5t-93.5 385.5zM283 1499h219l291 -319h-146z" />
<glyph unicode="&#xfa;" d="M223 479v568h148v-625q0 -162 67.5 -237.5t182.5 -75.5q268 0 268 309v629h147v-1047h-147v104q-55 -72 -117 -100.5t-151 -28.5q-211 0 -304.5 118.5t-93.5 385.5zM471 1180l291 319h219l-365 -319h-145z" />
<glyph unicode="&#xfb;" d="M223 479v568h148v-625q0 -162 67.5 -237.5t182.5 -75.5q268 0 268 309v629h147v-1047h-147v104q-55 -72 -117 -100.5t-151 -28.5q-211 0 -304.5 118.5t-93.5 385.5zM252 1180l289 319h164l288 -319h-133l-237 206l-238 -206h-133z" />
<glyph unicode="&#xfc;" d="M223 479v568h148v-625q0 -162 67.5 -237.5t182.5 -75.5q268 0 268 309v629h147v-1047h-147v104q-55 -72 -117 -100.5t-151 -28.5q-211 0 -304.5 118.5t-93.5 385.5zM356 1337q0 41 28.5 69t68.5 28q41 0 68.5 -28t27.5 -69q0 -40 -27.5 -68t-68.5 -28q-40 0 -68.5 28 t-28.5 68zM696 1337q0 41 28.5 69t68.5 28q41 0 68.5 -28t27.5 -69q0 -40 -27.5 -68t-68.5 -28q-40 0 -68.5 28t-28.5 68z" />
<glyph unicode="&#xfd;" d="M178 1047h146l264 -744q11 -34 35 -106l36 106l269 744h153l-534 -1444h-141l155 430zM485 1180l291 319h219l-364 -319h-146z" />
<glyph unicode="&#xfe;" d="M225 -430v1819l148 71v-477q65 58 132 90.5t165 32.5q206 0 326 -153t120 -410q0 -266 -123.5 -417t-322.5 -151q-105 0 -174.5 36.5t-122.5 99.5v-467zM373 274q130 -165 280 -165q148 0 229 112t81 322q0 198 -83 314t-227 116q-88 0 -162 -44t-118 -122v-533z" />
<glyph unicode="&#xff;" d="M178 1047h146l264 -744q11 -34 35 -106l36 106l269 744h153l-534 -1444h-141l155 430zM358 1337q0 41 28.5 69t68.5 28q41 0 68.5 -28t27.5 -69q0 -40 -27.5 -68t-68.5 -28q-40 0 -68.5 28t-28.5 68zM698 1337q0 41 28.5 69t68.5 28q41 0 68.5 -28t27.5 -69 q0 -40 -27.5 -68t-68.5 -28q-40 0 -68.5 28t-28.5 68z" />
<glyph unicode="&#x152;" d="M37 721q0 113 14.5 216.5t49 201t86 169t131.5 115t180 43.5q78 0 139 -24h573v-137h-438v-449h324v-135h-324v-584h463v-137h-596q-67 -25 -141 -25q-100 0 -180 43.5t-131.5 115t-86 169.5t-49 201.5t-14.5 216.5zM186 721q0 -125 17 -231.5t52 -195t97.5 -139.5 t145.5 -51q76 0 131 43v1149q-56 41 -131 41q-83 0 -145.5 -54.5t-97.5 -145.5t-52 -196t-17 -220z" />
<glyph unicode="&#x153;" d="M51 522q0 267 88 408t238 141q92 0 155.5 -55.5t108.5 -161.5q41 106 111 161.5t157 55.5q130 0 213.5 -127.5t83.5 -378.5q0 -55 -4 -100h-502q12 -169 67.5 -270t145.5 -101q86 0 168 101l56 -101q-46 -53 -105.5 -86t-122.5 -33q-88 0 -157.5 56t-110.5 151 q-39 -94 -107 -150.5t-159 -56.5q-151 0 -237.5 138.5t-86.5 408.5zM176 522q0 -199 53.5 -313.5t145.5 -114.5q94 0 150.5 115t56.5 315q0 201 -54 314.5t-153 113.5q-94 0 -146.5 -111t-52.5 -319zM698 584h387q0 106 -16.5 182.5t-44 114.5t-56 54.5t-59.5 16.5 q-90 0 -147.5 -93t-63.5 -275z" />
<glyph unicode="&#x178;" d="M154 1434h157l322 -738l328 738h147l-403 -867v-567h-144v567zM365 1726q0 41 28 69t68 28q41 0 68.5 -28t27.5 -69q0 -40 -27.5 -68t-68.5 -28q-40 0 -68 28t-28 68zM705 1726q0 41 28 69t68 28q41 0 68.5 -28t27.5 -69q0 -40 -27.5 -68t-68.5 -28q-40 0 -68 28t-28 68z " />
<glyph unicode="&#x2c6;" d="M260 1180l289 319h164l288 -319h-133l-237 206l-238 -206h-133z" />
<glyph unicode="&#x2dc;" d="M279 1241q0 225 190 225q49 0 99.5 -16t85.5 -36t77 -36t76 -16q39 0 66 25.5t30 70.5h78q0 -225 -188 -225q-49 0 -99.5 16t-85.5 35t-77 35t-76 16q-40 0 -67 -25t-30 -69h-79z" />
<glyph unicode="&#x2000;" horiz-adv-x="951" />
<glyph unicode="&#x2001;" horiz-adv-x="1903" />
<glyph unicode="&#x2002;" horiz-adv-x="951" />
<glyph unicode="&#x2003;" horiz-adv-x="1903" />
<glyph unicode="&#x2004;" horiz-adv-x="634" />
<glyph unicode="&#x2005;" horiz-adv-x="475" />
<glyph unicode="&#x2006;" horiz-adv-x="317" />
<glyph unicode="&#x2007;" horiz-adv-x="317" />
<glyph unicode="&#x2008;" horiz-adv-x="237" />
<glyph unicode="&#x2009;" horiz-adv-x="380" />
<glyph unicode="&#x200a;" horiz-adv-x="105" />
<glyph unicode="&#x2010;" d="M150 541v139h962v-139h-962z" />
<glyph unicode="&#x2011;" d="M150 541v139h962v-139h-962z" />
<glyph unicode="&#x2012;" d="M150 541v139h962v-139h-962z" />
<glyph unicode="&#x2013;" d="M225 526v123h809v-123h-809z" />
<glyph unicode="&#x2014;" d="M10 526v123h1241v-123h-1241z" />
<glyph unicode="&#x2018;" d="M494 1118q0 116 56 229t130 173l80 -21q-53 -62 -90.5 -144t-38.5 -147q60 -3 97.5 -38.5t37.5 -92.5t-38 -94t-93 -37q-60 0 -100.5 44.5t-40.5 127.5z" />
<glyph unicode="&#x2019;" d="M494 1389q0 57 38 94t93 37q60 0 100.5 -44.5t40.5 -127.5q0 -116 -56 -229t-130 -173l-80 21q53 63 90.5 144t38.5 146q-60 3 -97.5 39t-37.5 93z" />
<glyph unicode="&#x201a;" d="M494 92q0 57 38 94t93 37q60 0 100.5 -44.5t40.5 -127.5q0 -116 -56 -228.5t-130 -172.5l-80 20q53 62 90.5 144t38.5 147q-60 3 -97.5 38.5t-37.5 92.5z" />
<glyph unicode="&#x201c;" d="M293 1118q0 116 56 229t130 173l80 -21q-53 -62 -90.5 -144t-38.5 -147q60 -3 97.5 -38.5t37.5 -92.5t-38 -94t-93 -37q-60 0 -100.5 44.5t-40.5 127.5zM694 1118q0 116 56 229t131 173l80 -21q-53 -63 -91 -144.5t-39 -146.5q60 -3 98 -38.5t38 -92.5t-38 -94t-93 -37 q-60 0 -101 44.5t-41 127.5z" />
<glyph unicode="&#x201d;" d="M295 1389q0 57 38 94t93 37q60 0 100.5 -44.5t40.5 -127.5q0 -116 -56 -229t-130 -173l-80 21q53 63 90.5 144t38.5 146q-60 3 -97.5 39t-37.5 93zM694 1389q0 57 38 94t93 37q60 0 101 -44.5t41 -127.5q0 -116 -56 -229t-131 -173l-80 21q53 63 90.5 144t38.5 146 q-60 3 -97.5 39t-37.5 93z" />
<glyph unicode="&#x201e;" d="M295 92q0 57 38 94t93 37q60 0 100.5 -44.5t40.5 -127.5q0 -116 -56 -228.5t-130 -172.5l-80 20q53 62 90.5 144t38.5 147q-60 3 -97.5 38.5t-37.5 92.5zM694 92q0 57 38 94t93 37q60 0 101 -44.5t41 -127.5q0 -116 -56 -228.5t-131 -172.5l-80 20q53 62 90.5 144 t38.5 147q-60 3 -97.5 38.5t-37.5 92.5z" />
<glyph unicode="&#x2022;" d="M358 717q0 114 78.5 193t192.5 79t194 -79t80 -193t-80 -193.5t-194 -79.5t-192.5 79.5t-78.5 193.5z" />
<glyph unicode="&#x2026;" d="M82 100q0 51 37.5 90t91.5 39t91.5 -39t37.5 -90t-37.5 -90t-91.5 -39t-91.5 39t-37.5 90zM502 100q0 51 37.5 90t91.5 39t91.5 -39t37.5 -90t-37.5 -90t-91.5 -39t-91.5 39t-37.5 90zM922 100q0 51 37.5 90t91.5 39t91.5 -39t37.5 -90t-37.5 -90t-91.5 -39t-91.5 39 t-37.5 90z" />
<glyph unicode="&#x202f;" horiz-adv-x="380" />
<glyph unicode="&#x2039;" d="M395 524l312 523h159l-311 -523l311 -524h-159z" />
<glyph unicode="&#x203a;" d="M395 0l312 524l-312 523h160l311 -523l-311 -524h-160z" />
<glyph unicode="&#x205f;" horiz-adv-x="475" />
<glyph unicode="&#x20ac;" d="M94 475l56 119h77q-4 39 -4 119q0 65 2 98h-131l56 119h92q19 109 59 200t103 166.5t159.5 118.5t216.5 43q188 0 336 -96l-55 -131q-112 94 -285 94q-87 0 -154.5 -32t-111.5 -89t-71 -124t-42 -150h539l-49 -119h-506q-4 -45 -4 -133q0 -55 4 -84h416l-49 -119h-349 q16 -74 44 -136.5t70 -115.5t104 -83.5t137 -30.5q187 0 297 147l114 -72q-57 -88 -161 -148.5t-246 -60.5q-117 0 -209 37.5t-153 106.5t-98.5 157t-55.5 199h-148z" />
<glyph unicode="&#x2122;" d="M31 1327v107h532v-107h-209v-758h-114v758h-209zM610 569v865h103l192 -557l17 -58l16 58l192 557h101v-865h-115v508l-24 -78l-158 -430h-25l-159 430l-25 82v-512h-115z" />
<glyph unicode="&#x25fc;" horiz-adv-x="1044" d="M0 0v1044h1044v-1044h-1044z" />
<glyph unicode="&#xfb01;" horiz-adv-x="2523" d="M285 0v129h217v789h-217v129h217v157q0 70 22 120.5t61.5 79t87.5 41.5t107 13q111 0 219 -49v-129q-92 45 -204 45q-42 0 -71 -8t-44.5 -19t-23.5 -32.5t-9.5 -38t-1.5 -45.5v-135h279v-129h-279v-789h279v-129h-639zM1565 0v129h288v789h-288v129h432v-918h289v-129 h-721zM1831 1356q0 41 27 69.5t67 28.5q41 0 67.5 -28t26.5 -70q0 -40 -26.5 -67t-67.5 -27q-40 0 -67 27t-27 67z" />
<glyph unicode="&#xfb02;" horiz-adv-x="2523" d="M285 0v129h217v789h-217v129h217v157q0 70 22 120.5t61.5 79t87.5 41.5t107 13q111 0 219 -49v-129q-92 45 -204 45q-42 0 -71 -8t-44.5 -19t-23.5 -32.5t-9.5 -38t-1.5 -45.5v-135h279v-129h-279v-789h279v-129h-639zM1534 1479h463v-1350h289v-129h-721v129h288v1221 h-256z" />
</font>
</defs>
</svg>
