<?xml version="1.0" standalone="no"?>
<!DOCTYPE svg PUBLIC "-//W3C//DTD SVG 1.1//EN" "http://www.w3.org/Graphics/SVG/1.1/DTD/svg11.dtd" >
<svg xmlns="http://www.w3.org/2000/svg" xmlns:xlink="http://www.w3.org/1999/xlink" version="1.1">
<metadata></metadata>
<defs>
<font id="overpass_monosemibold" horiz-adv-x="1261" >
<font-face units-per-em="2048" ascent="1536" descent="-512" />
<missing-glyph horiz-adv-x="500" />
<glyph />
<glyph />
<glyph horiz-adv-x="682" />
<glyph unicode=" " />
<glyph unicode="!" d="M477 125q0 63 44.5 108.5t109.5 45.5q64 0 108.5 -46t44.5 -108q0 -61 -44.5 -106.5t-108.5 -45.5q-65 0 -109.5 45.5t-44.5 106.5zM528 1006v452h207v-452l-45 -611h-117z" />
<glyph unicode="&#x22;" d="M311 1434h250l-43 -572h-166zM700 1434h250l-43 -572h-166z" />
<glyph unicode="#" d="M23 389l28 180h234l49 326h-228l27 178h227l56 361h186l-55 -361h270l55 361h187l-55 -361h235l-27 -178h-235l-51 -326h229l-29 -180h-227l-59 -389h-187l60 389h-269l-59 -389h-186l59 389h-235zM471 569h268l52 326h-271z" />
<glyph unicode="$" d="M156 315l192 72q42 -98 121.5 -155.5t181.5 -57.5q111 0 175.5 56t64.5 161q0 53 -22.5 97t-65.5 77.5t-89 57.5t-110 49q-50 20 -82 33.5t-78.5 37.5t-77 46t-64.5 55t-53.5 69t-32.5 83.5t-13 101.5q0 132 88.5 230t243.5 122v162h206v-164q118 -24 196 -95.5 t107 -172.5l-190 -64q-27 65 -86.5 105.5t-146.5 40.5q-95 0 -148 -43.5t-53 -118.5q0 -43 20.5 -78.5t64 -64.5t83 -48t104.5 -45q48 -19 83 -34t81.5 -40t79 -50t67 -61.5t55.5 -77t34.5 -94t13.5 -114.5q0 -172 -100.5 -278.5t-264.5 -130.5v-179h-206v183 q-140 27 -238.5 114t-140.5 213z" />
<glyph unicode="%" d="M23 1090q0 44 9.5 87.5t32 87.5t55.5 77t84.5 54t114.5 21q78 0 137.5 -29t93 -77.5t50 -104t16.5 -116.5q0 -45 -9.5 -89t-32 -88t-55.5 -77.5t-84.5 -54.5t-115.5 -21q-78 0 -137.5 29.5t-92.5 78.5t-49.5 105t-16.5 117zM49 -25l979 1483h176l-977 -1483h-178z M166 1090q0 -91 39 -146t114 -55q74 0 114 58t40 143q0 90 -39.5 144t-114.5 54t-114 -56.5t-39 -141.5zM647 346q0 56 16.5 110.5t49.5 105t93 81.5t138 31t137.5 -29t93 -77t50 -104t16.5 -118q0 -57 -16 -112.5t-49 -105.5t-93 -81t-139 -31q-63 0 -114.5 19.5t-85 51.5 t-56 75.5t-32 89t-9.5 94.5zM791 346q0 -92 38 -146.5t115 -54.5q74 0 114 58t40 143q0 91 -40 145t-114 54q-75 0 -114 -56.5t-39 -142.5z" />
<glyph unicode="&#x26;" d="M20 371q0 65 18.5 122.5t46.5 100t73 83.5t85.5 68.5t96.5 59.5q-81 108 -116.5 185t-35.5 155q0 145 99 229t250 84q150 0 246 -87.5t96 -229.5q0 -63 -20 -118t-58.5 -100t-80.5 -79.5t-99 -71.5l235 -293q41 103 47 207h199q-9 -203 -111 -377l250 -309h-262l-117 147 q-180 -172 -424 -172q-189 0 -303.5 108.5t-114.5 287.5zM227 385q0 -97 67 -157t177 -60q153 0 272 129l-294 371q-52 -33 -87 -60.5t-68.5 -62.5t-50 -75t-16.5 -85zM381 1147q0 -49 28 -100t103 -144q84 54 129 108.5t45 125.5t-44.5 113t-111.5 42q-68 0 -108.5 -39 t-40.5 -106z" />
<glyph unicode="'" d="M506 1434h250l-43 -572h-166z" />
<glyph unicode="(" d="M395 582q0 149 33 287t91 246.5t125.5 193t146.5 149.5h200q-40 -33 -86 -85.5t-102 -137.5t-99.5 -180t-73.5 -220.5t-30 -252.5t29.5 -251.5t70.5 -213.5t96.5 -172.5t95 -128.5t77.5 -82h-201q-373 329 -373 848z" />
<glyph unicode=")" d="M272 1458h201q79 -65 146.5 -149.5t125 -193t90.5 -246.5t33 -287q0 -520 -372 -848h-201q39 38 77 82t94 128.5t97 173t71 213t30 251.5t-30 252.5t-74.5 220.5t-100.5 180.5t-101.5 137t-85.5 85.5z" />
<glyph unicode="*" d="M156 604v195h223l149 -33l-108 100l-127 195l160 106l141 -213l37 -137l39 137l141 213l160 -106l-127 -195l-111 -100l150 33h223v-195h-223l-150 35l111 -102l127 -195l-160 -106l-141 213l-39 139l-39 -139l-141 -213l-160 106l127 195l110 102l-149 -35h-223z" />
<glyph unicode="+" d="M150 602v199h376v383h207v-383h379v-199h-379v-381h-207v381h-376z" />
<glyph unicode="," d="M475 -319q47 54 85.5 132t45.5 158q-57 9 -92 47.5t-35 98.5q0 67 45 109t107 42q68 0 112.5 -48.5t44.5 -139.5q0 -141 -66.5 -265.5t-150.5 -185.5z" />
<glyph unicode="-" d="M150 510v197h962v-197h-962z" />
<glyph unicode="." d="M479 123q0 61 44 105t108 44t107.5 -44t43.5 -105q0 -62 -43.5 -106t-107.5 -44t-108 44t-44 106z" />
<glyph unicode="/" d="M125 -266l805 1724h207l-805 -1724h-207z" />
<glyph unicode="0" d="M121 717q0 106 13.5 204t49.5 198t91.5 173t147 119.5t208.5 46.5q114 0 203.5 -43.5t146 -115t93.5 -169.5t52 -199.5t15 -213.5q0 -106 -14 -204t-50 -198t-92 -173.5t-147 -120t-207 -46.5q-114 0 -203.5 43.5t-146 115t-93.5 170t-52 200t-15 213.5zM334 717 q0 -109 14 -200.5t46.5 -172t92.5 -126.5t144 -46q70 0 123.5 33t85.5 85.5t52 126.5t27 146t7 154q0 85 -8 160t-29 148t-53.5 124.5t-84.5 83t-120 31.5q-58 0 -105 -22.5t-79 -64t-54.5 -93t-35 -115t-18 -124.5t-5.5 -128zM492 717q0 57 40 98t99 41t99 -41t40 -98 q0 -58 -40 -98.5t-99 -40.5t-99 40.5t-40 98.5z" />
<glyph unicode="1" d="M172 0v203h356v960l-313 -96v201l524 170v-1235h351v-203h-918z" />
<glyph unicode="2" d="M168 0q0 115 25.5 214t64 169.5t100.5 135.5t119.5 108t136.5 92q50 34 78 54t67 54t59 62.5t35 69t15 83.5q0 99 -60.5 160.5t-162.5 61.5q-107 0 -177.5 -52.5t-100.5 -144.5l-189 84q46 137 172.5 222t292.5 85q202 0 320 -114.5t118 -299.5q0 -55 -11 -104.5 t-27.5 -88t-46.5 -76.5t-57 -65.5t-71 -60.5t-76.5 -54t-84.5 -54q-128 -82 -205.5 -162t-93.5 -176h686v-203h-926z" />
<glyph unicode="3" d="M154 311l192 78q89 -215 287 -215q114 0 188 60.5t74 171.5q0 109 -69.5 175t-200.5 66h-119v197h108q103 0 165.5 57.5t62.5 153.5q0 93 -59.5 150t-151.5 57q-88 0 -148 -50.5t-94 -126.5l-192 74q55 133 166 216t268 83q184 0 304 -107.5t120 -273.5q0 -99 -47.5 -181 t-130.5 -130q104 -41 167.5 -135t63.5 -223q0 -194 -136 -313.5t-343 -119.5q-181 0 -298.5 89.5t-176.5 246.5z" />
<glyph unicode="4" d="M98 338v125l693 971h188v-908h190v-188h-190v-338h-207v338h-674zM371 526h401v590z" />
<glyph unicode="5" d="M158 135l116 162q68 -59 140 -92t174 -33q133 0 218 83.5t85 211.5q0 122 -65 198t-177 76q-151 0 -254 -118l-188 79l78 732h737v-197h-553l-49 -381q105 84 250 84q199 0 316.5 -132t117.5 -335q0 -103 -37.5 -194t-103.5 -158.5t-163 -106.5t-210 -39q-145 0 -256 47 t-176 113z" />
<glyph unicode="6" d="M139 530q0 130 33 253.5t99 232.5t159.5 197.5t219.5 152t274 92.5v-186q-119 -29 -226 -95t-187 -165.5t-110 -212.5q44 47 115 73.5t160 26.5q192 0 319 -132t127 -321q0 -203 -138.5 -337t-346.5 -134q-159 0 -273.5 74t-169.5 198t-55 283zM350 436 q0 -117 80.5 -190.5t202.5 -73.5q125 0 203.5 73t78.5 191q0 122 -77.5 196.5t-204.5 74.5q-124 0 -203.5 -76t-79.5 -195z" />
<glyph unicode="7" d="M170 1239v195h922v-168q-101 -115 -179.5 -253.5t-126 -269.5t-78 -270.5t-42 -252.5t-11.5 -220h-211q2 356 96 654.5t310 584.5h-680z" />
<glyph unicode="8" d="M127 418q0 127 70 225t186 145q-86 40 -140.5 118.5t-54.5 176.5q0 161 123 268t320 107q195 0 318.5 -107t123.5 -268q0 -98 -54 -175.5t-142 -116.5q116 -47 187 -146.5t71 -226.5q0 -194 -140 -318.5t-364 -124.5t-364 124.5t-140 318.5zM340 430q0 -120 81 -192 t210 -72q127 0 209 72t82 192q0 112 -82 189t-209 77q-128 0 -209.5 -77t-81.5 -189zM399 1065q0 -86 63 -140.5t169 -54.5q103 0 167 54.5t64 140.5q0 93 -64.5 150t-166.5 57q-103 0 -167.5 -57t-64.5 -150z" />
<glyph unicode="9" d="M139 991q0 205 140.5 336t355.5 131q122 0 216.5 -42t153 -117t88 -175t29.5 -221q0 -180 -50.5 -338.5t-144 -282t-236.5 -204.5t-320 -103v189q188 34 330 162.5t182 322.5q-100 -108 -293 -108q-194 0 -322.5 127t-128.5 323zM346 999q0 -122 76.5 -196t206.5 -74 q128 0 206 74.5t78 195.5q0 116 -79.5 191.5t-202.5 75.5q-129 0 -207 -75t-78 -192z" />
<glyph unicode=":" d="M479 123q0 61 44 105t108 44t107.5 -44t43.5 -105q0 -62 -43.5 -106t-107.5 -44t-108 44t-44 106zM479 844q0 61 44 105t108 44t107.5 -44t43.5 -105q0 -62 -43.5 -106t-107.5 -44t-108 44t-44 106z" />
<glyph unicode=";" d="M475 -319q47 54 85.5 132t45.5 158q-57 9 -92 47.5t-35 98.5q0 67 45 109t107 42q68 0 112.5 -48.5t44.5 -139.5q0 -141 -66.5 -265.5t-150.5 -185.5zM479 844q0 61 44 105t108 44t107.5 -44t43.5 -105q0 -62 -43.5 -106t-107.5 -44t-108 44t-44 106z" />
<glyph unicode="&#x3c;" d="M150 621v176l962 391v-207l-684 -270l684 -273v-207z" />
<glyph unicode="=" d="M150 367v202h962v-202h-962zM150 836v202h962v-202h-962z" />
<glyph unicode="&#x3e;" d="M150 236v206l686 273l-686 272v207l962 -391v-176z" />
<glyph unicode="?" d="M180 1004q0 207 126.5 330.5t338.5 123.5q206 0 322 -111.5t116 -283.5q0 -71 -19.5 -129.5t-51.5 -98.5t-70 -75t-76 -68t-70 -68.5t-51.5 -85.5t-19.5 -110v-59h-207v59q0 78 20 142.5t51.5 108.5t70 81.5t76.5 70t69.5 65t51.5 75.5t20 94q0 87 -61.5 143t-170.5 56 q-126 0 -195 -70t-69 -190h-201zM471 123q0 61 43 105t107 44t107.5 -44t43.5 -105q0 -62 -43.5 -106t-107.5 -44t-107 44t-43 106z" />
<glyph unicode="@" d="M63 690q0 165 47.5 309.5t128 244.5t189.5 157t229 57q160 0 284 -79.5t190.5 -218.5t66.5 -314q0 -224 -87 -372t-214 -148q-52 0 -91.5 34.5t-51.5 96.5q-62 -140 -183 -140q-101 0 -166 97.5t-65 253.5q0 103 36 199.5t106 160.5t157 64q59 0 100 -37.5t56 -104.5 l14 115h131l-59 -420q-13 -76 -13 -100q0 -70 52 -70q63 0 107 104.5t44 268.5q0 218 -113 349.5t-294 131.5q-134 0 -240.5 -83t-165.5 -229t-59 -329q0 -262 119.5 -419.5t324.5 -157.5q117 0 223 39l-35 -152q-97 -23 -196 -23q-123 0 -227.5 48t-181.5 137.5t-120 225.5 t-43 304zM479 664q0 -91 32 -145t87 -54q71 0 116.5 84t45.5 196q0 90 -32.5 144.5t-82.5 54.5q-74 0 -120 -81t-46 -199z" />
<glyph unicode="A" d="M66 0l469 1434h190l473 -1434h-223l-103 334h-481l-100 -334h-225zM451 524h362l-145 475q-25 83 -37 150q-12 -67 -37 -150z" />
<glyph unicode="B" d="M176 0v1434h449q123 0 213.5 -32t140.5 -87t73 -119.5t23 -140.5q0 -101 -51 -179.5t-147 -119.5q117 -36 183 -127.5t66 -214.5q0 -62 -14.5 -119.5t-49.5 -112t-87.5 -94.5t-134.5 -64t-185 -24h-479zM387 195h287q69 0 119 18.5t76.5 50.5t38.5 67.5t12 76.5 q0 239 -308 239h-225v-452zM387 840h203q137 0 207.5 54t70.5 150q0 197 -235 197h-246v-401z" />
<glyph unicode="C" d="M115 717q0 111 19.5 215.5t62.5 200.5t106 168t157 114.5t208 42.5q84 0 154.5 -23.5t121 -64t85 -87.5t58.5 -103l-188 -93q-45 85 -97.5 129t-133.5 44q-89 0 -156 -49t-104.5 -130.5t-55.5 -173t-18 -190.5q0 -104 20.5 -198.5t59.5 -173t105 -125t149 -46.5 q84 0 140.5 47.5t98.5 136.5l191 -73q-37 -90 -92 -156.5t-142.5 -110t-195.5 -43.5q-116 0 -211 42.5t-157.5 113.5t-105 167.5t-61 201t-18.5 217.5z" />
<glyph unicode="D" d="M176 0v1434h348q133 0 240 -40.5t177.5 -109t117.5 -162t67.5 -194t20.5 -211.5q0 -104 -18.5 -201t-65 -192.5t-116 -166t-181 -114t-250.5 -43.5h-340zM385 197h147q87 0 156.5 31t114 81.5t74 119.5t41.5 140t12 148q0 101 -22 192t-65.5 166t-117.5 119.5t-170 44.5 h-170v-1042z" />
<glyph unicode="E" d="M176 0v1434h879v-199h-668v-395h444v-199h-444v-440h713v-201h-924z" />
<glyph unicode="F" d="M176 0v1434h934v-199h-723v-395h516v-199h-516v-641h-211z" />
<glyph unicode="G" d="M119 717q0 113 20.5 219.5t64.5 201.5t106 166t152 112.5t197 41.5q85 0 153.5 -21.5t118 -62.5t83 -83.5t65.5 -100.5l-186 -107q-45 83 -99.5 131t-134.5 48q-85 0 -150 -49.5t-101.5 -131t-54 -173.5t-17.5 -191q0 -107 19.5 -203t58 -173t101.5 -122t144 -45 q116 0 180 80.5t64 214.5v49h-254v195h471v-185q0 -260 -129.5 -406.5t-331.5 -146.5q-110 0 -200.5 41.5t-152.5 111.5t-105 165.5t-62.5 202t-19.5 221.5z" />
<glyph unicode="H" d="M176 0v1434h211v-592h490v592h208v-1434h-208v643h-490v-643h-211z" />
<glyph unicode="I" d="M213 0v188h313v1057h-313v189h838v-189h-316v-1057h316v-188h-838z" />
<glyph unicode="J" d="M182 256l176 86q44 -88 101 -128t157 -40q40 0 74.5 8t68 29.5t57 55t38 87t14.5 123.5v957h211v-957q0 -116 -29 -206t-74.5 -144.5t-108.5 -90t-124 -48.5t-127 -13q-155 0 -265.5 73t-168.5 208z" />
<glyph unicode="K" d="M176 0v1434h211v-578l453 578h243l-405 -506l498 -928h-242l-397 750l-150 -187v-563h-211z" />
<glyph unicode="L" d="M176 0v1434h211v-1231h672v-203h-883z" />
<glyph unicode="M" d="M176 0v1434h213l211 -822q28 -109 33 -145q9 64 33 145l215 822h204v-1434h-186v840q0 88 4 123q-21 -73 -35 -123l-225 -840h-25l-225 840q-6 24 -19 68t-16 55q4 -70 4 -123v-840h-186z" />
<glyph unicode="N" d="M176 0v1434h203l469 -945q35 -66 43 -88q-4 78 -4 88v945h198v-1434h-194l-475 940q-3 7 -20.5 40t-24.5 50q4 -33 4 -88v-942h-199z" />
<glyph unicode="O" d="M115 717q0 116 17.5 221.5t57.5 201t98.5 165.5t146.5 111.5t196 41.5t196.5 -41.5t147 -111.5t98 -165.5t57 -201t17.5 -221.5t-17.5 -221.5t-57 -201.5t-98 -166t-147 -111.5t-196.5 -41.5t-196 41.5t-146.5 111.5t-98.5 166t-57.5 201.5t-17.5 221.5zM334 717 q0 -111 17 -206t51.5 -172t93 -121t135.5 -44t136 47t93.5 125.5t52 172.5t17.5 198q0 112 -17 207t-51.5 172.5t-93.5 121.5t-137 44q-77 0 -136 -47t-93 -126.5t-51 -173.5t-17 -198z" />
<glyph unicode="P" d="M176 0v1434h475q127 0 221.5 -37.5t147 -101.5t77.5 -138.5t25 -159.5q0 -63 -16 -123t-52.5 -117.5t-89.5 -100.5t-134 -69t-179 -26h-264v-561h-211zM387 756h277q65 0 114.5 21t77 56.5t40.5 76.5t13 87q0 42 -12 81.5t-37.5 77t-76 60.5t-119.5 23h-277v-483z" />
<glyph unicode="Q" d="M115 717q0 116 17.5 221.5t57.5 201t98.5 165.5t146.5 111.5t196 41.5t196.5 -41.5t147 -111.5t98 -165.5t57 -201t17.5 -221.5q0 -190 -50 -353.5t-151 -263.5l109 -161l-152 -105l-112 168q-71 -27 -160 -27q-108 0 -196 41.5t-146.5 111.5t-98.5 166t-57.5 201.5 t-17.5 221.5zM334 717q0 -111 17 -206t51.5 -172t93 -121t135.5 -44q17 0 41 4l-99 146l156 104l96 -143q52 75 78.5 190t26.5 242q0 112 -17 207t-51.5 172.5t-93.5 121.5t-137 44q-77 0 -136 -47t-93 -126.5t-51 -173.5t-17 -198z" />
<glyph unicode="R" d="M176 0v1434h467q102 0 182.5 -23.5t132 -62.5t85 -94t47.5 -114t14 -126q0 -89 -30.5 -168.5t-100.5 -144.5t-170 -93l297 -608h-234l-286 588h-193v-588h-211zM387 784h260q129 0 187.5 65t58.5 161q0 42 -11.5 79.5t-37.5 72.5t-76.5 56t-120.5 21h-260v-455z" />
<glyph unicode="S" d="M160 317l194 72q44 -99 125 -158t180 -59q104 0 165 55.5t61 159.5q0 48 -23 90.5t-66 77.5t-90.5 62t-111.5 55q-67 30 -110.5 52t-101.5 61.5t-92 79.5t-58.5 100t-24.5 129q0 154 116 259t306 105q152 0 261 -77.5t144 -200.5l-190 -64q-28 64 -87.5 106t-138.5 42 q-88 0 -143 -46.5t-55 -123.5q0 -53 42.5 -98.5t82.5 -67t134 -64.5q14 -7 21 -10q65 -30 110.5 -54.5t104.5 -68t95 -88t62 -110t26 -140.5q0 -193 -129 -305.5t-324 -112.5q-169 0 -300 95t-185 247z" />
<glyph unicode="T" d="M111 1233v201h1040v-201h-416v-1233h-209v1233h-415z" />
<glyph unicode="U" d="M158 545v889h211v-889q0 -86 13.5 -151t36.5 -106.5t57 -67.5t71.5 -36t83.5 -10q58 0 103 17.5t82.5 57.5t58 115t20.5 181v889h209v-889q0 -152 -35.5 -264t-101 -177.5t-149 -97t-187.5 -31.5q-103 0 -186.5 31t-149 96.5t-101.5 178t-36 264.5z" />
<glyph unicode="V" d="M66 1434h229l307 -1020q16 -56 29 -123q19 99 26 123l310 1020h229l-469 -1434h-190z" />
<glyph unicode="W" d="M53 1434h193l125 -899l12 -97q6 49 18 97l166 899h129l168 -893q15 -63 19 -90q1 18 5 48t5 40l115 895h200l-219 -1434h-168l-174 909q-7 28 -16 99q-2 -12 -17 -97l-174 -911h-168z" />
<glyph unicode="X" d="M96 0l424 741l-393 693h240l264 -490l262 490h237l-391 -682l426 -752h-239l-299 549l-293 -549h-238z" />
<glyph unicode="Y" d="M111 1434h233l289 -654l291 654h229l-416 -871v-563h-209v563z" />
<glyph unicode="Z" d="M158 0v156l673 1079h-626v199h901v-158l-678 -1077h674v-199h-944z" />
<glyph unicode="[" d="M440 -266v1724h492v-192h-287v-1340h287v-192h-492z" />
<glyph unicode="\" d="M170 1458h207l805 -1724h-207z" />
<glyph unicode="]" d="M420 -74h285v1340h-285v192h491v-1724h-491v192z" />
<glyph unicode="^" d="M178 719l408 739h178l412 -739h-213l-287 477l-287 -477h-211z" />
<glyph unicode="_" d="M82 -182h1098v-180h-1098v180z" />
<glyph unicode="`" d="M305 1499h277l290 -319h-202z" />
<glyph unicode="a" d="M174 326q0 87 35 155.5t93.5 109t130.5 61t151 20.5q154 0 272 -62v72q0 114 -56.5 162.5t-156.5 48.5q-160 0 -334 -109l-61 168q80 51 189 85t225 34q393 0 393 -383v-688h-199v90q-120 -115 -299 -115q-170 0 -276.5 91.5t-106.5 259.5zM371 326q0 -78 58 -124 t161 -46q151 0 266 123v157q-108 62 -242 62q-105 0 -174 -43.5t-69 -128.5z" />
<glyph unicode="b" d="M195 0v1382l204 97v-521q46 50 123 81.5t156 31.5q199 0 321.5 -147t122.5 -400q0 -263 -118 -406t-324 -143q-170 0 -281 111v-86h-204zM399 293q85 -125 248 -125q132 0 199 94t67 262q0 173 -67.5 264t-198.5 91q-84 0 -149.5 -37t-98.5 -86v-463z" />
<glyph unicode="c" d="M190 522q0 255 127 402t345 147q309 0 403 -262l-193 -68q-57 138 -210 138q-128 0 -194.5 -95t-66.5 -262q0 -168 65.5 -261t188.5 -93q173 0 226 156l192 -62q-43 -139 -150.5 -213t-269.5 -74q-214 0 -338.5 145t-124.5 402z" />
<glyph unicode="d" d="M141 524q0 253 123.5 400t327.5 147q172 0 270 -98v409l205 97v-1479h-205v84q-40 -47 -108 -78t-158 -31q-211 0 -333 146t-122 403zM348 524q0 -159 73.5 -257.5t201.5 -98.5q166 0 239 125v467q-76 119 -241 119q-131 0 -202 -92t-71 -263z" />
<glyph unicode="e" d="M164 524q0 256 132 401.5t357 145.5q93 0 172.5 -30.5t141 -90t96.5 -157t35 -222.5q0 -78 -6 -129h-721q22 -132 95 -207t189 -75q138 0 238 94l121 -131q-148 -148 -361 -148q-226 0 -357.5 152.5t-131.5 396.5zM367 621h528q-6 140 -76 205t-166 65q-127 0 -199 -71 t-87 -199z" />
<glyph unicode="f" d="M258 0v182h221v684h-221v181h221v149q0 60 20 107t52 75.5t76.5 47t89.5 25.5t96 7q134 0 238 -49v-174q-93 41 -199 41q-83 0 -125.5 -31t-42.5 -88v-110h330v-181h-330v-684h279v-182h-705z" />
<glyph unicode="g" d="M150 524q0 253 122 400t320 147q162 0 258 -100v76h205v-967q0 -132 -30.5 -225t-94 -152t-152.5 -89t-215 -38l-106 168q152 10 240 41.5t120.5 80.5t32.5 126v96q-91 -113 -262 -113q-92 0 -171 35t-139 102t-94 173t-34 239zM358 524q0 -164 72 -260t195 -96 q71 0 129.5 34t95.5 95v459q-35 55 -95 89t-130 34q-130 0 -198.5 -91.5t-68.5 -263.5z" />
<glyph unicode="h" d="M190 0v1384l205 95v-539q101 131 291 131q181 0 284 -107t103 -343v-621h-205v606q0 143 -63 208t-166 65q-244 0 -244 -269v-610h-205z" />
<glyph unicode="i" d="M256 0v182h289v684h-289v181h494v-865h288v-182h-782zM522 1341q0 53 36 89t89 36q54 0 89.5 -36t35.5 -89t-35.5 -88.5t-89.5 -35.5q-53 0 -89 36t-36 88z" />
<glyph unicode="j" d="M317 -270q185 26 251.5 81.5t66.5 180.5v874h-289v181h494v-1051q0 -209 -100 -307.5t-322 -126.5zM612 1341q0 53 36 89t89 36q54 0 89.5 -36t35.5 -89t-35.5 -88.5t-89.5 -35.5q-53 0 -89 36t-36 88z" />
<glyph unicode="k" d="M195 0v1382l204 97v-813l375 381h242l-295 -293l387 -754h-225l-310 606l-174 -172v-434h-204z" />
<glyph unicode="l" d="M186 1479h547v-1297h299v-182h-805v182h301v1116h-247z" />
<glyph unicode="m" d="M96 0v1047h180v-138q61 162 205 162q73 0 124.5 -46t72.5 -110q38 68 96.5 112t134.5 44q132 0 194 -88.5t62 -290.5v-692h-192v639q0 128 -23 183t-86 55q-66 0 -99.5 -65.5t-33.5 -178.5v-633h-192v653q0 52 -5 91t-17 70t-34 47t-53 16q-66 0 -103.5 -66.5 t-37.5 -177.5v-633h-193z" />
<glyph unicode="n" d="M190 0v1047h191v-127q39 67 121.5 109t183.5 42q181 0 284 -107t103 -343v-621h-205v606q0 144 -62 208.5t-167 64.5q-244 0 -244 -269v-610h-205z" />
<glyph unicode="o" d="M135 522q0 253 134 401t362 148t361.5 -147t133.5 -400q0 -254 -133.5 -401.5t-361.5 -147.5t-362 146.5t-134 400.5zM344 522q0 -164 75 -259t212 -95t213 95.5t76 260.5q0 164 -75 259.5t-214 95.5q-138 0 -212.5 -94t-74.5 -263z" />
<glyph unicode="p" d="M195 -414v1461h204v-84q108 108 271 108q210 0 333 -146t123 -401q0 -256 -126.5 -402.5t-327.5 -146.5q-176 0 -273 117v-409zM399 293q94 -125 244 -125q131 0 203 92.5t72 263.5q0 164 -73 259.5t-206 95.5q-160 0 -240 -123v-463z" />
<glyph unicode="q" d="M139 522q0 256 123.5 402.5t337.5 146.5q154 0 262 -108v84h205v-1364l-205 -93v502q-95 -117 -268 -117q-206 0 -330.5 145.5t-124.5 401.5zM346 522q0 -171 70 -262.5t202 -91.5q149 0 244 127v461q-76 123 -237 123q-132 0 -205.5 -99.5t-73.5 -257.5z" />
<glyph unicode="r" d="M104 0v182h220v684h-220v181h414v-173q50 91 154.5 144t222.5 53q147 0 238 -53v-375h-201v231q-21 3 -43 3q-159 0 -258 -78t-99 -224v-393h299v-182h-727z" />
<glyph unicode="s" d="M223 162l137 121q49 -53 123.5 -92t161.5 -39q81 0 133.5 31t52.5 91q0 40 -37.5 75t-72 52t-125.5 54q-15 7 -23 10q-49 20 -78.5 33t-69.5 33.5t-63.5 37.5t-50 41.5t-40.5 50t-23.5 59t-9.5 71.5q0 129 109.5 204.5t277.5 75.5q233 0 376 -164l-135 -112 q-113 100 -250 100q-85 0 -135.5 -28.5t-50.5 -78.5q0 -25 15 -46.5t55 -43.5t64 -32.5t87 -35.5q5 -2 9 -3.5t8 -3.5q152 -59 211 -97q141 -89 145 -237v-10q0 -141 -106.5 -222.5t-286.5 -81.5q-125 0 -232.5 51t-175.5 136z" />
<glyph unicode="t" d="M211 866v181h229v333l205 99v-432h352v-181h-352v-567q0 -70 32.5 -104.5t117.5 -34.5q94 0 184 53l-23 -190q-91 -48 -229 -48q-287 0 -287 275v616h-229z" />
<glyph unicode="u" d="M188 434v613h207v-598q0 -145 62.5 -212t165.5 -67q243 0 243 274v603h207v-1047h-207v102q-98 -127 -284 -127q-394 0 -394 459z" />
<glyph unicode="v" d="M135 1047h215l252 -682q25 -72 33 -111q8 39 33 111l247 682h213l-403 -1047h-186z" />
<glyph unicode="w" d="M41 1047h192l144 -609q13 -50 18 -94q10 60 19 96l137 607h160l139 -607q4 -18 18 -102q6 35 21 102l139 607h193l-267 -1047h-163l-136 588q-23 121 -24 125q-4 -22 -14 -65.5t-13 -57.5l-131 -590h-166z" />
<glyph unicode="x" d="M131 0l383 541l-358 506h233l186 -265q41 -56 56 -84q11 20 53 84l188 265h234l-358 -506l382 -541h-231l-215 301q-42 64 -53 84q-15 -28 -56 -84l-213 -301h-231z" />
<glyph unicode="y" d="M139 1047h209l246 -674q19 -53 33 -101q6 22 35 101l247 674h213l-544 -1444h-209l157 422z" />
<glyph unicode="z" d="M219 0v150l559 714h-518v183h782v-144l-559 -719h557v-184h-821z" />
<glyph unicode="{" d="M303 508v178h47q55 0 87 49t32 129v117q0 231 114.5 352.5t313.5 124.5h64v-182h-64q-111 -3 -166 -69.5t-55 -188.5v-131q0 -97 -23 -158t-61 -89t-98 -40v-8q92 -16 137 -79.5t45 -207.5v-131q0 -122 55 -189.5t166 -70.5h64v-180h-64q-199 5 -313.5 126t-114.5 351 v119q0 79 -32 128.5t-87 49.5h-47z" />
<glyph unicode="|" d="M573 -420v2069h205v-2069h-205z" />
<glyph unicode="}" d="M303 -86h64q109 3 165 70.5t56 189.5v131q0 144 45 207.5t137 79.5v8q-92 18 -137 81.5t-45 205.5v131q0 121 -56 188t-165 70h-64v182h64q198 -3 313 -125t115 -352v-117q0 -81 31 -129.5t87 -48.5h48v-178h-48q-56 0 -87 -49t-31 -129v-119q0 -230 -115 -351t-313 -126 h-64v180z" />
<glyph unicode="~" d="M195 543q0 65 15 121t46.5 101t85.5 71t125 26q59 0 122 -19t107.5 -41.5t96 -41.5t90.5 -19q57 0 89.5 32.5t37.5 88.5h147q0 -65 -15 -121t-46.5 -101t-85.5 -71t-125 -26q-58 0 -120.5 19t-107.5 41.5t-97 41.5t-91 19q-57 0 -89.5 -32.5t-37.5 -88.5h-147z" />
<glyph unicode="&#xa0;" />
<glyph unicode="&#xa1;" d="M477 920q0 62 45.5 106.5t110.5 44.5q64 0 107.5 -44.5t43.5 -106.5q0 -61 -44 -106.5t-107 -45.5q-65 0 -110.5 45.5t-45.5 106.5zM526 41l62 610h86l59 -610v-451h-207v451z" />
<glyph unicode="&#xa2;" d="M207 717q0 217 87 354.5t245 177.5v209h198v-198q237 -31 314 -261l-197 -67q-24 62 -71.5 98.5t-114.5 36.5q-120 0 -186 -93t-66 -257q0 -163 64 -255.5t179 -92.5q72 0 124.5 40t74.5 113l197 -61q-35 -126 -115.5 -198t-202.5 -87v-201h-198v209q-158 39 -245 177 t-87 356z" />
<glyph unicode="&#xa3;" d="M193 584v180h139q-27 54 -38.5 80t-25.5 84t-14 121q0 80 28.5 152t84 130t146 92.5t204.5 34.5q126 0 227 -35.5t197 -105.5l-80 -193q-35 27 -46.5 36t-51.5 33.5t-69.5 35t-77.5 21t-99 10.5q-120 0 -184 -63t-64 -148q0 -47 14 -92.5t40.5 -102.5t37.5 -90h320v-180 h-287q0 -6 -1 -17.5t-1 -17.5q-9 -200 -158 -352h725v-197h-956v209q44 20 78 59t53 88t29.5 95.5t13.5 93.5q0 7 1 20t1 19h-186z" />
<glyph unicode="&#xa4;" d="M61 268l146 144q-64 113 -64 270q0 147 64 272l-146 146l148 149l139 -139q127 80 283 80q155 0 276 -78l137 137l156 -155l-143 -142q61 -116 61 -270q0 -158 -65 -276l147 -144l-149 -149l-142 141q-116 -78 -278 -78q-163 0 -279 76l-137 -139zM352 682 q0 -134 77.5 -220.5t201.5 -86.5q125 0 201.5 86t76.5 221t-76.5 222t-201.5 87q-124 0 -201.5 -87t-77.5 -222z" />
<glyph unicode="&#xa5;" d="M80 1434h233l318 -586l321 586h230l-434 -764h280v-162h-295v-135h295v-162h-295v-211h-205v211h-305v162h305v135h-305v162h289z" />
<glyph unicode="&#xa6;" d="M528 -246v692h205v-692h-205zM528 780v695h205v-695h-205z" />
<glyph unicode="&#xa7;" d="M199 -57l151 131q45 -49 116.5 -86t168.5 -37q215 0 215 145q0 29 -15 54.5t-35 44t-58.5 39.5t-66.5 33t-79.5 33.5t-77.5 33.5q-49 21 -76.5 34t-67.5 35t-62.5 43.5t-45.5 51.5t-33 67t-10 82q0 76 37.5 133.5t101.5 87.5q-139 91 -139 269q0 149 113.5 235t288.5 86 q137 0 236.5 -48t160.5 -122l-156 -125q-97 97 -241 97q-87 0 -137 -33t-50 -92q0 -26 16.5 -50.5t40 -43t66.5 -39.5t79 -35.5t95 -36.5q45 -18 71.5 -29t66 -31t63 -37t50.5 -44t42 -55.5t25 -66.5t10 -83q0 -150 -121 -222q121 -98 121 -260q0 -165 -113 -256.5 t-313 -91.5q-144 0 -259 52t-179 137zM438 662q0 -20 8.5 -37.5t28 -33t39 -28t54.5 -27t60.5 -24t71.5 -26t74 -27.5q76 29 76 110q0 24 -9.5 45t-31.5 39.5t-44.5 33t-60.5 30.5t-67.5 27t-77.5 28q-58 -9 -89.5 -38t-31.5 -72z" />
<glyph unicode="&#xa8;" d="M326 1339q0 53 35 88t88 35q52 0 87 -35t35 -88t-34.5 -87.5t-87.5 -34.5t-88 35t-35 87zM690 1339q0 53 35 88t88 35t88 -35t35 -88q0 -52 -35 -87t-88 -35t-88 35t-35 87z" />
<glyph unicode="&#xa9;" d="M33 717q0 207 78.5 377t215.5 267t304 97t304 -97t215.5 -267t78.5 -377q0 -155 -46 -292.5t-125.5 -236t-190.5 -156t-236 -57.5t-236 57.5t-190.5 156t-125.5 236t-46 292.5zM186 717q0 -168 57.5 -305t159.5 -215t228 -78q127 0 229 78t158.5 215t56.5 305t-56.5 305 t-158.5 215t-229 78q-126 0 -228 -78t-159.5 -215t-57.5 -305zM297 723q0 88 23 166t66 138.5t110.5 96t150.5 35.5q100 0 171.5 -54t109.5 -151l-154 -67q-43 108 -135 108q-86 0 -128 -76.5t-42 -195.5q0 -125 43.5 -199.5t128.5 -74.5q113 0 141 118l150 -55 q-38 -109 -113 -167t-180 -58q-163 0 -252.5 121.5t-89.5 314.5z" />
<glyph unicode="&#xaa;" d="M276 848q0 94 50 161t123 96.5t157 29.5q115 0 203 -43v34q0 95 -41.5 134.5t-134.5 39.5q-138 0 -240 -79l-53 147q122 90 315 90q51 0 91.5 -5.5t87.5 -25.5t78 -53.5t52 -94.5t21 -144v-555h-176v61q-37 -34 -99 -58t-128 -24q-136 0 -221 75.5t-85 213.5zM457 848 q0 -60 41.5 -95.5t113.5 -35.5q56 0 109 23.5t88 58.5v139q-80 41 -176 41q-76 0 -126 -32.5t-50 -98.5z" />
<glyph unicode="&#xab;" d="M145 524l312 523h223l-311 -523l311 -524h-223zM580 524l311 523h225l-311 -523l311 -524h-225z" />
<glyph unicode="&#xac;" d="M150 768v199h962v-621h-207v422h-755z" />
<glyph unicode="&#xad;" d="M150 510v197h962v-197h-962z" />
<glyph unicode="&#xae;" d="M33 717q0 207 78.5 377t215.5 267t304 97t304 -97t215.5 -267t78.5 -377q0 -155 -46 -292.5t-125.5 -236t-190.5 -156t-236 -57.5t-236 57.5t-190.5 156t-125.5 236t-46 292.5zM186 717q0 -168 57.5 -305t159.5 -215t228 -78q127 0 229 78t158.5 215t56.5 305t-56.5 305 t-158.5 215t-229 78q-126 0 -228 -78t-159.5 -215t-57.5 -305zM354 317v803h332q70 0 123 -22.5t81.5 -59.5t42 -77.5t13.5 -83.5q0 -87 -48.5 -151t-127.5 -93l164 -316h-186l-144 297h-82v-297h-168zM522 766h166q44 0 69 31.5t25 76.5q0 38 -23.5 69.5t-70.5 31.5h-166 v-209z" />
<glyph unicode="&#xaf;" d="M293 1225v172h676v-172h-676z" />
<glyph unicode="&#xb0;" d="M272 1274q0 151 104.5 251.5t256.5 100.5q150 0 253 -100.5t103 -251.5q0 -150 -103 -252t-253 -102q-151 0 -256 102t-105 252zM471 1274q0 -72 46.5 -121t115.5 -49t113.5 48.5t44.5 121.5t-44.5 120.5t-113.5 47.5t-115.5 -47.5t-46.5 -120.5z" />
<glyph unicode="&#xb1;" d="M150 0v199h962v-199h-962zM150 727v199h376v319h207v-319h379v-199h-379v-319h-207v319h-376z" />
<glyph unicode="&#xb2;" d="M354 1231q0 68 20 121.5t52.5 85.5t71 56t77.5 39l71.5 27.5t52.5 28t20 35.5q0 26 -20.5 42.5t-59.5 16.5q-49 0 -86.5 -27t-50.5 -77l-146 37q26 85 100.5 135.5t186.5 50.5q113 0 181.5 -48.5t68.5 -135.5q0 -48 -33 -85t-81.5 -59t-98 -39t-88.5 -37t-47 -42h346 v-125h-537z" />
<glyph unicode="&#xb3;" d="M348 1370l154 41q40 -82 139 -82q44 0 70 20.5t26 53.5q0 57 -102 57h-62v113h48q46 0 66 12.5t20 40.5q0 26 -21 43t-57 17q-81 0 -115 -70l-143 41q33 66 104 105.5t162 39.5q107 0 172 -45t65 -117q0 -41 -30 -73t-72 -43q58 -10 96.5 -42.5t38.5 -90.5 q0 -77 -72 -129t-200 -52q-210 0 -287 160z" />
<glyph unicode="&#xb4;" d="M455 1180l290 319h275l-365 -319h-200z" />
<glyph unicode="&#xb5;" d="M205 -410v1457h205v-627q0 -141 54.5 -196.5t158.5 -55.5q105 0 167 59t62 189v631h205v-1047h-205v100q-102 -125 -254 -125q-124 0 -186 88v-376z" />
<glyph unicode="&#xb6;" d="M92 999q0 67 15 128t50.5 118t88.5 98t135 66t184 25h602v-1590l-204 -92v1483h-181v-1552l-204 -93v975q-103 2 -187 29t-138.5 69.5t-91.5 99.5t-53 115.5t-16 120.5z" />
<glyph unicode="&#xb7;" d="M479 715q0 61 44 105t108 44t107.5 -44t43.5 -105q0 -60 -44 -104t-107 -44t-107.5 44.5t-44.5 103.5z" />
<glyph unicode="&#xb8;" d="M401 -414l105 74q23 -29 80 -29q44 0 73 26t29 67q0 37 -33 62.5t-80 25.5q-43 0 -79 -19l-41 49l143 178h115l-76 -124q113 0 168 -49.5t55 -125.5q0 -94 -70 -152t-186 -58q-135 0 -203 75z" />
<glyph unicode="&#xb9;" d="M449 1573v129q60 0 92 21.5t51 64.5h125v-557h-168v342h-100z" />
<glyph unicode="&#xba;" d="M240 1008q0 211 105.5 330.5t285.5 119.5q181 0 286 -119.5t105 -330.5t-105 -330t-286 -119q-180 0 -285.5 119t-105.5 330zM420 1008q0 -131 56 -204t155 -73q101 0 156 72.5t55 204.5q0 134 -55 207t-156 73q-99 0 -155 -73.5t-56 -206.5z" />
<glyph unicode="&#xbb;" d="M145 0l312 524l-312 523h224l311 -523l-311 -524h-224zM580 0l311 524l-311 523h225l311 -523l-311 -524h-225z" />
<glyph unicode="&#xbc;" d="M82 647v156h1098v-156h-1098zM307 113v88l371 356h153v-328h109v-116h-109v-113h-159v113h-365zM449 1229v129q60 0 92 21.5t51 64.5h125v-557h-168v342h-100zM498 229h174v170z" />
<glyph unicode="&#xbd;" d="M82 647v156h1098v-156h-1098zM354 0q0 68 20 121.5t52.5 85.5t71 56t77.5 39l71.5 27.5t52.5 28t20 35.5q0 26 -20.5 43t-59.5 17q-49 0 -86.5 -27.5t-50.5 -77.5l-146 37q26 85 100.5 135.5t186.5 50.5q113 0 181.5 -48.5t68.5 -135.5q0 -48 -33 -85t-81.5 -59t-98 -39 t-88.5 -37t-47 -42h346v-125h-537zM449 1229v129q60 0 92 21.5t51 64.5h125v-557h-168v342h-100z" />
<glyph unicode="&#xbe;" d="M82 647v156h1098v-156h-1098zM307 113v88l371 356h153v-328h109v-116h-109v-113h-159v113h-365zM348 1026l154 41q40 -82 139 -82q44 0 70 20.5t26 53.5q0 57 -102 57h-62v113h48q46 0 66 12.5t20 40.5q0 25 -21 42t-57 17q-81 0 -115 -69l-143 41q33 66 104 105.5 t162 39.5q107 0 172 -45t65 -117q0 -41 -30 -73t-72 -43q58 -10 96.5 -42.5t38.5 -90.5q0 -77 -72 -129t-200 -52q-210 0 -287 160zM498 229h174v170z" />
<glyph unicode="&#xbf;" d="M174 -6q0 68 19.5 124t51 95t69.5 73.5t76 68t70 69.5t52 87t20 112v59h205v-59q0 -79 -19.5 -143.5t-51 -107t-69.5 -78.5t-76 -67t-69.5 -62.5t-51 -75t-19.5 -95.5q0 -94 60 -152.5t169 -58.5q129 0 200 75t71 210h206q0 -221 -131.5 -349.5t-345.5 -128.5 q-206 0 -321 112.5t-115 291.5zM485 922q0 61 44 105t108 44t109 -44t45 -105q0 -60 -45 -104t-109 -44t-108 43.5t-44 104.5z" />
<glyph unicode="&#xc0;" d="M66 0l469 1434h190l473 -1434h-223l-103 334h-481l-100 -334h-225zM190 1888h277l291 -319h-203zM451 524h362l-145 475q-25 83 -37 150q-12 -67 -37 -150z" />
<glyph unicode="&#xc1;" d="M66 0l469 1434h190l473 -1434h-223l-103 334h-481l-100 -334h-225zM451 524h362l-145 475q-25 83 -37 150q-12 -67 -37 -150zM481 1569l291 319h275l-365 -319h-201z" />
<glyph unicode="&#xc2;" d="M66 0l469 1434h190l473 -1434h-223l-103 334h-481l-100 -334h-225zM236 1569l288 319h211l289 -319h-190l-205 174l-205 -174h-188zM451 524h362l-145 475q-25 83 -37 150q-12 -67 -37 -150z" />
<glyph unicode="&#xc3;" d="M66 0l469 1434h190l473 -1434h-223l-103 334h-481l-100 -334h-225zM256 1612q0 254 213 254q49 0 100 -16t86 -34.5t76.5 -34.5t75.5 -16q41 0 68 24t28 69h103q0 -254 -213 -254q-49 0 -99.5 15.5t-85.5 33.5t-77 33.5t-76 15.5q-40 0 -67 -23t-30 -67h-102zM451 524 h362l-145 475q-25 83 -37 150q-12 -67 -37 -150z" />
<glyph unicode="&#xc4;" d="M66 0l469 1434h190l473 -1434h-223l-103 334h-481l-100 -334h-225zM324 1729q0 53 35 87.5t87 34.5q53 0 88 -35t35 -87q0 -53 -35.5 -88t-87.5 -35t-87 35t-35 88zM451 524h362l-145 475q-25 83 -37 150q-12 -67 -37 -150zM688 1729q0 52 35 87t88 35t88 -35t35 -87 q0 -53 -35 -88t-88 -35t-88 35t-35 88z" />
<glyph unicode="&#xc5;" d="M66 0l436 1333q-55 33 -88 89.5t-33 121.5q0 102 73.5 174t176.5 72t177.5 -72t74.5 -174q0 -66 -34 -123t-91 -90l440 -1331h-223l-103 334h-481l-100 -334h-225zM451 524h362l-145 475q-25 83 -37 150q-12 -67 -37 -150zM535 1544q0 -44 28 -74t68 -30t69 30t29 74 q0 45 -28.5 74t-69.5 29q-40 0 -68 -29t-28 -74z" />
<glyph unicode="&#xc6;" d="M0 0l608 1434h604v-197h-323v-399h244v-195h-244v-446h366v-197h-565v334h-328l-135 -334h-227zM438 524l252 2v635q-6 -16 -20.5 -57.5t-20.5 -56.5z" />
<glyph unicode="&#xc7;" d="M115 717q0 111 19.5 215.5t62.5 200.5t106 168t157 114.5t208 42.5q84 0 154.5 -23.5t121 -64t85 -87.5t58.5 -103l-188 -93q-45 85 -97.5 129t-133.5 44q-89 0 -156 -49t-104.5 -130.5t-55.5 -173t-18 -190.5q0 -104 20.5 -198.5t59.5 -173t105 -125t149 -46.5 q84 0 140.5 47.5t98.5 136.5l191 -73q-54 -131 -151 -214.5t-240 -93.5l-50 -81q113 0 168.5 -50t55.5 -125q0 -94 -70 -152t-186 -58q-135 0 -203 75l104 74q23 -29 80 -29q45 0 74 26t29 67q0 37 -33 62.5t-80 25.5q-44 0 -80 -19l-41 49l111 140q-99 14 -179.5 62.5 t-134 119t-89.5 162.5t-52 189t-16 202z" />
<glyph unicode="&#xc8;" d="M176 0v1434h879v-199h-668v-395h444v-199h-444v-440h713v-201h-924zM215 1888h277l290 -319h-202z" />
<glyph unicode="&#xc9;" d="M176 0v1434h879v-199h-668v-395h444v-199h-444v-440h713v-201h-924zM465 1575l291 319h274l-364 -319h-201z" />
<glyph unicode="&#xca;" d="M176 0v1434h879v-199h-668v-395h444v-199h-444v-440h713v-201h-924zM219 1569l289 319h211l289 -319h-191l-205 174l-204 -174h-189z" />
<glyph unicode="&#xcb;" d="M176 0v1434h879v-199h-668v-395h444v-199h-444v-440h713v-201h-924zM307 1729q0 52 35 87t88 35t88 -35t35 -87q0 -53 -35.5 -88t-87.5 -35t-87.5 35t-35.5 88zM672 1729q0 52 35 87t88 35t88 -35t35 -87q0 -53 -35 -88t-88 -35t-88 35t-35 88z" />
<glyph unicode="&#xcc;" d="M182 1888h277l291 -319h-203zM213 0v188h313v1057h-313v189h838v-189h-316v-1057h316v-188h-838z" />
<glyph unicode="&#xcd;" d="M213 0v188h313v1057h-313v189h838v-189h-316v-1057h316v-188h-838zM500 1575l291 319h274l-365 -319h-200z" />
<glyph unicode="&#xce;" d="M215 0v188h313v1057h-313v189h838v-189h-316v-1057h316v-188h-838zM238 1569l288 319h211l289 -319h-190l-205 174l-205 -174h-188z" />
<glyph unicode="&#xcf;" d="M215 0v188h313v1057h-313v189h838v-189h-316v-1057h316v-188h-838zM326 1729q0 52 35 87t88 35t87.5 -34.5t34.5 -87.5t-35 -88t-87 -35q-53 0 -88 35t-35 88zM690 1729q0 52 35 87t88 35t88 -35t35 -87q0 -53 -35 -88t-88 -35t-88 35t-35 88z" />
<glyph unicode="&#xd0;" d="M51 621v192h125v621h348q133 0 240 -40.5t177.5 -109t117.5 -162t67.5 -194t20.5 -211.5q0 -104 -18.5 -201t-65 -192.5t-116 -166t-181 -114t-250.5 -43.5h-340v621h-125zM385 197h147q87 0 156.5 31t114 81.5t74 119.5t41.5 140t12 148q0 101 -22 192t-65.5 166 t-117.5 119.5t-170 44.5h-170v-426h295v-192h-295v-424z" />
<glyph unicode="&#xd1;" d="M176 0v1434h203l469 -945q35 -66 43 -88q-4 78 -4 88v945h198v-1434h-194l-475 940q-3 7 -20.5 40t-24.5 50q4 -33 4 -88v-942h-199zM256 1612q0 254 213 254q49 0 100 -16t86 -34.5t76.5 -34.5t75.5 -16q41 0 68 24t28 69h103q0 -254 -213 -254q-49 0 -99.5 15.5 t-85.5 33.5t-77 33.5t-76 15.5q-40 0 -67 -23t-30 -67h-102z" />
<glyph unicode="&#xd2;" d="M115 717q0 116 17.5 221.5t57.5 201t98.5 165.5t146.5 111.5t196 41.5t196.5 -41.5t147 -111.5t98 -165.5t57 -201t17.5 -221.5t-17.5 -221.5t-57 -201.5t-98 -166t-147 -111.5t-196.5 -41.5t-196 41.5t-146.5 111.5t-98.5 166t-57.5 201.5t-17.5 221.5zM213 1888h276 l291 -319h-202zM334 717q0 -111 17 -206t51.5 -172t93 -121t135.5 -44t136 47t93.5 125.5t52 172.5t17.5 198q0 112 -17 207t-51.5 172.5t-93.5 121.5t-137 44q-77 0 -136 -47t-93 -126.5t-51 -173.5t-17 -198z" />
<glyph unicode="&#xd3;" d="M115 717q0 116 17.5 221.5t57.5 201t98.5 165.5t146.5 111.5t196 41.5t196.5 -41.5t147 -111.5t98 -165.5t57 -201t17.5 -221.5t-17.5 -221.5t-57 -201.5t-98 -166t-147 -111.5t-196.5 -41.5t-196 41.5t-146.5 111.5t-98.5 166t-57.5 201.5t-17.5 221.5zM334 717 q0 -111 17 -206t51.5 -172t93 -121t135.5 -44t136 47t93.5 125.5t52 172.5t17.5 198q0 112 -17 207t-51.5 172.5t-93.5 121.5t-137 44q-77 0 -136 -47t-93 -126.5t-51 -173.5t-17 -198zM500 1569l291 319h274l-365 -319h-200z" />
<glyph unicode="&#xd4;" d="M115 717q0 116 17.5 221.5t57.5 201t98.5 165.5t146.5 111.5t196 41.5t196.5 -41.5t147 -111.5t98 -165.5t57 -201t17.5 -221.5t-17.5 -221.5t-57 -201.5t-98 -166t-147 -111.5t-196.5 -41.5t-196 41.5t-146.5 111.5t-98.5 166t-57.5 201.5t-17.5 221.5zM238 1569 l288 319h211l289 -319h-190l-205 174l-205 -174h-188zM334 717q0 -111 17 -206t51.5 -172t93 -121t135.5 -44t136 47t93.5 125.5t52 172.5t17.5 198q0 112 -17 207t-51.5 172.5t-93.5 121.5t-137 44q-77 0 -136 -47t-93 -126.5t-51 -173.5t-17 -198z" />
<glyph unicode="&#xd5;" d="M115 717q0 116 17.5 221.5t57.5 201t98.5 165.5t146.5 111.5t196 41.5t196.5 -41.5t147 -111.5t98 -165.5t57 -201t17.5 -221.5t-17.5 -221.5t-57 -201.5t-98 -166t-147 -111.5t-196.5 -41.5t-196 41.5t-146.5 111.5t-98.5 166t-57.5 201.5t-17.5 221.5zM258 1612 q0 254 213 254q49 0 100 -16t86 -34.5t76.5 -34.5t75.5 -16q41 0 68 24t28 69h103q0 -254 -213 -254q-49 0 -99.5 15.5t-85.5 33.5t-77 33.5t-76 15.5q-40 0 -67 -23t-30 -67h-102zM334 717q0 -111 17 -206t51.5 -172t93 -121t135.5 -44t136 47t93.5 125.5t52 172.5 t17.5 198q0 112 -17 207t-51.5 172.5t-93.5 121.5t-137 44q-77 0 -136 -47t-93 -126.5t-51 -173.5t-17 -198z" />
<glyph unicode="&#xd6;" d="M115 717q0 116 17.5 221.5t57.5 201t98.5 165.5t146.5 111.5t196 41.5t196.5 -41.5t147 -111.5t98 -165.5t57 -201t17.5 -221.5t-17.5 -221.5t-57 -201.5t-98 -166t-147 -111.5t-196.5 -41.5t-196 41.5t-146.5 111.5t-98.5 166t-57.5 201.5t-17.5 221.5zM326 1729 q0 52 35 87t88 35t87.5 -34.5t34.5 -87.5t-35 -88t-87 -35q-53 0 -88 35t-35 88zM334 717q0 -111 17 -206t51.5 -172t93 -121t135.5 -44t136 47t93.5 125.5t52 172.5t17.5 198q0 112 -17 207t-51.5 172.5t-93.5 121.5t-137 44q-77 0 -136 -47t-93 -126.5t-51 -173.5 t-17 -198zM690 1729q0 52 35 87t88 35t88 -35t35 -87q0 -53 -35 -88t-88 -35t-88 35t-35 88z" />
<glyph unicode="&#xd7;" d="M158 377l329 328l-327 325l143 144l328 -326l325 328l148 -150l-328 -326l326 -327l-141 -142l-326 326l-328 -328z" />
<glyph unicode="&#xd8;" d="M31 -25l180 271q-96 193 -96 471q0 116 17.5 221.5t57.5 201t98.5 165.5t146.5 111.5t196 41.5q187 0 311 -121l82 121h207l-180 -268q96 -191 96 -473q0 -116 -17.5 -221.5t-57 -201.5t-98 -166t-147 -111.5t-196.5 -41.5q-188 0 -314 123l-81 -123h-205zM334 717 q0 -140 26 -250l463 692q-74 103 -192 103q-77 0 -136 -47t-93 -126.5t-51 -173.5t-17 -198zM438 276q76 -102 193 -102q77 0 136 47t93.5 125.5t52 172.5t17.5 198q0 137 -27 254z" />
<glyph unicode="&#xd9;" d="M158 545v889h211v-889q0 -86 13.5 -151t36.5 -106.5t57 -67.5t71.5 -36t83.5 -10q58 0 103 17.5t82.5 57.5t58 115t20.5 181v889h209v-889q0 -152 -35.5 -264t-101 -177.5t-149 -97t-187.5 -31.5q-103 0 -186.5 31t-149 96.5t-101.5 178t-36 264.5zM240 1888h276 l291 -319h-203z" />
<glyph unicode="&#xda;" d="M158 545v889h211v-889q0 -86 13.5 -151t36.5 -106.5t57 -67.5t71.5 -36t83.5 -10q58 0 103 17.5t82.5 57.5t58 115t20.5 181v889h209v-889q0 -152 -35.5 -264t-101 -177.5t-149 -97t-187.5 -31.5q-103 0 -186.5 31t-149 96.5t-101.5 178t-36 264.5zM475 1575l291 319h274 l-364 -319h-201z" />
<glyph unicode="&#xdb;" d="M158 545v889h211v-889q0 -86 13.5 -151t36.5 -106.5t57 -67.5t71.5 -36t83.5 -10q58 0 103 17.5t82.5 57.5t58 115t20.5 181v889h209v-889q0 -152 -35.5 -264t-101 -177.5t-149 -97t-187.5 -31.5q-103 0 -186.5 31t-149 96.5t-101.5 178t-36 264.5zM238 1569l288 319h211 l289 -319h-190l-205 174l-205 -174h-188z" />
<glyph unicode="&#xdc;" d="M158 545v889h211v-889q0 -86 13.5 -151t36.5 -106.5t57 -67.5t71.5 -36t83.5 -10q58 0 103 17.5t82.5 57.5t58 115t20.5 181v889h209v-889q0 -152 -35.5 -264t-101 -177.5t-149 -97t-187.5 -31.5q-103 0 -186.5 31t-149 96.5t-101.5 178t-36 264.5zM326 1729q0 52 35 87 t88 35t87.5 -34.5t34.5 -87.5t-35 -88t-87 -35q-53 0 -88 35t-35 88zM690 1729q0 52 35 87t88 35t88 -35t35 -87q0 -53 -35 -88t-88 -35t-88 35t-35 88z" />
<glyph unicode="&#xdd;" d="M111 1434h233l289 -654l291 654h229l-416 -871v-563h-209v563zM492 1575l290 319h275l-365 -319h-200z" />
<glyph unicode="&#xde;" d="M176 0v1434h211v-269h264q102 0 183.5 -24.5t134.5 -66t88 -98.5t50 -118t15 -129q0 -63 -15.5 -123t-52 -117.5t-89.5 -100.5t-134 -69t-180 -26h-264v-293h-211zM387 487h277q65 0 114.5 21t77 57t40.5 77t13 87q0 32 -6.5 63.5t-24 64.5t-44.5 57.5t-71 40.5t-99 16 h-277v-484z" />
<glyph unicode="&#xdf;" d="M182 -414v1385q0 103 24.5 186.5t65.5 138.5t97 92t116.5 53.5t126.5 16.5q188 0 304 -103.5t116 -271.5q0 -103 -48 -181.5t-144 -113.5q127 -41 196.5 -134.5t69.5 -221.5q0 -212 -121 -334.5t-309 -122.5q-123 0 -191 41l95 152q40 -12 90 -12q90 0 158.5 71t68.5 199 q0 110 -70.5 186t-214.5 76h-43v180h43q95 0 153 53t58 150q0 95 -54.5 152t-154.5 57q-104 0 -165.5 -74.5t-61.5 -230.5v-1288z" />
<glyph unicode="&#xe0;" d="M174 326q0 87 35 155.5t93.5 109t130.5 61t151 20.5q154 0 272 -62v72q0 114 -56.5 162.5t-156.5 48.5q-160 0 -334 -109l-61 168q80 51 189 85t225 34q393 0 393 -383v-688h-199v90q-120 -115 -299 -115q-170 0 -276.5 91.5t-106.5 259.5zM238 1499h276l291 -319h-203z M371 326q0 -78 58 -124t161 -46q151 0 266 123v157q-108 62 -242 62q-105 0 -174 -43.5t-69 -128.5z" />
<glyph unicode="&#xe1;" d="M174 326q0 87 35 155.5t93.5 109t130.5 61t151 20.5q154 0 272 -62v72q0 114 -56.5 162.5t-156.5 48.5q-160 0 -334 -109l-61 168q80 51 189 85t225 34q393 0 393 -383v-688h-199v90q-120 -115 -299 -115q-170 0 -276.5 91.5t-106.5 259.5zM371 326q0 -78 58 -124 t161 -46q151 0 266 123v157q-108 62 -242 62q-105 0 -174 -43.5t-69 -128.5zM506 1180l291 319h274l-364 -319h-201z" />
<glyph unicode="&#xe2;" d="M174 326q0 87 35 155.5t93.5 109t130.5 61t151 20.5q154 0 272 -62v72q0 114 -56.5 162.5t-156.5 48.5q-160 0 -334 -109l-61 168q80 51 189 85t225 34q393 0 393 -383v-688h-199v90q-120 -115 -299 -115q-170 0 -276.5 91.5t-106.5 259.5zM248 1180l289 319h211 l288 -319h-190l-205 174l-205 -174h-188zM371 326q0 -78 58 -124t161 -46q151 0 266 123v157q-108 62 -242 62q-105 0 -174 -43.5t-69 -128.5z" />
<glyph unicode="&#xe3;" d="M174 326q0 87 35 155.5t93.5 109t130.5 61t151 20.5q154 0 272 -62v72q0 114 -56.5 162.5t-156.5 48.5q-160 0 -334 -109l-61 168q80 51 189 85t225 34q393 0 393 -383v-688h-199v90q-120 -115 -299 -115q-170 0 -276.5 91.5t-106.5 259.5zM276 1223q0 254 213 254 q49 0 100 -16t86 -34.5t76.5 -34.5t75.5 -16q41 0 68.5 23.5t28.5 68.5h102q0 -254 -213 -254q-62 0 -125 25t-117.5 49.5t-95.5 24.5q-40 0 -66.5 -23t-29.5 -67h-103zM371 326q0 -78 58 -124t161 -46q151 0 266 123v157q-108 62 -242 62q-105 0 -174 -43.5t-69 -128.5z " />
<glyph unicode="&#xe4;" d="M174 326q0 87 35 155.5t93.5 109t130.5 61t151 20.5q154 0 272 -62v72q0 114 -56.5 162.5t-156.5 48.5q-160 0 -334 -109l-61 168q80 51 189 85t225 34q393 0 393 -383v-688h-199v90q-120 -115 -299 -115q-170 0 -276.5 91.5t-106.5 259.5zM362 1339q0 53 35 88t88 35 t88 -35t35 -88q0 -52 -35 -87t-88 -35t-88 35t-35 87zM371 326q0 -78 58 -124t161 -46q151 0 266 123v157q-108 62 -242 62q-105 0 -174 -43.5t-69 -128.5zM727 1339q0 53 35.5 88t87.5 35t87.5 -35t35.5 -88q0 -52 -35 -87t-88 -35t-88 35t-35 87z" />
<glyph unicode="&#xe5;" d="M174 326q0 87 35 155.5t93.5 109t130.5 61t151 20.5q154 0 272 -62v72q0 114 -56.5 162.5t-156.5 48.5q-160 0 -334 -109l-61 168q80 51 189 85t225 34q393 0 393 -383v-688h-199v90q-120 -115 -299 -115q-170 0 -276.5 91.5t-106.5 259.5zM371 326q0 -78 58 -124 t161 -46q151 0 266 123v157q-108 62 -242 62q-105 0 -174 -43.5t-69 -128.5zM416 1411q0 102 73.5 174t176.5 72t177.5 -72t74.5 -174q0 -101 -74.5 -174.5t-177.5 -73.5t-176.5 73.5t-73.5 174.5zM569 1411q0 -44 28.5 -74t68.5 -30t69 30t29 74q0 45 -28.5 73.5 t-69.5 28.5t-69 -28.5t-28 -73.5z" />
<glyph unicode="&#xe6;" d="M47 326q0 172 87 260t216 88q93 0 178 -58v54q0 115 -35 175t-114 60q-55 0 -116.5 -31.5t-112.5 -82.5l-48 161q62 51 140 85t159 34q168 0 232 -160q92 160 262 160q139 0 229 -130t90 -370q0 -39 -8 -129h-512q5 -124 62.5 -212.5t136.5 -88.5q91 0 168 111l88 -129 q-114 -148 -264 -148q-85 0 -155 51t-116 140q-51 -96 -128 -143.5t-158 -47.5q-125 0 -203 91.5t-78 259.5zM213 324q0 -83 37 -134t102 -51q57 0 110.5 49t84.5 115q-16 66 -19 137q-72 72 -159 72q-67 0 -111.5 -47.5t-44.5 -140.5zM694 606h350q-1 152 -46 224.5 t-113 72.5q-78 0 -131 -74.5t-60 -222.5z" />
<glyph unicode="&#xe7;" d="M190 522q0 255 127 402t345 147q309 0 403 -262l-193 -68q-57 138 -210 138q-128 0 -194.5 -95t-66.5 -262q0 -168 65.5 -261t188.5 -93q173 0 226 156l192 -62q-40 -128 -134.5 -201.5t-236.5 -83.5l-49 -81q113 0 168.5 -50t55.5 -125q0 -94 -70 -152t-186 -58 q-135 0 -203 75l104 74q23 -29 80 -29q45 0 74 26t29 67q0 37 -33 62.5t-80 25.5q-44 0 -80 -19l-41 49l111 138q-183 25 -287.5 166.5t-104.5 375.5z" />
<glyph unicode="&#xe8;" d="M164 524q0 256 132 401.5t357 145.5q93 0 172.5 -30.5t141 -90t96.5 -157t35 -222.5q0 -78 -6 -129h-721q22 -132 95 -207t189 -75q138 0 238 94l121 -131q-148 -148 -361 -148q-226 0 -357.5 152.5t-131.5 396.5zM291 1499h276l291 -319h-203zM367 621h528 q-6 140 -76 205t-166 65q-127 0 -199 -71t-87 -199z" />
<glyph unicode="&#xe9;" d="M164 524q0 256 132 401.5t357 145.5q93 0 172.5 -30.5t141 -90t96.5 -157t35 -222.5q0 -78 -6 -129h-721q22 -132 95 -207t189 -75q138 0 238 94l121 -131q-148 -148 -361 -148q-226 0 -357.5 152.5t-131.5 396.5zM367 621h528q-6 140 -76 205t-166 65q-127 0 -199 -71 t-87 -199zM483 1180l291 319h275l-365 -319h-201z" />
<glyph unicode="&#xea;" d="M164 524q0 256 132 401.5t357 145.5q93 0 172.5 -30.5t141 -90t96.5 -157t35 -222.5q0 -78 -6 -129h-721q22 -132 95 -207t189 -75q138 0 238 94l121 -131q-148 -148 -361 -148q-226 0 -357.5 152.5t-131.5 396.5zM248 1180l289 319h211l288 -319h-190l-205 174 l-205 -174h-188zM367 621h528q-6 140 -76 205t-166 65q-127 0 -199 -71t-87 -199z" />
<glyph unicode="&#xeb;" d="M164 524q0 256 132 401.5t357 145.5q93 0 172.5 -30.5t141 -90t96.5 -157t35 -222.5q0 -78 -6 -129h-721q22 -132 95 -207t189 -75q138 0 238 94l121 -131q-148 -148 -361 -148q-226 0 -357.5 152.5t-131.5 396.5zM336 1339q0 53 35 88t88 35t88 -35t35 -88 q0 -52 -35 -87t-88 -35t-88 35t-35 87zM367 621h528q-6 140 -76 205t-166 65q-127 0 -199 -71t-87 -199zM700 1339q0 53 35 88t88 35t88 -35t35 -88q0 -52 -35 -87t-88 -35t-88 35t-35 87z" />
<glyph unicode="&#xec;" d="M172 1499h277l290 -319h-202zM256 0v182h289v701h-289v182h494v-883h288v-182h-782z" />
<glyph unicode="&#xed;" d="M256 0v182h289v701h-289v182h494v-883h288v-182h-782zM428 1180l291 319h274l-364 -319h-201z" />
<glyph unicode="&#xee;" d="M217 1180l289 319h211l289 -319h-191l-205 174l-204 -174h-189zM256 0v182h289v701h-289v182h494v-883h288v-182h-782z" />
<glyph unicode="&#xef;" d="M256 0v182h289v701h-289v182h494v-883h288v-182h-782zM305 1339q0 53 35.5 88t87.5 35t87.5 -35t35.5 -88q0 -52 -35 -87t-88 -35t-88 35t-35 87zM670 1339q0 53 35 88t88 35q52 0 87 -35t35 -88t-34.5 -87.5t-87.5 -34.5t-88 35t-35 87z" />
<glyph unicode="&#xf0;" d="M166 453q0 206 129 343.5t326 137.5q157 0 249 -119q-15 99 -65 190.5t-125 153.5l-127 -133l-109 102l101 107q-98 45 -217 51v172q195 -6 348 -84l117 125l108 -106l-96 -103q140 -116 215.5 -306.5t75.5 -432.5q0 -172 -51 -300.5t-157 -202t-257 -73.5 q-204 0 -334.5 135.5t-130.5 342.5zM375 453q0 -120 75.5 -202.5t180.5 -82.5q109 0 183.5 81.5t74.5 201.5q0 126 -73.5 208t-184.5 82q-109 0 -182.5 -80.5t-73.5 -207.5z" />
<glyph unicode="&#xf1;" d="M190 0v1047h191v-127q39 67 121.5 109t183.5 42q181 0 284 -107t103 -343v-621h-205v606q0 144 -62 208.5t-167 64.5q-244 0 -244 -269v-610h-205zM262 1223q0 254 213 254q49 0 100 -16t86 -34.5t76.5 -34.5t75.5 -16q41 0 68 23.5t28 68.5h103q0 -254 -213 -254 q-62 0 -125 25t-117.5 49.5t-95.5 24.5q-40 0 -66.5 -23t-29.5 -67h-103z" />
<glyph unicode="&#xf2;" d="M135 522q0 253 134 401t362 148t361.5 -147t133.5 -400q0 -254 -133.5 -401.5t-361.5 -147.5t-362 146.5t-134 400.5zM254 1499h276l291 -319h-203zM344 522q0 -164 75 -259t212 -95t213 95.5t76 260.5q0 164 -75 259.5t-214 95.5q-138 0 -212.5 -94t-74.5 -263z" />
<glyph unicode="&#xf3;" d="M135 522q0 253 134 401t362 148t361.5 -147t133.5 -400q0 -254 -133.5 -401.5t-361.5 -147.5t-362 146.5t-134 400.5zM344 522q0 -164 75 -259t212 -95t213 95.5t76 260.5q0 164 -75 259.5t-214 95.5q-138 0 -212.5 -94t-74.5 -263zM471 1180l291 319h274l-364 -319h-201 z" />
<glyph unicode="&#xf4;" d="M135 522q0 253 134 401t362 148t361.5 -147t133.5 -400q0 -254 -133.5 -401.5t-361.5 -147.5t-362 146.5t-134 400.5zM238 1180l288 319h211l289 -319h-190l-205 174l-205 -174h-188zM344 522q0 -164 75 -259t212 -95t213 95.5t76 260.5q0 164 -75 259.5t-214 95.5 q-138 0 -212.5 -94t-74.5 -263z" />
<glyph unicode="&#xf5;" d="M135 522q0 253 134 401t362 148t361.5 -147t133.5 -400q0 -254 -133.5 -401.5t-361.5 -147.5t-362 146.5t-134 400.5zM258 1223q0 254 213 254q49 0 100 -16t86 -34.5t76.5 -34.5t75.5 -16q41 0 68 23.5t28 68.5h103q0 -254 -213 -254q-62 0 -125 25t-117.5 49.5 t-95.5 24.5q-40 0 -67 -23t-30 -67h-102zM344 522q0 -164 75 -259t212 -95t213 95.5t76 260.5q0 164 -75 259.5t-214 95.5q-138 0 -212.5 -94t-74.5 -263z" />
<glyph unicode="&#xf6;" d="M135 522q0 253 134 401t362 148t361.5 -147t133.5 -400q0 -254 -133.5 -401.5t-361.5 -147.5t-362 146.5t-134 400.5zM326 1339q0 53 35 88t88 35q52 0 87 -35t35 -88t-34.5 -87.5t-87.5 -34.5t-88 35t-35 87zM344 522q0 -164 75 -259t212 -95t213 95.5t76 260.5 q0 164 -75 259.5t-214 95.5q-138 0 -212.5 -94t-74.5 -263zM690 1339q0 53 35 88t88 35t88 -35t35 -88q0 -52 -35 -87t-88 -35t-88 35t-35 87z" />
<glyph unicode="&#xf7;" d="M150 602v199h962v-199h-962zM500 305q0 54 37 91.5t92 37.5t93 -37.5t38 -91.5q0 -53 -38 -89t-93 -36t-92 36t-37 89zM500 1098q0 52 37 89.5t92 37.5t93 -37.5t38 -89.5q0 -54 -37.5 -90.5t-93.5 -36.5q-55 0 -92 36.5t-37 90.5z" />
<glyph unicode="&#xf8;" d="M135 522q0 253 134 401t362 148q136 0 239 -53l37 53h189l-101 -149q131 -147 131 -398q0 -254 -133.5 -401.5t-361.5 -147.5q-136 0 -242 56l-37 -56h-186l100 150q-131 147 -131 397zM344 522q0 -127 45 -215l371 545q-62 27 -129 27q-138 0 -212.5 -94t-74.5 -263z M502 197q60 -29 129 -29q137 0 213 95.5t76 260.5q0 129 -48 217z" />
<glyph unicode="&#xf9;" d="M188 434v613h207v-598q0 -145 62.5 -212t165.5 -67q243 0 243 274v603h207v-1047h-207v102q-98 -127 -284 -127q-394 0 -394 459zM223 1499h277l291 -319h-203z" />
<glyph unicode="&#xfa;" d="M188 434v613h207v-598q0 -145 62.5 -212t165.5 -67q243 0 243 274v603h207v-1047h-207v102q-98 -127 -284 -127q-394 0 -394 459zM471 1180l291 319h274l-364 -319h-201z" />
<glyph unicode="&#xfb;" d="M188 434v613h207v-598q0 -145 62.5 -212t165.5 -67q243 0 243 274v603h207v-1047h-207v102q-98 -127 -284 -127q-394 0 -394 459zM233 1180l289 319h211l289 -319h-191l-204 174l-205 -174h-189z" />
<glyph unicode="&#xfc;" d="M188 434v613h207v-598q0 -145 62.5 -212t165.5 -67q243 0 243 274v603h207v-1047h-207v102q-98 -127 -284 -127q-394 0 -394 459zM322 1339q0 53 35 88t87 35t87.5 -35t35.5 -88q0 -52 -35 -87t-88 -35q-52 0 -87 34.5t-35 87.5zM686 1339q0 53 35 88t88 35t88 -35 t35 -88q0 -52 -35 -87t-88 -35t-88 35t-35 87z" />
<glyph unicode="&#xfd;" d="M139 1047h209l246 -674q19 -53 33 -101q6 22 35 101l247 674h213l-544 -1444h-209l157 422zM496 1180l290 319h275l-365 -319h-200z" />
<glyph unicode="&#xfe;" d="M195 -420v1780l206 100v-483q113 113 273 113q207 0 329.5 -149.5t122.5 -408.5t-126.5 -408t-327.5 -149q-168 0 -271 119v-418zM401 297q93 -127 242 -127q131 0 201.5 94t70.5 268q0 167 -71.5 265t-200.5 98q-160 0 -242 -125v-473z" />
<glyph unicode="&#xff;" d="M139 1047h209l246 -674q19 -53 33 -101q6 22 35 101l247 674h213l-544 -1444h-209l157 422zM322 1339q0 53 35 88t87 35t87.5 -35t35.5 -88q0 -52 -35 -87t-88 -35q-52 0 -87 34.5t-35 87.5zM686 1339q0 53 35 88t88 35t88 -35t35 -88q0 -52 -35 -87t-88 -35t-88 35 t-35 87z" />
<glyph unicode="&#x152;" d="M27 719q0 148 27 277t82 235.5t149.5 168.5t218.5 62q74 0 133 -24h586v-199h-381v-375h284v-198h-284v-465h399v-201h-604q-61 -25 -133 -25q-100 0 -181.5 41.5t-135.5 111.5t-91 166.5t-53 202t-16 222.5zM240 719q0 -112 15 -207t45.5 -172.5t82.5 -121.5t121 -44 q72 0 129 64v964q-55 64 -129 64q-68 0 -120.5 -47t-83 -126t-45.5 -173.5t-15 -200.5z" />
<glyph unicode="&#x153;" d="M41 522q0 259 90.5 404t245.5 145q170 0 260 -188q43 93 113 140.5t157 47.5q133 0 222.5 -128t89.5 -372q0 -61 -9 -129h-499q9 -131 60 -216t134 -85q85 0 164 113l86 -131q-49 -67 -116.5 -107.5t-141.5 -40.5q-84 0 -152 47.5t-112 129.5q-41 -83 -107 -130t-151 -47 q-155 0 -244.5 143.5t-89.5 403.5zM209 522q0 -176 44 -278.5t122 -102.5q81 0 126.5 102.5t45.5 280.5t-44.5 280.5t-127.5 102.5q-78 0 -122 -102t-44 -283zM709 604h346q-1 155 -45.5 229t-112.5 74q-76 0 -127.5 -76t-60.5 -227z" />
<glyph unicode="&#x178;" d="M111 1434h233l289 -654l291 654h229l-416 -871v-563h-209v563zM326 1729q0 52 35 87t88 35t87.5 -34.5t34.5 -87.5t-35 -88t-87 -35q-53 0 -88 35t-35 88zM690 1729q0 52 35 87t88 35t88 -35t35 -87q0 -53 -35 -88t-88 -35t-88 35t-35 88z" />
<glyph unicode="&#x2c6;" d="M238 1180l288 319h211l289 -319h-190l-205 174l-205 -174h-188z" />
<glyph unicode="&#x2dc;" d="M256 1223q0 254 213 254q49 0 100 -16t86 -34.5t76.5 -34.5t75.5 -16q41 0 68 23.5t28 68.5h103q0 -254 -213 -254q-62 0 -125 25t-117.5 49.5t-95.5 24.5q-40 0 -67 -23t-30 -67h-102z" />
<glyph unicode="&#x2000;" horiz-adv-x="947" />
<glyph unicode="&#x2001;" horiz-adv-x="1894" />
<glyph unicode="&#x2002;" horiz-adv-x="947" />
<glyph unicode="&#x2003;" horiz-adv-x="1894" />
<glyph unicode="&#x2004;" horiz-adv-x="631" />
<glyph unicode="&#x2005;" horiz-adv-x="473" />
<glyph unicode="&#x2006;" horiz-adv-x="315" />
<glyph unicode="&#x2007;" horiz-adv-x="315" />
<glyph unicode="&#x2008;" horiz-adv-x="236" />
<glyph unicode="&#x2009;" horiz-adv-x="378" />
<glyph unicode="&#x200a;" horiz-adv-x="105" />
<glyph unicode="&#x2010;" d="M150 510v197h962v-197h-962z" />
<glyph unicode="&#x2011;" d="M150 510v197h962v-197h-962z" />
<glyph unicode="&#x2012;" d="M150 510v197h962v-197h-962z" />
<glyph unicode="&#x2013;" d="M225 500v178h809v-178h-809z" />
<glyph unicode="&#x2014;" d="M10 500v178h1241v-178h-1241z" />
<glyph unicode="&#x2018;" d="M471 1092q0 139 66.5 263t150.5 185l96 -51q-47 -54 -85.5 -132.5t-45.5 -158.5q57 -9 92 -47t35 -96q0 -67 -44.5 -110.5t-106.5 -43.5q-68 0 -113 50t-45 141z" />
<glyph unicode="&#x2019;" d="M475 954q47 52 85.5 130.5t45.5 160.5q-57 9 -92 46.5t-35 97.5q0 67 45 109t107 42q68 0 112.5 -48.5t44.5 -139.5q0 -139 -66.5 -263.5t-150.5 -187.5z" />
<glyph unicode="&#x201a;" d="M475 -319q48 53 87 131.5t44 158.5q-57 9 -91 47.5t-34 98.5q0 67 44 109t106 42q69 0 114.5 -48.5t45.5 -139.5q0 -141 -67.5 -265.5t-152.5 -185.5z" />
<glyph unicode="&#x201c;" d="M250 1092q0 139 66.5 263t150.5 185l96 -51q-47 -54 -85.5 -132.5t-45.5 -158.5q57 -9 92 -47t35 -96q0 -67 -44.5 -110.5t-106.5 -43.5q-68 0 -113 50t-45 141zM694 1092q0 140 67 263.5t152 184.5l97 -51q-48 -53 -86.5 -132t-44.5 -159q57 -9 91 -46.5t34 -96.5 q0 -67 -44 -110.5t-106 -43.5q-68 0 -114 50t-46 141z" />
<glyph unicode="&#x201d;" d="M254 954q47 52 85.5 130.5t45.5 160.5q-57 9 -92 46.5t-35 97.5q0 67 45 109t107 42q68 0 112.5 -48.5t44.5 -139.5q0 -139 -66.5 -263.5t-150.5 -187.5zM698 954q47 52 85.5 130.5t45.5 160.5q-57 9 -92 46.5t-35 97.5q0 67 45 109t107 42q68 0 113 -48.5t45 -139.5 q0 -139 -66.5 -263.5t-150.5 -187.5z" />
<glyph unicode="&#x201e;" d="M254 -319q47 54 85.5 132t45.5 158q-57 9 -92 47.5t-35 98.5q0 67 45 109t107 42q68 0 112.5 -48.5t44.5 -139.5q0 -141 -66.5 -265.5t-150.5 -185.5zM698 -319q47 54 85.5 132t45.5 158q-57 9 -92 47.5t-35 98.5q0 67 45 109t107 42q68 0 113 -48.5t45 -139.5 q0 -141 -66.5 -265.5t-150.5 -185.5z" />
<glyph unicode="&#x2022;" d="M342 717q0 122 83 206.5t204 84.5q122 0 207.5 -85t85.5 -206t-85.5 -205t-207.5 -84q-121 0 -204 83.5t-83 205.5z" />
<glyph unicode="&#x2026;" d="M59 123q0 61 44 105t108 44t107.5 -44t43.5 -105q0 -62 -43.5 -106t-107.5 -44t-108 44t-44 106zM479 123q0 61 44 105t108 44t107.5 -44t43.5 -105q0 -62 -43.5 -106t-107.5 -44t-108 44t-44 106zM901 123q0 61 43 105t107 44t107.5 -44t43.5 -105q0 -62 -43.5 -106 t-107.5 -44t-107 44t-43 106z" />
<glyph unicode="&#x202f;" horiz-adv-x="378" />
<glyph unicode="&#x2039;" d="M365 524l311 523h223l-311 -523l311 -524h-223z" />
<glyph unicode="&#x203a;" d="M365 0l311 524l-311 523h223l311 -523l-311 -524h-223z" />
<glyph unicode="&#x205f;" horiz-adv-x="473" />
<glyph unicode="&#x20ac;" d="M76 461l71 157h78q-2 31 -2 97q0 44 2 73h-149l71 158h99q20 107 60 195.5t103 161.5t158 114t213 41q196 0 363 -117l-76 -186q-128 109 -289 109q-130 0 -206 -86.5t-107 -229.5h516l-66 -160h-475q-2 -37 -2 -90q0 -68 2 -80h408l-66 -159h-315q30 -130 102 -209.5 t187 -79.5q158 0 266 147l164 -102q-67 -107 -176.5 -173.5t-251.5 -66.5q-115 0 -205.5 36t-151 103t-98.5 153t-57 194h-170z" />
<glyph unicode="&#x2122;" d="M16 1292v142h531v-142h-191v-723h-151v723h-189zM590 569v865h151l160 -467l19 -60l16 60l160 467h151v-865h-151v461l-27 -74l-137 -387h-25l-139 387l-27 78v-465h-151z" />
<glyph unicode="&#x25fc;" horiz-adv-x="1044" d="M0 0v1044h1044v-1044h-1044z" />
<glyph unicode="&#xfb01;" horiz-adv-x="2523" d="M258 0v182h221v684h-221v181h221v149q0 60 20 107t52 75.5t76.5 47t89.5 25.5t96 7q134 0 238 -49v-174q-93 41 -199 41q-83 0 -125.5 -31t-42.5 -88v-110h330v-181h-330v-684h279v-182h-705zM1518 0v182h288v684h-288v181h493v-865h289v-182h-782zM1784 1341q0 53 36 89 t89 36q54 0 89.5 -36t35.5 -89t-35.5 -88.5t-89.5 -35.5q-53 0 -89 36t-36 88z" />
<glyph unicode="&#xfb02;" horiz-adv-x="2523" d="M258 0v182h221v684h-221v181h221v149q0 60 20 107t52 75.5t76.5 47t89.5 25.5t96 7q134 0 238 -49v-174q-93 41 -199 41q-83 0 -125.5 -31t-42.5 -88v-110h330v-181h-330v-684h279v-182h-705zM1464 1479h547v-1297h299v-182h-805v182h301v1116h-247z" />
</font>
</defs>
</svg>
