<?xml version="1.0" encoding="iso-8859-1"?>
<!-- Generator: Adobe Illustrator 15.0.0, SVG Export Plug-In . SVG Version: 6.00 Build 0)  -->
<!DOCTYPE svg PUBLIC "-//W3C//DTD SVG 1.1//EN" "http://www.w3.org/Graphics/SVG/1.1/DTD/svg11.dtd">
<svg version="1.1" xmlns="http://www.w3.org/2000/svg" xmlns:xlink="http://www.w3.org/1999/xlink" x="0px" y="0px" width="1024px"
	 height="768px" viewBox="0 0 1024 768" style="enable-background:new 0 0 1024 768;" xml:space="preserve">
<g id="Layer_1" style="display:none;">
</g>
<g id="Layer_2_copy">
	<g>
		<path style="display:none;fill:#0288D1;" d="M540.859,223h24.75l4.95,51.713L599.359,467h0.075L570.56,273.963L565.609,222h-24.75
			c-4.408,12-11.279,28.592-20.625,51.138L436.909,467h0.215l83.11-193.112C529.58,251.342,536.451,234,540.859,223z"/>
		<path style="fill:#0288D1;" d="M399.784,555l-53.083,123.839c53.467,32.424,116.203,51.127,183.299,51.127
			c37.066,0,72.8-5.753,106.377-16.319L612.635,555H399.784z"/>
		<path style="fill:#0288D1;" d="M530,22c-195.509,0-354,158.491-354,354c0,92.035,35.125,175.863,92.697,238.82l0.033-0.073
			c-0.011-0.013-0.022-0.024-0.033-0.036l202.037-443.917c5.491-17.042,18.15-25.793,37.95-25.793h101.475
			c8.792,0,16.358,3.106,22.688,8.881c6.316,5.775,9.759,12.942,10.313,21.192l42.963,240.226l45.084,252.006
			C823.524,603.417,884,496.768,884,376C884,180.491,725.509,22,530,22z"/>
		<path style="fill:#0288D1;" d="M570.56,274.713L565.609,223h-24.75c-4.408,11-11.279,28.342-20.625,50.888L437.124,467h162.235
			L570.56,274.713z"/>
		<path style="display:none;fill:#0288D1;" d="M636.56,715l6.167-3.098c-2.096,0.704-4.199,1.389-6.312,2.054L636.56,715z"/>
		<path style="display:none;fill:#0288D1;" d="M632.847,153.881c-6.329-5.775-13.896-8.881-22.688-8.881H508.685
			c-19.8,0-32.459,8.752-37.95,25.793L268.697,614.711c0.011,0.012,0.022,0.023,0.033,0.036c0.337,0.368,0.682,0.729,1.021,1.097
			l-1.054-0.867c22.738,24.865,48.976,46.555,77.937,64.126l-0.533-0.438c0.179,0.108,0.354,0.222,0.533,0.33l0.067-0.155
			L399.784,555h212.851l23.742,158.646l0.038,0.256c2.227-0.701,4.442-1.426,6.649-2.17l-0.338,0.17
			c31.739-10.663,61.473-25.759,88.479-44.449l-0.371,0.187c0.123-0.085,0.248-0.167,0.371-0.252l-45.084-252.089l-42.963-240.226
			C642.605,166.823,639.163,159.656,632.847,153.881z M436.909,467l83.325-193.862C529.58,250.592,536.451,234,540.859,222h24.75
			l4.95,51.963L599.435,467h-0.075H437.124H436.909z"/>
	</g>
</g>
<g id="Layer_2" style="display:none;">
	
		<text transform="matrix(1 0 0 1 255.1094 722.6865)" style="display:inline;fill:#FFFFFF; font-family:'Exo2-SemiBoldItalic'; font-size:825;">A</text>
</g>
</svg>
