<?xml version="1.0" encoding="UTF-8"?>
<svg version="1.1" viewBox="0 0 24 24" xmlns="http://www.w3.org/2000/svg" xmlns:xlink="http://www.w3.org/1999/xlink">
    <!--Generated by IJSVG (https://github.com/curthard89/IJSVG)-->
    <path fill="none" d="M0,0h24v24h-24Z"></path>
    <g>
        <path d="M10,14l-5.334,-4h-3.166c-0.827,0 -1.5,-0.673 -1.5,-1.5v-7c0,-0.827 0.673,-1.5 1.5,-1.5h10c0.827,0 1.5,0.673 1.5,1.5v7c0,0.827 -0.673,1.5 -1.5,1.5h-1.5v4Zm-8,-6h3.334l2.666,2v-2h3v-6h-9v6Z" transform="translate(10.998, 10)"></path>
        <path d="M3,18v-4h-1.5c-0.827,0 -1.5,-0.673 -1.5,-1.5v-11c0,-0.827 0.673,-1.5 1.5,-1.5h13c0.827,0 1.5,0.673 1.5,1.5v4.498h-2v-3.998h-12v10h3v2l2.666,-2h1.334v2h-0.666l-5.334,4Z" transform="translate(-0.002, 2)"></path>
    </g>
</svg>