<?xml version="1.0" encoding="UTF-8"?>
<svg version="1.1" viewBox="0 0 20 20" xmlns="http://www.w3.org/2000/svg" xmlns:xlink="http://www.w3.org/1999/xlink">
    <!--Generated by IJSVG (https://github.com/curthard89/IJSVG)-->
    <g fill="#000000">
        <path d="M9.166,10.166c-0.469,0.469 -1.229,0.469 -1.697,0l-2.651,-3.03l-2.651,3.029c-0.469,0.469 -1.229,0.469 -1.697,0c-0.469,-0.469 -0.469,-1.229 0,-1.697l2.758,-3.15l-2.759,-3.152c-0.469,-0.469 -0.469,-1.228 0,-1.697c0.469,-0.469 1.228,-0.469 1.697,0l2.652,3.031l2.651,-3.031c0.469,-0.469 1.228,-0.469 1.697,0c0.469,0.469 0.469,1.229 0,1.697l-2.758,3.152l2.758,3.15c0.469,0.469 0.469,1.229 0,1.698Z" transform="translate(5.182, 4.683)"></path>
    </g>
</svg>