<?xml version="1.0" encoding="iso-8859-1"?>
<!-- Generator: Adobe Illustrator 15.0.0, SVG Export Plug-In . SVG Version: 6.00 Build 0)  -->
<!DOCTYPE svg PUBLIC "-//W3C//DTD SVG 1.1//EN" "http://www.w3.org/Graphics/SVG/1.1/DTD/svg11.dtd">
<svg version="1.1" id="Layer_1" xmlns="http://www.w3.org/2000/svg" xmlns:xlink="http://www.w3.org/1999/xlink" x="0px" y="0px"
	 width="96px" height="96px" viewBox="0 0 96 96" style="enable-background:new 0 0 96 96;" xml:space="preserve">
<g>
	<defs>
		<rect id="SVGID_1_" width="96" height="96"/>
	</defs>
	<clipPath id="SVGID_2_">
		<use xlink:href="#SVGID_1_"  style="overflow:visible;"/>
	</clipPath>
	
		<circle style="clip-path:url(#SVGID_2_);fill:none;stroke:#244356;stroke-width:4;stroke-linecap:round;stroke-miterlimit:10;" cx="35" cy="27" r="1"/>
	
		<circle style="clip-path:url(#SVGID_2_);fill:none;stroke:#244356;stroke-width:4;stroke-linecap:round;stroke-miterlimit:10;" cx="35" cy="27" r="13"/>
	
		<circle style="clip-path:url(#SVGID_2_);fill:none;stroke:#244356;stroke-width:4;stroke-linecap:round;stroke-linejoin:round;stroke-miterlimit:10;" cx="93" cy="24" r="1"/>
	
		<circle style="clip-path:url(#SVGID_2_);fill:none;stroke:#244356;stroke-width:4;stroke-linecap:round;stroke-linejoin:round;stroke-miterlimit:10;" cx="84" cy="91" r="1"/>
	
		<circle style="clip-path:url(#SVGID_2_);fill:none;stroke:#244356;stroke-width:4;stroke-linecap:round;stroke-linejoin:round;stroke-miterlimit:10;" cx="86" cy="7" r="5"/>
	
		<line style="clip-path:url(#SVGID_2_);fill:none;stroke:#244356;stroke-width:4;stroke-linecap:round;stroke-miterlimit:10;" x1="2" y1="48" x2="94" y2="48"/>
	
		<line style="clip-path:url(#SVGID_2_);fill:none;stroke:#244356;stroke-width:4;stroke-linecap:round;stroke-miterlimit:10;" x1="61" y1="9" x2="74" y2="9"/>
	
		<line style="clip-path:url(#SVGID_2_);fill:none;stroke:#244356;stroke-width:4;stroke-linecap:round;stroke-miterlimit:10;" x1="71" y1="24" x2="86" y2="24"/>
	
		<line style="clip-path:url(#SVGID_2_);fill:none;stroke:#244356;stroke-width:4;stroke-linecap:round;stroke-miterlimit:10;" x1="68" y1="30" x2="84" y2="30"/>
	
		<line style="clip-path:url(#SVGID_2_);fill:none;stroke:#244356;stroke-width:4;stroke-linecap:round;stroke-miterlimit:10;" x1="68" y1="16" x2="78" y2="16"/>
	
		<line style="clip-path:url(#SVGID_2_);fill:none;stroke:#244356;stroke-width:4;stroke-linecap:round;stroke-miterlimit:10;" x1="71" y1="94" x2="48" y2="94"/>
	
		<line style="clip-path:url(#SVGID_2_);fill:none;stroke:#244356;stroke-width:4;stroke-linecap:round;stroke-miterlimit:10;" x1="90" y1="75" x2="75" y2="75"/>
	
		<line style="clip-path:url(#SVGID_2_);fill:none;stroke:#244356;stroke-width:4;stroke-linecap:round;stroke-miterlimit:10;" x1="87" y1="69" x2="66" y2="69"/>
	
		<line style="clip-path:url(#SVGID_2_);fill:none;stroke:#244356;stroke-width:4;stroke-linecap:round;stroke-miterlimit:10;" x1="82" y1="82" x2="72" y2="82"/>
	
		<line style="clip-path:url(#SVGID_2_);fill:none;stroke:#244356;stroke-width:4;stroke-linecap:round;stroke-miterlimit:10;" x1="83" y1="42" x2="93.623" y2="42"/>
	
		<line style="clip-path:url(#SVGID_2_);fill:none;stroke:#244356;stroke-width:4;stroke-linecap:round;stroke-miterlimit:10;" x1="86" y1="59" x2="92.612" y2="59"/>
	
		<line style="clip-path:url(#SVGID_2_);fill:none;stroke:#244356;stroke-width:4;stroke-linecap:round;stroke-miterlimit:10;" x1="89" y1="54" x2="93.586" y2="54"/>
	<path style="clip-path:url(#SVGID_2_);fill:none;stroke:#244356;stroke-width:4;stroke-linecap:round;stroke-miterlimit:10;" d="
		M52.003,83.78c-0.608,0.066-1.221,0.119-1.837,0.155"/>
	<path style="clip-path:url(#SVGID_2_);fill:none;stroke:#244356;stroke-width:4;stroke-linecap:round;stroke-miterlimit:10;" d="
		M43,84c-9.908-1.492-18.899-7.425-24.431-15.263"/>
	
		<line style="clip-path:url(#SVGID_2_);fill:none;stroke:#244356;stroke-width:4;stroke-linecap:round;stroke-miterlimit:10;" x1="83" y1="54" x2="81" y2="54"/>
	
		<line style="clip-path:url(#SVGID_2_);fill:none;stroke:#244356;stroke-width:4;stroke-linecap:round;stroke-miterlimit:10;" x1="78" y1="59" x2="76" y2="59"/>
	
		<line style="clip-path:url(#SVGID_2_);fill:none;stroke:#244356;stroke-width:4;stroke-linecap:round;stroke-miterlimit:10;" x1="60" y1="69" x2="58" y2="69"/>
	
		<line style="clip-path:url(#SVGID_2_);fill:none;stroke:#244356;stroke-width:4;stroke-linecap:round;stroke-miterlimit:10;" x1="64" y1="24" x2="62" y2="24"/>
	
		<path style="clip-path:url(#SVGID_2_);fill:none;stroke:#244356;stroke-width:4;stroke-linecap:round;stroke-linejoin:round;stroke-miterlimit:10;" d="
		M69.175,88.873c0,0,8.492-3.664,12.159-22.577c0,0,0.104-2.547,9.679-2.297h0.003c1.929-5,2.984-10.413,2.984-16.166
		c0-4.098-0.535-7.904-1.541-11.686l-0.089-0.324C83.167,36.583,79.334,34,79.334,34c-4-21.333-14.159-28.686-14.159-28.686
		l-0.046-0.019C59.835,3.169,54.054,2,48,2C22.595,2,2,22.595,2,48c0,25.406,20.595,46,46,46
		C55.646,93.999,62.831,92.174,69.175,88.873z"/>
</g>
</svg>
