<svg xmlns="http://www.w3.org/2000/svg" xmlns:xlink="http://www.w3.org/1999/xlink" width="96" height="96" viewBox="0 0 96 96">
  <defs>
    <path id="a" d="M0 0h96v96H0z"/>
  </defs>
  <clipPath id="b">
    <use xlink:href="#a" overflow="visible"/>
  </clipPath>
  <circle cx="35" cy="27" r="1" clip-path="url(#b)" fill="none" stroke="#244356" stroke-width="4" stroke-linecap="round" stroke-miterlimit="10"/>
  <circle cx="35" cy="27" r="13" clip-path="url(#b)" fill="none" stroke="#244356" stroke-width="4" stroke-linecap="round" stroke-miterlimit="10"/>
  <circle cx="93" cy="24" r="1" clip-path="url(#b)" fill="none" stroke="#244356" stroke-width="4" stroke-linecap="round" stroke-linejoin="round" stroke-miterlimit="10"/>
  <circle cx="84" cy="91" r="1" clip-path="url(#b)" fill="none" stroke="#244356" stroke-width="4" stroke-linecap="round" stroke-linejoin="round" stroke-miterlimit="10"/>
  <circle cx="86" cy="7" r="5" clip-path="url(#b)" fill="none" stroke="#244356" stroke-width="4" stroke-linecap="round" stroke-linejoin="round" stroke-miterlimit="10"/>
  <path clip-path="url(#b)" fill="none" stroke="#244356" stroke-width="4" stroke-linecap="round" stroke-miterlimit="10" d="M2 48h92M61 9h13M71 24h15M68 30h16M68 16h10M71 94H48M90 75H75M87 69H66M82 82H72M83 42h10.623M86 59h6.612M89 54h4.586M52.003 83.78c-.608.066-1.221.119-1.837.155M43 84c-9.908-1.492-18.899-7.425-24.431-15.263M83 54h-2M78 59h-2M60 69h-2M64 24h-2"/>
  <path d="M69.175 88.873s8.492-3.664 12.159-22.577c0 0 .104-2.547 9.679-2.297h.003c1.929-5 2.984-10.413 2.984-16.166 0-4.098-.535-7.904-1.541-11.686l-.089-.324C83.167 36.583 79.334 34 79.334 34c-4-21.333-14.159-28.686-14.159-28.686l-.046-.019C59.835 3.169 54.054 2 48 2 22.595 2 2 22.595 2 48c0 25.406 20.595 46 46 46 7.646-.001 14.831-1.826 21.175-5.127z" clip-path="url(#b)" fill="none" stroke="#244356" stroke-width="4" stroke-linecap="round" stroke-linejoin="round" stroke-miterlimit="10"/>
</svg>
