<?xml version="1.0" encoding="UTF-8"?>
<svg version="1.1" viewBox="0 0 20 20" xmlns="http://www.w3.org/2000/svg" xmlns:xlink="http://www.w3.org/1999/xlink">
    <!--Generated by IJSVG (https://github.com/curthard89/IJSVG)-->
    <g fill="#000000">
        <path d="M16.032,6.49c-1.584,-3.686 -4.132,-6.49 -5.421,-5.967c-2.189,0.891 1.304,5.164 -9.447,9.533c-0.929,0.379 -1.164,1.888 -0.775,2.792c0.388,0.902 1.658,1.801 2.587,1.424c0.161,-0.066 0.751,-0.256 0.751,-0.256c0.663,0.891 1.357,0.363 1.604,0.928c0.296,0.68 0.939,2.158 1.158,2.66c0.219,0.502 0.715,0.967 1.075,0.83c0.359,-0.137 1.582,-0.602 2.05,-0.779c0.468,-0.178 0.579,-0.596 0.436,-0.924c-0.154,-0.355 -0.786,-0.459 -0.967,-0.873c-0.18,-0.412 -0.769,-1.738 -0.938,-2.156c-0.23,-0.568 0.259,-1.031 0.97,-1.104c4.894,-0.512 5.809,2.512 7.475,1.834c1.287,-0.525 1.025,-4.259 -0.558,-7.942Zm-0.551,5.976c-0.287,0.115 -2.213,-1.402 -3.443,-4.267c-1.231,-2.863 -1.076,-5.48 -0.79,-5.597c0.286,-0.115 2.165,1.717 3.395,4.58c1.231,2.863 1.124,5.167 0.838,5.284Z" transform="translate(1.191, 0.54)"></path>
    </g>
</svg>