<svg viewBox="0 0 24 24" xmlns="http://www.w3.org/2000/svg">
  <path fill="none" d="M0 0h24v24H0z"/>
  <path d="M22.398 11.082C17.227 8.838 13.463 7.16 10.706 5.93c-5.377-2.397-6.823-3.042-7.83-3.042-.864 0-1.289.524-1.429.695-.529.652-.593 1.573-.162 2.29L4.961 12l-3.675 6.125c-.432.718-.367 1.638.162 2.29.14.173.565.697 1.43.697 1.006 0 2.446-.643 7.799-3.03 2.76-1.231 6.532-2.914 11.722-5.165.365-.16.601-.52.601-.918s-.236-.759-.602-.917zM3.083 4.914c.8.164 2.929 1.114 6.808 2.844 1.91.852 4.312 1.922 7.317 3.241H6.693l-3.61-6.085zm6.779 11.341c-3.942 1.759-6.069 2.707-6.827 2.84l3.658-6.097h10.516c-3.021 1.328-5.433 2.403-7.347 3.257z"/>
</svg>
