<?xml version="1.0" standalone="no"?>
<!DOCTYPE svg PUBLIC "-//W3C//DTD SVG 1.1//EN" "http://www.w3.org/Graphics/SVG/1.1/DTD/svg11.dtd" >
<svg xmlns="http://www.w3.org/2000/svg" xmlns:xlink="http://www.w3.org/1999/xlink" version="1.1">
<metadata></metadata>
<defs>
<font id="spectralbold_italic" horiz-adv-x="1148" >
<font-face units-per-em="2048" ascent="1638" descent="-410" />
<missing-glyph horiz-adv-x="501" />
<glyph unicode="&#xfb01;" horiz-adv-x="1292" d="M-254 -428q0 16 12 35l58 100h12l59 -51q27 -25 66 -25q51 0 83 58.5t52 191.5l150 963h-148v90h162l10 70q16 106 110.5 230t232.5 213t290 89q133 0 219 -49q51 -31 51 -66q0 -25 -21.5 -53.5t-35.5 -42.5l-43 -51h-14l-37 33q-72 57 -114 82.5t-101 25.5 q-117 0 -176.5 -95t-81.5 -235l-25 -151h658l-121 -676q-16 -96 34 -96q70 0 138 147l37 -12q-57 -152 -131 -234.5t-173 -82.5q-217 0 -165 278l102 586h-393l-133 -830q-14 -88 -96.5 -206.5t-194 -209t-209.5 -90.5q-53 0 -88 19.5t-35 44.5z" />
<glyph unicode="&#xfb02;" horiz-adv-x="1265" d="M-254 -428q0 16 12 35l58 100h12l59 -51q27 -25 66 -25q51 0 83 58.5t52 191.5l150 963h-148v90h162l10 70q16 98 107.5 223t228.5 217t289 92q111 0 192 -37l172 37h6l-225 -1278q-16 -96 35 -96q68 0 135 147l39 -12q-57 -152 -131 -234.5t-172 -82.5q-215 0 -168 278 l195 1102q-80 59 -166 59q-119 0 -177.5 -97t-80.5 -237l-25 -151h207v-90h-221l-133 -830q-14 -88 -96.5 -206.5t-194 -209t-209.5 -90.5q-53 0 -88 19.5t-35 44.5z" />
<glyph unicode="&#xfb03;" horiz-adv-x="1968" d="M-254 -428q0 16 12 35l58 100h12l59 -51q27 -25 66 -25q51 0 83 58.5t52 191.5l150 963h-148v90h162l10 70q14 94 105.5 219t212 219t219.5 94q51 0 84 -16q37 -18 37 -43q0 -10 -17 -43l-74 -125h-14l-33 34q-43 43 -77 43q-59 0 -97.5 -59t-60.5 -205l-31 -188h412 l10 70q16 106 109.5 230t231.5 213t292 89q133 0 219 -49q51 -31 51 -66q0 -25 -21.5 -53.5t-35.5 -42.5l-43 -51h-15l-36 33q-72 57 -114 82.5t-103 25.5q-115 0 -174.5 -95t-81.5 -235l-25 -151h657l-120 -676q-16 -96 34 -96q70 0 138 147l36 -12q-57 -152 -130.5 -234.5 t-172.5 -82.5q-217 0 -166 278l103 586h-393l-134 -830q-14 -88 -98 -206.5t-194.5 -209t-206.5 -90.5q-51 0 -87 19.5t-36 42.5q0 18 12 37l58 100h12l59 -51q31 -25 72 -25q51 0 78.5 57.5t50.5 192.5l149 963h-411l-133 -830q-14 -88 -96.5 -206.5t-194 -209 t-209.5 -90.5q-53 0 -88 19.5t-35 44.5z" />
<glyph unicode="&#xfb04;" horiz-adv-x="1941" d="M-254 -428q0 16 12 35l58 100h12l59 -51q27 -25 66 -25q51 0 83 58.5t52 191.5l150 963h-148v90h162l10 70q14 94 105.5 219t212 219t219.5 94q51 0 84 -16q37 -18 37 -43q0 -10 -17 -43l-74 -125h-14l-33 34q-43 43 -77 43q-59 0 -97.5 -59t-60.5 -205l-31 -188h412 l10 70q16 98 107.5 223t228.5 217t289 92q111 0 192 -37l172 37h6l-225 -1278q-16 -96 35 -96q68 0 135 147l39 -12q-57 -152 -131 -234.5t-172 -82.5q-215 0 -168 278l194 1102q-80 59 -165 59q-119 0 -177.5 -97t-80.5 -237l-25 -151h207v-90h-221l-134 -830 q-14 -88 -97 -206.5t-193.5 -209t-208.5 -90.5q-53 0 -88 19.5t-35 44.5q0 16 12 35l58 100h12l59 -51q27 -25 66 -25q51 0 82.5 58.5t52.5 191.5l149 963h-411l-133 -830q-14 -88 -96.5 -206.5t-194 -209t-209.5 -90.5q-53 0 -88 19.5t-35 44.5z" />
<glyph horiz-adv-x="0" />
<glyph horiz-adv-x="682" />
<glyph unicode=" "  horiz-adv-x="501" />
<glyph unicode="&#x09;" horiz-adv-x="501" />
<glyph unicode="&#xa0;" horiz-adv-x="501" />
<glyph unicode="!" horiz-adv-x="526" d="M49 111q0 59 41 107t105 48q59 0 87.5 -33.5t28.5 -85.5q0 -66 -39.5 -111.5t-105.5 -45.5q-117 0 -117 121zM207 446l47 906h281l-271 -906h-57z" />
<glyph unicode="&#x22;" horiz-adv-x="921" d="M258 1004l90 512h115l-91 -512h-114zM643 1004l90 512h115l-91 -512h-114z" />
<glyph unicode="#" d="M84 0l172 424h-162l15 90h184l131 320h-193l15 90h215l174 428h98l-174 -428h234l174 428h98l-174 -428h160l-15 -90h-182l-131 -320h190l-14 -90h-213l-172 -424h-98l172 424h-234l-172 -424h-98zM391 514h234l131 320h-234z" />
<glyph unicode="$" d="M123 252q0 51 28.5 75.5t63.5 24.5h88l10 -8l-8 -55q-20 -127 70 -180l86 505q-12 8 -27 17q-96 57 -149.5 131t-53.5 186q0 145 103.5 256t253.5 150l28 162h80l-24 -146q27 2 55 2q31 0 59 -2l25 146h80l-27 -158q49 -12 84 -32.5t62 -45.5q80 -70 80 -145 q0 -47 -27 -73t-59 -26h-95l-10 8l10 56q16 100 -65 143l-82 -473q133 -80 190.5 -161t57.5 -193q0 -164 -106.5 -275.5t-274.5 -146.5l-27 -158h-80l25 146q-29 -2 -58 -2t-57 4l-24 -148h-80l28 164q-55 16 -98 43t-68 53q-68 78 -67 156zM449 1059q0 -74 65 -133l55 315 q-53 -25 -86.5 -70.5t-33.5 -111.5zM451 82q20 -2 43 -2q37 0 71 6l72 422q-20 14 -47 29.5t-55 33.5zM586 872q39 -25 104 -61l78 455q-31 4 -66 4q-25 0 -49 -4zM649 113q129 61 129 196q0 84 -69 146z" />
<glyph unicode="%" horiz-adv-x="1562" d="M90 1010q0 199 106.5 362.5t276.5 163.5q115 0 177.5 -81t62.5 -224q0 -197 -106.5 -360.5t-276.5 -163.5q-115 0 -177.5 80.5t-62.5 222.5zM121 39l1233 1497l78 -59l-1235 -1497zM303 940q0 -78 11.5 -125t46.5 -47q49 0 80.5 96t47 223t15.5 222q0 72 -12.5 119 t-48.5 47q-49 0 -80 -95.5t-45.5 -220.5t-14.5 -219zM864 283q0 199 106.5 362.5t276.5 163.5q115 0 177.5 -81t62.5 -224q0 -197 -106.5 -360.5t-276.5 -163.5q-115 0 -177.5 80.5t-62.5 222.5zM1077 213q0 -78 11.5 -125t46.5 -47q49 0 80.5 96t47 223t15.5 222 q0 72 -12.5 119t-48.5 47q-49 0 -80 -95.5t-45.5 -220.5t-14.5 -219z" />
<glyph unicode="&#x26;" horiz-adv-x="1615" d="M59 303q0 152 96.5 247t262.5 163q-55 80 -82 145.5t-27 138.5q0 174 114 274.5t306 100.5q160 0 259 -70.5t99 -185.5q0 -104 -90 -183t-299 -145q10 -14 23 -30l283 -373l12 -16q102 127 196 313l-176 80l6 33h480l-6 -33l-181 -76q-68 -111 -134 -206t-134 -173 q152 -174 289 -174q72 0 127 41h6l20 -27q-53 -82 -139 -124.5t-178 -42.5q-98 0 -172 35.5t-146 107.5q-192 -143 -419 -143q-178 0 -287 86t-109 237zM311 377q0 -123 66.5 -201t193.5 -78t250 84q-23 27 -51 64l-293 385q-14 18 -26 35q-140 -103 -140 -289zM551 1100 q0 -53 25.5 -114.5t87.5 -149.5q90 59 136 139t46 160q0 66 -34 109.5t-103 43.5q-72 0 -115 -54t-43 -134z" />
<glyph unicode="'" horiz-adv-x="512" d="M246 1004l90 512h115l-91 -512h-114z" />
<glyph unicode="(" horiz-adv-x="555" d="M150 424q0 317 141 601t368 491h41v-7q-190 -248 -303.5 -537.5t-113.5 -611.5q0 -188 25.5 -347.5t88.5 -313.5v-6h-41q-207 322 -206 731z" />
<glyph unicode=")" horiz-adv-x="555" d="M-145 -301q190 248 303.5 538.5t113.5 610.5q0 188 -25.5 349t-88.5 312v7h41q207 -322 207 -732q0 -317 -141.5 -600.5t-368.5 -490.5h-41v6z" />
<glyph unicode="*" horiz-adv-x="737" d="M117 1212l69 150l232 -133l-4 287h157l-104 -287l274 133l27 -150l-293 -38l176 -207l-145 -88l-80 256l-170 -258l-115 94l250 203z" />
<glyph unicode="+" d="M121 504l18 106h373l66 377h116l-65 -377h370l-20 -106h-371l-65 -377h-117l66 377h-371z" />
<glyph unicode="," horiz-adv-x="514" d="M-10 -342q115 55 163 110.5t48 125.5q0 86 -74 133l-59 36l-2 23l86 113q33 43 53 43q16 0 45 -19q113 -68 112 -211q0 -115 -91 -220t-281 -187v53z" />
<glyph unicode="-" horiz-adv-x="724" d="M94 461l23 131h551l-23 -131h-551z" />
<glyph unicode="." horiz-adv-x="514" d="M66 111q0 59 40.5 107t104.5 48q59 0 88 -33.5t29 -85.5q0 -61 -40 -109t-108 -48q-115 0 -114 121z" />
<glyph unicode="/" horiz-adv-x="581" d="M-123 -246l723 1782h105l-723 -1782h-105z" />
<glyph unicode="0" d="M96 465q0 231 80 439t216 338t302 130q172 0 265.5 -128t93.5 -357q0 -231 -80 -439t-216 -338t-304 -130q-172 0 -264.5 128t-92.5 357zM385 387q0 -143 24 -226t87 -83q59 0 109 84t86 219t55.5 289.5t19.5 296.5q0 143 -24.5 225t-88.5 82q-80 0 -140 -143.5 t-94 -349.5t-34 -394z" />
<glyph unicode="1" d="M184 0l9 33l192 84l176 999l-336 -158l17 86l491 308h139l-215 -1235l160 -84l-6 -33h-627z" />
<glyph unicode="2" d="M29 0l14 76q240 238 384 396.5t217 264t97.5 185t24.5 161.5q0 80 -45 131.5t-125 51.5q-166 0 -201 -232l-14 -84l-23 -24h-118q-37 0 -54.5 11t-7.5 69q10 59 49 121.5t127 121.5q74 51 146.5 87t208.5 36q145 0 243.5 -82t98.5 -217q0 -106 -59.5 -207.5t-219.5 -249 t-459 -393.5h486l151 211h33l-90 -434h-864z" />
<glyph unicode="3" d="M43 221q0 106 80 107h131l14 -21l-10 -71q-31 -166 164 -166q119 0 193.5 94t74.5 256q0 106 -63.5 168.5t-192.5 62.5h-123l19 97h59q156 0 254 102t98 252q0 180 -139 180q-162 0 -188 -182l-13 -88l-22 -23h-121q-66 0 -65 51q0 119 145 224q72 51 145.5 79.5 t175.5 28.5q168 0 267.5 -83t99.5 -199q0 -135 -112.5 -230.5t-282.5 -126.5q348 -47 348 -313q0 -180 -168 -310t-393 -130q-102 0 -176 26.5t-119 65.5q-80 63 -80 149z" />
<glyph unicode="4" d="M10 358l13 64l823 930h127l-146 -838h224l-27 -156h-225l-62 -358h-274l63 358h-516zM223 514h330l84 479z" />
<glyph unicode="5" d="M39 135q4 31 47 60l119 81h26l19 -53q25 -70 66.5 -109.5t125.5 -39.5q109 0 181.5 79.5t72.5 215.5q0 270 -329 270q-47 0 -89 -5t-96 -13l135 731h691l-39 -203h-586l-47 -268q33 2 71.5 4t90.5 2q231 0 349 -107.5t118 -281.5q0 -137 -78 -255t-211 -190.5t-297 -72.5 q-170 0 -256 51t-84 104z" />
<glyph unicode="6" d="M72 403q0 334 255 604.5t713 364.5l-14 -69q-266 -88 -416.5 -265.5t-212.5 -384.5q121 154 295 154q154 0 228.5 -95.5t74.5 -240.5q0 -225 -146.5 -358t-361.5 -133q-199 0 -307 114.5t-108 308.5zM350 322q0 -248 150 -248q96 0 158.5 104.5t62.5 276.5 q0 205 -141 204q-123 0 -209 -122q-21 -106 -21 -215z" />
<glyph unicode="7" d="M156 0q121 213 284.5 461t444.5 635h-672l45 256h856l-14 -78q-186 -281 -367.5 -586t-318.5 -688h-258z" />
<glyph unicode="8" d="M53 281q0 127 88 217t242 168q-94 72 -132 143.5t-38 159.5q0 166 133 284.5t330 118.5q168 0 269.5 -86t101.5 -215q0 -104 -78 -181t-226 -140q131 -90 179.5 -175.5t48.5 -181.5q0 -182 -146.5 -297.5t-359.5 -115.5q-186 0 -299 81.5t-113 219.5zM270 293 q0 -106 58.5 -164.5t154.5 -58.5q102 0 165 60t63 161q0 100 -55.5 165.5t-202.5 161.5q-106 -84 -144.5 -149t-38.5 -176zM475 1071q0 -61 34 -125.5t155 -144.5q104 74 140 133t36 156q0 193 -172 192q-96 0 -144.5 -63.5t-48.5 -147.5z" />
<glyph unicode="9" d="M80 -20l14 69q266 88 417 266.5t212 382.5q-121 -154 -295 -153q-156 0 -229.5 95t-73.5 241q0 225 146.5 358t359.5 133q201 0 309.5 -114.5t108.5 -309.5q0 -334 -257 -604t-712 -364zM399 897q0 -205 142 -205q123 0 211 125q18 106 18 213q0 248 -149 248 q-96 0 -159 -104.5t-63 -276.5z" />
<glyph unicode=":" horiz-adv-x="514" d="M66 111q0 59 40.5 107t104.5 48q59 0 88 -33.5t29 -85.5q0 -61 -40 -109t-108 -48q-115 0 -114 121zM185 785q0 59 40.5 107t104.5 48q59 0 88 -33.5t29 -85.5q0 -61 -40 -109t-108 -48q-115 0 -114 121z" />
<glyph unicode=";" horiz-adv-x="514" d="M23 -342q115 55 163 110.5t48 125.5q0 86 -74 133l-59 36l-2 23l86 113q33 43 53 43q16 0 45 -19q113 -68 112 -211q0 -115 -91 -220t-281 -187v53zM197 785q0 59 40.5 107t104.5 48q59 0 88 -33.5t29 -85.5q0 -61 -40 -109t-108 -48q-115 0 -114 121z" />
<glyph unicode="&#x3c;" d="M104 506l17 102l926 379l-21 -123l-762 -311l651 -313l-18 -113z" />
<glyph unicode="=" d="M88 295l18 106h861l-21 -106h-858zM162 713l18 106h860l-20 -106h-858z" />
<glyph unicode="&#x3e;" d="M74 127l20 123l762 311l-653 313l20 113l793 -379l-17 -102z" />
<glyph unicode="?" horiz-adv-x="813" d="M152 111q0 59 40.5 107t104.5 48q59 0 88 -33.5t29 -85.5q0 -61 -40 -109t-108 -48q-115 0 -114 121zM174 1319q0 23 25.5 38t99.5 15q106 0 215 -50t182.5 -135t73.5 -188q0 -127 -66.5 -182t-152.5 -82.5t-152.5 -63.5t-66.5 -124q0 -49 35 -98l-54 -9 q-47 47 -75.5 100.5t-28.5 116.5q0 117 70.5 173.5t163 85t163 56t70.5 85.5q0 61 -66.5 85.5t-144.5 24.5q-20 0 -56 -3t-59 -7l-82 -16l-28 10l-56 129q-10 25 -10 39z" />
<glyph unicode="@" horiz-adv-x="1638" d="M111 344q0 219 110.5 402.5t295.5 294t413 110.5q274 0 436 -161t162 -408q0 -131 -56.5 -255t-162 -204t-250.5 -80q-186 0 -164 207q-147 -207 -297 -207q-70 0 -118 58.5t-48 168.5q0 168 77 306.5t195.5 220.5t241.5 82q94 0 156 -45l90 34h37l-107 -596 q-23 -127 49 -127q100 0 177 133.5t77 296.5q0 217 -147.5 366t-392.5 149q-285 0 -454 -207t-169 -502q0 -262 150.5 -409.5t392.5 -147.5q133 0 235.5 30.5t190.5 90.5l20 -45q-109 -68 -226 -105t-275 -37q-287 0 -463 161t-176 425zM668 367q0 -162 75 -162q45 0 87 39 t79 90l72 420q-43 45 -98 45q-94 0 -154.5 -132t-60.5 -300z" />
<glyph unicode="A" horiz-adv-x="1468" d="M-68 0l7 33l118 63l719 1266h162l264 -1258l119 -71l-8 -33h-592l4 33l178 73l-67 343h-453l-195 -347l154 -69l-8 -33h-402zM442 557h373l-98 490z" />
<glyph unicode="B" horiz-adv-x="1347" d="M-29 0l6 33l175 84l196 1118l-145 84l6 33h565q201 0 327 -70t126 -213q0 -109 -89 -205t-245 -135q338 -51 338 -311q0 -156 -150.5 -287t-447.5 -131h-662zM430 109h166q170 0 251 91t81 216q-1 233 -275 233h-127zM543 745h80q152 0 230.5 80t78.5 199 q0 106 -52.5 162.5t-181.5 56.5h-67z" />
<glyph unicode="C" horiz-adv-x="1361" d="M98 532q0 223 110.5 415t297 308.5t414.5 116.5q121 0 197.5 -26.5t156.5 -71.5l-41 -383h-35l-133 323q-70 61 -174 62q-150 0 -261.5 -102.5t-174 -273.5t-62.5 -380q0 -201 87 -319.5t237 -118.5q61 0 118.5 19.5t110.5 50.5l223 280h35l-82 -346 q-86 -49 -200.5 -77.5t-255.5 -28.5q-264 0 -416 155.5t-152 396.5z" />
<glyph unicode="D" horiz-adv-x="1529" d="M-29 0l6 33l170 82l197 1122l-141 82l6 33h536q348 0 521.5 -158t173.5 -412q0 -199 -105.5 -378t-298 -291.5t-454.5 -112.5h-611zM426 100h178q244 0 393.5 189.5t149.5 496.5q0 213 -115 336t-332 123h-71z" />
<glyph unicode="E" horiz-adv-x="1275" d="M-29 0l6 33l175 84l196 1118l-145 84l6 33h1020l-62 -355h-32l-97 246h-405l-88 -498h278l148 179h33l-80 -449h-33l-84 174h-281l-96 -540h465l203 309h32l-73 -418h-1086z" />
<glyph unicode="F" horiz-adv-x="1230" d="M-29 0l6 33l175 84l196 1118l-145 84l6 33h1012l-62 -355h-33l-96 246h-397l-90 -498h268l145 179h33l-80 -449h-32l-82 174h-269l-94 -532l199 -84l-6 -33h-654z" />
<glyph unicode="G" horiz-adv-x="1452" d="M98 528q0 231 121 423t312.5 306.5t404.5 114.5q141 0 226 -24.5t171 -73.5l-45 -361h-33l-129 299q-84 63 -200 64q-156 0 -277 -108.5t-189.5 -281.5t-68.5 -370t89 -308.5t233 -111.5q74 0 149 17l66 372l-152 97l6 32h590l-6 -32l-158 -99l-57 -331 q-100 -78 -246.5 -125t-267.5 -47q-244 0 -391.5 154.5t-147.5 393.5z" />
<glyph unicode="H" horiz-adv-x="1579" d="M-29 0l6 33l168 84l199 1118l-149 84l6 33h592l-7 -33l-161 -84l-84 -483h524l86 483l-139 84l6 33h590l-6 -33l-170 -84l-199 -1118l151 -84l-6 -33h-590l7 33l157 84l95 526h-527l-92 -526l139 -84l-6 -33h-590z" />
<glyph unicode="I" horiz-adv-x="774" d="M-29 0l6 33l168 84l199 1118l-149 84l6 33h604l-6 -33l-174 -84l-197 -1118l152 -84l-7 -33h-602z" />
<glyph unicode="J" horiz-adv-x="794" d="M-147 -256l38 115h13q55 -18 96 -19q68 0 111 51.5t77 258.5l193 1085l-158 84l4 33h604l-6 -33l-161 -84l-140 -758q-41 -221 -129 -384t-190 -263q-113 -111 -163 -147.5t-122 -36.5q-74 0 -74 57q0 17 7 41z" />
<glyph unicode="K" horiz-adv-x="1476" d="M-29 0l6 33l175 84l196 1118l-145 84l6 33h604l-8 -33l-174 -84l-199 -1118l150 -84l-9 -33h-602zM537 684l608 563l-129 72l6 33h440l-8 -33l-125 -49l-541 -492l439 -672l119 -73l-7 -33h-381z" />
<glyph unicode="L" horiz-adv-x="1189" d="M-29 0l6 33l175 84l196 1118l-145 84l6 33h622l-6 -33l-194 -84l-199 -1126h391l230 374h32l-90 -483h-1024z" />
<glyph unicode="M" horiz-adv-x="1912" d="M-29 0l6 33l175 84l237 1118l-166 84l8 33h474l227 -959l524 959h449l-9 -33l-172 -82l-129 -1120l131 -84l-6 -33h-571l6 33l162 82l110 942l-587 -1067h-107l-254 1093l-198 -968l151 -82l-6 -33h-455z" />
<glyph unicode="N" horiz-adv-x="1558" d="M-23 0l7 33l176 84l196 1116l-147 86l6 33h356l559 -932l144 817l-205 82l8 33h514l-6 -33l-174 -84l-219 -1245h-125l-614 1007l-154 -880l203 -84l-6 -33h-519z" />
<glyph unicode="O" horiz-adv-x="1585" d="M98 563q0 219 105.5 403.5t286 295t405.5 110.5q281 0 436.5 -162.5t155.5 -421.5q0 -219 -101.5 -402t-281.5 -294.5t-416 -111.5q-279 0 -434.5 162.5t-155.5 420.5zM397 539q0 -201 86 -329t244 -128q137 0 241.5 101.5t163 268t58.5 363.5q0 203 -82 329t-246 126 q-133 0 -238.5 -99.5t-166 -266.5t-60.5 -365z" />
<glyph unicode="P" horiz-adv-x="1302" d="M-29 0l6 33l175 84l196 1118l-145 84l6 33h545q518 0 518 -326q0 -170 -163 -296t-488 -126h-103l-86 -487l180 -84l-6 -33h-635zM535 700h120q164 0 241 90.5t77 223.5q0 229 -275 229h-67z" />
<glyph unicode="Q" horiz-adv-x="1585" d="M98 563q0 219 105.5 403.5t286 295t405.5 110.5q281 0 436.5 -162.5t155.5 -421.5q0 -268 -152.5 -483t-406.5 -291q178 -145 273 -189t196 -44q63 0 114 18l-14 -49q-105 -55 -252 -55q-115 0 -282.5 56t-356.5 233q-242 25 -375 183.5t-133 395.5zM397 539 q0 -201 86 -329t244 -128q137 0 241.5 101.5t163 268t58.5 363.5q0 203 -82 329t-246 126q-133 0 -238.5 -99.5t-166 -266.5t-60.5 -365z" />
<glyph unicode="R" horiz-adv-x="1402" d="M-29 0l4 33l177 84l196 1118l-147 84l6 33h536q223 0 349.5 -80t126.5 -228q0 -125 -85 -214t-231 -138l262 -577l123 -82l-4 -33h-379l-256 629h-127l-90 -510l143 -86l-6 -33h-598zM539 725h108q135 0 210 87t75 206q0 225 -240 225h-61z" />
<glyph unicode="S" horiz-adv-x="1105" d="M37 84l39 346h35l106 -268q41 -35 91 -58.5t116 -23.5q121 0 197.5 66.5t76.5 179.5q0 88 -58 143t-214 149q-115 70 -166 140.5t-51 183.5q0 180 147.5 305t354.5 125q184 0 327 -94l-34 -328h-35l-105 248q-33 29 -71.5 50.5t-102.5 21.5q-94 0 -159.5 -64.5 t-65.5 -161.5q0 -72 43 -126t164 -127q150 -88 217 -163t67 -200q0 -186 -153.5 -317t-380.5 -131q-125 0 -214 27.5t-171 76.5z" />
<glyph unicode="T" horiz-adv-x="1310" d="M117 901l76 451h1183l-78 -451h-32l-90 342h-269l-200 -1126l186 -84l-6 -33h-682l8 33l211 84l201 1126h-269l-206 -342h-33z" />
<glyph unicode="U" horiz-adv-x="1558" d="M197 1319l6 33h606l-6 -33l-176 -84l-115 -655q-6 -39 -10 -76t-4 -70q0 -166 83 -234.5t218 -68.5q125 0 234.5 88t142.5 289l127 731l-164 80l6 33h469l-6 -33l-174 -82l-115 -655q-57 -336 -217 -469t-393 -133q-223 0 -358.5 98t-135.5 334q0 68 16 170l113 653z" />
<glyph unicode="V" horiz-adv-x="1413" d="M145 1319l9 33h575l-8 -33l-166 -72l197 -903h16l489 903l-151 72l6 33h404l-9 -33l-116 -66l-701 -1263h-145l-281 1255z" />
<glyph unicode="W" horiz-adv-x="1947" d="M145 1319l7 33h585l-4 -33l-176 -76l86 -823h14l471 942h138l161 -938h13l352 823l-156 72l6 33h424l-6 -33l-139 -70l-557 -1259h-139l-170 950h-13l-481 -950h-141l-144 1255z" />
<glyph unicode="X" horiz-adv-x="1462" d="M-78 0l8 33l158 76l512 548l-311 594l-109 68l6 33h594l-6 -33l-174 -72l-2 -10l225 -418l383 418l2 8l-141 74l6 33h436l-6 -33l-135 -70l-494 -526l330 -610l125 -80l-6 -33h-602l4 33l162 71v9l-236 446l-405 -442l-6 -8l145 -76l-6 -33h-457z" />
<glyph unicode="Y" horiz-adv-x="1404" d="M150 1319l8 33h569l-8 -33l-164 -70l-2 -8l266 -504l404 502l2 8l-142 72l9 33h430l-6 -33l-132 -62l-522 -622l-92 -518l156 -84l-6 -33h-619l6 33l182 84l91 512l-322 620z" />
<glyph unicode="Z" horiz-adv-x="1251" d="M16 0l13 74l852 1169h-453l-203 -309h-32l77 418h957l-13 -74l-845 -1157h487l209 317h33l-82 -438h-1000z" />
<glyph unicode="[" horiz-adv-x="555" d="M35 -307l313 1823h350l-8 -48h-219l-297 -1728h219l-8 -47h-350z" />
<glyph unicode="\" horiz-adv-x="671" d="M123 1536h98l328 -1782h-98z" />
<glyph unicode="]" horiz-adv-x="555" d="M-119 -307l8 47h217l297 1728h-217l9 48h348l-314 -1823h-348z" />
<glyph unicode="^" d="M121 512l534 860h101l231 -860h-119l-188 690l-430 -690h-129z" />
<glyph unicode="_" horiz-adv-x="1024" d="M51 -272l15 73h892l-14 -73h-893z" />
<glyph unicode="`" horiz-adv-x="1024" d="M325 1384.5q-3 32.5 1 63.5h198l178 -363h-40l-293 234q-41 33 -44 65.5z" />
<glyph unicode="a" horiz-adv-x="1105" d="M76 246q0 197 89 357.5t226 255.5t281 95q109 0 180 -51l104 39h41l-120 -684q-4 -23 -4 -41q0 -55 38 -55q70 0 138 147l36 -12q-57 -152 -130.5 -234.5t-172.5 -82.5q-174 0 -174 186q0 20 2 43h-6q-88 -119 -166 -174t-172 -55q-84 0 -137 68.5t-53 197.5zM348 356 q0 -188 86 -188q53 0 101.5 45t91.5 106l84 490q-47 51 -113 51q-111 0 -180.5 -153.5t-69.5 -350.5z" />
<glyph unicode="b" horiz-adv-x="1052" d="M49 -8l240 1376l-148 70v24l434 74h7l-140 -801h11q84 109 149.5 164t165.5 55q92 0 149.5 -76.5t57.5 -220.5q0 -182 -74 -335.5t-195 -247.5t-264 -94t-233 67l-135 -55h-25zM340 156q45 -90 119 -90q100 0 175 150.5t75 373.5q-1 176 -95 176q-47 0 -97 -39t-95 -102z " />
<glyph unicode="c" horiz-adv-x="901" d="M150.5 636q78.5 140 205.5 229t273 89q164 0 231 -100q18 -27 19 -53q0 -35 -31 -58l-94 -69h-13l-43 80q-35 61 -59.5 84.5t-75.5 23.5q-84 0 -156.5 -126t-72.5 -294q0 -117 56 -183t147 -66q57 0 116.5 27.5t137.5 109.5h6l30 -29q-76 -133 -181.5 -227t-242.5 -94 q-331 0 -331 358q0 158 78.5 298z" />
<glyph unicode="d" horiz-adv-x="1116" d="M78 246q0 197 89 357.5t225 255.5t282 95q33 0 63 -6l74 422l-168 68v24l455 74h6l-223 -1278q-5 -25 -5 -44q0 -52 37 -52q70 0 138 147l36 -12q-57 -152 -130.5 -234.5t-172.5 -82.5q-174 0 -174 186q0 20 2 43h-6q-92 -123 -168 -176t-170 -53q-84 0 -137 68.5 t-53 197.5zM350 356q0 -102 19.5 -145t66.5 -43q88 0 193 149l86 492q-49 53 -115 53q-109 0 -179.5 -151.5t-70.5 -354.5z" />
<glyph unicode="e" horiz-adv-x="899" d="M72 332q0 152 72.5 295t201.5 235t293 92q106 0 161.5 -48t55.5 -115q0 -90 -105.5 -163t-412.5 -143q-2 -27 -2 -55q0 -109 57.5 -173t147.5 -64q113 0 247 122h7l28 -28q-68 -123 -178.5 -215t-247.5 -92q-168 0 -246.5 94t-78.5 258zM346 559q174 47 239.5 105.5 t65.5 130.5q0 29 -18.5 52t-61.5 23q-78 0 -140 -85t-85 -226z" />
<glyph unicode="f" horiz-adv-x="675" d="M-254 -428q0 16 12 35l58 100h12l59 -51q27 -25 66 -25q51 0 83 58.5t52 191.5l150 963h-148v90h162l10 70q14 92 107.5 218t217.5 220t232 94q61 0 99 -18q49 -18 49 -54q0 -23 -13 -41l-73 -120h-17l-43 34q-63 51 -112 52q-61 0 -100.5 -60.5t-61.5 -206.5l-31 -188 h207v-90h-221l-133 -830q-14 -88 -96.5 -206.5t-194 -209t-209.5 -90.5q-53 0 -88 19.5t-35 44.5z" />
<glyph unicode="g" horiz-adv-x="964" d="M-35 -289q0 86 80 172l135 74v6q-59 20 -99 60t-40 114q0 96 76 170l133 68v10q-100 76 -100 209q0 135 115.5 247.5t291.5 112.5q74 0 139 -20h336v-90h-188l-13 -10q59 -68 60 -160q0 -125 -113.5 -240t-306.5 -115q-96 0 -168 33q-55 -35 -55 -88q0 -55 60.5 -78.5 t149.5 -37t178 -37t149.5 -75.5t60.5 -157q0 -133 -133 -252t-391 -119q-176 0 -266.5 57.5t-90.5 145.5zM145 -258q0 -70 54.5 -118t156.5 -48q119 0 182.5 58.5t63.5 132.5q0 72 -53 103.5t-133 44.5t-158 28q-70 -43 -91.5 -93.5t-21.5 -107.5zM379 582q0 -179 119 -179 q70 0 114.5 92.5t44.5 200.5q0 178 -116 178q-72 0 -117 -89t-45 -203z" />
<glyph unicode="h" horiz-adv-x="1130" d="M49 0l238 1368l-148 68v26l436 74h7l-136 -776h9q98 109 161.5 151.5t159.5 42.5q106 0 162 -82q40 -57 40 -143q0 -37 -7 -78l-68 -393q-4 -23 -4 -40q0 -56 39 -56q68 0 135 147l37 -12q-57 -152 -131 -234.5t-172 -82.5q-99 0 -145 72q-29 46 -30 118q0 40 9 88 l68 385q2 17 2 32q-1 36 -13 65q-18 42 -82 42q-49 0 -98 -37.5t-90 -82.5l-115 -662h-264z" />
<glyph unicode="i" horiz-adv-x="616" d="M68 856v25l428 73h6l-123 -696q-5 -25 -5 -44q0 -52 38 -52q70 0 137 147l37 -12q-57 -152 -131 -234.5t-172 -82.5q-99 0 -145 72q-29 46 -30 118q0 40 9 88l94 530zM266 1311q0 66 45 108.5t109 42.5q63 0 107 -43t44 -108q0 -66 -44 -109t-107 -43t-108.5 43 t-45.5 109z" />
<glyph unicode="j" horiz-adv-x="598" d="M-158 -434q109 74 157 148.5t79 265.5l129 808l-141 68v25l428 73h6l-150 -905q-53 -340 -508 -520v37zM264 1311q0 66 44 108.5t110 42.5t108.5 -43t42.5 -108q0 -66 -42.5 -109t-108.5 -43t-110 43t-44 109z" />
<glyph unicode="k" horiz-adv-x="1058" d="M49 0l238 1368l-148 68v26l436 74h7l-174 -993q219 229 329.5 320t175.5 91q43 0 70 -18q25 -19 25 -41q0 -9 -4 -18l-54 -136l-10 -2l-31 13q-16 6 -38.5 11t-55.5 5q-63 0 -119 -43l-90 -72l191 -397q23 -45 41 -69.5t47 -24.5q61 0 108 145l37 -12 q-47 -168 -108.5 -241.5t-151.5 -73.5t-132 54t-77 132l-155 358l-93 -524h-264z" />
<glyph unicode="l" horiz-adv-x="589" d="M94 258l195 1110l-156 70v24l442 74h7l-226 -1278q-4 -23 -3 -40q0 -56 38 -56q68 0 135 147l39 -12q-57 -152 -131 -234.5t-172 -82.5q-176 0 -176 187q0 41 8 91z" />
<glyph unicode="m" horiz-adv-x="1669" d="M72 0l137 786l-135 70v25l379 73h6v-200h12q100 111 160.5 155.5t159.5 44.5q180 0 194 -200h12q100 111 164 155.5t160 44.5q103 0 159 -82q39 -56 39 -141q0 -37 -8 -80l-69 -393q-4 -23 -4 -40q0 -56 39 -56q68 0 135 147l39 -12q-57 -152 -131 -234.5t-172 -82.5 q-178 0 -178 183q0 43 10 95l67 385q4 20 4 38q0 32 -12 59q-18 42 -78 42q-49 0 -95 -37.5t-85 -80.5l-2 -13l-113 -651h-264l115 643q4 19 4 37q-1 33 -13 60q-18 42 -79 42q-49 0 -95.5 -40t-87.5 -85l-110 -657h-264z" />
<glyph unicode="n" horiz-adv-x="1153" d="M72 0l137 786l-135 70v25l379 73h6v-200h12q100 111 165.5 155.5t162.5 44.5q105 0 163 -82q40 -57 40 -142q0 -37 -7 -79l-69 -393q-4 -23 -4 -40q0 -56 39 -56q68 0 135 147l39 -12q-57 -152 -131 -234.5t-173 -82.5q-177 0 -177 182q0 43 10 96l67 385q3 19 3 36 q0 33 -12 61q-20 42 -83 42q-51 0 -101.5 -40t-91.5 -85l-110 -657h-264z" />
<glyph unicode="o" horiz-adv-x="1038" d="M72 393q0 139 65.5 267t179 211t256.5 83q201 0 297.5 -118.5t96.5 -294.5q0 -131 -63.5 -261t-180 -215t-274.5 -85q-190 0 -283.5 118.5t-93.5 294.5zM340 352q0 -127 29.5 -201.5t105.5 -74.5q98 0 160.5 155.5t62.5 358.5q0 270 -133 270q-94 0 -159.5 -147.5 t-65.5 -360.5z" />
<glyph unicode="p" horiz-adv-x="1089" d="M-100 -438l120 71l203 1153l-133 70v25l377 73h6v-223h12q88 119 156 171t164 52q92 0 149.5 -76.5t57.5 -220.5q0 -182 -74 -335.5t-194.5 -247.5t-264.5 -94q-70 0 -129 16l-61 -361l170 -73v-33h-559v33zM379 152q39 -86 117 -86q106 0 177.5 153.5t71.5 370.5 q0 176 -94 176q-53 0 -103 -45t-91 -100z" />
<glyph unicode="q" horiz-adv-x="1058" d="M76 246q0 197 89 357.5t226 255.5t281 95q111 0 182 -53l119 41h24l-229 -1304l133 -76v-33h-559v33l160 73l98 558h-10q-82 -109 -157 -161t-167 -52q-84 0 -137 68.5t-53 197.5zM348 356q0 -188 86 -188q51 0 98.5 43t90.5 100l88 498q-47 53 -115 53 q-111 0 -179.5 -151.5t-68.5 -354.5z" />
<glyph unicode="r" horiz-adv-x="782" d="M72 0l137 786l-135 70v25l379 73h6v-219h12q94 145 144.5 182t103.5 37q47 0 78.5 -24.5t31.5 -50.5q0 -16 -8 -35l-71 -148h-13l-24 19q-47 35 -101 35q-43 0 -79.5 -24t-88.5 -97l-108 -629h-264z" />
<glyph unicode="s" horiz-adv-x="780" d="M25 127q0 31 22 45l76 55h14l35 -49q72 -100 176 -100q139 0 139 115q0 61 -40.5 98t-143.5 94q-98 57 -140 109.5t-42 154.5q0 104 120.5 204.5t270.5 100.5q78 0 119 -22.5t65 -52.5q31 -39 31 -68q0 -27 -16 -37l-80 -59h-15l-51 61q-31 39 -58.5 59.5t-70.5 20.5 q-106 0 -106 -102q0 -47 31.5 -84t115.5 -80q90 -49 147.5 -104.5t57.5 -159.5q0 -133 -107.5 -239.5t-281.5 -106.5q-84 0 -138.5 21.5t-84.5 51.5q-45 39 -45 74z" />
<glyph unicode="t" horiz-adv-x="704" d="M72 844l6 28l219 103l186 176h37l-37 -217h248v-90h-264l-84 -477q-10 -55 -10 -86q0 -92 71 -93q47 0 95.5 44t89.5 145l39 -15q-127 -382 -363 -382q-205 0 -205 225q0 20 3 44.5t6 51.5l96 543h-133z" />
<glyph unicode="u" horiz-adv-x="1130" d="M78 856v25l418 73h8l-111 -630q-8 -47 -8 -72q0 -41 20.5 -70.5t67.5 -29.5q43 0 88 34.5t82 75.5l92 524l-112 70v25l397 73h6l-123 -696q-4 -22 -4 -39q0 -57 41 -57q70 0 137 147l37 -12q-57 -152 -131 -234.5t-172 -82.5q-178 0 -176 198h-4q-98 -109 -162 -153.5 t-158 -44.5q-88 0 -141 60t-53 165q0 18 3 37.5t5 40.5l88 503z" />
<glyph unicode="v" horiz-adv-x="944" d="M25 856v25l374 73h7l167 -657h13l102 154q53 80 65.5 130t12.5 83q0 70 -61 106l-31 16v11l51 100q29 57 72 57q53 0 97 -55t44 -121q0 -59 -32 -125.5t-113 -181.5l-338 -471h-80l-209 801z" />
<glyph unicode="w" horiz-adv-x="1386" d="M25 856v25l374 73h7l120 -598h11l276 578h74l166 -608h14l66 125q45 84 61 132t16 81q0 70 -61 106l-31 16v11l51 100q29 57 72 57q53 0 96 -55t43 -121q0 -59 -36.5 -123.5t-106.5 -183.5l-287 -471h-78l-157 543l-295 -543h-78l-178 801z" />
<glyph unicode="x" horiz-adv-x="991" d="M-23 0q2 33 36 72t119 123t241 251l-140 351l-137 59v25l359 73h4l139 -356q96 123 136 184.5t53.5 92t25.5 59.5h158q-2 -29 -31 -63.5t-102.5 -110.5t-212.5 -228l151 -387l142 -59v-25l-355 -73h-6l-158 393q-113 -141 -162 -212t-65 -104.5t-31 -64.5h-164z" />
<glyph unicode="y" horiz-adv-x="952" d="M-45 -285l14 13h115q76 0 114 10t69.5 52t90.5 132l29 45l-219 830l-141 59v25l366 73h6l174 -678h13l110 175q49 78 62.5 129t13.5 84q0 68 -61 106l-33 16v11l51 100q31 57 74 57q53 0 96 -55t43 -121q0 -59 -34 -125.5t-109 -181.5l-412 -633q-47 -72 -69.5 -110.5 t-79.5 -102.5q-103 -117 -226 -117q-57 0 -57 60v147z" />
<glyph unicode="z" horiz-adv-x="905" d="M4 23l578 696h-344l-80 -148h-33l59 363h637l17 -43l-498 -594l317 -70l105 166h33l-78 -403l-434 94q-49 12 -78 12q-61 0 -129 -73l-33 -35z" />
<glyph unicode="{" horiz-adv-x="555" d="M57 582l9 47h49q117 0 158.5 71.5t41.5 161.5q0 72 -13 147.5t-13 155.5q0 158 85 254.5t269 96.5h47l-8 -48h-43q-115 0 -166 -74.5t-49 -195.5q2 -76 13.5 -144.5t11.5 -135.5q0 -94 -44.5 -176.5t-171.5 -137.5q82 -31 110 -80t28 -116q0 -70 -42 -167.5t-84 -194.5 t-42 -169q0 -137 151 -137h41l-8 -47h-47q-139 0 -202.5 57t-63.5 154q0 94 43 188t86 185.5t43 177.5q0 53 -29 90t-111 37h-49z" />
<glyph unicode="|" horiz-adv-x="512" d="M25 -512l360 2048h102l-362 -2048h-100z" />
<glyph unicode="}" horiz-adv-x="555" d="M-90 -307l8 47h45q115 0 166 74.5t47 195.5q0 76 -12 144.5t-12 136.5q0 94 45 176t172 137q-82 31 -110 80t-28 117q0 70 42 167t84 194.5t42 168.5q0 137 -151 137h-43l8 48h47q139 0 202.5 -57.5t63.5 -153.5q0 -94 -43 -188.5t-86 -185.5t-43 -177q0 -53 30 -90 t110 -37h49l-8 -47h-48q-117 0 -159.5 -72t-42.5 -162q0 -72 14 -147.5t14 -155.5q0 -158 -85 -254t-271 -96h-47z" />
<glyph unicode="~" d="M104 412q45 291 269 290q100 0 157.5 -46t104.5 -92t119 -46q68 0 102.5 50t46.5 134h109q-46 -290 -271 -290q-100 0 -157.5 46t-103.5 92t-118 46q-68 0 -102.5 -50t-48.5 -134h-107z" />
<glyph unicode="&#xa1;" horiz-adv-x="483" d="M-80 -412l270 906h58l-47 -906h-281zM143 795q0 66 40 110.5t106 44.5q59 0 88 -33.5t29 -85.5q0 -61 -41 -109t-107 -48q-115 0 -115 121z" />
<glyph unicode="&#xa2;" d="M186 549q0 156 79 296t207 229t273 89h19l57 137h90l-61 -149q86 -25 127 -88q16 -27 16 -53q0 -35 -30 -58l-93 -69h-12l-45 80q-6 12 -12 22t-13 21l-235 -574q41 -27 96 -26q119 0 252 135h6l35 -33q-76 -133 -181.5 -226.5t-242.5 -93.5q-35 0 -65 5l-58 -140h-90 l66 160q-184 70 -185 336zM455 651q0 -90 34 -151l236 565q-18 6 -39 6q-88 0 -159.5 -126t-71.5 -294z" />
<glyph unicode="&#xa3;" d="M53 0l19 113q193 135 250 214t57 181q0 31 -7 63.5t-18 69.5h-198l16 86h158q-14 49 -25.5 99.5t-11.5 97.5q0 180 147.5 314t345.5 134q131 0 205 -41t105 -88q23 -39 22 -57q0 -27 -35 -53l-122 -80h-15l-20 53q-20 55 -55 112.5t-117 57.5q-92 0 -145.5 -65.5 t-53.5 -157.5q0 -72 26.5 -157t49.5 -169h303l-16 -86h-271q4 -27 4 -51q0 -127 -81 -213t-253 -162h531l100 199h66l-92 -414h-869z" />
<glyph unicode="&#xa4;" d="M92 203l184 164q-41 70 -40 157q0 154 98 252l-115 144l84 69l117 -145q80 45 180 45q117 0 195 -62l182 162l63 -78l-182 -161q39 -74 39 -158q0 -152 -96 -254l114 -141l-86 -70l-114 145q-80 -45 -180 -45q-117 0 -195 62l-182 -164zM342 532q0 -210 205 -210 q109 0 177.5 74.5t68.5 187.5q0 100 -55.5 155.5t-149.5 55.5q-111 0 -178.5 -74t-67.5 -189z" />
<glyph unicode="&#xa5;" d="M152 1319l4 33h530l-4 -31l-133 -57l-2 -7l176 -344l254 338v9l-115 59l4 33h387l-4 -33l-121 -47l-305 -369h217l-18 -86h-270l-2 -2l-37 -219h274l-16 -86h-275l-67 -393l151 -84l-6 -33h-594l6 33l179 84l67 393h-270l16 86h271l36 221h-272l16 86h211l-194 363z" />
<glyph unicode="&#xa6;" horiz-adv-x="512" d="M115 -512l143 819h96l-143 -819h-96zM332 717l143 819h96l-143 -819h-96z" />
<glyph unicode="&#xa7;" horiz-adv-x="1105" d="M33 -111q0 25 37 54l102 84l16 -2l25 -33q23 -35 67 -85t119 -50q82 0 131.5 48t47.5 115q0 86 -78 124t-181.5 69t-181.5 87t-78 179q0 111 82 205t215 139q-66 63 -65 162q0 145 138 266t349 121q100 0 156.5 -27.5t85.5 -58.5q20 -31 20 -45q0 -18 -34 -53l-103 -82 l-14 4l-23 31q-27 35 -64.5 82t-113.5 47q-82 0 -130 -45t-48 -117q0 -86 78 -126t180 -71.5t180 -89t78 -178.5q0 -115 -81 -205t-214 -133q74 -63 74 -166q0 -98 -70.5 -186t-183.5 -144.5t-244 -56.5q-102 0 -162.5 29t-89.5 61q-23 23 -22 47zM289 604q0 -80 57 -120 t139 -65.5t158 -58.5q63 14 108.5 60.5t45.5 103.5q0 84 -61.5 123t-147.5 64.5t-162 64.5q-137 -51 -137 -172z" />
<glyph unicode="&#xa8;" horiz-adv-x="1024" d="M211 1264q0 45 30.5 76.5t77.5 31.5q45 0 77 -31.5t32 -76.5q0 -43 -32 -76t-77 -33q-47 0 -77.5 33t-30.5 76zM596 1264q0 45 30.5 76.5t78.5 31.5q45 0 75.5 -31.5t30.5 -76.5q0 -43 -30.5 -76t-75.5 -33q-47 0 -78 33t-31 76z" />
<glyph unicode="&#xa9;" horiz-adv-x="1650" d="M129 586q0 213 97.5 391t273.5 286.5t411 108.5q268 0 439.5 -174t171.5 -434q0 -211 -97.5 -389t-274 -286.5t-409.5 -108.5q-270 0 -441 173t-171 433zM215 594q0 -231 148.5 -387t384.5 -156q199 0 353 93.5t244.5 253t90.5 360.5q0 229 -148.5 384.5t-386.5 155.5 q-197 0 -352.5 -92t-244.5 -251.5t-89 -360.5zM420 614q0 190 143.5 341t364.5 151q88 0 140 -17.5t103 -46.5l-34 -235h-54l-61 172q-53 37 -109 37q-123 0 -205.5 -115t-82.5 -291q0 -252 186 -252q55 0 107 25l133 162h53l-51 -209q-66 -33 -127.5 -52.5t-151.5 -19.5 q-170 0 -262 95.5t-92 254.5z" />
<glyph unicode="&#xaa;" horiz-adv-x="819" d="M152 598l18 102h500l-19 -102h-499zM205 1006q0 137 89 251.5t222 114.5q66 0 107 -31l71 31h27l-70 -368q-12 -61 21 -62q31 0 67 78l27 -10q-33 -84 -79 -120t-95 -36q-61 0 -82 37t-16 82h-7q-82 -119 -182 -119t-100 152zM365 1049q0 -84 36 -84q35 0 60.5 32.5 t46.5 67.5l41 225q-18 31 -51 31q-63 0 -98 -91t-35 -181z" />
<glyph unicode="&#xab;" horiz-adv-x="915" d="M33 506l420 362h34l-243 -362l129 -363h-35zM426 506l420 362h34l-243 -362l129 -363h-35z" />
<glyph unicode="&#xac;" d="M121 504l18 106h860l-86 -483h-116l67 377h-743z" />
<glyph unicode="&#xad;" horiz-adv-x="729" d="M94 461l23 131h551l-23 -131h-551z" />
<glyph unicode="&#xae;" horiz-adv-x="1024" d="M100 860q0 209 140.5 360.5t369.5 151.5q174 0 286 -112.5t112 -282.5q0 -209 -140.5 -360.5t-369.5 -151.5q-174 0 -286 113.5t-112 281.5zM170 864q0 -143 93 -240.5t243 -97.5q182 0 306 126t124 321q0 143 -93 240.5t-241 97.5q-184 0 -308 -127t-124 -320zM285 662 l2 14l69 33l76 430l-57 32l2 13h233q160 0 160 -117q0 -106 -131 -141l74 -224l47 -26l-2 -14h-158l-63 239h-37l-35 -192l55 -33l-2 -14h-233zM508 948h22q125 0 125 117q0 72 -88 72h-26z" />
<glyph unicode="&#xaf;" horiz-adv-x="1024" d="M209 1204l20 119h586l-22 -119h-584z" />
<glyph unicode="&#xb0;" horiz-adv-x="1024" d="M315 1106q0 106 76 186t191 80t190.5 -80t75.5 -186t-75.5 -186t-190.5 -80t-191 79.5t-76 186.5zM416 1106q0 -82 48 -130t118 -48t118 48t48 130t-48.5 130t-117.5 48q-70 0 -118 -48t-48 -130z" />
<glyph unicode="&#xb1;" d="M57 125l21 106h858l-18 -106h-861zM139 586l19 106h372l52 295h116l-51 -295h369l-19 -106h-368l-49 -275h-117l49 275h-373z" />
<glyph unicode="&#xb2;" horiz-adv-x="698" d="M135 1034l12 53q178 180 267.5 285.5t118 174.5t28.5 136q0 39 -19.5 66.5t-62.5 27.5q-92 0 -115 -141l-8 -55l-14 -17h-90q-43 0 -37 52q8 39 34.5 76.5t86.5 78.5q43 29 92 50.5t139 21.5q94 0 150.5 -47t56.5 -131q0 -92 -87 -185.5t-349 -285.5h288l101 123h18 l-55 -283h-555z" />
<glyph unicode="&#xb3;" horiz-adv-x="684" d="M145 1167q0 68 55 68h88l11 -17l-8 -43q-10 -57 16.5 -79.5t67.5 -22.5q141 0 141 215q0 123 -144 123h-71l10 61h35q82 0 139 60.5t57 158.5q0 92 -63 93q-80 0 -98 -111l-9 -57l-14 -15h-88q-39 0 -39 33q0 63 80 133q47 37 95 56.5t116 19.5q111 0 174.5 -46 t63.5 -118q0 -94 -76 -148.5t-189 -66.5q240 -25 240 -182q0 -121 -111 -194.5t-256 -73.5q-111 0 -168 51q-53 39 -55 102z" />
<glyph unicode="&#xb4;" horiz-adv-x="1024" d="M303 1085l199 363h219q-6 -31 -23.5 -60.5t-64.5 -68.5l-291 -234h-39z" />
<glyph unicode="&#xb5;" d="M-6 -471l244 1405h262l-111 -643q-10 -57 7.5 -100.5t76.5 -43.5q45 0 90 37t84 80l115 670h262l-135 -787q31 -31 94 -30h59l7 -8l-5 -25q-31 -39 -84 -71.5t-139 -32.5q-84 0 -137 52t-49 142h-8q-94 -109 -152.5 -151.5t-144.5 -42.5q-74 0 -119 47l27 -457l-240 -41 h-4z" />
<glyph unicode="&#xb6;" horiz-adv-x="1044" d="M133 1006q0 158 111.5 252t292.5 94h227l-285 -1577h-110l172 960h-82q-147 0 -236.5 75t-89.5 196zM592 -225l285 1577h270l-4 -33l-176 -84l-262 -1460h-113z" />
<glyph unicode="&#xb7;" horiz-adv-x="512" d="M125 539q0 59 40 107t105 48q117 0 117 -119q0 -61 -40.5 -109t-106.5 -48q-115 0 -115 121z" />
<glyph unicode="&#xb8;" horiz-adv-x="1024" d="M317 -444l9 36h6q45 -23 110 -22q121 0 121 90q0 41 -39 74t-139 57l158 258h67l-88 -147q184 -53 185 -193q0 -86 -65 -143.5t-171 -57.5q-100 0 -154 48z" />
<glyph unicode="&#xb9;" horiz-adv-x="645" d="M217 1034l4 20l117 52l102 579l-199 -88l11 58l295 180h122l-127 -729l105 -52l-4 -20h-426z" />
<glyph unicode="&#xba;" horiz-adv-x="819" d="M135 598l19 102h499l-18 -102h-500zM213 1077q0 119 81 207t214 88q115 0 171 -62.5t56 -158.5q0 -115 -79 -206t-216 -91q-113 0 -170 62.5t-57 160.5zM385 1055q0 -63 13.5 -107.5t50.5 -44.5q59 0 86.5 93.5t27.5 183.5q0 59 -12 102t-49 43q-59 0 -88 -89t-29 -181z " />
<glyph unicode="&#xbb;" horiz-adv-x="915" d="M33 145l243 363l-129 362h35l305 -362l-417 -363h-37zM426 145l243 363l-129 362h35l305 -362l-417 -363h-37z" />
<glyph unicode="&#xbc;" horiz-adv-x="1566" d="M102 39l1233 1497l78 -59l-1235 -1497zM160 727l4 20l117 52l102 579l-199 -88l11 58l295 180h122l-127 -729l105 -52l-4 -20h-426zM804 199l11 47l452 555h152l-86 -498h129l-17 -104h-131l-34 -199h-207l35 199h-304zM933 303h193l55 311z" />
<glyph unicode="&#xbd;" horiz-adv-x="1564" d="M100 39l1233 1497l78 -59l-1235 -1497zM158 727l4 20l117 52l102 579l-199 -88l11 58l295 180h122l-127 -729l105 -52l-4 -20h-426zM821 0l12 53q178 180 267.5 285.5t118 174.5t28.5 136q0 39 -19.5 66.5t-62.5 27.5q-92 0 -115 -141l-8 -55l-14 -17h-90q-43 0 -37 52 q8 39 34.5 76.5t86.5 78.5q43 29 92 50.5t139 21.5q94 0 150.5 -47t56.5 -131q0 -92 -87 -185.5t-349 -285.5h288l101 123h18l-55 -283h-555z" />
<glyph unicode="&#xbe;" horiz-adv-x="1585" d="M78 860q0 68 55 68h88l11 -17l-8 -43q-10 -57 16.5 -79.5t67.5 -22.5q141 0 141 215q0 123 -144 123h-71l10 61h35q82 0 139 60.5t57 158.5q0 92 -63 93q-80 0 -98 -111l-9 -57l-14 -15h-88q-39 0 -39 33q0 63 80 133q47 37 95 56.5t116 19.5q111 0 174.5 -46t63.5 -118 q0 -94 -76 -148.5t-189 -66.5q240 -25 240 -182q0 -121 -111 -194.5t-256 -73.5q-111 0 -168 51q-53 39 -55 102zM131 39l1233 1497l78 -59l-1235 -1497zM831 199l11 47l452 555h152l-86 -498h129l-17 -104h-131l-34 -199h-207l35 199h-304zM960 303h193l55 311z" />
<glyph unicode="&#xbf;" horiz-adv-x="813" d="M-29 -53q0 127 66.5 182t152.5 83t153 63.5t67 123.5q0 51 -33 97l53 10q45 -47 73.5 -101.5t28.5 -115.5q0 -117 -70.5 -173.5t-161.5 -86t-161.5 -57t-70.5 -85.5q0 -59 66.5 -83.5t144.5 -24.5q20 0 55 2t57 8l84 16l29 -12l53 -127q10 -20 10 -39q0 -23 -25.5 -38 t-99.5 -15q-104 0 -213.5 50t-183.5 135t-74 188zM330 799q0 61 40 109t105 48q117 0 117 -120q0 -61 -42.5 -108.5t-105.5 -47.5q-115 0 -114 119z" />
<glyph unicode="&#xc0;" horiz-adv-x="1468" d="M-68 0l7 33l118 63l719 1266h162l264 -1258l119 -71l-8 -33h-592l4 33l178 73l-67 343h-453l-195 -347l154 -69l-8 -33h-402zM442 557h373l-98 490zM512 1693.5q-4 32.5 0 71.5h198l178 -311h-40l-293 182q-39 25 -43 57.5z" />
<glyph unicode="&#xc1;" horiz-adv-x="1468" d="M-68 0l7 33l118 63l719 1266h162l264 -1258l119 -71l-8 -33h-592l4 33l178 73l-67 343h-453l-195 -347l154 -69l-8 -33h-402zM442 557h373l-98 490zM850 1454l199 311h219q-6 -31 -21.5 -63.5t-66.5 -65.5l-291 -182h-39z" />
<glyph unicode="&#xc2;" horiz-adv-x="1468" d="M-68 0l7 33l118 63l719 1266h162l264 -1258l119 -71l-8 -33h-592l4 33l178 73l-67 343h-453l-195 -347l154 -69l-8 -33h-402zM442 557h373l-98 490zM555 1454l321 311h90l203 -311h-39l-235 141l-301 -141h-39z" />
<glyph unicode="&#xc3;" horiz-adv-x="1468" d="M-68 0l7 33l118 63l719 1266h162l264 -1258l119 -71l-8 -33h-592l4 33l178 73l-67 343h-453l-195 -347l154 -69l-8 -33h-402zM442 557h373l-98 490zM555 1479q76 170 127 214t113 44q84 0 141 -58.5t123 -58.5q35 0 63.5 19.5t71.5 97.5h45q-78 -174 -128 -216t-114 -42 q-84 0 -140 57t-122 57q-35 0 -64.5 -18.5t-70.5 -95.5h-45z" />
<glyph unicode="&#xc4;" horiz-adv-x="1468" d="M-68 0l7 33l118 63l719 1266h162l264 -1258l119 -71l-8 -33h-592l4 33l178 73l-67 343h-453l-195 -347l154 -69l-8 -33h-402zM442 557h373l-98 490zM596 1610q0 45 30.5 76.5t77.5 31.5q45 0 77 -31.5t32 -76.5t-32 -77t-77 -32q-47 0 -77.5 32t-30.5 77zM981 1610 q0 45 30.5 76.5t78.5 31.5q45 0 75.5 -31.5t30.5 -76.5t-30.5 -77t-75.5 -32q-47 0 -78 32t-31 77z" />
<glyph unicode="&#xc5;" horiz-adv-x="1468" d="M-68 0l7 33l118 63l719 1266h162l264 -1258l119 -71l-8 -33h-592l4 33l178 73l-67 343h-453l-195 -347l154 -69l-8 -33h-402zM442 557h373l-98 490zM729 1602q0 82 54.5 141t142.5 59q74 0 109.5 -42t35.5 -107q0 -80 -53.5 -139.5t-143.5 -59.5q-76 0 -110.5 41 t-34.5 107zM827 1602q1 -101 58 -101q41 0 65.5 43t24.5 111q0 100 -58 100q-90 0 -90 -153z" />
<glyph unicode="&#xc6;" horiz-adv-x="1961" d="M-68 0l7 33l127 63l956 1256h893l-62 -355h-32l-95 246h-407l-88 -491h280l146 178h33l-82 -461h-33l-84 174h-279l-96 -534h465l203 309h33l-74 -418h-1086l7 33l174 84l63 356h-412l-286 -377l139 -63l-8 -33h-402zM571 582h349l106 602z" />
<glyph unicode="&#xc7;" horiz-adv-x="1361" d="M98 532q0 223 110.5 415t297 308.5t414.5 116.5q121 0 197.5 -26.5t156.5 -71.5l-41 -383h-35l-133 323q-70 61 -174 62q-150 0 -261.5 -102.5t-174 -273.5t-62.5 -380q0 -201 87 -319.5t237 -118.5q61 0 118.5 19.5t110.5 50.5l223 280h35l-82 -346 q-82 -47 -187.5 -74.5t-236.5 -31.5l-45 -78q182 -53 183 -193q0 -86 -64 -143.5t-170 -57.5q-100 0 -153 48l6 36h8q45 -23 108 -22q123 0 123 90q0 41 -39 74t-139 57l115 189q-248 12 -390.5 165.5t-142.5 386.5z" />
<glyph unicode="&#xc8;" horiz-adv-x="1275" d="M-29 0l6 33l175 84l196 1118l-145 84l6 33h1020l-62 -355h-32l-97 246h-405l-88 -498h278l148 179h33l-80 -449h-33l-84 174h-281l-96 -540h465l203 309h32l-73 -418h-1086zM443 1693.5q-4 32.5 0 71.5h198l178 -311h-40l-293 182q-39 25 -43 57.5z" />
<glyph unicode="&#xc9;" horiz-adv-x="1275" d="M-29 0l6 33l175 84l196 1118l-145 84l6 33h1020l-62 -355h-32l-97 246h-405l-88 -498h278l148 179h33l-80 -449h-33l-84 174h-281l-96 -540h465l203 309h32l-73 -418h-1086zM780 1454l199 311h219q-6 -31 -21.5 -63.5t-66.5 -65.5l-291 -182h-39z" />
<glyph unicode="&#xca;" horiz-adv-x="1275" d="M-29 0l6 33l175 84l196 1118l-145 84l6 33h1020l-62 -355h-32l-97 246h-405l-88 -498h278l148 179h33l-80 -449h-33l-84 174h-281l-96 -540h465l203 309h32l-73 -418h-1086zM486 1454l321 311h90l203 -311h-39l-235 141l-301 -141h-39z" />
<glyph unicode="&#xcb;" horiz-adv-x="1275" d="M-29 0l6 33l175 84l196 1118l-145 84l6 33h1020l-62 -355h-32l-97 246h-405l-88 -498h278l148 179h33l-80 -449h-33l-84 174h-281l-96 -540h465l203 309h32l-73 -418h-1086zM526 1610q0 45 30.5 76.5t77.5 31.5q45 0 77 -31.5t32 -76.5t-32 -77t-77 -32q-47 0 -77.5 32 t-30.5 77zM911 1610q0 45 30.5 76.5t78.5 31.5q45 0 75.5 -31.5t30.5 -76.5t-30.5 -77t-75.5 -32q-47 0 -78 32t-31 77z" />
<glyph unicode="&#xcc;" horiz-adv-x="774" d="M-29 0l6 33l168 84l199 1118l-149 84l6 33h604l-6 -33l-174 -84l-197 -1118l152 -84l-7 -33h-602zM164 1693.5q-4 32.5 0 71.5h198l178 -311h-40l-293 182q-39 25 -43 57.5z" />
<glyph unicode="&#xcd;" horiz-adv-x="774" d="M-29 0l6 33l168 84l199 1118l-149 84l6 33h604l-6 -33l-174 -84l-197 -1118l152 -84l-7 -33h-602zM502 1454l199 311h219q-6 -31 -21.5 -63.5t-66.5 -65.5l-291 -182h-39z" />
<glyph unicode="&#xce;" horiz-adv-x="774" d="M-29 0l6 33l168 84l199 1118l-149 84l6 33h604l-6 -33l-174 -84l-197 -1118l152 -84l-7 -33h-602zM207 1454l321 311h90l203 -311h-39l-235 141l-301 -141h-39z" />
<glyph unicode="&#xcf;" horiz-adv-x="774" d="M-29 0l6 33l168 84l199 1118l-149 84l6 33h604l-6 -33l-174 -84l-197 -1118l152 -84l-7 -33h-602zM248 1610q0 45 30.5 76.5t77.5 31.5q45 0 77 -31.5t32 -76.5t-32 -77t-77 -32q-47 0 -77.5 32t-30.5 77zM633 1610q0 45 30.5 76.5t78.5 31.5q45 0 75.5 -31.5t30.5 -76.5 t-30.5 -77t-75.5 -32q-47 0 -78 32t-31 77z" />
<glyph unicode="&#xd0;" horiz-adv-x="1529" d="M-29 0l6 33l170 82l95 536h-156l18 97h154l86 489l-141 82l6 33h536q348 0 521.5 -158t173.5 -412q0 -199 -105.5 -378t-298 -291.5t-454.5 -112.5h-611zM426 100h178q244 0 393.5 189.5t149.5 496.5q0 213 -114.5 336t-332.5 123h-71l-88 -497h282l-16 -97h-285z" />
<glyph unicode="&#xd1;" horiz-adv-x="1558" d="M-23 0l7 33l176 84l196 1116l-147 86l6 33h356l559 -932l144 817l-205 82l8 33h514l-6 -33l-174 -84l-219 -1245h-125l-614 1007l-154 -880l203 -84l-6 -33h-519zM623 1479q76 170 127 214t113 44q84 0 141 -58.5t123 -58.5q35 0 63.5 19.5t71.5 97.5h45 q-78 -174 -128 -216t-114 -42q-84 0 -140 57t-122 57q-35 0 -64.5 -18.5t-70.5 -95.5h-45z" />
<glyph unicode="&#xd2;" horiz-adv-x="1585" d="M98 563q0 219 105.5 403.5t286 295t405.5 110.5q281 0 436.5 -162.5t155.5 -421.5q0 -219 -101.5 -402t-281.5 -294.5t-416 -111.5q-279 0 -434.5 162.5t-155.5 420.5zM397 539q0 -201 86 -329t244 -128q137 0 241.5 101.5t163 268t58.5 363.5q0 203 -82 329t-246 126 q-133 0 -238.5 -99.5t-166 -266.5t-60.5 -365zM570 1693.5q-4 32.5 0 71.5h198l178 -311h-40l-293 182q-39 25 -43 57.5z" />
<glyph unicode="&#xd3;" horiz-adv-x="1585" d="M98 563q0 219 105.5 403.5t286 295t405.5 110.5q281 0 436.5 -162.5t155.5 -421.5q0 -219 -101.5 -402t-281.5 -294.5t-416 -111.5q-279 0 -434.5 162.5t-155.5 420.5zM397 539q0 -201 86 -329t244 -128q137 0 241.5 101.5t163 268t58.5 363.5q0 203 -82 329t-246 126 q-133 0 -238.5 -99.5t-166 -266.5t-60.5 -365zM909 1454l199 311h219q-6 -31 -21.5 -63.5t-66.5 -65.5l-291 -182h-39z" />
<glyph unicode="&#xd4;" horiz-adv-x="1585" d="M98 563q0 219 105.5 403.5t286 295t405.5 110.5q281 0 436.5 -162.5t155.5 -421.5q0 -219 -101.5 -402t-281.5 -294.5t-416 -111.5q-279 0 -434.5 162.5t-155.5 420.5zM397 539q0 -201 86 -329t244 -128q137 0 241.5 101.5t163 268t58.5 363.5q0 203 -82 329t-246 126 q-133 0 -238.5 -99.5t-166 -266.5t-60.5 -365zM615 1454l321 311h90l203 -311h-39l-235 141l-301 -141h-39z" />
<glyph unicode="&#xd5;" horiz-adv-x="1585" d="M98 563q0 219 105.5 403.5t286 295t405.5 110.5q281 0 436.5 -162.5t155.5 -421.5q0 -219 -101.5 -402t-281.5 -294.5t-416 -111.5q-279 0 -434.5 162.5t-155.5 420.5zM397 539q0 -201 86 -329t244 -128q137 0 241.5 101.5t163 268t58.5 363.5q0 203 -82 329t-246 126 q-133 0 -238.5 -99.5t-166 -266.5t-60.5 -365zM612 1479q76 170 127 214t113 44q84 0 141 -58.5t123 -58.5q35 0 63.5 19.5t71.5 97.5h45q-78 -174 -128 -216t-114 -42q-84 0 -140 57t-122 57q-35 0 -64.5 -18.5t-70.5 -95.5h-45z" />
<glyph unicode="&#xd6;" horiz-adv-x="1585" d="M98 563q0 219 105.5 403.5t286 295t405.5 110.5q281 0 436.5 -162.5t155.5 -421.5q0 -219 -101.5 -402t-281.5 -294.5t-416 -111.5q-279 0 -434.5 162.5t-155.5 420.5zM397 539q0 -201 86 -329t244 -128q137 0 241.5 101.5t163 268t58.5 363.5q0 203 -82 329t-246 126 q-133 0 -238.5 -99.5t-166 -266.5t-60.5 -365zM653 1610q0 45 30.5 76.5t77.5 31.5q45 0 77 -31.5t32 -76.5t-32 -77t-77 -32q-47 0 -77.5 32t-30.5 77zM1038 1610q0 45 30.5 76.5t78.5 31.5q45 0 75.5 -31.5t30.5 -76.5t-30.5 -77t-75.5 -32q-47 0 -78 32t-31 77z" />
<glyph unicode="&#xd7;" d="M131 260l354 303l-243 301l90 78l243 -303l355 303l67 -86l-354 -301l244 -303l-90 -76l-244 303l-356 -303z" />
<glyph unicode="&#xd8;" horiz-adv-x="1585" d="M-12 -20l223 213q-113 150 -113 370q0 219 105.5 403.5t286 295t405.5 110.5q254 0 412 -139l145 139h145l-223 -213q113 -150 113 -371q0 -219 -101.5 -402t-281.5 -294.5t-416 -111.5q-252 0 -409 139l-146 -139h-145zM397 539q0 -84 15 -156l731 696q-82 190 -281 191 q-133 0 -238.5 -99.5t-166 -266t-60.5 -365.5zM446 276q86 -194 281 -194q137 0 241.5 101.5t163 268t58.5 363.5q0 84 -14 156z" />
<glyph unicode="&#xd9;" horiz-adv-x="1558" d="M197 1319l6 33h606l-6 -33l-176 -84l-115 -655q-6 -39 -10 -76t-4 -70q0 -166 83 -234.5t218 -68.5q125 0 234.5 88t142.5 289l127 731l-164 80l6 33h469l-6 -33l-174 -82l-115 -655q-57 -336 -217 -469t-393 -133q-223 0 -358.5 98t-135.5 334q0 68 16 170l113 653z M650 1693.5q-4 32.5 0 71.5h198l178 -311h-40l-293 182q-39 25 -43 57.5z" />
<glyph unicode="&#xda;" horiz-adv-x="1558" d="M197 1319l6 33h606l-6 -33l-176 -84l-115 -655q-6 -39 -10 -76t-4 -70q0 -166 83 -234.5t218 -68.5q125 0 234.5 88t142.5 289l127 731l-164 80l6 33h469l-6 -33l-174 -82l-115 -655q-57 -336 -217 -469t-393 -133q-223 0 -358.5 98t-135.5 334q0 68 16 170l113 653z M987 1454l199 311h219q-6 -31 -21.5 -63.5t-66.5 -65.5l-291 -182h-39z" />
<glyph unicode="&#xdb;" horiz-adv-x="1558" d="M197 1319l6 33h606l-6 -33l-176 -84l-115 -655q-6 -39 -10 -76t-4 -70q0 -166 83 -234.5t218 -68.5q125 0 234.5 88t142.5 289l127 731l-164 80l6 33h469l-6 -33l-174 -82l-115 -655q-57 -336 -217 -469t-393 -133q-223 0 -358.5 98t-135.5 334q0 68 16 170l113 653z M694 1454l321 311h90l203 -311h-39l-235 141l-301 -141h-39z" />
<glyph unicode="&#xdc;" horiz-adv-x="1558" d="M197 1319l6 33h606l-6 -33l-176 -84l-115 -655q-6 -39 -10 -76t-4 -70q0 -166 83 -234.5t218 -68.5q125 0 234.5 88t142.5 289l127 731l-164 80l6 33h469l-6 -33l-174 -82l-115 -655q-57 -336 -217 -469t-393 -133q-223 0 -358.5 98t-135.5 334q0 68 16 170l113 653z M733 1610q0 45 30.5 76.5t77.5 31.5q45 0 77 -31.5t32 -76.5t-32 -77t-77 -32q-47 0 -77.5 32t-30.5 77zM1118 1610q0 45 30.5 76.5t78.5 31.5q45 0 75.5 -31.5t30.5 -76.5t-30.5 -77t-75.5 -32q-47 0 -78 32t-31 77z" />
<glyph unicode="&#xdd;" horiz-adv-x="1404" d="M150 1319l8 33h569l-8 -33l-164 -70l-2 -8l266 -504l404 502l2 8l-142 72l9 33h430l-6 -33l-132 -62l-522 -622l-92 -518l156 -84l-6 -33h-619l6 33l182 84l91 512l-322 620zM899 1454l199 311h219q-6 -31 -21.5 -63.5t-66.5 -65.5l-291 -182h-39z" />
<glyph unicode="&#xde;" horiz-adv-x="1277" d="M-29 0l6 33l175 84l196 1118l-147 84l6 33h602l-6 -33l-174 -84l-27 -156h107q520 0 520 -325q0 -170 -164 -296t-490 -126h-106l-37 -215l154 -84l-6 -33h-609zM487 428h123q164 0 242 91t78 222q-1 230 -275 230h-73z" />
<glyph unicode="&#xdf;" horiz-adv-x="1310" d="M-178 -430q0 20 10 37l59 100h13l59 -51q31 -25 70 -25q51 0 79.5 57.5t51.5 192.5l155 959h-165v94h180l8 47q23 139 106.5 266t215 208t297.5 81q164 0 244.5 -69.5t80.5 -172.5q0 -86 -50 -147.5t-114.5 -113.5t-115 -110.5t-50.5 -138.5q0 -76 47.5 -121t116.5 -108 q72 -66 95.5 -120t23.5 -116q0 -139 -108.5 -239t-290.5 -100q-82 0 -137.5 21.5t-86.5 51.5q-45 39 -45 74q0 31 23 45l78 55h12l35 -49q35 -47 76 -76.5t90 -29.5q156 0 155 145q0 76 -57 120t-137 109q-43 39 -76 84t-33 117q0 98 51.5 169t118 134.5t117.5 139t51 186.5 q0 72 -40 118t-126 46q-119 0 -184.5 -89t-91.5 -241l-191 -1096q-16 -88 -99 -207.5t-192.5 -209t-207.5 -89.5q-51 0 -86 19.5t-35 42.5z" />
<glyph unicode="&#xe0;" horiz-adv-x="1105" d="M76 246q0 197 89 357.5t226 255.5t281 95q109 0 180 -51l104 39h41l-120 -684q-16 -96 34 -96q70 0 138 147l36 -12q-57 -152 -130.5 -234.5t-172.5 -82.5q-193 0 -172 229h-6q-88 -119 -166 -174t-172 -55q-84 0 -137 68.5t-53 197.5zM335 1384.5q-3 32.5 1 63.5h198 l178 -363h-40l-293 234q-41 33 -44 65.5zM348 356q0 -188 86 -188q53 0 101.5 45t91.5 106l84 490q-47 51 -113 51q-111 0 -180.5 -153.5t-69.5 -350.5z" />
<glyph unicode="&#xe1;" horiz-adv-x="1105" d="M76 246q0 197 89 357.5t226 255.5t281 95q109 0 180 -51l104 39h41l-120 -684q-16 -96 34 -96q70 0 138 147l36 -12q-57 -152 -130.5 -234.5t-172.5 -82.5q-193 0 -172 229h-6q-88 -119 -166 -174t-172 -55q-84 0 -137 68.5t-53 197.5zM348 356q0 -188 86 -188 q53 0 101.5 45t91.5 106l84 490q-47 51 -113 51q-111 0 -180.5 -153.5t-69.5 -350.5zM674 1085l199 363h219q-6 -31 -23.5 -60.5t-64.5 -68.5l-291 -234h-39z" />
<glyph unicode="&#xe2;" horiz-adv-x="1105" d="M76 246q0 197 89 357.5t226 255.5t281 95q109 0 180 -51l104 39h41l-120 -684q-16 -96 34 -96q70 0 138 147l36 -12q-57 -152 -130.5 -234.5t-172.5 -82.5q-193 0 -172 229h-6q-88 -119 -166 -174t-172 -55q-84 0 -137 68.5t-53 197.5zM348 356q0 -188 86 -188 q53 0 101.5 45t91.5 106l84 490q-47 51 -113 51q-111 0 -180.5 -153.5t-69.5 -350.5zM379 1085l332 363h90l192 -363h-39l-229 185l-307 -185h-39z" />
<glyph unicode="&#xe3;" horiz-adv-x="1105" d="M76 246q0 197 89 357.5t226 255.5t281 95q109 0 180 -51l104 39h41l-120 -684q-16 -96 34 -96q70 0 138 147l36 -12q-57 -152 -130.5 -234.5t-172.5 -82.5q-193 0 -172 229h-6q-88 -119 -166 -174t-172 -55q-84 0 -137 68.5t-53 197.5zM348 356q0 -188 86 -188 q53 0 101.5 45t91.5 106l84 490q-47 51 -113 51q-111 0 -180.5 -153.5t-69.5 -350.5zM383 1126q84 184 132 231.5t112 47.5q82 0 137 -65.5t125 -65.5q33 0 59.5 22.5t73.5 108.5h45q-84 -184 -133 -231.5t-113 -47.5q-82 0 -137 65.5t-123 65.5q-33 0 -59.5 -22.5 t-73.5 -108.5h-45z" />
<glyph unicode="&#xe4;" horiz-adv-x="1105" d="M76 246q0 197 89 357.5t226 255.5t281 95q109 0 180 -51l104 39h41l-120 -684q-16 -96 34 -96q70 0 138 147l36 -12q-57 -152 -130.5 -234.5t-172.5 -82.5q-193 0 -172 229h-6q-88 -119 -166 -174t-172 -55q-84 0 -137 68.5t-53 197.5zM348 356q0 -188 86 -188 q53 0 101.5 45t91.5 106l84 490q-47 51 -113 51q-111 0 -180.5 -153.5t-69.5 -350.5zM424 1264q0 45 30.5 76.5t77.5 31.5q45 0 77 -31.5t32 -76.5q0 -43 -32 -76t-77 -33q-47 0 -77.5 33t-30.5 76zM809 1264q0 45 30.5 76.5t78.5 31.5q45 0 75.5 -31.5t30.5 -76.5 q0 -43 -30.5 -76t-75.5 -33q-47 0 -78 33t-31 76z" />
<glyph unicode="&#xe5;" horiz-adv-x="1105" d="M76 246q0 197 89 357.5t226 255.5t281 95q109 0 180 -51l104 39h41l-120 -684q-16 -96 34 -96q70 0 138 147l36 -12q-57 -152 -130.5 -234.5t-172.5 -82.5q-193 0 -172 229h-6q-88 -119 -166 -174t-172 -55q-84 0 -137 68.5t-53 197.5zM348 356q0 -188 86 -188 q53 0 101.5 45t91.5 106l84 490q-47 51 -113 51q-111 0 -180.5 -153.5t-69.5 -350.5zM555 1239q0 82 54.5 141.5t142.5 59.5q74 0 109.5 -42t35.5 -106q0 -82 -53.5 -141t-143.5 -59q-76 0 -110.5 42t-34.5 105zM653 1239q1 -100 58 -100q41 0 65.5 43t24.5 110 q0 100 -58 101q-90 0 -90 -154z" />
<glyph unicode="&#xe6;" horiz-adv-x="1466" d="M76 246q0 197 89 357.5t226 255.5t281 95q154 0 256 -84q129 84 278 84q106 0 160.5 -49t54.5 -114q0 -90 -105.5 -163t-412.5 -143q-2 -27 -2 -55q0 -102 55.5 -169.5t149.5 -67.5q113 0 248 122h6l31 -28q-66 -119 -177.5 -213t-250.5 -94q-143 0 -222 69.5t-98 194.5 h-10q-102 -141 -185.5 -202.5t-181.5 -61.5q-84 0 -137 68.5t-53 197.5zM348 356q0 -188 86 -188q51 0 100.5 45t102.5 117v14q0 227 160 410q-82 106 -179 106q-131 0 -200.5 -153.5t-69.5 -350.5zM911 559q174 47 240 105.5t66 130.5q0 29 -17.5 52t-60.5 23 q-80 0 -142.5 -87t-85.5 -224z" />
<glyph unicode="&#xe7;" horiz-adv-x="901" d="M72 340q0 156 78.5 296t205.5 229t273 89q164 0 231 -100q18 -35 19 -53q0 -35 -31 -58l-94 -69h-13l-43 80q-27 47 -52 77.5t-83 30.5q-84 0 -156.5 -126t-72.5 -294q0 -117 56 -183t147 -66q57 0 116.5 27.5t137.5 109.5h6l30 -29q-72 -129 -172 -220t-229 -101 l-45 -78q182 -53 182 -193q0 -86 -63.5 -143.5t-169.5 -57.5q-100 0 -154 48l6 36h8q45 -23 109 -22q123 0 123 90q0 41 -39 74t-139 57l116 191q-289 23 -288 358z" />
<glyph unicode="&#xe8;" horiz-adv-x="899" d="M72 332q0 152 72.5 295t201.5 235t293 92q106 0 161.5 -48t55.5 -115q0 -90 -105.5 -163t-412.5 -143q-2 -27 -2 -55q0 -109 57.5 -173t147.5 -64q113 0 247 122h7l28 -28q-68 -123 -178.5 -215t-247.5 -92q-168 0 -246.5 94t-78.5 258zM298 1384.5q-3 32.5 1 63.5h198 l178 -363h-40l-293 234q-41 33 -44 65.5zM346 559q174 47 239.5 105.5t65.5 130.5q0 29 -18.5 52t-61.5 23q-78 0 -140 -85t-85 -226z" />
<glyph unicode="&#xe9;" horiz-adv-x="899" d="M72 332q0 152 72.5 295t201.5 235t293 92q106 0 161.5 -48t55.5 -115q0 -90 -105.5 -163t-412.5 -143q-2 -27 -2 -55q0 -109 57.5 -173t147.5 -64q113 0 247 122h7l28 -28q-68 -123 -178.5 -215t-247.5 -92q-168 0 -246.5 94t-78.5 258zM346 559q174 47 239.5 105.5 t65.5 130.5q0 29 -18.5 52t-61.5 23q-78 0 -140 -85t-85 -226zM635 1085l199 363h219q-6 -31 -23.5 -60.5t-64.5 -68.5l-291 -234h-39z" />
<glyph unicode="&#xea;" horiz-adv-x="899" d="M72 332q0 152 72.5 295t201.5 235t293 92q106 0 161.5 -48t55.5 -115q0 -90 -105.5 -163t-412.5 -143q-2 -27 -2 -55q0 -109 57.5 -173t147.5 -64q113 0 247 122h7l28 -28q-68 -123 -178.5 -215t-247.5 -92q-168 0 -246.5 94t-78.5 258zM340 1085l332 363h90l192 -363 h-39l-229 185l-307 -185h-39zM346 559q174 47 239.5 105.5t65.5 130.5q0 29 -18.5 52t-61.5 23q-78 0 -140 -85t-85 -226z" />
<glyph unicode="&#xeb;" horiz-adv-x="899" d="M72 332q0 152 72.5 295t201.5 235t293 92q106 0 161.5 -48t55.5 -115q0 -90 -105.5 -163t-412.5 -143q-2 -27 -2 -55q0 -109 57.5 -173t147.5 -64q113 0 247 122h7l28 -28q-68 -123 -178.5 -215t-247.5 -92q-168 0 -246.5 94t-78.5 258zM346 559q174 47 239.5 105.5 t65.5 130.5q0 29 -18.5 52t-61.5 23q-78 0 -140 -85t-85 -226zM385 1264q0 45 30.5 76.5t77.5 31.5q45 0 77 -31.5t32 -76.5q0 -43 -32 -76t-77 -33q-47 0 -77.5 33t-30.5 76zM770 1264q0 45 30.5 76.5t78.5 31.5q45 0 75.5 -31.5t30.5 -76.5q0 -43 -30.5 -76t-75.5 -33 q-47 0 -78 33t-31 76z" />
<glyph unicode="&#xec;" horiz-adv-x="616" d="M18 1384.5q-3 32.5 1 63.5h198l178 -363h-40l-293 234q-41 33 -44 65.5zM68 856v25l428 73h6l-123 -696q-18 -96 33 -96q70 0 137 147l37 -12q-57 -152 -131 -234.5t-172 -82.5q-100 0 -145.5 71.5t-20.5 206.5l94 530z" />
<glyph unicode="&#xed;" horiz-adv-x="616" d="M68 856v25l428 73h6l-123 -696q-18 -96 33 -96q70 0 137 147l37 -12q-57 -152 -131 -234.5t-172 -82.5q-100 0 -145.5 71.5t-20.5 206.5l94 530zM354 1085l199 363h219q-6 -31 -23.5 -60.5t-64.5 -68.5l-291 -234h-39z" />
<glyph unicode="&#xee;" horiz-adv-x="616" d="M62 1085l332 363h90l192 -363h-39l-229 185l-307 -185h-39zM68 856v25l428 73h6l-123 -696q-18 -96 33 -96q70 0 137 147l37 -12q-57 -152 -131 -234.5t-172 -82.5q-100 0 -145.5 71.5t-20.5 206.5l94 530z" />
<glyph unicode="&#xef;" horiz-adv-x="616" d="M68 856v25l428 73h6l-123 -696q-18 -96 33 -96q70 0 137 147l37 -12q-57 -152 -131 -234.5t-172 -82.5q-100 0 -145.5 71.5t-20.5 206.5l94 530zM105 1264q0 45 30.5 76.5t77.5 31.5q45 0 77 -31.5t32 -76.5q0 -43 -32 -76t-77 -33q-47 0 -77.5 33t-30.5 76zM490 1264 q0 45 30.5 76.5t78.5 31.5q45 0 75.5 -31.5t30.5 -76.5q0 -43 -30.5 -76t-75.5 -33q-47 0 -78 33t-31 76z" />
<glyph unicode="&#xf0;" horiz-adv-x="1038" d="M70 375q0 154 69.5 286t190.5 212.5t270 80.5q63 0 113 -10q-20 145 -86 256l-160 -129h-148l256 205q-104 131 -282 201l14 57q211 -55 369 -176l196 158h146l-273 -220q254 -244 254 -604q0 -299 -155.5 -505.5t-401.5 -206.5q-174 0 -273 112.5t-99 282.5zM338 324 q0 -113 29.5 -180.5t95.5 -67.5q106 0 184 201.5t78 504.5v13q-51 66 -131 65q-106 0 -181 -143t-75 -393z" />
<glyph unicode="&#xf1;" horiz-adv-x="1153" d="M72 0l137 786l-135 70v25l379 73h6v-200h12q100 111 165.5 155.5t162.5 44.5q106 0 163.5 -81.5t32.5 -221.5l-69 -393q-16 -96 35 -96q68 0 135 147l39 -12q-57 -152 -131 -234.5t-173 -82.5q-219 0 -167 278l67 385q10 55 -9.5 97t-82.5 42q-51 0 -101.5 -40t-91.5 -85 l-110 -657h-264zM346 1126q84 184 132 231.5t112 47.5q82 0 137 -65.5t125 -65.5q33 0 59.5 22.5t73.5 108.5h45q-84 -184 -133 -231.5t-113 -47.5q-82 0 -137 65.5t-123 65.5q-33 0 -59.5 -22.5t-73.5 -108.5h-45z" />
<glyph unicode="&#xf2;" horiz-adv-x="1038" d="M72 393q0 139 65.5 267t179 211t256.5 83q201 0 297.5 -118.5t96.5 -294.5q0 -131 -63.5 -261t-180 -215t-274.5 -85q-190 0 -283.5 118.5t-93.5 294.5zM268 1384.5q-3 32.5 1 63.5h198l178 -363h-40l-293 234q-41 33 -44 65.5zM340 352q0 -127 29.5 -201.5t105.5 -74.5 q98 0 160.5 155.5t62.5 358.5q0 270 -133 270q-94 0 -159.5 -147.5t-65.5 -360.5z" />
<glyph unicode="&#xf3;" horiz-adv-x="1038" d="M72 393q0 139 65.5 267t179 211t256.5 83q201 0 297.5 -118.5t96.5 -294.5q0 -131 -63.5 -261t-180 -215t-274.5 -85q-190 0 -283.5 118.5t-93.5 294.5zM340 352q0 -127 29.5 -201.5t105.5 -74.5q98 0 160.5 155.5t62.5 358.5q0 270 -133 270q-94 0 -159.5 -147.5 t-65.5 -360.5zM606 1085l199 363h219q-6 -31 -23.5 -60.5t-64.5 -68.5l-291 -234h-39z" />
<glyph unicode="&#xf4;" horiz-adv-x="1038" d="M72 393q0 139 65.5 267t179 211t256.5 83q201 0 297.5 -118.5t96.5 -294.5q0 -131 -63.5 -261t-180 -215t-274.5 -85q-190 0 -283.5 118.5t-93.5 294.5zM311 1085l332 363h90l192 -363h-39l-229 185l-307 -185h-39zM340 352q0 -127 29.5 -201.5t105.5 -74.5 q98 0 160.5 155.5t62.5 358.5q0 270 -133 270q-94 0 -159.5 -147.5t-65.5 -360.5z" />
<glyph unicode="&#xf5;" horiz-adv-x="1038" d="M72 393q0 139 65.5 267t179 211t256.5 83q201 0 297.5 -118.5t96.5 -294.5q0 -131 -63.5 -261t-180 -215t-274.5 -85q-190 0 -283.5 118.5t-93.5 294.5zM313 1126q84 184 132 231.5t112 47.5q82 0 137 -65.5t125 -65.5q33 0 59.5 22.5t73.5 108.5h45 q-84 -184 -133 -231.5t-113 -47.5q-82 0 -137 65.5t-123 65.5q-33 0 -59.5 -22.5t-73.5 -108.5h-45zM340 352q0 -127 29.5 -201.5t105.5 -74.5q98 0 160.5 155.5t62.5 358.5q0 270 -133 270q-94 0 -159.5 -147.5t-65.5 -360.5z" />
<glyph unicode="&#xf6;" horiz-adv-x="1038" d="M72 393q0 139 65.5 267t179 211t256.5 83q201 0 297.5 -118.5t96.5 -294.5q0 -131 -63.5 -261t-180 -215t-274.5 -85q-190 0 -283.5 118.5t-93.5 294.5zM340 352q0 -127 29.5 -201.5t105.5 -74.5q98 0 160.5 155.5t62.5 358.5q0 270 -133 270q-94 0 -159.5 -147.5 t-65.5 -360.5zM356 1264q0 45 30.5 76.5t77.5 31.5q45 0 77 -31.5t32 -76.5q0 -43 -32 -76t-77 -33q-47 0 -77.5 33t-30.5 76zM741 1264q0 45 30.5 76.5t78.5 31.5q45 0 75.5 -31.5t30.5 -76.5q0 -43 -30.5 -76t-75.5 -33q-47 0 -78 33t-31 76z" />
<glyph unicode="&#xf7;" d="M121 504l18 106h860l-20 -106h-858zM416 127l24 141h138l-25 -141h-137zM543 846l24 141h138l-25 -141h-137z" />
<glyph unicode="&#xf8;" horiz-adv-x="1038" d="M2 -8l137 143q-68 104 -67 258q0 139 65.5 267t179 211t256.5 83q164 0 265 -86l69 74h129l-137 -143q68 -104 68 -258q0 -131 -63.5 -261t-180.5 -215t-274 -85q-154 0 -250 83l-68 -71h-129zM340 346l350 369q-23 145 -125 145q-94 0 -159.5 -147.5t-65.5 -360.5v-6z M350 221q25 -145 125 -145q98 0 160.5 155.5t62.5 356.5z" />
<glyph unicode="&#xf9;" horiz-adv-x="1130" d="M78 856v25l418 73h8l-111 -630q-8 -47 -8 -72q0 -41 20.5 -70.5t67.5 -29.5q43 0 88 34.5t82 75.5l92 524l-112 70v25l397 73h6l-123 -696q-16 -96 37 -96q70 0 137 147l37 -12q-57 -152 -131 -234.5t-172 -82.5q-178 0 -176 198h-4q-98 -109 -162 -153.5t-158 -44.5 q-88 0 -141 60t-53 165q0 18 3 37.5t5 40.5l88 503zM302 1384.5q-3 32.5 1 63.5h198l178 -363h-40l-293 234q-41 33 -44 65.5z" />
<glyph unicode="&#xfa;" horiz-adv-x="1130" d="M78 856v25l418 73h8l-111 -630q-8 -47 -8 -72q0 -41 20.5 -70.5t67.5 -29.5q43 0 88 34.5t82 75.5l92 524l-112 70v25l397 73h6l-123 -696q-16 -96 37 -96q70 0 137 147l37 -12q-57 -152 -131 -234.5t-172 -82.5q-178 0 -176 198h-4q-98 -109 -162 -153.5t-158 -44.5 q-88 0 -141 60t-53 165q0 18 3 37.5t5 40.5l88 503zM641 1085l199 363h219q-6 -31 -23.5 -60.5t-64.5 -68.5l-291 -234h-39z" />
<glyph unicode="&#xfb;" horiz-adv-x="1130" d="M78 856v25l418 73h8l-111 -630q-8 -47 -8 -72q0 -41 20.5 -70.5t67.5 -29.5q43 0 88 34.5t82 75.5l92 524l-112 70v25l397 73h6l-123 -696q-16 -96 37 -96q70 0 137 147l37 -12q-57 -152 -131 -234.5t-172 -82.5q-178 0 -176 198h-4q-98 -109 -162 -153.5t-158 -44.5 q-88 0 -141 60t-53 165q0 18 3 37.5t5 40.5l88 503zM346 1085l332 363h90l192 -363h-39l-229 185l-307 -185h-39z" />
<glyph unicode="&#xfc;" horiz-adv-x="1130" d="M78 856v25l418 73h8l-111 -630q-8 -47 -8 -72q0 -41 20.5 -70.5t67.5 -29.5q43 0 88 34.5t82 75.5l92 524l-112 70v25l397 73h6l-123 -696q-16 -96 37 -96q70 0 137 147l37 -12q-57 -152 -131 -234.5t-172 -82.5q-178 0 -176 198h-4q-98 -109 -162 -153.5t-158 -44.5 q-88 0 -141 60t-53 165q0 18 3 37.5t5 40.5l88 503zM391 1264q0 45 30.5 76.5t77.5 31.5q45 0 77 -31.5t32 -76.5q0 -43 -32 -76t-77 -33q-47 0 -77.5 33t-30.5 76zM776 1264q0 45 30.5 76.5t78.5 31.5q45 0 75.5 -31.5t30.5 -76.5q0 -43 -30.5 -76t-75.5 -33q-47 0 -78 33 t-31 76z" />
<glyph unicode="&#xfd;" horiz-adv-x="952" d="M-45 -285l14 13h115q76 0 114 10t69.5 52t90.5 132l29 45l-219 830l-141 59v25l366 73h6l174 -678h13l110 175q49 78 62.5 129t13.5 84q0 68 -61 106l-33 16v11l51 100q31 57 74 57q53 0 96 -55t43 -121q0 -59 -34 -125.5t-109 -181.5l-412 -633q-47 -72 -69.5 -110.5 t-79.5 -102.5q-103 -117 -226 -117q-57 0 -57 60v147zM616 1085l199 363h219q-6 -31 -23.5 -60.5t-64.5 -68.5l-291 -234h-39z" />
<glyph unicode="&#xfe;" horiz-adv-x="1089" d="M-100 -438l120 71l306 1735l-156 70v24l442 74h6l-139 -799h13q84 115 151.5 166t161.5 51q92 0 149.5 -76.5t57.5 -220.5q0 -182 -74 -335.5t-194.5 -247.5t-264.5 -94q-70 0 -129 16l-61 -361l170 -73v-33h-559v33zM379 152q41 -86 117 -86q106 0 177.5 153.5 t71.5 370.5q0 176 -94 176q-51 0 -101 -43t-89 -98z" />
<glyph unicode="&#xff;" horiz-adv-x="952" d="M-45 -285l14 13h115q76 0 114 10t69.5 52t90.5 132l29 45l-219 830l-141 59v25l366 73h6l174 -678h13l110 175q49 78 62.5 129t13.5 84q0 68 -61 106l-33 16v11l51 100q31 57 74 57q53 0 96 -55t43 -121q0 -59 -34 -125.5t-109 -181.5l-412 -633q-47 -72 -69.5 -110.5 t-79.5 -102.5q-103 -117 -226 -117q-57 0 -57 60v147zM367 1264q0 45 30.5 76.5t77.5 31.5q45 0 77 -31.5t32 -76.5q0 -43 -32 -76t-77 -33q-47 0 -77.5 33t-30.5 76zM752 1264q0 45 30.5 76.5t78.5 31.5q45 0 75.5 -31.5t30.5 -76.5q0 -43 -30.5 -76t-75.5 -33 q-47 0 -78 33t-31 76z" />
<glyph unicode="&#x152;" horiz-adv-x="2019" d="M98 584q0 332 231.5 550t616.5 218h1026l-63 -355h-31l-96 246h-406l-88 -491h279l147 178h33l-82 -461h-33l-84 174h-278l-96 -534h464l203 309h33l-74 -418h-1014q-346 0 -517 159.5t-171 424.5zM391 571q0 -231 111.5 -348t318.5 -117h72l201 1145h-144 q-266 0 -412.5 -186t-146.5 -494z" />
<glyph unicode="&#x153;" horiz-adv-x="1527" d="M72 393q0 139 65.5 267t179 211t256.5 83q117 0 198 -42t128 -113q72 72 165 113.5t202 41.5q106 0 161.5 -49t55.5 -114q0 -90 -105.5 -163t-412.5 -143q-2 -27 -2 -55q0 -102 55 -169.5t149 -67.5q113 0 248 122h6l31 -28q-66 -119 -177.5 -213t-250.5 -94 q-182 0 -262 116q-63 -53 -142 -84.5t-171 -31.5q-190 0 -283.5 118.5t-93.5 294.5zM340 352q0 -127 29.5 -201.5t105.5 -74.5q98 0 160.5 155.5t62.5 358.5q0 270 -133 270q-94 0 -159.5 -147.5t-65.5 -360.5zM973 559q174 47 239.5 105.5t65.5 130.5q0 29 -17.5 52 t-62.5 23q-80 0 -141.5 -87t-83.5 -224z" />
<glyph unicode="&#x178;" horiz-adv-x="1404" d="M150 1319l8 33h569l-8 -33l-164 -70l-2 -8l266 -504l404 502l2 8l-142 72l9 33h430l-6 -33l-132 -62l-522 -622l-92 -518l156 -84l-6 -33h-619l6 33l182 84l91 512l-322 620zM645 1610q0 45 30.5 76.5t77.5 31.5q45 0 77 -31.5t32 -76.5t-32 -77t-77 -32q-47 0 -77.5 32 t-30.5 77zM1030 1610q0 45 30.5 76.5t78.5 31.5q45 0 75.5 -31.5t30.5 -76.5t-30.5 -77t-75.5 -32q-47 0 -78 32t-31 77z" />
<glyph unicode="&#x2c6;" horiz-adv-x="1024" d="M205 1085l332 363h90l192 -363h-39l-229 185l-307 -185h-39z" />
<glyph unicode="&#x2dc;" horiz-adv-x="1024" d="M170 1126q84 184 132 231.5t112 47.5q82 0 137 -65.5t125 -65.5q33 0 59.5 22.5t73.5 108.5h45q-84 -184 -133 -231.5t-113 -47.5q-82 0 -137 65.5t-123 65.5q-33 0 -59.5 -22.5t-73.5 -108.5h-45z" />
<glyph unicode="&#x2000;" horiz-adv-x="921" />
<glyph unicode="&#x2001;" horiz-adv-x="1843" />
<glyph unicode="&#x2002;" horiz-adv-x="921" />
<glyph unicode="&#x2003;" horiz-adv-x="1843" />
<glyph unicode="&#x2004;" horiz-adv-x="614" />
<glyph unicode="&#x2005;" horiz-adv-x="460" />
<glyph unicode="&#x2006;" horiz-adv-x="307" />
<glyph unicode="&#x2007;" horiz-adv-x="307" />
<glyph unicode="&#x2008;" horiz-adv-x="230" />
<glyph unicode="&#x2009;" horiz-adv-x="368" />
<glyph unicode="&#x200a;" horiz-adv-x="102" />
<glyph unicode="&#x2010;" horiz-adv-x="724" d="M94 461l23 131h551l-23 -131h-551z" />
<glyph unicode="&#x2011;" horiz-adv-x="724" d="M94 461l23 131h551l-23 -131h-551z" />
<glyph unicode="&#x2012;" horiz-adv-x="724" d="M94 461l23 131h551l-23 -131h-551z" />
<glyph unicode="&#x2013;" horiz-adv-x="1024" d="M78 520l14 74h854l-14 -74h-854z" />
<glyph unicode="&#x2014;" horiz-adv-x="2048" d="M102 520l15 74h1829l-15 -74h-1829z" />
<glyph unicode="&#x2018;" horiz-adv-x="487" d="M217 1192q0 100 86 197.5t256 150.5v-49q-197 -70 -197 -197q0 -74 68 -114l53 -33l4 -25l-73 -94q-29 -37 -49 -37q-18 0 -43 15q-104 63 -105 186z" />
<glyph unicode="&#x2019;" horiz-adv-x="487" d="M174 991v49q199 70 199 195q0 74 -70 117l-53 30l-2 25l71 94q31 39 50 39q16 0 45 -14q102 -63 102 -187q0 -102 -86 -199.5t-256 -148.5z" />
<glyph unicode="&#x201a;" horiz-adv-x="487" d="M-19 -355q199 70 199 195q0 74 -70 117l-53 30l-2 25l71 94q31 39 50 39q16 0 45 -14q102 -63 102 -187q0 -102 -86 -199.5t-256 -148.5v49z" />
<glyph unicode="&#x201c;" horiz-adv-x="882" d="M217 1192q0 100 86 197.5t256 150.5v-49q-197 -70 -197 -197q0 -74 68 -114l53 -33l4 -25l-73 -94q-29 -37 -49 -37q-18 0 -43 15q-104 63 -105 186zM602 1192q0 100 86 197.5t256 150.5v-49q-197 -70 -197 -197q0 -74 68 -114l53 -33l4 -25l-73 -94q-29 -37 -49 -37 q-18 0 -43 15q-104 63 -105 186z" />
<glyph unicode="&#x201d;" horiz-adv-x="882" d="M174 991v49q199 70 199 195q0 74 -70 117l-53 30l-2 25l71 94q31 39 50 39q16 0 45 -14q102 -63 102 -187q0 -102 -86 -199.5t-256 -148.5zM559 991v49q199 70 199 195q0 74 -70 117l-53 30l-2 25l71 94q31 39 50 39q16 0 45 -14q102 -63 102 -187q0 -102 -86 -199.5 t-256 -148.5z" />
<glyph unicode="&#x201e;" horiz-adv-x="882" d="M-19 -355q199 70 199 195q0 74 -70 117l-53 30l-2 25l71 94q31 39 50 39q16 0 45 -14q102 -63 102 -187q0 -102 -86 -199.5t-256 -148.5v49zM366 -355q199 70 199 195q0 74 -70 117l-53 30l-2 25l71 94q31 39 50 39q16 0 45 -14q102 -63 102 -187q0 -102 -86 -199.5 t-256 -148.5v49z" />
<glyph unicode="&#x2022;" horiz-adv-x="1024" d="M274 557q0 102 67 169t171 67q100 0 168 -67t68 -169t-68 -170t-168 -68q-104 0 -171 68t-67 170z" />
<glyph unicode="&#x2026;" horiz-adv-x="1482" d="M66 111q0 59 40.5 107t104.5 48q59 0 88 -33.5t29 -85.5q0 -61 -40 -109t-108 -48q-115 0 -114 121zM551 111q0 59 40.5 107t104.5 48q59 0 88 -33.5t29 -85.5q0 -61 -40 -109t-108 -48q-115 0 -114 121zM1035 111q0 59 40.5 107t104.5 48q59 0 88 -33.5t29 -85.5 q0 -61 -40 -109t-108 -48q-115 0 -114 121z" />
<glyph unicode="&#x202f;" horiz-adv-x="368" />
<glyph unicode="&#x2039;" horiz-adv-x="520" d="M33 506l420 362h34l-243 -362l129 -363h-35z" />
<glyph unicode="&#x203a;" horiz-adv-x="520" d="M33 145l243 363l-129 362h35l305 -362l-417 -363h-37z" />
<glyph unicode="&#x205f;" horiz-adv-x="460" />
<glyph unicode="&#x20ac;" d="M31 510l16 86h148q14 113 49 221h-160l16 86h176q84 203 227.5 336t313.5 133q96 0 164 -33.5t100 -85.5q23 -37 23 -57q0 -33 -35 -55l-96 -64h-15l-51 88q-33 59 -58.5 87t-72.5 28q-88 0 -157.5 -105.5t-108.5 -271.5h399l-16 -86h-401q-20 -106 -27 -221h391l-14 -86 h-379v-14q0 -319 242 -320q139 0 253 135h5l2 -71q-139 -260 -396 -260q-193 0 -289 123.5t-96 338.5q0 35 2 68h-155z" />
<glyph unicode="&#x2122;" horiz-adv-x="1357" d="M143 1186l29 166h496l-29 -166h-10l-39 119h-119l-78 -433l70 -28l-2 -15h-264l2 15l86 28l75 433h-124l-78 -119h-15zM629 829l2 15l67 28l93 435l-62 30l2 15h189l92 -371l223 371h182l-2 -15l-69 -28l-64 -437l47 -28l-2 -15h-221l2 15l61 28l60 377l-256 -424h-43 l-101 416l-77 -369l59 -28l-2 -15h-180z" />
<glyph unicode="&#x25fc;" horiz-adv-x="952" d="M0 0v952h952v-952h-952z" />
</font>
</defs>
</svg>
