<?xml version="1.0" standalone="no"?>
<!DOCTYPE svg PUBLIC "-//W3C//DTD SVG 1.1//EN" "http://www.w3.org/Graphics/SVG/1.1/DTD/svg11.dtd" >
<svg xmlns="http://www.w3.org/2000/svg" xmlns:xlink="http://www.w3.org/1999/xlink" version="1.1">
<metadata></metadata>
<defs>
<font id="spectralbold" horiz-adv-x="1148" >
<font-face units-per-em="2048" ascent="1638" descent="-410" />
<missing-glyph horiz-adv-x="512" />
<glyph unicode="&#xfb01;" horiz-adv-x="1441" d="M55 842v92h156v65q0 96 91 222.5t245.5 220.5t343.5 94q113 0 188 -27q59 -23 60 -53q0 -16 -13 -41l-69 -127h-21l-49 25q-61 35 -110.5 55.5t-114.5 20.5q-139 0 -200.5 -86t-61.5 -248v-121h751v-836l123 -65v-33h-547v33l138 65v744h-465v-746l157 -63v-33h-583v33 l137 65v744h-156z" />
<glyph unicode="&#xfb02;" horiz-adv-x="1425" d="M55 842v92h156v65q0 96 91 222.5t245.5 220.5t343.5 94q113 0 188 -27q10 -4 19 -8l112 35h33v-1438l123 -65v-33h-547v33l137 65v1243q-45 25 -89 38.5t-97 13.5q-270 0 -270 -338v-121h241v-92h-241v-746l157 -63v-33h-583v33l137 65v744h-156z" />
<glyph unicode="&#xfb03;" horiz-adv-x="2199" d="M55 842v92h156v63q0 51 42 139.5t115.5 180.5t172 155.5t213.5 63.5q35 0 71 -12q37 -14 37 -39q0 -10 -14 -39l-53 -115h-19l-33 15q-45 25 -92 24q-86 0 -118.5 -72.5t-32.5 -236.5v-127h471v65q0 96 91 222.5t245.5 220.5t341.5 94q115 0 190 -27q57 -23 57 -53 q0 -20 -10 -41l-71 -127h-21l-47 25q-61 35 -111.5 55.5t-113.5 20.5q-264 0 -265 -334v-121h754v-836l121 -65v-33h-547v33l137 65v744h-465v-746l160 -63v-33h-583v33l137 65v744h-471v-746l157 -63v-33h-583v33l137 65v744h-156z" />
<glyph unicode="&#xfb04;" horiz-adv-x="2185" d="M55 842v92h156v63q0 51 42 139.5t115.5 180.5t172 155.5t213.5 63.5q35 0 71 -12q37 -14 37 -39q0 -10 -14 -39l-53 -115h-19l-33 15q-45 25 -92 24q-86 0 -118.5 -72.5t-32.5 -236.5v-127h471v65q0 96 91 222.5t245.5 220.5t341.5 94q115 0 190 -27q10 -4 19 -8l112 35 h33v-1438l121 -65v-33h-547v33l137 65v1243q-45 25 -89 38.5t-95 13.5q-272 0 -273 -338v-121h244v-92h-244v-746l160 -63v-33h-583v33l137 65v744h-471v-746l157 -63v-33h-583v33l137 65v744h-156z" />
<glyph horiz-adv-x="0" />
<glyph horiz-adv-x="0" />
<glyph horiz-adv-x="682" />
<glyph unicode=" "  horiz-adv-x="512" />
<glyph unicode="&#x09;" horiz-adv-x="512" />
<glyph unicode="&#xa0;" horiz-adv-x="512" />
<glyph unicode="!" horiz-adv-x="550" d="M115 1352h321l-129 -906h-65zM123 141q0 63 45 108.5t106 45.5t106.5 -45t45.5 -109q0 -61 -45.5 -106t-106.5 -45t-106 45t-45 106z" />
<glyph unicode="&#x22;" horiz-adv-x="921" d="M152 1516h208l-79 -512h-50zM562 1516h208l-79 -512h-50z" />
<glyph unicode="#" d="M63 414v100h228l90 309h-199v101h228l125 428h108l-125 -428h260l125 428h109l-125 -428h196v-101h-225l-90 -309h197v-100h-226l-121 -414h-108l121 414h-260l-121 -414h-109l121 414h-199zM399 514h260l91 309h-261z" />
<glyph unicode="$" d="M121 971q0 129 95 233.5t235 145.5v166h84v-148q33 4 65 4q25 0 49 -2v146h84v-156q98 -20 162 -70q113 -88 113 -180q0 -41 -26 -57.5t-50 -16.5h-94l-11 8v56q0 98 -94 139v-457q164 -74 243 -158.5t79 -236.5q0 -139 -92.5 -240.5t-229.5 -142.5v-168h-84v150 q-43 -6 -86 -6h-28v-144h-84v154q-78 14 -137.5 41.5t-90.5 56.5q-51 43 -75.5 97.5t-24.5 101.5q0 41 27.5 53t52.5 12h88l10 -8v-55q0 -137 150 -187v471q-186 80 -258 169t-72 229zM367 1085q0 -49 16 -89t68 -76v309q-84 -52 -84 -144zM535 86q14 -2 30 -2q45 0 84 8 v391q-45 23 -114 56v-453zM535 868q45 -22 106 -47l8 -4v445q-27 4 -55 4q-31 0 -59 -6v-392zM733 125q82 51 82 149q0 96 -82 158v-307z" />
<glyph unicode="%" horiz-adv-x="1622" d="M16 1122q0 176 91.5 295t228.5 119q150 0 237 -111.5t87 -302.5q0 -178 -92.5 -296.5t-231.5 -118.5q-145 0 -232.5 112.5t-87.5 302.5zM242 1157q0 -150 23.5 -271.5t86.5 -121.5q47 0 63.5 104.5t16.5 216.5q0 150 -22.5 271t-83.5 121q-49 0 -66.5 -102.5 t-17.5 -217.5zM283 41l966 1495l93 -61l-967 -1495zM964 395q0 176 91.5 295t228.5 119q150 0 237 -111.5t87 -302.5q0 -178 -92.5 -296.5t-231.5 -118.5q-145 0 -232.5 112.5t-87.5 302.5zM1190 430q0 -150 23.5 -271.5t86.5 -121.5q47 0 63.5 104.5t16.5 216.5 q0 150 -22.5 271t-83.5 121q-49 0 -66.5 -102.5t-17.5 -217.5z" />
<glyph unicode="&#x26;" horiz-adv-x="1566" d="M76 324q0 238 282 378q-82 86 -122.5 158t-40.5 168q0 154 124.5 249t305.5 95q182 0 288.5 -77.5t106.5 -200.5q0 -86 -76 -162t-266 -148q18 -16 36.5 -35.5t39.5 -39.5l303 -308q100 147 180 367l-201 80v33h506v-33l-176 -76q-61 -125 -122.5 -232.5t-125.5 -197.5 l232 -236l170 -73v-33h-465l-129 131q-90 -74 -192.5 -112.5t-225.5 -38.5q-193 0 -312.5 90t-119.5 254zM352 408q0 -135 72 -209t197 -74q127 0 237 74l-330 331q-29 29 -54 54.5t-48 48.5q-43 -49 -58.5 -104t-15.5 -121zM469 1114q0 -70 40 -131t112 -139 q123 111 122 266q0 70 -33.5 120t-105.5 50q-68 0 -101.5 -48t-33.5 -118z" />
<glyph unicode="'" horiz-adv-x="512" d="M152 1516h208l-79 -512h-50z" />
<glyph unicode="(" horiz-adv-x="536" d="M100 604q0 508 359 912h49v-7q-125 -199 -191.5 -411.5t-66.5 -493.5t66.5 -492.5t191.5 -412.5v-6h-49q-358 403 -359 911z" />
<glyph unicode=")" horiz-adv-x="536" d="M29 -301q125 201 191.5 413t66.5 492q0 281 -66.5 494t-191.5 411v7h49q358 -403 358 -912q0 -508 -358 -911h-49v6z" />
<glyph unicode="*" horiz-adv-x="817" d="M74 1212l51 156l258 -139l-55 287h159l-53 -287l256 139l53 -156l-292 -38l219 -205l-133 -92l-129 258l-127 -258l-136 92l220 205z" />
<glyph unicode="+" d="M143 502v110h371v375h119v-375h371v-110h-371v-375h-119v375h-371z" />
<glyph unicode="," horiz-adv-x="548" d="M106 84l84 139q29 45 52 45q16 0 51 -18q160 -90 160 -273q0 -115 -75 -226t-263 -187v63q100 49 137 109.5t37 116.5q0 59 -30 99t-77 68l-69 39z" />
<glyph unicode="-" horiz-adv-x="755" d="M96 455v143h563v-143h-563z" />
<glyph unicode="." horiz-adv-x="548" d="M123 141q0 63 45 108.5t106 45.5t106.5 -45t45.5 -109q0 -61 -45.5 -106t-106.5 -45t-106 45t-45 106z" />
<glyph unicode="/" horiz-adv-x="512" d="M0 -246l410 1782h102l-410 -1782h-102z" />
<glyph unicode="0" d="M66 676q0 299 141 497.5t366 198.5q242 0 376 -186.5t134 -509.5q0 -299 -142.5 -497.5t-367.5 -198.5q-240 0 -373.5 186t-133.5 510zM385 743q0 -272 51 -467.5t172 -195.5q80 0 118 149.5t38 382.5q0 272 -48 467t-169 195q-82 0 -122 -144.5t-40 -386.5z" />
<glyph unicode="1" d="M158 963v81l510 308h129v-1248l174 -71v-33h-668v33l195 71v1012z" />
<glyph unicode="2" d="M84 1006q0 59 37 119.5t123 121.5q80 59 157.5 92t204.5 33q184 0 300 -105.5t116 -256.5q0 -106 -47 -195.5t-185.5 -221.5t-412.5 -364h543l118 205h33l-20 -434h-945v76q207 223 327 361t177.5 230.5t73.5 174.5t16 194q0 98 -45 166t-137 68q-199 0 -199 -236v-96 l-14 -18h-139q-41 0 -61.5 14t-20.5 72z" />
<glyph unicode="3" d="M76 258q0 53 19.5 65.5t60.5 12.5h135l20 -21v-71q0 -166 211 -166q115 0 174.5 77.5t59.5 196.5q0 143 -73 221t-249 78h-108v99h102q123 0 190.5 85t67.5 207q0 233 -174 234q-72 0 -122 -49t-50 -137v-91l-16 -18h-138q-39 0 -59.5 13.5t-20.5 66.5q0 117 136 201 q88 57 162.5 83.5t183.5 26.5q178 0 299 -86t121 -235q0 -121 -103.5 -203t-257.5 -111q205 -25 318.5 -113.5t113.5 -250.5q0 -172 -160.5 -282.5t-371.5 -110.5q-88 0 -177 22.5t-161 69.5q-57 39 -95 85t-38 101z" />
<glyph unicode="4" d="M31 358v60l721 934h129v-832h243v-162h-243v-254l174 -71v-33h-668v33l195 71v254h-551zM231 520h351v465z" />
<glyph unicode="5" d="M119 139q0 29 37 56l106 81h29l22 -47q35 -74 82 -114.5t129 -40.5q98 0 162 76.5t64 201.5q0 145 -88.5 225t-284.5 80q-51 0 -95 -5t-100 -13v713h729v-207h-620v-256q33 2 71.5 4t88.5 2q291 0 431 -124t140 -312q0 -205 -156.5 -342t-396.5 -137q-246 0 -334 118 q-16 23 -16 41z" />
<glyph unicode="6" d="M72 500q0 336 234.5 563t641.5 309v-72q-240 -74 -376 -239.5t-171 -396.5q113 143 318 143q172 0 268 -112.5t96 -274.5q0 -174 -126.5 -307t-376.5 -133q-229 0 -368.5 141t-139.5 379zM389 498q0 -199 51.5 -309.5t147.5 -110.5q100 0 142 96t42 191q0 127 -47 208.5 t-147 81.5q-117 0 -187 -106q-2 -24 -2 -51z" />
<glyph unicode="7" d="M117 1092v260h913v-78q-147 -287 -299.5 -623t-218.5 -651h-289q98 233 241.5 486t360.5 606h-708z" />
<glyph unicode="8" d="M82 303q0 84 53 172t215 168q-127 80 -175 163t-48 195q0 152 139.5 261.5t325.5 109.5q174 0 298 -92t124 -236q0 -84 -72 -153.5t-186 -126.5q166 -92 237.5 -180t71.5 -207q0 -174 -143.5 -285.5t-356.5 -111.5q-201 0 -342 88t-141 235zM326 334q0 -121 66.5 -191.5 t168.5 -70.5q104 0 161.5 54t57.5 142q0 100 -70.5 159.5t-267.5 162.5l-4 2q-66 -45 -89 -107.5t-23 -150.5zM401 1102q0 -74 45.5 -137.5t217.5 -151.5q119 86 118 231q0 119 -56 176.5t-142 57.5q-80 0 -131.5 -47t-51.5 -129z" />
<glyph unicode="9" d="M66 932q0 174 126.5 307t376.5 133q229 0 369.5 -141t140.5 -379q0 -336 -235 -563t-643 -309v71q240 74 376 240t171 397q-113 -143 -318 -143q-172 0 -268 112.5t-96 274.5zM379 987q0 -127 46 -209t146 -82q117 0 187 107q2 25 2 51q0 199 -52.5 309.5t-146.5 110.5 q-100 0 -141 -96.5t-41 -190.5z" />
<glyph unicode=":" horiz-adv-x="548" d="M123 141q0 63 45 108.5t106 45.5t106.5 -45t45.5 -109q0 -61 -45.5 -106t-106.5 -45t-106 45t-45 106zM123 790q0 63 45 108.5t106 45.5t106.5 -45t45.5 -109q0 -61 -45.5 -106t-106.5 -45t-106 45t-45 106z" />
<glyph unicode=";" horiz-adv-x="548" d="M106 84l84 139q29 45 52 45q16 0 51 -18q160 -90 160 -273q0 -115 -75 -226t-263 -187v63q100 49 137 109.5t37 116.5q0 59 -30 99t-77 68l-69 39zM123 790q0 63 45 108.5t106 45.5t106.5 -45t45.5 -109q0 -61 -45.5 -106t-106.5 -45t-106 45t-45 106z" />
<glyph unicode="&#x3c;" d="M143 506v102l861 379v-125l-693 -305l693 -305v-125z" />
<glyph unicode="=" d="M143 293v110h861v-110h-861zM143 711v110h861v-110h-861z" />
<glyph unicode="&#x3e;" d="M143 127v125l693 305l-693 305v125l861 -379v-102z" />
<glyph unicode="?" horiz-adv-x="980" d="M59 1047q0 117 127 210q74 55 147 85t173 30q186 0 294.5 -100.5t108.5 -261.5q0 -143 -106.5 -251t-310.5 -155l-27 -158h-66l-65 328q326 51 325 277q0 115 -52 174t-134 59q-76 0 -125 -55t-49 -166v-70l-20 -24h-150q-35 0 -52.5 13t-17.5 65zM276 141 q0 63 45.5 108.5t106.5 45.5t107.5 -45t46.5 -109q0 -61 -46.5 -106t-107.5 -45t-106.5 45t-45.5 106z" />
<glyph unicode="@" horiz-adv-x="1654" d="M119 344q0 219 110.5 402.5t296 294t412.5 110.5q274 0 436 -161t162 -408q0 -135 -58.5 -258t-164 -202t-246.5 -79q-188 0 -164 207q-80 -113 -148.5 -160t-148.5 -47q-70 0 -118 58.5t-48 168.5q0 168 77 306.5t195.5 220.5t241.5 82q94 0 156 -45l90 34h37l-107 -596 q-12 -74 -1.5 -100.5t51.5 -26.5q100 0 177 133.5t77 296.5q0 217 -147.5 366t-393.5 149q-285 0 -454 -207t-169 -502q0 -262 150.5 -409.5t392.5 -147.5q133 0 235.5 30.5t190.5 90.5l21 -45q-109 -68 -226.5 -105t-275.5 -37q-287 0 -463 161t-176 425zM676 367 q0 -90 17.5 -126t58.5 -36q76 0 163 127l74 420q-43 47 -98 47q-90 0 -152.5 -129t-62.5 -303z" />
<glyph unicode="A" horiz-adv-x="1585" d="M39 0v33l125 69l534 1260h181l528 -1256l139 -73v-33h-647v33l178 73l-139 340h-485l-140 -340l170 -73v-33h-444zM500 559h391l-195 477z" />
<glyph unicode="B" horiz-adv-x="1445" d="M90 0v33l174 84v1118l-174 84v33h655q219 0 365.5 -76t146.5 -227q0 -104 -78.5 -192.5t-226.5 -123.5q199 -27 312.5 -116t113.5 -224q0 -168 -165.5 -280.5t-417.5 -112.5h-705zM573 113h156q152 0 237 75.5t85 194.5q0 264 -336 264h-142v-534zM573 748h82 q135 0 211 64.5t76 174.5q0 252 -299 252h-70v-491z" />
<glyph unicode="C" horiz-adv-x="1456" d="M100 647q0 205 105.5 369t277.5 260t367 96q162 0 249 -27.5t175 -70.5l22 -383h-36l-195 317q-98 61 -205 62q-188 0 -313 -165t-125 -437q0 -268 121 -424t299 -156q76 0 136 19.5t116 50.5l184 274h35l-29 -346q-84 -49 -202 -77.5t-265 -28.5q-322 0 -519.5 190 t-197.5 477z" />
<glyph unicode="D" horiz-adv-x="1642" d="M90 0v33l174 84v1118l-174 84v33h698q365 0 563.5 -175.5t198.5 -439.5q0 -213 -101 -380t-276.5 -262t-398.5 -95h-684zM573 113h160q238 0 367 152.5t129 408.5q0 258 -132 411.5t-392 153.5h-132v-1126z" />
<glyph unicode="E" horiz-adv-x="1394" d="M90 0v33l174 84v1118l-174 84v33h1116v-355h-32l-152 242h-449v-485h316l115 176h32v-461h-32l-115 172h-316v-528h498l160 305h33v-418h-1174z" />
<glyph unicode="F" horiz-adv-x="1292" d="M90 0v33l174 84v1118l-174 84v33h1096v-355h-33l-139 242h-441v-491h295l115 176h33v-449h-33l-115 172h-295v-530l209 -84v-33h-692z" />
<glyph unicode="G" horiz-adv-x="1548" d="M102 647q0 209 107.5 373t283 258t381.5 94q162 0 258.5 -27.5t184.5 -70.5l22 -361h-36l-197 297q-100 61 -223 62q-193 0 -327 -162t-134 -426q0 -274 129 -433t317 -159q80 0 158 14v379l-182 97v32h643v-32l-154 -99v-331q-94 -78 -242.5 -125t-281.5 -47 q-197 0 -357.5 88t-255 238.5t-94.5 340.5z" />
<glyph unicode="H" horiz-adv-x="1712" d="M90 0v33l174 84v1118l-174 84v33h643v-33l-160 -84v-483h568v483l-164 84v33h645v-33l-172 -84v-1118l172 -84v-33h-645v33l164 84v522h-568v-522l160 -84v-33h-643z" />
<glyph unicode="I" horiz-adv-x="845" d="M94 0v33l174 84v1118l-174 84v33h658v-33l-174 -84v-1118l174 -84v-33h-658z" />
<glyph unicode="J" horiz-adv-x="884" d="M53 -295q0 18 7.5 54t19.5 98h18q29 -8 47.5 -12.5t40.5 -4.5q55 0 88 44t33 218v1133l-174 84v33h658v-33l-175 -84v-733q0 -236 -80.5 -416t-158.5 -268q-72 -84 -131 -128t-127 -44q-66 0 -66 59z" />
<glyph unicode="K" horiz-adv-x="1585" d="M90 0v33l174 84v1118l-174 84v33h658v-33l-175 -84v-1118l175 -84v-33h-658zM573 682l562 561l-152 76v33h483v-33l-135 -57l-475 -457l569 -713l144 -59v-33h-455z" />
<glyph unicode="L" horiz-adv-x="1329" d="M90 0v33l174 84v1118l-174 84v33h678v-33l-195 -84v-1122h451l166 387h33v-500h-1133z" />
<glyph unicode="M" horiz-adv-x="2037" d="M86 0v33l174 84l43 1118l-180 84v33h508l411 -953l408 953h492v-33l-179 -64l35 -1138l156 -84v-33h-621v33l164 82l-20 972l-467 -1097h-115l-471 1093l-27 -968l178 -82v-33h-489z" />
<glyph unicode="N" horiz-adv-x="1671" d="M86 0v33l174 84v1116l-174 86v33h389l795 -897v782l-234 82v33h549v-33l-172 -84v-1245h-127l-883 987v-860l234 -84v-33h-551z" />
<glyph unicode="O" horiz-adv-x="1615" d="M100 676q0 301 202 498.5t505 197.5q305 0 507 -197.5t202 -498.5t-202 -498.5t-507 -197.5q-303 0 -505 197.5t-202 498.5zM426 741q0 -297 121 -476t293 -179q156 0 252 143.5t96 384.5q0 297 -118 475.5t-290 178.5q-154 0 -254 -142.5t-100 -384.5z" />
<glyph unicode="P" horiz-adv-x="1400" d="M90 0v33l174 84v1118l-174 84v33h709q242 0 388 -87t146 -278q0 -172 -167 -278.5t-416 -106.5h-177v-485l209 -84v-33h-692zM573 702h99q164 0 256 76t92 191q0 143 -94.5 206.5t-266.5 63.5h-86v-537z" />
<glyph unicode="Q" horiz-adv-x="1615" d="M100 676q0 301 202 498.5t505 197.5q305 0 507 -197.5t202 -498.5q0 -240 -130.5 -417t-343.5 -245q170 -143 283 -195t203 -52q45 0 78.5 6t56.5 12v-47q-45 -23 -108.5 -39t-149.5 -16q-143 0 -307 61t-396 242q-264 35 -433 225t-169 465zM426 741q0 -297 121 -476 t293 -179q156 0 252 143.5t96 384.5q0 297 -118 475.5t-290 178.5q-154 0 -254 -142.5t-100 -384.5z" />
<glyph unicode="R" horiz-adv-x="1488" d="M90 0v33l174 84v1118l-174 84v33h701q215 0 338.5 -89t123.5 -245q0 -113 -75.5 -194t-198.5 -128l379 -581l147 -82v-33h-444l-379 627h-109v-508l154 -86v-33h-637zM573 727h95q127 0 200.5 71.5t73.5 186.5q0 254 -287 254h-82v-512z" />
<glyph unicode="S" horiz-adv-x="1171" d="M96 430h37l146 -252q117 -94 251 -94q111 0 180.5 52t69.5 155q0 104 -73.5 157.5t-266.5 139.5q-145 63 -223 150t-78 220q0 111 72 205t184.5 151.5t235.5 57.5q207 0 379 -94l20 -328h-35l-143 232q-53 41 -103.5 62.5t-113.5 21.5q-84 0 -139.5 -53.5t-55.5 -141.5 q0 -84 60.5 -138t210.5 -122q186 -86 274 -176t88 -238q0 -199 -161.5 -308t-356.5 -109q-135 0 -238.5 27.5t-199.5 76.5z" />
<glyph unicode="T" horiz-adv-x="1435" d="M74 901v451h1288v-451h-33l-164 338h-293v-1122l218 -84v-33h-744v33l217 84v1122h-293l-164 -338h-32z" />
<glyph unicode="U" horiz-adv-x="1716" d="M90 1319v33h662v-33l-177 -84v-655q0 -254 114 -350.5t278 -96.5q135 0 237.5 85t102.5 290v731l-193 80v33h512v-33l-176 -82v-655q0 -332 -162 -467t-422 -135q-268 0 -434 135t-166 467v653z" />
<glyph unicode="V" horiz-adv-x="1564" d="M39 1319v33h639v-33l-168 -80l364 -838h17l360 840l-166 78v33h439v-33l-119 -66l-557 -1263h-119l-545 1249z" />
<glyph unicode="W" horiz-adv-x="2134" d="M25 1319v33h645v-33l-172 -78l235 -788h10l357 909h121l354 -909h10l238 786l-176 80v33h462v-33l-137 -74l-401 -1255h-119l-367 909h-14l-377 -909h-119l-393 1247z" />
<glyph unicode="X" horiz-adv-x="1597" d="M53 0v33l162 82l426 522l-428 606l-135 76v33h676v-33l-162 -80v-10l278 -385l308 385v8l-160 82v33h481v-33l-137 -72l-418 -506l455 -626l145 -82v-33h-686v33l148 78v8l-291 413l-330 -411l-4 -8l164 -80v-33h-492z" />
<glyph unicode="Y" horiz-adv-x="1544" d="M41 1319v33h633v-33l-154 -76v-8l357 -481l319 477v8l-158 80v33h467v-33l-137 -68l-432 -618v-516l182 -84v-33h-676v33l185 84v514l-447 608z" />
<glyph unicode="Z" horiz-adv-x="1435" d="M172 0v66l698 1173h-489l-152 -305h-32v418h1044v-66l-702 -1173h530l162 325h33v-438h-1092z" />
<glyph unicode="[" horiz-adv-x="536" d="M121 -307v1823h381v-54h-238v-1716h238v-53h-381z" />
<glyph unicode="\" horiz-adv-x="512" d="M0 1536h102l410 -1782h-102z" />
<glyph unicode="]" horiz-adv-x="536" d="M35 -254h237v1716h-237v54h381v-1823h-381v53z" />
<glyph unicode="^" d="M143 512l379 860h103l379 -860h-125l-306 692l-305 -692h-125z" />
<glyph unicode="_" horiz-adv-x="1024" d="M51 -184h922v-103h-922v103z" />
<glyph unicode="`" horiz-adv-x="1024" d="M313 1448h226l170 -363h-45l-269 222q-82 66 -82 141z" />
<glyph unicode="a" horiz-adv-x="1052" d="M70 217q0 111 67.5 175.5t261.5 113.5l193 47v127q0 78 -47 125t-121 47q-123 0 -123 -115v-94l-8 -8h-135q-55 0 -56 63q0 88 131 168q141 88 279 88q152 0 260.5 -61.5t108.5 -200.5v-540q33 -33 98 -33h59l6 -6v-29q-23 -39 -77 -71.5t-140 -32.5q-166 0 -223 139h-12 q-51 -57 -123 -97t-160 -40q-99 0 -171 60q-68 57 -68 163v12zM340 274q0 -129 135 -129q55 0 117 25v301q-154 -33 -203 -77t-49 -120z" />
<glyph unicode="b" horiz-adv-x="1191" d="M53 1399v24l393 113h25v-705h12q141 123 295 123q137 0 239.5 -119.5t102.5 -328.5q0 -246 -143 -386t-338 -140q-180 0 -299 77l-131 -65h-25v1311zM471 154q59 -68 154 -68q76 0 142.5 76t66.5 293q0 170 -70 250.5t-156 80.5q-66 0 -137 -41v-591z" />
<glyph unicode="c" horiz-adv-x="991" d="M78 424q0 233 141 381.5t373 148.5q205 0 291 -100q32 -38 32 -60q0 -26 -26 -51l-96 -81h-15l-71 100q-35 47 -70 74.5t-92 27.5q-94 0 -142.5 -93t-48.5 -249q0 -133 70 -227t231 -94q57 0 123 14t135 49h7v-33q-51 -109 -155 -180t-245 -71q-199 0 -320.5 121.5 t-121.5 322.5z" />
<glyph unicode="d" horiz-adv-x="1193" d="M66 399q0 256 135 405.5t346 149.5q98 0 170 -18v367l-142 98v22l404 113h25v-1444l143 -59v-33h-410l-16 102h-14q-145 -122 -297 -122q-137 0 -240.5 112.5t-103.5 306.5zM354 463q0 -164 70 -240t156 -76q66 0 137 41v594q-57 63 -139 64q-90 0 -157 -78t-67 -305z " />
<glyph unicode="e" horiz-adv-x="1015" d="M78 424q0 233 147.5 381.5t358.5 148.5q166 0 258 -110.5t94 -313.5l-8 -10h-574v-10q0 -129 75 -219t245 -90q59 0 123.5 14t134.5 49h6v-33q-51 -109 -157 -180t-249 -71q-211 0 -332.5 121.5t-121.5 322.5zM360 612h347q-14 139 -58 194.5t-112 55.5q-147 0 -177 -250 z" />
<glyph unicode="f" horiz-adv-x="759" d="M55 842v92h156v63q0 94 84 221.5t210 222.5t253 95q45 0 86 -20q49 -27 49 -54q0 -14 -12 -39l-54 -110h-18l-39 16q-70 35 -127 35q-90 0 -116.5 -68.5t-26.5 -234.5v-127h241v-92h-241v-746l157 -63v-33h-583v33l137 65v744h-156z" />
<glyph unicode="g" horiz-adv-x="1107" d="M92 -272q0 66 37 127l129 82v10q-158 51 -158 203q0 94 58 153l116 68v12q-141 94 -141 250q0 137 112.5 228t280.5 91q125 0 207 -41l316 21v-123l-205 16l-8 -8q82 -76 82 -184q0 -137 -113 -229.5t-279 -92.5q-96 0 -178 33q-45 -29 -45 -80q0 -98 158 -98h225 q313 0 313 -279q0 -141 -143 -260t-393 -119q-199 0 -285 62.5t-86 157.5zM266 -233q0 -80 55.5 -132.5t161.5 -52.5q131 0 207 60.5t76 142.5q0 78 -41 108.5t-143 30.5h-176q-31 0 -60 2q-80 -50 -80 -159zM381 639q0 -240 160 -240q66 0 99.5 62.5t33.5 165.5 q0 117 -43 179t-111 62q-70 0 -104.5 -63.5t-34.5 -165.5z" />
<glyph unicode="h" horiz-adv-x="1265" d="M63 0v33l138 65v1205l-131 96v24l393 113h24v-733h9q74 72 143.5 111.5t163.5 39.5q125 0 203.5 -63.5t78.5 -188.5v-604l138 -65v-33h-529v33l103 63v522q0 72 -42 110t-106 38q-94 0 -162 -55v-615l105 -63v-33h-529z" />
<glyph unicode="i" horiz-adv-x="681" d="M68 0v33l137 65v623l-131 96v25l395 112h25v-856l120 -65v-33h-546zM195 1305q0 66 42 107.5t107 41.5q66 0 108 -42t42 -107q0 -63 -42 -105.5t-108 -42.5t-107.5 42t-41.5 106z" />
<glyph unicode="j" horiz-adv-x="675" d="M72 -434q82 68 105.5 131t23.5 188v836l-129 96v25l393 112h24v-905q0 -186 -84.5 -298.5t-332.5 -221.5v37zM190 1305q0 66 42 107.5t108 41.5t107.5 -42t41.5 -107q0 -63 -41.5 -105.5t-107.5 -42.5t-108 42t-42 106z" />
<glyph unicode="k" horiz-adv-x="1234" d="M63 0v33l138 65v1205l-131 96v24l393 113h24v-1001l308 280v12l-101 74v33h434v-33l-131 -72l-278 -219l375 -508l131 -69v-33h-400l-63 106l-275 383v-393l134 -63v-33h-558z" />
<glyph unicode="l" horiz-adv-x="667" d="M59 0v33l138 65v1205l-131 96v24l395 113h24v-1438l121 -65v-33h-547z" />
<glyph unicode="m" horiz-adv-x="1845" d="M63 0v33l138 65v623l-131 84v24l372 125h25l18 -151h11q72 72 139 111.5t162 39.5q219 0 266 -172h8q78 82 148.5 127t171.5 45q121 0 198.5 -63.5t77.5 -188.5v-604l135 -65v-33h-528v33l104 65v520q0 147 -143 148q-98 0 -162 -64v-604l103 -65v-33h-492v33l100 65v520 q0 147 -143 148q-88 0 -154 -53v-615l99 -65v-33h-523z" />
<glyph unicode="n" horiz-adv-x="1265" d="M63 0v33l138 65v623l-131 84v24l372 125h25l18 -151h11q74 72 143.5 111.5t163.5 39.5q125 0 203.5 -63.5t78.5 -188.5v-604l138 -65v-33h-529v33l103 65v520q0 72 -42 110t-106 38q-94 0 -162 -55v-613l105 -65v-33h-529z" />
<glyph unicode="o" horiz-adv-x="1120" d="M72 467q0 201 136 344t353 143t352.5 -143t135.5 -344t-135.5 -344t-352.5 -143t-353 143t-136 344zM367 510q0 -168 52 -299t165 -131q88 0 129 104.5t41 241.5q0 168 -49.5 299t-161.5 131q-92 0 -134 -104.5t-42 -241.5z" />
<glyph unicode="p" horiz-adv-x="1206" d="M63 -438l138 65v1082l-131 96v24l372 125h25l16 -125h13q143 125 299 125q137 0 239.5 -119.5t102.5 -328.5q0 -246 -142.5 -386t-332.5 -140q-100 0 -175 20v-373l160 -65v-33h-584v33zM487 154q59 -68 162 -68q74 0 137.5 73.5t63.5 286.5q0 176 -69.5 258t-155.5 82 q-66 0 -138 -41v-591z" />
<glyph unicode="q" horiz-adv-x="1187" d="M70 399q0 256 140 405.5t359 149.5q137 0 248 -51l166 51h25v-1327l135 -65v-33h-584v33l160 61v475h-14q-140 -118 -289 -118h-2q-139 0 -241.5 112.5t-102.5 306.5zM358 461q0 -162 69 -238t155 -76q61 0 137 41v535q0 45 -3 59.5t-16 24.5q-45 39 -127 39 q-90 0 -152.5 -79t-62.5 -306z" />
<glyph unicode="r" horiz-adv-x="870" d="M68 0v33l135 65v611l-129 96v24l372 125h25l18 -184h11q76 119 127 151.5t110 32.5q31 0 76 -16q61 -18 61 -57q0 -18 -8 -35l-49 -133h-14l-53 18q-53 18 -109 19q-86 0 -149 -80v-572l165 -65v-33h-589z" />
<glyph unicode="s" horiz-adv-x="894" d="M106 53v238h31l72 -107q75 -114 209 -114h2q160 0 160 116q0 63 -51.5 96t-182.5 87q-225 92 -225 268q0 133 100.5 225t251.5 92q145 0 266 -61v-244h-30l-64 96q-78 117 -178 117q-137 0 -137 -117q0 -53 42 -86.5t167 -83.5q86 -35 165.5 -88t79.5 -198t-109.5 -227 t-246.5 -82q-100 0 -175 19t-147 54z" />
<glyph unicode="t" horiz-adv-x="790" d="M20 842v28l189 64l207 225h39v-225h284v-92h-284v-609q0 -53 45 -77.5t106 -24.5q39 0 69 5t58 11l6 -4v-34q-35 -49 -112.5 -89t-173.5 -40q-125 0 -205 53t-80 149v660h-148z" />
<glyph unicode="u" horiz-adv-x="1208" d="M31 901v33h424v-619q0 -147 145 -147q92 0 156 53v615l-123 65v33h411v-838l130 -63v-33h-418v131h-8q-72 -72 -140 -111.5t-162 -39.5q-123 0 -201.5 63t-78.5 188v605z" />
<glyph unicode="v" horiz-adv-x="974" d="M-74 901v33h580v-33l-141 -59v-6l213 -457h8l188 448v9l-129 65v33h404v-33l-146 -70l-383 -831h-78l-389 846z" />
<glyph unicode="w" horiz-adv-x="1490" d="M-74 901v33h580v-33l-141 -59v-6l172 -457h10l235 555h78l246 -553h8l176 446v9l-129 65v33h402v-33l-144 -70l-360 -831h-78l-252 555l-260 -555h-78l-338 846z" />
<glyph unicode="x" horiz-adv-x="1124" d="M37 0v33l106 63l283 332l-297 418l-92 55v33h557v-33l-115 -53v-12l156 -220l160 207v13l-105 65v33h367v-33l-109 -63l-256 -303l316 -447l84 -55v-33h-545v33l112 53v12l-178 250l-178 -237v-13l113 -65v-33h-379z" />
<glyph unicode="y" horiz-adv-x="974" d="M-74 901v33h566v-33l-127 -59v-6l225 -474h14l174 465v9l-121 65v33h392v-33l-146 -67l-409 -996q-29 -72 -46.5 -110.5t-62.5 -102.5q-41 -59 -101.5 -89t-113.5 -30q-47 0 -58.5 13.5t-11.5 46.5v141l11 10h92q76 0 116.5 21.5t88.5 130.5l53 129l-408 848z" />
<glyph unicode="z" horiz-adv-x="1028" d="M104 614l23 340h10q29 -8 71 -14t77 -6h616v-41l-442 -797h325l95 238h39v-334h-812v41l443 797h-295l-111 -224h-39z" />
<glyph unicode="{" horiz-adv-x="536" d="M-2 580v51h51q100 0 138 52t38 118q0 104 -49 209.5t-49 232.5q0 121 77 197t247 76h51v-54h-56q-90 0 -133 -50t-43 -132q0 -121 44 -224.5t44 -209.5q0 -76 -42 -139.5t-146 -102.5q104 -39 146 -102.5t42 -139.5q0 -106 -44 -209.5t-44 -224.5q0 -82 43 -132t133 -50 h56v-53h-51q-170 0 -247 75.5t-77 196.5q0 127 49 232.5t49 210.5q0 68 -37.5 120t-138.5 52h-51z" />
<glyph unicode="|" horiz-adv-x="512" d="M205 -512v2048h102v-2048h-102z" />
<glyph unicode="}" horiz-adv-x="536" d="M35 -254h55q90 0 133 50t43 132q0 121 -44 224.5t-44 209.5q0 76 43 139.5t146 102.5q-102 39 -145.5 102.5t-43.5 139.5q0 106 44 209.5t44 224.5q0 82 -43 132t-133 50h-55v54h51q170 0 247 -76t77 -197q0 -127 -49.5 -232.5t-49.5 -209.5q0 -66 38 -118t138 -52h52 v-51h-52q-100 0 -138 -52.5t-38 -119.5q0 -104 49.5 -210t49.5 -233q0 -121 -77 -196.5t-247 -75.5h-51v53z" />
<glyph unicode="~" d="M143 412q0 137 63.5 213.5t170.5 76.5q98 0 161.5 -46t117 -91t120.5 -45q115 0 115 182h113q0 -291 -234 -290q-98 0 -161.5 46t-117 91t-118.5 45q-117 0 -117 -182h-113z" />
<glyph unicode="&#xa1;" horiz-adv-x="550" d="M115 -408l129 906h65l127 -906h-321zM123 803q0 61 45 106t108 45q61 0 106.5 -45t45.5 -106q0 -63 -45.5 -108.5t-106.5 -45.5q-63 0 -108 45t-45 109z" />
<glyph unicode="&#xa2;" d="M135 635q0 231 142.5 379.5t373.5 148.5h15l34 137h95l-37 -147q125 -23 184 -90q31 -37 31 -62q0 -27 -25 -49l-96 -80h-14l-70 93q-27 37 -43 55l-143 -584q55 -20 129 -20q57 0 124.5 19.5t135.5 60.5h6v-72q-59 -100 -159.5 -168t-237.5 -68q-31 0 -58 2l-35 -137 h-94l39 156q-137 41 -217 152.5t-80 273.5zM418 731q0 -164 82 -244l143 580q-16 4 -37 4q-94 0 -141 -92t-47 -248z" />
<glyph unicode="&#xa3;" d="M102 639v90h162q-29 61 -52.5 125t-23.5 121q0 158 124 277.5t317 119.5q129 0 213 -40t125 -89q33 -39 32 -61q0 -29 -26 -49l-119 -89h-14l-29 54q-35 66 -73 121t-111 55q-80 0 -117 -55.5t-37 -126.5q0 -74 49 -170.5t92 -192.5h285v-90h-250q16 -51 17 -90 q0 -104 -77 -177t-227 -143h533l61 199h74l-20 -428h-899v119q156 125 201.5 199.5t45.5 154.5q0 35 -14 78t-37 88h-205z" />
<glyph unicode="&#xa4;" d="M141 205l160 160q-61 92 -61 192t61 193l-160 159l84 82l160 -160q86 59 188 60q109 0 191 -60l160 160l84 -82l-160 -159q61 -92 61 -193q0 -100 -61 -192l160 -160l-84 -82l-160 160q-86 -59 -191 -60q-106 0 -188 60l-160 -160zM356 557q0 -100 62.5 -164.5 t154.5 -64.5q94 0 157 64.5t63 164.5t-62.5 164.5t-157.5 64.5q-92 0 -154.5 -64.5t-62.5 -164.5z" />
<glyph unicode="&#xa5;" d="M2 1319v33h582v-33l-129 -51v-6l221 -330l190 323v7l-133 57v33h414v-33l-115 -47l-241 -367h208v-90h-268l-2 -2v-215h270v-90h-270v-391l180 -84v-33h-657v33l178 84v391h-272v90h272v215l-2 2h-270v90h207l-256 361z" />
<glyph unicode="&#xa6;" horiz-adv-x="512" d="M205 307h102v-819h-102v819zM205 717v819h102v-819h-102z" />
<glyph unicode="&#xa7;" horiz-adv-x="1095" d="M63 518q0 104 59.5 179t160.5 116q-37 35 -58.5 84t-21.5 119q0 150 124 253t318 103q100 0 162.5 -27.5t97.5 -58.5q33 -33 27 -59q-2 -14 -25 -39l-88 -82l-16 4l-29 31q-31 35 -75 82t-115 47q-70 0 -114 -38t-44 -99q0 -84 61.5 -125t151.5 -67t179 -57.5t150.5 -93 t61.5 -178.5q0 -109 -59.5 -183.5t-159.5 -115.5q43 -35 68.5 -85t25.5 -126q0 -139 -136 -244.5t-318 -105.5q-102 0 -170 29t-103 61q-35 31 -28 62q4 20 24 39l90 84l17 -2l30 -33q31 -35 85.5 -85t129.5 -50q70 0 113 36.5t43 100.5q0 84 -62.5 124t-154.5 64.5 t-184.5 57t-155 95t-62.5 183.5zM281 627q0 -92 70.5 -132t171 -63.5t192.5 -62.5q100 39 100 131q0 96 -75.5 135t-182 60.5t-197.5 66.5q-79 -45 -79 -135z" />
<glyph unicode="&#xa8;" horiz-adv-x="1024" d="M190 1264q0 49 34 83.5t85 34.5t85 -34.5t34 -83.5t-34 -84t-85 -35t-85 34.5t-34 84.5zM596 1264q0 49 34 83.5t85 34.5t85 -34.5t34 -83.5t-34 -84t-85 -35t-85 34.5t-34 84.5z" />
<glyph unicode="&#xa9;" horiz-adv-x="1650" d="M143 676q0 301 194.5 498.5t487.5 197.5t487.5 -197.5t194.5 -498.5t-194.5 -498.5t-487.5 -197.5t-487.5 197.5t-194.5 498.5zM229 676q0 -266 170 -440.5t426 -174.5t426 174.5t170 440.5t-170 440t-426 174t-426 -174t-170 -440zM420 664q0 184 134 313t323 129 q94 0 149 -17.5t113 -46.5l8 -235h-62l-88 168q-61 39 -116 39q-111 0 -182.5 -89t-71.5 -227q0 -160 69.5 -250t173.5 -90q72 0 131 29l101 158h57l-16 -211q-59 -31 -126 -50.5t-161 -19.5q-205 0 -320.5 110.5t-115.5 289.5z" />
<glyph unicode="&#xaa;" horiz-adv-x="847" d="M168 977q0 59 37 93t139 60l102 27v72q0 84 -75 84q-53 0 -54 -51v-58l-4 -4h-98q-29 0 -29 33q0 49 68 90q80 49 160 49q88 0 145 -33.5t57 -105.5v-281q18 -18 56 -18h30l5 -4v-19q-14 -23 -44 -40t-83 -17q-96 0 -125 74h-6q-68 -74 -154 -74q-53 0 -90 32t-37 91z M174 596v109h508v-109h-508zM332 1010q0 -66 67 -66q25 0 47 8v160q-68 -16 -91 -39.5t-23 -62.5z" />
<glyph unicode="&#xab;" horiz-adv-x="954" d="M53 506l416 362h39l-217 -362l217 -363h-39zM446 506l416 362h39l-217 -362l217 -363h-39z" />
<glyph unicode="&#xac;" d="M143 502v110h861v-485h-117v375h-744z" />
<glyph unicode="&#xad;" horiz-adv-x="755" d="M96 455v143h563v-143h-563z" />
<glyph unicode="&#xae;" horiz-adv-x="1130" d="M121 920q0 195 126 323.5t318 128.5q193 0 320 -129t127 -323q0 -195 -127 -325t-320 -130t-318.5 130t-125.5 325zM197 920q0 -166 102 -277t266 -111t266.5 111t102.5 277q0 164 -102.5 274.5t-266.5 110.5t-266 -111t-102 -274zM330 662v14l63 33v430l-63 32v13h245 q178 0 179 -129q0 -94 -109 -133l111 -220l53 -26v-14h-160l-108 239h-35v-192l61 -33v-14h-237zM506 948h22q45 0 76 24.5t31 71.5q0 93 -111 93h-18v-189z" />
<glyph unicode="&#xaf;" horiz-adv-x="1024" d="M215 1202v123h594v-123h-594z" />
<glyph unicode="&#xb0;" horiz-adv-x="1024" d="M246 1106q0 106 75.5 186t190.5 80t190.5 -80t75.5 -186t-75.5 -186t-190.5 -80t-190.5 79.5t-75.5 186.5zM346 1106q0 -82 48 -130t118 -48t118 48t48 130t-48 130t-118 48t-118 -48t-48 -130z" />
<glyph unicode="&#xb1;" d="M143 123v110h861v-110h-861zM143 584v110h371v293h119v-293h371v-110h-371v-273h-119v273h-371z" />
<glyph unicode="&#xb2;" horiz-adv-x="700" d="M41 1616q0 82 98 151q41 29 91.5 52.5t140.5 23.5q115 0 185.5 -60.5t70.5 -158.5q0 -59 -28 -114.5t-114 -133.5t-266 -205h342l66 121h32l-12 -258h-594v49q156 168 230.5 270.5t96 169t21.5 123.5q0 49 -20.5 86t-73.5 37q-104 0 -104 -133v-57l-8 -13h-109 q-45 0 -45 50z" />
<glyph unicode="&#xb3;" horiz-adv-x="700" d="M41 1179q0 33 12.5 40.5t34.5 7.5h102l13 -13v-30q0 -96 108 -97q63 0 93 41t30 105q0 84 -40 128t-144 44h-64v65h25q82 0 132 46t50 134q0 119 -90 119q-86 0 -86 -96v-55l-10 -13h-105q-47 0 -47 52q0 68 78 116q55 37 102.5 53.5t118.5 16.5q119 0 191.5 -50 t72.5 -138q0 -80 -69.5 -129.5t-173.5 -67.5q285 -23 284 -209q0 -102 -93 -168.5t-234 -66.5q-125 0 -211 53q-35 20 -57.5 49t-22.5 63z" />
<glyph unicode="&#xb4;" horiz-adv-x="1024" d="M313 1085l170 363h226q0 -74 -82 -141l-269 -222h-45z" />
<glyph unicode="&#xb5;" d="M135 -471v1405h287v-619q0 -72 41 -109.5t104 -37.5q92 0 158 53v713h287v-782q33 -33 98 -33h59l7 -6v-29q-23 -39 -77.5 -71.5t-137.5 -32.5q-176 0 -228 151h-16q-66 -70 -125 -110.5t-143 -40.5q-98 0 -160 57l96 -467l-246 -41h-4z" />
<glyph unicode="&#xb6;" horiz-adv-x="1054" d="M72 1053q0 156 97 227.5t255 71.5h235v-1577h-118v960h-84q-166 0 -275.5 90t-109.5 228zM770 -225v1577h293v-33l-174 -84v-1460h-119z" />
<glyph unicode="&#xb7;" horiz-adv-x="512" d="M104 557q0 61 45.5 106.5t106.5 45.5t106.5 -45.5t45.5 -106.5q0 -63 -45.5 -108.5t-106.5 -45.5t-106.5 45.5t-45.5 108.5z" />
<glyph unicode="&#xb8;" horiz-adv-x="1024" d="M322 -403h8q49 -25 116 -25q113 0 113 80q0 43 -41 73.5t-162 63.5l119 260h78l-61 -137q117 -35 163.5 -84t46.5 -131t-58.5 -135.5t-156.5 -53.5q-104 0 -165 50v39z" />
<glyph unicode="&#xb9;" horiz-adv-x="600" d="M31 1575v71l299 181h114v-717l105 -43v-33h-434v33l116 43v557z" />
<glyph unicode="&#xba;" horiz-adv-x="847" d="M154 1112q0 106 74.5 183t195.5 77t195.5 -76.5t74.5 -183.5q0 -109 -74.5 -184.5t-195.5 -75.5q-123 0 -196.5 76t-73.5 184zM174 596v109h508v-109h-508zM332 1135q0 -90 24.5 -159t77.5 -69q43 0 62.5 55.5t19.5 127.5q0 90 -24.5 158.5t-77.5 68.5q-43 0 -62.5 -56.5 t-19.5 -125.5z" />
<glyph unicode="&#xbb;" horiz-adv-x="954" d="M53 143l217 363l-217 362h39l416 -362l-416 -363h-39zM446 143l217 363l-217 362h39l416 -362l-416 -363h-39z" />
<glyph unicode="&#xbc;" horiz-adv-x="1622" d="M111 1268v71l299 181h114v-717l105 -43v-33h-434v33l116 43v557zM269 41l966 1495l93 -61l-967 -1495zM846 203v39l374 551h174v-490h144v-100h-144v-115l103 -55v-33h-434v33l116 55v115h-333zM979 303h200v309z" />
<glyph unicode="&#xbd;" horiz-adv-x="1622" d="M99 1268v71l299 181h114v-717l105 -43v-33h-434v33l116 43v557zM232 41l966 1495l93 -61l-967 -1495zM895 582q0 82 98 151q41 29 91.5 52.5t140.5 23.5q115 0 185.5 -60.5t70.5 -158.5q0 -59 -28 -114.5t-114 -133.5t-266 -205h342l66 121h32l-12 -258h-594v49 q156 168 230.5 270.5t96 169t21.5 123.5q0 49 -20.5 86t-73.5 37q-104 0 -104 -133v-57l-8 -13h-109q-45 0 -45 50z" />
<glyph unicode="&#xbe;" horiz-adv-x="1622" d="M70 872q0 33 12.5 40.5t34.5 7.5h102l13 -13v-30q0 -96 108 -97q63 0 93 41t30 105q0 84 -40 128t-144 44h-64v65h25q82 0 132 46t50 134q0 119 -90 119q-86 0 -86 -96v-55l-10 -13h-105q-47 0 -47 52q0 68 78 116q55 37 102.5 53.5t118.5 16.5q119 0 191.5 -50 t72.5 -138q0 -80 -69.5 -129.5t-173.5 -67.5q285 -23 284 -209q0 -102 -93 -168.5t-234 -66.5q-125 0 -211 53q-35 20 -57.5 49t-22.5 63zM318 41l966 1495l93 -61l-967 -1495zM895 203v39l374 551h174v-490h144v-100h-144v-115l103 -55v-33h-434v33l116 55v115h-333z M1028 303h200v309z" />
<glyph unicode="&#xbf;" horiz-adv-x="980" d="M72 -66q0 145 106.5 252t310.5 154l27 158h66l65 -328q-328 -51 -328 -276q0 -117 53.5 -175.5t135.5 -58.5q78 0 126 55.5t48 165.5v70l20 24h150q35 0 52.5 -12t17.5 -65q0 -117 -127 -211q-74 -53 -147 -84t-173 -31q-186 0 -294.5 100.5t-108.5 261.5zM399 803 q0 61 46.5 106t107.5 45t106.5 -45t45.5 -106q0 -63 -45.5 -108.5t-106.5 -45.5t-107.5 45t-46.5 109z" />
<glyph unicode="&#xc0;" horiz-adv-x="1585" d="M39 0v33l125 69l534 1260h181l528 -1256l139 -73v-33h-647v33l178 73l-139 340h-485l-140 -340l170 -73v-33h-444zM415 1765h226l170 -311h-45l-269 170q-51 33 -66.5 67.5t-15.5 73.5zM500 559h391l-195 477z" />
<glyph unicode="&#xc1;" horiz-adv-x="1585" d="M39 0v33l125 69l534 1260h181l528 -1256l139 -73v-33h-647v33l178 73l-139 340h-485l-140 -340l170 -73v-33h-444zM500 559h391l-195 477zM766 1454l170 311h226q0 -39 -16.5 -74.5t-65.5 -66.5l-269 -170h-45z" />
<glyph unicode="&#xc2;" horiz-adv-x="1585" d="M39 0v33l125 69l534 1260h181l528 -1256l139 -73v-33h-647v33l178 73l-139 340h-485l-140 -340l170 -73v-33h-444zM463 1454l279 311h98l279 -311h-45l-283 131l-283 -131h-45zM500 559h391l-195 477z" />
<glyph unicode="&#xc3;" horiz-adv-x="1585" d="M39 0v33l125 69l534 1260h181l528 -1256l139 -73v-33h-647v33l178 73l-139 340h-485l-140 -340l170 -73v-33h-444zM453 1479q51 156 100.5 207t112.5 51q90 0 162 -54.5t139 -54.5q33 0 60.5 19.5t56.5 89.5h45q-49 -156 -99.5 -207t-113.5 -51q-90 0 -162 54t-139 54 q-33 0 -60.5 -19.5t-56.5 -88.5h-45zM500 559h391l-195 477z" />
<glyph unicode="&#xc4;" horiz-adv-x="1585" d="M39 0v33l125 69l534 1260h181l528 -1256l139 -73v-33h-647v33l178 73l-139 340h-485l-140 -340l170 -73v-33h-444zM469 1608q0 51 34 86t85 35t85 -35t34 -86q0 -49 -34 -84t-85 -35t-85 35t-34 84zM500 559h391l-195 477zM875 1608q0 51 34 86t85 35t85 -35t34 -86 q0 -49 -34 -84t-85 -35t-85 35t-34 84z" />
<glyph unicode="&#xc5;" horiz-adv-x="1585" d="M39 0v33l125 69l534 1260h181l528 -1256l139 -73v-33h-647v33l178 73l-139 340h-485l-140 -340l170 -73v-33h-444zM500 559h391l-195 477zM609 1628q0 74 51 124t131 50q82 0 132 -50t50 -124q0 -76 -50 -125t-132 -49q-80 0 -131 49t-51 125zM721 1640q0 -135 78 -135 q61 0 62 109q0 137 -78 137q-61 0 -62 -111z" />
<glyph unicode="&#xc6;" horiz-adv-x="2107" d="M35 0v33l133 71l782 1248h969v-355h-33l-151 242h-449v-485h316l114 176h33v-461h-33l-114 172h-316v-528h496l162 305h32v-418h-1175v33l176 84v354h-432l-230 -367l162 -71v-33h-442zM614 584h363v583z" />
<glyph unicode="&#xc7;" horiz-adv-x="1456" d="M100 647q0 205 105.5 369t277.5 260t367 96q162 0 249 -27.5t175 -70.5l22 -383h-36l-195 317q-98 61 -205 62q-188 0 -313 -165t-125 -437q0 -268 121 -424t299 -156q76 0 136 19.5t116 50.5l184 274h35l-29 -346q-80 -47 -190.5 -75.5t-247.5 -30.5l-31 -68 q117 -35 164 -85t47 -130q0 -82 -58.5 -135.5t-156.5 -53.5q-106 0 -166 50v39h6q49 -25 117 -25q113 0 113 80q0 43 -40 73.5t-161 63.5l88 193q-303 14 -485.5 202.5t-182.5 462.5z" />
<glyph unicode="&#xc8;" horiz-adv-x="1394" d="M90 0v33l174 84v1118l-174 84v33h1116v-355h-32l-152 242h-449v-485h316l115 176h32v-461h-32l-115 172h-316v-528h498l160 305h33v-418h-1174zM350 1765h226l170 -311h-45l-269 170q-51 33 -66.5 67.5t-15.5 73.5z" />
<glyph unicode="&#xc9;" horiz-adv-x="1394" d="M90 0v33l174 84v1118l-174 84v33h1116v-355h-32l-152 242h-449v-485h316l115 176h32v-461h-32l-115 172h-316v-528h498l160 305h33v-418h-1174zM700 1454l170 311h226q0 -39 -16.5 -74.5t-65.5 -66.5l-269 -170h-45z" />
<glyph unicode="&#xca;" horiz-adv-x="1394" d="M90 0v33l174 84v1118l-174 84v33h1116v-355h-32l-152 242h-449v-485h316l115 176h32v-461h-32l-115 172h-316v-528h498l160 305h33v-418h-1174zM397 1454l279 311h98l279 -311h-45l-283 131l-283 -131h-45z" />
<glyph unicode="&#xcb;" horiz-adv-x="1394" d="M90 0v33l174 84v1118l-174 84v33h1116v-355h-32l-152 242h-449v-485h316l115 176h32v-461h-32l-115 172h-316v-528h498l160 305h33v-418h-1174zM403 1608q0 51 34 86t85 35t85 -35t34 -86q0 -49 -34 -84t-85 -35t-85 35t-34 84zM809 1608q0 51 34 86t85 35t85 -35t34 -86 q0 -49 -34 -84t-85 -35t-85 35t-34 84z" />
<glyph unicode="&#xcc;" horiz-adv-x="845" d="M49 1765h226l170 -311h-45l-269 170q-51 33 -66.5 67.5t-15.5 73.5zM94 0v33l174 84v1118l-174 84v33h658v-33l-174 -84v-1118l174 -84v-33h-658z" />
<glyph unicode="&#xcd;" horiz-adv-x="845" d="M94 0v33l174 84v1118l-174 84v33h658v-33l-174 -84v-1118l174 -84v-33h-658zM399 1454l170 311h226q0 -39 -16.5 -74.5t-65.5 -66.5l-269 -170h-45z" />
<glyph unicode="&#xce;" horiz-adv-x="845" d="M94 0v33l174 84v1118l-174 84v33h658v-33l-174 -84v-1118l174 -84v-33h-658zM96 1454l279 311h98l279 -311h-45l-283 131l-283 -131h-45z" />
<glyph unicode="&#xcf;" horiz-adv-x="845" d="M94 0v33l174 84v1118l-174 84v33h658v-33l-174 -84v-1118l174 -84v-33h-658zM102 1608q0 51 34 86t85 35t85 -35t34 -86q0 -49 -34 -84t-85 -35t-85 35t-34 84zM508 1608q0 51 34 86t85 35t85 -35t34 -86q0 -49 -34 -84t-85 -35t-85 35t-34 84z" />
<glyph unicode="&#xd0;" horiz-adv-x="1642" d="M90 0v33l174 84v530h-174v109h174v479l-174 84v33h698q365 0 563.5 -175.5t198.5 -439.5q0 -213 -101 -380t-276.5 -262t-398.5 -95h-684zM573 113h160q238 0 367 152.5t129 408.5q0 258 -132 411.5t-392 153.5h-132v-483h310v-109h-310v-534z" />
<glyph unicode="&#xd1;" horiz-adv-x="1671" d="M86 0v33l174 84v1116l-174 86v33h389l795 -897v782l-234 82v33h549v-33l-172 -84v-1245h-127l-883 987v-860l234 -84v-33h-551zM508 1479q51 156 100.5 207t112.5 51q90 0 162 -54.5t139 -54.5q33 0 60.5 19.5t56.5 89.5h45q-49 -156 -99.5 -207t-113.5 -51 q-90 0 -162 54t-139 54q-33 0 -60.5 -19.5t-56.5 -88.5h-45z" />
<glyph unicode="&#xd2;" horiz-adv-x="1615" d="M100 676q0 301 202 498.5t505 197.5q305 0 507 -197.5t202 -498.5t-202 -498.5t-507 -197.5q-303 0 -505 197.5t-202 498.5zM424 1765h226l170 -311h-45l-269 170q-51 33 -66.5 67.5t-15.5 73.5zM426 741q0 -297 121 -476t293 -179q156 0 252 143.5t96 384.5 q0 297 -118 475.5t-290 178.5q-154 0 -254 -142.5t-100 -384.5z" />
<glyph unicode="&#xd3;" horiz-adv-x="1615" d="M100 676q0 301 202 498.5t505 197.5q305 0 507 -197.5t202 -498.5t-202 -498.5t-507 -197.5q-303 0 -505 197.5t-202 498.5zM426 741q0 -297 121 -476t293 -179q156 0 252 143.5t96 384.5q0 297 -118 475.5t-290 178.5q-154 0 -254 -142.5t-100 -384.5zM774 1454l170 311 h226q0 -39 -16.5 -74.5t-65.5 -66.5l-269 -170h-45z" />
<glyph unicode="&#xd4;" horiz-adv-x="1615" d="M100 676q0 301 202 498.5t505 197.5q305 0 507 -197.5t202 -498.5t-202 -498.5t-507 -197.5q-303 0 -505 197.5t-202 498.5zM426 741q0 -297 121 -476t293 -179q156 0 252 143.5t96 384.5q0 297 -118 475.5t-290 178.5q-154 0 -254 -142.5t-100 -384.5zM471 1454l279 311 h98l279 -311h-45l-283 131l-283 -131h-45z" />
<glyph unicode="&#xd5;" horiz-adv-x="1615" d="M100 676q0 301 202 498.5t505 197.5q305 0 507 -197.5t202 -498.5t-202 -498.5t-507 -197.5q-303 0 -505 197.5t-202 498.5zM426 741q0 -297 121 -476t293 -179q156 0 252 143.5t96 384.5q0 297 -118 475.5t-290 178.5q-154 0 -254 -142.5t-100 -384.5zM461 1479 q51 156 100.5 207t112.5 51q90 0 162 -54.5t139 -54.5q33 0 60.5 19.5t56.5 89.5h45q-49 -156 -99.5 -207t-113.5 -51q-90 0 -162 54t-139 54q-33 0 -60.5 -19.5t-56.5 -88.5h-45z" />
<glyph unicode="&#xd6;" horiz-adv-x="1615" d="M100 676q0 301 202 498.5t505 197.5q305 0 507 -197.5t202 -498.5t-202 -498.5t-507 -197.5q-303 0 -505 197.5t-202 498.5zM426 741q0 -297 121 -476t293 -179q156 0 252 143.5t96 384.5q0 297 -118 475.5t-290 178.5q-154 0 -254 -142.5t-100 -384.5zM477 1608 q0 51 34 86t85 35t85 -35t34 -86q0 -49 -34 -84t-85 -35t-85 35t-34 84zM883 1608q0 51 34 86t85 35t85 -35t34 -86q0 -49 -34 -84t-85 -35t-85 35t-34 84z" />
<glyph unicode="&#xd7;" d="M193 260l299 299l-299 297l81 86l299 -299l301 299l82 -86l-299 -297l299 -299l-82 -84l-301 299l-299 -299z" />
<glyph unicode="&#xd8;" horiz-adv-x="1615" d="M100 -20l191 208q-190 197 -191 488q0 301 202 498.5t505 197.5q246 0 432 -133l121 133h156l-191 -209q190 -197 191 -487q0 -301 -202 -498.5t-507 -197.5q-246 0 -430 135l-123 -135h-154zM426 741q0 -190 55 -342l602 668q-117 201 -303 201q-154 0 -254 -142.5 t-100 -384.5zM532 287q120 -201 308 -201q156 0 252 143.5t96 384.5q0 188 -53 338z" />
<glyph unicode="&#xd9;" horiz-adv-x="1716" d="M90 1319v33h662v-33l-177 -84v-655q0 -254 114 -350.5t278 -96.5q135 0 237.5 85t102.5 290v731l-193 80v33h512v-33l-176 -82v-655q0 -332 -162 -467t-422 -135q-268 0 -434 135t-166 467v653zM561 1765h226l170 -311h-45l-269 170q-51 33 -66.5 67.5t-15.5 73.5z" />
<glyph unicode="&#xda;" horiz-adv-x="1716" d="M90 1319v33h662v-33l-177 -84v-655q0 -254 114 -350.5t278 -96.5q135 0 237.5 85t102.5 290v731l-193 80v33h512v-33l-176 -82v-655q0 -332 -162 -467t-422 -135q-268 0 -434 135t-166 467v653zM911 1454l170 311h226q0 -39 -16.5 -74.5t-65.5 -66.5l-269 -170h-45z" />
<glyph unicode="&#xdb;" horiz-adv-x="1716" d="M90 1319v33h662v-33l-177 -84v-655q0 -254 114 -350.5t278 -96.5q135 0 237.5 85t102.5 290v731l-193 80v33h512v-33l-176 -82v-655q0 -332 -162 -467t-422 -135q-268 0 -434 135t-166 467v653zM606 1454l279 311h98l279 -311h-45l-283 131l-283 -131h-45z" />
<glyph unicode="&#xdc;" horiz-adv-x="1716" d="M90 1319v33h662v-33l-177 -84v-655q0 -254 114 -350.5t278 -96.5q135 0 237.5 85t102.5 290v731l-193 80v33h512v-33l-176 -82v-655q0 -332 -162 -467t-422 -135q-268 0 -434 135t-166 467v653zM614 1608q0 51 34 86t85 35t85 -35t34 -86q0 -49 -34 -84t-85 -35t-85 35 t-34 84zM1020 1608q0 51 34 86t85 35t85 -35t34 -86q0 -49 -34 -84t-85 -35t-85 35t-34 84z" />
<glyph unicode="&#xdd;" horiz-adv-x="1544" d="M41 1319v33h633v-33l-154 -76v-8l357 -481l319 477v8l-158 80v33h467v-33l-137 -68l-432 -618v-516l182 -84v-33h-676v33l185 84v514l-447 608zM827 1454l170 311h226q0 -39 -16.5 -74.5t-65.5 -66.5l-269 -170h-45z" />
<glyph unicode="&#xde;" horiz-adv-x="1400" d="M90 0v33l174 84v1118l-174 84v33h658v-33l-175 -84v-145h226q242 0 388 -87.5t146 -277.5q0 -174 -167 -279.5t-416 -105.5h-177v-223l175 -84v-33h-658zM573 438h99q164 0 256 76t92 191q0 143 -94.5 206.5t-266.5 63.5h-86v-537z" />
<glyph unicode="&#xdf;" horiz-adv-x="1378" d="M59 838v96h160v49q0 209 145.5 381t409.5 172q205 0 303.5 -80t98.5 -190q0 -86 -42 -142.5t-98.5 -100.5t-98.5 -94t-42 -126t69.5 -119t170.5 -113q106 -76 142 -141t36 -147q0 -131 -105.5 -217t-251.5 -86q-100 0 -172.5 19t-144.5 54v238h33l71 -107 q74 -115 191 -114q152 0 151 133q0 80 -66.5 123t-164.5 102q-68 43 -115 99.5t-47 154.5q0 111 57.5 175.5t114 141t56.5 224.5q0 94 -47.5 155.5t-141.5 61.5q-125 0 -174 -89t-49 -241v-1110h-418v33l129 65v740h-160z" />
<glyph unicode="&#xe0;" horiz-adv-x="1052" d="M70 217q0 111 67.5 175.5t261.5 113.5l193 47v127q0 78 -47 125t-121 47q-123 0 -123 -115v-94l-8 -8h-135q-55 0 -56 63q0 88 131 168q141 88 279 88q152 0 260.5 -61.5t108.5 -200.5v-540q33 -33 98 -33h59l6 -6v-29q-23 -39 -77 -71.5t-140 -32.5q-166 0 -223 139h-12 q-51 -57 -123 -97t-160 -40q-100 0 -171.5 60t-67.5 175zM129 1448h226l170 -363h-45l-269 222q-82 66 -82 141zM340 274q0 -129 135 -129q55 0 117 25v301q-154 -33 -203 -77t-49 -120z" />
<glyph unicode="&#xe1;" horiz-adv-x="1052" d="M70 217q0 111 67.5 175.5t261.5 113.5l193 47v127q0 78 -47 125t-121 47q-123 0 -123 -115v-94l-8 -8h-135q-55 0 -56 63q0 88 131 168q141 88 279 88q152 0 260.5 -61.5t108.5 -200.5v-540q33 -33 98 -33h59l6 -6v-29q-23 -39 -77 -71.5t-140 -32.5q-166 0 -223 139h-12 q-51 -57 -123 -97t-160 -40q-100 0 -171.5 60t-67.5 175zM340 274q0 -129 135 -129q55 0 117 25v301q-154 -33 -203 -77t-49 -120zM481 1085l170 363h226q0 -74 -82 -141l-269 -222h-45z" />
<glyph unicode="&#xe2;" horiz-adv-x="1052" d="M70 217q0 111 67.5 175.5t261.5 113.5l193 47v127q0 78 -47 125t-121 47q-123 0 -123 -115v-94l-8 -8h-135q-55 0 -56 63q0 88 131 168q141 88 279 88q152 0 260.5 -61.5t108.5 -200.5v-540q33 -33 98 -33h59l6 -6v-29q-23 -39 -77 -71.5t-140 -32.5q-166 0 -223 139h-12 q-51 -57 -123 -97t-160 -40q-100 0 -171.5 60t-67.5 175zM174 1085l279 363h98l279 -363h-45l-283 170l-283 -170h-45zM340 274q0 -129 135 -129q55 0 117 25v301q-154 -33 -203 -77t-49 -120z" />
<glyph unicode="&#xe3;" horiz-adv-x="1052" d="M70 217q0 111 67.5 175.5t261.5 113.5l193 47v127q0 78 -47 125t-121 47q-123 0 -123 -115v-94l-8 -8h-135q-55 0 -56 63q0 88 131 168q141 88 279 88q152 0 260.5 -61.5t108.5 -200.5v-540q33 -33 98 -33h59l6 -6v-29q-23 -39 -77 -71.5t-140 -32.5q-166 0 -223 139h-12 q-51 -57 -123 -97t-160 -40q-100 0 -171.5 60t-67.5 175zM164 1126q59 182 106.5 230.5t112.5 48.5q84 0 157 -63.5t132 -63.5q37 0 63.5 23.5t59.5 103.5h45q-59 -182 -106.5 -230.5t-112.5 -48.5q-84 0 -157 63.5t-132 63.5q-37 0 -63.5 -23.5t-59.5 -103.5h-45zM340 274 q0 -129 135 -129q55 0 117 25v301q-154 -33 -203 -77t-49 -120z" />
<glyph unicode="&#xe4;" horiz-adv-x="1052" d="M70 217q0 111 67.5 175.5t261.5 113.5l193 47v127q0 78 -47 125t-121 47q-123 0 -123 -115v-94l-8 -8h-135q-55 0 -56 63q0 88 131 168q141 88 279 88q152 0 260.5 -61.5t108.5 -200.5v-540q33 -33 98 -33h59l6 -6v-29q-23 -39 -77 -71.5t-140 -32.5q-166 0 -223 139h-12 q-51 -57 -123 -97t-160 -40q-100 0 -171.5 60t-67.5 175zM180 1264q0 49 34 83.5t85 34.5t85 -34.5t34 -83.5t-34 -84t-85 -35t-85 34.5t-34 84.5zM340 274q0 -129 135 -129q55 0 117 25v301q-154 -33 -203 -77t-49 -120zM586 1264q0 49 34 83.5t85 34.5t85 -34.5t34 -83.5 t-34 -84t-85 -35t-85 34.5t-34 84.5z" />
<glyph unicode="&#xe5;" horiz-adv-x="1052" d="M70 217q0 111 67.5 175.5t261.5 113.5l193 47v127q0 78 -47 125t-121 47q-123 0 -123 -115v-94l-8 -8h-135q-55 0 -56 63q0 88 131 168q141 88 279 88q152 0 260.5 -61.5t108.5 -200.5v-540q33 -33 98 -33h59l6 -6v-29q-23 -39 -77 -71.5t-140 -32.5q-166 0 -223 139h-12 q-51 -57 -123 -97t-160 -40q-100 0 -171.5 60t-67.5 175zM320 1266q0 74 51 124t131 50q82 0 132 -50.5t50 -123.5q0 -76 -50 -125t-132 -49q-80 0 -131 49t-51 125zM340 274q0 -129 135 -129q55 0 117 25v301q-154 -33 -203 -77t-49 -120zM432 1278q0 -135 78 -135 q61 0 62 110q0 136 -78 136q-61 0 -62 -111z" />
<glyph unicode="&#xe6;" horiz-adv-x="1531" d="M70 217q0 111 67.5 175.5t261.5 113.5l195 47v127q0 78 -47 125t-121 47q-123 0 -123 -115v-94l-8 -8h-137q-53 0 -54 63q0 90 132 168q137 88 276 88q90 0 169 -22.5t128 -71.5q127 94 291 94q166 0 258 -110.5t94 -313.5l-8 -10h-572v-10q0 -129 74 -219t244 -90 q59 0 123.5 14t134.5 49h6v-33q-51 -109 -155.5 -180t-247.5 -71q-256 0 -377 174h-17q-59 -74 -145 -123t-201 -49q-100 0 -170.5 60t-70.5 175zM340 274q0 -129 137 -129q45 0 87 13.5t83 36.5q-53 100 -53 231v45q-154 -33 -204 -77t-50 -120zM879 612h346 q-16 141 -59 195.5t-113 54.5q-145 0 -174 -250z" />
<glyph unicode="&#xe7;" horiz-adv-x="991" d="M78 424q0 233 141 381.5t373 148.5q205 0 291 -100q33 -39 32 -61q0 -25 -26 -50l-96 -81h-15l-67 94q-37 47 -70 77.5t-96 30.5q-94 0 -142.5 -93t-48.5 -249q0 -133 70 -227t231 -94q57 0 123 14t135 49h7v-33q-45 -96 -132.5 -164.5t-207.5 -82.5l-31 -72 q117 -35 164 -85t47 -130q0 -82 -58.5 -135.5t-156.5 -53.5q-104 0 -166 50v39h6q54 -25 117 -25q115 0 114 80q0 43 -40.5 73.5t-161.5 63.5l88 191q-190 6 -307 126.5t-117 317.5z" />
<glyph unicode="&#xe8;" horiz-adv-x="1015" d="M78 424q0 233 147.5 381.5t358.5 148.5q166 0 258 -110.5t94 -313.5l-8 -10h-574v-10q0 -129 75 -219t245 -90q59 0 123.5 14t134.5 49h6v-33q-51 -109 -157 -180t-249 -71q-211 0 -332.5 121.5t-121.5 322.5zM172 1448h226l170 -363h-45l-269 222q-82 66 -82 141z M360 612h347q-14 139 -58 194.5t-112 55.5q-147 0 -177 -250z" />
<glyph unicode="&#xe9;" horiz-adv-x="1015" d="M78 424q0 233 147.5 381.5t358.5 148.5q166 0 258 -110.5t94 -313.5l-8 -10h-574v-10q0 -129 75 -219t245 -90q59 0 123.5 14t134.5 49h6v-33q-51 -109 -157 -180t-249 -71q-211 0 -332.5 121.5t-121.5 322.5zM360 612h347q-14 139 -58 194.5t-112 55.5q-147 0 -177 -250 zM526 1085l170 363h226q0 -74 -82 -141l-269 -222h-45z" />
<glyph unicode="&#xea;" horiz-adv-x="1015" d="M78 424q0 233 147.5 381.5t358.5 148.5q166 0 258 -110.5t94 -313.5l-8 -10h-574v-10q0 -129 75 -219t245 -90q59 0 123.5 14t134.5 49h6v-33q-51 -109 -157 -180t-249 -71q-211 0 -332.5 121.5t-121.5 322.5zM217 1085l279 363h98l279 -363h-45l-283 170l-283 -170h-45z M360 612h347q-14 139 -58 194.5t-112 55.5q-147 0 -177 -250z" />
<glyph unicode="&#xeb;" horiz-adv-x="1015" d="M78 424q0 233 147.5 381.5t358.5 148.5q166 0 258 -110.5t94 -313.5l-8 -10h-574v-10q0 -129 75 -219t245 -90q59 0 123.5 14t134.5 49h6v-33q-51 -109 -157 -180t-249 -71q-211 0 -332.5 121.5t-121.5 322.5zM223 1264q0 49 34 83.5t85 34.5t85 -34.5t34 -83.5t-34 -84 t-85 -35t-85 34.5t-34 84.5zM360 612h347q-14 139 -58 194.5t-112 55.5q-147 0 -177 -250zM629 1264q0 49 34 83.5t85 34.5t85 -34.5t34 -83.5t-34 -84t-85 -35t-85 34.5t-34 84.5z" />
<glyph unicode="&#xec;" horiz-adv-x="681" d="M-33 1448h226l170 -363h-45l-269 222q-82 66 -82 141zM68 0v33l137 65v623l-131 96v25l395 112h25v-856l120 -65v-33h-546z" />
<glyph unicode="&#xed;" horiz-adv-x="681" d="M68 0v33l137 65v623l-131 96v25l395 112h25v-856l120 -65v-33h-546zM321 1085l170 363h226q0 -74 -82 -141l-269 -222h-45z" />
<glyph unicode="&#xee;" horiz-adv-x="681" d="M14 1085l279 363h98l279 -363h-45l-283 170l-283 -170h-45zM68 0v33l137 65v623l-131 96v25l395 112h25v-856l120 -65v-33h-546z" />
<glyph unicode="&#xef;" horiz-adv-x="681" d="M20 1264q0 49 34 83.5t85 34.5t85 -34.5t34 -83.5t-34 -84t-85 -35t-85 34.5t-34 84.5zM68 0v33l137 65v623l-131 96v25l395 112h25v-856l120 -65v-33h-546zM426 1264q0 49 34 83.5t85 34.5t85 -34.5t34 -83.5t-34 -84t-85 -35t-85 34.5t-34 84.5z" />
<glyph unicode="&#xf0;" horiz-adv-x="1130" d="M72 459q0 225 144 360t349 135q72 0 131 -12q-53 150 -151 262l-144 -133h-149l221 205q-125 106 -305 170v88q221 -53 403 -168l164 152h150l-228 -211q186 -141 294 -341t108 -429q0 -252 -141.5 -404.5t-358.5 -152.5q-213 0 -350 138t-137 341zM367 473 q0 -170 51 -281.5t153 -111.5q86 0 135.5 110.5t49.5 356.5q0 100 -13 190q-37 51 -76.5 82t-103.5 31q-196 0 -196 -377z" />
<glyph unicode="&#xf1;" horiz-adv-x="1265" d="M63 0v33l138 65v623l-131 84v24l372 125h25l18 -151h11q74 72 143.5 111.5t163.5 39.5q125 0 203.5 -63.5t78.5 -188.5v-604l138 -65v-33h-529v33l103 65v520q0 72 -42 110t-106 38q-94 0 -162 -55v-613l105 -65v-33h-529zM305 1126q59 182 106.5 230.5t112.5 48.5 q84 0 157 -63.5t132 -63.5q37 0 63.5 23.5t59.5 103.5h45q-59 -182 -106.5 -230.5t-112.5 -48.5q-84 0 -157 63.5t-132 63.5q-37 0 -63.5 -23.5t-59.5 -103.5h-45z" />
<glyph unicode="&#xf2;" horiz-adv-x="1120" d="M72 467q0 201 136 344t353 143t352.5 -143t135.5 -344t-135.5 -344t-352.5 -143t-353 143t-136 344zM184 1448h226l170 -363h-45l-269 222q-82 66 -82 141zM367 510q0 -168 52 -299t165 -131q88 0 129 104.5t41 241.5q0 168 -49.5 299t-161.5 131q-92 0 -134 -104.5 t-42 -241.5z" />
<glyph unicode="&#xf3;" horiz-adv-x="1120" d="M72 467q0 201 136 344t353 143t352.5 -143t135.5 -344t-135.5 -344t-352.5 -143t-353 143t-136 344zM367 510q0 -168 52 -299t165 -131q88 0 129 104.5t41 241.5q0 168 -49.5 299t-161.5 131q-92 0 -134 -104.5t-42 -241.5zM538 1085l170 363h226q0 -74 -82 -141 l-269 -222h-45z" />
<glyph unicode="&#xf4;" horiz-adv-x="1120" d="M72 467q0 201 136 344t353 143t352.5 -143t135.5 -344t-135.5 -344t-352.5 -143t-353 143t-136 344zM229 1085l279 363h98l279 -363h-45l-283 170l-283 -170h-45zM367 510q0 -168 52 -299t165 -131q88 0 129 104.5t41 241.5q0 168 -49.5 299t-161.5 131 q-92 0 -134 -104.5t-42 -241.5z" />
<glyph unicode="&#xf5;" horiz-adv-x="1120" d="M72 467q0 201 136 344t353 143t352.5 -143t135.5 -344t-135.5 -344t-352.5 -143t-353 143t-136 344zM219 1126q59 182 106.5 230.5t112.5 48.5q84 0 157 -63.5t132 -63.5q37 0 63.5 23.5t59.5 103.5h45q-59 -182 -106.5 -230.5t-112.5 -48.5q-84 0 -157 63.5t-132 63.5 q-37 0 -63.5 -23.5t-59.5 -103.5h-45zM367 510q0 -168 52 -299t165 -131q88 0 129 104.5t41 241.5q0 168 -49.5 299t-161.5 131q-92 0 -134 -104.5t-42 -241.5z" />
<glyph unicode="&#xf6;" horiz-adv-x="1120" d="M72 467q0 201 136 344t353 143t352.5 -143t135.5 -344t-135.5 -344t-352.5 -143t-353 143t-136 344zM235 1264q0 49 34 83.5t85 34.5t85 -34.5t34 -83.5t-34 -84t-85 -35t-85 34.5t-34 84.5zM367 510q0 -168 52 -299t165 -131q88 0 129 104.5t41 241.5q0 168 -49.5 299 t-161.5 131q-92 0 -134 -104.5t-42 -241.5zM641 1264q0 49 34 83.5t85 34.5t85 -34.5t34 -83.5t-34 -84t-85 -35t-85 34.5t-34 84.5z" />
<glyph unicode="&#xf7;" d="M143 502v110h861v-110h-861zM502 127v141h143v-141h-143zM502 846v141h143v-141h-143z" />
<glyph unicode="&#xf8;" horiz-adv-x="1120" d="M72 -20l129 151q-129 137 -129 336q0 201 136 344t353 143q156 0 277 -80l69 80h142l-129 -149q129 -137 129 -338t-135.5 -344t-352.5 -143q-158 0 -278 81l-70 -81h-141zM367 510q0 -92 14 -170l326 379q-57 137 -164 137q-92 0 -134 -103.5t-42 -242.5zM416 217 q59 -137 168 -137q88 0 129 104.5t41 241.5q0 92 -13 168z" />
<glyph unicode="&#xf9;" horiz-adv-x="1208" d="M31 901v33h424v-619q0 -147 145 -147q92 0 156 53v615l-123 65v33h411v-838l130 -63v-33h-418v131h-8q-72 -72 -140 -111.5t-162 -39.5q-123 0 -201.5 63t-78.5 188v605zM227 1448h226l170 -363h-45l-269 222q-82 66 -82 141z" />
<glyph unicode="&#xfa;" horiz-adv-x="1208" d="M31 901v33h424v-619q0 -147 145 -147q92 0 156 53v615l-123 65v33h411v-838l130 -63v-33h-418v131h-8q-72 -72 -140 -111.5t-162 -39.5q-123 0 -201.5 63t-78.5 188v605zM581 1085l170 363h226q0 -74 -82 -141l-269 -222h-45z" />
<glyph unicode="&#xfb;" horiz-adv-x="1208" d="M31 901v33h424v-619q0 -147 145 -147q92 0 156 53v615l-123 65v33h411v-838l130 -63v-33h-418v131h-8q-72 -72 -140 -111.5t-162 -39.5q-123 0 -201.5 63t-78.5 188v605zM274 1085l279 363h98l279 -363h-45l-283 170l-283 -170h-45z" />
<glyph unicode="&#xfc;" horiz-adv-x="1208" d="M31 901v33h424v-619q0 -147 145 -147q92 0 156 53v615l-123 65v33h411v-838l130 -63v-33h-418v131h-8q-72 -72 -140 -111.5t-162 -39.5q-123 0 -201.5 63t-78.5 188v605zM280 1264q0 49 34 83.5t85 34.5t85 -34.5t34 -83.5t-34 -84t-85 -35t-85 34.5t-34 84.5zM686 1264 q0 49 34 83.5t85 34.5t85 -34.5t34 -83.5t-34 -84t-85 -35t-85 34.5t-34 84.5z" />
<glyph unicode="&#xfd;" horiz-adv-x="974" d="M-74 901v33h566v-33l-127 -59v-6l225 -474h14l174 465v9l-121 65v33h392v-33l-146 -67l-409 -996q-29 -72 -46.5 -110.5t-62.5 -102.5q-41 -59 -101.5 -89t-113.5 -30q-47 0 -58.5 13.5t-11.5 46.5v141l11 10h92q76 0 116.5 21.5t88.5 130.5l53 129l-408 848zM555 1085 l170 363h226q0 -74 -82 -141l-269 -222h-45z" />
<glyph unicode="&#xfe;" horiz-adv-x="1200" d="M63 -438l138 65v1676l-131 96v24l385 113h32v-700h15q141 119 293 118q137 0 239.5 -119.5t102.5 -328.5q0 -246 -142.5 -386t-332.5 -140q-100 0 -175 20v-373l160 -65v-33h-584v33zM487 154q59 -68 162 -68q74 0 137.5 73.5t63.5 286.5q0 176 -69.5 258t-155.5 82 q-66 0 -138 -41v-591z" />
<glyph unicode="&#xff;" horiz-adv-x="974" d="M-74 901v33h566v-33l-127 -59v-6l225 -474h14l174 465v9l-121 65v33h392v-33l-146 -67l-409 -996q-29 -72 -46.5 -110.5t-62.5 -102.5q-41 -59 -101.5 -89t-113.5 -30q-47 0 -58.5 13.5t-11.5 46.5v141l11 10h92q76 0 116.5 21.5t88.5 130.5l53 129l-408 848zM251 1264 q0 49 34 83.5t85 34.5t85 -34.5t34 -83.5t-34 -84t-85 -35t-85 34.5t-34 84.5zM657 1264q0 49 34 83.5t85 34.5t85 -34.5t34 -83.5t-34 -84t-85 -35t-85 34.5t-34 84.5z" />
<glyph unicode="&#x152;" horiz-adv-x="2131" d="M100 653q0 317 220.5 508t556.5 191h1091v-355h-33l-151 242h-449v-485h316l114 176h33v-461h-33l-114 172h-316v-528h498l160 305h32v-418h-1163q-362 2 -562 177t-200 476zM420 690q0 -264 129 -420.5t381 -156.5h96v1126h-119q-233 0 -360 -148.5t-127 -400.5z" />
<glyph unicode="&#x153;" horiz-adv-x="1710" d="M72 467q0 201 136 344t353 143q219 0 359 -149q145 150 358 149q166 0 258 -110.5t94 -313.5l-8 -10h-573v-10q0 -129 74.5 -219t244.5 -90q57 0 122.5 14t135.5 49h6v-33q-51 -109 -156.5 -180t-248.5 -71q-211 0 -334 122q-135 -122 -332 -122q-217 0 -353 143 t-136 344zM367 510q0 -168 52 -299t165 -131q88 0 129 104.5t41 241.5q0 168 -49.5 299t-161.5 131q-92 0 -134 -103.5t-42 -242.5zM1055 612h348q-16 141 -59 195.5t-113 54.5q-147 0 -176 -250z" />
<glyph unicode="&#x178;" horiz-adv-x="1544" d="M41 1319v33h633v-33l-154 -76v-8l357 -481l319 477v8l-158 80v33h467v-33l-137 -68l-432 -618v-516l182 -84v-33h-676v33l185 84v514l-447 608zM530 1608q0 51 34 86t85 35t85 -35t34 -86q0 -49 -34 -84t-85 -35t-85 35t-34 84zM936 1608q0 51 34 86t85 35t85 -35t34 -86 q0 -49 -34 -84t-85 -35t-85 35t-34 84z" />
<glyph unicode="&#x2c6;" horiz-adv-x="1024" d="M184 1085l279 363h98l279 -363h-45l-283 170l-283 -170h-45z" />
<glyph unicode="&#x2dc;" horiz-adv-x="1024" d="M174 1126q59 182 106.5 230.5t112.5 48.5q84 0 157 -63.5t132 -63.5q37 0 63.5 23.5t59.5 103.5h45q-59 -182 -106.5 -230.5t-112.5 -48.5q-84 0 -157 63.5t-132 63.5q-37 0 -63.5 -23.5t-59.5 -103.5h-45z" />
<glyph unicode="&#x2000;" horiz-adv-x="921" />
<glyph unicode="&#x2001;" horiz-adv-x="1843" />
<glyph unicode="&#x2002;" horiz-adv-x="921" />
<glyph unicode="&#x2003;" horiz-adv-x="1843" />
<glyph unicode="&#x2004;" horiz-adv-x="614" />
<glyph unicode="&#x2005;" horiz-adv-x="460" />
<glyph unicode="&#x2006;" horiz-adv-x="307" />
<glyph unicode="&#x2007;" horiz-adv-x="307" />
<glyph unicode="&#x2008;" horiz-adv-x="230" />
<glyph unicode="&#x2009;" horiz-adv-x="368" />
<glyph unicode="&#x200a;" horiz-adv-x="102" />
<glyph unicode="&#x2010;" horiz-adv-x="755" d="M96 455v143h563v-143h-563z" />
<glyph unicode="&#x2011;" horiz-adv-x="755" d="M96 455v143h563v-143h-563z" />
<glyph unicode="&#x2012;" horiz-adv-x="755" d="M96 455v143h563v-143h-563z" />
<glyph unicode="&#x2013;" horiz-adv-x="1024" d="M96 506v102h832v-102h-832z" />
<glyph unicode="&#x2014;" horiz-adv-x="2048" d="M96 506v102h1856v-102h-1856z" />
<glyph unicode="&#x2018;" horiz-adv-x="495" d="M86 1217q0 90 71.5 182t235.5 139v-53q-164 -59 -164 -168q0 -82 97 -133l65 -35l4 -23l-59 -114q-20 -39 -47 -39q-18 0 -47 14q-156 84 -156 230z" />
<glyph unicode="&#x2019;" horiz-adv-x="495" d="M100 1384l60 115q23 39 47 39q18 0 49 -14q154 -84 154 -230q0 -84 -70 -179t-238 -142v53q164 59 164 168q0 82 -96 133l-66 35z" />
<glyph unicode="&#x201a;" horiz-adv-x="495" d="M100 12l60 115q23 39 47 39q18 0 49 -14q154 -84 154 -230q0 -84 -70 -179t-238 -142v53q164 59 164 168q0 82 -96 133l-66 35z" />
<glyph unicode="&#x201c;" horiz-adv-x="892" d="M86 1217q0 90 71.5 182t235.5 139v-53q-164 -59 -164 -168q0 -82 97 -133l65 -35l4 -23l-59 -114q-20 -39 -47 -39q-18 0 -47 14q-156 84 -156 230zM483 1217q0 90 71.5 182t235.5 139v-53q-164 -59 -164 -168q0 -82 97 -133l65 -35l4 -23l-59 -114q-20 -39 -47 -39 q-18 0 -47 14q-156 84 -156 230z" />
<glyph unicode="&#x201d;" horiz-adv-x="892" d="M100 1384l60 115q23 39 47 39q18 0 49 -14q154 -84 154 -230q0 -84 -70 -179t-238 -142v53q164 59 164 168q0 82 -96 133l-66 35zM497 1384l60 115q23 39 47 39q18 0 49 -14q154 -84 154 -230q0 -84 -70 -179t-238 -142v53q164 59 164 168q0 82 -96 133l-66 35z" />
<glyph unicode="&#x201e;" horiz-adv-x="892" d="M100 12l60 115q23 39 47 39q18 0 49 -14q154 -84 154 -230q0 -84 -70 -179t-238 -142v53q164 59 164 168q0 82 -96 133l-66 35zM497 12l60 115q23 39 47 39q18 0 49 -14q154 -84 154 -230q0 -84 -70 -179t-238 -142v53q164 59 164 168q0 82 -96 133l-66 35z" />
<glyph unicode="&#x2022;" horiz-adv-x="1024" d="M262 557q0 106 70.5 177t179.5 71q104 0 176 -70.5t72 -177.5q0 -106 -72 -178t-176 -72q-109 0 -179.5 72t-70.5 178z" />
<glyph unicode="&#x2026;" horiz-adv-x="1519" d="M123 141q0 63 45 108.5t106 45.5t106.5 -45t45.5 -109q0 -61 -45.5 -106t-106.5 -45t-106 45t-45 106zM608 141q0 63 45 108.5t106 45.5t106.5 -45t45.5 -109q0 -61 -45.5 -106t-106.5 -45t-106 45t-45 106zM1092 141q0 63 45 108.5t106 45.5t106.5 -45t45.5 -109 q0 -61 -45.5 -106t-106.5 -45t-106 45t-45 106z" />
<glyph unicode="&#x202f;" horiz-adv-x="368" />
<glyph unicode="&#x2039;" horiz-adv-x="561" d="M53 506l416 362h39l-217 -362l217 -363h-39z" />
<glyph unicode="&#x203a;" horiz-adv-x="561" d="M53 143l217 363l-217 362h39l416 -362l-416 -363h-39z" />
<glyph unicode="&#x205f;" horiz-adv-x="460" />
<glyph unicode="&#x20ac;" d="M57 508v90h152v51q0 86 10 166h-162v90h181q47 209 174 338t315 129q201 0 295 -108q33 -39 33 -62q0 -25 -27 -49l-96 -80h-14l-66 92q-82 115 -154 115q-78 0 -126 -101.5t-64 -273.5h391v-90h-395q-2 -39 -2 -80q0 -74 6 -137h391v-90h-379q57 -311 309 -311 q121 0 224 82h6v-80q-47 -92 -140.5 -155.5t-226.5 -63.5q-203 0 -325.5 142t-149.5 386h-160z" />
<glyph unicode="&#x2122;" horiz-adv-x="1509" d="M117 1186v166h501v-166h-10l-59 119h-123v-433l76 -30v-13h-269v13l82 30v433h-125l-59 -119h-14zM674 829v13l61 30l17 437l-68 30v13h190l160 -371l160 371h184v-13l-67 -30l14 -437l55 -30v-13h-225v13l57 30l-6 381l-184 -428h-43l-178 420l-13 -373l66 -30v-13h-180 z" />
<glyph unicode="&#x25fc;" horiz-adv-x="931" d="M0 0v932h932v-932h-932z" />
</font>
</defs>
</svg>
